<svg id="Layer_1" xmlns="http://www.w3.org/2000/svg" viewBox="0 0 512 512"><style>.stroke{fill: #222;stroke: #222;}@media(prefers-color-scheme: dark){.stroke {fill: #fff;stroke: #fff;}}</style><path class="stroke" d="M475.81,104.99v3.91c-147.1,0-185.6,189.36-185.6,189.36l-1.8-.45h-2.41c0-64.52,23.16-137.32,34.89-157.02-6.62,3.46-13.69,14.74-25.72,33.84-18.65,29.48-44.37,72.95-78.96,106.34,5.72,2.71,11.58,5.57,17.6,8.72l-1.8,3.61c-6.47-3.31-12.78-6.47-18.95-9.33-28.28,26.47-62.27,46.02-102.88,46.02-122.13,0-87.99-138.52,102.28-50.69,34.59-33.09,60.46-76.71,79.41-106.79,14.89-23.76,23.16-37,33.84-37v3.91c-4.96,0-31.74,72.19-35.35,142.58,12.94-45.42,61.22-177.03,185.45-177.03ZM209.29,282.17C26.7,198.4-4.73,326.09,110.18,326.09c38.96,0,71.74-18.5,99.12-43.92Z" stroke-linejoin="round" stroke-width="6"/></svg>