<?xml version="1.0" encoding="UTF-8"?>
<!-- Created with Inkscape (http://www.inkscape.org/) -->
<svg width="200" height="300" version="1.1" viewBox="0 0 52.917 79.375" xml:space="preserve" xmlns="http://www.w3.org/2000/svg"><g transform="translate(0 3.4554)" fill-rule="evenodd"><g id="body/mono/Whatever" transform="matrix(-.042734 0 0 .042734 47.56 33.069)"><path id="ðŸŽ¨-Background" d="m1017 283.36c10.243-5.3466 20.244-11.156 30.087-17.202 6.933-4.1469 0.795-14.593-6.314-10.818-3.635 1.9307-7.256 3.8805-10.89 5.7992 2.86-2.4635 5.511-5.1453 7.888-8.0684l-0.164-0.16323c9.164-8.2106-2.607-23.702-13.029-16.958-9.191 6.6624-18.466 13.46-29.016 17.847-21.852 9.2661-45.955 10.799-69.409 11.067-8.583-0.64491-16.781 0.84219-25.109 2.4995 3.265-13.098 11.436-22.989 15.77-35.675 3.198-12.808-15.29-21.532-21.842-9.221-1.608 3.0233-3.141 6.0816-4.64 9.1549-14.162 12.881-37.81 11.747-52.093 25.577-8.1355 7.2207-12.117 17.018-13.69 26.852-1.0678 6.6774 0.59215 13.371-3.4453 19.286-19.519 27.608-50.361 71.246-66.024 101.63-11.09-72.198-40.701-161.5-71.292-227.51-10.116-21.113-21.689-41.743-36.881-59.639 1.722-5.9684-4.356-16.562-8.221-13.301-11.897-14.534-32.927-18.296-49.837-25.521-22.827-9.7608-41.766-30.049-51.076-53.109-11.962-43.912-41.409-49.49-82.248-47.549-39.084-0.04907-68.001 16.668-76.529 56.454-17.325 30.198-58.231 25.204-87.66 33.198-21.568 4.927-42.499 12.545-62.391 22.215-22.129-20.991-101.38 67.104-108.59 89.776 4.241 0.82216 8.456 1.8116 12.633 3.0173 3.72 1.0755 2.158 6.6944-1.594 5.7952-4.669-1.1216-9.368-1.8937-14.089-2.4294-0.144 0.45164-0.27 0.90027-0.364 1.3439-0.53-0.036-1.059-0.0811-1.589-0.11717 1.175 0.61187 2.306 1.3219 3.408 2.2372 2.664 2.2121-0.804 6.4812-3.635 4.7187-2.667-1.9958-6.16-1.6804-9.359-2.3503-0.19 6.5783-23.663-0.7811-27.309-2.9612-16.205-2.0269-32.876 0.14821-48.004-7.6668-20.129-4.239-40.409-8.9266-60.312-14.325-5.269 2.0539-10.221 9.4043-6.036 14.798 2.354 2.4545-0.672 6.4621-3.636 4.7177-9.941-5.8513-17.629-14.985-24.147-24.825-3.068-3.0954-8.514-2.4294-12.636-3.7142-0.551 0.9904-0.876 2.094-0.871 3.2256-17.485 2.8781-5.012 21.975 3.778 27.925-4.663 3.0363-4.84 8.9817-4.432 13.947-0.988 1.7685-1.318 3.9606-0.458 5.9424 3.288 7.5767 10.399 13.958 15.806 20.096 5.97 6.7796 11.293 13.596 18.557 19.092 27.688 21.106 61.101 32.905 95.379 37.52 12.171 1.8696 29.678 4.7307 37.214 15.022-1.849 12.214-5.244 23.928-8.324 35.839-4.307 15.809-4.014 32.361-4.071 48.478-0.602-0.48369-1.758-0.38355-1.93 0.53776-1.002 6.6814-1.747 13.513-5.808 19.127-3.56 10.44-5.929 21.574-7.26 32.542-5.332 51.995-6.605 105.52 5.417 156.71 4.639 18.989 12.184 37.035 22.464 53.653 3.065 4.956 7.993 6.408 12.418 5.4347 14.81 7.6939 33.467 10.16 49.43 8.2056 54.421-15.406 35.459 21.692 111.76 10.332 131.71-16.778 264.81 16.193 396.24-3.1645 3.237 25.002 45.611 17.83 60.33 7.2603 44.134-32.809 66.048-136.69 88.197-189.38 15.225-41.534 40.719-115.1 74.106-142.97 10.011-7.8301 22.112-11.952 34.22-15.28 45.188-11.644 90.55-22.656 135.82-33.977 7.678-1.8907 6.298-14.985-1.912-14.145-10.896 1.1146-21.829 2.124-32.762 3.1745z" fill="#fff"/><path id="ðŸ–-Ink" d="m11.045 275.57c-3.06-0.3795-6.06-1.4695-9.04-2.3295-4.55-1.33-9.01-2.88-13.4-4.65-9.06-3.629-17.85-7.92-26.09-13.17-13.31-8.49-25.07-19.37-33.94-32.47l-0.60896-0.91362c-5.0638-7.7132-14.405-24.84-3.931-30.696-6.7503-5.6403-13.13-15.77-12.77-23.59 0.51-11.06 14.07-10.909 21.08-6.22 4.59 3.07 8.03 7.37 11.48 11.601 3.82 4.699 7.9 9.179 12.14 13.489 1.125 1.14 2.2612 2.2575 3.4172 3.3567l1.1627 1.0932c-0.1799-0.4295-0.3399-0.8695-0.4799-1.3205-2.34-7.289 0.45-16.779 7.74-20.119 4.4612-2.0451 9.0944-0.7967 13.417 0.93943l0.66258 0.27057c5.82 2.409 11.71 4.54 17.77 6.25 24.7 6.97 50.48 8.13 75.79 11.61 9.75 1.35 19.68 3.049 29.38 5.549 3.6998-15.71 12.77-30.769 22.61-43.159 47.12-59.271 124.83-78.86 195.92-91.54 6.48-1.15 11.85 7.4296 15.62 5.3996 7.15-3.84 13.44-9.28 18.96-15.19 11.77-12.61 20.12-27.44 29.93-41.49 4.85-6.94 16.01-0.73 11.51 6.72l-2.2045 3.6409c-9.0768 14.914-19.128 30.283-32.146 41.849-6.92 6.14-14.6 10.99-23.38 14.019-6.65 2.291-15.98 4.221-23.26 2l-0.8737-1.2726c0.28906 0.42555 0.58017 0.85 0.8735 1.2733 19 27.53 42.84 50.83 67.96 72.82 25.356 22.184 52.709 42.049 80.227 61.472l2.2935 1.6176c44.83-32.699 82.699-75.349 109.27-124.08-5.569-0.6708-11.079-4.2398-15.839-6.9008-5.73-3.219-11.12-7.06-15.32-12.18-9.15-11.15-7.96-25.52-9.61-39.05-0.1-0.84 1.01-1.05 1.52-0.63 4.96 4.12 6.7 10.87 8.77 16.7 2.28 6.41 4.86 11.691 10.09 16.2 4.87 4.201 10.81 7.29 16.58 10.04 2.9756 1.411 17.747 5.0372 19.43 8.0405 25.52-5.9902 50.38 4.3598 69.29 21.82 18.27 16.87 31.68 38.8 43.52 60.45 12.63 23.1 22.98 47.179 31.9 71.929 9.04 25.121 15.97 50.791 19.78 77.231 3.216 22.291 5.1878 44.933 6.4641 67.473l0.15594 2.817c18.88-29.63 38.23-58.95 57.98-88.01-4.49-11.99 0.48-24.23 8.89-33.49 9.32-10.25 22.21-15.01 34.54-20.55l1.6207-0.7331c5.9428-2.7108 11.866-5.6961 16.999-9.7569 4.94-3.92 8.57-9.32 13.77-12.93 7.56-5.26 21.28-4.14 21.63 7.35 0.18 6.311-2.53 13.23-5.01 18.9-2.81 6.411-6.6 12.22-11.1 17.56-0.208 0.2488-0.4352 0.44512-0.66624 0.60074l-0.17366 0.10926c6.22 1.03 12.49 1.86 18.88 2.15 12.89 0.59 25.92-0.36 38.54-3.08 12.92-2.78 25.44-7.299 37.06-13.6 9.93-5.38 19.13-12.34 30.41-13.98 1.0399-0.1598 2.0899-0.2598 3.1699-0.3198 1.8-0.1 3.6 2.02 2.89 3.799-0.39 0.981-0.8 1.951-1.25 2.931-3.8999 8.5895-9.8818 16.923-17.343 23.247l-0.5769 0.48252c2.6302-0.9098 5.2202-1.9298 7.7702-3.0798 14.99-6.75 28.59-16.95 44.66-21.05 0.76-0.2001 1.53-0.3801 2.3-0.5501 4.97-1.07 7.59 4.33 4.67 8.03-0.47 0.6-0.94 1.19-1.43 1.78-7.17 8.8997-15.08 17.16-23.8 24.58-2.99 2.54-6.07 5-9.21 7.351-1.3232 0.99612-2.6538 1.9707-3.9982 2.9295l-0.6621 0.46954c1.57-1.109 3.12-2.239 4.66-3.399 9.84-2.981 19.54-6.511 29.03-10.42 3.77-1.551 6.7 2.269 7.1 5.409 1.34 10.521-10.34 18.131-17.94 23.19-7.62 5.081-16.01 8.941-24.6 12.04-16.516 5.9688-33.863 8.6793-51.183 11.108l-8.4121 1.1717c-33.297 4.6559-68.074 10.222-91.965 36.131-13.39 14.519-22.45 32.559-30.74 50.309-8.28 17.731-15.55 35.931-22.45 54.231-7.15 18.939-13.38 38.229-20 57.359-6.08 17.566-13.342 34.906-20.535 52.071l-1.1349 2.7088c-15.27 36.481-33.51 70.84-58.93 101.3-4.19 5.03-10.96-2.109-7.09-7.09 26.59-34.28 45.09-74.729 60.36-115.08 6.95-18.359 12.77-37.16 19.45-55.62l3.9749-10.966c5.3075-14.619 10.661-29.219 16.245-43.723 7.07-18.351 14.84-36.481 23.73-54.021l0.94312-1.8468c8.7038-16.921 19.044-33.598 33.277-46.403 25.617-23.058 59.705-28.59 92.664-32.972l10.368-1.3664c13.934-1.8512 27.908-3.8958 41.458-7.6216 7.82-2.139 15.46-4.88 22.64-8.66 2.86-1.5 5.65-3.149 8.35-4.949-7.7 2.26-15.51 4.109-23.46 5.559-3.89 0.71-7.74 1.241-11.58 1.611-9.8896 0.9787-19.7 0.9387-29.83 0.4097-0.86-0.051-1.14-1.4-0.22-1.57 7.0546-1.2546 14.117-2.8231 21.151-4.5255l2.109-0.51523c0.04-1.169 0.5-2.41 1.46-3.589 3.5-4.26 10.15-6.441 14.76-9.451 4.83-3.15 9.51-6.549 13.97-10.19 4.08-3.329 8-6.85 11.77-10.529l1.1302-1.1107c-0.3751 0.37161-0.7519 0.74175-1.1302 1.1101-10.18 4.701-19.83 10.73-30.46 14.451-8.45 2.969-17.31 4.969-26.25 5.679l-0.555 0.0437-0.555 0.0362c-9.3301 0.6701-18.72 0.4001-27.91 2.4201-1.03 0.23-1.35-1.15-0.43-1.54 8.03-3.34 16.38-4.63 24.82-6.19 0.1799-0.6603 0.6399-1.2503 1.4399-1.6303l2.1594-1.031c6.4306-3.0884 12.425-6.206 17.771-11.219 4.72-4.43 8.65-9.609 11.6-15.35-11.81 2.5901-22.18 11.54-32.92 16.57-11.7 5.49-24.08 9.43-36.8 11.671l-1.4492 0.24828c-23.771 3.965-52.355 3.4595-73.651-8.8993-0.68-0.4-0.19-1.309 0.51-1.2 6.04 0.99 12.02 2.16 18 3.2-1.1701-1.07-1.6901-2.99-0.3401-4.53 5.371-6.1548 9.6181-13.19 12.334-20.888l0.51936-1.5054c1.2506-3.5707 3.3631-9.1157 1.2071-12.337-2.06-3.07-6.91-2.65-9.81-1.35-6.03 2.72-10.04 9.511-15.12 13.61-5.54 4.48-11.84 7.8-18.29 10.77l-1.362 0.61882c-11.156 5.0183-23.076 9.2428-31.848 18.101-4.72 4.76-8.78 10.71-10.14 17.38-0.62 3.06-0.62 6.21 0.2 9.24 0.65 2.37 2.01 3.831 1.23 6.24-1.02 3.11-4.63 6.83-6.49 9.6-2.16 3.201-4.31 6.41-6.46 9.62-4.29 6.42-8.56 12.86-12.83 19.29-8.54 12.88-16.99 25.82-25.37 38.8-2.7267 4.2267-5.4444 8.4578-8.1533 12.693l-4.0564 6.3569-2.1438 3.3512-3.6564 5.7478c0.13 0.531 0.12 1.091-0.05 1.58-0.62333 1.7756-1.7908 2.9892-3.2412 3.8691l-0.25904 0.15157c-21.34 33.73-42.34 67.68-63.55 101.49-1.13 10.319-2.19 20.649-3.11 30.979-2.09 23.38-3.52 46.821-3.98 70.29-0.22 11.361 0.69 22.79 1.18 34.14 0.24 5.4171 0.56816 10.828 0.99708 16.237l0.31554 3.8339c0.42249 5.2686 0.66205 10.498-1.2326 15.52-1.68 4.409-6.8 5.399-9.83 2.04-39.53-1.5906-79.09-2.8006-118.65-3.5506-70.81-1.36-141.65-1.15-212.47 0.22-35.57 0.69-71.15 1.66-106.71 2.86-17.52 0.58-35.05 1.4-52.58 1.64-9.4446 0.1287-24.309-3.3102-25.071-13.936l-0.0188-0.32449c-1.18 0.32-2.4 0.58-3.65 0.77-0.55649 0.0856-1.091 0.0613-1.5847-0.0542l-0.24532-0.0652c-14.079 4.291-31.888-1.8316-45.265-5.3996l-1.1044-0.29115c-12.77-3.33-23.03-8.09-31.4-18.67-14.65-18.529-19.65-43.41-22.25-66.34-2.44-21.58-2.58-43.559 0.39-65.099-1.7501-17.55-0.0401-35.66 1.9499-53.111 0.98-8.63 2.13-17.25 3.51-25.83 0.77-4.79 1.78-9.53 2.81-14.26 0.41125-1.89 0.75359-3.9247 1.2749-5.8917l0.23504-0.83816c-1.6 0.21-3.35-0.14-5.04-1.069-4.02-2.21-5.19-6.681-5.26-10.96-0.22-12.901 1.32-26.17 2.68-38.99 1.37-12.8 3.25-25.651 5.71-38.291l0.63658-3.259c1.864-9.4552 3.9969-19.216 7.7534-28.101-14.11-2.3991-28.18-4.9491-41.87-9.2901-6.68-2.13-13.26-4.779-19.54-8.01zm736.46 134.25c-0.2199 0.0502-0.4299 0.1102-0.6399 0.1702-5.64 1.58-11.34 2.92-17.02 4.36-9.82 2.47-19.42 5.23-28.55 9.52-1.9126 24.14-4.748 48.202-7.4432 72.276l-0.53687 4.8152c4.14-7.681 8.38-15.301 12.81-22.83 13.49-22.951 27.29-45.721 41.38-68.311zm-678.09 2.3907c0.0301 2.869-0.5699 5.85-0.8899 8.609-0.52 4.481-0.94 8.981-1.47 13.46-1.08 9-2 18.01-2.67 27.05-0.43 5.771-0.71 11.561-0.96 17.351 5.6701-21.191 13.18-41.92 20.32-62.681-1.1935-0.12593-2.4135-0.41724-3.672-0.75153l-2.1187-0.57065c-1.2493-0.32172-5.3019-1.3185-8.5395-2.4667zm695.95-19.73 0.04 0.95c0.15 3.37-1.87 5.27-4.32 5.76 1.42-2.24 2.85-4.48 4.28-6.71zm-648.8-159.72c5.97 0.529 11.82 1.8 17.4 4l0.53842 0.21016c4.1272 1.593 10.162 3.5946 11.512 7.9998 0.38 1.25-0.64 2.279-1.81 2.38-4.48 0.36-9.76-4.441-13.91-6.061-4.62-1.8-9.46-3.14-14.36-3.85-11.01-1.61-22.49-0.389-32.85 3.621-0.61 0.24-0.99-0.731-0.44-1.021 10.44-5.68 22.05-8.329 33.92-7.279zm-126.51 28.599c-0.6904-0.6103-1.3804-1.2503-2.0604-1.8893-5.3614-5.0721-10.109-10.991-13.625-17.496l-0.92518-1.7604c-2.8632-5.5432-6.379-13.441 0.34969-17.435 4.02-2.389 8.86-1.79 13.34-0.34 0.29 0.09 0.58 0.191 0.87 0.29 2 0.701 3.93 1.54 5.65 2.34 7.47 3.43 14.06 8.42 20.96 12.821 7.4764 4.7699 14.859 7.82 23.487 9.6053l0.81263 0.16368c8.1 1.601 16.88 2.63 22.53 9.29 1.42 1.681 0.12 4.83-2.33 4-15.62-5.269-32.15-6.43-46.49-15.08-5.94-3.58-11.56-7.689-17.63-11.08-3.22-1.8013-6.5445-3.3762-10.087-4.4562l-1.9355-0.57068c-1.1337-0.33101-2.4871-0.65781-3.3971-0.33209-1.7323 0.6-1.1794 1.5268-0.64345 3.1449l0.05345 0.16412c4.21 13.021 16.21 23.92 27.33 31.13 2.55 1.66 5.16 3.181 7.82 4.591 18.005 9.5971 38.152 14.064 57.939 19.366 7.6272 2.1291 12.704 3.5936 15.231 4.3936 4.22-0.351 9.03 1.14 12.21 2.92 3.09 1.729 5.58 4.05 7.46 6.78 0 0 1.81 1.51 2.14 3.85 0.95 2.17 1.59 4.509 1.91 6.95 0.18 1.43-0.18 2.529-0.86 3.309 2.0454 31.393-6.4342 62.609-15.994 92.443l-0.94724 2.9419-0.60875 1.8649c-10.31 31.63-22.14 63.031-27.42 96.01-3.53 22.03-3.42 44.83-0.83 66.96l0.1826 1.5263c2.5519 20.924 7.4619 44.395 20.767 61.235 6.7866 8.5938 14.827 12.413 25.107 15.18l0.56295 0.14993c9.3 2.449 18.9 5.92 28.49 6.97 8.9 0.969 16.36-2.34 24.37-5.441l0.01-9e-3c16.87-14.93 24.53-36.67 30.19-58.611 14.67-56.779 12.85-115.72 4.53-173.33-4.34-30.1-10.24-59.94-16.12-89.77-2.94-14.91-6.11-29.79-8.74-44.75l-1.562-8.8045c-0.86192-4.8914-1.6955-9.7867-2.408-14.705-0.96-6.61-1.25-13.11-1.58-19.76-8.08-13.39-19.81-24.42-33.4-32.33-9.73-5.67-20.03-9.6-30.66-12.45-30.39-8.19-63.52-7.61-94.1-13.91-10.273-2.1139-20.025-5.2526-29.771-9.0134l-1.3293-0.51685c-4.47-1.74-9.03-2.71-11.25 2.56-1.58 3.75-0.64 7.65 1.73 10.8 5.81 7.72 17.49 11.3 26.28 14.08 5.29 1.68 10.69 3.01 16.15 4s10.94 1.24 16.18 3.17c2.02 0.74 2.42 3.95 0 4.519-6.64 1.551-13.32 0.221-19.92-1.069-7.25-1.431-14.39-3.46-21.33-6.03-1.28-0.472-2.6048-0.9696-3.9539-1.4984l-1.0161-0.40197c1.05 0.761 2.1 1.511 3.16 2.261 0.28 0.199 0.11 0.729-0.26 0.599-16.318-6.0875-31.165-17.072-42.668-30.068l-0.57231-0.65146c-4.05-4.641-13.28-18.681-21.06-14.771-7.3056 3.6672 5.1479 17.804 9.8806 23.583l0.54959 0.67737c5.38 0.14 10.59 3.489 14.95 6.189 7.57 4.691 15.48 8.731 23.54 12.51 16.02 7.53 33.03 12.841 48.88 20.75 0.21 0.111 0.05 0.38-0.15 0.351-10.09-1.611-20.07-4.181-29.82-7.37l-0.435-0.13638-0.435-0.14462c-6.09-2-12.1-4.259-18.01-6.67-6.57-2.679-12.99-5.689-19.22-9.099-5.64-3.08-11.9-8.63-18.44-9.45-0.7-0.09-1.32-0.101-1.86-0.05-7.5099 0.6295-1.2999 13.07 0.8001 16.79 3.43 6.11 7.57 11.75 12.32 16.9 9.63 10.46 21.3 18.75 33.93 25.2 4.31 2.2 8.72 4.14 13.2 5.92z"/></g><g transform="matrix(-.040272 0 0 .040272 36.623 14.002)"><path d="m397.5 243.76c-2.376-30.744 1.306-62.968-10.548-92.19-20.668-48.485-78.624-64.651-123.56-83.11-18-5.3186-78.569-6.062-99.645-13.101-47.7-15.932-59.097-34.914-96.999-4.5796-6.398 5.182-10.401 10.814-13.321 18.509l0.12 0.033c-0.834 3.208 0.06 6.409 1.939 8.854-16.434 16.798-23.311 41.982-14.879 64.343 27.517 58.189 26.223 89.652 17.357 152.21-11.578 58.4 14.879 79.733 58.695 111.51-1.784 3.459-2.154 8.056 0.172 11.108 50.667 71.199 146.2 105.19 228.05 69.055 33.225-14.788 48.058-50.171 56.523-82.098 9.861-35.749 12.891-73.419 4.863-109.84-3.238-16.842-7.456-33.562-8.775-50.705z" fill="#fff"/><path d="m105.24-96.863c6.1502-0.92351 10.795 2.8922 13.004 8.2704l0.11602 0.28959c0.71 1.83 1.5 3.61 2.35 5.36 15.39-7.55 37.35-5.61 47.09 9.68 6.95 10.92 2.71 23.88 0.09 35.46l-1.72 7.63c3.3248 2.1158 5.832 5.9046 5.7143 9.828l-0.0143 0.30204-0.7 10.64c2.22-2.25 4.25-4.7 6.06-7.31 1.25-2.29 2.6-4.54 4.05-6.72 8.53-12.83 27.68-1.68 20.64 12.06-1.35 2.65-2.87 5.16-4.5 7.58-1.84 3.57-3.35 7.24-4.51 11.01 3.33 1.45 5.89 4.67 6.16 9.53 0.63 11.35-5.33 20.82-14.81 26.77-2.79 1.75-5.67 2.09-8.28 1.44-0.46 0.62-0.92 1.24-1.36 1.87 3.78 3.07 7.19 6.57 10.12 10.45 8.82-1.32 17.69-1.94 26.56-1.96 10.84-5.31 23.82-5.2 35.47-3.21 7.5 1.28 14.7 3.77 22.08 5.56 7.78 1.88 15.68 1.95 23.55 3.23 9.92 1.61 18.62 6.19 24.09 13.5 6.01 0.18 12.33 2.64 17.57 5.98 12.2 7.78 24.33 15.67 36.5 23.5 4.6706 3.006 6.417 7.805 5.5583 13.158l-0.0583 0.3424-0.41 2.22 0.96283 1.3664c3.7244 5.2594 7.7768 10.768 10.187 16.574 4.46 6.43 8.49 13.17 12.06 20.12 4.81 9.34 8.78 19.24 11.47 29.4 0.67 2.57 1.34 5.16 1.78 7.78 0.63 3.7-0.34 6.57-0.87 10.12-0.66 4.5-0.9 9.06-1.6 13.57-0.47 2.99-3.01 4.46-5.67 4.54 1 7.61 1.72 15.27 2.41 22.87 0.97 10.86 1.63 21.75 2.2 32.64 2.94 4.27 8.95 7.65 13.29 8.82 6.01 1.61 12.31-0.14 17.99-2.19 3.57-1.29 6.5 3.2 4.76 6.2-5.47 9.42-17.17 9.38-26.03 5.21-3.75-1.76-7.04-4.31-9.48-7.63 0.15 3.16 0.31 6.32 0.47 9.49l0.14902 2.8713c1.8016 33.532 5.691 68.217-0.60902 101.42-10.91 57.51-58.502 101.3-116.64 104.7-30.508 1.7844-55.913-7.2266-68.547-12.253-12.633-5.0267-7.7232-15.276 1.0469-12.346 15.108 5.0471 42.862 12.566 67.7 9.3194 58.54-7.6527 108.18-36.912 103.08-162.93-0.72323-17.871-2.95-35.75-3.43-53.62-0.46-17.47-0.29-34.95-1.06-52.41l-0.25676-5.9572c-0.30065-6.9608-0.62213-13.954-1.1432-20.923-0.63-2.7-1.15-5.44-1.92-8.09-2.09-7.21-4.82-14.22-8.21-20.91-0.75 0.57-1.59 0.98-2.5 1.14-6.91 1.24-13.39 0.89-19.86-1.99-3.02-1.33-5.68-3.1-8.16-5.29-1.18-1.03-1.97-2.03-2.59-3.07-3.13 0.05-6.26-0.89-8.22-3.14-2.2355-2.5645-2.6073-5.2133-1.7317-7.6654l0.0917-0.24455-0.22-0.08c-2.64 6.83-7.9 12.84-13.67 16.9-9.12 6.44-20.53 8.3-31.47 8.47-12.08 0.18-24.82-1.68-36.74-3.58-3.15-0.5-6.28-1.07-9.35-1.84-0.12 0.12-0.24 0.26-0.37 0.38-10.23 9.79-24.62 12.31-37.6 6.72-7.5-3.23-13.79-8.43-19.35-14.39-0.08 3.12-0.24 6.24-0.51 9.33l-0.11181 1.227c-0.55361 5.755-1.6189 11.86-5.9682 16.013-7.03 6.73-17.23 4.03-25.34-0.35 0.01 0.21 0.01 0.43 0.01 0.65 2.19 7.44 4.39 14.89 6.59 22.34l0.47386 1.587c1.5998 5.2899 3.3543 10.587 3.8361 16.123 0.92 10.58-6.12 21.03-17.88 17.48-6.1686-1.8554-11.11-7.042-15.852-11.196l-2.9879-2.5838c7.73 25.27 13.09 51.44 13.59 77.81 0.03 1.43-1.2 2.51-2.56 2.56-3.18 0.13-6.6-0.5-9.8-1.77-0.18-0.01-0.36-0.02-0.55-0.05-5.46-0.79-10.53-2.76-15-5.67 1.03 3.27 1.49 6.78 1.22 10.45-0.07 0.89-1.46 1.2-1.66 0.22-2.58-12.69-17.43-22.28-30.23-19.85-13.74 2.61-23.86 14.43-26.34 27.88-2.66 14.45 2.43 31.16 11.86 42.31 4.34 5.14 10.05 9.43 16.83 10.51 3.1 0.49 6.32 0.32 9.33-0.56 1.28-0.38 2.48-0.91 3.7-1.41 1.78-0.72 3.86-0.83 5.54-1.59 3.81-1.71 7.64 1.8 5.71 5.71-1.68 3.41-3.19 5.71-5.98 7.47 2.26 2.76 4.31 6.6 5.07 7.63 3.88 5.24 7.82 10.19 12.24 14.98 4.5 4.86 9.41 9.3 14.6 13.41l2.1815 1.7238c4.9991 3.9648 9.3522 7.6388 12.878 13.326 2.78 4.49-0.82 10.58-6.03 10.51-16.3-0.23-28.15-14.55-36.59-27.06-1.2-1.79-2.33-3.68-3.38-5.62-0.38 0.61-0.8 1.18-1.27 1.7l0.93 2.5c2.76 7.36-9.13 12.17-12.58 5.3-2.51-4.98-5.42-9.72-8.66-14.2-1.91-0.27-3.78-1.43-4.82-2.93-2.63-3.81-5.58-7.66-8.07-11.72-1.38-1.31-2.8-2.57-4.25-3.8-0.42 0.37-0.85 0.74-1.26 1.13-1.82 4.15-4.07 7.94-6.86 11.51l-0.59818 0.76162c-5.3449 6.7362-12.307 13.631-20.922 15.278-2.63 0.5-5.16-2.77-2.83-4.86 6.03-5.42 13.16-9.11 18.72-15.16 2.7393-2.9807 5.2544-6.2632 7.4172-9.7034l0.4928-0.79662c0.36-0.59 0.73-1.18 1.11-1.78-2.51-1.71-5.02-3.43-7.53-5.15-6.9097 5.9032-15.908 8.6035-23.55 13.494l-0.75961 0.4965c-6.91 4.62-14.19-5.6-8.65-11.21 6.107-6.161 11.205-13.508 16.615-20.356-2.544-4.686-3.748-10.227-4.199-15.827-0.178-1.585-0.317-3.171-0.456-4.757-3.88 0.06-7.78-1.27-11.08-3.56l-1.25-0.89c-4.01 1.28-8.22 1.9-12.25 1.79-9.48-0.28-13.36-11.11-7.43-17.96 6.05-7 16.64-8.53 25.03-5.13 0.27-0.14 0.55-0.29 0.82-0.44-0.4-1.84-0.311-3.509 0.144-4.975l-0.132-0.894c-1.845-2.831-3.058-6.063-3.518-9.478-0.364-2.705-0.29-5.386 0.336-8.057 0.208-0.889 0.641-1.81 0.972-2.737-0.682-1.722-1.083-3.502-1.207-5.292-0.191-0.227-0.381-0.46-0.561-0.712-4.163-5.845-3.322-12.888 0.64-17.618 0.018-0.301 0.046-0.602 0.087-0.901-0.232-0.522-0.445-1.049-0.639-1.582-3.871-3.905-6.713-8.604-6.183-14.427 0.311-3.426 1.719-6.51 3.85-8.815-0.378-1.118-0.414-2.413 0.044-3.494-3.401-9.046-2.971-19.941-0.523-30.058-0.54-1.54-0.82-3.21-0.76-4.98 0.28-7.51 6.78-14.41 14.48-14.32 0.927 8e-3 1.795 0.129 2.629 0.306l0.011-0.179c0.295-2.254 0.915-4.337 1.82-6.206-0.445-0.161-0.857-0.392-1.218-0.699-4.934 2.632-10.155 4.644-15.629 6.015-4.025 1.008-8.148-3.567-5.646-7.345 1.161-1.753 2.442-3.327 3.822-4.765-1.962 0.011-3.954 0.144-5.969 0.403-3.62 0.47-7.66-2-10.01-5.34-2.92 2.84-5.85 5.67-8.78 8.5-7.42 7.19-18.63 1.9-19.8-7.58-2.21-0.59-4.27-1.59-6.08-3.02-11.7 5.08-24.29 7.87-37.16 8.4-9.24 0.38-14.64-10.38-10.32-17.98 2.9-5.1 6.5-9.68 10.65-13.66-6.44 1.97-13.09 3.39-19.88 4.3-3.67 0.49-8.86-2.55-10.33-5.92-5.62-12.96-5.14-26.47 1.33-39.08 0.25-0.5 0.53-0.98 0.8-1.46 0.67-1.67 1.4-3.32 2.19-4.94-7.96-8.3-8.65-20.64-4.36-30.97-1.72-2.79-2.38-6.15-1.21-9.19 3.33-8.75 8.13-16.83 14.19-23.77-0.58-1.12-1.09-2.31-1.52-3.59-3.41-10.35 0.54-22.84 8.51-30.05 5.01-4.54 10.77-7.26 16.92-9 2.59-4.58 5.92-8.71 9.8-12.19 0.15-0.33 0.3-0.66 0.47-0.99 6.04-11.38 17.04-17.48 28.83-18.89 0.46-4.45 3.46-8.7 7.82-10.08 1.2-3.85 2.99-7.53 5.45-10.87 3.87-5.26 10.3-7.74 16.36-4.29 3.32 1.89 6.5 4.06 9.48 6.46 1.3385-0.62769 2.8559-1.0338 4.5679-1.1634l0.43208-0.0266 9.86-0.5c4.13-1.83 8.25-3.75 12.38-5.62 2.48-2.05 5.25-3.76 8.27-5.03 3.42-1.43 6.92-2.24 10.43-2.51 2.85-0.93 5.72-1.75 8.64-2.39 6.86-1.5 14.04-2.34 21.16-2.27 0.14571-1.8429 0.21796-3.7078 0.20414-5.5947l-0.01414-0.9453c-0.16-6.05 4.67-10.88 10.36-11.74zm-6.91 484.05c-0.98 0.21-1.97 0.38-2.96 0.5 0.3 0.74 0.6 1.48 0.89 2.22 0.8 0.45 1.61 0.88 2.42 1.28-0.24-1.36-0.38-2.73-0.35-4zm-51.377-15.267-0.66482 1.2242c-0.10774 0.20029-0.21385 0.39818-0.31818 0.59285 1.41-0.11 2.83-0.08 4.23 0.08l-4e-3 -0.149c-0.18-0.061-0.36-0.117-0.532-0.201-0.966-0.464-1.864-0.984-2.711-1.547zm27.767-55.853c8.8472 0.51528 16.343 1.8718 24.389 5.7421l0.69106 0.33793c7.11 3.53 18.87 10.05 17.88 19.4-0.28 2.66-2.21 5.46-5.25 5.25-8.33-0.57-13.09-8.97-18.73-14.21-5.69-5.28-12.68-10.71-19.57-14.34-0.97393-0.51107-0.59028-2.1287 0.4695-2.1808zm-40.12-123.19c-2.12 0.07-1.41 2.13-0.32 0.41 0.09-0.14 0.2-0.28 0.32-0.41zm114.44-137.52c-20.078 0.528-40.285 12.383-55.326 24.366-13.085 10.425-24.384 22.825-34.389 36.19-2.574 6.656-4.784 13.451-6.651 20.296-1.23 4.52-2 9.09-3.03 13.65l-0.32 1.398c-0.809 1.512-1.41 3.139-1.848 4.82 1.823 1.828 4.188 3.137 6.792 3.758 0.839 0.2 1.536 0.633 2.087 1.207 2.096-3.498 3.928-7.19 4.994-11.104l0.039-0.181c4.029-6.599 8.405-12.993 13.096-19.168 12.94-17.05 27.19-32.59 44.32-45.52 12.99-9.8 27.51-17.48 42.95-22.47-3.779-3.049-8.071-5.461-12.714-7.242z"/></g><path d="m23.482 28.948c-0.01306 0.01426 0.0157 0.03346 0.03005 0.02308 0.16615-0.12044 0.42786-0.05207 0.58827 0.0025 0.03908 1.2596 0.037 1.9043-0.0063 1.9342-0.06486 0.04477-0.97902 0.01818-0.97902 0.13029 0 0.36646 0.54975 0.50404 0.84816 0.48223 0.46984-0.03424 0.95408-0.10124 1.4233-0.04698 0.46918 0.05426 1.4659 0.35368 1.9761-0.06011 0.60852-0.49353 0.52624-1.3046 0.01993-1.8341-0.31916-0.33376-0.78881-0.534-1.2519-0.68236-0.67763-0.21711-2.2747-0.35724-2.6486 0.05135zm1.2499 1.3871c0.24573 0.09565 1.4673 0.49909 1.7575 0.57257-0.33922-0.02434-1.4975-0.05124-1.7575-0.17708-0.02919-0.11781-0.0478-0.41411 0-0.39549zm-0.18651-1.3098c0.66491 0.10798 2.1008 0.59496 2.3071 0.85418-0.31346-0.04929-2.0623-0.25922-2.2596-0.25922-0.02866-0.15259-0.0097-0.4201-0.0475-0.59496zm-0.21246-2.9585c-0.3294 0.20022-0.83129 0.6671-0.47694 1.1635 0.41711 0.43767 1.0177-0.06414 1.3136-0.2911 0.27441-0.17589 0.58272 0.27648 0.32812 0.48186-2.1384 1.5832-3.0063-1.3019-1.3314-1.5896 0.18441-0.03171 0.2529 0.17347 0.1666 0.23541zm-0.73031-2.9216c-0.19337-0.0016-0.3063 0.12391-0.4513 0.23567-0.14931 0.11512-0.32934 0.20694-0.50386 0.27725-0.18198 0.07324-0.37653 0.13138-0.56812 0.17287-0.1986 0.04292-0.38133 0.02281-0.5785 0.05915-0.52266 0.09635-0.39896 0.96786 0.12515 0.92476 0.47171-0.03878 0.97811-0.3286 1.3358-0.6291 0.17095-0.14357 0.31524-0.30812 0.45567-0.48008l0.02629-0.03233c0.12467-0.15381 0.24109-0.31123 0.17854-0.51315-0.0027-0.0087-0.01047-0.01492-0.01971-0.01503zm4.3595 2.5435c-6.09e-4 -0.27816-0.16262-0.91326-0.56306-0.91326-0.25016 0-0.40204 0.43223-0.42834 0.87779l-9.08e-4 0.01817c-0.01161 0.27701 0.06441 0.88252 0.42925 0.88252 0.3687 0 0.55921-0.57349 0.563-0.85539zm-5.8957 0c6.1e-4 -0.27816 0.16262-0.91326 0.56306-0.91326 0.24391 0 0.39439 0.41089 0.42613 0.84441l0.0022 0.03338c0.0158 0.26766-0.0553 0.90068-0.42834 0.90068-0.3687 0-0.55921-0.57349-0.563-0.85539zm4.5852-2.5019c-0.24973-0.10779-0.53592-0.07717-0.68628 0.17994-0.14233 0.24332-0.04546 0.53658 0.17998 0.68628 0.22138 0.14705 0.51856 0.22702 0.77312 0.31112l0.02811 0.0094c0.24672 0.08301 0.49361 0.15088 0.74844 0.20393 0.23813 0.04957 0.47806 0.08627 0.71937 0.11554l0.07243 0.0085c0.18822 0.02172 0.45078 0.09487 0.6202-0.01226 0.01505-0.0095 0.02085-0.02905 0.01178-0.04476-0.09863-0.17078-0.36044-0.23882-0.52842-0.32532-0.2157-0.11115-0.42831-0.22949-0.639-0.34984-0.213-0.1217-0.42543-0.24541-0.63616-0.37104-0.21889-0.13047-0.4308-0.3111-0.66356-0.41152z"/></g></svg>
