<svg width="300" height="300" version="1.1" viewBox="0 0 79.376 79.375" xmlns="http://www.w3.org/2000/svg">
 <defs>
  <clipPath id="a">
   <circle cx="38.808" cy="42.679" r="37.042" fill="none" stroke="#000" stroke-width=".52917"/>
  </clipPath>
 </defs>
 <g transform="translate(0 -.42144)">
  <circle cx="39.688" cy="39.688" r="37.042" fill="#ad4fff" stroke="#000" stroke-width=".52917"/>
  <g transform="translate(.85522 -3.1422)" clip-path="url(#a)">
   <g id="b" transform="matrix(-.063522 0 0 .063522 67.892 38.552)" fill-rule="evenodd">
    <path d="m85.701 711.19c5.273 8.011 15.645 6.779 20.098 0.574 50.706 11.814 102.69 7.158 154.1 4.262 144.87-5.895 290.56 12.583 434.85-6.747 15.306-3.061 33.121-1.598 45.645-12.214 20.031-23.473 15.717-59.112 12.526-87.702-25.577-161.16-61.94-323.81-80.079-486.01-1.013-15.45 5.354-34.647 11.062-49.171 1.41-2.702 10.321-5.35 14.945-8.467 14.191-10.186 11.89-28.44-0.412-39.151-39.831-28.076-95.279-18.265-137.53-7.9068-8.0974-30.413-17.199-50.415-32.617-52.396-29.345-3.7703-100.53-15.292-122.45 0-10.49 7.3155-17.222 33.093-24.773 45.65-55.067-0.978-166.83-74.652-189.81 8.311-18.668 1.289-37.158 17.587-33.587 37.145-24.211 21.394-5.115 53.473-5.45 80.102-3.183 56.499-33.755 107.03-46.474 161.6-29.073 105.86-61.979 298.4-25.92 401.73-0.776-0.405-2.471 0.205-1.373 1.064 4.083 1.152 4.614 6.295 7.252 9.319z" fill="#fff"/>
    <path d="m668.7 347.63c-10.45 6.391-24.173 1.958-34.515-2.274-4.709-1.927-2.635-9.663 2.126-7.714 7.871 3.221 19.375 7.963 27.682 3.471 8.291-4.484 8.665-16.818 8.727-24.957 0.039-5.154 8.038-5.15 8.0001 0-0.0841 11.073-1.5651 25.078-12.02 31.474m-19.343 248.46c-10.543-5.404-19.539-12.792-26.779-22.17-3.147-4.077 3.806-8.056 6.908-4.038 6.372 8.254 14.674 14.567 23.909 19.301 4.588 2.352 0.535 9.252-4.038 6.907m-50.676-279.2c-18.09 72.491-30.23 146.28-36.18 220.76-1.21 15.12-2.06 30.22-2.54 45.33-0.48 3.94-0.94 7.89-1.37 11.84-1.63 14.939-2.88 30.12-2.77 45.16 0.05 6.75 0.26 13.47 0.72 20.199-0.8-2.25-1.54-4.509-2.26-6.759-1.47-4.61-2.44-9.39-3.94-13.97-1.24-3.79-2.84-7.42-4.33-11.09v-0.01c0.45-15.03-0.57-30.2-1.09-45.16-0.67-19.38-1.5-38.74-1.93-58.13-0.86-38.78-0.43-77.59 0.97-116.35 2.81-78.101 9.91-155.83 17.07-233.61 1.99-21.63 4.13-43.25 5.61-64.921 1.49-21.899 2.09-43.839 2.26-65.798 0.01-1.581-2.39-2-2.83-0.471-0.39-5.21-1.08-10.41-2.23-15.44 17.25 11 35.44 20.51 53.27 30.51 9.39 5.27 18.74 10.63 28.42 15.35 5.32 2.599 10.69 4.99 16.17 7.25 5.68 2.34 11.11 5.56 17.36 3.929 0.54-0.139 1.05-0.339 1.54-0.599-0.71 1.349-1.42 2.69-2.1 4.051-2.36 4.689-4.61 9.399-6.79 14.149-0.58 0.43-1.09 1.021-1.49 1.79-1.06 2.07-2.09 4.16-3.09 6.279-0.2-0.189-0.4-0.379-0.6-0.569-0.84-0.79-2 0.399-1.26 1.26 0.34 0.389 0.67 0.77 1 1.16-6.52 14.03-11.82 28.78-17.28 43.181-6.71 17.699-13.07 35.529-19.06 53.479-11.81 35.31-22.23 71.08-31.25 107.2m-258.63 263.08c-33.341 17.855-64.497 39.193-94.463 62.208-4.085 3.137-8.065-3.816-4.038-6.908 29.966-23.014 61.123-44.353 94.464-62.209 4.542-2.431 8.578 4.477 4.037 6.909m-135.24-291.34c-1.733-0.129-3.417-1.134-3.857-2.936-2.701-11.058-4.816-23.104-2.304-34.383 1.12-5.031 8.831-2.89 7.714 2.126-1.981 8.894-0.407 18.508 1.65 27.377 29.079 1.273 57.768-9.162 85.589-16.169 5.003-1.26 7.116 6.458 2.127 7.714-29.512 7.432-60.038 18.557-90.919 16.271m601.53 377.19c0.03-0.07 0.06-0.15 0.08-0.22 1.71-5.18 1.75-11.2 1.94-16.629 0.33-9.661-0.02-19.341-0.89-28.971-1.84-20.27-5.8-40.21-10.53-59.981-9.37-39.159-17.588-58.545-29.8-116.95s-10.76-159.03-38.45-234.18c-11.51-31.241-27.95-61.271-50.29-86.091 1.63-4.96 3.22-9.93 4.77-14.92 2.71-8.68 5.48-17.64 7.15-26.58 0.04-0.24 0.09-0.49 0.12-0.74 9.51-4.1 18.16-11.83 19.64-22.11 0.64-4.44-0.1-9.36-2.02-13.65 3.92-3.62 6.44-8.32 5.84-14.62-1.12-11.86-14.97-14.911-24.61-17.23-10.96-2.63-22.33-3.36-33.54-2.12-5.66 0.62-11.26 1.66-16.73 3.22-4.75 1.35-9.92 2.74-13.73 6-0.45 0.38-0.08 1.12 0.46 1.12 7.71-0.029 15.39-2.86 23.18-3.231 8.16-0.379 16.3 0.291 24.3 1.971 7.82 1.64 15.62 4.04 22.73 7.75 2 1.05 4.93 1.76 2.58 3.88-1.72 1.55-5.1 1.681-7.31 1.91-4.89 0.51-9.11 3.37-9.73 8.59-0.55 4.61 2.2 9.83 7.1 10.87 0.27 0.061 0.52 0.13 0.74 0.22 0.13 0.25 0.33 0.46 0.31 0.12 0 0 0.01-0.01 0.01 0 0.12 0.73 0.16 1.019 0.16 1.07-0.03-0.06-0.08-0.31-0.12-0.51 0.03 0.18 0.09 0.47 0.17 0.9-0.11-0.47-0.02 0.681-0.11 0.86-2.6 4.8-10.29 6.151-14.77 8.22-0.87 0.399-1.62 0.87-2.26 1.399-1.06-0.369-2.14-0.739-3.23-1.149-5.37-2.01-10.73-3.96-16.17-5.771-10.5-3.509-21.13-6.639-31.63-10.159-19.88-6.66-39.1-15.07-58.61-22.69-0.62-2.3-1.34-4.55-2.19-6.74-0.17-0.459-0.99-0.61-1.08 0-0.3 1.94-0.54 3.89-0.74 5.85-0.08 0.18-0.1 0.38-0.06 0.57-1.13 11.4-0.83 23.07-1.41 34.46-0.72 14.2-2.73 28.3-3.3 42.51v0.26c-2.1 12.13-4 24.3-5.72 36.51-1.93-0.6-4.14-0.48-6.4 0.73-15.98 8.53-33.94 13.28-52.01 14.34-9.1 0.529-18.11 0.231-27.16-0.82-5.95-0.68-11.81-1.92-17.68-3.1 3.09-12.95 6.41-25.84 10.16-38.599 3.09-10.491 6.53-20.931 10.78-31.021 4.29-10.19 9.63-19.92 14.6-29.8 2.29-4.57-0.41-11.56-6.36-11.08-1.76 0.14-3.52 0.25-5.29 0.33-17.22 0.821-35.13-1.099-52.13-2.81-19.35-1.96-38.96-3.991-58.14-7.18-1.42-0.23-2 1.7-0.6 2.17 9.1 3.06 18.09 6.519 27.42 8.81 9.6 2.37 19.26 4.53 29 6.22 9.33 1.611 18.7 2.96 28.1 4.1 6.13 0.75 12.33 1.13 18.5 1.63-8.31 13.28-14.04 28.259-19.03 43.009-6.41 18.941-11.12 38.431-15.73 57.881-9.86 41.69-17.99 83.8-24.35 126.17-4.56 30.38-8.25 60.88-11.02 91.46-0.82-9.29-1.82-18.55-2.95-27.8-3.78-30.711-9.3-61.22-16.68-91.27 0.66-1.16 0.97-2.55 0.75-3.9-1.33-8.26-4.83-15.45-7.9-23.11-3.05-10.7-6.34-21.33-9.88-31.88-4.02-14.37-8.53-28.52-14.3-42.34-4.41-10.53-9.44-20.791-15.04-30.74-6.69-13.91-14.04-27.519-22.11-40.53-0.42-1.21-1.1-2.34-2.07-3.29-1.47-2.32-2.96-4.61-4.48-6.88-0.99-1.48-3.83-0.58-3.08 1.3 0.35 0.881 0.7 1.76 1.06 2.631-32.87-8.221-65.1 4.349-96.41 13.629-7.9 2.35-15.88 4.47-23.98 6-6.37 1.2-13.79 2.66-20.14 1.339-4.25-0.879-6.13-2.809-4.06-7.349 2.14-4.699 7.98-7.79 13.05-9.869 1.91-0.411 3.79-1.141 5.6-2.241 4.22-2.56 6.07-7.9 4.08-12.45-1.81-4.11-7.09-7.65-11.76-5.77-0.67 0.27-1.33 0.53-1.99 0.79-0.07-0.1-0.15-0.24-0.22-0.44-0.67-1.83-0.96 0.361-0.67-2.26 0.48-4.28 5.01-8.17 8.11-10.62 7.71-6.11 18.85-10.63 28.8-8.32 0.75 0.17 1.5 0.38 2.24 0.64 10.25 3.55 15.24-11.21 7.05-16.71-0.5-0.33-1.13-0.75-1.82-1.24-3.41-2.37-8.4-6.36-7.04-9.959 1.68-4.471 11.59-7.041 15.34-8.561 13.56-5.5 28.21-8.62 42.83-9.26 14.71-0.64 29.61 0.98 43.8 4.949 6.96 1.941 14.11 4.891 20.69 7.872 5.91 2.669 18.77 6.199 19.59 13.679 0.18 1.651 2.53 2.21 3.04 0.41 4.03-14.36-11.61-23.63-21.93-29.56-6.77-3.901-14.45-6.33-21.88-8.72-7.12-2.3-14.39-3.99-21.81-5.011-15.93-2.179-32.05-1.899-47.85 1.161-14.39 2.791-30.4 7.55-42.03 16.81-7.14 5.68-10.37 14.72-7.5 23.54 0.1 0.29 0.2 0.59 0.3 0.88-12.85 2.3-25.01 9.66-33.14 19.92-6.68 8.43-10.18 20.16-4.2 29.971-0.25 0.179-0.5 0.369-0.74 0.569-5.7 4.56-9.94 11.181-11.2 18.42-2.47 14.28 6.16 24.27 18.23 28.09-2.99 2.921-5.86 6.02-8.67 9.12-6.29 6.95-12.3 14.519-17.6 22.24-10.74 15.64-19.92 32.67-27.95 49.83-16.51 35.24-26.92 73.17-32.44 111.63-2.78 19.38-4.64 38.86-5.35 58.42-0.82 22.3 0.01 44.61-0.42 66.92-0.42 21.44-2.79 42.36-7.58 63.261-4.59 19.989-10.71 39.579-16.25 59.309-6.25 22.22-13.13 44.34-16.43 67.25-1.67 11.659-2.87 23.35-1.94 35.14 0.94 12.01 5.3 22.28 9.32 33.45 1.02 2.851 4.13 4 6.62 3.39 0.56 5.35 2.58 10.57 5.59 15.09 6.39 9.58 16.23 15.69 27.5 17.91 12.7 2.49 25.79 1.9 38.65 1.44 13.95-0.5 27.91-0.95 41.86-1.53 14.605-0.603 37.264-2.7317 51.869-3.3547 23.465 11.041-61.717-44.646 117.55-3.6263 31.89-1.159 63.78-2.319 95.67-3.479 6.69-0.239 10.45-5.021 11.27-11.271 1.5-11.5-1.32-23.389-7.7-33.059-0.66-1-1.44-1.89-2.31-2.65 0.15-6.89 0.43-13.791 0.04-20.68-0.58-10.52-1.45-21.04-2.21-31.55-1.54-21.05-2.73-42.14-3.2-63.24-0.96-42.2-0.26-84.44 2.13-126.58 4.79-84.19 15.94-167.84 34.19-250.19 1.33-6 2.67-12 4.06-17.99 14.19 7.37 31.45 10.019 46.96 10.12 19.44 0.12 38.45-4.351 56.01-12.479-0.12 0.909-0.24 1.809-0.35 2.719-4.9 39-9.03 78.079-12.63 117.21-7.18 78.01-11.58 156.34-10.97 234.7 0.17 21.711 1 43.351 2.03 65.031 1.05 22.05 2.66 45.35 8.8 66.62 0.68 2.349 2.19 3.7 3.93 4.19 0.09 3.1 0.29 6.21 0.51 9.27 0.71 9.95 2.74 30.62 7.08 39.639 4.23 8.801 11.28 15.781 20.27 19.622 11.42 4.869 23.77 3.469 35.83 2.689 52.44-3.42 104.84-8 157.25-12.02 7.3-0.56 14.6-1.11 21.89-1.68 6.49-0.5 13.2-0.941 18.96-4.31 6.55-3.83 11.66-22.64 9.4-30.42-0.41-1.42-1.03-2.82-1.85-4.08"/>
   </g>
   <path d="m29.799 58.448c0.77198-0.30261 1.6031-0.46994 2.4385-0.53482-0.44983-0.07967-0.90079-0.15558-1.3556-0.1939-0.31721-0.02655-0.61147-0.02467-0.84995 0.21628-0.15937 0.15937-0.23375 0.36673-0.33828 0.55645 0.03415-0.01524 0.07019-0.03036 0.10434-0.04364zm-8.2856-2.8298c1.2643 0.06452 2.5299 0.36484 3.6735 0.90933 0.46785 0.22312 0.89188 0.54525 1.016 1.0753 0.06262 0.27073 0.04743 0.5502 0.01406 0.82357-0.02467 0.20699-0.03225 0.47127-0.21134 0.61147-0.03037 0.02288-0.06262 0.04173-0.09677 0.05503 0.42194 0.19028 0.82357 0.4191 1.1807 0.65472 0.32632 0.21552 0.66174 0.54734 0.81238 0.92185 0.01269-0.04173 0.02467-0.08158 0.03795-0.11952 0.25669-0.75869 0.65207-1.3801 1.2748-1.7978-0.11004-0.04933-0.18592-0.16694-0.14988-0.32841 0.14797-0.67579 0.77197-1.263 1.477-1.2211 0.77198 0.04555 1.601 0.32632 2.2991 0.68129 0.25442-0.0058 0.50827-0.0023 0.75926 0.0092 0.04364 0.0012 0.04173 0.0607 0 0.06452-0.20358 0.02655-0.40714 0.05501-0.6109 0.08727-0.48398 0.0778-0.96644 0.17643-1.4384 0.29786-0.56631 0.14609-1.152 0.2935-1.6813 0.54943-1.0264 0.49726-1.6618 1.7971-1.5314 2.9281 0.02098 0.18591 0.09297 0.74617 0.35079 0.6883 0.21762-0.04933 0.30394-0.50276 0.38001-0.67085 0.20358-0.44622 0.57048-0.73782 1.0105-0.93514 0.51679-0.23222 1.0696-0.38911 1.6054-0.57183 0.30336-0.10434 0.60653-0.20794 0.91066-0.31115 0.31095-0.10625 0.60673-0.25384 0.93798-0.17834 0.20015 0.04552 0.22312 0.28382 0.11004 0.42061-0.17077 0.20851-0.42459 0.26978-0.67085 0.35554-0.32499 0.11384-0.64922 0.22596-0.97345 0.33884-0.50124 0.17454-1.0264 0.32138-1.5153 0.53482l0.01524 0.03415c0.03985-0.0114 0.08727 0.02845 0.07967 0.07779-0.074 0.45116-0.17456 0.9727-0.06262 1.4248 0.08917 0.35838 0.40373 0.75528 0.81238 0.64979-0.06452-0.05882-0.08727-0.15937-0.04552-0.25309 0.16125-0.34586 2.2817-1.7112 2.4707-1.2042 0.0065 0.0181-0.01311 0.03036-0.02845 0.02845-0.16128-0.03415-0.43086 0.24114-0.55987 0.32841-0.18591 0.12522-0.37507 0.24834-0.5593 0.37735-0.20148 0.1404-0.39823 0.28876-0.59003 0.44148-0.14988 0.11951-0.26428 0.24474-0.43712 0.30545 0.09107 0.04364 0.16315 0.1233 0.19314 0.22596 0.07779 0.26713 0.22879 0.49365 0.49023 0.61166 0.27395 0.12332 0.58301 0.04555 0.87158 0.07589 0.3933 0.03985 0.73631 0.22672 1.023 0.49365 0.6018 0.56195 0.90364 1.5522 1.7454 1.8179 0.50276 0.15746 1.0607 0.05882 1.5698-0.01312 0.56841-0.07967 1.122-0.14419 1.6946-0.0607 0.5481 0.07967 1.0662 0.26978 1.5669 0.50143 0.46936 0.21686 0.98807 0.46235 1.4045 0.78583 0.08537-0.26427 0.17264-0.52571 0.23789-0.79568 0.15558-0.63803 0.23848-1.288 0.25878-1.9434 0.01883-0.62399-0.0162-1.251-0.07019-1.8723-0.02655-0.31038-0.0683-0.61924-0.09486-0.92963-0.0069-0.07779-0.02098-0.16125-0.03225-0.24531-0.74332-0.43863-1.5243-0.77482-2.3115-1.1206-0.0022-7.01e-4 -0.0043-0.0023-0.0065-0.0023-0.02467-0.0114-0.04742-0.02098-0.0721-0.03225 6.81e-4 -0.0011 0.0014-0.0023 0.0028-0.0045-0.08918-0.05503-0.15176-0.12902-0.19028-0.21058-1.1345-0.75242-2.0829-1.7795-2.79-2.9776-0.29635-0.502-0.5815-1.023-0.96928-1.4629-0.41283-0.46937-0.90308-0.74825-1.5096-0.89339-0.70918-0.17077-1.44-0.27187-2.1666-0.32992-0.3967-0.03036-0.84027-0.07967-1.2727-0.0778-0.30128 0.0023-0.5961 0.02845-0.86683 0.10245-0.40107 0.11004-0.63519 0.41491-0.88695 0.72322-0.24056 0.29577-0.4798 0.59212-0.70424 0.90022-0.21268 0.29218-0.4136 0.59401-0.58776 0.91066-0.10434 0.18973-0.20148 0.38494-0.28307 0.58643-0.02845 0.0721-0.0664 0.15176-0.08349 0.22596-0.01739 0.074 0.01454 0.15367-0.0683 0.15367 0.3451 0.0045 0.34168 0.55645-0.0014 0.53615-1.343-0.07779 0.58092-2.7 0.8619-3.0654 0.39823-0.51737 0.80878-1.1924 1.4463-1.433 0.0091-0.0034 0.01883-0.0069 0.02845-0.0092-0.18591-0.17643-0.33201-0.38627-0.47202-0.60047-0.14419-0.22026-0.31645-0.47278-0.36408-0.73422-0.03036-0.16694 0.17643-0.26143 0.27547-0.11574 0.14228 0.21268 0.21192 0.48189 0.31873 0.71543 0.10815 0.23697 0.24132 0.46083 0.34587 0.70007 0.25176-0.07779 0.52362-0.11384 0.80062-0.12522-0.34928-0.47392-0.94614-1.3861-1.018-1.5031-0.33049-0.54241-0.64505-1.1017-0.94557-1.6618-0.3248-0.60673-0.60312-1.2385-0.91426-1.8521-0.17643-0.34794-0.35421-0.69874-0.5502-1.0362-0.0683-0.11574-0.1404-0.23146-0.22255-0.33675-0.01597-0.02098-0.03606-0.03795-0.05503-0.05882-0.02098-0.01192-0.04364-0.02467-0.05692-0.03225-0.11382-0.06452-0.15367-0.21552-0.23222-0.31115-0.12712-0.15367-0.27623-0.17264-0.46728-0.17456-0.40714-4e-3 -0.8158 0.01192-1.2224 0.02288-0.59762 0.01668-1.1945 0.03985-1.7915 0.0721-0.18024 0.0098-0.36047 0.01906-0.54108 0.03036-0.86816 0.05122-1.7355 0.11951-2.601 0.20224-0.76571 0.074-1.5314 0.19237-2.2977 0.24967 1.0376 2.4651 2.1883 4.8854 3.4909 7.2215 0.01312 0.02288 0.02288 0.04743 0.02845 0.07019zm-1.387 2.1102c-0.15539 0.59541 1.2341-0.09504-0.21495 1.4046-0.67199 0.55512-0.68958 0.76802-0.20073 1.4272 0.11194 0.19939 0.15367 0.41833 0.06452 0.63462-0.11574 0.2768-0.43654 0.38703-0.54678 0.6589-0.1404 0.3451 0.08727 0.76154 0.24606 1.0621 0.14798 0.27813 0.26366 0.54392 0.46576 0.85071 0.6994 1.0616 1.9386 1.0861 3.0118 1.285 0.28306 0.05503 0.56688 0.10815 0.85146 0.15558 0.54601 0.09486 1.0933 0.18213 1.6422 0.26011 0.31248 0.04364 0.6255 0.08728 0.93855 0.12142 0.27339 0.02845 0.5815 0.0683 0.80194-0.13661 0.44413-0.41568 0.19524-1.1124-0.08537-1.5322-0.0054-8e-3 -0.0054-0.01597-0.0036-0.02288-0.26504-0.06262-0.52932-0.13471-0.79284-0.18591-0.50693-0.09677-1.0175-0.18024-1.5286-0.25309-1.0501-0.14989-2.1073-0.2491-3.163-0.34871-0.26144-0.02467-0.26428-0.43655 0-0.41207 1.5166 0.13849 3.041 0.27055 4.5375 0.56271 0.37527 0.0721 0.74769 0.15558 1.1178 0.24739 0.17456 0.04364 0.36255 0.11194 0.54601 0.11382 0.01127 0 0.02288 0 0.03415-7.6e-4 0.35914-0.0114 0.4115-0.31854 0.21401-0.57447-0.02467-0.03225-0.04933-0.06262-0.07589-0.09297-0.34871-0.41567-0.78297-0.69323-1.2308-0.98048-0.50143-0.0683-1.0015-0.22026-1.4923-0.33201-1.2119-0.27623-2.4239-0.55228-3.6366-0.82774-0.23773-0.05503-0.13661-0.41986 0.10055-0.36617 0.92052 0.20851 1.8408 0.417 2.7615 0.6255l1.3472 0.30545c0.26922 0.0607 0.6054 0.18212 0.92185 0.22672 0.15558 0.02098 0.30734 0.02467 0.44413-8e-3 0.44148-0.10433 0.46368-0.65624 0.27339-0.98408-0.21345-0.36806-0.6164-0.59838-0.97421-0.80688-0.62001-0.36198-1.2797-0.6221-1.9239-0.92185l-0.34301-0.07589c-0.66535-0.1461-1.4254-0.21818-2.0516-0.48663-0.18782-0.07967-0.08537-0.37527 0.10055-0.3711 0.48606 0.01023 0.99433 0.18403 1.4692 0.28591 0.51395 0.11195 1.0285 0.22236 1.5424 0.33334 0.05122 0.0114 0.35705 0.10815 0.40315 0.08727 0.02845-0.01382 0.03985-0.11574 0.04933-0.18212 0.03225-0.22045 0.05503-0.45172 0.02098-0.67293-0.07589-0.49574-0.48872-0.72872-0.90725-0.91901-0.93172-0.42327-1.9532-0.68812-2.9699-0.79435-0.2343-0.02467-0.4686-0.03985-0.70424-0.04743-0.2768-8e-3 -0.50485-0.05692-0.64505 0.21552-0.22026 0.42953-0.22182 0.46119-0.33623 1.1311z" fill="#fff" stroke="#000" stroke-width=".5763"/>
   <g id="c" transform="matrix(-.060681 0 0 .060681 50.242 9.8949)" fill-rule="evenodd">
    <path d="m393.14 242.55c0.514-25.093-1.814-50.809-14.008-73.237-10.588-21.05-26.297-39.297-42.423-56.282-6.728-7.087-15.713-14.228-14.872-24.971 0.883-11.273 7.664-35.693 8.71-47.068 2.058-22.366-13.95-28.521-32.664-39.149-22.57-12.819-49.541-11.336-74.005-5.581-45.621 10.886-99.832 28.953-117.07 77.297-4.144 11.923-3.11 24.472-3.935 36.84-0.773 11.577-5.408 22.603-9.85 33.181-23.484 52.284-23.272 110.01-19.008 166.13-12.54 2.9-24.665 12.697-27.429 25.697-4.632 22.762 19.24 33.284 33.34 45.587 17.196 15.003 29.714 34.422 45.346 50.906 101.43 111.84 325.26 60.367 278.73-113.84-6.313-24.755-11.798-49.797-10.857-75.513z" fill="#fff"/>
    <path d="m192.5-1.3264c25.192-9.792 52.421-13.932 79.355-10.462 14.492 1.867 28.542 5.765 41.795 11.951 6.392 2.984 12.524 6.522 18.275 10.609l0.52456 0.37538c4.5522 3.2829 9.195 7.3432 8.6634 12.793 0.352 1.141 0.414 2.395 0.135 3.646-4.49 20.15-9.201 40.236-13.85 60.347-0.978 4.228-1.924 8.463-2.862 12.701 31.639 23.824 61.381 56.394 72.644 95.097 11.025 37.888 6.198 77.792 10.095 116.57 0.924 9.187 2.484 18.3 4.934 27.21 2.632 9.566 7.029 18.608 9.252 28.281 4.474 19.461-2.015 38.566-12.284 55.067-19.037 30.59-47.798 56.403-81.24 70.109-17.112 7.012-35.948 10.824-54.459 10.527-18.154-0.291-38.821-4.02-54.019-14.496-10.273-7.08-1.494-21.025 9.558-16.352l3.003 1.2651c7.6634 3.2083 15.272 6.1825 23.489 7.8889 9.185 1.906 18.623 2.313 27.974 1.727 18.134-1.136 35.328-7.172 50.98-16.236 14.125-8.181 26.709-18.745 37.946-30.548l1.2511-1.3205c10.639-11.286 21.35-24.15 27.333-38.508 3.08-7.389 4.748-15.513 3.414-23.483-1.538-9.188-5.629-17.842-8.016-26.821-4.5338-17.057-6.0635-34.841-6.583-52.439l-0.038-1.3532c-0.963-36.114 1.774-72.687-11.017-107.21-11.583-31.262-35.461-55.177-54.99-81.485-0.959 4.353-1.914 8.708-2.884 13.058-1.158 5.198-2.214 10.429-3.476 15.601l-0.095 0.377c0.38 1.115 0.248 2.383-0.768 3.181-0.112 0.088-0.225 0.164-0.338 0.246-1.035 2.392-2.642 4.227-5.713 4.989-2.941 0.729-5.269-0.514-6.575-2.662l-15.351 0.078c-9.747 0.05-20.443 1.17-30.029-0.814-1.474-0.306-1.288-2.4 0-2.803 9.058-2.83 19.637-2.762 29.041-3.639l14.821-1.383c0.65467-0.0607 1.3142-0.13911 1.9757-0.22141l0.9933-0.12459 5.152-22.925c2.044-9.096 4.184-18.177 6.052-27.31 3.367-16.467 7.059-32.859 10.749-49.255-11.586-2.841-23.413-4.113-35.401-3.607l-1.3818 0.06114c-4.6442 0.22152-9.6245 0.6864-13.507 3.3819-4.817 3.342-5.165 10.236-6.232 15.552-2.928 14.579-5.024 29.297-6.861 44.052-0.888 7.135-1.559 14.289-2.346 21.433-0.358 3.242-0.577 6.538-1.06 9.76-0.46 3.067-1.56 6.052-2.181 9.083 1.07 4.626-5.34 9.021-8.918 4.911-4.423-5.081-8.298-10.385-13.24-15.031-4.958-4.662-10.375-8.743-16.214-12.24-11.866-7.108-24.195-11.48-37.447-15.175-0.44-0.122-0.689-0.395-0.81-0.711-13.223 3.752-26.157 8.836-38.158 15.371-27.822 15.151-49.724 41.31-58.023 72.032-5.152 19.077-6.289 39.228-6.359 58.911-0.032 9.137 0.162 18.379 1.607 27.42 1.613 10.087 5.273 19.105 8.222 28.783 0.77 2.527 0.581 4.783-0.239 6.667l0.75147 0.11324c6.0228 0.9414 17.821 3.5983 18.897 10.165 0.301 1.841-0.729 3.281-2.622 3.441-3.365 0.285-5.481-2.159-8.168-3.828-0.483-0.299-0.98-0.574-1.475-0.852-0.128 0.088-0.3 0.11-0.477 9e-3 -15.889-9.049-35.308 4.791-38.844 20.848-3.302 14.993 2.317 32.355 16.806 38.909 7.285 3.296 15.032 5.365 21.737 9.873 5.643 3.794 10.629 8.432 14.978 13.646 8.955 10.732 15.71 22.969 23.643 34.423 3.482 5.027 7.348 9.777 11.943 13.839 5.033 4.448 12.036 6.203 14.168 13.166 0.831 2.715-0.551 5.976-2.995 7.358-8.944 5.06-19.076-3.741-25.333-9.708-6.423-6.125-11.663-13.542-16.472-20.964-8.054-12.43-14.932-26.611-26.747-36.033-7.092-5.655-15.927-7.794-23.909-11.794-9.159-4.588-15.664-12.107-19.551-21.508-7.155-17.307-5.271-39.372 8.285-53.143 4.402-4.474 9.973-7.335 15.806-8.486-6.023-10.537-8.26-23.82-9.771-35.611-1.519-11.846-1.678-23.769-1.053-35.683l0.1259-2.3151c1.1965-21.244 3.6077-43.062 11.297-63.009 6.473-16.789 16.296-32.191 29.348-44.636 1.347-1.284 2.73-2.542 4.135-3.779-0.377-0.289-0.739-0.599-1.062-0.95-3.657-3.98-2.874-9.353-2.387-14.3 0.541-5.499 1.417-10.982 2.733-16.35 9.18-37.454 37.412-68.012 73.741-80.652 5.246-1.826 10.675-3.397 16.203-4.688zm-122.4 331.44c5.88-3.715 14.854-2.291 20.984 0.144 7.211 2.863 14.891 8.205 17.731 15.669 2.63 6.91-7.184 9.359-10.844 4.571-2.262-2.959-3.936-5.809-6.082-8.388-0.2736 0.2664-0.53376 0.5456-0.76461 0.84938l-0.16739 0.23262c-0.91 1.338-2.569 2.729-4.343 2.49l-0.479-0.063c-1.7907-0.24011-3.7617-1.1079-4.2562-3.0561l-0.04878-0.22094-0.066-0.352c-0.409-2.164 0.237-4.548 2.312-5.68 0.139-0.076 0.281-0.141 0.421-0.213-4.57-2.394-9.283-3.143-14.252-4.869-0.494-0.172-0.605-0.823-0.145-1.114zm163.48-322.26c-30.641-0.769-64.257 8.653-86.907 29.879-10.723 10.051-17.987 21.743-24.501 34.775-3.076 6.153-5.056 12.97-6.522 19.673-0.802 3.667-1.403 7.366-1.723 11.108-0.062 0.721-0.05 1.482-0.162 2.196-0.095 0.608-0.21 0.766-0.316 0.726 0.052 0.17 0.305 0.517 0.549 0.848 22.942-16.501 51.338-26.105 79.42-19.848 0.894 0.199 0.894 1.609 0 1.808-1.436 0.32-2.868 0.678-4.301 1.029 12.288 0.271 24.915 4.121 35.528 9.846 10.605 5.721 21.759 13.809 29.447 23.647-0.22-1.436-0.394-2.878-0.427-4.337-0.085-3.897 5e-3 -7.814 0.15-11.708 0.314-8.445 0.889-16.889 1.583-25.31l0.30577-3.6703c1.2442-14.719 2.7742-29.855 5.7492-44.253 1.735-8.397 6.379-13.512 12.621-16.511-11.588-7.482-27.314-9.566-40.494-9.898zm56.821-4.899c-13.808-4.138-28.182-5.961-42.567-5.712 5.229 1.321 10.291 3.241 15.055 5.892 6.13 3.412 10.446 7.932 14.311 13.318 3.637-1.266 7.682-1.965 11.938-2.267 9.828-0.697 19.764-0.173 29.527 1.375-1.822-1.122-3.671-2.199-5.55-3.222-7.224-3.929-14.841-7.025-22.714-9.384z"/>
    <path d="m304.04 358.82c0.22979-0.71947 1.2294-0.71773 1.459 0 2.0865 6.5036 3.3121 12.872 6.4276 18.988 0.76987 0.79265 1.3214 1.7904 1.6166 2.8678 1.4554 2.4178 3.0766 4.7132 4.8908 6.8861 2.2821 2.734 3.9424 5.3018 2.733 9.0334-0.59609 1.8388-2.1359 3.0149-4.0762 3.1032-5.3274 0.24118-8.3623-4.8395-10.247-10.136-13.184 4.3781-27.7 6.8567-41.518 5.7679-11.232-0.8867-23.467-3.7003-33.524-9.4359 0.0599 2.1663 0.14289 4.3345 0.21839 6.5036 0.14096 4.0117 1.2198 8.4022 0.80212 12.342-0.4138 3.9092-2.6333 6.9336-6.6554 7.5392-3.4621 0.5202-7.7472-1.7914-8.4221-5.4992-0.78223-4.3041 0.66637-7.3105 1.8578-11.373 1.0528-3.5902 1.8786-7.2582 2.7862-10.887 0.91508-3.6642 1.6641-7.3598 2.3428-11.072 0.49741-2.7178 0.13903-5.7802 1.1012-8.3404 0.0753-0.20024 0.27149-0.34371 0.49259-0.27999 5.1215 1.4716 5.4121 9.7173 5.3913 14.142l-9.6e-4 0.218c-8e-3 0.90176 9.6e-4 1.8037 0.0104 2.7045l1.9569 0.42828c10.743 2.3244 21.177 4.0904 32.473 3.4495 13.25-0.75095 24.902-5.5951 37.476-8.9148-1.0443-5.972-1.365-12.487 0.40821-18.033zm-44.31-117.68c5.8799-2.0134 12.236-2.9646 18.42-2.6599 13.254 0.65498 25.88 6.7001 34.57 16.773 8.2047 9.509 12.663 21.435 12.606 34.017-0.0637 12.925-3.4575 27.479-9.85 38.793-13.431 23.771-44.804 23.936-67.349 14.459-24.06-10.114-33.849-35.62-28.053-60.28 4.3572-18.545 19.22-40.798 39.656-41.101zm39.198 18.359c-7.0988-5.6986-16.038-8.2588-25.071-7.6114-4.4873 0.3217-9.0467 1.4998-13.12 3.4146-2.1653 1.0176-4.1009 2.4387-6.233 3.4981-1.9012 0.94346-3.959 1.4938-5.9203 2.2878l-0.73048 0.3105c-3.2209 1.4391-6.4646-0.61984-6.626-3.6206-7.0067 9.8308-10.33 23.162-10.277 34.988 0.0405 8.7088 2.1153 17.755 7.1143 25.006 5.5562 8.0585 14.775 12.309 24.021 14.567 8.8549 2.1615 18.51 2.9115 27.386 0.45571 9.2128-2.5479 15.164-9.5394 18.551-18.255 7.3475-18.905 7.9541-41.355-9.0942-55.041zm-31.636 23.443c4.0202-5.4878 11.232-5.7793 15.202 0 2.4985 3.6377 2.1311 7.1424 1.9328 11.329l-0.0386 0.94134c-0.11779 3.3133-0.10234 6.8012-1.343 9.8634-1.5938 3.931-4.6914 6.4495-9.079 5.9283-2.583-0.30856-4.7464-1.8502-6.0014-3.9766l-0.0444 0.0251c-1.7599-3.5135-2.2139-7.0784-2.5111-10.914l-0.20469-2.8125c-0.2489-3.6975-0.26203-7.178 2.0864-10.384z" fill-rule="evenodd"/>
   </g>
  </g>
 </g>
 <g transform="translate(13.23 4.593)">
  <rect x="12.826" y="59.719" width="27.265" height="12.749" rx="1.1514" ry="1.2837" fill="#fff" stroke="#000" stroke-width=".79375"/>
  <text x="19.647116" y="67.450089" fill="#000000" font-family="'Ink Free'" font-size="4.2333px" font-weight="bold" stroke="#000000" stroke-width=".26458" xml:space="preserve"><tspan x="19.647116" y="67.450089" fill="#000000" font-size="4.2333px" stroke-width=".26458">Phemus</tspan></text>
 </g>
</svg>
