<?xml version="1.0" encoding="UTF-8" standalone="no"?>
<!-- Created with Inkscape (http://www.inkscape.org/) -->

<svg
   width="200"
   height="300"
   viewBox="0 0 52.916667 79.375"
   version="1.1"
   id="svg373"
   xml:space="preserve"
   inkscape:export-filename="explaining.svg"
   inkscape:export-xdpi="96"
   inkscape:export-ydpi="96"
   inkscape:version="1.2 (dc2aedaf03, 2022-05-15)"
   sodipodi:docname="sweater-female.svg"
   xmlns:inkscape="http://www.inkscape.org/namespaces/inkscape"
   xmlns:sodipodi="http://sodipodi.sourceforge.net/DTD/sodipodi-0.dtd"
   xmlns="http://www.w3.org/2000/svg"
   xmlns:svg="http://www.w3.org/2000/svg"><sodipodi:namedview
     id="namedview375"
     pagecolor="#ffffff"
     bordercolor="#000000"
     borderopacity="0.25"
     inkscape:showpageshadow="2"
     inkscape:pageopacity="0.0"
     inkscape:pagecheckerboard="0"
     inkscape:deskcolor="#d1d1d1"
     inkscape:document-units="mm"
     showgrid="false"
     inkscape:zoom="1.4142136"
     inkscape:cx="120.20815"
     inkscape:cy="141.42136"
     inkscape:window-width="1920"
     inkscape:window-height="1057"
     inkscape:window-x="1072"
     inkscape:window-y="428"
     inkscape:window-maximized="1"
     inkscape:current-layer="svg373" /><defs
     id="defs370" /><g
     inkscape:label="Layer 1"
     inkscape:groupmode="layer"
     id="layer1" /><g
     id="g5696"
     transform="translate(-13.856592,-1.703026)"><g
       id="body/mono/Device"
       stroke="none"
       stroke-width="1"
       fill="none"
       fill-rule="evenodd"
       transform="matrix(0.06271532,0,0,0.06271532,13.888974,31.702945)"><path
         d="m 743.7183,294.9278 c -3.142,-8.626 1.446,-17.23 3.991,-25.575 9.041,-28.941 18.912,-57.883 32.878,-84.873 5.29,-9.028 -3.413,-20.104 -13.498,-17.558 -17.265,2.418 -35.068,0.493 -52.363,-0.574 -6.325,-16.364 -23.206,-23.152 -36.492,-32.576 -15.077,-9.41 -29.743,-20.218 -45.423,-28.468 -0.872,-7.795 -10.324,-9.727 -16.104,-4.151 -15.875,-9.875 -34.912,-8.041 -51.929,-14.511 -12.93059,-20.90052 -13.90076,-42.877636 -17.32431,-63.041032 -1.49232,-8.789169 0.0932,-17.2695769 -5.91269,-25.105968 -20.175,-28.375 -99.891,-40.678 -129.282,-23.863 -15.821,-9.867 -16.202,8.003 -18.715,19.032 -2.793,5.518 -4.304,11.767 -3.837,18.351 -16.994,35.495 -55.873,51.542 -90.692,64.541 -4.368,-4.203 -10.611,-3.672 -14.767,-0.194 -30.18,6.561 -59.471,18.094 -84.757,36.102 -28.728,8.402 -48.96,31.767 -63.59,56.82 -1.612,2.641 -1.992,5.334 -1.521,7.807 -44.989,65.947 -66.461,144.896 -69.477,224.634 -28.931,17.363 13.751,173.341 23.687,205.723 0.01,-0.004 0.02,-0.008 0.03,-0.013 6.446,11.412 13.765,43.976 29.897,41.457 11.066,12.512 28.701,10.052 43.718,11.013 -2.446,9.382 -1.244,20.117 1.667,29.388 3.443,11.036 20.339,11.41 22.735,-0.622 149.544,29.054 302.983,5.872 454.208,10.233 43.724,0.31 87.444,1.663 131.063,4.778 6.142,0.438 12.369,-5.838 11.951,-11.953 -9.378,-99.772 -18.185,-231.023 -28.672,-329.818 -2.487,-22.531 -4.454,-45.309 -11.469,-66.983 z"
         id="ðŸŽ¨-Background"
         fill="#ffffff" /><path
         d="m 396.0107,-19.2103 c 0.429,-1.17 2.177,-1.015 2.21,0.299 0.689,28.053 -6.295,62.334 -28.743,81.283 -11.52316,9.726946 -26.75792,14.178542 -40.74872,19.293764 l -1.57828,0.582236 -24.718,9.208 c -6.556,2.442 -13.628,6.199 -19.419,2.749 4.686,11.62 8.62,23.56 14.327,34.759 7.104,13.941 15.693,26.696 26.205,38.297 41.646,45.959 107.556,59.978 166.703,46.512 30.457,-6.935 60.094,-20.077 80.873,-44.047 15.792,-18.22 24.865,-42.674 27.003,-66.795 -0.625,0.1 -1.28,0.096 -1.953,-0.052 -7.48359,-1.63234 -15.03851,-5.643726 -21.62378,-9.577625 L 573.9137,92.9207 c -6.336,-3.814 -12.94,-8.185 -17.487,-14.111 -3.0106,-3.923265 -6.09565,-12.283974 -9.25515,-25.082127 -1.29112,-7.214684 -2.50216,-21.587873 -2.29485,-28.880873 0.019,-0.688 3.072,-1.094 3.398,-0.379 2.82094,6.19125 3.73309,19.794707 5.91061,26.238533 l 0.43939,1.286467 c 2.325,6.729 4.319,14.922 9.14,20.362 9.051,10.215 22.707,14.539 34.896,19.662 0.875,-11.545 19.315,-11.276 19.081,0.765 -0.013,0.653 -0.042,1.303 -0.065,1.954 1.45425,0.7995 2.85281,1.71375 4.16025,2.595937 l 1.27575,0.866063 c 4.828,3.284 9.693,6.405 14.834,9.191 9.953,5.395 20.49,9.672 30.688,14.569 10.317,4.955 19.966,10.858 28.975,17.923 4.23133,3.31742 8.28873,6.85078 12.13676,10.6055 l 1.04424,1.0295 c 3.663,3.648 8.429,7.727 10.516,12.521 0.46,1.057 2.76445,3.51552 4.01492,3.5975 19.37602,1.2703 38.7107,3.06407 57.96508,5.7535 4.985,0.696 6.95541,3.26516 5.11283,7.42 -6.332,14.278 -31.12083,71.299 -37.71283,86.602 0.77,11.242 -0.27,24.477 0.424,35.722 1.015,16.41 2.344,32.814 3.937,49.178 5.7,58.537 14.341,116.789 22.149,175.07 3.908,29.168 7.471,58.379 10.988,87.596 1.776,14.765 3.283,29.545 4.443,44.373 0.4832,6.1784 0.9216,12.36128 1.30803,18.54659 l 0.33304,5.48637 c 0.45849,6.9044 1.51654,13.49792 -2.75607,19.42404 -1.937,2.688 -6.361,4.202 -8.908,1.148 -3.202,-3.839 -4.392,-6.707 -4.698,-11.75 -0.234,-3.86 -0.29,-7.738 -0.466,-11.602 -0.38,-8.376 -0.858,-16.748 -1.418,-25.115 -1.117,-16.726 -2.392,-33.449 -3.869,-50.147 -5.177,-58.553 -15.016,-116.665 -21.563,-175.074 -3.3,-29.446 -5.644,-58.947 -6.885,-88.556 -0.621,-14.786 -0.846,-29.571 -0.7,-44.37 0.055,-5.528 0.317,-11.03 0.696,-16.52 -9.808,22.281 -20.119,44.347 -30.899,66.12 l -2.5552,5.15648 c -6.83156,13.76171 -13.84684,27.57513 -22.05721,40.5492 l -1.41107,2.21135 c -3.32681,5.26995 -7.87082,13.57893 -13.93652,15.24197 -4.225,1.159 -9.388,0.343 -13.72,0.26 -4.299,-0.082 -8.603,-0.1 -12.899,-0.274 -4.819,-0.194 -9.417,-0.827 -14.074,-2.083 -0.774,-0.208 -1.506,-0.434 -2.173,-0.722 -4.692,7.678 -12.664,13.526 -20.815,16.933 -6.5289,2.72895 -13.37161,4.5997 -20.22586,6.33141 l -2.41914,0.60659 c -7.348,1.831 -15.754,2.701 -19.898,9.797 l -0.96268,1.64471 c -3.08095,5.23444 -6.03685,9.83151 -11.13632,13.58429 -5.489,4.041 -11.992,6.582 -18.47,8.56 -6.633,2.024 -13.42061,3.57408 -20.15564,5.2341 l -1.83536,0.4559 c -4.446,1.113 -8.932,2.134 -13.352,3.345 -1.885,0.516 -3.804,1.048 -5.654,1.684 -2.166,0.744 -3.74,1.906 -5.449,3.17 -1.536,5.366 -8.101,8.28 -13.499,7.906 -2.835,-0.196 -5.378,-1.158 -7.692,-2.568 -4.039,3.438 -8.486,6.518 -12.603,9.703 -5.765,4.46 -11.553,8.889 -17.373,13.277 -12,9.045 -24.091,17.97 -36.308,26.719 -21.685,15.53 -43.839,30.349 -66.372,44.619 -9.395,5.95 -18.853,11.89 -28.404,17.688 -4.15523,2.54202 -4.30392,2.83733 -10.239,6.122 -9.42554,5.55415 -18.95162,10.9217 -28.62859,15.94063 l -2.42241,1.24737 c -23.997,12.271 -47.354,25.715 -71.555,37.637 -6.313,3.11 -14.01,6.474 -22.033,8.77 2.129,8.252 2.096,17.312 2.15,25.687 0.051,8.162 -12.92,8.123 -12.646,0 l 0.13199,-3.92248 c 0.23618,-6.59669 0.62201,-13.44419 2.18701,-19.86252 -23.6386,3.9204 -47.25321,-4.59979 -51.65,-7.158 -4.853,-2.822 -9.258,-7.338 -12.924,-11.527 -7.845,-8.967 -13.289,-19.715 -18.119,-30.528 -10.346,-23.156 -17.676,-47.908 -23.035,-72.662 -19.757,-91.266 -11.259,-188.948 20.826,-276.434 8.016,-21.859 17.48,-43.236 28.325,-63.839 l 1.34662,-2.54701 c 10.82206,-20.37453 22.84998,-40.67143 38.12838,-58.00999 15.914,-18.059 35.545,-32.104 56.919,-43.006 10.431,-5.32 21.164,-9.931 32.134,-14.017 1.762,-0.657 3.536,-1.246 5.314,-1.807 11.432,-7.288 25.306,-14.26 39.185,-13.986 0.943,0.017 1.707,0.375 2.277,0.914 0.669,0.117 1.338,0.259 2.008,0.454 1.479,0.429 3.041,2.05 2.829,3.715 l -0.072,0.553968 c -0.0391,0.270552 -0.0884,0.532032 -0.17302,0.787032 0.496,0.074 0.983,0.192 1.46,0.355 13.279,-3.75 26.344,-9.485 39.302,-14.111 l 2.95101,-1.042057 c 10.85288,-3.803339 21.98732,-7.531193 30.88999,-15.057943 8.857,-7.488 15.517,-17.187 20.332,-27.672 5.932,-12.918 8.588,-26.912 13.459,-40.174 z m 293.0174,461.9334 c 0.236,-1.033 1.84,-1.023 2.08,0 2.18893,9.32271 2.13786,19.36234 2.78058,28.92097 l 0.0744,1.06003 c 0.771,10.541 1.419,21.111 1.881,31.67 0.907,20.775 1.991,41.551 3.206,62.31 0.603,10.294 1.249,20.587 1.938,30.877 0.28907,4.14765 0.35633,4.10596 0.518,7.495 0.549,7.956 1.116,15.91 1.717,23.859 0.797,10.525 1.836,21.03699 2.566,31.566 0.07,1.004 0.145,2.01 0.222,3.019 0.214,3.74973 0.0267,3.81739 0.608,8.00901 0.477,6.859 0.728,13.744 -0.113,20.503 -0.455,3.653 -5.264,4.612 -6.537,0.884 -3.325,-9.739 -4.012,-20.242 -5.229,-30.443 -1.13636,-9.52727 -1.82727,-19.12397 -2.5716,-28.69391 l -0.2254,-2.87009 c -1.674,-21.054 -3.013,-42.119 -3.991,-63.216 -0.979,-21.094 -1.567,-42.184 -1.801,-63.299 -0.10636,-9.58727 0.0526,-19.20926 0.42794,-28.79533 l 0.11906,-2.87467 c 0.432,-9.859 0.13,-20.321 2.33,-29.981 z M 278.2827,79.7717 c -2.804,0.628 -5.608,1.183 -8.409,1.717 -10.655,5.711 -20.997,11.637 -31.998,16.725 -11.672,5.399 -23.301,10.975 -34.388,17.506 -22.399,13.195 -40.864,30.351 -56.122,51.38 -26.356,36.325 -45.961,78.216 -59.992,120.721 -4.460984,19.20377 -4.90284,24.76954 -11.968,42.403 -6.851,29.019 -11.137,58.635 -12.655,88.43 -0.920919,29.99108 3.477448,97.09201 12.155,132.847 l 0.802765,3.36525 c 4.725664,19.64268 10.23337,39.46845 18.198235,58.03075 3.907,9.106 9.08,17.754 15.467,25.346 3.138,3.733 6.621,6.933 10.419,9.965 3.162,2.525 13.9103,7.99996 26.6399,7.99996 12.7296,0 16.17574,-1.20435 22.5981,-3.41496 12.70103,-4.37127 24.7601,-11.35057 36.67131,-17.5668 l 1.23169,-0.6402 c 5.267,-2.725 10.514,-5.489 15.747,-8.279 7.54048,-3.43582 7.63753,-3.5117 14.84402,-8.028 34.991,-19.167 69.241,-39.677 102.946,-61.049 21.711,-13.768 43.191,-27.946 64.357,-42.539 10.581,-7.295 21.07,-14.721 31.455,-22.293 5.44,-3.967 10.855,-7.965 16.245,-11.998 2.245,-1.68 4.447,-3.444 6.697,-5.133 -0.547,-0.684 -1.08,-1.367 -1.596,-2.043 -8.402,-11 -13.853,-24.112 -16.569,-37.639 -1.64,-8.162 -2.432,-16.635 -2.673,-24.957 l -0.10598,-3.61811 c -0.16602,-6.09695 -0.20935,-12.47722 0.91398,-18.38389 -1.529,0.84 -3.091,1.664 -4.648,2.546 -5.587,3.165 -11.179,6.323 -16.78,9.466 -11.216,6.291 -22.465,12.51 -33.857,18.478 -20.348,10.661 -40.896,20.801 -61.999,29.889 l -10.26828,4.42591 c -17.82121,7.66575 -35.78795,15.19273 -54.31672,20.89009 -10.451,3.213 -20.981,5.959 -31.582,8.411 -6.52293,1.81822 -6.37623,1.77784 -13.681,2.997 -4.8832,1.0216 -9.7792,2.00288 -14.68851,2.95152 l -9.28078,1.77173 c -13.25222,2.55783 -26.10108,7.62228 -37.94655,14.10388 -4.11791,2.25323 -5.26522,-2.12431 -0.90216,-5.17442 12.75749,-8.91845 27.63861,-13.9652 42.99277,-18.20041 l 0.75423,-0.2073 c 5.633,-1.543 11.256,-3.151 16.867,-4.817 -0.617,-2.232 -0.973,-4.548 -0.902,-7.102 0.158,-5.689 0.661,-11.398 0.963,-17.083 0.634,-11.932 1.443,-23.826 2.391,-35.736 0.364,-4.588 0.772,-9.189 1.239,-13.786 0.42925,-4.89959 0.51985,-4.94774 1.147,-10.217 0.523,-4.258 1.103,-8.505 1.762,-12.728 1.743,-11.158 2.976,-22.914 6.604,-33.635 0.269,-0.794 1.448,-1.078 1.885,-0.246 5.27788,10.04038 5.46146,22.35703 6.05629,33.53796 l 0.0737,1.33604 c 0.701,12.198 0.741,24.515 0.515,36.73 -0.232,12.588 -0.663,25.144 -1.228,37.721 -0.227,5.064 -0.218,10.318 -1.081,15.161 31.408,-10.21 62.261,-22.431 91.834,-36.902 20.861,-10.207 41.542,-20.823 61.987,-31.838 10.244,-5.518 20.536,-10.947 30.769,-16.486 3.58533,-1.94133 7.168,-3.88889 10.74918,-5.8397 l 5.37082,-2.9283 c 5.026,-2.743 9.221,-5.472 15.075,-5.664 1.745,-0.058 3.31,0.76 4.421,1.997 3.146,-2.231 6.782,-3.601 10.598,-3.569 5.744,-7.934 11.576,-15.803 17.64,-23.501 l 4.47994,-5.69946 c 7.75397,-9.83286 16.71762,-18.56489 25.85506,-27.29954 13.71906,-8.03925 18.73468,-9.44468 34.901,-14.738 13.357,-4.127 26.765,-8.138 40.379,-11.34 3.624,-0.852 7.266,-1.643 10.923,-2.369 1.916,-9.096 5.7705,-20.149 8,-26.791 1.22864,-4.14695 4.9704,-12.15468 6.001,-14.75101 2.05083,-4.71917 4.18361,-9.39319 6.33931,-14.01977 l 2.79707,-5.98281 c 7.25227,-15.57192 14.48456,-31.73642 23.58962,-46.23642 4.048,-6.446 9.435,-10.471 17.167,-11.094 7.962,-0.641 16.24,0.187 24.213,0.472 9.243,0.331 18.483,0.723 27.717,1.208 -2.367,-2.479 -4.527,-5.239 -6.904,-7.618 -3.946,-3.945 -8.115,-7.685 -12.497,-11.142 -8.673,-6.841 -18.209,-12.478 -28.114,-17.332 -9.907,-4.855 -20.105,-9.088 -29.405,-15.086 -5.885,-3.795 -11.145,-8.571 -15.944,-13.739 -3.021,32.59 -18.758,62.868 -42.4,85.616 -24.556,23.625 -58.49,36.605 -91.686,42.126 -33.86,5.632 -69.199,3.565 -101.59,-8.204 -77.52035,-25.70373 -41.37773,-11.09524 -75.075,-52.801 -17.627,-21.971 -35.013,-52.742 -29.12,-81.921 0.102,-0.501 0.553,-0.816 1.039,-0.896 0.342,-2.048 1.432,-4.029 2.925,-5.361 -1.005,-0.264 -2.018,-0.468 -3.036,-0.608 z m 378.839,94.185 c -8.079,1.568 -11.372,11.54 -14.774,18.04 -8.029,15.34 -15.413,30.961 -22.829,46.602 -2.283,4.811 -1.1935,1.409 -3.4365,6.248 -0.137,0.379 -6.8755,15.502 -7.0825,15.871 -4.595,9.893 -6.077,13.221 -11.608,22.612 5.062,-0.948 10.15,-1.756 15.257,-2.392 -0.25764,-4.80861 3.03495,-11.24394 4.6636,-15.29197 l 0.1354,-0.34103 c 2.031,-5.188 4.16,-13.36 9.388,-16.052 1.742,-0.896 3.605,0.227 3.739,2.145 0.396,5.71 -5.189,12.245 -7.919,17.091 -1.651,2.932 -3.26,5.877 -4.828,8.854 -0.588,1.114 -1.079,2.209 -1.682,3.191 2.634,-0.285 5.271,-0.539 7.915,-0.724 l 1.72303,-0.1179 c 9.80215,-0.64618 20.21291,-0.83077 29.06897,4.0029 8.217,4.483 12.417,14.054 7.903,22.769 -5.624,10.857 -18.008,12.296 -28.898,13.176 -13.602,1.097 -27.235,3.078 -40.741,5.01 -13.97,1.998 -27.125,7.148 -40.887,9.795 -1.28,0.246 -2.077,-1.428 -0.903,-2.143 10.85561,-6.60742 24.05292,-10.24362 36.18936,-13.94748 l 0.98164,-0.30052 c 6.583,-2.022 13.017,-4.332 19.827,-5.479 6.611,-1.113 13.263,-2.015 19.931,-2.701 l 0.64759,-0.0598 c 7.3416,-0.61556 26.07093,-0.40534 25.27941,-11.27516 -0.524,-7.194 -12.218,-8.436 -17.556,-8.522 -24.474,-0.392 -49.124,6.104 -72.383,13.064 l -5.19242,1.55686 c -9.52414,2.86565 -19.06166,5.81391 -28.40658,9.17314 -10.59,3.806 -18.933,9.741 -26.646,17.864 -8.552,9.007 -16.835,18.217 -25.707,26.92 -5.593,5.487 -11.258,10.876 -16.969,16.221 -1.29,1.67 -2.322,3.487 -3.037,5.844 -1.208,3.982 -0.93,7.683 -0.474,11.773 1.15,10.329 1.404,20.765 2.845,31.062 1.336,9.539 3.204,19.428 7.165,28.277 1.56844,3.50437 3.60973,6.94635 5.93435,10.02434 l 1.87631,2.43923 c 0.81793,1.05958 1.73273,2.21897 2.69334,3.30943 1.41,-1.72 3.45,-2.839 5.821,-2.559 5.039,0.593 9,0.451 13.943,-0.707 3.826,-0.895 7.622,-1.944 11.431,-2.915 7.479,-1.908 15.028,-3.644 22.431,-5.835 l 1.27266,-0.38337 c 5.51685,-1.69217 11.03555,-3.81163 15.62734,-7.37363 5.335,-4.139 6.976,-10.11 10.928,-15.273 8.438,-11.025 26.672,-10.794 39.018,-13.814 10.49227,-2.56569 20.58919,-6.61465 27.85017,-14.22708 l 0.42371,-0.45342 c -0.32188,-1.3585 0.20012,-2.8915 1.46212,-3.5955 l 0.275,-0.153 c 0.492,-0.275 1.022,-0.389 1.542,-0.378 0.674,-0.99 1.324,-2.012 1.915,-3.1 0.486,-0.897 1.701,-0.237 1.542,0.649 -0.095,0.529 -0.227,1.045 -0.352,1.562 7.0335,-1.809 14.75788,-1.46355 21.89901,-1.45898 l 9.26725,-0.0324 c 1.60381,-0.0197 3.99424,-0.10018 4.20674,-0.19661 l 0.2179,-0.0968 c 0.57779,-0.25086 -0.24254,0.16328 0.1611,-0.37218 0.445,-0.591 0.881,-1.189 1.311,-1.792 1.536,-2.149 2.989,-4.363 4.413,-6.597 -15.519,3.953 -31.595,6.413 -47.441,8.464 -17,2.203 -34.224,3.731 -51.376,3.747 -4.728,0.005 -4.685,-7.133 0,-7.312 18.162,-0.693 36.229,-1.655 54.269,-3.982 9.329,-1.205 18.619,-2.716 27.857,-4.484 3.5664,-0.6808 7.12448,-1.40448 10.67373,-2.16899 l 2.66027,-0.58101 c 1.669,-0.369 6.385,-0.9 8.685,-2.443 0.452,-0.777 0.904,-1.552 1.352,-2.328 -0.22,-2.725 -7.148,-2.36 -8.772,-2.364 -4.605,-0.009 -9.211,0.028 -13.817,0.04 -9.211,0.027 -18.421,-0.053 -27.633,-0.127 -18.404,-0.15 -36.878,-0.792 -55.267,-0.006 -4.464,0.19 -6.809,-6.969 -2.397,-8.852 19.478,-8.316 41.1,-10.123 61.898,-12.68 10.937,-1.343 21.88,-2.895 32.572,-5.615 l 2.64349,-0.67245 c 6.71667,-1.72187 14.13363,-3.82161 19.78951,-7.92455 -8.50103,-3.43883 -19.06776,-3.04473 -27.87969,-3.53172 l -0.67431,-0.0393 c -12.339,-0.758 -24.7,-1.146 -37.062,-1.164 -25.294,-0.035 -50.596,0.861 -75.862,2.06 -0.634,0.03 -0.765,-0.971 -0.149,-1.105 25.969,-5.666 52.362,-8.396 78.938,-8.816 12.37693,-0.19593 24.75989,-0.0211 37.12647,0.52611 l 4.5375,0.20978 c 10.54384,0.45435 22.24361,0.57719 31.06503,6.94411 1.345,0.97 2.054,2.209 2.165,3.52 11.831,-23.583 22.758,-47.659 33.729,-71.575 8.529,-18.596 16.74,-37.348 25.58,-55.799 l 2.86178,-5.96906 c 3.8321,-7.96502 7.75802,-15.93094 12.11722,-23.60694 -16.301,-2.179 -32.693,-3.692 -49.095,-4.85 -14.94547,-1.05653 -63.71,-3.396 -70.905,-2.001 z m 43.028,169.118 c -6.471,6.854 -16.441,10.005 -25.219,12.616 -10.408,3.093 -21.132,4.941 -31.867,6.461 -10.373,1.468 -20.666,2.781 -30.874,4.466 7.722,0.096 15.443,0.153 23.147,0.291 8.885,0.161 17.765,0.353 26.647,0.611 6.469,0.188 14.059,-0.699 20.206,1.705 1.108,0.432 2.143,1.032 3.047,1.762 5.168,-9.189 10.121,-18.505 14.913,-27.912 z"
         id="ðŸ–-Ink"
         fill="#000000"
         sodipodi:nodetypes="sccccccccccccccccccccccccccccccccscscccccccccccccccccccccccccccscccccccccccccscccccccscccccccccccccccccccccccccccsssccccccccccccccccccccsssccccccccccccscccccccccccccccccccccccccssccccccccccccccccccccccccccccccccccccccccscccccccccssscccccccccccccccccccccccccccccccccccccccccccccccccccccccscccccccccccccccccccccccscccccccccccccccccssccccccccc" /></g><g
       id="head/mono/Bangs"
       stroke="none"
       stroke-width="1"
       fill="none"
       fill-rule="evenodd"
       transform="matrix(0.05594999,0,0,0.05594999,29.957779,3.6902281)"><path
         d="m 431.61714,424.84399 c -3.964,-5.86196 -13.509,-48.40187 -19.606,-54.94485 0.46,-25.13023 7.40702,-112.13724 -12.43588,-151.24914 4.174,-4.2208 15.26588,-40.57553 12.43588,-54.31893 9.348,-28.78204 -50.705,-74.495434 -73.56,-86.848281 C 232.23014,20.524077 78.308143,83.396825 30.001143,188.91195 0.97214309,252.45688 0.43714309,323.60319 -2.8448569,391.97821 c -0.388,14.63572 -1.733,29.38543 -1.718,44.00346 C -2.4638569,448.82686 7.721,461.90795 0,472.58919 c -8.529,5.89929 -25.766857,20.27061 -18.091857,28.42034 4.498,3.74516 11.6830001,1.57236 16.5640001,5.17306 2.48499999,1.39056 4.035,4.437 6.941,4.90085 26.5459999,-1.00828 45.2784719,-1.09464 71.9064719,-2.17072 11.657,-0.3813 29.407285,4.54891 42.787525,-5.26654 46.73786,25.99563 27.18812,-11.71932 36.63912,-38.57128 28.78,9.73093 86.10988,40.76177 116.78688,41.76415 24.929,3.08084 48.24,-11.43695 72.748,-8.13204 30.447,11.31116 66.129,13.82595 94.018,-5.31163 6.96,-5.01288 14.70334,0.79397 23.47534,-4.61888 17.049,-8.15366 -23.55334,-54.88752 -32.15734,-63.93251 z"
         id="ðŸŽ¨-Background-0"
         fill="#ffffff" /><path
         d="m 396.8226,215.3125 c -0.378,-2.171 2.613,-3.79 3.77,-1.59 8.405,15.981 11.772,34.489 14.749,52.141 3.007,17.838 4.994,35.75 5.104,53.858 0.084,13.929 -1.181,28.019 -3.556,41.958 l 0.289,0.992 v 0 c 0.53333,1.822 1.07156,3.64267 1.61556,5.462 l 0.82044,2.728 c 1.586,5.238 3.088,10.5 4.717,15.725 3.401,10.905 6.982,21.841 11.368,32.394 4.28,10.298 9.485,20.229 15.672,29.511 5.963,8.948 15.426,16.514 19.627,26.452 1.464,3.463 -0.701,8.041 -4.745,7.488 -0.263,0.317 -0.664,0.547 -1.208,0.595 -3.14,0.274 -6.083,0.013 -9.216,-0.281 -1.749,-0.164 -1.746,-2.555 0,-2.719 1.331,-0.125 2.627,-0.235 3.922,-0.31 -8.96,-5.309 -15.352,-15.676 -20.463,-24.163 -6.568,-10.904 -11.529,-22.818 -15.573,-34.866 -4.153,-12.37 -7.094,-24.998 -9.457,-37.82 -0.271,-1.476 -0.529,-2.953 -0.777,-4.432 -2.986,12.693 -6.831,25.154 -11.388,37.13 l -0.63858,1.66693 c -10.50523,27.23328 -24.73338,54.72843 -48.39842,72.72907 -1.074,0.816 -2.171,1.591 -3.277,2.349 l 1.34628,0.77178 c 1.33997,0.76509 2.65997,1.49897 3.95072,2.10122 4.782,2.231 9.973,3.932 15.108,5.137 10.606,2.491 21.744,1.777 32.564,2.124 3.549,0.114 5.568,5.435 1.94,7.163 -11.951,5.691 -24.859,4.483 -37.195,0.479 -6.104,-1.983 -11.832,-4.758 -17.131,-8.381 -2.191,-1.497 -4.735,-3.345 -6.883,-5.481 -23.667,13.242 -53.083,14.724 -79.425,9.988 -13.689,-2.462 -26.954,-6.957 -38.625,-14.646 -11.226,-7.394 -19.228,-16.756 -24.941,-28.885 -0.507,-1.075 0.902,-2.414 1.767,-1.363 17.945,21.795 48.827,30.889 75.995,32.619 14.496,0.924 29.325,0.156 43.262,-4.181 13.221,-4.116 24.565,-11.66 34.037,-21.693 19.199,-20.337 30.703,-48.003 38.965,-74.332 8.988,-28.643 13.268,-58.779 14.151,-88.755 0.447,-15.187 -0.116,-30.502 -2.501,-45.521 -2.366,-14.895 -6.757,-29.311 -9.342,-44.143 z M 127.7717,86.2818 c 1.271,-0.646 2.166,1.035 1.088,1.862 -22.377,17.161 -42.417,38.921 -58.637,61.952 -29.913,42.477 -49.097,91.631 -57.931,142.707 -5.216,30.163 -6.578,60.783 -6.057,91.348 0.2064,12.1416 0.89984,24.24608 1.671232,36.3544 l 0.8708441,13.42197 c 0.4043945,6.25327 0.7421246,12.45333 0.481045,18.737 L 9.1867,454.1158 c -0.414,7.312 0.305,14.683 -1.529,21.816 -0.941,3.658 -6.1,4.234 -7.968,1.041 -0.366,-0.625 -0.708,-1.27 -1.04,-1.921 -4.378,7.14 -10.048,13.523 -16.339,19.225 3.007,-0.64 6.043,-1.048 9.16,-0.675 4.941,0.592 9.373,2.5 12.509,5.844 3.113,-1.403 6.314,-2.369 9.995,-2.389 2.711,-0.014 4.744,3.191 3.197,5.572 -3.086,4.752 -7.392,7.416 -12.285,10.049 -3.4676471,1.86667 -7.6061899,0.27024 -8.8866315,-3.42008 L -4.0733,509.0338 c -1.441,-4.668 -9.105,-3.914 -12.721,-3.192 l -1.064157,0.21729 c -6.73093,1.40052 -13.303743,3.19341 -20.160843,1.34471 -4.423,-1.193 -5.579,-7.851 -1.315,-10.061 13.47,-6.98 24.778,-16.356 36.399,-25.77 -2.566,-6.291 -4.023,-13.32 -5.703,-19.717 -2.365,-9.004 -3.056,-18.692 -3.91,-27.941 -1.623,-17.585 -2.242,-35.361 -2.068,-53.015 0.589,-59.628 10.787,-119.441 36.836,-173.436 11.412,-23.653 26.404,-45.54 44.125,-64.913 17.616,-19.259 38.191,-34.467 61.427,-46.269 z m -20.8551,292.0138 c -0.691,-0.958 0.658,-2.225 1.604,-1.604 20.481,13.453 34.694,33.881 43.865,56.322 9.078,22.217 14.652,49.43 5.699,72.598 -1.425,3.69 -8.25,5.06 -8.949,0 -3.121,-22.596 -3.606,-45.224 -10.469,-67.192 -6.804,-21.777 -18.446,-41.719 -31.75,-60.124 z m -15.8804,73.3569 c 0.112,-0.399 0.764,-0.33 0.736,0.1 -0.513,7.968 -0.861,16.033 -1.863,23.957 -0.487,3.851 -1.131,7.677 -1.679,11.519 -0.562,3.94 -0.477,7.918 -2.768,11.283 -3.036,4.461 -11.102,3.206 -10.831,-2.933 0.187,-4.235 2.133,-6.953 3.956,-10.67 1.169333,-2.38333 2.188444,-4.84667 3.170815,-7.32126 L 83.2182,473.8755 c 2.902,-7.361 5.679,-14.598 7.818,-22.223 z M 54.3614,430.5451 c 0.124,-0.627 1.135,-0.476 1.105,0.149 -0.547,11.278 -1.819,22.429 -3.811,33.542 -0.90825,5.06537 -1.967328,10.10242 -3.087465,15.12521 L 48.0844,481.5131 c -1.198,5.29 -1.971,11.509 -4.655,16.235 -2.682,4.723 -9.05,1.293 -8.225,-3.468 0.964,-5.558 4.375,-11.149 6.358,-16.487 1.83,-4.928 3.43,-9.943 4.925,-14.982 3.147,-10.607 5.728,-21.413 7.874,-32.266 z m 68.29628,31.31 0.23842,-0.2446 c 0.932,-1.013 2.322,-0.338 2.767,0.731 1.822,4.381 0.91,9.547 0.78,14.198 l -0.0242,1.01426 c -0.097,4.71148 -0.0294,9.12441 -2.16584,13.47374 -2.594,5.281 -9.429,2.001 -9.958,-2.697 -0.578,-5.127 1.847,-10.146 3.413,-14.948 0.995,-3.052 1.72,-6.226 3.233,-8.996 -1.294,0.223 -2.586,0.67 -3.769,0.993 -0.53,0.143 -0.73,-0.635 -0.224,-0.815 1.95605,-0.69255 4.1639,-1.21272 5.70958,-2.7094 z m 272.65882,15.547 c -0.625,-0.699 0.154,-1.63 0.965,-1.252 9.74,4.549 18.85,7.508 29.597,8.477 4.657,0.42 4.686,7.736 0,7.312 -11.216,-1.01 -22.971,-6.039 -30.562,-14.537 z M 52.6412,323.7087 c 8.575,-19.289 35.703,-36.4 53.894,-18.462 0.341,0.335 -0.006,1.066 -0.501,0.861 -11.315,-4.689 -25.167,1.275 -32.998,9.805 -6.213,6.766 -9.946,15.454 -10.687,24.611 -0.741,9.165 1.45,18.731 7.537,25.82 3.193,3.719 7.505,7.239 12.579,7.686 5.123,0.451 9.393,-3.157 14.236,-4.137 3.651,-0.738 6.407,1.553 6.765,5.152 0.789,7.943 -7.119,13.274 -13.974,14.569 -7.374,1.392 -14.9,-0.129 -21.254,-4.125 -20.522,-12.906 -24.949,-40.741 -15.597,-61.78 z M 245.1865,134.6464 c 3.729,-3.564 10.072,-0.021 8.696,5.063 -2.926,10.82 -9.145,19.965 -16.035,28.645 -6.629,8.351 -13.731,16.376 -21.343,23.845 -7.562,7.42 -15.778,14.286 -24.413,20.419 l -2.60064,1.84209 c -6.11988,4.31403 -12.60198,8.67678 -19.45236,11.78391 -1.654,14.25 -4.89,28.31 -9.786,41.771 -4.715,12.962 -10.715,25.489 -17.985,37.212 l -1.04387,1.67896 c -6.68058,10.70645 -14.71378,22.67194 -26.05013,28.54104 -0.34,0.177 -0.681,0.285 -1.017,0.348 2.536,1.691 4.679,3.818 5.953,6.874 1.396,3.346 -1.522,6.503 -4.319,7.608 -5.915,2.337 -11.685,-1.619 -17.002,-5.839 -0.225,0.506 -0.437,1.017 -0.619,1.532 -1.189,3.37 -1.539,6.814 -4.605,9.05 -1.457,1.063 -3.252,0.112 -4.169,-1.092 -3.006,-3.95 0.106,-9.331 2.749,-12.559 0.366,-0.446 0.744,-0.87 1.133,-1.277 -1.117,-0.821 -2.207,-1.549 -3.263,-2.108 -6.209,-3.288 -15.413,-3.871 -18.988,3.408 -0.274,0.559 -1.135001,0.27 -1.135001,-0.308 0.009,-8.941 9.168001,-13.797 17.116001,-14.457 5.807059,-0.48188 11.423668,1.5546 16.65057,3.92598 l 0.97543,0.44802 c 1.945,0.903 3.949,1.755 5.867,2.708 -0.312,-0.823 -0.307,-1.791 0.184,-2.751 6.011,-11.739 16.333,-21.285 23.777,-32.157 7.382,-10.786 13.72,-22.329 18.779,-34.382 4.91,-11.699 8.757,-23.765 11.447,-36.072 -0.886,0.183 -1.885,-0.606 -1.822,-1.531 0.15,-2.238 1.245,-4.254 3.168,-5.113 2.118,-11.576 3.199,-23.348 3.136,-35.215 -0.005,-0.92 1.328,-0.887 1.406,0 0.936,10.551 1.012,21.205 0.225,31.797 5.002,-4.602 10.277,-8.977 15.093,-13.701 7.247,-7.108 14.258,-14.406 21.021,-21.975 6.9,-7.722 13.422,-15.728 19.386,-24.199 l 3.12114,-4.44241 c 4.79876,-6.81032 9.72818,-13.54941 15.76486,-19.32159 z m -9.4095,-76.026 c 41.156,-2.569 85.11,2.489 122.078,21.808 20.303,10.609 35.996,26.644 47.209,46.599 6.695,11.916 11.774,25.111 13.698,38.677 1.976,13.939 -0.344,26.368 -9.244,37.448 -3.535,4.4 -9.489,-0.515 -8.618,-5.017 5.328,-27.544 -3.314,-54.758 -18.641,-77.561 -22.241,-33.09 -61.082,-47.789 -98.899,-54.346 -18.58,-3.22 -37.425,-4.566 -56.275,-3.911 -14.371,0.5 -29.113,1.839 -42.751,6.674 -0.575,0.204 -0.804,-0.692 -0.25,-0.903 16.268,-6.213 34.428,-8.39 51.693,-9.468 z m 61.038,62.2829 c 2.119,-1.343 4.711,0.035 5.439,2.214 2.568,7.682 -2.814,17.831 -6.414,24.479 -4.074,7.523 -9.313,14.557 -14.723,21.164 -10.823,13.214 -25.048,24.24 -40.658,31.17 -0.956,0.425 -2.07,-0.729 -1.193,-1.545 12.078,-11.247 23.029,-23.305 32.509,-36.832 4.658,-6.647 8.543,-13.659 12.253,-20.862 3.32,-6.446 6.442,-15.766 12.787,-19.788 z m 69.2177,9.0495 c 1.354,-4.728 9.066,-3.923 8.747,1.184 -0.825,13.193 -7.049,26.436 -13.812,37.617 -6.964,11.513 -15.783,21.773 -25.892,30.634 -0.498,0.437 -1.18,-0.236 -0.729,-0.729 8.722,-9.548 15.767,-20.424 20.984,-32.26 5.211,-11.819 7.178,-24.151 10.702,-36.446 z m -38.3294,-2.1361 c 1.475,-4.111 8.535,-3.806 8.102,1.097 -1.19,13.478 -9.1,27.603 -16.426,38.735 -7.774,11.811 -17.697,22.216 -28.787,30.955 -0.415,0.327 -1.002,-0.215 -0.597,-0.597 9.961,-9.385 18.039,-20.226 24.434,-32.318 3.264,-6.17 6.002,-12.595 8.164,-19.232 2,-6.14 2.939,-12.588 5.11,-18.64 z"
         id="ðŸ–-Ink-0"
         fill="#000000" /></g><path
       d="m 43.809228,25.131573 c 0.602258,-0.699832 1.616596,-0.748569 2.45684,-0.573586 0.53921,0.112329 1.064207,0.299407 1.611876,0.368751 0.255785,0.03241 0.514326,0.0421 0.771982,0.03732 0.253078,-0.0046 0.506554,-0.05568 0.75875,-0.04617 0.03875,0.0015 0.05341,0.05233 0.01982,0.07305 -0.345982,0.212508 -0.812062,0.280672 -1.220749,0.322229 0.0013,0.03024 0.003,0.05977 0.0074,0.08478 0.01119,0.06674 0.02136,0.133032 0.02955,0.200211 0.01855,0.151523 0.0393,0.302557 0.06001,0.453784 0.04081,0.297629 0.05364,0.604658 0.125427,0.897129 l 0.01252,0.0486 c 0.01663,0.06148 0.02041,0.116899 0.01485,0.166868 l 0.01663,-0.0076 0.05251,-0.02544 0.03442,-0.01624 c 0.125605,-0.05822 0.245452,-0.100632 0.393121,-0.08649 0.112424,0.01072 0.206802,0.0874 0.20749,0.207442 0.0028,0.538768 -0.723292,0.712031 -1.138617,0.81516 l -0.121798,0.03 c -0.528661,0.128941 -1.068432,0.241975 -1.612145,0.269009 -0.872552,0.04332 -1.853057,-0.197359 -2.423842,-0.90511 -0.53257,-0.660342 -0.630193,-1.646501 -0.05591,-2.313776 z m 3.962487,2.263662 c -0.09156,-0.811147 -1.088364,-0.855748 -1.375119,-0.341361 -0.127248,-0.717 -2.009651,-0.06196 -1.862456,0.08057 0.557899,0.540292 1.404534,0.588931 2.132351,0.488997 0.37067,-0.0509 0.741636,-0.13377 1.105224,-0.228197 z m -1.106259,-2.126033 -0.250608,-0.03607 -0.09871,-0.0136 c -0.621275,-0.0832 -1.319955,-0.12617 -1.830741,0.272138 -0.186493,0.145376 -0.291443,0.335015 -0.33064,0.538717 0.483321,-0.07164 0.968419,-0.126283 1.454954,-0.171792 l 0.132727,-0.01219 c 0.304424,-0.02743 0.608702,-0.05635 0.912832,-0.0867 l 0.216153,-0.02189 0.21604,-0.02244 c 0.07604,-0.008 0.588442,-0.03418 0.684786,-0.01657 0.01025,-0.08656 0.02371,-0.273884 0.04544,-0.358128 -0.364033,0.01235 -0.726485,-0.01468 -1.088383,-0.06278 z m 1.15359,-3.625606 c 0.371379,0.225738 0.937243,0.752117 0.537727,1.311752 -0.470271,0.493447 -1.147353,-0.07232 -1.481005,-0.3282 -0.309381,-0.198306 -0.656987,0.311722 -0.369943,0.543277 2.410991,1.785004 3.389423,-1.4678 1.501061,-1.792243 -0.207918,-0.03576 -0.285138,0.195579 -0.18784,0.265414 z m 0.66461,0.950984 0.01786,-0.0097 0.0061,-0.0037 c 0.01049,-0.0067 0.0038,-0.0061 -0.01995,0.0022 l -0.01781,0.0063 v 0.01259 c 0.0046,-0.0028 0.0095,-0.005 0.01387,-0.0078 z m -4.756245,-2.005566 -6.4e-5,-0.01107 c 6.89e-4,-0.313609 0.183344,-1.029652 0.634824,-1.029652 0.282045,0 0.453284,0.487316 0.482928,0.989669 l 9.96e-4,0.02048 c 0.01308,0.312319 -0.07262,0.994994 -0.483958,0.994994 -0.415697,0 -0.630485,-0.646578 -0.63476,-0.964413 z m 6.64695,-0.09836 4.8e-5,-0.01107 c -6.86e-4,-0.313611 -0.183342,-1.029654 -0.634821,-1.029654 -0.274996,0 -0.444654,0.463257 -0.480441,0.952028 l -0.0024,0.03765 c -0.01781,0.301775 0.06235,1.015479 0.48293,1.015479 0.415696,0 0.630484,-0.646579 0.634759,-0.964415 z m -6.389356,-3.080595 c 0.368458,-0.05601 0.856373,0.0504 1.02816,0.425063 0.07652,0.166917 -0.01411,0.35149 -0.207048,0.360737 -0.466278,0.02233 -0.884455,-0.08145 -1.293731,0.221752 -0.176138,0.130506 -0.324223,0.3112 -0.448489,0.491438 l -0.04702,0.0686 -0.03895,0.05651 c -0.08437,0.124057 -0.164284,0.258839 -0.151807,0.408518 0.0038,0.04432 -0.04161,0.08636 -0.08465,0.0846 -0.268228,-0.01107 -0.297097,-0.34731 -0.261835,-0.549292 0.06561,-0.374852 0.247033,-0.726736 0.498491,-1.01016 0.264096,-0.297638 0.612732,-0.497803 1.006862,-0.557751 z m 5.074855,0.45494 c 0.254065,-0.163327 0.579047,-0.226081 0.876685,-0.202032 0.586866,0.04726 1.571402,0.546146 1.441813,1.262945 -0.03999,0.221065 -0.347458,0.33772 -0.528637,0.215064 -0.194802,-0.131851 -0.242213,-0.336784 -0.387195,-0.509112 -0.115674,-0.137656 -0.262278,-0.237244 -0.419261,-0.322081 -0.15473,-0.08367 -0.333738,-0.134385 -0.509339,-0.152872 l -0.02923,-0.0027 c -0.105686,-0.0089 -0.63939,-0.0066 -0.561046,0.19264 0.01535,0.03899 -0.04268,0.06988 -0.06935,0.04038 -0.163624,-0.180982 0.0217,-0.416802 0.185554,-0.522145 z"
       id="ðŸ–-Ink-8"
       fill="#000000"
       style="fill-rule:evenodd;stroke:none;stroke-width:0.0491801" /></g></svg>
