<?xml version="1.0" encoding="UTF-8" standalone="no"?>
<!-- Created with Inkscape (http://www.inkscape.org/) -->

<svg
   width="200"
   height="300"
   viewBox="0 0 52.916666 79.375"
   version="1.1"
   id="svg5"
   xml:space="preserve"
   sodipodi:docname="hipster-paper.svg"
   inkscape:version="1.2 (dc2aedaf03, 2022-05-15)"
   xmlns:inkscape="http://www.inkscape.org/namespaces/inkscape"
   xmlns:sodipodi="http://sodipodi.sourceforge.net/DTD/sodipodi-0.dtd"
   xmlns="http://www.w3.org/2000/svg"
   xmlns:svg="http://www.w3.org/2000/svg"><sodipodi:namedview
     id="namedview27"
     pagecolor="#ffffff"
     bordercolor="#000000"
     borderopacity="0.25"
     inkscape:showpageshadow="2"
     inkscape:pageopacity="0.0"
     inkscape:pagecheckerboard="0"
     inkscape:deskcolor="#d1d1d1"
     showgrid="false"
     inkscape:zoom="2.1260343"
     inkscape:cx="96.674812"
     inkscape:cy="161.63398"
     inkscape:window-width="1920"
     inkscape:window-height="1057"
     inkscape:window-x="1072"
     inkscape:window-y="428"
     inkscape:window-maximized="1"
     inkscape:current-layer="svg5"
     inkscape:rotation="-1" /><defs
     id="defs2" /><g
     id="layer1"
     transform="translate(-13.19605,-4.0872722)"><g
       id="head/mono/hat-beanie"
       stroke="none"
       stroke-width="1"
       fill="none"
       fill-rule="evenodd"
       transform="matrix(0.26458333,0,0,0.26458333,38.460619,7.1686721)"><g
         id="body/mono/Coffee"
         stroke="none"
         stroke-width="1"
         fill="none"
         fill-rule="evenodd"
         transform="matrix(0.22647654,0,0,0.22647654,-89.557151,88.714678)"><path
           d="m 394.2068,3.1729 c 24.685,-18.797 86.658,-27.25 113.004,-9.151 26.022,18.175 28.85884,47.566463 40.98484,74.604463 11.441,-5.395 30.33459,2.331537 33.65159,12.947537 4.114,5.007 4.29877,19.07436 7.13577,25.80536 123.442,19.649 142.1828,115.88764 157.0408,225.14564 19.656,110.869 64.277,221.496 44.906,335.582 2.524,3.652 4.514,7.202 6.354,11.418 4.409,7.502 -1.27,18.121 -10.163,17.71 -11.511,-1.011 -22.908,-2.391 -34.473,-2.822 -32.05974,-1.11339 -64.14876,-0.98064 -96.22067,-0.57317 l -4.37333,0.0572 c -161.633,2.012 -323.257,5.977 -484.897,7.02852 -5.864,0.008 -8.735,-5.25052 -7.952,-10.43852 1.577,-10.445 3.04,-20.895 4.567,-31.345 -38.232,10.098 -78.876,12.639 -117,1.062 -2.667,-2.717 6.214,-1.244 7.623,-1.657 -35.086,-23.975 -24.608,-74.482 -21.5,-110.86 19.326,-124.651 26.139,-262.569 100.808,-368.936 32.303,-43.408 79.662,-77.776 134.081,-85.509 l 1.50975,-0.206711 C 285.20561,90.913542 302.93946,90.2301 316.8518,81.5739 c 15.64721,-12.491308 22.31509,-35.571938 38.77661,-35.788003 5.43568,-0.07135 12.83018,6.805177 20.78739,11.474003 0.59402,-10.270639 6.12899,-18.938134 7.35105,-26.901499 l 0.0989,-0.681013 C 385.14096,20.393205 383.39454,12.040397 394.2068,3.1729 Z m 265.28828,332.64523 c -34.69073,-24.09951 -124.3037,-11.99046 -126.35516,-10.64098 -4.517,2.971 -6.46212,3.23375 -8.90512,7.09175 -2.412,0.32 -4.822,0.652 -7.23,0.994 -4.831,1.578 -1.251,7.52 4.329,5.4 -3.35625,14.4743 6.52088,24.76798 10.453,39.07738 1.27673,4.64617 0.0461,13.00237 0,17.74962 0.38133,6.0529 7.07353,13.20262 5.95817,19.27523 -3.9653,21.5892 -25.48335,42.64909 -16.41117,63.58596 25.03474,35.06732 99.69961,26.01089 118.85421,0 7.71648,-11.47578 16.65638,-40.42346 21.25738,-49.40246 l 1.0198,-14.24359 c 2.51494,-35.40681 4.752,-73.5224 -2.97011,-78.88691 z"
           id="ðŸŽ¨-Background"
           fill="#ffffff" /><path
           d="m 349.5843,43.698 c 2.395,-2.121 5.939,0.544 4.417,3.409 -3.42,6.439 -6.928,12.54 -11.518,18.232 -2.783,3.451 -5.764,6.715 -8.785,9.943 7.753,6.707 14.402,15.034 20.681,22.838 8.029,9.981 15.62,20.385 24.633,29.518 8.88877,9.00719 18.71723,15.30353 30.60104,19.50214 l 2.40016,0.83366 c 11.93821,4.19108 24.69767,9.85098 31.4268,21.1542 1.327,2.229 -1.345,4.983 -3.591,3.592 -11.693,-7.24 -25.432,-8.696 -38.16,-13.48 -12.295,-4.621 -23.013,-11.733 -32.483,-20.81 -9.454,-9.062 -17.392,-19.372 -25.672,-29.464 -8.188,-9.979 -17.004,-18.502 -26.689,-26.945 -14.94553,10.054386 -32.00548,14.429332 -49.35254,18.72628 l -1.89346,0.46872 c -17.368,4.3 -34.643,9.294 -50.937,16.782 -14.366,6.601 -28.496,14.484 -40.198,25.226 -12.422,11.4 -22.09,25.96 -30.939,40.199 -19.794,31.856 -33.71,66.756 -45.961,102.08 -12.742,36.742 -23.4,74.22 -32.004,112.143 -4.376,19.29 -7.93,38.717 -10.851,58.28 -1.406,9.422 -2.655,18.864 -3.752,28.327 -1.171,10.105 -1.44,20.501 -4.54,30.217 -1.329,4.164 -4.467,5.892 -7.608,5.745 l -0.637976,7.97877 C 37.32534,538.83172 36.5367,549.473 36.2703,560.177 c -0.441913,17.798 -0.241543,35.54476 1.038689,53.30505 L 37.4903,615.904 c 1.006,12.962 3.254,27.526 13.001,37.017 10.094,9.83 25.617,12.921 39.222,13.098 31.687,0.413 62.189,-14.559 90.229,-27.694 28.878,-13.527 56.967,-28.542 84.383,-44.826 13.962,-8.293 27.773,-16.862 41.408,-25.681 6.691,-4.329 13.335,-8.731 19.929,-13.204 3.777,-2.562 7.356,-5.371 11.201,-7.644 -1.884,-1.754 -2.725,-4.512 -1.147,-6.92 -11.115,-9.648 -15.741,-26.865 -16.282,-40.796 -0.437,-11.245 1.218,-22.458 2.524,-33.597 0.659,-5.617 1.473,-11.224 2.318,-16.816 0.334,-2.209 0.589,-4.572 0.979,-6.904 -30.013,16.493 -60.867,31.181 -92.538,44.23 -16.234,6.689 -32.676,12.703 -49.345,18.214 l -3.37855,1.11161 c -15.79391,5.16989 -31.96572,10.05352 -48.29345,13.00939 -0.873,0.158 -1.582,-1.131 -0.65,-1.542 15.912,-7.021 32.375,-12.943 48.526,-19.409 l 2.654,-1.081 v 0 c -0.305,-0.017 -0.621,-0.059 -0.951,-0.138 -9.472,-2.286 -18.87,-5.809 -28.16,-8.775 -8.622,-2.753 -18.309,-4.482 -26.368,-8.638 -0.62,-0.32 -0.273,-1.182 0.331,-1.223 9.058,-0.628 18.891,2.012 27.772,3.565 l 3.3363,0.5844 c 5.58898,0.98549 11.30203,2.04493 16.8637,3.4266 0.201,-1.863 1.242,-3.734 2.723,-4.831 16.297,-12.069 14.642,-36.445 16.385,-54.42 l 1.29249,-13.34503 c 2.27342,-23.35523 4.67851,-46.70733 8.33251,-69.88797 0.195,-1.238 2.11,-0.883 2.118,0.286 0.18846,28.73461 -1.98069,57.33702 -3.06794,86.02679 l -0.16836,4.70647 c -0.60108,17.70278 -1.07217,36.08507 -12.2217,49.70674 1.559,-0.911 3.667,-0.911 4.93,0.591 1.552,1.847 2.448,3.921 2.42,5.956 10.075,-4.224 20.106,-8.558 30.088,-12.98 32.093,-14.218 63.513,-30.129 94.102,-47.345 3.292,-1.853 5.73413,1.32017 7.36213,3.76317 2.38648,17.44674 84.59026,77.58392 26.28387,106.07883 -0.235,2.087 -1.186,4.051 -2.71,5.337 2.12,1.991 3.018,5.144 1.155,8.102 -5.20387,8.25847 -14.1675,12.95738 -22.21454,18.2387 l -0.52346,0.3453 c -7.916,5.248 -15.901,10.392 -23.951,15.431 -16.365,10.246 -33.072,19.928 -50.015,29.184 -27.251,14.887 -55.087,28.93 -83.427,41.668 1.701,8.3685 1.07946,16.99759 2.35797,25.42196 l 0.19603,1.20204 c 0.54617,3.1262 -0.19159,5.74219 -2.34516,7.78475 l -0.22784,0.20925 0.004,-0.028 -0.202,0.185 -0.0675,0.0566 0.0225,-0.0176 c -0.24825,0.22725 -0.50438,0.43875 -0.76542,0.62016 l -0.33258,0.21384 v 0 c -2.07422,1.26052 -4.7447,1.246 -6.86844,0.13326 l -0.24256,-0.13326 -0.408,-0.234 c -2.806,-1.614 -4.741,-5.613 -3.577,-8.79 2.861,-7.808 3.942,-16.141 6.584,-24.001 l -2.096,0.937 v 0 l -2.76256,1.20407 C 133.33881,675.56781 100.15047,686.4476 67.5963,677.64 c -14.384,-3.893 -27.828,-12.127 -35.025,-25.548 -7.082,-13.206 -8.083,-28.54 -8.459,-43.23 -0.464,-18.131 0.508,-36.539 2.899,-54.514 1.605,-12.066 3.546,-24.36 6.54,-36.301 -1.54,-1.359 -2.672,-3.308 -2.971,-5.722 -1.413,-11.405 1.06,-23.262 2.574,-34.608 1.479,-11.078 3.113,-22.134 4.961,-33.156 3.731,-22.259 8.066,-44.471 13.113,-66.469 8.982,-39.151 20.843,-77.606 35.123,-115.142 l 1.250539,-3.26962 C 100.79731,225.37163 116.07568,191.79417 137.3503,161.654 c 10.177,-14.42 20.935,-27.494 35.315,-37.885 13.472,-9.736 28.668,-16.746 44.35,-22.104 15.699,-5.362 31.835,-8.955 48.256,-11.19 16.677,-2.27 34.28,-3.662 49.837,-10.502 -1.968,-3.528 -0.279,-8.291 3.033,-10.479 11.146,-7.364 21.453,-16.944 31.443,-25.796 z M 706.39,363.9193 c 0.467,-0.709 1.576,-0.261 1.371,0.578 -5.421,22.209 -10.51,44.463 -13.833,67.096 -5.99858,40.84969 -4.89516,82.23284 -4.40478,123.38467 l 0.0248,2.12833 c 0.252,22.166 0.602,44.334 1.335,66.491 0.37,11.198 1.102,22.506 0.704,33.71 -0.217,6.078 -1.837,11.827 -2.411,17.832 -0.503,5.251 -0.055,10.583 0.196,15.841 0.168,3.496 -4.992,3.347 -5.343,0 l -0.4488,-4.32916 c -0.58305,-5.47866 -1.3037,-10.92384 -3.0992,-16.16784 -2.159,-6.307 -3.195,-12.501 -3.944,-19.123 -1.14725,-10.14731 -1.65745,-20.39629 -2.10023,-30.61498 L 674.134,613.6773 c -1.84898,-42.70423 -1.78417,-85.60881 1.20919,-128.26832 l 0.21881,-3.04668 c 2.964,-40.324 8.107,-83.893 30.828,-118.443 z M 590.8351,109.7726 c -1.416,-0.582 -0.92,-2.723 0.648,-2.35 l 2.85155,0.6802 c 20.89458,5.00471 41.40993,10.4271 60.91245,19.7398 19.515,9.318 36.037,23.229 49.165,40.335 25.52,33.251 36.125,73.661 44.497,114.033 9.304,44.861 17.775,89.886 27.16,134.733 l 1.74277,8.35374 c 8.68402,41.7696 16.88298,83.56289 22.92423,125.82726 l 0.43397,3.06533 c 1.96381,45.16143 12.89172,94.04599 -2.71925,134.91681 -8.25144,21.60296 -107.09216,-35.29535 -106.53116,-43.81235 1.62,-24.623 75.75494,32.23609 92.60447,19.4575 11.74879,-20.79748 2.87697,-103.65529 -0.57403,-128.12229 -2.90415,-20.5903 -7.23335,-40.92429 -11.0645,-61.35092 l -0.6005,-3.22608 c -3.208,-17.3736 -6.5152,-34.72992 -9.8151,-52.08739 l -4.93137,-25.98793 C 750.14761,355.06424 742.612,316.1171 734.0971,277.4486 l -0.50531,-2.27538 C 725.25897,237.97109 712.974,199.0017 687.9791,169.4596 c -25.365,-29.981 -61.676,-45.08 -97.144,-59.687 z m -85.42508,410.74744 0.0511,0.55126 c 0.618,6.533 1.165,13.088 1.5,19.642 0.635,12.439 0.939,24.862 0.9,37.317 -0.04,12.764 -0.297,25.513 -0.985,38.258 l -0.18671,3.41507 c -0.62808,11.07564 -1.6815,23.42951 -6.94429,33.11193 -1.913,3.521 -7.116,2.486 -8.224,-1.074 -3.63,-11.656 -1.766,-25.476 -0.835,-37.414 l 0.72294,-9.31514 c 0.71587,-9.31617 1.39856,-18.63586 1.94006,-27.96286 0.742,-12.761 1.354,-25.533 1.943,-38.3 0.19133,-4.14667 0.39822,-8.29467 0.61681,-12.44133 l 0.33619,-6.21867 c -0.3709,-22.42482 7.53506,-17.77621 9.1649,0.43074 z m -414.889701,0.36977 1.606941,-1.55227 c 4.932999,-4.82748 11.16681,-12.26244 18.45934,-11.80134 2.908,0.184 4.761,2.598 4.158,5.459 -1.288,6.116 -7.527,9.29 -12.018,13.024 -4.92,4.089 -9.557,8.46 -14.185,12.873 -4.105778,3.91289 -8.054321,7.93718 -11.908137,12.08694 L 75.1926,552.5412 c -1.381415,1.50745 -11.218526,10.40514 -10.154915,12.71367 l 0.05792,0.10333 c 0.296,0.442 -0.197,1.05 -0.688,0.895 -4.248,-1.342 -3.983,-4.983 -2.377,-8.672 3.086,-7.088 8.49,-13.645 13.209,-19.698 4.70625,-6.03844 9.800098,-11.66115 15.280719,-16.99339 z M 331.6663,448.854 c 0.122,4.605 0.174,9.23 0.174,13.838 0.002,9.655 -0.517,19.329 -0.114,28.983 0.357,8.539 1.563,17.461 5.663,25.094 3.007,5.6 6.976,9.306 11.767,12.844 32.22678,-11.92719 -21.0624,-80.41983 -17.49,-80.759 z m -145.674,45.708 c -0.0847,0.13067 -0.17733,0.25511 -0.27593,0.37482 l -0.15207,0.17618 0.788,-0.32 z M 344.8918,324.6613 c 4.336,-0.881 9.255,-2.9 13.531,-1.222 2.198,0.864 3.284,3.544 1.427,5.407 -3.22417,3.23194 -7.91009,3.41205 -12.25276,4.17415 l -0.38224,0.0688 c -5.135,0.95 -10.279,1.851 -15.43,2.705 -9.691,1.605 -19.405,3.024 -29.153,4.23 -10.012,1.239 -20.052,2.342 -30.106,3.172 l -3.89222,0.31934 c -8.49278,0.67921 -17.32978,1.19153 -25.66278,-0.10934 -1.211,-0.189 -1.016,-1.952 0,-2.261 9.129,-2.763 19.143,-3.504 28.581,-4.673 10.034,-1.245 20.051,-2.56 30.042,-4.12 9.975,-1.558 19.937,-3.23 29.862,-5.078 4.486,-0.834 8.965,-1.705 13.436,-2.613 z M 382.5446,12.7157 c -0.595,-7.653 11.316,-7.59 11.906,0 1.287,16.57 -2.442,32.983 -10.468,47.51 -0.059,0.106 -0.124,0.2 -0.186,0.3 5.02,2.612 10.097,5.118 15.287,7.358 6.639,2.866 13.403,5.476 20.288,7.69 6.228,2.004 13.901,2.795 19.137,6.965 11.041,8.792 6.893,27.038 4.769,38.865 l -0.33137,1.86703 c -1.05757,6.08603 -1.82247,12.33004 0.74337,18.17097 2.74,6.239 8.281,10.867 13.224,15.331 l 0.99836,0.90522 c 4.37904,3.98924 9.38271,8.83678 12.59464,14.24478 2.932,-6.062 6.929,-11.016 11.155,-16.593 3.015,-3.98 0.869,-5.292 -1.297,-9.18 -2.085,-3.742 -3.103,-7.731 -2.451,-12 1.203,-7.884 7.504,-13.579 13.776,-17.858 7.407,-5.051 15.674,-8.793 23.331,-13.492 15.734,-9.654 31.057,-20.692 44.862,-32.951 0.381,-0.339 1.041,0.105 0.736,0.568 -10.905,16.587 -23.692,30.92 -39.407,43.086 -6.37219,4.93312 -13.06605,9.02514 -19.80475,13.3266 l -1.93735,1.2432 c -2.70568,1.75272 -6.08052,4.09523 -7.3039,7.0792 -1.231,3.001 1.394,5.267 2.807,7.753 4.48697,7.89455 2.32218,15.26048 -2.99726,21.95548 l -0.24774,0.30852 c -5.286,6.514 -9.292,12.572 -11.208,20.894 -4.11683,17.87678 1.61739,36.49784 7.61994,53.28049 l 0.23706,0.66151 c 3.247,9.046 6.698,18.026 9.519,27.217 l 0.7762,2.54095 c 2.55602,8.45667 4.64907,16.79741 1.7818,25.49105 -0.975,2.957 -5.008,3.656 -6.683,0.873 -5.909,-9.814 -7.382,-21.624 -11.086,-32.414 -3.61,-10.516 -7.755,-20.842 -11.242,-31.401 -4.49,-13.595 -7.495,-28.229 -5.864,-42.489 -0.048,-0.083 -0.101,-0.161 -0.141,-0.249 l -1.14298,-2.50012 c -3.11674,-6.76973 -6.12705,-12.68193 -11.79502,-18.07788 -5.912,-5.629 -12.329,-10.612 -16.981,-17.426 -10.10463,-14.8012 -3.85538,-31.26618 -2.63485,-47.45003 l 0.13966,-1.98455 c 0.22171,-3.360195 0.34322,-7.926798 -1.85181,-10.25242 -2.469,-2.618 -8.259,-3.286 -11.535,-4.445 -8.466,-2.996 -16.809,-6.487 -24.755,-10.679 -7.564,-3.99 -14.891,-8.398 -21.713,-13.562 l -3.45775,-2.601233 C 364.25523,56.479108 358.59807,51.983994 354.9416,46.3807 c -0.422,-0.645 0.295,-1.686 1.059,-1.377 6.104,2.477 11.681,6.417 17.392,9.845 0.089,-0.209 0.192,-0.42 0.309,-0.632 7.066,-12.788 9.972,-26.956 8.843,-41.501 z m 194.9834,87.6152 c 2.432,-6.669 13.516,-6.154 13.074,1.77 -0.3389,6.08759 -2.92352,11.58228 -5.28676,17.10963 l -0.25224,0.59237 c -2.44,5.759 -5.258,11.166 -8.63,16.444 -6.443,10.09 -13.99,19.454 -22.051,28.291 -7.308,8.012 -16.9,12.911 -27.953,12.097 -4.657,-0.343 -9.358,-1.528 -13.439,-3.854 -4.847,-2.764 -10.111,-11.063 -16.295,-9.053 -0.598,0.194 -1.156,-0.682 -0.639,-1.097 7.139,-5.749 15.242,3.165 22.077,5.313 10.299,3.235 20.868,-0.342 27.497,-8.668 6.921,-8.693 13.291,-18.426 19.108,-27.891 2.954,-4.806 5.649,-9.794 7.977,-14.935 2.349,-5.189 2.883,-10.828 4.813,-16.119 z M 560.9267,59.2885 c -0.3,-0.921 0.844,-1.797 1.653,-1.271 4.691,3.054 8.756,7.089 13.083,10.626 4.801,3.924 9.637,7.768 14.548,11.553 7.159,5.519 -1.144,15.679 -7.446,9.65 -8.624,-8.247 -18.069,-19.031 -21.838,-30.558 z M 535.1716,27.009 c 1.90575,-7.34877 13.17734,-4.318281 11.53475,2.944623 L 546.6526,30.175 c -3.11106,11.996699 1.31981,24.21008 10.7787,31.98745 l 0.3483,0.28255 c 5.984,4.789 -2.494,13.161 -8.419,8.418 -12.935,-10.352 -18.316,-27.937 -14.189,-43.854 z"
           id="ðŸ–-Ink-72"
           fill="#000000" /><path
           style="opacity:1;fill:#000000;fill-opacity:1;stroke:#000000;stroke-width:4.4224;stroke-opacity:1"
           d="m 714.77183,467.31507 c 0,0 -2.91416,4.37122 -1.4571,9.71381 1.4571,5.34258 5.82829,23.31314 8.25675,26.71296 2.42846,3.39983 16.39203,26.10584 16.39203,26.10584 0,0 0.60713,1.57849 1.4571,1.57849 0.84994,0 2.18557,0.36427 2.91412,-0.24285 0.72856,-0.60709 1.69991,-0.72851 1.94277,-2.06419 0.24285,-1.33564 0.4857,-3.64267 0.12142,-4.85688 -0.36428,-1.21421 -14.44927,-21.12753 -14.44927,-21.12753 0,0 -6.67826,-9.34954 -7.64962,-13.47791 -0.9714,-4.12833 -7.5282,-22.34174 -7.5282,-22.34174 z"
           id="path4754" /></g><path
         d="M -21.019428,9.8067697 C -16.225469,4.7472866 10.990629,-3.0785384 24.760011,-1.4196514 l 0.413099,0.05322 c 1.098823,0.138549 2.181722,0.348357 3.250484,0.633378 3.45452,0.802213 7.022911,2.016926 9.877259,4.045918 2.382967,1.659858 9.900151,4.3705349 7.684589,8.7127594 0.821526,1.547625 1.128086,3.459642 0.572893,4.983915 -0.06986,0.526493 -0.23309,1.011432 -0.441911,1.514175 1.755128,2.575283 3.144778,5.487655 4.269683,8.257707 1.965733,6.971353 3.188967,14.22634 3.368125,21.339016 0.595993,13.51319 -0.894188,29.654712 -12.73081,38.392998 -7.150503,5.537141 -18.351328,5.723199 -26.386865,-1.142266 -0.45605,-0.536592 -2.600544,-1.984656 -1.884918,-2.238602 0.213,0.22366 0.431968,0.441383 0.654915,0.655152 -0.01014,-0.02375 -0.01215,-0.0475 -0.008,-0.07324 l -0.209697,-0.188823 c -0.394882,-0.363241 -0.906456,-0.890081 -0.323785,-0.786975 0.02567,0.02973 0.05374,0.05539 0.08141,0.08512 0.123408,0.07359 0.216635,0.137413 0.289176,0.193668 l 0.03732,0.02973 -0.01152,-0.01196 c -0.335638,-0.355864 -0.536857,-0.718836 -0.03501,-0.48702 l 0.06643,0.03216 c 0.223148,0.233558 0.449882,0.457218 0.680793,0.674941 -0.0038,-0.02574 0,-0.05149 0.01412,-0.07914 L 13.77252,82.969371 c -0.210161,-0.204773 -0.178084,-0.205648 -0.07533,-0.371155 -0.446695,-0.622499 0.387175,-0.252758 0.445702,-0.0099 0.521739,-0.122713 0.979782,0.851109 1.315797,0.969869 14.730399,11.26033 36.107068,1.26894 35.760895,-30.108178 l -0.0052,-0.613909 C 51.113145,42.803057 50.264004,32.490951 46.090449,23.408737 45.684562,22.533887 45.230499,21.682778 44.73105,20.85938 44.38668,20.241839 44.018412,19.640125 43.622277,19.054248 42.513304,18.965178 41.41846,18.763289 40.339747,18.450549 39.969295,18.357519 39.603021,18.2546 39.236937,18.133864 33.88615,18.424033 28.654608,18.73973 23.288887,19.039001 l -1.67601,0.103799 c -4.545401,0.290559 -9.24621,0.755934 -12.9142405,3.55141 -3.5990408,2.545005 -3.6153628,7.563566 -6.6962458,10.357759 -4.393299,2.964822 -4.425348,5.638287 -5.27136,10.007426 0.0627,3.293581 2.35948196,8.078973 -1.855258,9.465096 0.71105,1.00806 -0.280082,0.52372 -0.358114,0.170213 -0.008,0.0017 -0.01592,0.0043 -0.0219,0.0043 0.633614,1.171157 -0.297799,0.433668 -0.380209,0.05738 -0.04976,-0.01387 -0.09953,-0.04949 -0.149297,-0.09896 0.638393,1.026072 -0.393544,0.307583 -0.332433,0.120736 -1.233585,-1.885303 -3.7724227,-2.178046 -5.5619917,-1.678459 -0.02191,0.06726 -0.10132,0.07325 -0.151086,0.03762 -7.609546,1.63967 -5.646197,17.303187 2.1518587,15.789004 0.333828,-0.0677 0.325864,0.09165 0.392153,0.106885 -0.180152,-0.470282 0.327657,-0.278884 0.322282,-0.180112 l 0.03096,-0.0017 c 0.02451,-0.0017 0.01451,-0.0052 0.03276,0.0017 -0.174182,-0.961756 0.805999,0.431682 0.728566,0.488882 0.03004,-0.01786 0.0639,-0.02774 0.09376,-0.03164 l -0.03374,-0.09129 c -0.162672,-0.430903 -0.14873,-0.251805 -0.147607,-0.498539 -0.122225,-0.305017 -0.131183,-0.171608 -0.102515,-0.370331 0.429573,-0.330943 0.556378,0.672965 0.699704,0.7464 -0.245644,-0.340443 -0.05036,-0.618538 0.181343,-0.433668 1.756325,3.673213 4.025035,7.124552 6.95701896,9.843342 0.320686,0.251371 0.645159,0.498781 0.981375,0.732349 1.24712504,1.080108 3.16010904,1.774647 4.32761004,2.731453 0,0.01586 -0.0077,0.03563 -0.01969,0.05539 l 0.02673,0.02401 v 0 l 0.02702,0.02548 0.406087,0.193972 c 0.119436,0.100947 0.226928,0.21377 0.322282,0.338467 0.101719,0.116775 0.191099,0.245434 0.266941,0.382007 0.03782,0.16626 -0.04578,0.235535 -0.205034,0.164284 -0.06987,-0.02375 -0.139343,-0.05149 -0.209013,-0.07723 0.004,0.0061 0.0058,0.0099 0.01,0.01387 0.02286,0.03432 0.177472,0.390796 -7.04e-4,0.332799 l -0.0212,-0.0078 c -0.09774,-0.03562 -0.195083,-0.07524 -0.29063,-0.112813 0.113466,0.140534 0.216776,0.292934 0.308344,0.421593 0.09774,0.100939 0.157261,0.219699 0.181347,0.354295 -0.0042,0.07524 -0.04579,0.106885 -0.121427,0.09699 -0.115456,-0.03762 -0.228925,-0.07723 -0.342587,-0.118751 l 0.03233,0.06128 c 0.08031,0.157064 0.194438,0.420493 -0.0082,0.332573 -0.173382,-0.05348 -0.340397,-0.114807 -0.507608,-0.182105 -0.01413,0.02774 -0.04181,0.03762 -0.09754,0.01188 -0.5315,-0.188035 -1.045082,-0.417641 -1.536766,-0.688801 C 2.3249917,81.278714 1.8888467,80.971919 1.4550887,80.661164 1.0468147,80.417706 0.65267266,80.146546 0.27664366,79.841727 -2.2406933,78.225019 -4.4445123,76.17128 -6.1928743,73.883982 c -2.92402,2.517892 -8.7702697,0.112424 -12.3866287,-1.85858 -3.198667,-1.761585 -4.455944,-5.018743 -4.781011,-8.530445 -0.675817,-4.727803 -4.561508,-6.346089 -4.291183,-16.719685 -0.006,0.0017 -0.01215,0.0017 -0.02011,0.0017 -0.141334,-0.04161 -0.278487,-0.09699 -0.407877,-0.168246 -0.133373,-0.06336 -0.258782,-0.138549 -0.376429,-0.229597 l -0.145314,-0.19991 v 0 c -0.07545,-0.04161 -0.143126,-0.08512 -0.194882,-0.128659 l -0.02684,0.03441 c -0.08487,0.101962 -0.02775,-0.0514 -0.02282,-0.08191 l -0.252439,-0.341354 c -0.598553,-0.812571 -1.255229,-1.724312 -1.790131,-2.453446 l -0.01683,0.02964 c -0.01208,0.02236 -0.01849,0.03849 -0.01282,0.04559 -1.273003,-1.818594 -2.470162,-4.015242 -2.802795,-6.141818 -0.392748,-1.638084 -0.239273,-3.326043 0.103311,-4.84339 1.468878,-5.313472 6.280607,-17.337425 12.59864,-22.4909639 z m 34.54677,73.4827243 -0.07977,-0.07064 0.07014,0.08738 c 0.03675,0.04516 0.07439,0.08573 0.135681,0.127142 -0.004,-0.01387 -0.004,-0.02774 -0.0021,-0.04351 -0.04065,-0.03086 -0.08222,-0.06458 -0.12386,-0.100349 z M 24.699142,1.2501906 C 15.361544,0.4519296 6.1774179,2.4973566 -2.7329953,4.9732786 l -0.614678,0.175674 c -5.066552,1.437489 -10.4239037,2.7309944 -14.7055307,5.8078064 -5.982016,4.555787 -9.07106,11.80325 -11.766757,18.49473 -2.353909,4.97165 -1.15058,10.577667 2.396705,14.049184 0.36906,-3.449752 0.998299,-6.798548 1.981664,-10.120439 0.205231,-0.518969 0.04996,-0.689 0.49228,-0.756697 0.66805,8.952056 -2.622245,15.566141 3.889076,26.17567 2.825288,5.006088 -0.4453,8.669012 7.533106,11.303281 l 0.21591,0.082 c 1.662182,0.623652 3.4773997,1.115933 5.1054157,0.767298 l -0.145856,-0.235908 c -0.148748,-0.242928 -0.193889,-0.360856 0.02243,-0.464777 -0.0058,-0.01187 -0.01374,-0.02375 -0.0219,-0.03762 -0.174975,-0.328568 -0.34418,-0.661089 -0.505618,-0.99758 -0.06549,0.02176 -0.131183,0.03762 -0.199064,0.05539 0.04399,0.08113 0.04976,0.162308 -0.07345,0.190011 -0.438654,0.149644 -0.8890997,0.209618 -1.3501997,0.181551 l -0.09897,-0.0069 c -0.520947,-0.03164 -0.849199,-0.126075 -1.142813,-0.213761 -0.09734,-0.01586 -0.194883,-0.03164 -0.290635,-0.05149 -0.944547,-0.208223 -1.944435,-0.737888 -2.591583,-1.262804 -7.376842,-4.166065 -6.614435,-18.34767 2.478318,-19.68826 0.186524,-8.929094 4.4577957,-23.99328 11.54639466,-32.501761 C 5.8286577,8.0914624 23.32103,4.6993086 35.49089,5.8954126 c 0.177364,0.05842 0.354728,0.117373 0.532092,0.176948 1.877554,0.16587 3.66692,0.9975716 5.545861,1.3839382 C 40.219802,6.4510036 38.689409,5.7814026 37.113041,5.2123496 33.972242,3.3021086 30.371606,2.2685126 26.892999,1.5395266 26.172395,1.3633676 25.441837,1.2663816 24.699137,1.2505446 Z M -12.541317,55.592297 c 0.488894,-0.264035 0.432961,-0.0091 0.54543,-0.08313 3.5166307,-0.28522 7.3085627,2.776189 9.2742997,5.328311 -0.15527,0.160332 -0.575288,-0.314708 -0.648941,-0.38992 -0.01,0.0099 -0.0219,0.01786 -0.03385,0.02176 l 0.05474,0.0768 c 0.796733,1.136857 -0.782702,-0.200916 -0.930608,-0.476644 -0.02589,0.01387 -0.05176,0.02176 -0.08162,0.01586 0.125209,0.122124 0.507609,0.440594 0.573299,0.667027 l 0.101381,0.08391 c 0.955976,0.813985 0.876633,1.426308 -0.208676,0.270407 0.02567,0.0534 0.03563,0.102923 0.01772,0.14251 l 0.03737,0.02479 c 0.533698,0.370825 0.972608,1.40456 -0.142872,0.343391 0.116054,0.775091 -1.10539,-0.723048 -1.144606,-0.71256 -2.11364,-1.649768 -5.2255787,-3.254202 -7.8768857,-3.469758 l -0.09125,-0.01049 c -0.486517,-0.06215 -0.716541,-0.205691 -0.545744,-0.522012 -0.59918,-0.141721 -0.458839,-0.435054 -0.175175,-0.425554 -0.42261,-0.276318 -0.0422,-0.540553 0.203043,-0.43743 -0.168606,-0.464153 0.507608,-0.154983 0.569318,-0.219707 0.350946,-0.538178 0.4455,-0.08926 0.503625,-0.227621 z m -7.371245,-28.769364 c 1.68904,-0.615166 6.678131,1.226389 6.279011,3.665307 -0.237678,0.559943 -1.020789,0.880797 -1.571196,0.564693 l -0.71838,-0.479738 c -1.250171,-0.83249 -2.377684,-1.562481 -3.719906,-2.288529 -0.730556,-0.36044 -1.045075,-1.125641 -0.269529,-1.461733 z m 9.609698,-3.62436 -0.652316,-0.422095 c -3.520198,-2.290783 -8.496595,-5.761867 0.32884,-2.17061 1.0058617,0.428918 2.3423637,0.682656 2.8911757,1.635111 0.862136,1.755447 -1.406771,1.873419 -2.5676997,0.957594 z m 0.3955757,-10.278395 c -0.2824687,-1.065858 3.232368,0.184871 4.255546,0.514627 l 0.155845,0.05851 c 0.995316,0.368753 2.136235,0.710843 2.73155,1.564899 0.697514,1.180068 -0.714234,1.424514 -1.588712,0.891493 -1.792954,-1.165028 -3.75869,-2.044048 -5.554229,-3.029545 z M -0.96934434,7.955081 C -2.9477433,5.8068606 2.3470147,7.864787 3.1401407,8.4360326 l 0.02265,0.016816 c 0.591812,0.4142774 0.471776,1.3065506 -0.0842,1.5686094 -1.581946,0.0299 -2.74605804,-1.2812052 -4.04792604,-2.0664029 z M 8.0334327,5.6014386 c -3.145177,-2.247512 0.9978978,-1.17849 2.4369183,-0.297694 0.98078,0.86002 -0.02945,2.3118463 -2.4369183,0.297694 z"
         id="ðŸ–-Ink-8"
         fill="#000000"
         style="stroke-width:0.198496" /><path
         d="m 53.388617,51.42592 c -2.213759,2.287419 -5.90937,2.943837 -8.854663,1.717066 -7.562622,-3.159713 -3.860987,-13.015041 1.971428,-15.661671 0.728622,-0.181602 1.70175,-0.61247 2.589187,-0.710202 0.08026,-0.03944 0.254908,0.07455 0.466606,-0.0332 6.431208,0.718047 7.895741,10.701376 3.827442,14.687996 m -24.392711,0.58549 C 26.513015,55.30459 21.896971,56.320564 18.12551,54.78966 10.674845,51.855496 13.317458,43.116257 18.415059,39.690142 29.183351,35.643894 33.630008,45.939383 28.995906,52.011399 M 12.844478,44.714624 c -0.0069,-0.0035 -0.01384,-0.0052 -0.02096,-0.0078 0.03938,-0.01725 0.07877,-0.03467 0.11797,-0.05227 -0.01275,0.03337 -0.02663,0.0664 -0.03902,0.09973 -0.01934,-0.01335 -0.03628,-0.02878 -0.05798,-0.03918 m 45.670003,-3.559757 c -0.607912,0.0017 -1.486056,0.101198 -1.989302,0.522939 -1.240986,-4.185187 -5.821658,-8.058578 -9.805358,-5.234169 -3.137115,1.008858 -5.465014,3.246332 -6.788051,6.220975 -2.385524,-1.418948 -6.136557,-0.813048 -8.205171,1.063388 -1.35477,-4.476561 -4.688987,-6.044113 -8.657562,-6.275505 -4.3316,-0.709466 -8.648981,3.497235 -9.996088,6.871931 -1.120096,-0.127454 -2.793771,-0.483924 -3.8474961,0.207312 -6.8389212,-1.793465 -18.7956822,-2.782274 -20.1860029,-1.785803 -0.990818,0.380169 -1.534547,2.718833 -0.150608,2.845005 1.2059777,-0.171219 -0.140766,-1.713608 1.074877,-1.881906 6.4771617,-0.401501 12.7650587,0.902935 19.1736638,1.450318 0.5721742,0.769647 2.4208912,1.027104 3.4071512,0.717856 -1.553327,5.724655 1.799853,9.619378 6.824153,10.785984 7.779788,1.787078 14.548328,-5.172366 12.513988,-12.411152 2.356711,-1.172431 5.067518,-1.122105 7.634818,-0.504528 -4.290018,15.788578 21.13817,15.080196 17.166683,-1.528711 2.64298,1.314646 3.216974,-0.798642 1.830305,-1.063943"
         id="ðŸ–-Ink-7"
         fill="#000000"
         style="fill-rule:evenodd;stroke:none;stroke-width:0.182337" /><path
         d="m 36.499586,70.049804 c -1.598245,0.439952 -3.313777,0.479296 -4.942916,0.02496 -1.477665,-0.412154 -2.994899,-1.319146 -4.082428,-2.519314 -0.966098,-1.066162 -1.591787,-2.361817 -1.567205,-3.744828 0.0026,-0.157948 0.06224,-0.289796 0.153631,-0.392131 0.09841,-0.11017 0.235865,-0.185815 0.383099,-0.218649 0.151438,-0.03372 0.311518,-0.02176 0.44784,0.03701 0.123397,0.05331 0.22912,0.143758 0.295231,0.276014 0.167136,0.208673 0.333622,0.414243 0.500758,0.614118 1.343832,1.577087 2.645234,2.755672 4.665957,3.178401 1.096386,0.229407 2.191395,0.12768 3.196109,-0.222325 1.075497,-0.374665 2.047707,-1.033414 2.809553,-1.876392 0.3443,-0.380975 0.750777,-0.53647 1.148238,-0.539088 0.450415,-0.0035 0.895619,0.195957 1.23101,0.513881 0.329669,0.312516 0.550425,0.737186 0.570431,1.18142 0.01751,0.389894 -0.116281,0.797168 -0.472301,1.160513 -1.172717,1.196883 -2.692552,2.07371 -4.337007,2.526386 z m -0.04941,-19.752299 c 1.638343,0.946474 4.134661,3.153455 2.372192,5.499868 -2.074603,2.068908 -5.061555,-0.30324 -6.533473,-1.376068 -1.364825,-0.83145 -2.898295,1.306976 -1.631999,2.277833 10.636106,7.484099 14.952466,-6.154145 6.62193,-7.514446 -0.917211,-0.149904 -1.257871,0.820009 -0.82865,1.112813 z M 21.1244,46.132861 c -0.526572,-0.320056 -1.14599,-0.429914 -1.832486,-0.133079 -0.536466,0.23186 -1.477374,1.004818 -2.13218,2.020905 -0.447977,0.695146 -0.765641,1.510647 -0.699508,2.360083 0.01536,0.197274 -0.06133,0.342723 -0.182314,0.450275 -0.09554,0.08495 -0.23355,0.147356 -0.39565,0.166868 -0.137625,0.01655 -0.291667,0.0017 -0.416918,-0.03554 -0.238263,-0.07064 -0.364362,-0.217575 -0.411877,-0.337488 -0.458477,-1.157219 -0.26096,-2.4486 0.252879,-3.613655 0.693456,-1.572311 1.952792,-2.889315 2.777871,-3.313934 1.411885,-0.726862 3.077509,-0.76032 4.491412,-0.01985 1.203587,0.630249 1.95616,1.647757 2.704651,2.684941 0.15911,0.220488 0.317032,0.439346 0.480242,0.654364 0.327095,0.430841 0.359661,0.858156 0.232987,1.224568 -0.140335,0.405922 -0.498141,0.748498 -0.945578,0.927778 -0.413553,0.165707 -0.89353,0.189033 -1.318256,0.01881 -0.358793,-0.143828 -0.688067,-0.424193 -0.896419,-0.899918 -0.350899,-0.801173 -0.935532,-1.68509 -1.708856,-2.155128 z m 26.743554,1.782458 c -0.360622,0.178586 -0.642756,0.232432 -1.04281,0.118517 -0.221224,-0.06319 -0.439865,-0.184186 -0.611049,-0.346875 -0.169641,-0.161242 -0.29205,-0.36175 -0.33962,-0.584187 -0.117027,-0.548978 -0.433061,-1.062851 -0.883423,-1.397842 -0.384928,-0.28633 -0.870812,-0.438089 -1.409726,-0.352475 -0.581543,0.09227 -1.135601,0.446739 -1.5172,0.864657 -0.127541,0.139841 -0.227517,0.298664 -0.328022,0.456413 -0.188017,0.295014 -0.370773,0.569226 -0.630076,0.785882 -0.09829,0.08243 -0.246404,0.13952 -0.38986,0.13952 -0.05833,0 -0.117468,-0.009 -0.173853,-0.02574 -0.578822,-0.55215 -0.690145,-0.971005 -0.671474,-1.386452 0.01959,-0.435662 0.200291,-0.876766 0.492333,-1.288322 0.685082,-0.965431 1.985799,-1.756982 2.863536,-1.936271 1.202041,-0.245512 2.395821,0.04923 3.352948,0.687293 0.984822,0.656547 1.71457,1.675902 1.942079,2.824669 0.05469,0.276674 0.03146,0.575303 -0.0794,0.834233 -0.108324,0.253018 -0.297104,0.469718 -0.574384,0.606949 z M 23.775526,35.83986 c -0.721377,0.667989 -1.575191,0.771459 -2.438962,0.863487 -0.479934,0.05166 -0.863062,0.09322 -1.24008,0.17407 -1.036269,0.222325 -2.060584,0.557161 -2.995106,1.039386 -0.97689,0.504113 -2.041479,1.112068 -2.80737,1.890912 -0.182121,0.185338 -0.353799,0.379805 -0.525716,0.574704 -0.156765,0.177728 -0.307777,0.348817 -0.46693,0.513786 -0.182777,0.189491 -0.356342,0.388083 -0.528984,0.586163 -0.106756,0.167136 -0.127844,0.20824 -0.149344,0.251034 -0.03233,0.06432 -0.06998,0.136269 -0.112958,0.213466 -0.05886,0.105732 -0.127812,0.221467 -0.200018,0.326402 -0.12014,0.191796 -0.184605,0.244627 -0.240309,0.268265 -0.09243,0.03909 -0.180093,0.05842 -0.265133,0.04793 -0.07974,-0.0098 -0.154863,-0.0462 -0.229048,-0.105775 -0.370361,-0.297399 -0.479589,-0.785467 -0.468395,-1.303552 0.01698,-0.786203 0.322095,-1.656659 0.603356,-2.191751 0.653993,-1.243326 1.560989,-2.535843 2.6516,-3.463794 1.244482,-1.059245 2.605989,-1.861154 4.16982,-2.413712 0.97183,-0.343512 2.097035,-0.658818 3.155808,-0.618989 0.762101,0.02869 1.489635,0.243969 2.090466,0.781652 0.368945,0.330069 0.546046,0.799552 0.546046,1.268707 0,0.478498 -0.183941,0.959823 -0.548743,1.297579 z m 25.559597,6.116924 c -0.04585,0.07143 -0.109373,0.120702 -0.180026,0.150286 -0.07402,0.03094 -0.156751,0.03996 -0.236098,0.02722 -0.07896,-0.01265 -0.154091,-0.04672 -0.213657,-0.0987 -0.05703,-0.04984 -0.100557,-0.115969 -0.12,-0.196971 -0.47894,-1.999218 -1.408919,-3.486669 -3.393835,-4.445868 -0.976422,-0.471859 -2.099194,-0.771667 -3.162096,-1.010695 -0.308875,-0.06943 -0.635242,-0.114478 -0.963914,-0.160089 -1.030094,-0.142944 -2.0676,-0.306656 -2.739134,-1.097999 -0.404639,-0.476678 -0.574453,-1.086306 -0.478438,-1.643831 0.09041,-0.524941 0.413159,-1.006274 0.999869,-1.294727 1.460676,-0.71777 3.275838,-0.01344 4.750877,0.586545 0.109416,0.04447 0.216821,0.0882 0.32192,0.130349 1.442473,0.578683 2.75809,1.34254 3.839551,2.43494 0.858087,0.866633 1.653114,2.147795 1.973309,3.465761 0.266393,1.0965 0.203758,2.215874 -0.398328,3.153776 z"
         id="ðŸ–-Ink"
         fill="#000000"
         style="fill-rule:evenodd;stroke:none;stroke-width:0.211511" /><path
         d="m 38.074662,73.254009 c -1.810906,-1.570525 -3.840756,-4.72788 -6.442294,-2.22963 -0.643433,0.705851 -0.904001,2.288313 -1.887912,2.598748 -1.30669,0.412647 -2.601721,-0.933195 -3.047012,-1.966713 -1.821981,-5.742468 5.709807,-7.317544 10.000509,-6.389836 2.09616,0.837986 3.640092,4.211113 3.733429,5.971502 0.06024,1.183049 -0.968352,2.922626 -2.35672,2.015929 m 13.661994,-8.85116 c -0.01768,-0.07628 -0.04239,-0.14518 -0.07212,-0.207841 -0.80093,-0.29472 -1.434637,0.0061 -1.826265,0.567302 0.01283,0.139502 0.05565,0.280903 0.08261,0.419279 -0.302183,0.619726 -0.574791,1.386538 -0.98431,1.922038 -0.08087,0.0061 -0.164692,-0.0017 -0.2452,-0.02496 -6.788799,0.690149 -3.474414,-6.224403 -10.36005,-7.941824 -5.322651,-0.854828 -14.942825,0.124368 -17.453742,5.517403 -1.980273,8.614178 -12.0494234,2.611819 -15.3554443,-1.868088 -3.527511,-4.077098 -5.80838704,-9.059193 -8.007613,-13.893637 -0.464732,-1.023108 -1.915129,-0.291504 -1.757428,0.690144 -2.032773,3.969589 -1.965099,8.737775 -2.468534,13.08651 -0.856349,8.676067 -1.690733,20.843198 6.59026896,26.140834 C 10.668222,100.68166 37.610691,104.87101 50.05505,93.963028 54.362872,84.947184 53.831828,73.948159 51.736647,64.402875"
         id="ðŸ–-Ink-5"
         fill="#000000"
         style="fill-rule:evenodd;stroke:none;stroke-width:0.191852" /></g><g
       id="Book_and_hands"><path
         style="fill:#ffffff;fill-opacity:1;stroke:none;stroke-width:0.0298778;stroke-opacity:1"
         d="m 47.001217,59.019483 c -0.678495,-0.0051 -1.09628,-0.01917 -1.09628,-0.03698 0,-0.07058 0.145057,-0.123912 0.281401,-0.103466 0.414066,0.06209 0.785609,-0.199063 0.945031,-0.664255 0.03247,-0.09475 0.09114,-0.201102 0.130369,-0.236344 0.03923,-0.03524 0.202664,-0.114968 0.363182,-0.177161 0.167395,-0.06486 0.335222,-0.152829 0.393556,-0.20629 0.101936,-0.09342 0.10783,-0.110572 0.173141,-0.503845 0.05687,-0.34246 -0.345283,-0.577323 -1.742825,-1.017818 -0.340138,-0.107209 -0.935959,-0.304362 -1.324051,-0.438118 l -0.705617,-0.243195 0.08986,-0.182235 0.08986,-0.182232 0.914064,0.310079 c 1.866883,0.633309 2.080092,0.720702 2.409656,0.987693 0.200614,0.162525 0.39454,0.42838 0.474182,0.650058 0.113542,0.316043 0.24726,0.567058 0.335577,0.629943 0.126795,0.09029 0.304341,0.08598 0.41859,-0.01014 0.315031,-0.265082 0.368853,-1.338855 0.10629,-2.120603 -0.04177,-0.124362 -0.07068,-0.23137 -0.06425,-0.2378 0.0064,-0.0064 0.0709,0.109113 0.14327,0.256757 0.119342,0.243474 0.141889,0.271534 0.24238,0.301642 0.09443,0.02829 0.128872,0.02425 0.233117,-0.02732 l 0.122317,-0.06052 -0.02029,0.06386 c -0.03822,0.120376 -0.02045,0.449365 0.03083,0.570983 0.186599,0.442523 0.594975,0.514804 1.538688,0.27235 0.603559,-0.155064 2.121498,-0.502511 2.135259,-0.48875 0.04707,0.04707 -0.125274,0.108635 -0.61784,0.220731 -0.317762,0.07232 -0.852939,0.197398 -1.18928,0.277959 -0.336342,0.08056 -0.69701,0.161629 -0.801483,0.180147 -0.153461,0.0272 -0.247094,0.07123 -0.487389,0.229168 -0.559478,0.367732 -1.022127,0.791795 -1.16563,1.068411 -0.08517,0.164185 -0.08675,0.400417 -0.0034,0.512315 0.175138,0.235178 0.397554,0.249955 1.115535,0.07412 0.833092,-0.204029 2.334714,-0.484054 2.375735,-0.443033 0.0086,0.0086 0.0019,0.04106 -0.01478,0.07223 -0.02449,0.04577 -0.100982,0.0669 -0.397675,0.109888 -0.867302,0.125655 -1.963069,0.360806 -2.102726,0.451244 -0.03567,0.02311 -0.07349,0.0692 -0.08405,0.102452 -0.02124,0.06694 0.224457,0.06406 -3.244349,0.03809 z"
         id="path3755" /><path
         d="m 55.569394,50.963297 c -1.242887,0.290199 -1.528075,0.191058 -2.704836,0.751383 -0.481468,0.229612 -0.828239,0.397045 -0.95596,0.942373 -0.06457,0.278477 -0.004,0.357395 0.03032,0.638668 0.04197,0.438315 -0.02409,0.502102 -0.358832,0.731542 -0.43411,0.195888 -0.662915,0.415492 -1.030294,0.657948 -0.335735,0.221718 -0.362219,0.274536 -0.564402,0.47491 -0.01291,-0.04377 -0.107445,0.642193 -0.405122,0.47682 C 49.19689,54.923449 48.91118,54.006444 48.300249,53.539279 48.20268,53.435675 48.16573,53.4182 47.933198,53.156645 47.442272,52.668333 47.05294,52.53027 46.476736,52.439084 c -0.719738,-0.05777 -1.12543,-0.03707 -1.843755,0.32815 -0.261828,-0.0057 -0.523084,-0.0022 -0.781327,0.0093 -0.04448,0.0014 -0.04233,0.06178 0,0.06674 0.209522,0.02662 0.419043,0.05596 0.628563,0.0904 0.497972,0.07972 0.994507,0.18082 1.480208,0.306389 0.582712,0.150755 1.185444,0.302083 1.730055,0.565419 1.056143,0.511676 1.709892,1.849165 1.575712,3.012939 -0.02224,0.190865 -0.09615,0.767765 -0.360993,0.70821 -0.2238,-0.05023 -0.312774,-0.517345 -0.390986,-0.690271 -0.209521,-0.459224 -0.586945,-0.759155 -1.039712,-0.962218 -0.531695,-0.23894 -1.100702,-0.400385 -1.651844,-0.588309 -0.312056,-0.106913 -0.624185,-0.213898 -0.93703,-0.320093 -0.320021,-0.109712 -0.624259,-0.261184 -0.965089,-0.184407 -0.205932,0.04664 -0.22961,0.292037 -0.114087,0.432747 0.175794,0.214472 0.43698,0.277614 0.690271,0.365872 0.334372,0.116241 0.668027,0.232554 1.001681,0.348723 0.515838,0.179384 1.754939,0.51799 2.22622,0.777106 l 0.242683,0.170346 c 0.177877,0.149359 0.213502,0.496711 0.236024,0.561487 0.118991,0.435144 0.180444,0.623247 -0.256008,0.990682 -0.42647,0.281432 -0.814378,0.525754 -1.234785,0.417334 0.02235,0.128903 -0.28617,-0.343199 -0.548935,-0.526659 -0.361126,-0.453192 -2.27679,-1.611058 -2.471242,-1.089336 -0.0065,0.01858 -0.08934,0.09395 -0.07348,0.09115 0.165749,-0.03451 0.546333,0.186458 0.679007,0.276151 0.19158,0.129229 0.386033,0.255443 0.575536,0.388187 0.207369,0.145015 0.409713,0.297132 0.607035,0.454202 0.154988,0.123488 0.271949,0.251855 0.449826,0.314353 -0.09321,0.04441 -0.167184,0.126932 -0.198686,0.23241 -0.08037,0.274817 -0.235354,0.508017 -0.504428,0.629352 -0.281994,0.126215 -0.599862,0.04657 -0.896924,0.07749 -0.404691,0.04083 -0.757719,0.2332 -1.052622,0.508016 -0.61924,0.578263 -0.929931,1.597239 -1.795997,1.870548 -0.517345,0.162953 -1.091376,0.06027 -1.615178,-0.01363 -0.584792,-0.08252 -1.154516,-0.147813 -1.743615,-0.0617 -0.563983,0.08258 -1.097115,0.277687 -1.612307,0.515912 -0.482901,0.223152 -1.016749,0.475798 -1.44512,0.808663 -0.08825,-0.271947 -0.177231,-0.541021 -0.244752,-0.818708 -0.15922,-0.656478 -0.245326,-1.325294 -0.266205,-1.999779 -0.01931,-0.642124 0.01657,-1.28719 0.07175,-1.926588 0.02734,-0.319304 0.07039,-0.637173 0.09766,-0.956478 0.0071,-0.08036 0.02154,-0.166468 0.03229,-0.252501 0.764895,-0.451402 1.568466,-0.797184 2.378563,-1.153083 0.0022,-7.05e-4 0.0044,-0.0023 0.0066,-0.0029 0.02511,-0.01155 0.157548,-0.0814 0.182671,-0.09217 0.379903,-0.226623 0.03339,-0.0029 0.0743,-0.03785 0.09257,-0.05661 0.319204,-0.196336 0.383673,-0.242419 1.167429,-0.774223 1.77028,-1.712753 2.497862,-2.945554 0.304954,-0.516627 0.598428,-1.052627 0.997377,-1.505321 0.424784,-0.482975 0.929213,-0.769989 1.553469,-0.919237 0.729735,-0.175008 1.481716,-0.27984 2.229393,-0.339396 0.408279,-0.03222 0.864559,-0.08251 1.309504,-0.08029 0,0 0.01672,0.01943 0.219862,-0.12698 0.359488,-0.48649 1.003458,-1.842732 1.077436,-1.963278 0.340113,-0.558244 0.663723,-1.133637 0.972981,-1.709892 0.3343,-0.624257 0.62067,-1.274346 0.940691,-1.905779 0.181537,-0.35798 0.364509,-0.718972 0.566137,-1.066261 0.0696,-0.119111 0.144225,-0.238222 0.228894,-0.346569 0.0165,-0.02145 0.03731,-0.03939 0.05668,-0.05955 0.02224,-0.0122 0.0452,-0.02583 0.05812,-0.03293 0.11617,-0.06673 0.157141,-0.221719 0.238869,-0.320093 0.130663,-0.158505 0.284216,-0.17716 0.480822,-0.179385 0.418969,-0.0043 0.839518,0.0122 1.257843,0.02368 0.614929,0.01722 1.229141,0.04161 1.843352,0.07391 0.185842,0.01004 0.370967,0.02009 0.55681,0.03157 0.893334,0.05317 1.78595,0.122699 2.676414,0.208158 0.787856,0.07527 1.575712,0.198041 2.364286,0.256878 -1.067696,2.536494 -2.299093,5.280189 -3.639525,7.683939 -0.231103,0.415922 0.0074,0.214485 -0.699803,0.347361 z m 2.144363,1.644 c -0.0122,0.0013 -0.02368,0.0078 -0.02942,0.02002 -0.238222,0.491513 -0.138557,1.040428 0.250421,1.425747 0.20378,0.20091 0.647936,0.427652 0.633513,0.757719 -0.0122,0.266924 -0.302729,0.490795 -0.426863,0.711079 -0.115522,0.205216 -0.158575,0.430523 -0.06601,0.653031 0.118393,0.28479 0.449178,0.398161 0.562549,0.678073 0.143507,0.35511 -0.0897,0.783551 -0.253291,1.092737 -0.12793,1.095156 0.254812,1.760752 -2.924572,2.153063 -0.247245,-0.0025 -0.220225,-0.0026 -0.653137,0.04342 -0.291249,0.05661 -0.583286,0.110429 -0.876113,0.160728 -0.561832,0.09752 -1.125027,0.187923 -1.689728,0.26757 -0.321458,0.0452 -0.643632,0.0897 -0.965806,0.124852 -0.281275,0.03014 -0.598426,0.07103 -0.825167,-0.140566 -0.457072,-0.427724 -0.316926,-1.13927 -0.02776,-1.571228 0.0057,-0.0085 0.121754,-0.02178 0.119602,-0.02895 0.272665,-0.06386 0.544611,-0.138486 0.815841,-0.190866 0.521649,-0.100459 1.046886,-0.185052 1.572841,-0.260393 1.080611,-0.154343 2.168398,-0.256233 3.254677,-0.358769 0.269077,-0.0259 0.271947,-0.449178 0,-0.424065 -1.560643,0.14279 -3.129108,0.278333 -4.668943,0.579052 -0.386035,0.07456 -0.769272,0.159222 -1.150212,0.254655 -0.180102,0.04456 -0.37312,0.11416 -0.561832,0.116313 -0.01148,0 -0.02303,0 -0.03444,-7.86e-4 -0.369532,-0.01141 -0.423347,-0.327843 -0.220284,-0.59118 0.02511,-0.03236 0.05094,-0.06465 0.0775,-0.09544 0.358769,-0.427725 0.805723,-0.713304 1.266382,-1.00893 0.515981,-0.07031 1.030455,-0.226742 1.535601,-0.341548 1.247081,-0.284144 2.49416,-0.568289 3.741958,-0.851716 0.244608,-0.05597 0.140637,-0.431957 -0.104044,-0.376707 -0.947149,0.214615 -1.894298,0.429087 -2.841518,0.643631 l -1.386211,0.314353 c -0.27697,0.06235 -0.622894,0.187923 -0.948657,0.233199 -0.160656,0.02217 -0.316362,0.02504 -0.456999,-0.0079 -0.454201,-0.107631 -0.477162,-0.675275 -0.281274,-1.012518 0.219566,-0.378787 0.634302,-0.615647 1.002399,-0.83019 0.637891,-0.372402 1.316681,-0.640043 1.979686,-0.948584 l 0.353028,-0.0775 c 0.684531,-0.150683 1.466646,-0.224588 2.110995,-0.500769 0.193018,-0.08188 0.08747,-0.386106 -0.103325,-0.381801 -0.500125,0.01083 -1.023209,0.188712 -1.511852,0.29419 -0.528825,0.114806 -1.058368,0.228895 -1.587193,0.342982 -0.05309,0.01148 -0.367378,0.111936 -0.414736,0.0897 -0.03014,-0.01435 -0.0409,-0.119039 -0.05094,-0.187995 -0.03236,-0.226741 -0.05597,-0.464893 -0.02081,-0.692423 0.07749,-0.510169 0.502993,-0.749827 0.933515,-0.945714 0.95863,-0.435546 2.009823,-0.708138 3.055992,-0.817276 0.241093,-0.02511 0.482185,-0.04082 0.724713,-0.04879 0.28479,-0.0086 0.519496,-0.05883 0.663722,0.22172 0.226742,0.442002 1.131837,1.258291 0.652589,1.432475 z"
         style="fill:#ffffff;fill-opacity:1;stroke:#000000;stroke-width:0.571;stroke-miterlimit:4;stroke-dasharray:none;stroke-opacity:1"
         id="path1415" /><path
         style="fill:#ffffff;fill-opacity:1;stroke:#000000;stroke-width:0.565;stroke-dasharray:none;stroke-opacity:1"
         d="m 45.48056,52.459431 -0.362263,0.62715 z"
         id="path1484" /><path
         style="fill:#ffffff;fill-opacity:1;stroke:#000000;stroke-width:0.572;stroke-dasharray:none;stroke-opacity:1"
         d="m 46.449347,50.047869 c 0,0 1.371081,0.423683 1.707812,0.745771 0.343056,0.328139 0.678651,1.193231 0.842719,1.498997 0.169438,0.31577 0.751207,1.317457 0.857634,1.692895 0.101372,0.357603 0.313224,0.656277 0.126781,1.185771"
         id="path1486" /><path
         style="fill:#ffffff;fill-opacity:1;stroke:#000000;stroke-width:0.572;stroke-dasharray:none;stroke-opacity:1"
         d="M 44.549851,54.794154 44.213864,55.44517"
         id="path1488" /><path
         style="fill:#ffffff;fill-opacity:1;stroke:#000000;stroke-width:0.271621;stroke-opacity:1"
         d="m 55.116906,52.851963 -0.268478,0.566785"
         id="path3015" /><path
         style="fill:#ffffff;fill-opacity:1;stroke:#000000;stroke-width:0.271621;stroke-opacity:1"
         d="m 53.907813,55.912552 -0.198806,0.396406"
         id="path3017" /><path
         style="fill:#ffffff;fill-opacity:1;stroke:#000000;stroke-width:0.271621;stroke-opacity:1"
         d="m 53.183139,57.988384 -0.274217,0.506245"
         id="path3747" /><path
         style="fill:#ffffff;fill-opacity:1;stroke:#000000;stroke-width:0.572;stroke-dasharray:none;stroke-opacity:1"
         d="m 45.636459,59.146254 4.653602,0.05967"
         id="path3749" /><path
         style="fill:#ffffff;fill-opacity:1;stroke:none;stroke-width:0.0298778;stroke-opacity:1"
         d="m 49.080959,55.040797 c -0.171005,-0.383955 -0.624104,-0.924529 -0.975807,-1.1642 -0.41034,-0.279627 -1.034005,-0.510723 -2.113763,-0.783239 l -0.614572,-0.15511 0.08344,-0.147552 c 0.04589,-0.08115 0.11438,-0.164133 0.152195,-0.184399 0.04286,-0.02297 0.192348,-0.03662 0.396897,-0.03625 0.563655,0.0011 1.023358,0.113864 1.368082,0.335788 0.251382,0.161834 1.11014,1.007257 1.269744,1.250031 0.158215,0.240656 0.516464,0.941796 0.502549,0.983544 -0.0059,0.01755 -0.03679,-0.02682 -0.06876,-0.09862 z"
         id="path3753" /><path
         style="fill:#ffffff;fill-opacity:1;stroke:none;stroke-width:0.0298778;stroke-opacity:1"
         d="m 45.949682,58.596123 c -0.03281,-0.01337 -0.214035,-0.146963 -0.402714,-0.296874 -0.188681,-0.149914 -0.554437,-0.416668 -0.812794,-0.59279 -0.258354,-0.176122 -0.457609,-0.324279 -0.442786,-0.329236 0.04613,-0.01543 0.408431,0.161792 0.772597,0.377927 0.392995,0.233244 0.769826,0.507371 0.941327,0.684765 0.144084,0.149038 0.116546,0.226364 -0.05563,0.156208 z"
         id="path3757" /><path
         style="fill:#ffffff;fill-opacity:1;stroke:none;stroke-width:0.0298778;stroke-opacity:1"
         d="m 50.094746,55.309706 c 0.01109,-0.03921 0.08307,-0.129042 0.159946,-0.199637 0.187501,-0.172177 1.012979,-0.745912 1.273345,-0.885019 0.269907,-0.144202 0.442206,-0.285913 0.502747,-0.413496 0.05704,-0.120202 0.01204,-0.106746 1.257269,-0.375956 0.459393,-0.09932 0.992991,-0.219066 1.185772,-0.266102 0.192782,-0.04704 0.350512,-0.08014 0.350512,-0.07356 0,0.0066 -0.02576,0.06246 -0.05725,0.124172 -0.05662,0.110984 -0.06044,0.112793 -0.350511,0.165893 -1.246761,0.22823 -1.262704,0.232802 -2.044362,0.586435 -1.136126,0.513997 -1.796706,0.896615 -2.122086,1.229144 -0.130657,0.133528 -0.170395,0.161179 -0.155387,0.108125 z"
         id="path3759" /></g></g><rect
     style="fill:#ffffff;fill-opacity:1;stroke:#000000;stroke-width:0.79375;stroke-dasharray:none"
     id="rect361"
     width="27.26474"
     height="12.749458"
     x="12.825963"
     y="59.718689"
     ry="1.2837111"
     rx="1.1513656" /><text
     xml:space="preserve"
     style="font-weight:bold;font-size:4.23333px;font-family:'Ink Free';-inkscape-font-specification:'Ink Free Bold';fill:#000000;fill-opacity:1;stroke:#000000;stroke-width:0.264583;stroke-dasharray:none"
     x="22.834604"
     y="67.515816"
     id="text1802"><tspan
       sodipodi:role="line"
       id="tspan1800"
       style="font-size:4.23333px;fill:#000000;fill-opacity:1;stroke-width:0.264583;stroke-dasharray:none"
       x="22.834604"
       y="67.515816">Paul</tspan></text></svg>
