<?xml version="1.0" encoding="UTF-8"?>
<!-- Created with Inkscape (http://www.inkscape.org/) -->
<svg width="300" height="300" version="1.1" viewBox="0 0 79.376 79.375" xml:space="preserve" xmlns="http://www.w3.org/2000/svg"><defs><clipPath id="clipPath6228"><circle cx="-35.024" cy="42.04" r="37.042" fill-opacity="0" stroke="#000" stroke-width=".52917"/></clipPath></defs><circle cx="39.688" cy="39.688" r="37.042" fill="#62ffb2" fill-opacity=".99444" stroke="#000" stroke-width=".52917"/><g transform="translate(74.712 -2.508)" clip-path="url(#clipPath6228)"><g id="body/mono/Polo-and-Sweater" transform="matrix(-.062238 0 0 .062238 -8.2417 34.013)" fill-rule="evenodd"><path d="m96.774 708.91c61.232 1.714 119.07 3.605 180.19 0 97.796-6.049 384.79 4.855 447.88 0 4.7607-0.36638 21.133 4.855 21.474 0 2.773-33.807 4.571-375.84-3.668-399.38-8.239-23.535-48.907-136.67-100.73-189.42-14.449-14.252-36.437-19.773-48.583-36.243-10.472-17.96-9.6589-28.5-20.001-37.949-4.488-4.1004-15.072-5.7627-22.937-11.454-7.908-7.859-0.4206-25.159-3.6666-36.103-6.69-27.326-31.337-44.857-58.276-48.988-37.442-8.9592-76.97-0.48844-94.904 28.922-6.6758 10.948-3.123 24.254-11.334 41.797 0.586 13.257-14.891 16.46-24.142 21.713l-18.372 18.567c-56.6 31.846-123.18 49.043-172.78 91.829-42.164 42.773-84.102 92.211-102.81 150.08-3.873 15.769-5.137 32.067-6.742 48.18-4.582 47.088-17.341 92.791-28.321 138.66-12.52 57.789-24.191 119.13-7.3167 177.47 4.865 12.347 63.959 41.744 75.034 42.321z" fill="#fff"/><path d="m390.31-16.995c0.49-1.601 2.601-1.151 2.761 0.37 1.59 15.08-0.41 30.84-2.33 45.82-0.92 7.23-1.451 14.75-2.851 21.879-0.18 0.761-0.35 1.53-0.51 2.291 0.46 0.819 1.821 1.739 2.47 2.369l2.823 2.7447 5.657 5.4763c11.071 10.72 22.14 21.449 33.21 32.17l16.25 15.75c5.571 5.399 11.901 10.57 16.79 16.59 2.651 3.269 3.25 7.279 0.64 10.779-1.29 1.73-3.609 2.99-5.96 3.25 0.92 1.28 1.63 2.73 2.08 4.341 0.92 3.28-2.399 7.309-5.929 5.939-4.01-1.54-7.321-4.3-11.401-5.62-4.12-1.34-8.599-1.599-12.87-0.88-1.96 0.33-3.88 0.821-5.75 1.441 20.011 9.21 41.66 14.5 63.74 15.259 4.5 0.151 8.991 0.09 13.46-0.209 7.521-0.491 14.99-1.63 22.33-3.47 5.771-1.45 11.481-3.271 17.021-5.471 2.72-1.08 5.409-2.269 8.01-3.619l0.2277-0.13476c0.58797-0.36748 11.453-6.5293 11.642-7.4552s0.18948-1.2486-0.16404-2.0546c-0.23568-0.5374-0.68043-0.99133-1.3342-1.3618-3.357-1.4348-6.8348-2.7703-10.502-2.7946-8.441-0.05-17.651 6.191-24.63 10.441-7.67 4.67-14.721 10.129-22.101 15.19-0.17 0.119-0.359 0.17-0.54 0.17-0.779 0-1.5-0.961-1-1.711 5.2894-7.7878 12.428-14.272 19.896-19.934l3.0092-2.2557c6.8396-5.1006 14.84-10.75 23.156-11.981 10.189-1.5 20.83 4.851 29.92 8.57l16.099 6.59c2.87 1.17 5.991 2.17 8.88 3.5l-6.7465-21.109c-3.3709-10.556-6.7331-21.114-10.062-31.68l-0.64604-2.07c-3.3165-10.725-6.3613-21.882-11.885-31.68-1.32-2.35-2.83-4.56-4.32-6.791-1.55-2.309-2.13-4.859-4.079-6.92-3.86-4.09-9.391-6.49-14.671-8.059-1.29-0.38-0.909-2.08 0.301-2.21 5.4184-0.57097 10.585 0.69272 15.481 2.9781l2.0351 0.97062c4.6302 2.1907 9.1446 4.2282 12.583 8.1603 7.8393 8.9801 11.91 20.287 15.651 31.445l1.0004 2.9958c1.399-0.46 10.909 2.44 12.099 3.129 35.651 15.071 63.111 43.13 83.191 76.01 22 36.03 33.979 77.2 43.869 117.94 3.052 12.573 5.971 25.185 8.775 37.825-12.493 4.807-25.771 7.322-37.466 14.094-4.455 2.579-0.431 9.495 4.037 6.908 10.954-6.342 23.431-8.685 35.156-13.139 6.357 29.263 12.012 58.686 16.748 88.232 14.551 90.68 23.74 182.84 23.16 274.76-0.01 2.031-0.609 4.3-1.72 6.25 0.651-0.319 1.161-0.7 1.451-1.159 3.689-5.791 12.939-0.42 9.229 5.4l-0.54181 0.84345c-2.784 4.2923-5.383 7.5719-10.277 9.9956-4.931 2.441-10.271 2.851-15.71 2.991-18.49 0.487-36.993 0.804-55.502 1.032-2.538-19.798-3.57-39.785-7.067-59.467-0.899-5.061-8.61-2.916-7.714 2.127 3.377 19.006 4.458 38.3 6.815 57.436-39.57 0.426-79.162 0.431-118.7 0.542-53.585 0.1575-107.16 0.0463-160.75 0.016l-22.964-7e-3c-61.9 0-123.8-0.2-185.7-0.61l-14.721-0.104c-5.856-34.521-9.842-69.337-9.916-104.42-0.011-5.147-8.011-5.157-8 0 0.074 35.041 4.016 69.861 9.818 104.37-14.656-0.064-29.305-0.011-43.962 0.509l-7.46 0.26578c-14.926 0.51097-29.882 0.82579-44.78-0.36478-16.54-1.33-33.269-4.37-48.099-12.16-6.679-3.515-12.56-8.008-17.586-13.291 5.109-2.972 10.291-5.823 15.24-9.061 4.291-2.808 0.288-9.737-4.038-6.907-5.333 3.49-10.939 6.529-16.43 9.757-3.976-5.306-7.239-11.195-9.717-17.548-3.91-10.031-5.42-20.821-6.73-31.441-1.549-12.509-2.19-25.12-2.19-37.719 0-26.5 2.79-52.92 6.681-79.1 3.7209-25.081 8.6394-49.96 13.838-74.76l0.71061-3.3813c5.13-24.38 10.02-48.83 15.9-73.04 5.437-22.387 11.72-44.669 19.208-66.52 6.665 4.121 13.64 7.726 20.201 12.019 4.321 2.828 8.334-4.096 4.038-6.907-7-4.581-14.466-8.388-21.53-12.864 8.373-23.398 18.201-46.25 29.984-68.137 23.599-43.83 55.4-83.041 96.13-111.98 20.389-14.481 42.759-26.33 66.25-34.951 23.95-8.799 48.769-13.62 74.149-15.599 0.72471-0.05741 1.1314 0.61332 1.1017 1.2335l-0.0107 0.1155 1 0.161c0.37-2.51 1.13-4.941 2.58-7.17 3.3-5.08 9.559-8.34 14.559-11.46l1.1855-0.7375c5.9488-3.6872 12.227-7.3197 19.146-8.6125 0.24-0.041 0.389 0.209 0.229 0.4-4.5626 5.2312-10.397 9.2282-15.744 13.653l-1.229 1.0249c-4.4313 3.6468-10.612 7.7858-10.777 13.881-0.189 7.181 1.28 14.65 1.811 21.811 0.53 7.139 0.899 14.269 1.089 21.429 0.691 25.651-0.139 51.311-2.41 76.861l10.039-6.7214c15.624-10.459 31.299-20.888 47.301-30.68 9.681-5.929 20.561-11 32.16-10.769 3.25 0.059 6.92 0.53 10.441 1.53-3.79-3.59-7.42-7.41-11.13-11.02-6.111-5.951-12.221-11.9-18.33-17.84l-17.617-17.16-17.624-17.16c-5.459-5.33-11.86-10.239-11.28-18.639 0.471-6.7 3.88-13.37 6.21-19.83 0.33-0.93 0.63-1.85 0.91-2.76 4.701-15.62 7.37-31.811 12.14-47.37zm227.69 670.19c-3.644-3.646-9.302 2.009-5.656 5.656l1.9278 1.92c3.2199 3.2123 6.412 6.5233 8.6403 10.494l0.3269 0.60067c2.401 4.556 9.309 0.518 6.907-4.038-2.969-5.631-7.692-10.177-12.146-14.633zm-156.13-1.029c-11.601-2.215-22.782-2.215-34.383 0-5.051 0.965-2.912 8.677 2.127 7.715 10.146-1.938 19.982-1.938 30.129 0 5.031 0.96 7.186-6.748 2.127-7.715zm-156.67-80.64c-4.992-1.265-7.122 6.449-2.126 7.714l2.4596 0.61707c8.3613 2.0662 16.325 3.6058 25.01 1.6879 4.9589-1.0964 2.9537-8.6231-1.9301-7.7543l-0.19688 0.0393c-8.037 1.775-15.441-0.334-23.217-2.304zm278.24-51.963c-3.694-3.591-9.357 2.06-5.657 5.656 4.617 4.49 10.058 7.902 16.652 8.084 5.0731 0.14185 5.145-7.62 0.22698-7.9884l-0.22698-0.0116c-4.419-0.123-7.94-2.769-10.995-5.74zm-470.82-21.366c4.606-2.303 0.559-9.205-4.037-6.907l-27.648 13.823c-4.606 2.303-0.559 9.207 4.037 6.908zm546.33 1.763c-5.15-0.145-5.146 7.855 0 8 4.839 0.135 9.798 1.968 14.109 4.061 4.612 2.24 8.673-4.656 4.038-6.908-5.636-2.736-11.823-4.977-18.147-5.153zm-258.33-38.626c4.234-2.877 0.236-9.813-4.038-6.908-5.8318 3.9618-11.116 8.6446-16.855 12.727l-1.5772 1.0974c-4.234 2.877-0.236 9.811 4.038 6.908 6.361-4.323 12.071-9.503 18.432-13.824zm297.5-58.143c-5.148-2e-3 -5.156 7.998 0 8l0.97614-3e-3c4.2491-0.0239 8.7278-0.14127 12.679 1.5569l0.45356 0.20411c4.632 2.182 8.697-4.713 4.038-6.907-5.793-2.728-11.85-2.848-18.147-2.851zm-444.28-5.7149 0.67197-0.2521c4.81-1.727 2.736-9.461-2.127-7.713-7.328 2.633-13.029 7.606-19.386 11.922-4.236 2.877-0.238 9.811 4.037 6.909 5.4774-3.7201 10.573-8.4303 16.804-10.866zm300.07-20.812 1.0785-0.5776c4.58-2.357 0.537-9.262-4.037-6.908-3.6309 1.8682-6.88 4.3537-10.442 6.3342l-1.0788 0.57785c-4.579 2.356-0.537 9.261 4.038 6.908 3.6309-1.8691 6.88-4.3547 10.441-6.3344zm-121.7-77.488-0.82373-0.79544c-3.682-3.605-9.343 2.048-5.657 5.657 9.2061 9.0099 20.09 15.851 31.069 22.465l1.997 1.2004c4.425 2.655 8.452-4.259 4.038-6.908l-2.9307-1.7619c-9.7617-5.8867-19.409-11.963-27.693-19.857zm-221.38-7.4684c3.1021-4.028-3.644-7.9702-6.797-4.1768l-0.11105 0.13878c-3.2292 4.192-7.0607 7.9872-11.065 11.45l-0.75277 0.6455c-2.384 2.028-6.723 6.373-10.072 6.659-5.092 0.433-5.138 8.437 0 8 5.182-0.441 9.641-4.088 13.556-7.213 5.698-4.547 10.795-9.732 15.242-15.504zm425.61-29.143c3.7173-3.4919-1.7735-9.0499-5.5244-5.7753l-0.13164 0.11926c-6.947 6.526-16.94 8.277-25.883 10.49-4.995 1.238-2.879 8.954 2.127 7.715l4.0741-1.0059c9.1389-2.2808 18.309-4.937 25.338-11.543zm-158.44-50.461c-4.992-1.269-7.122 6.445-2.126 7.714 8.485 2.156 16.522 4.943 24.387 8.813 4.604 2.264 8.662-4.632 4.038-6.908-8.462-4.164-17.163-7.297-26.299-9.619zm81.723-168.64c-0.12-0.36 0.261-0.77 0.63-0.641 8.9779 3.3473 4.2053 15.106 1.4158 22.144l-0.50582 1.2867c-4.37 11.28-10.479 22.26-17.139 32.36-6.97 10.57-14.71 20.69-23.09 30.19-3.6356 4.1244-7.4062 8.1304-11.304 12.017l-1.4674 1.4519c-3.939 3.871-9.019 10.671-15.13 9.921-6.58-0.791-10.25-7.82-5.45-13.16 3.391-3.78 8.091-6.791 11.88-10.23 3.761-3.401 7.401-6.91 10.95-10.52 7.261-7.41 14.141-15.24 20.431-23.49 6.0834-7.9781 11.905-16.177 17.198-24.701l1.0516-1.7092c4.029-6.63 13.33-16.38 10.529-24.92zm-318.08 83.798c-4.262-2.914-8.268 4.016-4.038 6.907 7.778 5.316 14.621 11.756 23.04 16.128 4.5077 2.3418 8.5165-4.369 4.1977-6.8203l-0.15974-0.0867c-8.413-4.371-15.266-10.816-23.04-16.128z"/></g><g transform="matrix(-1 0 0 1 -6.0709 6.8224)"><path d="m40.636 47.853c-0.81056-0.3178-1.6834-0.49343-2.5605-0.56161 0.47227-0.08275 0.94595-0.16255 1.4234-0.20357 0.33318-0.02849 0.64208-0.02556 0.8925 0.2271 0.16697 0.16836 0.24536 0.38505 0.3552 0.58423-0.03617-0.01573-0.07321-0.03177-0.11057-0.04592zm8.7001-2.9713c-1.3275 0.06743-2.6565 0.38303-3.8573 0.95481-0.4913 0.23429-0.9365 0.57259-1.0668 1.1291-0.06591 0.28416-0.04975 0.57779-0.01464 0.86481 0.0263 0.21742 0.03288 0.4949 0.22195 0.64208 0.03214 0.02447 0.06665 0.04376 0.10253 0.05786-0.44301 0.19992-0.86481 0.44012-1.2397 0.68754-0.34264 0.22626-0.6948 0.57478-0.85295 0.96798-0.01322-0.04482-0.0263-0.08635-0.03939-0.12592-0.26947-0.79658-0.68462-1.449-1.3385-1.8876 0.11569-0.05194 0.19546-0.17497 0.15813-0.34479-0.15524-0.70959-0.81063-1.3261-1.5508-1.2822-0.81055 0.04756-1.6812 0.34267-2.4142 0.71537-0.26717-0.0058-0.53378-0.0022-0.79731 0.0091-0.04536 0.0014-0.04322 0.06306 0 0.06809 0.2138 0.02739 0.4276 0.05713 0.64142 0.09223 0.50814 0.08135 1.0148 0.18454 1.5105 0.31265 0.59463 0.15382 1.2097 0.3083 1.7654 0.57698 1.0777 0.52214 1.7449 1.887 1.6079 3.0746-0.02229 0.19477-0.09808 0.78347-0.36838 0.7227-0.22841-0.05139-0.31915-0.52793-0.399-0.70439-0.2138-0.46861-0.59895-0.77468-1.061-0.98189-0.54259-0.24383-1.1232-0.40857-1.6856-0.60034-0.31845-0.10908-0.63695-0.21829-0.9562-0.32664-0.32653-0.11192-0.63702-0.26651-0.98482-0.18816-0.21015 0.04756-0.23429 0.298-0.11641 0.4416 0.17939 0.21884 0.44591 0.28328 0.70439 0.37335 0.34121 0.11862 0.68169 0.23732 1.0222 0.35586 0.5264 0.18308 1.0778 0.33752 1.591 0.56161l-0.01573 0.03665c-0.04157-0.01134-0.09088 0.02995-0.08275 0.08123 0.07689 0.47374 0.18378 1.0214 0.06513 1.496-0.09367 0.37631-0.42393 0.79298-0.85295 0.68234 0.06735-0.06151 0.09223-0.16767 0.04702-0.26578-0.16993-0.3632-2.3958-1.7968-2.5942-1.2644-0.0066 0.01899 0.01354 0.03288 0.02995 0.02995 0.16913-0.03506 0.45253 0.25329 0.58789 0.34479 0.19546 0.13187 0.39391 0.26067 0.58731 0.39615 0.21161 0.14797 0.41808 0.30319 0.61945 0.46346 0.15813 0.12603 0.2775 0.25698 0.45903 0.32079-0.09517 0.04536-0.17059 0.12954-0.20277 0.23714-0.08201 0.28046-0.24014 0.51842-0.51476 0.64222-0.28777 0.12883-0.61213 0.04756-0.91527 0.07904-0.41294 0.04157-0.77322 0.23798-1.0742 0.51842-0.6319 0.59009-0.94895 1.6299-1.8327 1.9088-0.52793 0.16628-1.1137 0.06151-1.6482-0.01354-0.59675-0.0842-1.1781-0.15086-1.7793-0.06294-0.57552 0.08427-1.1196 0.28335-1.6453 0.52646-0.49277 0.22776-1.0375 0.4855-1.4747 0.8252-0.09008-0.27751-0.18089-0.55208-0.24978-0.83545-0.16252-0.6699-0.25033-1.3524-0.27166-2.0407-0.01972-0.65526 0.0168-1.3135 0.07321-1.966 0.02777-0.32584 0.07185-0.6502 0.09968-0.97604 0.0069-0.08201 0.02193-0.16989 0.03288-0.25763 0.78054-0.46062 1.6005-0.81349 2.4272-1.1767 0.0022-6.3e-4 0.0044-0.0025 0.0066-0.0031 0.02556-0.01212 0.0503-0.02301 0.07616-0.03397-7.6e-4 -0.0013-0.0014-0.0031-3e-3 -0.0044 0.09442-0.05775 0.16036-0.13472 0.19992-0.22114 1.1913-0.79006 2.1871-1.8685 2.9296-3.1265 0.31119-0.52722 0.61066-1.0742 1.0178-1.5361 0.4335-0.49288 0.94822-0.78574 1.5852-0.93804 0.74466-0.17859 1.512-0.28554 2.275-0.34636 0.4166-0.03288 0.88224-0.0842 1.3363-0.08189 0.31634 0.0022 0.62597 0.02885 0.91014 0.10753 0.42103 0.11569 0.66704 0.43574 0.93137 0.7593 0.25263 0.31053 0.50376 0.62172 0.73953 0.94536 0.22326 0.30669 0.43421 0.62377 0.61725 0.9562 0.10985 0.19915 0.21161 0.40424 0.2973 0.61578 0.02995 0.07473 0.06956 0.15959 0.08789 0.23725 0.0179 0.07835-0.01527 0.16113 0.07251 0.16113-0.36247 0.0052-0.35882 0.58424 0.0014 0.563 1.4102-0.08201-0.60993-2.835-0.90509-3.2188-0.41808-0.54329-0.84929-1.2521-1.5185-1.5047-0.0091-0.0036-0.01972-0.0069-0.02958-0.01018 0.68208 0.59777 0.56145 0.52996-0.10906-0.03664-0.26432-0.08123-0.54989-0.11854-0.84058-0.13103 0.36684-0.49644 0.99354-1.4542 1.069-1.5773 0.34706-0.56966 0.6773-1.1568 0.99288-1.7449 0.34114-0.63702 0.63336-1.3004 0.95993-1.9448 0.18523-0.36532 0.37199-0.73368 0.57772-1.0881 0.07105-0.12156 0.14721-0.2431 0.2336-0.35367 0.01681-0.02193 0.06028-0.22747 0.07986-0.24775 0.02301-0.01243-0.17408 0.3147-0.16068 0.30775 0.11854-0.06809 0.36669-0.63482 0.49675-0.81301 0.23236-0.32675 0.76395-1.8396 0.96455-1.8419 0.42754-0.0044 1.4478 0.01243 1.8747 0.02412 0.62751 0.01753 1.5654-0.01955 2.1922 0.01317 0.18962 0.01018 1.6853-0.01102 1.8749 1e-3 0.9116 0.05412 1.1691-0.03034 2.0778 0.05685 0.83508-0.01652 1.2035-0.01567 2.0082 0.04434-1.0895 2.5884-3.9777 7.5877-5.3456 10.041-0.01354 0.02447-0.02412 0.04975-0.03068 0.07462zm-6.0451 6.6682c-0.17574 0.08059-0.34633 0.18089-0.50524 0.29515 0.0263-0.17793 0.03288-0.36542 0.02558-0.55362 0.13106 0.1406 0.29873 0.22114 0.4796 0.25848zm7.5015-4.4525c-0.01243 0.0014-0.02412 8e-3 -0.02995 0.02009-0.2431 0.50158-0.14141 1.0617 0.25552 1.4549 0.20796 0.205 0.66118 0.4364 0.64647 0.77322-0.01243 0.27235-0.30896 0.50081-0.43558 0.72562-0.11788 0.20942-0.16178 0.43935-0.06737 0.66639 0.12083 0.29062 0.45838 0.40632 0.57406 0.69194 0.14644 0.36236-0.09154 0.79958-0.25848 1.1151-0.15524 0.29216-0.3559 0.5843-0.48911 0.8933-0.89257 0.4621-1.6914 1.1709-2.3782 1.8906-0.75198 0.78713-2.8014 1.7507-2.8556 1.8378-0.33241 0.01527-0.66558 0.02193-0.998 0.02337-0.5843 0.0031-1.1686-0.0031-1.7522-0.02118-0.04102-0.1413-0.01101-0.3331-0.01322-0.45253-0.0069-0.3844 3.7509 0.3099 3.7353-0.07451-0.0044-0.10684-3.7708-1.2926-3.7752-1.3994 0.21015 0.38002 0.62018 0.55283 1.0873 0.52646 0.75125-0.04376 1.8369 0.55906 2.5807 0.44848 0.39178-0.05786 0.67281-0.40976 1.0631-0.48007 0.32068-0.05713 0.55322-0.48266 0.77728-0.73949 0.05249-0.05998 0.05567-0.16978-0.02739-0.21015-0.22184-0.10908-0.3617-0.0481-0.60561-0.0013-0.2972 0.05775-0.59521 0.1127-0.89403 0.16398-0.57332 0.09951-1.148 0.19178-1.7243 0.27309-0.32803 0.04592-0.6568 0.09154-0.98556 0.12741-0.287 0.03069-0.61066 0.07251-0.84204-0.1434-0.46642-0.43646-0.205-1.1679 0.09004-1.6087 0.0058-0.0088 0.0058-0.0168 0.0036-0.02412 0.27827-0.06516 0.55575-0.1413 0.83253-0.19477 0.53231-0.10253 1.0683-0.18885 1.605-0.26574 1.1027-0.15748 2.2127-0.26147 3.3212-0.36608 0.27458-0.0263 0.27751-0.45838 0-0.43273-1.5926 0.1457-3.1931 0.28401-4.7644 0.59089-0.39391 0.07605-0.785 0.16244-1.1737 0.25983-0.18377 0.04536-0.38074 0.11652-0.57332 0.11871-0.01133 0-0.02337 0-0.03506-6.34e-4 -0.37707-0.01134-0.43202-0.33453-0.2248-0.60327 0.02558-0.03288 0.05194-0.06601 0.07907-0.09739 0.36608-0.43645 0.8222-0.72789 1.2923-1.0296 0.52651-0.07174 1.0515-0.23141 1.567-0.34852 1.2726-0.28996 2.5452-0.57991 3.8185-0.86913 0.2496-0.05714 0.14351-0.44077-0.10618-0.3844-0.96652 0.21899-1.933 0.43787-2.8996 0.65679l-1.4146 0.32076c-0.28266 0.06363-0.63564 0.19177-0.96806 0.23798-0.16394 0.02229-0.32284 0.02558-0.46636-8e-3 -0.46346-0.10985-0.48692-0.68908-0.287-1.0332 0.22407-0.38653 0.64728-0.62824 1.0229-0.84717 0.65094-0.38002 1.3436-0.65314 2.0202-0.96798l0.36024-0.07904c0.69853-0.15375 1.4966-0.22918 2.1542-0.51104 0.19696-0.08355 0.08924-0.39402-0.10542-0.38959-0.51038 0.01101-1.0441 0.19258-1.5428 0.30019-0.53963 0.11718-1.08 0.2336-1.6197 0.35002-0.05412 0.01133-0.37488 0.11422-0.42322 0.09154-0.03068-0.01464-0.04157-0.12146-0.05195-0.19181-0.03288-0.23141-0.05709-0.4744-0.02118-0.70658 0.07904-0.5206 0.51328-0.76516 0.95261-0.96505 0.97824-0.44444 2.0509-0.72262 3.1185-0.83399 0.24602-0.02558 0.49206-0.04157 0.73954-0.04975 0.29062-0.0088 0.53012-0.06005 0.6773 0.22626 0.23133 0.45105 0.35874 1.031 0.43492 1.5458zm-7.946 6.5891c0.18012-0.01753 0.36024-0.05194 0.54034-0.09223-0.20138 0.1963-0.38735 0.43273-0.49064 0.69494-0.01573-0.20138-0.03665-0.40206-0.06363-0.60188 0.0044 0 0.0091 0 0.01354-6.35e-4z" fill="#fff" stroke="#000" stroke-width=".63275"/></g><path d="m-17.722 68.133c0.40435 0.11857 0.87594 0.22762 1.1516 0.57255 0.01337 0.01701 0.03605-0.0049 0.02795-0.02147-0.35291-0.73165-1.365-0.98827-2.0657-1.2446-0.49563-0.18136-1.0042-0.33172-1.517-0.46601 0.05124-0.58502-0.09009-1.212-0.13927-1.7942-0.05246-0.62153-0.09515-1.2447-0.11707-1.8682-0.02228-0.63601-0.02795-1.2763-0.0069-1.9125 0.02066-0.63384 0.10313-1.2599 0.13914-1.8917 0.0035-0.06109-0.08158-0.064-0.09993-0.01337-0.21295 0.58622-0.30393 1.2356-0.37324 1.8537-0.07138 0.63678-0.09507 1.2717-0.08596 1.9122 0.0093 0.65852 0.04772 1.3155 0.1003 1.9719 0.02471 0.31114 0.0538 0.62186 0.0811 0.93278 0.02066 0.23726 0.03038 0.47263 0.07887 0.70235-0.30928-0.07587-0.6193-0.14769-0.92833-0.21753-0.9854-0.22235-1.9749-0.42869-2.9562-0.66916-0.48169-0.118-0.95649-0.25933-1.436-0.38487-0.45153-0.1182-0.92812-0.26152-1.3917-0.31422-0.16544-0.01904-0.1865 0.20744-0.07697 0.28425 0.37677 0.26456 0.87718 0.44876 1.3124 0.59685 0.43678 0.14858 0.8908 0.25548 1.3385 0.36555 0.9336 0.2296 1.876 0.41735 2.8171 0.6129 0.93972 0.19533 1.8812 0.3892 2.8104 0.6302 0.44746 0.1161 0.8934 0.2326 1.337 0.36279z" fill="#fff" stroke-width=".46876"/><g transform="matrix(-1 0 0 1 -8.0923 7.1228)" fill-rule="evenodd"><g transform="matrix(.05198 0 0 .05198 17.934 1.9207)"><path id="ðŸŽ¨-Background" d="m256.58 38.978c56.781 0 127.9 64.771 148.71 92.333 17.499 23.173 15.024 142.55 15.024 213.37 0 14.811-6.6951 42.842-9.1255 57.01-8.9062 51.915-47.709 95.454-124.51 95.454-62.532 0-110.65-19.807-157.19-70.465-10.617-11.557-62.465 29.817-73.069 14.917-27.697 0-50.856-258.78 3.523-336.4 54.379-77.618 139.85-66.224 196.64-66.224z" fill="#fff"/><path id="ðŸ–-Ink" d="m85.917 57.205c32.81-29.85 76.52-44.21 120.62-43.15 22.84 0.55 45.6 4.9 67.17 12.35 10.79 3.74 21.24 8.62 31.23 14.14 3.6 1.9846 6.9188 4.3101 10.114 6.7797l0.79625 0.6203h0.01c8.57 3.08 16.22 8.61 23.16 15.08 13.91-1.11 27.93 0.14 41.38 4.43 18.72 5.98 36.05 16.93 48.22 32.48 14.176 18.103 18.889 40.062 17.207 62.731l-0.3105 3.8509c-1.6629 20.025-4.6416 45.781-21.077 58.939-1.25 1-2.63 1.76-4.06 2.22 10.59 18.14 19.28 38.28 24.48 58.62 19.85 77.69 4.59 158.71-19.28 233.59-1.96 6.17-11.29 10.27-16.04 4.24-8.48-10.78-20.8-19-34.66-20.54-8.55-0.95-17.06 0.77-25.14-3.11-3.17-1.53-6.23-4.03-8.43-7.07-13.64 5.17-28.33 7.61-42.9 7.01-23.91-0.98-49.47-9.26-65.92-27.42-2.64-2.915-3.309-6.188-2.701-9.138 2.063-0.736 4.181-1.284 6.363-1.627 20.86 12.294 43.854 20.509 68.566 21.025 14.279 0.298 28.207-1.699 39.785-10.615 2.505-1.93 4.809-4.067 6.939-6.363 24.207-15.572 41.274-42.021 49.388-70.352 7.56-26.42 6.63-53.93 4.03-81.03l-1.3717-14.301c-1.9995-20.989-3.8545-42.041-4.3743-63.119l0.157-8e-3c5.112-0.33 5.149-8.333 0-8-13.319 0.862-26.537-1.323-39.815-0.371-0.111-6.277-0.563-12.526-2.408-18.58-1.053-3.459-7.076-4.141-7.714 0-0.854 5.54-1.166 11.049-1.259 16.614-19.871-0.264-39.723-1.936-59.597-1.249-3.666-3.91-4.833-10.843-6.548-15.666-0.25-0.71-0.5-1.41-0.76-2.12-1.507 6.892-3.643 13.633-6.453 20.232l-4.8741 0.0165c-27.655 0.12972-55.872 0.95631-82.877 6.6995-1.877-1.441-2.994-3.955-3.296-6.238-1.9588-14.856-4.7544-29.317-9.7091-43.474l-0.70883-1.9974c-0.0579-0.16568-0.11904-0.34176-0.18304-0.52696-3.651 5.893-8.007 11.386-12.758 16.501-2.8 3.015-5.736 5.898-8.749 8.699-2.927 3.25-5.952 6.451-8.884 9.711 0.115 0.593 0.215 1.195 0.296 1.808 0.897 6.765 0.99 13.626 0.333 20.417-1.188 12.277-4.654 24.107-10.222 35.051l-0.17616 1.0958c-0.8455 5.1287-2.0485 10.429-4.8578 14.291 3.506 3.928 6.207 8.62 7.773 13.833 1.394 4.641-5.027 8.663-8.357 4.865-2.645-3.017-5.584-5.514-8.812-7.506-0.204 0.277-0.572 0.413-0.985 0.182-8.99-4.99-24.26-3.48-33.24 1.22-11.17 5.84-15.53 17.83-14.29 29.98 1.19 11.61 6.27 25.18 16.12 31.13 4.52 2.73 8.04 2.96 12.84 1.65 1.5347-0.41684 3.4374-1.6953 4.2542-2.3304l0.80378-0.64425c3.1467-2.487 6.0774-4.19 9.792-4.2554 3.7992-1.1848 7.6175 0.45878 9.0705 4.4425l0.0895 0.25746c0.68 2.03 1.92 4.58 1.65 7.68-0.28 3.32-1.8 6.34-4.07 8.77-0.39 0.42-0.81 0.84-1.24 1.23 39.1 42.33 44.12 108.29 24.07 161.17-0.87 2.32-1.8 4.61-2.77 6.88-3.35 7.78-16.25 5.37-17.89-2.34-0.49-2.31-1.03-4.61-1.62-6.89-1.0844-4.2133-2.3269-8.3872-3.7274-12.5l-0.53259-1.5396c-1.19-3.4-2.3-6.83-3.5-10.23l-0.12-0.38875c-0.045-0.15375-0.095-0.33125-0.15-0.53125l-2.03 4.43-6.17 13.37c-2.8872 6.2391-12.061 2.8483-12.402-3.164l-0.0082-0.20597c-0.03-1.11-0.07-2.21-0.14-3.3-0.44-8.17-1.85-16.11-4.09-23.88l-0.80815 1.0043c-12.034 14.878-26.157 28.823-45.532 32.256-4.86 0.86-10.36-4.22-7.02-9.13 1.38-2.03 2.71-4.11 3.97-6.22-1.09-0.51-2.12-1.04-3.07-1.58-7.35-4.13-13.47-10.01-18.53-16.68-10.73-14.14-14.57-31.94-15.51-49.36-1-18.41 0.62-37.82 5.65-55.58 2.18-7.68 5.13-15.05 8.54-22.2-0.24-0.64-0.47-1.28-0.7-1.92-3.68-10.26-6.7-20.75-9.21-31.36-5.06-21.42-7.78-43.52-8.11-65.53-0.6-39.43 6.2-79.49 20.53-116.26 14.8-37.92 37.06-74.45 67.35-102zm-18.43 344.74c-2.7176-4.2791-9.5175-0.42297-6.9941 3.8859l0.09411 0.15407c4.31 6.79 6.33 14.51 8.81 22.08 1.59 4.87 9.32 2.79 7.71-2.13l-0.53298-1.6427c-2.4678-7.6766-4.719-15.478-9.087-22.347zm23.67-81.68 1.8055-0.87372c5.6953-2.7178 10.685-4.5691 17.415-2.1963 9.01 3.17 18.66 13.26 12.57 23.05-2.24 3.61-6.22 5.05-10.32 4.2-6.912-1.4335-8.6957-7.6578-12.203-12.767l-0.60359-0.86518c-2.1385-3.0917-4.8428-7.3657-8.4031-8.5775-0.81-0.28-1.15-1.54-0.26-1.97zm5.0785-207.86 0.58146-0.52114c3.87-3.42-1.81-9.06-5.66-5.66-17.62 15.57-23.74 39.94-32.88 60.71-2.05 4.67 4.84 8.75 6.91 4.04 8.7186-19.82 14.506-43.528 31.049-58.569zm211.74-6.8111c-4.6039-2.0747-8.6318 4.6253-4.2057 6.8313l0.16572 0.0787c15.56 7.03 22.18 22.95 28.52 37.73 2.02 4.72 8.91 0.65 6.91-4.03l-1.1441-2.652c-6.6154-15.231-14.331-30.757-30.246-37.958zm24.39-9.62c-4.88-1.69-6.97 6.03-2.13 7.72 13.19 4.59 22.24 14.49 29.87 25.81 2.86 4.24 9.79 0.24 6.9-4.04-8.86-13.14-19.38-24.17-34.64-29.49z"/></g><path d="m34.17 19.176c0.36007 0.21887 0.90872 0.72923 0.52136 1.2718-0.45596 0.47843-1.1124-0.07012-1.4359-0.31821-0.29996-0.19227-0.63699 0.30224-0.35868 0.52674 2.3376 1.7307 3.2863-1.4231 1.4554-1.7377-0.20159-0.03466-0.27646 0.18962-0.18212 0.25733zm-3.2533-4.174 0.08952-0.01567 0.04588-0.0078c0.26817-0.04434 0.58607-0.07399 0.77129 0.1365 0.1039 0.11807 0.13966 0.3375 0 0.45051-0.24566 0.19884-0.51727 0.12178-0.81166 0.13862-0.24261 0.01392-0.47578 0.05407-0.70948 0.12088-0.51269 0.14653-0.93044 0.41403-1.3683 0.70776-0.05745 0.03853-0.11612-0.03495-0.08869-0.08869 0.25277-0.4951 0.74262-0.90178 1.2333-1.1497 0.26188-0.13232 0.54845-0.24209 0.83817-0.29244zm2.3716 6.8397c0.78353 0.05689 2.4815-0.31714 3.1866 0.2439 2.6572 3.3181-7.8774 4.1712-6.7397 0.50024 0.72464-1.187 2.3914-0.70991 3.5531-0.74414zm-0.13432 2.0031c-0.19378-0.01579-0.42896 0.13771-0.48584 0.2563-0.05689 0.11864-0.03491 0.36931-0.03319 0.41274 0.33879 0.03414 0.68053 0.03933 1.0203 0.01707-0.08826-0.29196-0.09113-0.64191-0.50124-0.68611zm1.5643 0.4898c-0.05446-0.36239-0.31366-0.44822-0.52347-0.39382-0.21462 0.0556-0.3406 0.30264-0.32696 0.52261 9.2e-4 0.01516-0.0079 0.02804-0.01364 0.04024 0.29172-0.03448 0.58073-0.09122 0.86407-0.16904zm-2.4029-0.42419c-0.12216-0.18587-0.41408-0.27556-0.60105-0.2428-0.30532 0.06427-0.34146 0.45223-0.34146 0.53129 0.28147 0.10729 0.5803 0.17853 0.86602 0.23527 0.05736 0.01136 0.11487 0.02151 0.17247 0.03108l0.0037-0.04711c7e-3 -0.10094 0.01211-0.33761-0.09973-0.50774zm3.4536-0.03066c-0.31304-0.48432-0.98594-0.13756-0.93034 0.39153 0.0598-0.01883 0.1193-0.03853 0.17853-0.05917 0.24595-0.08573 0.51574-0.18763 0.75182-0.33235zm-2.4645-1.6687c-0.42114-0.03791-0.7666-0.02513-1.0413 0.02579l-0.0083 0.09174c-0.0304 0.3181-0.06959 0.63085 0.09745 0.75882 0.13566 0.10395 0.58593 0.09403 0.88786 0.01878 0.07458-0.01878 0.17152-0.67853 0.06427-0.89516zm0.65121-0.03791c-0.0675 0.3135-0.09925 0.69416 0.03628 0.80722 0.1431 0.11937 0.60379 0.1032 0.72427 0.02367 0.10544-0.0696 0.10275-0.38974 0.06361-0.74916-0.23331-0.05498-0.63957-0.08173-0.82416-0.08173zm-1.8787 0.06685-0.1379 0.0012-0.07805 1e-3c-0.19737 0.0036-0.41031 0.01488-0.61159 0.0588-0.39988 0.86416 1.0604 1.0133 0.8349-0.02913zm2.8886 0.02084-0.0026 0.04896c-0.01199 0.24275-4e-3 0.5624 0.13044 0.6487 0.19788 0.12699 0.56947 0.10249 0.77076-0.4849-0.06661-0.17524-0.7731-0.19993-0.89865-0.21276zm-3.8756-5.1527c0.08455 0 0.16542 0.02869 0.23907 0.0818 0.07249 0.05227 0.1381 0.12855 0.19276 0.22369 0.10343 0.18004 0.16808 0.42862 0.16808 0.70349 0 0.27486-0.06465 0.52345-0.16808 0.70349-0.05465 0.09514-0.12027 0.17142-0.19276 0.22368-0.07365 0.05311-0.15452 0.0818-0.23907 0.0818s-0.16542-0.0287-0.23907-0.0818c-0.07249-0.05227-0.1381-0.12854-0.19276-0.22368-0.10343-0.18004-0.16808-0.42862-0.16808-0.70349 0-0.27486 0.06465-0.52345 0.16808-0.70349 0.05465-0.09514 0.12027-0.17142 0.19276-0.22369 0.07365-0.0531 0.15452-0.0818 0.23907-0.0818zm5.352 0c0.08455 0 0.16542 0.02869 0.23907 0.0818 0.07249 0.05227 0.1381 0.12855 0.19276 0.22369 0.10343 0.18004 0.16808 0.42862 0.16808 0.70349 0 0.27486-0.06465 0.52345-0.16808 0.70349-0.05465 0.09514-0.12027 0.17142-0.19276 0.22368-0.07365 0.05311-0.15452 0.0818-0.23907 0.0818s-0.16542-0.0287-0.23907-0.0818c-0.07249-0.05227-0.1381-0.12854-0.19276-0.22368-0.10343-0.18004-0.16808-0.42862-0.16808-0.70349 0-0.27486 0.06465-0.52345 0.16808-0.70349 0.05465-0.09514 0.12027-0.17142 0.19276-0.22369 0.07365-0.0531 0.15452-0.0818 0.23907-0.0818zm-0.72818-2.3279 0.06852 0.01403 0.04545 0.0096c0.73907 0.15897 1.6761 0.47235 2.022 1.1899 0.01345 0.10356-7.67e-4 0.12576-0.01232 0.14026l-0.0038 0.0049c-0.0096 0.01238-0.01713 0.02945-0.06201 0.04355-0.01245-3e-3 -0.02503-0.0062-0.03775-0.0095-0.16185-0.04241-0.28991-0.10085-0.41388-0.16148l-0.13442-0.06622c-0.15595-0.07646-0.31328-0.15015-0.48001-0.20454-0.35582-0.11606-0.72181-0.19781-1.0935-0.24147-0.08056-0.0095-0.15812-0.03665-0.21932-0.08323-0.05809-0.04422-0.10247-0.10546-0.1227-0.18685-0.02622-0.10533-0.01869-0.18508 0.03783-0.28011 0.0425-0.07136 0.10331-0.12083 0.17313-0.14923 0.07118-0.02895 0.15222-0.03578 0.23277-0.01965z"/><path d="m38.753 18.09c-0.43365 2.9333-3.4608 3.2577-3.9987 0.34564 0.08633-0.0378 0.14842-0.11221 0.13545-0.25667-0.0031-0.6346 0.19395-1.3053 0.76642-1.6582 0.59158-0.36415 1.2839-0.40027 1.9685-0.39108 1.3064-0.03111 1.2789 1.0608 1.1283 1.9604m-4.4726-1.2757c-0.41-0.01729-0.92871-0.0028-1.296 0.24698-0.10098-0.27191-0.36333-0.56224-0.62842-0.71748 0.98529 0.02884 1.9995-0.06814 2.9922-0.14341-0.23761 0.16197-0.45867 0.40532-0.60236 0.68664-0.13332-0.07109-0.32426-0.06445-0.4654-0.07273m-1.8072 1.5867c-1.1369 3.9133-3.9747 2.2077-4.2841 1.7061-0.55805-0.82992-0.66303-2.8474-0.17694-3.3868 0.69583-0.48778 1.6809-0.36224 2.5029-0.3742 1.5101 0.02038 2.5827 0.47213 1.9582 2.0548m7.6222-1.7999c-0.30889-0.04039-0.63897-0.04853-0.92616 0.08747-0.08842-0.37584-0.36602-0.69005-0.67945-0.82832-0.03794-0.04758-0.03225-0.07314-0.16184-0.066-0.79576-0.23916-1.6862-0.11262-2.4509 0.13263-1.2077 0.1017-2.4748 0.18189-3.6926 0.32203-1.1408-0.51234-4.5837-0.58744-4.7977 0.67536-0.26913-0.04026-0.72748-0.25208-0.95364 0.03525-1.6589-0.28123-3.373 0.10962-5.039 0.28369-0.41937 0.07723-0.63538 0.90952-0.15933 0.89814 0.26763-0.07264-0.0082-0.51826 0.35214-0.55178 1.6075-0.17557 3.1798-0.42465 4.8037-0.4538-0.05649 0.28041 1.0741 0.29865 1.0908 0.13491 0.0024 0.0012 5e-3 2e-3 0.0074 0.0031-0.27937 1.0411-0.0272 2.5395 0.47768 3.1851 0.70738 0.84538 2.4833 1.0879 3.2708 0.544 1.0158-0.50202 2.0726-3.022 1.7757-3.8592 0.53872-0.17075 1.0713-0.11949 1.6304-0.03252-0.12799 0.36156-0.34896 1.2516-0.03107 1.3288-0.05835 1.7671 1.5498 2.8697 3.0324 2.1448 1.2832-0.60236 1.7319-2.509 1.5749-3.6663 0.15974 0.30866 1.501-0.02738 0.87576-0.31748"/></g></g><g transform="translate(13.229 4.593)"><rect x="12.826" y="59.719" width="27.265" height="12.749" rx="1.1514" ry="1.2837" fill="#fff" stroke="#000" stroke-width=".79375"/><text x="21.147825" y="67.450089" fill="#000000" font-family="'Ink Free'" font-size="4.2333px" font-weight="bold" stroke="#000000" stroke-width=".26458" xml:space="preserve"><tspan x="21.147825" y="67.450089" fill="#000000" font-size="4.2333px" stroke-width=".26458">Grace</tspan></text></g></svg>
