<?xml version="1.0" encoding="UTF-8" standalone="no"?>
<svg
   width="64"
   height="64"
   viewBox="0 0 16.933 16.933"
   xmlns="http://www.w3.org/2000/svg"><g
     id="head/mono/Shaved-3"
     stroke="none"
     stroke-width="1"
     fill="none"
     fill-rule="evenodd"
     transform="matrix(0.02316664,0,0,0.02316664,2.8081534,2.8651488)"><path
       d="m 375.4192,51.0238 c -53.469,-15.693 -237.353,0.393 -241.9,3.792 -7.441,6.183 -43.635662,25.801483 -49.267662,30.280483 C 33.326538,139.07028 81.8742,219.2228 78.1382,284.3348 c 0.238,23.096 -9.604,44.184 -14.128,66.403 -1.91,11.644 -1.489,23.688 4.58,34.142 10.67,18.68 33.203,22.467 51.529,29.999 9.119,3.926 17.639,9.493 25.449,15.584 52.584,46.517 81.854,78.371 158.581,67.877 0.392,3.663 3.637,7.262 7.66,5.625 9.42,-3.836 18.773,-7.905 28.275,-11.541 2.031,4.894 7.865,6.291 11.817,1.969 l 0.023,0.031 c 17.589,-14.268 28.775,-33.777 37.083,-54.662 5.814,-12.049 10.575,-24.621 14.213,-37.567 0.411,-1.465 0.357,-2.774 -0.015,-3.901 16.786,-57.843 22.998,-118.807 18.579,-178.864 -0.895,-12.391 -3.235,-24.946 -2.66,-37.389 0.52,-11.242 5.363,-21.876 9.055,-32.346 19.038,-44.509 -10.064,-84.657 -52.76,-98.671 z"
       id="ðŸŽ¨-Background"
       fill="#ffffff" /><path
       d="m 382.1444,-21.2439 0.57015,-0.441877 c 6.16481,-4.836439 11.97731,-11.174989 20.66985,-8.798123 7.13,1.95 10.73,7.85 12.26,14.98 2.17,-2.27 4.28,-4.62 6.34,-7.05 5.6,-6.6 18.11,-3.18 19.78,5.23 3.38,16.94 3.55,34.18 0.26,51.15 -0.5,2.57 -1.09,5.13 -1.78,7.66 3.75,-4.67 7.24,-9.54 10.37,-14.67 3.39,-5.57 11.05,-2.81 11.58,3.14 0.14,1.54 0.22,3.1 0.24,4.67 2.39,0.84 4.04,3.3 3.41,6.32 -3.48,16.62 -7.89,33.01 -13.19,49.12 8.52,-4.52 18.07,-7.2 27.06,-4.01 14.28,5.08 17.68,20.66 14.89,34.07 -3.51,16.86 -14.55,30.97 -28.79,40.22 -1.69,2.54 -3.36,5.1 -4.95,7.71 -0.03,7.37 -1.37,14.72 -4.07,21.55 -3.04,7.67 -8.4,14.3 -15,19.34 -2.31931,5.05138 -8.46325,8.74096 -13.85684,7.7182 l -0.28316,-0.0582 -0.01,0.01 c 1.38,4.94 2.57,9.93 3.6,14.93 7.97516,38.73789 3.93727,79.06186 -3.33676,117.58127 l -0.23324,1.22873 c -6.53,34.28 -14.13,69.78 -28.9,101.61 -13.36,28.78 -36.01,54.09 -68.38,60.37 -38.08,7.39 -80.23,-4.32 -112.98,-23.85 -11.87,-7.08 -0.99,-25.74 10.83,-18.54 17.06,10.38 35.59,17.63 55.19,21.45 18.32,3.56 38.81,4.77 56.38,-2.61 24.47,-10.28 39.01,-35.39 48.21,-59.03 5.42,-13.95 9.48,-28.35 13.26,-42.81 4.87,-18.59 9.41,-37.3 12.82,-56.22 6.35,-35.29 8.41,-71.94 1.69,-107.33 -2.14,-11.29 -5.17,-22.65 -9.12,-33.57 -0.62,-0.77 -1.21,-1.63 -1.74,-2.57 -4.13,-7.24 -6.98,-15.47 -10.05,-23.3 -2.69,-4.67 -5.63,-9.16 -8.75,-13.55 -4.665,-3.585 -9.108,-7.418 -13.178,-11.6 11.821,-7.654 22.252,-17.236 29.757,-29.442 1.238,-2.013 0.452,-3.937 -1.015,-5.022 -5.993,7.497 -13.751,13.846 -21.911,19.471 -4.18,3.58 -8.682,6.796 -13.4,9.702 -3.371,0.667 -6.779,1.125 -10.083,1.501 -9.41,1.07 -18.87,0.67 -28.23,-0.58 -20.24,-2.7 -105.838,-26.274 -141.92,-17.11 -7.516,1.909 -11.06,8.65 -15.04,14.98 -3.45214,5.50607 -7.84343,10.0637 -13.1111,13.81634 l -0.5889,0.41366 c -10.3,7.13 -31.009,29.686 -39.714,49.818 -11.24,25.992 -22.036,103.882 -17.066,104.552 13,1.76 20.2,8.6 30.79,15.94 0.7,0.48 0.29,1.78 -0.61,1.45 -6.99,-2.52 -14.55,-4.01 -21.88,-5.23 -6.63,-1.11 -13.61,-1.31 -20.01,1.06 -9.82,3.64 -14.61,11.87 -16.58,21.15 -0.77,3.63 -1.11,7.42 -1.15,11.17 l -0.0056,1.08756 c 0.0053,11.82321 2.209818,24.9308 10.795639,33.65244 3.65,3.71 8.6,6.21 13.78,6.9 5.670001,0.76 9.170001,-1.8 14.380001,-3.13 6,-1.53 10.68,2.42 10.12,7.57 1.27,1.11 2.5,2.28 3.72,3.47 l 10e-4,0.005 0.009,0.005 c 0.8,0.36 1.56,0.84 2.25,1.42 1.13,0.96 2.08,2.01 2.84,3.14 1.69,0.33 3.31,1.27 4.64,2.99 2.74,3.53 5.27,7.1 7.62,10.74 4.21,4.47 8.4,8.95 12.53,13.5 4.97143,5.46857 9.81061,11.06204 14.68128,16.62297 l 2.43872,2.77703 c 2.63,2.99 5.25,5.98 7.87,8.98 l 0.7815,0.88109 c 2.63576,2.95124 4.65585,5.13009 4.9385,9.37891 0.2,3.15 -3.19,5.29 -6,4.57 -4.33257,-1.11714 -6.34371,-4.51798 -8.93938,-7.89238 l -3.92062,-5.02887 v 0 l -3.69,-4.73875 c -1.83,-2.36 -3.68,-4.71 -5.52,-7.06 -0.55,4.33 -5.13,7.82 -9.31,8.01 l -0.9743,0.0381 c -9.81591,0.32572 -21.74473,-1.05877 -29.2157,-7.97813 -3.36,3.39 -7.54,6.06 -12.69,7.66 -11.700001,3.64 -23.660001,-2.81 -28.390001,-12.62 -9.17,3.93 -19.53,4.72 -29.44,1.83 -5.715942,-1.67536 -7.69267,-8.79929 -3.709598,-13.15946 l 0.179598,-0.19054 0.046,-0.052 c -0.822,-1.069 -1.274,-2.377 -1.347,-3.802 -0.089,-1.73 1.172,-3.564 0.912,-5.179 -0.992,-6.159 -11.036,-1.596 -14.228,-0.262 -0.61,0.254 -1.182,0.375 -1.716,0.394 -4.935,1.437 -10.302,-5.047 -7.717,-10.399 5.79,-11.96 11.44,-24.01 17.3,-35.95 -0.74,0.25 -1.5,0.48 -2.25,0.67 -10.53,2.7 -23.3,-2.48 -20.87,-15.17 0.56,-2.98 3.26,-5.02 5.94,-5.94 5.22,-1.8 9.14,-0.5 13.16,-2.18 4.53,-1.88 9.26,-5.33 13.24,-8.58 4.25,-3.46 7.92,-7.35 11.17,-11.57 1.3,-6.13 3.55,-11.99 7.15,-17.03 0.22,-0.3 0.44,-0.6 0.67,-0.89 -23.0868,-5.5044 -20.063736,-28.20956 -30.247324,-48.33107 l -0.860388,-1.66794 C 26.400225,250.47753 20.366195,235.30277 23.8544,219.9761 c 0.62,-2.71 1.52,-5.3 2.68,-7.72 -1.85,0.23 -3.71,0.44 -5.56,0.65 -4.25,0.48 -8.57,-5 -6.88,-9.03 0.89,-2.11 1.87,-4.15 2.93,-6.13 2.94,-5.46 6.55,-10.42 10.8,-14.9 -7.14,-0.19 -14.29,-0.19 -21.35,-1.01 -6.67,-0.77 -13.68,-4.42 -13.4790117,-12.11 0.2110117,-7.332 6.6440117,-12.882 12.6090117,-16.459 5.871,-7.809 13.318,-14.299 21.741,-19.122 -1.666286,-0.37457 -3.354612,-0.65216 -5.070647,-0.8227 L 21.4144,133.2461 c -4.81,-0.38 -9.13,-1.7 -13.49,-3.71 -3.9,-1.8 -3.84,-7.26 -1.29,-10.01 8.244,-8.912 20.596,-6.01 30.207,-0.903 -0.669167,-0.84917 -1.402222,-1.66708 -2.200903,-2.4497 L 34.1534,115.7081 c -4.722,-4.397 2.365,-11.453 7.071,-7.071 1.487,1.385 2.819,2.89 4.007,4.485 l 0.113,-0.236 v 0 C 51.562108,100.27443 60.656119,88.985866 71.415388,79.940414 l 2.52865,-2.102441 C 93.345754,61.63133 99.3324,53.9499 125.1344,56.3361 c -1.1,-4.686957 -0.99229,-9.959471 -0.74455,-14.294774 l 0.0346,-0.585226 c 0.99,-16.3 7,-35.81 22.9,-43.13 4.13,-1.89 8.81,1.2 7.71,5.93 -0.77,3.35 -1.71,6.61 -2.88,9.78 3.47,-3.65 7.19,-7.06 11.13,-10.2 16.06,-12.8 37.52,-23.81 58.63,-20.21 11.6,1.99 20.7,9.27 30.41,15.35 9.76,6.12 20.66,9.75 32.09,11.06 15.97,1.84 32,-0.01 47.79,-2.93 10.85,-4.73 21.38,-10.27 31.66,-16.24 6.32,-3.67 12.47,-7.68 18.28,-12.11 z M 98.6049,332.7859 c 3.38,-0.87 7.17,-0.86 10.56,-0.01 8.75,2.2 16.89,9.52 17.4,18.75 0.23,4.17 -3.13,8.16 -7.03,9.23 -4.42,1.22 -8.22,-0.94 -10.8,-4.4 -2.77,-3.7 -3.46,-7.71 -6.85,-11.07 l -0.78159,-0.76104 c -2.88168,-2.75563 -7.23928,-6.31809 -11.23841,-5.67896 -0.59,0.09 -1.03,-0.71 -0.43,-1.03 3.26,-1.78 5.4,-4.07 9.17,-5.03 z m 45.4496,-43.4699 c 1.54326,-1.26 3.58261,0.21806 2.8566,2.03004 l -0.0566,0.12996 c -1.83,3.86 0.32,8.39 2.54,11.62 1.91,2.79 -1.7,5.44 -4.24,4.24 -7.14,-3.39 -6.77,-13.42 -1.1,-18.02 z m 26.1,-115.9703 c -0.13,-0.94 1.12,-1.33 1.44,-0.4 5.33,15.47 6.86,29.17 5.99,45.53 l -0.0819,1.45184 c -0.94154,15.75805 -3.70154,32.43637 -13.23811,45.37816 -2.21,2.99 -6.73,1.23 -6,-2.53 2.93,-15.05 8.56,-29.34 10.75,-44.57 2.29,-15.92 3.32,-28.93 1.14,-44.86 z m -49.7798,56.2303 c 0.78,-4.13 7.13,-8.38 10.34,-4.23 1.08,1.41 -0.19,3.14 -1.49,3.66 -1.22,0.48 -2.31,-0.18 -3.51,0.06 -0.97067,0.196 -1.68,0.80142 -2.15239,1.62927 l -0.0976,0.18073 c -0.94,1.8 -3.42,0.46 -3.09,-1.3 z m -2.5998,-32.9001 c 2.28,-4.22 7.53,-6.91 12.02,-4.28 1.48,0.87 0.9,3.4 -0.9,3.32 l -1.0664,-0.0432 c -3.2013,-0.11664 -6.4026,-0.0518 -9.0936,1.97316 -0.6,0.45 -1.26,-0.4 -0.96,-0.97 z m 8.0165,-115.2478 c -12.789,-5.75 -25.508,-0.559 -35.951,7.537 -0.864,0.67 -1.283,1.452 -1.375,2.238 6.972,-2.715 14.395,-4.495 21.491,-5.964 5.802,-1.202 11.659,-2.013 17.523,-2.333 -0.328,-0.589 -0.867,-1.109 -1.688,-1.478 z"
       id="ðŸ–-Ink-4"
       fill="#000000" /></g><g
     fill-opacity=".25"
     id="g327"><circle
       cx="8.4667"
       cy="8.4667"
       r="7.6895"
       fill="none"
       stroke="#000"
       stroke-width=".52917"
       id="circle325" /></g><path
     d="m 7.3344791,11.924083 c 0.00317,-0.336962 0.2952264,-0.395069 0.5726125,-0.350144 0.4696008,0.07597 0.940944,0.129428 1.4169061,0.139062 l 0.082026,0.0014 v 0 c 0.013218,-0.01927 0.035293,-0.03388 0.065263,-0.0371 0.2638385,-0.0285 0.5333653,-0.02388 0.7986413,-0.03171 0.23142,-0.0068 0.469233,-0.02994 0.700623,-0.01178 l 0.01842,0.0016 c 0.282805,0.02739 0.581242,0.171721 0.547089,0.503609 -0.0314,0.307327 -0.325187,0.579393 -0.559789,0.750167 -0.04743,0.03422 -0.09594,0.0663 -0.145849,0.09554 -0.01566,0.01997 -0.0385,0.03389 -0.06489,0.03673 -0.23103,0.124812 -0.485939,0.198638 -0.749807,0.223227 -0.5594227,0.05204 -1.2097666,-0.0043 -1.7470784,-0.246711 C 8.0939576,12.919166 7.9310122,12.820745 7.7869667,12.699881 7.5648428,12.513417 7.332016,12.230678 7.3344837,11.924054 Z m 2.2041788,0.668145 c -0.2242643,-0.0067 -0.4481615,0.02462 -0.6617519,0.0938 -0.1447489,0.04671 -0.2766827,0.136522 -0.4153766,0.19894 0.4674286,0.178268 1.0104591,0.21714 1.4899976,0.184691 0.21038,-0.01425 0.414337,-0.06276 0.604379,-0.146186 -0.02961,-0.02138 -0.05957,-0.04312 -0.09095,-0.06205 -0.09481,-0.05739 -0.193957,-0.10624 -0.297357,-0.145112 C 9.9661757,12.640741 9.7536559,12.599026 9.5386575,12.592236 Z M 9.6138209,9.645571 C 9.553308,9.602138 9.6013376,9.4582903 9.7306278,9.4805237 10.904917,9.682278 10.296475,11.70505 8.7971875,10.595038 8.6186882,10.451044 8.834846,10.133881 9.0272384,10.257198 l 0.068309,0.05266 c 0.2220977,0.170231 0.5894655,0.427596 0.8526603,0.151428 C 10.196649,10.113277 9.844764,9.785946 9.6138201,9.645569 Z M 10.408798,8.1146579 c 0.249625,-0.2129831 0.562714,-0.056025 0.746488,0.1596981 l 0.03239,0.038565 c 0.03676,0.044014 0.07747,0.09527 0.101937,0.150075 0.203651,-0.1734062 0.479815,-0.2954313 0.744081,-0.2162222 0.256285,0.077103 0.40244,0.3217632 0.358431,0.5844395 -0.04993,0.2987102 -0.27595,0.4994819 -0.518794,0.6547315 l -0.06887,0.043733 c -0.291828,0.1860352 -0.564904,0.3734482 -0.805082,0.6291682 -0.03918,0.04156 -0.12386,0.03605 -0.14955,-0.01927 l -0.02068,-0.04452 v 0 l -0.0209,-0.04449 C 10.637862,9.687264 10.455312,9.3263547 10.305426,8.9544976 10.19441,8.6789155 10.158354,8.3281287 10.408796,8.1146606 Z M 7.5632736,8.3075842 7.6012947,8.2636069 C 7.78418,8.0507498 8.0939848,7.9082338 8.3383729,8.1146679 8.5986024,8.334559 8.5475285,8.6981899 8.4316201,8.9786348 8.2920404,9.316882 8.1290152,9.647668 7.9723849,9.97945 l -0.033452,0.07112 c -0.01407,0.02966 -0.027831,0.05934 -0.041557,0.089 C 7.8716569,10.19492 7.7866657,10.20044 7.747795,10.15884 7.5150862,9.911119 7.2517962,9.727824 6.9705825,9.5476736 l -0.08489,-0.054013 C 6.6388571,9.3370766 6.4055099,9.1349233 6.3547416,8.831236 6.3113082,8.56914 6.4565829,8.3229477 6.7131734,8.2467657 6.9780209,8.1682031 7.2535739,8.2893106 7.4575612,8.4630169 7.4818752,8.4068192 7.5237402,8.3538932 7.5632726,8.3075887 Z M 7.89791,6.7805163 C 7.987243,6.8964864 7.89184,7.0860086 7.7614189,7.1159795 7.5998787,7.1531395 7.4366885,7.1305295 7.2780865,7.1766195 7.1327565,7.2188565 6.993543,7.3034775 6.8689787,7.3878249 6.7269223,7.4839774 6.5960882,7.5913234 6.4758673,7.713624 6.4043667,7.7863846 6.3142672,7.9587456 6.2039849,7.9619576 6.0943453,7.9651305 6.2415165,7.6223042 6.2536826,7.5926388 6.3401414,7.3814634 6.4615844,7.1871401 6.6134906,7.0169159 6.9132334,6.6810239 7.5480424,6.3265982 7.8979109,6.78051 Z m 3.347346,-0.092822 0.07483,0.020787 c 0.185149,0.051465 0.382807,0.1147172 0.541653,0.2257012 l 0.01248,0.00879 0.01923,0.01407 c 0.199424,0.1486716 0.48148,0.4453221 0.340248,0.7041174 -0.0098,0.017832 -0.03043,0.019609 -0.04707,0.01232 -0.187901,-0.082298 -0.327207,-0.2466501 -0.527066,-0.315401 l -0.03687,-0.012547 c -0.193554,-0.0652 -0.433018,-0.1337469 -0.641363,-0.1275125 -0.146484,0.047613 -0.344329,0.00816 -0.382464,-0.1701426 l -0.0017,-0.0087 -0.0033,-0.018467 c -0.02196,-0.121841 0.01071,-0.2771704 0.136677,-0.3358902 0.172602,-0.080439 0.340989,-0.044648 0.51475,0.0029 z"
     id="ðŸ–-Ink"
     fill="#000000"
     style="fill-rule:evenodd;stroke:none;stroke-width:0.030583" /></svg>
