<svg width="64" height="64" version="1.1" viewBox="0 0 16.933 16.933" xmlns="http://www.w3.org/2000/svg">
 <g fill-opacity=".25">
  <circle cx="8.4667" cy="8.4667" r="7.6895" fill="none" stroke="#000" stroke-width=".52917"/>
 </g>
 <g id="a" transform="matrix(.023063 0 0 .023063 3.7516 2.4738)" fill-rule="evenodd">
  <path id="b" d="m428.87 194.62c-19.705-119.18-170.16-140.66-268.21-115.58-1.807-22.924-16.249-43.18-34.271-56.504-76.556-55.089-167.19 38.441-149.04 119.05 3.255 24.419 22.775 52.284 50.086 48.105-34.329 64.967-47.744 195.97 27.893 236.47 7.297 5.193 8.508 15.74 14.124 22.503 9.117 10.907 48.068 24.8 69.14 13.666 6.621 6.084 14.26 12.004 23.191 14.109 46.138 36.932 113.56 45.265 169.75 30.026 34.614-5.874 70.496-21.488 88.304-53.389 15.089-24.279 8.136-52.726 1.217-78.423-2.989-14.136-4.935-28.385-6.133-42.754 2.454-2.865 2.591-6.843 3.203-10.466 2.657-12.841 8.463-24.758 11.367-37.562 6.497-29.066 5.369-60.12-0.614-89.246" fill="#fff"/>
  <path id="c" d="m427.29 255.32c-1.138 14.37-7.229 27.3-12.328 40.692 0.557-7.924 0.295-16.17 0.85-24.398-5.93-51.523-75.997-65.059-103.2-104.02 1.03-2.2 1.401-21.871-2.655-16.339-15.733 68.845-109.24 103.38-173.27 103.52-4.842-3.99-14.445 0.225-12.631 8.179 9.574 41.971 11.67 85.876 5.522 128.52-2.897 15.059-3.386 33.179-12.421 46.155-9.59 9.121 1.939 9.853 8.284 7.794 1.769 2.487 3.636 4.902 5.51 7.308-9.114 6.296-22.412 2.862-31.845-1.329-10.493-5.554-16.491-16.317-24.094-24.944-4.151-8.355-10.447-13.157-18.541-17.682-45.029-30.604-43.866-97.738-37.402-146.26 18.836-144.39 179.09-214.05 307.7-163.89 69.457 17.761 102 89.573 100.51 156.69m-418.9-81.743c-27.467-27.354-21.938-75.174-4.672-106.71 34.598-65.887 132.87-63.746 144.63 16.116-50.113 17.167-92.399 53.978-117.58 100.46-8.197-0.876-16.121-4.527-22.387-9.867m420.48 21.07c-19.705-119.18-170.16-140.66-268.21-115.58-1.806-22.925-16.248-43.181-34.271-56.506-76.556-55.088-167.19 38.442-149.04 119.05 3.255 24.419 22.775 52.284 50.086 48.105-34.329 64.967-47.743 195.97 27.893 236.47 7.297 5.194 8.508 15.741 14.124 22.502 9.117 10.908 48.068 24.802 69.14 13.667 5.01 6.147 33.447 24.841 31.374 6.516-2.092-4.937-8.556-6.225-12.86-8.665-9.046-4.994-16.905-12.032-23.08-20.299 19.395-54.688 17.917-115.58 7.052-171.89 64.93-3.266 141.33-31.726 169.97-94.221 19.36 45.48 79.398 51.333 94.564 102.18 0.915 26.707-4.812 53.018-0.659 79.738 1.219 26.172 15.054 52.17 7.055 78.17-22.346 56.698-102.79 65.018-155.94 62.648-12.624-1.042-23.101-7.864-33.479-14.341-6.22-2.952-13.624 3.223-9.813 9.814 14.551 20.305 44.48 22.08 67.462 21.348 59.643-3.536 145.84-21.157 148.94-94.805-1.967-29.195-13.423-57.135-14.259-86.625 2.453-2.865 2.59-6.843 3.202-10.466 2.657-12.842 8.464-24.758 11.367-37.562 6.497-29.066 5.37-60.119-0.614-89.246"/>
 </g>
 <path d="m10.981 13.057c-0.18302 0.05301-0.37947 0.05775-0.56603 3e-3 -0.16921-0.04966-0.34295-0.15894-0.46749-0.30354-0.11063-0.12846-0.18228-0.28457-0.17947-0.4512 3.193e-4 -0.01903 0.00712-0.03491 0.017593-0.04725 0.011269-0.01328 0.027009-0.02239 0.04387-0.02634 0.017341-0.0041 0.035673-0.0026 0.051282 0.0045 0.014131 0.0064 0.026238 0.01732 0.033808 0.03326 0.019139 0.02515 0.038203 0.04991 0.057342 0.07399 0.15389 0.19002 0.30291 0.33202 0.53431 0.38296 0.12555 0.02764 0.25094 0.01538 0.36599-0.02679 0.12316-0.04515 0.23449-0.12451 0.32173-0.22608 0.03942-0.0459 0.08597-0.06463 0.13149-0.06495 0.05158-3.58e-4 0.10256 0.0236 0.14096 0.06192 0.03775 0.03766 0.06303 0.08882 0.06532 0.14234 0.0021 0.04698-0.01332 0.09605-0.05408 0.13983-0.13429 0.14421-0.30833 0.24986-0.49664 0.3044zm-0.0057-2.3799c0.18761 0.11404 0.47347 0.37995 0.27164 0.66266-0.23757 0.24928-0.57961-0.03654-0.74816-0.1658-0.15629-0.10018-0.33189 0.15747-0.18688 0.27445 1.218 0.90174 1.7122-0.74149 0.7583-0.90539-0.10503-0.01806-0.14404 0.0988-0.09489 0.13408zm-1.7549-0.50179c-0.060301-0.03856-0.13123-0.0518-0.20984-0.01603-0.061431 0.02794-0.16918 0.12107-0.24416 0.24349-0.0513 0.08376-0.087679 0.18201-0.080106 0.28436 0.00177 0.02377-7e-3 0.04129-0.020879 0.05425-0.010943 0.01023-0.026743 0.01775-0.045305 0.0201-0.015762 2e-3 -0.0334 1.97e-4 -0.047743-0.0043-0.027284-0.0085-0.04172-0.02622-0.047164-0.04066-0.052505-0.13943-0.02988-0.29502 0.028956-0.4354 0.079406-0.18944 0.22362-0.34813 0.3181-0.39929 0.16168-0.087576 0.35241-0.09161 0.51432-0.00243 0.13783 0.075933 0.22401 0.19853 0.30972 0.3235 0.01822 0.02656 0.036304 0.05293 0.054994 0.07885 0.037456 0.05191 0.041185 0.1034 0.02668 0.14754-0.01607 0.04891-0.057044 0.09018-0.10828 0.11179-0.047357 0.01996-0.10232 0.02277-0.15096 0.0022-0.041085-0.01733-0.07879-0.05111-0.10265-0.10843-0.040179-0.09653-0.10713-0.20303-0.19569-0.25966zm3.0625 0.21476c-0.0413 0.02151-0.07361 0.028-0.11942 0.01428-0.02533-0.0076-0.05038-0.02219-0.06997-0.0418-0.01943-0.01942-0.03345-0.04359-0.03889-0.07039-0.0134-0.06615-0.04959-0.12806-0.10116-0.16842-0.04408-0.0345-0.09972-0.05278-0.16143-0.04247-0.06659 0.01112-0.13004 0.05383-0.17374 0.10418-0.0146 0.01685-0.02605 0.03599-0.03757 0.05499-0.02153 0.03555-0.04246 0.06858-0.07215 0.09469-0.01125 0.0099-0.02822 0.01681-0.04464 0.01681-0.0066 0-0.01346-0.0011-0.01991-0.0031-0.06629-0.06653-0.07903-0.11699-0.07689-0.16705 0.0022-0.05249 0.02293-0.10564 0.05638-0.15522 0.07845-0.11632 0.2274-0.21169 0.32791-0.2333 0.13765-0.029581 0.27435 0.00598 0.38396 0.082814 0.11277 0.079107 0.19634 0.20193 0.22239 0.34034 0.0063 0.03333 0.0036 0.06932-0.0091 0.10051-0.01241 0.03049-0.03402 0.05659-0.06577 0.07313zm-2.7589-1.4549c-0.082609 0.08048-0.18038 0.092945-0.27929 0.10404-0.05496 0.00626-0.098832 0.011233-0.142 0.020972-0.11867 0.026789-0.23596 0.067127-0.34298 0.12523-0.11187 0.06074-0.23378 0.13399-0.32148 0.22783-0.020851 0.022326-0.040515 0.045763-0.060199 0.069247-0.017956 0.021411-0.035249 0.042028-0.053466 0.061908-0.020935 0.02283-0.040805 0.046762-0.060572 0.070629-0.012223 0.020141-0.014641 0.02509-0.017097 0.030244-0.00374 0.00775-0.00803 0.016415-0.012932 0.025715-0.00672 0.012736-0.014632 0.026687-0.022905 0.03933-0.013754 0.02311-0.02114 0.029478-0.027518 0.032317-0.010589 0.00467-0.020626 7e-3 -0.030365 0.00579-0.00915-0.00121-0.017732-0.0056-0.026229-0.012746-0.042411-0.035837-0.054914-0.094638-0.053635-0.15706 0.00196-0.094726 0.036883-0.19961 0.069088-0.26408 0.074887-0.1498 0.17875-0.30554 0.30364-0.41734 0.14251-0.12763 0.29842-0.22424 0.4775-0.29082 0.11129-0.041384 0.24014-0.079378 0.36138-0.074578 0.087268 0.00345 0.17058 0.029394 0.23938 0.094179 0.042252 0.039768 0.062533 0.096336 0.062533 0.15286 0 0.05765-0.021065 0.11565-0.062841 0.15634zm2.9269 0.73701c-0.0052 0.00859-0.01252 0.014539-0.02062 0.018105-0.0085 0.00374-0.01795 0.00486-0.02703 0.00327-0.0091-0.00149-0.01765-0.0056-0.02446-0.011896-0.0065-0.00598-0.01151-0.013978-0.01375-0.023736-0.05485-0.24088-0.16134-0.4201-0.38864-0.53567-0.11181-0.056856-0.24038-0.092973-0.3621-0.12178-0.03537-0.0084-0.07274-0.013791-0.11038-0.019291-0.11796-0.017218-0.23677-0.036948-0.31367-0.1323-0.04633-0.057435-0.06578-0.13089-0.05478-0.19806 0.01035-0.063252 0.04731-0.12124 0.1145-0.156 0.16726-0.086484 0.37512-0.00159 0.54404 0.070675 0.01253 0.00532 0.02483 0.010626 0.03687 0.015706 0.16518 0.069723 0.31584 0.16176 0.43968 0.29338 0.09826 0.10442 0.1893 0.25878 0.22597 0.41758 0.03051 0.13211 0.02333 0.26698-0.04561 0.37999z" fill-rule="evenodd"/>
</svg>
