<svg width="64" height="64" version="1.1" viewBox="0 0 16.933 16.933" xmlns="http://www.w3.org/2000/svg">
 <g fill-opacity=".25">
  <circle cx="8.4667" cy="8.4667" r="7.6895" fill="none" stroke="#000" stroke-width=".52917"/>
 </g>
 <g transform="matrix(.027406 0 0 .027406 1.9416 .42825)" fill-rule="evenodd">
  <path id="a" d="m405.26 225.32c11.378-8.172-5.588-35.059-11.352-43.059-5.014-10.436-10.028-20.873-15.043-31.31 0.61-8.559-7.748-16.174-16.007-13.57-7.185-5.153-19.219-2.686-22.871 5.382-79.447-34.602-216.91-20.207-224.02 86.565-15.368 30.4-30.6 61.06-44.235 92.281-18.918 1.016-28.088 23.999-16.825 38.852 1.499 24.119 16.79 26.028 37.204 24.955 8.198 2.159 16.696 3.329 22.844 9.66 4.673 4.775 7.849 10.83 10.914 16.705 14.145 27.106 32.116 50.554 56.476 69.305 37.883 28.351 89.165 48.706 136.4 34.905 101.56-39.882 121.5-199.27 86.514-290.67z" fill="#fff"/>
  <path id="b" d="m193.32 69.993c66.35-15.41 140.89 5.27 186.94 56.22 3.24 3.58 2.89 8.24 0.04 11.26 1.33 1.08 2.63 2.19 3.95 3.3 1.38 1.17 1.18 3.52 0 4.71-1.17 1.17-3.6 1.41-4.71 0l-1.643-2.068c-0.81816-1.0332-1.627-2.07-2.407-3.132-0.95 0.35-1.88 0.72-2.81 1.08 14.07 9.35 25.8 21.77 33.84 36.72 8.7 16.17 14.25 33.43 17.86 51.39 6.4351 32.038 7.3684 64.896 6.5078 97.475l-0.0478 1.745c-1.11 39.27-4.94 79.19-21.5 115.3-13.28 28.94-36.88 55.55-66.47 68.22-17.04 7.29-35.36 10.4-53.87 9.1-9.76-0.68-19.49-2.22-28.99-4.57l-2.282-0.56708c-8.6543-2.1673-17.63-4.68-25.018-9.6329-7.58-5.09-2.47-15.2 5.89-13.97 10.07 1.49 19.66 5.69 29.65 7.87 9.77 2.14 19.66 3.26 29.67 2.97 17.71-0.5 33.84-5.94 48.48-15.82 55.97-37.79 62.77-113.77 64.23-175.17 0.71-30-0.39-60.39-7.29-89.7-6.63-28.18-18.04-55.93-34.19-80-3.56 1.33-7.12 2.44-10.91 2.79-6.7558 4.0611-14.79 4.1686-22.602 4.1701l-1.0884-9e-5c-8.13-0.01-16.26-0.49-24.35-1.22-28.63-2.54-58.09-8.98-86.87-4.88l-1.1753 0.1718c-11.85 1.7822-26.535 5.5224-35.235 14.048-9.4 9.2-3.1 26.61 4.34 32.14 4.81 3.58 6.31 11.64 0 14.89-12.46 6.43-42.62 2.86-46.01 6.42-4.0696 4.2554-3.7848 10.741-3.9016 16.263l-8e-3 0.36671c-0.42 15.72-0.03 31.39 1.3 47.07 1.28 15.16 4.19 30.35 4.84 45.55 0.22 5.01-5.83 6.53-9.14 3.78-0.65-0.54-1.32-1.05-1.99-1.51-6.01-4.26-12.84-6.06-20.17-7.2-0.385-0.0612-0.68578-0.25266-0.90234-0.50723l-0.0877-0.11277-0.78 0.64c1.52 1.89 2.82 4.03 3.85 6.43 0.21 0.48-0.24 1.09-0.77 0.77-10.14-6.03-21.18-8.59-32.85-6.15-10.5 2.19-20 8.85-23.08 19.51-2.83 9.81-0.75 21.12 5.6 29.19 9.39 11.96 24.64 10.88 38.32 11.43 2.68 0.11 5.67 1.41 6.92 3.97 1.47 3.02 1.37 5.08 0 8.09-0.19 0.43-0.44 0.82-0.73 1.17 1.1583 0.95833 2.2542 2.0069 3.3222 3.0764l3.5719 3.5972c2.4434 2.4676 4.873 4.9564 7.2159 7.5064 6.88 7.5 13.35 15.48 19.44 23.63l0.56269 0.7611c7.1333 9.7582 14.533 23.85 26.897 26.929 4.24 1.06 8.18 3.15 9.44 7.74s-1.71 9.04-5.7 10.96c-6.92 3.33-15.7-0.63-21.41-4.83-12.314-9.0709-20.359-23.869-27.922-36.896l-2.0711-3.5603c-3.8951-6.7215-7.7003-13.522-10.947-20.584-1.85-4.03-3.84-8.03-5.56-12.12-0.5-1.19-1-2.4-1.39-3.64-0.55 0.12-1.11 0.2-1.64 0.23-16.51 1.08-35.52-1.54-47.45-14.07-16.45-17.27-18.38-48.15 0.31-64.63 1.97-1.74 4.19-3.27 6.59-4.58-3.34-5.65-5.55-12.2-7.18-18.35-2.38-8.98-3.71-18.13-4.37-27.39-1.33-18.89 0.88-38.12 5.42-56.47 16.46-66.51 67-121.64 134.52-137.32zm-119.57 275.99c-3.267-18.949 34.65-4.9364 42.919-3.6161l0.24142 0.0361c9.4842 1.3167 4.1983 17.952-5.1359 12.997l-0.28408-0.15681c-5.0493-2.8933-10.604-4.9678-15.899-7.4186l-1.1305-0.53139c-4.21-2.02-18.12-11.09-19.63-1.31-0.08 0.54-0.99 0.53-1.08 0z"/>
 </g>
 <path id="c" d="m9.4375 10.441c0.7418-0.02938 2.1153 0.10661 2.6755 0.5453 0.57616 0.43436-0.14659 1.8331-0.22747 1.8301-0.82794-0.03106-1.6487 0.08759-2.4671 0.19777l-0.16478 0.02217c-0.55227 0.076084-1.3221 0.20977-1.5845-0.42741-0.32574-1.1024 0.661-2.173 1.7684-2.1679zm1.3072 0.4672c-0.43949-0.06608-0.88533-0.07619-1.3328-0.03154-0.39817 0.03978-0.77273 0.1484-1.022 0.4506 0.059908 0.01007 0.11296 0.05428 0.14933 0.11314 0.53382 0.0162 1.0853-0.0073 1.6255 0.02108 0.30188 0.0066 0.6117 0.03876 0.91312 0.02468 0.25977-0.01213 0.18838-0.22945 0.2248-0.41296-0.172-0.07719-0.37806-0.13757-0.55797-0.165zm-4.8594-4.1796c0.53299-0.87984 2.1427-0.33119 2.9492-0.15024 0.61903-0.13476 0.68132 0.89493 0.037135 0.78774 0.35049 0.50788 0.21556 1.1722-0.25832 1.5589-1.2353 1.0295-3.5031-0.65238-1.9375-1.8526 0.017864-0.15082 0.21725-0.19369 0.33501-0.251l-0.042124-0.00988c-0.34419-0.079671-0.69266-0.13254-1.0345-0.018631-0.034713 0.00203-0.055468-0.033922-0.048971-0.064309zm4.3588 1.8316c0.27252 0.16565 0.68775 0.55191 0.39459 0.96257-0.34509 0.3621-0.84193-0.053074-1.0868-0.24084-0.22702-0.14552-0.4821 0.22874-0.27147 0.39866 1.7692 1.3098 2.4872-1.0771 1.1015-1.3152-0.15257-0.026236-0.20924 0.14352-0.13784 0.19476zm2.8022-2.7919c0.01967-0.00217 0.02801 0.025193 0.01559 0.037569-0.33606 0.33183-0.75588 0.57507-1.1319 0.85819 0.60647 0.047348 1.1597 0.51033 1.3477 1.0844 0.1672 0.9129-1.1518 1.3326-1.8559 1.0569-0.58088-0.20051-1.0021-0.76429-0.68529-1.3629-0.33137 0.00322-0.66663-0.43043-0.42235-0.67987 0.2165-0.22112 0.46829-0.087226 0.56616-0.13952l0.10485-0.055902c0.65366-0.3473 1.3314-0.68123 2.061-0.79889zm-4.5007 1.8535c-0.42011-0.66031-2.0683-0.67201-2.0241 0.34616 0.066584 1.3458 2.7313 1.0405 2.0241-0.34616zm3.4011-0.56391c-0.30989-0.066297-0.5815 0.28932-0.75526 0.19766-0.98258 1.1217 1.0169 1.766 1.6717 0.90882 0.35832-0.46298-0.47734-1.0963-0.9164-1.1065zm-4.1531 0.62108c0.40676-0.14825 0.4034 0.45472 0.10235 0.57388-0.34429 0.13537-0.45847-0.58207-0.10235-0.57388zm3.6529 0.064848c-0.0214-0.36987 0.53588-0.53844 0.67601-0.17268 0.19769 0.49611-0.64682 0.74447-0.67601 0.17268z" fill="#231f20" fill-rule="evenodd"/>
</svg>
