<svg width="64" height="64" version="1.1" viewBox="0 0 16.933 16.933" xmlns="http://www.w3.org/2000/svg">
 <g fill-opacity=".25">
  <circle cx="8.4667" cy="8.4667" r="7.6895" fill="none" stroke="#000" stroke-width=".52917"/>
 </g>
 <g transform="matrix(.91304 0 0 .91304 .73624 .73611)" fill-rule="evenodd">
  <g transform="matrix(.02818 0 0 .02818 2.2967 .43549)">
   <path id="a" d="m195.4 82.672c151.57-7.4537 162.16 36.6 182.97 64.685 10.329 13.938 36.997 34.579 41.421 82.245 3.071 33.088-16.478 71.225-16.478 100.79 0 15.092 18.478 47.492 9.8759 69.489-19.147 48.959-59.687 103.29-111.35 103.29-51.66 0-147.02-28.472-204.1-110.2-18.697-26.771-53.907-302.85 97.663-310.3z" fill="#fff"/>
   <path id="b" d="m416.01 333.35c-3.31-3.65-5.88-6.65-6.74-11.67-0.36-2.091-0.52-4.24-0.59-6.4 13.29-18.58 26.21-62.467 26.21-86.471 0-33.865-12.49-66.449-32.99-93.399-39.96-52.491-106.48-79.401-171.58-77.29-62.34 2.009-128.65 24.989-167.54 74.111-129.02 162.98-20.736 340.99 58.576 378.03 6.904 3.224 29.202 2.104 26.095-4.781-8.924-19.779-15.955-56.208-17.595-64.409 2.54 1.711 5.1 3.381 7.67 5.111 4.55 3.049 10.65 6.539 16.37 5.529 0.27-0.049 0.44-0.339 0.45-0.589 0.26-5.371-3.58-10.891-6.96-14.721-4.69-5.32-9.15-10.77-14.2-15.76-2.15-2.13-4.33-4.24-6.51-6.35-0.28-12.66 0.57-25.379 2.84-38.109 3.93-22.07 10.71-43.57 18.5-64.73 6.51-4.801 12.83-9.85 18.68-15.371 14.09-13.29 24.84-29.549 34.06-46.649 0.11-0.051 0.23-0.111 0.34-0.16 17.87-8.311 35.59-16.94 53.17-25.84 9.07-4.591 18.08-9.291 27.09-13.99 4.9-2.561 9.95-4.891 14.96-7.301-1.35 6.92-3.17 13.74-5.38 20.45-1.82 5.511 3.74 9.58 8.66 8.67 16.75-3.099 32.94-9.329 47.51-18.149 7.22-4.37 14.09-9.42 20.46-14.961 6.37 9.49 14.11 18.39 21.92 26.051 5.27 5.17 10.78 10.089 16.5 14.75-2.59 17.83-4.81 35.699-7.62 53.49-1.47 9.3-3.24 18.599-4.35 27.949-1.21 10.19 2.16 17.45 8.87 24.9 9.38 10.411 9.37 25.47 5.78 38.401-0.44 1.599-0.99 3.16-1.56 4.709-0.12 0.32-0.47 1.19-0.6 1.531 0 0.01 0 0.02-0.01 0.039 0 0.01-0.01 0.021-0.01 0.03-0.01 0-0.01 0.01-0.02 0.021v0.029l-0.01 0.01c-0.42 0.98-0.87 1.94-1.32 2.9-2.05 4.33-4.34 8.561-6.72 12.721-11.7 20.539-26.48 39.329-43.32 55.909-7.84 7.72-15.99 14.901-25.2 20.781-1.94 1.23-3.92 2.419-5.95 3.509-1.09 0.59-2.21 1.141-3.33 1.7-1.64 0.81-0.96 0.49-1.96 0.89-1.81 0.711-3.66 1.33-5.55 1.82-1.01 0.26-2.03 0.481-3.06 0.67-0.01 0-0.03 0.01-0.06 0.01-0.01 0-0.02 0.01-0.03 0-0.01 0.01-0.03 0.01-0.05 0.01-0.38 0.03-1.06 0.09-1.19 0.09-14.36 0.051-28.6-1.879-42.5-5.449-7.53-1.94-15.05-4.291-22.13-7.52-3.6-1.65-7.12-3.48-10.49-5.551-1.51-0.929-2.94-2.05-4.53-2.859-2.38-1.221-4.71-1.09-7.28-1.2-3.92-0.161-6.7 3.94-5.74 7.54 1.17 4.389 3.01 6.979 6.79 9.59 3.02 2.08 6.22 3.919 9.48 5.589 7.1 3.651 14.61 6.62 22.21 9.05 14.23 4.54 29.21 7.33 44.11 8.351 10.85 0.74 20.25-0.711 30.13-5.281 10.43-4.83 19.78-12.04 28.43-19.52 19.37-16.74 36.22-37.05 50.51-58.24 13.43-19.92 23.85-41.61 20.42-66.34-1.37-9.92-5.41-18.459-12.12-25.879"/>
  </g>
  <path d="m10.462 12.838c-0.18884-0.07704-0.35734-0.20554-0.48052-0.3697-0.042828-0.05707-0.053929-0.11733-0.044947-0.17245 0.010103-0.06197 0.046765-0.11814 0.096772-0.15582 0.05016-0.03779 0.1129-0.05643 0.17356-0.04693 0.05271 0.0083 0.10518 0.03712 0.1467 0.09697l0.0087 0.01197c0.07324 0.09908 0.16867 0.18037 0.27741 0.23277 0.10481 0.0505 0.22202 0.07407 0.34332 0.06037 0.23102-0.02609 0.39025-0.15104 0.5595-0.3207 0.02098-0.02142 0.04197-0.04352 0.06307-0.06596 0.01332-0.02035 0.03181-0.03343 0.05233-0.04029 0.02279-0.0076 0.04857-0.0072 0.07218 0.0011 0.02278 0.0079 0.04313 0.02301 0.05678 0.04305 0.01297 0.01905 0.02033 0.04259 0.01794 0.06966-0.01549 0.17583-0.10742 0.33275-0.238 0.45597-0.14502 0.13685-0.33726 0.23152-0.51824 0.26472-0.19939 0.03658-0.40257 0.01037-0.58654-0.06468zm0.6806-2.7125c0.21213 0.12894 0.53536 0.42961 0.30715 0.74928-0.26862 0.28186-0.65537-0.04131-0.84595-0.18747-0.17672-0.11327-0.37527 0.17806-0.21131 0.31032 1.3772 1.0196 1.936-0.83841 0.85741-1.0237-0.11876-0.02042-0.16287 0.11171-0.10729 0.1516zm-2.4679-1.1861c0.023441-0.29093 0.46652-0.35699 0.5106-0.069107 0.03947 0.25788-0.00696 0.49478-0.12315 0.72696-0.11099 0.22181-0.38996 0.11833-0.41105-0.08365-0.028276-0.27075 0.00903-0.39323 0.023611-0.5742zm3.3728-0.1288c0.06177-0.080905 0.15096-0.13613 0.25783-0.10492 0.33387 0.097562 0.23547 0.57156 0.11821 0.80227-0.06372 0.12529-0.26965 0.15706-0.36272 0.04674-0.1517-0.1799-0.22434-0.53917-0.03149-0.71637 0.0053-0.00916 0.01104-0.018397 0.01817-0.027727zm-2.9901-1.1442 0.052738-0.00923c0.16315-0.028214 0.36601-0.055329 0.48143 0.075838 0.061209 0.069556 0.082281 0.19883 0 0.26541-0.14473 0.11714-0.30474 0.071746-0.47818 0.081663-0.14293 0.0082-0.2803 0.031858-0.41798 0.071212-0.30204 0.086326-0.54816 0.24392-0.80612 0.41697-0.033854 0.022698-0.068404-0.020594-0.05225-0.05225 0.14891-0.29168 0.4375-0.53127 0.72657-0.67732 0.15428-0.077955 0.32311-0.14262 0.4938-0.17229zm2.6857-0.13066 0.04037 0.00826c0.43928 0.091821 1.01 0.27524 1.218 0.70672 0.0079 0.061015-4.46e-4 0.07409-0.0073 0.082631l-0.0022 0.00286c-0.0056 0.00727-0.01009 0.017352-0.03654 0.025653-0.0074-0.00178-0.01475-0.00364-0.02224-0.00557-0.09535-0.024988-0.17079-0.059414-0.24383-0.095133l-0.07919-0.039014c-0.09188-0.045048-0.18456-0.088457-0.28279-0.1205-0.20962-0.068373-0.42524-0.11654-0.6442-0.14226-0.04745-0.00557-0.09316-0.021584-0.12921-0.04904-0.03422-0.026056-0.06036-0.062129-0.07229-0.11008-0.01545-0.06206-0.01101-0.10904 0.02229-0.16502 0.02504-0.042046 0.06086-0.071181 0.10199-0.087918 0.04194-0.017058 0.08968-0.021081 0.13713-0.011573z"/>
  <path d="m12.926 9.425c-0.06677 0.18169-0.16837 0.37083-0.29262 0.52374-0.50271 0.4257-0.99118 0.19-1.2392-0.38696-0.09424-0.40773 0.15598-0.84694 0.42112-1.1469 0.38292-0.3838 1.0078-0.18237 1.1839 0.27388 0.01069 0.059114 0.01716 0.11809 0.02025 0.17687-0.0037 0.19101-0.02667 0.35426-0.09346 0.53574m-4.8321-0.34281c0.66225-0.78773 1.9012-0.82985 1.8696 0.38254-0.14226 1.5346-2.5378 1.1579-1.8696-0.38254zm5.0404-0.65713c-0.02321-0.039311-0.04896-0.077342-0.07708-0.11372-0.01039-0.00617-0.01636-0.061048-0.05456-0.06511-0.51057-0.56326-1.4075-0.24368-1.7316 0.31757-0.059188 0.070968-0.10746 0.15404-0.14306 0.24182-0.31932-0.058571-0.6916-0.047196-0.98858 0.073418-0.29449-0.76896-1.186-0.83761-1.7736-0.50906-0.36543 0.17973-0.60238 0.55611-0.95778 0.76287-0.83546 0.060127-1.7321-0.12706-2.5525 0.082509-0.647 0.13452-0.10614 0.46213 0.00239 0.24349 0.77347-0.22853 1.6898-0.035415 2.4929-0.086903 0.083504 0.14125 0.24363 0.25683 0.40323 0.2519 0.17236 1.5279 2.4006 1.2746 2.4774-0.08367 0.08719-0.13785 0.19562-0.26977 0.35082-0.35565 0.05942-0.012296 0.11681-0.028286 0.16927-0.053026 0.08967-0.012655 0.22782 0.025357 0.3103 0.1 0.28256 1.6954 1.9105 1.498 2.2014 0.012702 0.0058-0.00589 0.02196-0.028047 0.03437-0.063572 0.09958-0.13166 0.34336-0.1806 0.3044-0.40287-0.03467-0.22232-0.31542-0.21967-0.46771-0.3527z"/>
 </g>
</svg>
