<svg width="64" height="64" version="1.1" viewBox="0 0 16.933 16.933" xmlns="http://www.w3.org/2000/svg">
 <g fill-opacity=".25">
  <circle cx="8.4667" cy="8.4667" r="7.6895" fill="none" stroke="#000" stroke-width=".52917"/>
 </g>
 <g id="a" transform="matrix(.02181 0 0 .02181 3.4689 2.6539)" fill-rule="evenodd">
  <path id="b" d="m418.58 283.19c-0.398-22.402-0.838-45.252-4.168-67.436-3.256-21.688-12.213-41.292-27.605-57.041-32.693-33.453-80.083-41.624-124.2-49.112l-75.419-12.803c-23.009-3.905-47.556-10.147-70.803-4.609-11.455 2.729-21.183 9.069-30.074 16.57-8.57 7.23-17.784 14.994-23.591 24.721-5.817 9.741-7.818 21.128-9.709 32.145-2.133 12.421-3.79 24.939-4.967 37.487-2.359 25.14-2.681 50.469-0.97 75.661 0.829 12.219 2.148 24.403 3.832 36.533 0.835 6.015 1.779 12.015 2.845 17.994 0.314 1.763 0.553 3.715 0.875 5.687-2.379 6.766-3.731 13.773-3.622 20.75 0.321 20.552 17.668 33.491 35.156 40.438 10.14 4.028 20.741 6.765 30.704 11.265 10.481 4.733 17.615 12.406 24.781 21.159 13.667 16.694 29.09 31.698 46.701 44.216 37.338 26.541 84.63 39.094 129.93 29.566 10.87-2.286 21.836-5.836 31.607-11.185 10.316-5.647 18.073-13.83 24.587-23.505 12.095-17.961 20.769-38.186 27.331-58.767 6.693-20.994 11.444-42.026 14.035-63.917 2.582-21.82 3.126-43.862 2.735-65.817z" fill="#fff"/>
  <g>
   <path id="c" d="m177.91 18.764c31.21-4.293 74.287 9.66 89.83 37.794 74.206-17.494 167.8-18.067 228.96 40.17 63.819 69.082-16.341 160.17-69.494 180.7 3.87 18.807-2.164 139.29-44.859 193.04-33.884 45.536-112.79 66.551-149.3 12.162l-0.28482-0.44877c-3.9118-6.2813-0.54279-6.0796 3.4728-1.4072 35.754 31.442 84.367 31.979 121.83-1.203 70.208-60.65 62.969-209.36 29.561-295.39-95.13-10.448-196.98 18.385-262.69 89.994l4.443 26.748c0.757 4.557 1.617 9.11 2.273 13.683 0.42 2.93 0.467 5.844-1.563 8.216-6.703 7.83-18-3.936-27.295-8.616-2.744-0.386-5.493-0.535-8.189-0.345-44.658 5.752-35.859 92.382 13.223 77.197 4.124-2.569 7.667-1.785 9.267 1.943 11.699 10.716 19.413 29.828 38.85 48.236 6.858 6.905 13.099 12.682 20.813 18.221 4.531 4.582 18.203 9.254 13.869 17.095-8.196 17.842-56.527-38.203-65.072-53.702-26.773 10.572-56.443 6.981-84.188 4.397-146.37-7.61-126.83-161.9-6.854-259.31 22.584-16.626 47.501-30.189 73.402-40.626 3.536-1.425 1.991-7.231-1.595-5.786-17.138 6.907-33.845 15.128-49.771 24.643l-0.02411-5.6886c-0.02333-9.5812 0.12694-19.556 1.7911-28.31 0.832-6.066 2.231-12.545 4.385-17.419 2.663-14.943 44.378-66.235 115.21-75.983zm-85.263 314.98c2.26-2.147 6.479 0.413 8.491 0.349 5.145 0.704 10.033 2.877 13.845 5.559 2.517 1.41 4.281 2.734 5.755 3.952l0.04-0.011c-0.011 0-0.025 0.011-0.037 0.014l0.13874 0.0937c2.1463 1.5249 10.003 10.114 5.0393 7.8042-0.37-0.481-0.749-0.943-1.131-1.396-0.041 0.062-0.098 0.123-0.166 0.182l0.27883 0.41379c4.219 6.3465-3.0652-0.33979-4.1858-2.1158-0.053 0.043-0.113 0.072-0.172 0.103l1.4594 1.7762c0.20404 0.25218 0.36445 0.45351 0.49757 0.62376l0.30775 0.2971c4.878 4.7947 5.0304 9.1097-0.63675 2.0209 0.223 0.334 0.402 0.688 0.427 1.002l0.33585 0.42813c4.4496 5.7338 0.83038 3.6975-1.3807 1.2486l-0.18503-0.21064 0.0379 0.0572c2.057 3.1688-2.0243 0.9454-2.7455-0.74962l-0.0304-0.0767c-0.78587-0.6412-1.2695-1.3608-1.4353-1.5425l-0.0307-0.0305c-3.826-3.92-9.372-7.237-14.083-8.744-0.683-0.13-1.374-0.234-2.072-0.308-2.833-0.632-5.697-1.065-8.591-1.299-0.354-0.042-0.713-0.302-0.981-0.638-4.3762-0.14759-3.0253-1.9413-1.2097-2.2744l0.03178-5e-3 -0.3602-0.0303c-2.8084-0.27409-4.7264-1.2818-1.8868-1.9002l0.35984-0.0716c-0.044-0.069-0.083-0.138-0.121-0.207-2.432-0.267-0.845-2.631 0.505-2.059-0.568-1.857 2.028-0.93 2.352-1.206 0.247-0.274 0.554-0.516 0.731-0.529 0.782-0.552 0.403-0.502 0.808-0.52zm14.88-30.066-0.57 0.333c-0.461 0.269-0.935 0.448-1.411 0.553 0.672 0.286 1.336 0.595 1.993 0.925-0.0107-0.40333-0.0182-0.80622-0.0182-1.2084z"/>
   <path transform="matrix(45.849 0 0 45.849 -159.05 -121.68)" d="m10.325 11.991c-0.1562 0.06141-0.34074 0.07591-0.50197 0.02359-0.15416-0.05004-0.29414-0.1614-0.37885-0.30145-0.075439-0.12474-0.10695-0.27277-0.062359-0.42035 0.00211-0.0071 0.00909-0.01158 0.015725-0.01334 0.036472 0.0332 0.059017 0.0662 0.081531 0.09901 0.037963 0.05534 0.076011 0.1101 0.12823 0.15741 0.075989 0.06883 0.17836 0.12472 0.27997 0.14316 0.099486 0.01809 0.2013 0.0021 0.29038-0.04551 0.05417-0.02893 0.09797-0.06764 0.14134-0.1065 0.04723-0.04232 0.09371-0.0853 0.15875-0.10919 0.05212-0.01915 0.10688-3e-3 0.14894 0.02905 0.04521 0.03444 0.07771 0.08835 0.07592 0.14471-0.0027 0.08732-0.04102 0.16016-0.09647 0.22025-0.07498 0.08125-0.18099 0.13978-0.28114 0.17916zm-0.18544-2.176c0.17379 0.10564 0.4386 0.35196 0.25164 0.61385-0.22007 0.23092-0.53692-0.03385-0.69306-0.15359-0.14478-0.0928-0.30745 0.14587-0.17312 0.25424 1.1283 0.83532 1.5861-0.68688 0.70244-0.83871-0.0973-0.016729-0.13343 0.091524-0.08791 0.1242zm-1.828-1.4637c0.23687-0.011325 0.44561 0.095045 0.67133 0.14338 0.2086 0.044699 0.41412 0.017861 0.617-0.038989 0.32925-0.092264 0.46536 0.41175 0.1406 0.50998-0.2365 0.071527-0.48552 0.076497-0.7282 0.039634-0.21558-0.032771-0.39629-0.13772-0.60183-0.19882-0.1764-0.052408-0.3839-0.030624-0.57019-0.0059218l-0.07231 0.00973c-0.10748 0.014475-0.21553 0.028994-0.32195 0.050006-0.092338 0.018252-0.18451 0.051647-0.27875 0.055517-0.010701 4.61e-4 -0.019774-0.01344-0.013028-0.022714 0.10948-0.1503 0.32048-0.26889 0.48832-0.34799l0.011379-0.00529c0.20718-0.096586 0.42697-0.17744 0.65764-0.18844zm-0.086775 1.1083-3.07e-5 -0.00518c3.225e-4 -0.14676 0.085803-0.48184 0.29708-0.48184 0.13199 0 0.21212 0.22805 0.22599 0.46313l4.78e-4 0.00962c0.00613 0.14615-0.033987 0.46562-0.22648 0.46562-0.19453 0-0.29504-0.30258-0.29704-0.45131zm3.1105 0 2.3e-5 -0.00518c-3.22e-4 -0.14676-0.0858-0.48184-0.29708-0.48184-0.12869 0-0.20808 0.21679-0.22483 0.44552l-0.0012 0.017617c-0.0084 0.14122 0.02918 0.47521 0.22599 0.47521 0.19453 0 0.29505-0.30258 0.29704-0.45131zm-0.0033-1.287 0.01511 3.31e-4c0.2469 0.00857 0.50087 0.15482 0.56678 0.4005 0.0034 0.012753-0.01231 0.021329-0.02164 0.012584-0.20301-0.19007-0.47604-0.00846-0.67933 0.086744l-0.07467 0.034494c-0.26207 0.12193-0.56014 0.26527-0.85113 0.17441-0.1382-0.043155-0.22598-0.18515-0.18656-0.32858 0.03508-0.12762 0.18911-0.23486 0.32253-0.1888l6e-3 0.00222c0.1084 0.041463 0.24168-5.478e-4 0.35363-0.041971l0.09197-0.034537c0.14788-0.05612 0.29645-0.11889 0.45725-0.11738z" fill-rule="evenodd"/>
   <path transform="matrix(45.849 0 0 45.849 -159.05 -121.68)" d="m11.266 10.749c-0.01681-0.05021-0.1033-0.04584-0.09798 0.01327 0.0061 0.06753-0.01702 0.14283-0.08171 0.17561-0.06774 0.03433-0.14395 0.0035-0.18527-0.05542-0.03593-0.05118-0.0607-0.10685-0.10591-0.15149-0.04203-0.04151-0.09315-0.07352-0.14907-0.09253-0.04355-0.0148-0.08873-0.01873-0.13255-0.01387-0.1092-0.02468-0.23572 0.03145-0.30378 0.11659-0.0044 0.0055-0.0085 0.01112-0.0124 0.01681-0.0068-0.0092-0.0138-0.01827-0.02129-0.02724-0.01928-0.0231-0.04321-0.02805-0.06482-0.02177-0.12308-0.09153-0.29557-0.10366-0.43536-0.02106-0.112 0.06619-0.20464 0.16374-0.34236 0.17133-0.10909 6e-3 -0.22791-0.05622-0.2356-0.17611-0.00407-0.06259-0.089326-0.11477-0.13718-0.05682-0.1006 0.12186-0.12072 0.28373-0.065063 0.43107 0.058733 0.15546 0.1784 0.26498 0.32992 0.3294 0.16362 0.06957 0.35536 0.09373 0.53236 0.08822 0.17646-0.0055 0.3369-0.07335 0.44326-0.21769 0.0127-0.01722 0.02386-0.03472 0.03364-0.05243 0.10327 0.13149 0.26516 0.18676 0.43004 0.19073 0.1725 0.0041 0.37642-0.02614 0.49838-0.1601 0.11753-0.12912 0.1581-0.32114 0.10273-0.4865" fill-rule="evenodd"/>
  </g>
 </g>
</svg>
