<?xml version="1.0" encoding="UTF-8"?>
<!-- Created with Inkscape (http://www.inkscape.org/) -->
<svg width="300" height="300" version="1.1" viewBox="0 0 79.376 79.375" xml:space="preserve" xmlns="http://www.w3.org/2000/svg"><defs><clipPath id="clipPath11059"><circle cx="37.898" cy="47.347" r="37.042" fill="#ff87b2" fill-opacity=".99444" stroke="#000" stroke-width=".52917"/></clipPath></defs><circle cx="39.688" cy="39.688" r="37.042" fill="#3175d7" fill-opacity=".99444" stroke="#000" stroke-width=".52917"/><g transform="matrix(1 0 0 1 1.7893 -7.9089)" clip-path="url(#clipPath11059)"><g transform="translate(-1.7893 8.8798)" fill-rule="evenodd"><g id="body/mono/Paper" transform="matrix(-.060626 0 0 .060626 65.225 31.513)"><path d="m710.11 196.57c-8.7162-33.8-16.732-48.131-32.216-59.879-14.483-10.989-35.624-20.218-66.472-26.959-32.13-5.6164-33.04-22.312-41.096-49.146-2.3502-8.0671-13.996-10.214-19.023-4.399-0.70858-0.76471-1.4474-1.465-2.2123-2.098 0.68442-3.8473-4.9184-14.874-4.7312-18.555 1.9539-38.413-10.613-57.702-41.979-64.873-6.8211-1.5601-53.153-2.4784-59.804-0.6399-29.076 8.0373-57.699 33.556-53.319 64.297-9.127 11.925-18.06 19.204-32.14 23.046-31.336 3.9781-62.67 7.5153-94.014 10.543-61.356 9.6212-118.88 42.092-158.2 89.447-3.6264 4.3713-4.6742 10.305-1.4735 14.966-2.5072 10.737-16.62 36.78-5.5156 44.141-18.261 43.666-60.277 128.07-60.362 152.18-0.32407 101.3 10.62 233.15 110.6 289.2 4.0029 3.9345 4.5756 8.288 6.3088 14.142 4.3954 18.441 20.359 31.621 37.83 30.545 86.07 1.9124 169.44-8.586 255.51-9.0946 37.958-0.22429 83.606 5.4401 116.58 9.2141 32.974 3.774 66.259 0.43584 97.902-9.2141 2.6682 4.2 8.0631 6.6466 13.535 5.4401 32.804-6.5159 59.331-26.727 82.436-48.817 7.0606-12.842 34.634-49.43 23.674-62.165 9.9352-41.993 9.4188-87.113-8.2362-127.1 2.5027-7.3299-2.059-15.385 0-22.954 1.49-5.4776 5.306-7.7431 7.2267-13.167 2.7028-7.6326-0.23657-17.872-3.2796-25.661-1.2471-3.882 2.2953-8.0601 3.2796-12.021 4.6692-18.683-6.0224-17.036-13.73-29.526 0.11474-0.0386 2.1192-8.955 2.1101-8.9105 1.1802-6.3658-1.7764-14.521-4.3553-19.835-1.743-3.5914-5.4768-5.8392-9.1868-5.4272 3.7361-12.681 8.4612-23.233 13.542-35.45 8.986-21.536 20.361-42.158 33.264-61.651 5.2841-7.9819-1.8127-17.23-10.364-17.774-27.678-1.7582-55.053-5.7422-82.081-11.846z" fill="#fff"/><path d="m629.33 359.43c-11.07-4.34-22.99-6.739-34.97-7.67 6.45-1.13 12.919-2.22 19.44-2.78 4.55-0.39 8.769-0.35 12.189 3.101 2.281 2.299 3.351 5.259 4.851 7.979-0.49-0.22-1-0.43-1.51-0.63zm118.82-40.58c-18.13 0.921-36.28 5.231-52.68 13.04-6.71 3.2-12.79 7.82-14.57 15.42-0.9 3.881-0.68 7.891-0.201 11.811 0.361 2.969 0.451 6.759 3.031 8.769 0.44 0.34 0.91 0.6 1.4 0.79-6.05 2.73-11.811 6.011-16.931 9.39-4.679 3.09-9.489 7.85-11.649 13.22-0.18-0.61-0.36-1.179-0.54-1.72-3.68-10.879-9.35-19.789-18.28-25.78 1.58-0.709 2.67-2.39 2.16-4.709-2.12-9.691-11.071-18.111-21.18-17.511-11.07 0.65-22.96 4.68-32.971 9.77-3.649-0.08-7.29-0.03-10.889 0.13-0.62 0.02-0.59 0.861 0 0.93 2.92 0.371 5.84 0.78 8.76 1.26 6.94 1.111 13.86 2.52 20.629 4.27 8.121 2.101 16.521 4.21 24.111 7.88 14.719 7.131 23.83 25.771 21.96 41.99-0.31 2.66-1.34 10.7-5.031 9.87-3.119-0.7-4.359-7.21-5.449-9.62-2.92-6.4-8.18-10.58-14.49-13.41-7.41-3.33-15.34-5.58-23.021-8.199-4.349-1.49-8.699-2.981-13.059-4.461-4.46-1.529-8.7-3.64-13.45-2.57-2.87 0.65-3.2 4.07-1.59 6.031 2.45 2.989 6.09 3.869 9.62 5.099 4.66 1.62 9.31 3.241 13.96 4.86 7.189 2.5 14.72 4.61 21.729 7.67l-0.219 0.5c-0.571-0.16-1.241 0.41-1.13 1.11 1.05 6.47 2.51 13.95 0.889 20.431-1.279 5.139-5.79 10.83-11.649 9.319 0.92-0.84 1.26-2.29 0.64-3.63-2.321-4.96-32.72-24.54-35.43-17.269-0.09 0.259 0.189 0.449 0.41 0.41 2.31-0.481 6.18 3.459 8.029 4.709 2.67 1.801 5.38 3.56 8.021 5.41 2.89 2.021 5.71 4.141 8.46 6.33 2.16 1.721 3.79 3.51 6.269 4.381-1.299 0.619-2.33 1.769-2.769 3.239-1.12 3.83-3.28 7.08-7.03 8.771-3.93 1.759-8.36 0.649-12.5 1.08-5.64 0.569-10.56 3.25-14.67 7.08-8.63 8.059-12.96 22.26-25.03 26.069-7.21 2.271-15.21 0.84-22.51-0.19-8.15-1.15-16.09-2.06-24.3-0.86-7.86 1.151-15.29 3.87-22.47 7.19-6.73 3.11-14.17 6.631-20.14 11.27-1.23-3.79-2.47-7.54-3.411-11.41-2.219-9.149-3.419-18.47-3.71-27.87-0.269-8.949 0.231-17.939 1-26.85 0.381-4.45 0.981-8.88 1.361-13.33 0.099-1.12 0.3-2.32 0.45-3.519 10.66-6.291 21.859-11.11 33.149-16.07 0.031-0.01 0.061-0.031 0.091-0.04 0.35-0.161 0.69-0.31 1.04-0.46-0.01-0.021-0.02-0.04-0.04-0.061 1.29-0.789 2.19-1.84 2.73-3.02 16.27-10.79 29.87-25.519 40.01-42.7 4.25-7.2 8.34-14.67 13.9-20.979 5.92-6.731 12.95-10.731 21.65-12.811 10.17-2.439 20.65-3.9 31.07-4.73 5.69-0.449 12.049-1.15 18.25-1.119 4.32 0.029 8.549 0.399 12.43 1.469 5.75 1.58 9.11 5.951 12.72 10.37 3.45 4.241 6.88 8.491 10.1 12.911 3.049 4.189 5.93 8.519 8.43 13.059 1.5 2.72 2.89 5.521 4.06 8.41 0.41 1.021 0.95 2.18 1.2 3.24 0.25 1.07-0.21 2.201 0.99 2.201-4.95 0.069-4.9 7.979 0.02 7.689 19.26-1.12-8.33-38.719-12.361-43.96-5.71-7.42-11.599-17.1-20.739-20.55-0.13-0.05-0.27-0.099-0.4-0.14 2.66-2.52 4.76-5.539 6.77-8.61 2.07-3.16 4.539-6.78 5.22-10.53 0.43-2.389-2.54-3.75-3.95-1.66-2.05 3.05-3.04 6.91-4.57 10.261-1.56 3.399-3.46 6.609-4.96 10.039-3.61-1.11-7.51-1.619-11.48-1.789 5.01-6.78 13.569-19.861 14.6-21.541 4.74-7.78 9.25-15.799 13.56-23.83 4.659-8.7 8.65-17.76 13.11-26.56 2.53-4.989 5.08-10.02 7.89-14.86 0.97-1.66 2.01-3.32 3.19-4.83 0.23-0.299 0.52-0.549 0.79-0.83 0.31-0.17 0.63-0.36 0.81-0.459 1.619-0.93 2.19-3.09 3.329-4.461 1.821-2.209 3.961-2.469 6.701-2.5 5.839-0.06 11.7 0.17 17.53 0.33 8.57 0.24 17.13 0.58 25.69 1.03 2.59 0.14 5.17 0.28 7.76 0.44 12.45 0.741 24.89 1.71 37.3 2.901 10.98 1.049 21.96 2.76 32.95 3.58-14.88 35.35-31.38 70.06-50.061 103.56-0.189 0.339-0.33 0.679-0.419 1.019zm19.89 30.261c-0.17 0.019-0.33 0.109-0.41 0.279-3.32 6.85-1.931 14.5 3.49 19.87 2.84 2.8 9.03 5.96 8.829 10.56-0.17 3.72-4.219 6.84-5.949 9.91-1.61 2.86-2.21 6-0.92 9.101 1.65 3.969 6.26 5.549 7.84 9.45 2 4.949-1.25 10.92-3.53 15.229-2.12 3.99-4.861 7.98-6.68 12.2-37.929 36.403-108.64 42.506-109.77 24.64 2.87 5.19 8.47 7.55 14.85 7.19 10.26-0.599 20.58-2.28 30.739-3.79 5.351-0.79 10.691-1.69 16.021-2.65 4.38-0.78 10.56-0.579 13.62-4.09 0.72-0.819 0.76-2.319-0.37-2.87-3.03-1.49-4.94-0.66-8.271-0.019-4.059 0.789-8.129 1.539-12.21 2.24-7.83 1.359-15.679 2.619-23.549 3.729-4.48 0.63-8.97 1.25-13.46 1.74-3.92 0.42-8.34 0.99-11.5-1.959-6.37-5.961-2.8-15.951 1.23-21.971 0.08-0.119 0.08-0.23 0.05-0.33 3.8-0.89 7.59-1.93 11.37-2.66 7.27-1.4 14.59-2.579 21.92-3.629 15.06-2.151 30.22-3.571 45.359-5 3.75-0.361 3.79-6.26 0-5.91-21.75 1.99-43.609 3.879-65.069 8.07-5.38 1.039-10.721 2.219-16.03 3.549-2.51 0.621-5.2 1.591-7.83 1.621-0.16 0-0.321 0-0.48-0.011-5.15-0.159-5.9-4.569-3.07-8.239 0.35-0.451 0.71-0.901 1.08-1.33 5-5.961 11.229-9.941 17.649-14.061 7.191-0.98 14.361-3.16 21.401-4.76 17.38-3.96 34.76-7.92 52.15-11.87 3.409-0.78 1.96-6.02-1.45-5.25-13.2 2.991-26.4 5.98-39.601 8.97l-19.319 4.381c-3.86 0.869-8.681 2.619-13.221 3.25-2.239 0.309-4.409 0.349-6.369-0.11-6.33-1.5-6.65-9.411-3.92-14.111 3.06-5.279 8.84-8.58 13.97-11.57 8.89-5.19 18.35-8.92 27.59-13.22l4.92-1.08c9.54-2.1 20.44-3.13 29.42-6.979 2.69-1.141 1.219-5.381-1.44-5.321-6.97 0.151-14.26 2.63-21.07 4.1-7.37 1.6-14.75 3.19-22.12 4.78-0.74 0.16-5.12 1.56-5.78 1.25-0.42-0.2-0.57-1.659-0.71-2.62-0.451-3.16-0.78-6.479-0.29-9.65 1.08-7.11 7.01-10.45 13.01-13.18 13.36-6.07 28.01-9.869 42.59-11.39 3.36-0.35 6.72-0.569 10.1-0.68 3.969-0.12 7.24-0.82 9.25 3.09 3.16 6.16 4.9 14.081 5.94 21.111zm-18.554 223.34c-2.911-10.068-2.119-20.818-4.113-31.087-1.029-5.298-2.434-10.554-3.968-15.726-1.238-4.178-3.303-8.622-3.537-12.982-0.014-0.291 0.329-0.459 0.565-0.325 4.107 2.352 7.261 7.437 9.603 11.427 2.804 4.775 4.945 9.775 6.672 15.032 3.442 10.473 6.268 23.106 1.829 33.661-1.321 3.142-5.961 3.771-7.051 0zm-113.61 76.216c-4.338-3.027-7.499-7.259-11.178-10.994-3.618-3.673 2.038-9.33 5.657-5.656 3.139 3.185 5.864 7.165 9.558 9.742 1.778 1.239 2.601 3.48 1.436 5.473-1.03 1.759-3.7 2.672-5.473 1.435zm-24.192-116.35c7.919-3.424 15.707-7.153 23.995-9.619 4.953-1.475 7.05 6.248 2.127 7.713-7.633 2.273-14.792 5.661-22.084 8.813-4.682 2.024-8.751-4.87-4.038-6.907zm-83.63-2.396c-1.937-4.778 5.806-6.837 7.714-2.126 2.197 5.422 4.715 10.705 6.912 16.127 1.935 4.778-5.806 6.838-7.714 2.127-2.197-5.422-4.716-10.705-6.912-16.128zm-82.545 95.419c-1.29 1.72-3.441 2.652-5.473 1.436-1.702-1.02-2.741-3.732-1.435-5.473 3.813-5.082 7.676-10.103 12.145-14.634 3.623-3.673 9.277 1.988 5.657 5.657-3.991 4.046-7.488 8.475-10.894 13.014zm-11.803-535.39c3.672 2.508 6.889 5.555 10.026 8.69 3.647 3.645-2.011 9.301-5.658 5.656-2.643-2.642-5.309-5.324-8.406-7.438-1.789-1.222-2.592-3.495-1.435-5.473 1.037-1.772 3.688-2.653 5.473-1.435zm120.09 128.74c-2.076 4.157-3.945 8.232-4.063 12.957-0.126 5.147-8.126 5.15-7.999 0 0.153-6.183 2.433-11.545 5.154-16.995 2.302-4.613 9.2-0.556 6.908 4.038zm44.062-103.39c4.301-2.867 8.302 4.066 4.039 6.908-3.456 2.303-6.913 4.608-10.369 6.912-4.299 2.866-8.3-4.066-4.038-6.908zm-191.12 180.77c-0.734 5.084-8.442 2.909-7.715-2.126 1.125-7.782 2.498-15.461 4.609-23.041 1.382-4.96 9.097-2.84 7.714 2.127-2.111 7.58-3.484 15.259-4.608 23.04zm-28.049 91.64c-5.149-0.109-5.15-8.109 0-8 4.66 0.099 9.241 1.325 13.736 2.447 5 1.249 2.868 8.962-2.127 7.714-3.8-0.949-7.669-2.077-11.609-2.161zm-10.354 184.6c-1.769 0.861-3.584 1.636-5.372 2.454-3.581 1.637-7.16 3.276-10.738 4.919-7.454 3.422-14.904 6.855-22.347 10.3-14.9 6.897-29.915 13.551-44.851 20.373-15.231 6.958-30.422 14.008-45.594 21.094-7.148 3.337-14.35 6.552-21.538 9.802-6.146 2.779-13.743 7.635-20.49 8.092-0.347 0.024-0.463-0.415-0.265-0.64 2.549-2.899 6.615-4.585 9.965-6.469 3.422-1.926 6.908-3.737 10.378-5.574 7.234-3.833 14.477-7.635 21.781-11.333 14.61-7.393 29.248-14.733 43.889-22.064 14.932-7.477 29.845-15.004 44.908-22.215 7.092-3.396 14.191-6.781 21.294-10.156 3.848-1.828 7.698-3.653 11.548-5.475 1.663-0.787 3.309-1.636 5.009-2.34 2.259-0.935 3.976-0.744 6.306-1.32 3.8-0.938 5.445 3.894 2.528 5.998-2.402 1.733-3.666 3.215-6.411 4.554zm-53.407 82.031c-0.821-1.995 0.898-4.421 2.794-4.921 2.271-0.598 4.092 0.782 4.921 2.794 2.193 5.335 5.317 10.23 9.338 14.364 3.594 3.694-2.06 9.353-5.657 5.657-5.039-5.182-8.659-11.238-11.396-17.894zm-39.291-128.41c-3.647-3.646 2.011-9.302 5.657-5.656l10.368 10.367c3.647 3.647-2.012 9.303-5.657 5.657zm-106.37-16.903c-7.454 2.186-16.148 4.196-21.23 10.555-0.248 0.311-0.665-0.088-0.516-0.398 6.506-13.488 25.164-18.219 38.082-22.944 9.137-3.343 18.512-6.115 27.966-8.591-0.945-10.785 1.661-22.344 2.567-33.076 0.967-11.458 1.754-22.946 2.158-34.44 0.413-11.725 0.513-23.529 0.127-35.257-0.384-11.685-1.901-23.227-2.565-34.873-0.064-1.126 1.504-1.18 1.842-0.249 3.926 10.807 5.603 22.778 6.881 34.173 1.316 11.739 1.753 23.444 1.585 35.251-0.174 12.14-0.88 24.251-1.849 36.352-0.459 5.736-0.992 11.464-1.495 17.196-0.384 4.374-0.562 8.713-1.454 12.948 5.702-1.399 11.417-2.723 17.114-4.01 18.166-4.099 36.408-7.903 54.498-12.336 8.88-2.175 17.633-4.781 26.473-7.095 8.324-2.179 17.11-4.821 25.656-5.793 3.05-0.348 3.438 3.824 1.419 5.24-6.946 4.877-16.171 8.273-24.194 11.003-8.052 2.739-16.422 4.71-24.675 6.739-17.211 4.233-34.585 7.694-51.933 11.299-17.324 3.601-34.681 7.175-51.81 11.618-8.249 2.14-16.47 4.288-24.647 6.688zm-40.847-214.02c-4.454 2.615-8.475-4.302-4.037-6.908 5.807-3.408 11.996-5.969 18.235-8.467 4.788-1.916 6.848 5.824 2.127 7.715-5.607 2.244-11.107 4.598-16.325 7.66zm-16.128 297.22c-4.466 2.59-8.49-4.326-4.037-6.907 6.254-3.625 13.103-6.044 19.584-9.216 4.611-2.258 8.661 4.645 4.037 6.908-6.48 3.172-13.33 5.59-19.584 9.215zm-7.254-168.71c4.318 4.102 10.081 6.033 15.515 8.188 4.738 1.877 2.66 9.611-2.127 7.714-6.77-2.685-13.666-5.136-19.045-10.246-3.742-3.554 1.925-9.201 5.657-5.656zm47.771-229.12c4.747 1.862 2.668 9.596-2.127 7.715-5.318-2.086-10.81-3.674-16.128-5.76-4.746-1.862-2.668-9.595 2.127-7.715 5.318 2.086 10.81 3.674 16.128 5.76zm84.273-91.008c5.044-0.85 7.192 6.86 2.127 7.715-6.284 1.061-12.472 2.302-18.432 4.608-4.813 1.862-6.878-5.876-2.127-7.714 5.961-2.306 12.149-3.548 18.432-4.609zm27.845 221.58c-4.625-2.274-0.567-9.17 4.037-6.907 4.852 2.385 9.879 4.229 15.173 5.356 5.041 1.074 2.894 8.785-2.127 7.715-5.958-1.27-11.627-3.481-17.083-6.164zm26.299-124.82c4.98-1.364 7.086 6.355 2.127 7.715-8.725 2.39-17.708 3.633-26.497 5.76-5.009 1.212-7.128-6.504-2.127-7.714 8.789-2.128 17.773-3.369 26.497-5.761zm111.57-39.168c5.064 0.937 2.906 8.646-2.126 7.715-5.357-0.991-10.786-1.007-16.217-1.01-5.156-2e-3 -5.147-8.002 0-8 6.17 3e-3 12.261 0.17 18.343 1.295zm363.86 41.795c-13.07-1.25-26.16-2.25-39.27-3-0.611-0.031-1.21-0.07-1.821-0.101-0.069-0.139-0.159-0.27-0.25-0.41-4.279-6.28-7.429-12.559-10.159-19.66-2.61-6.76-5.14-13.729-9.16-19.829-4.585-6.95-10.775-12.388-17.559-17.101-4.115 2.767-7.934 6.007-11.428 9.441-3.677 3.613-9.335-2.043-5.657-5.657 3.105-3.052 6.419-5.871 9.922-8.418-4.045-2.458-8.172-4.768-12.198-7.066-15.091-8.609-30.54-16.57-46.31-23.849-7.33-3.391-14.75-6.401-22.22-9.451-4.021-1.639-7.99-3.75-12.01-5.649 0.29-2.841-0.56-6.021-2.74-7.891-1.61-1.37-2.86-1.88-4.78-2.849-0.43-0.151-0.69-0.241-0.81-0.291 0.09 0.02 0.35 0.1 0.779 0.24 1.021 0.471 1.101 0.33 0.241-0.41-0.05-1.619-3.241-5.039-3.97-6.709-2.54-5.731-3.33-11.791-7.08-17.011-5.17-7.19-13.85-9.909-21.941-7.47-0.839-8.65-1.059-17.679-4.319-25.4-0.09-0.209-0.38-0.3-0.51-0.07-3.4 5.791-3.69 12.24-3.95 18.92-0.25 6.27-0.011 12.68 0.81 18.91-0.52 0.4-1.05 0.781-1.6 1.15-2.58 1.7-5.36 3.01-8.28 3.981-5.56 1.839-11.39 2.639-17.22 2.919-15.05 0.72-30.56-0.8-45.36-3.38-14.97-2.61-37.92-6.53-51.24-14.02-8.791-4.939-16.9-10.97-25.121-16.81 2.981-9.6 3.741-19.92 0.741-28.03-0.36-0.97-1.88-1.15-2.17 0-1.88 7.74-2.43 15.52-4.93 23.17-0.04 0.11-0.08 0.231-0.12 0.34-0.78-0.529-1.56-1.05-2.34-1.57-1.8-1.19-4.25-0.299-5.33 1.4-17.271 27.21-44.62 28.77-73.34 33.631-31.431 5.319-63.02 11.059-93.24 21.469-28.9 9.961-56.52 24.461-78.4 46.121-4.953 4.904-9.585 10.129-13.957 15.584 4.23 0.533 8.425 1.363 12.566 2.664 4.903 1.54 2.796 9.261-2.127 7.714-5.322-1.672-10.703-2.499-16.139-2.911-14.867 20.338-26.459 43.399-36.483 66.098-19.227 43.521-31.742 89.869-37.501 137.06 3.162-1.895 6.381-3.7 9.68-5.379 4.584-2.331 8.627 4.573 4.038 6.908-5.096 2.592-10.046 5.449-14.842 8.547-2.095 20.655-2.907 41.443-2.415 62.198 1.17 49.48 7.85 100.41 22.96 147.62 7.41 23.17 17.23 46.151 31.86 65.731 6.62 8.869 14.14 16.869 23 23.539 4.29 3.24 8.83 6.131 13.62 8.57 6.17 3.16 14.21 4.2 19.53 8.67 1.75 1.471 3.1 3.41 4.12 5.6-0.59 4.16-0.66 8.33 0.48 12.49 0.36 1.301 1.34 2.36 2.55 2.87 0.02 0.36 0.02 0.71 0.02 1.05 0 0.16 0.24 0.2 0.27 0.041 0.05-0.311 0.1-0.621 0.15-0.94 0.39 0.129 0.8 0.19 1.22 0.19 15.19 0.057 30.399-0.313 45.609-0.829-1.176-3.603-2.45-7.175-3.673-10.778-1.661-4.894 6.068-6.975 7.714-2.126 1.431 4.212 2.927 8.387 4.258 12.614 16.297-0.606 32.589-1.334 48.852-1.871 34.59-1.151 69.17-1.531 103.77-2.26 53.731-1.139 107.85-3.471 161.67-1.19 1.861-3.95 3.944-7.809 5.919-11.705 2.33-4.598 9.23-0.545 6.908 4.038-1.373 2.707-2.795 5.38-4.146 8.082 10.899 0.566 21.787 1.314 32.652 2.335 18.54 1.739 36.901 4.829 55.421 6.75 18.829 1.959 37.25 1.61 55.93-1.5 3.36-0.56 5.34-2.591 6.16-5.111 0.029-0.01 0.05-0.029 0.069-0.06 0.96-1.12 1.861-2.049 2.79-2.86 1.111-0.719 2.311-1.33 3.721-1.87 2.63-1 5.37-1.61 8.15-2.02 3.06-0.459 6.16-0.5 9.22-0.879 2.579-0.33 5.1-0.821 7.619-1.42 4.531-1.08 8.831-2.49 13.111-4.361 3.73-1.629 7.099-3.969 10.28-6.52 6.58-4.81 12.279-10.949 17.26-17.33 2.9-3.73 5.63-7.6 8.11-11.629 4.32-6.981 8-14.231 11.72-21.541 1.35-2.166 2.582-4.384 3.708-6.649-7.27-2.142-14.61-3.888-22.317-4.012-5.152-0.083-5.151-8.083 0-8 8.839 0.141 17.2 2.206 25.507 4.666 0.405-1.075 0.793-2.158 1.152-3.255 0.99-2.289 1.81-4.64 2.49-7.02 0.399-1.08 0.8-2.16 1.2-3.24 0.9-3.74 1.8-7.49 2.71-11.24 1.81-6 3.239-12.09 4.29-18.26 0.88-4.06 1.56-8.15 2.02-12.29 1.4-10.03 2.54-20.04 2.62-30.18-0.12-6.25-0.52-12.49-1.2-18.7-0.29-4.22-0.78-8.42-1.44-12.59-0.86-6.2-1.71-12.339-3.14-18.46-1.07-4.139-2.14-8.28-3.21-12.42-2.67-8.629-5.82-17.09-9.451-25.36-0.199-0.519-1.21-1.66-1.819-1.67-0.46-0.01-1.101 0.41-0.891 0.971 0.021 0.049 0.04 0.109 0.061 0.159-0.21-0.47-0.41-0.95-0.62-1.42-0.18-0.44-0.88-1.319-1.42-1.309-0.03 0-0.061 0-0.1 9e-3 0.14-0.099 0.27-0.23 0.4-0.379 3.59-4.25 5.92-9.841 8.49-14.761 2.13-4.06 4.14-8.34 4.72-12.93 0.509-4.029-0.18-8-2.71-11.26-2.88-3.71-8.3-5.45-5.29-10.81 3.42-6.1 8.45-11.39 3.44-18.32-2.55-3.53-6.59-5.469-9.59-8.54-3.45-3.55-5.091-8.3-5-13.15 0.21 0.12 0.49 0.061 0.59-0.24 2.9-8.76 0.8-18.379-2.17-26.91-1.62-4.629-5.051-5.9-9.04-6.129 17.279-33.75 33.449-68.041 47.86-103.12 0.48-1.15 0.95-2.299 1.419-3.45 0.701-1.72-0.779-4.009-2.489-4.39-12.46-2.73-25.44-3.6-38.13-4.799z"/></g><g id="head/mono/Long-Curly" transform="matrix(-.048888 0 0 .048888 47.673 7.2591)"><path d="m343.41 146.72c-65.77-53.456-171.17-70.813-241.57-16.882-54.704 50.613-77.342 194.44-67.661 266.71 2.692 46.355 38.107 98.896 90.094 84.235 8.828-0.869 17.4-4.253 26.309-4.962 10.657-1.227 21.395-1.248 32.031 0.255 23.176 3.278 43.721 15.583 66.215 21.336 41.739 10.674 88.31 3.494 124.24-20.55 118.73-78.058 64.947-254.59-29.656-330.14z" fill="#fff"/><path d="m334.65 498.7c1.221-0.421 2.44-0.86 3.65-1.31 0.08 0.28 0.21 0.549 0.361 0.81 0.17 0.42 0.34 0.829 0.529 1.239-1.519 0.011-3.04-0.26-4.54-0.739m-2.439-518.02c-0.54-1.209-1.161-2.369-1.861-3.49 1.7 0.551 3.401 1.311 4.941 2.291-1.04 0.35-2.061 0.75-3.08 1.199m-259.79 158.16c-0.07-0.012-0.139-0.022-0.208-0.034 0.892-2.375 2.481-4.617 4.236-6.236 0.315-0.291 0.656-0.56 0.986-0.838-1.863 2.219-3.553 4.586-5.014 7.108m475.35 248.35c-0.88-8.34-2-16.649-3.45-24.91-1.39-7.909-2.56-16.369-6.59-23.389-4-6.99-8.01-13.781-12.769-19.93 0.679-3.14 1.58-6.09 2.359-8.47 4.5-13.7 8.931-31.1-0.42-43.83-2.17-2.95-4.819-5.21-7.85-7.25-1.29-0.87-3.429-1.66-4.42-2.86-0.7-0.85-0.459-0.39-0.49-0.81-0.17-2.26 5.13-7.03 6.37-8.82 2.321-3.311 4.05-7.04 5.37-10.85 5.22-15.08 1.67-31.69-1.469-46.801-1.66-8.009-3.49-16.039-4.091-24.219-0.56-7.68 0.49-15.18 1.11-22.82 0.601-7.541 0.441-15.32-2.79-22.301-1.58-3.4-3.969-6.4-6.88-8.74-2.839-2.289-6.38-3.619-9.149-5.899-2.761-2.271-1.971-5.34-1.25-8.48 0.989-4.26 2.239-8.49 2.359-12.89 0.22-7.67-2.91-15.141-7.799-20.94-5.041-5.99-12.241-10.041-20.021-10.951-3.56-0.42-7.06 0.291-10.6 0.041-3.5-0.24-4.259-1.99-4.92-5.19-1.519-7.33-0.9-14.57-4.509-21.41-3.2-6.08-8.891-10.201-15.181-12.63-11.529-4.46-24.939-3.54-37.1-0.911-7.179-21.119-29.589-34.969-51.639-35.139-3.441-5.84-9.271-10.2-15.92-12.761-11-4.25-22.651-1.769-34.11-1.769h-0.05c-1.151-0.071-2.301-0.1-3.45-0.09-1.081-0.061-2.161-0.151-3.241-0.27-13.04-1.541-25.94-6.881-38.86-1.65-5.76 2.33-10.34 5.92-13.239 10.5-4.37 1.189-8.681 2.55-12.91 4.13-18.331 0.479-36.491 10.309-45.76 26.24-13.05-1.48-27.21 1.03-35.841 11.69-2.248 2.774-3.989 6.033-5.143 9.493-8.8 2.846-16.943 7.917-22.272 15.555-4.863 6.97-5.797 15.982-2.508 23.464-7.856 5.691-13.995 13.838-16.952 23.458-1.797 5.845-2.064 11.884-0.908 17.637-8.043 1.784-15.736 5.091-22.552 10.054-7.143 5.199-16.064 13.474-16.534 22.998-0.035 0.699-8e-3 1.398 0.048 2.095-15.725-1.105-31.759 1.559-42.388 14.166-7.981 9.459-11.45 21.64-9.32 32.73-18.71 3.8-36.401 13.58-48.741 28.04-8.969 10.51-16.939 23.87-16.46 38.179 0.15 4.311 1.161 8.651 2.911 12.661v9e-3c-0.75 1.411-1.521 2.981-2.261 4.651-11.59 8.109-20.01 20.82-24.75 34.83-3.829 11.349-6.239 26.09-2.15 37.64 0.621 1.76 1.411 3.42 2.331 4.959-0.771 0.821-1.5 1.641-2.21 2.471-7.811 9.129-15.721 20.629-15.18 33.199 0.22 5.061 2.099 10.151 5.17 14.33-10.801 10.951-19.5 24.771-18.641 40.201 0.74 13.43 8.111 27.07 19.66 33.52-1.929 10.35 0.651 21.27 8.71 29.35 4.021 4.04 8.76 6.7 13.781 8.12 1.12 12.19 11.939 22 23.429 24.819 2.141 0.531 4.281 0.851 6.41 1 10.34 5.071 22.67 4.49 33.22-0.16 3.11 3.951 7.16 7.171 11.88 9.481 1.91 0.94 3.931 1.72 6.04 2.349 14.9 4.41 30.181-1.569 43.21-8.549 0.42-0.22 1.19-0.5 1.87-0.81 1.8 2.01 5.08 4 6.79 4.98 5.801 3.33 12.891 4.879 19.551 4.44 7.81-0.52 14.699-3.1 21.079-6.77 0.931 0.16 1.87 0.25 2.811 0.3 6 0.319 11.349-1.58 16.16-4.58 3.179 0.42 6.439 0.38 9.739-0.2 7.271 1.849 14.351-1.09 20.04-5.76 2.521-2.07 4.65-4.5 6.931-6.82 2.369-2.411 4.17-2.97 6.939-4.59 6.551-3.83 7.34-13.54 4.5-20.561 0.54-1.229 0.851-2.599 0.851-4.119-0.021-13.26-6.13-25.42-13.63-36.03-3.351-4.73-6.99-9.361-10.981-13.56-3.21-3.371-7.719-8.84-12.469-10.211-0.29-0.209-0.591-0.42-0.891-0.619 0.921-3.221 1.46-6.5 1.231-9.85-0.241-3.441-1.351-6.701-3.13-9.48 5.969-11.57 8.49-24.26 7.29-37.5 4.859-6.891 8.54-14.5 10.439-22.84 1.17-5.16 1.841-10.59 1.75-15.881-0.04-2.539-0.97-5.75-0.989-8.379 0.14 0.83 1.22-2.27 1.64-3.041 4.819-8.949 11.009-15.929 12.04-26.479 0.599-6.171-0.861-12.99-4.561-18.05 2.37-9.34 2.34-19.371-1.39-28.28-1-2.38-2.149-4.71-3.469-6.92 0.609-1.86 1.17-3.74 1.889-5.431 0.281-0.67 0.56-1.349 0.84-2.029 2.71-2.391 5.231-5 7.351-7.561 4.699-5.669 8.29-12.169 8.74-19.66 0.22-3.75-0.66-7.34-1.75-10.899-0.481-1.61-0.771-3.4-1.341-4.97-0.319-0.871-1.09-1.76-1.359-2.58-0.061-0.18-0.111-0.33-0.151-0.45 0.04-0.12 0.071-0.37 0.071-0.841 9e-3 -3.59 0.479-7.1 0.5-10.559 3.29 3.32 7.25 5.799 11.75 7.25 9.069 2.91 18.53 1.59 26.559-2.9 8.641 5.92 18.35 11.279 28.531 13.43 6.049 1.279 12.11 0.75 18.179 1.54 6.03 0.79 11.861 3.42 17.54 5.47 12.641 4.57 25.25 9.259 37.93 13.71 10.24 3.59 21.32 6.44 32.041 4.42 3.01 4.639 6.92 8.56 11.93 11.44 3.589 2.05 7.529 3.439 11.599 4.13 3.6 0.61 7.821 0.37 10.74 2.84 2.85 2.4 4.63 5.979 7.19 8.68 2.851 3.02 6.37 5.64 10.06 7.52 2.96 1.51 5.981 2.599 9.05 3.31-0.269 6.83-0.53 13.65-0.61 20.49-0.149 14.86-0.09 29.719-0.289 44.58-0.2 14.809-0.67 29.62-1.45 44.41-0.741 13.88-1.781 27.809-5.091 41.35-10.98 44.93-52.11 77.1-98.15 78.74-13.669 0.49-27.2-1.43-40.27-5.451-13.539-4.169-25.63-12.75-39.51-15.389-3.63-0.681-7.05 2.97-4.97 6.479 3.581 6.031 7.93 9.711 13.88 13.34 6.231 3.791 13.17 6.601 20.02 9.061 12.6 4.519 25.931 7.14 39.301 7.87 10.199 0.559 20.439-0.14 30.429-2.06 0.701 2.15 1.941 4.24 2.88 6.23 0.14 0.29 0.611 0.09 0.521-0.21-0.151-0.5-0.25-0.94-0.29-1.3 3.359 4.38 8.549 7.409 13.88 8.88 3.759 1.04 7.75 1.359 11.62 0.92 1.25-0.141 2.439-0.35 3.62-0.61 3.939 3.45 8.979 5.75 14.039 6.9-0.869 5.28 1.74 11.04 7.791 12.54 2.539 0.63 4.979 0.64 7.42 0.41 1.97 0.92 4.09 1.64 6.34 2.13 2.929 0.64 6.429-0.181 8.639-2.3 1.21 0.85 2.34 1.44 3.46 2.789 4.611 5.561 14.55 1.131 14.99-5.299 1.46 0 2.93 0.02 4.401 0.07 0.349 0.16 0.699 0.32 1.059 0.49 6.43 2.989 13.09 5.6 20.201 3.25 1.309-0.431 2.509-0.98 3.599-1.62 5.01 0.45 9.95 0.46 15.031-1.18 3-0.971 5.819-2.51 8.169-4.53 7.84 2.3 16.111 3.34 23.911 0.489 5.839-2.129 10.54-5.489 13.849-9.92 5.061 0.181 10.2-1.039 14.83-3.449 7.92-4.1 13.47-11.891 17.34-19.7 8.521-17.23 13.561-35.74 15.54-54.83 1.95-18.8-0.83-37.5-2.79-56.191"/></g><path d="m31.469 27.941c0.16388 0.21428 0.46062 0.37838 0.79294 0.45686 0.31667 0.07479 0.66665 0.07174 0.96869-0.04335l0.02592-0.01032c0.22582-0.09379 0.44258-0.28316 0.5249-0.4808 0.03272-0.07858 0.0438-0.15844 0.0214-0.23296-0.02015-0.06704-0.06738-0.12874-0.14605-0.18175-0.0247-0.01664-0.05783-0.01785-0.08939-0.01229-0.03916 0.0069-0.07777 0.02523-0.10106 0.04998-0.12922 0.1374-0.31669 0.27136-0.53858 0.26909-0.17121-0.0018-0.31102-0.06936-0.44661-0.14576l-0.09527-0.05457c-0.09193-0.05246-0.18515-0.10174-0.29063-0.12424-0.18881-0.04032-0.41782 0.03334-0.55737 0.15489-0.06085 0.053-0.10506 0.1153-0.11708 0.1824-0.01009 0.05635 0.0041 0.11516 0.0482 0.17282zm0.98165-3.7473c-0.37502 0.22795-0.94643 0.75949-0.543 1.3246 0.47488 0.49828 1.1586-0.07303 1.4955-0.33142 0.31241-0.20025 0.66342 0.31478 0.37357 0.5486-2.4346 1.8025-3.4226-1.4822-1.5158-1.8098 0.20995-0.0361 0.28793 0.1975 0.18968 0.26802zm4.2308-3.5035-0.10774-0.02954-0.10986-0.02965-0.07428-0.01964c-0.51027-0.13356-1.0731-0.2511-1.5791-0.19372-0.18454 0.02096-0.33432 0.1248-0.36045 0.31814-0.022 0.16314 0.08343 0.37361 0.26286 0.40261 0.59431 0.09615 1.2027 0.06496 1.7998 0.16408 0.29733 0.04931 0.59237 0.11055 0.88855 0.16572 0.22522 0.04201 0.45793 0.05676 0.68509 0.09073l-0.0522 0.0072c-0.01827 0.0025-0.01371 0.03322 0.0043 0.03199 0.07487-0.0074 0.14986-0.0086 0.22496-0.0034l0.0322 0.0026c0.04902 0.0069 0.07792-0.0516 0.03421-0.0813-0.27677-0.18777-0.51162-0.39129-0.82151-0.5297-0.26803-0.11968-0.5439-0.21836-0.82682-0.29624zm-4.6453-0.28798c-0.39233-0.3966-1.2267-0.24419-1.6934-0.06277-0.26639 0.1036-0.51966 0.23456-0.73063 0.43047l-0.02056 0.01927-0.03168 0.03047c-0.1424 0.13942-0.3012 0.33126-0.2786 0.53225 0.0035 0.03064 0.02012 0.06566 0.05473 0.07181 0.18693 0.03312 0.37053-0.0655 0.54316-0.12485l0.11432-0.03923c0.17168-0.05848 0.34445-0.11435 0.52145-0.1547 0.2201-0.05006 0.44462-0.07901 0.67059-0.07613 0.2284 3e-3 0.47373 0.06744 0.6913-0.02324 0.24265-0.10106 0.36844-0.39188 0.15932-0.60334zm3.8759 3.1986c0.1001 0.10222 0.2323 0.1599 0.4015 0.12559 0.13221-0.02679 0.38394-0.15973 0.58504-0.36446 0.13758-0.14006 0.25261-0.31508 0.28388-0.51782 0.0073-0.04708 0.03225-0.07727 0.06506-0.09628 0.02591-0.01501 0.06008-0.02256 0.09728-0.01879 0.03159 0.0031 0.06514 0.01464 0.09106 0.02981 0.04931 0.02886 0.06948 0.06982 0.07358 0.10041 0.03956 0.29517-0.07446 0.58805-0.25218 0.835-0.23985 0.33327-0.59208 0.57749-0.7991 0.63465-0.35428 0.09787-0.72758 0.01996-1.0028-0.22662-0.2201-0.19716-0.33291-0.45402-0.43758-0.71814l-0.02018-0.0512c-0.02355-0.05993-0.04691-0.11943-0.07166-0.17829-0.04961-0.11795-0.03372-0.2199 0.01438-0.29937 0.05329-0.08803 0.15166-0.15 0.26116-0.16903 0.10121-0.01759 0.20953 0.0017 0.29503 0.06348 0.07223 0.05223 0.13048 0.13498 0.15118 0.25734 0.03365 0.19898 0.11173 0.42727 0.2494 0.5779zm-6.0749-1.1516c0.08255-0.04302 0.14713-0.05598 0.2387-0.02854 0.05064 0.0152 0.10069 0.04436 0.13987 0.08355 0.03883 0.03883 0.06685 0.08712 0.07774 0.1407 0.02678 0.13222 0.09913 0.25598 0.20221 0.33666 0.08811 0.06896 0.19933 0.10551 0.32269 0.08489 0.13312-0.02223 0.25994-0.1076 0.34729-0.20825 0.02433-0.02807 0.04428-0.05931 0.06356-0.09093l0.01152-0.019c0.04304-0.07105 0.08487-0.13709 0.14422-0.18927 0.02249-0.01985 0.0564-0.0336 0.08924-0.0336 0.01335 0 0.02689 0.0021 0.0398 0.0062 0.13249 0.13298 0.15797 0.23386 0.1537 0.33392-0.0045 0.10492-0.04585 0.21116-0.1127 0.31028-0.15681 0.23252-0.45455 0.42316-0.65546 0.46634-0.27515 0.05913-0.54841-0.01185-0.7675-0.16553-0.22543-0.15813-0.39247-0.40363-0.44455-0.6803-0.01253-0.06663-0.0072-0.13856 0.01817-0.20092 0.0248-0.06094 0.06801-0.11313 0.13148-0.14618z"/></g></g><g transform="translate(13.229 4.593)"><rect x="12.826" y="59.719" width="27.265" height="12.749" rx="1.1514" ry="1.2837" fill="#fff" stroke="#000" stroke-width=".79375"/><text x="20.938276" y="67.450089" fill="#000000" font-family="'Ink Free'" font-size="4.2333px" font-weight="bold" stroke="#000000" stroke-width=".26458" xml:space="preserve"><tspan x="20.938276" y="67.450089" fill="#000000" font-size="4.2333px" stroke-width=".26458">Emma</tspan></text></g></svg>
