<?xml version="1.0" encoding="UTF-8"?>
<svg id="a" data-name="Layer 1" xmlns="http://www.w3.org/2000/svg" width="500" height="17.395" viewBox="0 0 500 17.395">
  <path id="b" data-name="8" d="M499.016,6.426C378.376,.998,257.585-1.006,136.832,.47c-33.963,.415-67.921,1.109-101.873,2.066-.583,.016-.732,.665-.473,1.027-10.57,.026-21.141,.052-31.711,.078-1.522,.004-1.482,2.355,.039,2.363,7.265,.036,14.53,.073,21.795,.109l10.424,.052c1.889,.009,3.801-.074,5.686,.028,2.61,.141,2.816,.238,3.344,1.704-4.526,.787-31.249,3.545-42.796,4.854-1.686,.191-1.706,2.636,.045,2.675,126.247,2.752,252.555,2.619,378.796-.402,23.098-.553,46.193-1.214,69.285-1.959,8.252,.053,16.503,.104,24.754,.158,.814,.005,1.296-.463,1.468-1.045,3.505-.124,7.011-.24,10.516-.369,1.678-.061,1.528-2.351-.042-2.531-2.223-.255-4.448-.479-6.672-.714l19.634-.134c1.3-.009,1.246-1.947-.033-2.004ZM172.255,1.632c-.191,.354-.256,.777-.206,1.187-8.818,.105-17.636,.259-26.453,.471-12.055,.03-24.11,.06-36.165,.089-21.226,.052-42.451,.104-63.677,.156,42.16-1.051,84.329-1.691,126.501-1.904ZM82.808,5.834c-9.331,.543-18.656,1.161-27.975,1.87l-5.914-.032c-.152-.599-.51-1.198-1.115-1.763,11.668-.025,23.337-.05,35.005-.074Zm24.517,8.568c-28.233-.263-56.464-.673-84.693-1.218,6.804-.664,28.962-1.888,31.019-1.9,32.49,1.6,65.001,2.733,97.522,3.405-14.616-.058-29.232-.151-43.848-.287Zm10.891-3.323c-1.48-.045-2.96-.102-4.44-.15,57.267,.364,114.534,.728,171.801,1.093-55.783,1.071-111.591,.769-167.361-.943Zm45.646-2.784c-10.052-.055-20.105-.11-30.157-.165-13.151-.071-26.302-.142-39.453-.214,22.806-1.168,45.635-1.887,68.474-2.253,9.621-.02,19.241-.041,28.862-.061,11.578-.024,23.159-.077,34.74-.134,29.385,.259,58.766,.947,88.119,1.856,.917,.028,1.835,.061,2.752,.09-51.112,.287-102.224,.583-153.336,.881ZM299.148,2.91c-3.561,.009-7.122,.018-10.683,.026-16.187-.421-32.375-.805-48.564-1.124-3.909-.077-7.818-.136-11.727-.208,34.485,.13,68.97,.536,103.449,1.231-10.828,.011-21.654,.049-32.474,.076Zm41.569,10.37c6.674-.584,13.347-1.227,20.018-1.925,4.413,.149,8.827,.298,13.24,.447-11.085,.554-22.171,1.051-33.258,1.478Zm66.253-6.354c-12.407-.512-24.815-.993-37.224-1.446,3.653,.047,7.307,.079,10.96,.138,13.777,.222,27.554,.605,41.318,1.226-5.018,.027-10.036,.054-15.054,.082Z"/>
</svg>