<?xml version="1.0" encoding="UTF-8"?>
<svg id="a" data-name="Layer 1" xmlns="http://www.w3.org/2000/svg" width="500" height="29.368" viewBox="0 0 500 29.368">
  <path id="b" data-name="11" d="M499.073,28.516c-21.755,1.127-43.765,.107-65.537-.35-21.274-.447-42.55-.808-63.826-1.08-76.482-.98-152.981-.65-229.452,.987-9.487,.203-18.974,.427-28.46,.67-6.905,.177-15.434,1.761-22.055-.917-2.328-.942-4.282-2.475-5.317-4.804-1.196-2.689,.553-9.209-2.895-10.317-3.239-1.041-9.421,3.435-12.145,4.755-4.114,1.994-8.228,3.988-12.342,5.982-5.401,2.618-12.566,7.441-18.311,3.043-4.067-3.113-4.532-8.853-5.808-13.428-.951-3.409-2.298-6.598-5.805-8.026-2.912-1.186-6.477-.873-9.356,.244-7.668,2.974-11.286,11.689-14.365,18.67-.82,1.86-4.055,.478-3.282-1.384C3.055,15.493,6.27,7.762,12.834,3.279,17.867-.159,25.216-1.312,30.674,1.865c5.605,3.263,6.533,9.718,8.229,15.407,1.473,4.943,3.543,7.282,9.104,5.098,5.144-2.02,10.091-4.839,15.064-7.25,4.106-1.99,8.167-4.212,12.39-5.941,2.362-.967,5.169-1.779,7.734-1.141,2.671,.665,4.546,2.704,5.143,5.368,.734,3.277-1.1,7.443,2.38,9.529,3.249,1.948,8.014,1.279,11.596,1.182,4.599-.125,9.198-.244,13.798-.359,9.774-.244,19.548-.468,29.322-.669,39.386-.813,78.779-1.279,118.173-1.398,39.107-.118,78.214,.106,117.317,.673,19.839,.287,39.677,.686,59.512,1.176,19.488,.481,39.265,.808,58.638,3.051,1.21,.14,1.262,1.858,0,1.924Z"/>
</svg>