<?xml version="1.0" encoding="UTF-8"?>
<svg id="a" data-name="Layer 1" xmlns="http://www.w3.org/2000/svg" width="500" height="48.083" viewBox="0 0 500 48.083">
  <path id="b" data-name="12" d="M498.668,31.274c-40.623-.787-81.009-.653-121.495-4.849-30.39-3.15-61.605-9.586-92.17-6.573-12.726-7.344-27.162-11.432-42.006-11.969-10.122-.366-20.386,.933-30.059,3.958-2.902,.907-5.758,1.982-8.55,3.197-6.614-2.267-13.565-3.482-20.566-3.672-7.823-.213-15.658,.864-23.105,3.14-1.918-4.498-6.779-6.638-11.128-8.087C124.909-1.81,96.732,.194,72.897,10.38c-5.562-3.969-11.962-6.936-17.868-8.642C30.095-5.463,1.065,10.319,.002,37.878c-.095,2.474,3.72,2.46,3.839,0C4.718,19.756,20.872,5.265,38.648,4.262c9.256-.522,18.456,2.11,26.389,6.817,.9,.534,1.778,1.103,2.644,1.689-9.48,4.669-20.167,11.946-18.836,23.793,1.213,10.798,11.854,13.865,20.827,9.793,8.581-3.894,20.815-12.774,15.005-23.378-1.869-3.411-4.509-6.512-7.592-9.264,15.974-6.423,33.545-8.786,50.661-7.061,6.114,.616,24.668,2.163,28.273,9.49-10.293,3.951-19.635,10.272-26.853,18.794-1.025,1.21-.835,3.528,1.024,3.877,10.471,1.962,21.469-2.118,27.652-10.967,1.755-2.511,3.299-5.582,3.569-8.692,11.825-3.797,24.717-4.337,36.76-1.178-3.472,1.754-7.152,3.991-8.61,7.478-3.679,8.798,8.848,13.923,15.137,15.938,7.751,2.483,18.597,.591,19.951-9.09,1.042-7.448-7.419-11.847-13.558-14.587,11.144-3.99,23.156-5.478,34.963-4.633,10.494,.751,20.807,3.43,30.29,7.881-4.719,.763-9.419,1.781-14.095,3.104-2.188,.619-2.307,3.365-.596,4.562,10.137,7.095,23.125,8.641,34.629,4.071,1.576-.626,2.714-2.861,1.109-4.203-1.79-1.497-3.639-2.909-5.53-4.249,29.015-1.74,58.636,4.376,87.33,7.25,39.448,3.952,79.952,6.399,119.478,2.538,1.739-.17,1.812-2.729,0-2.764ZM75.986,19.675c4.531,4.611,7.815,9.776,2.186,15.084-5.611,5.291-22.711,15.963-24.585,1.475-1.345-10.398,9.975-16.322,17.854-20.064,.153-.073,.31-.138,.463-.21,1.417,1.176,2.791,2.403,4.081,3.716Zm59.755,14.967c5.872-5.878,12.913-10.453,20.553-13.613-2.114,8.418-12.068,13.352-20.553,13.613Zm72.388-13.1c2.908,1.345,5.86,2.903,8.441,4.812,6.27,4.637,1.7,11.105-5.007,11.371-4.518,.18-9.975-2.513-13.736-4.787-3.281-1.983-4.527-5.886-.983-8.39,1.645-1.162,3.513-2.086,5.302-2.996,.928-.472,1.867-.92,2.813-1.353,1.066,.419,2.126,.859,3.17,1.342Zm82.198,7.77c-7.043,1.707-14.26,1.043-20.813-1.938,4.744-1.085,9.515-1.878,14.307-2.423,2.236,1.345,4.406,2.802,6.506,4.362Z"/>
</svg>