<?xml version="1.0" encoding="UTF-8"?>
<svg id="a" data-name="Layer 1" xmlns="http://www.w3.org/2000/svg" width="500" height="23.744" viewBox="0 0 500 23.744">
  <path id="b" data-name="9" d="M497.469,5.229c-11.859-2.839-24.115-2.757-35.761,.159-.705-2.446-3.862-4.264-6.707-3.006-4.879,2.159-9.553,4.639-14.055,7.442-.208-.829-.416-1.657-.623-2.486-.555-2.215-3.327-4.039-5.589-3.173-2.54,.973-5.02,2.045-7.445,3.218,.137-.865,.259-1.738,.351-2.631,.377-3.657-4.073-5.354-6.837-3.923-2.153,1.114-4.3,2.239-6.446,3.365-.567-1.845-2.386-3.493-4.25-3.245-5.083,.675-9.896,2.017-14.43,4.145-.563-2.304-2.662-3.62-5.137-3.137-2.849,.556-5.605,1.368-8.274,2.408-.014-.146-.022-.292-.039-.439-.372-3.154-3.06-4.758-5.995-3.44-2.837,1.274-5.732,2.424-8.626,3.572-1.853-2.198-4.657-3.58-7.624-3.818-3.306-.265-6.27,.849-8.965,2.518-.833-.614-1.798-1.111-2.862-1.47-5.369-1.808-11.188,.117-16.521,1.111-4.432,.826-8.864,1.651-13.296,2.477-2.976-.064-5.954-.116-8.934-.144-4.266-.039-8.533-.058-12.798-.063,.166-3.091-3.421-5.752-6.876-4.227-4.776,2.108-9.814,3.483-14.946,4.327-6.983,.07-13.966,.177-20.949,.307-1.258-1.517-3.323-2.396-5.276-1.735-.662,.224-1.326,.434-1.989,.651-.401-.112-.833-.184-1.306-.198-30.039-.877-137.87,2.258-159.491,3.397-.099-.339-1.433-.949-3.113-1.596-4.538-1.745-9.567-1.743-14.101,.014-2.634,1.021-5.037,1.934-5.11,1.775-.989-2.147-25.851-2.826-31.632,1.085l-1.313-.11c-.897-.887-2.094-1.487-3.3-1.341-2.867,.346-5.731,.532-8.592,.556-4.632-.356-9.262-.748-13.886-1.222C-.654,5.802-1.918,14.878,3.44,15.85c4.913,.892,9.818,1.37,14.744,1.374,1.876,.145,3.752,.283,5.629,.41h0c.778,2.945,4.438,4.689,7.123,2.966,1.194-.766,2.374-1.554,3.559-2.334,9.301,.479,18.612,.778,27.925,.967,.962,.335,2.015,.375,3.03,.055,1.799,.032,3.598,.061,5.397,.086,1.439,.797,3.211,.871,4.785,.059,2.013,.022,4.027,.042,6.04,.058,12.534,.098,25.098,.315,37.629-.006,9.572-.245,19.388-.998,28.739-3.352,.386,1.704,1.019,3.38,1.925,5.047,1.59,2.922,5.937,3.445,8.217,1.059,.71-.743,1.441-1.435,2.195-2.081,1.56,1.608,4.203,2.037,6.488,1.004,3.384-1.529,6.767-3.058,10.151-4.587,1.083,1.705,2.308,3.313,3.668,4.871,1.628,1.866,4.259,1.712,6.284,.811,3.116-1.387,6.235-2.771,9.353-4.155,1.042,2.197,3.341,3.702,5.984,2.873,3.105-.973,6.185-2.017,9.259-3.081,.839,1.396,2.316,2.407,3.993,2.26,9.787-.854,19.53-2.393,28.994-5.005,.014,.078,.024,.153,.039,.231,.525,2.745,3.745,4.146,6.234,3.539,7.53-1.837,14.921-3.646,22.61-4.582,4.701-.572,9.198-1.674,13.595-3.178,.454,1.06,1.098,2.062,1.935,2.949,4.58,4.855,11.59,3.347,17.373,2.289,8.145-1.49,16.291-2.981,24.436-4.471h0c5.042,.239,10.083,.497,15.122,.785,1.6,1.708,4.559,2.124,6.703,.404,7.605,.466,15.208,.981,22.81,1.538,1.075,.545,2.369,.692,3.499,.259,3.775,.283,7.55,.575,11.325,.876,.698,.369,1.485,.539,2.285,.436l1.973-.1c3.365,.275,6.732,.54,10.101,.793,1.071,.7,2.473,.901,3.994,.295,2.343,.167,4.686,.322,7.031,.467,.624,2.831,3.452,5.095,6.506,3.075,1.328-.878,2.677-1.715,4.045-2.515,2.531,.109,5.063,.199,7.596,.263,.771,2.581,4.273,4.201,6.623,2.558,1.204-.842,2.426-1.655,3.657-2.452l1.051,.043c1.274,.984,3.048,1.339,4.769,.408,.359-.194,.724-.371,1.085-.558,15.668-.503,31.299-2.693,46.518-6.442,3.359-.827,3.391-6.018,0-6.83Z"/>
</svg>