<?xml version="1.0" encoding="UTF-8"?>
<svg id="a" data-name="Layer 1" xmlns="http://www.w3.org/2000/svg" width="500" height="29.82" viewBox="0 0 500 29.82">
  <path id="b" data-name="5" d="M495.832,11.167c-36.298,5.158-72.875,7.374-109.458,9.359-16.679,.905-33.379,1.899-50.09,1.571-16.233-.319-32.368-2.161-48.539-3.457-33.192-2.659-66.285-.361-99.442,1.678l-50.192,3.087c-16.086,.989-32.396,1.378-48.313,4.066-7.159,1.209-14.386,2.957-21.684,2.138-7.524-.844-13.103-4.786-19.521-8.376-13.33-7.457-27.987,.363-39.95,6.99-6.491,3.596-12.29-6.349-5.809-9.939,13.614-7.541,30.205-15.657,45.929-9.657,7.469,2.85,13.561,9.238,21.829,9.695,8.274,.458,16.75-2.187,24.928-3.226,16.305-2.071,32.825-2.601,49.22-3.609,16.733-1.029,33.465-2.058,50.198-3.087,33.545-2.063,66.717-3.588,100.262-.639,16.204,1.425,32.373,2.928,48.656,2.888,16.676-.041,33.338-1.124,49.982-2.04,33.05-1.82,66.143-3.881,98.935-8.541,7.257-1.031,10.364,10.061,3.06,11.099Z"/>
</svg>