<?xml version="1.0" encoding="UTF-8"?>
<svg id="a" data-name="Layer 1" xmlns="http://www.w3.org/2000/svg" width="500" height="35.164" viewBox="0 0 500 35.164">
  <path id="b" data-name="22" d="M493.647,34.164c-11.478,.732-21.357-5.058-32.435-6.522-5.795-.766-10.729,1.164-16.021,3.273-4.862,1.937-9.673,3.275-14.88,3.888-17.032,2.007-34.429-4.463-46.207-16.692-6.173,5.811-14.505,8.804-23.172,9.279-6.628,.363-13.375-.941-19.756-2.614-3.373-.884-6.702-1.924-10.038-2.934-3.066-.929-6.506-2.38-9.783-2.059-2.936,.288-5.778,1.862-8.555,2.753-2.62,.84-5.289,1.37-8.013,1.729-5.408,.714-10.814,.49-16.172-.528-9.205-1.749-17.888-6.202-24.681-12.646-18.021,13.691-43.583,14.576-62.642,2.543-5.981,8.454-16.846,12.649-27.107,12.554-13.37-.124-25.203-7.239-35.965-14.621-11.445,16.836-38.118,20.435-53.571,7.15-6.675,6.961-16.221,10.755-26.022,9.326-8.898-1.298-16.417-6.685-21.024-14.123-5.619,6.8-12.705,13.446-21.876,12.886C6.798,26.261-1.465,19.102,.22,9.706c.742-4.135,6.985-2.36,6.281,1.731-1.065,6.187,7.337,9.58,12.284,8.496,7.202-1.578,12.31-8.496,16.488-14.029,1.84-2.437,5.127-2.068,6.268,.819,6.567,16.617,29.368,19.375,39.699,4.792,1.295-1.828,4.045-2.618,5.762-.742,12.75,13.93,38.351,10.109,46.551-6.857,.88-1.821,3.735-2.554,5.397-1.415,9.796,6.713,20.808,14.42,33.075,15.14,9.725,.571,19.861-3.348,23.949-12.678,1.28-2.921,5.02-2.458,7.008-.903,16.685,13.05,42.573,11.627,57.982-2.709,1.779-1.655,4.924-1.947,6.661,0,6.425,7.205,15.111,11.9,24.689,13.291,4.42,.642,9.068,.566,13.442-.351,4.89-1.025,9.348-3.581,14.306-4.227,5.686-.74,11.232,1.372,16.62,2.914,5.966,1.707,12.034,3.459,18.251,3.901,9.084,.646,19.504-1.565,24.417-9.999,1.615-2.772,6.393-3.948,8.633-1.112,10.582,13.395,28.286,20.661,45.194,16.688,4.935-1.16,9.407-3.448,14.161-5.127,5.206-1.838,10.495-2.352,15.956-1.658,9.304,1.184,19.126,6.877,28.593,5.464,9.648-1.44,11.258,12.422,1.763,13.027Z"/>
</svg>