<?xml version="1.0" encoding="UTF-8"?>
<svg id="a" data-name="Layer 1" xmlns="http://www.w3.org/2000/svg" width="500" height="38.134" viewBox="0 0 500 38.134">
  <path id="b" data-name="23" d="M493.769,2.974c-20.599,2.33-41.089,5.652-61.634,8.416-12.399,1.668-28.673,3.566-37.345-7.5-4.234-5.403-11.321-.232-11.952,4.951-.849,6.97-10.399,4.413-10.171-1.997,.218-6.153-7.486-8.676-11.647-4.824-5.094,4.716-10.205,9.414-15.312,14.115-.379-1.421-.683-2.865-1.136-4.263-1.355-4.183-3.61-8.387-8.117-9.759-6.711-2.043-11.781,3.086-16.566,6.95-3.886,3.138-7.771,6.276-11.657,9.414-2.385-4.919-5.424-9.472-9.095-13.687-2.848-3.27-8.254-2.075-10.318,1.33-3.03,4.997-6.827,12.15-12.833,14.056-2.983,.946-8.675,.003-8.608-3.982,.093-5.524-7.186-8.633-11.037-4.572-5.148,5.43-11.433,11.5-19.248,12.392-4.861,.555-13.548-3.064-12.611-9.243,.763-5.032-2.695-8.424-7.699-7.699-10.947,1.587-18.641,9.379-28.441,13.607-3.777,1.63-15.939,3.281-16.807-3.209-.748-5.593-7.845-8.621-11.233-3.042-6.174,10.165-20.946,5.457-20.844-6.209,.035-4.057-5.163-7.815-8.813-5.058-10.365,7.828-21.692,13.947-33.871,18.2-.006-5.277-.013-10.554-.02-15.83-.006-4.335-4.716-6.835-8.411-4.827-15.703,8.535-31.726,16.444-48.042,23.727,.097-4.206,.195-8.412,.293-12.618,.08-3.465-3.426-5.929-6.666-5.078-11.123,2.922-21.716,7.454-31.503,13.496-5.611,3.464-.492,12.309,5.183,8.867,7.061-4.282,14.458-7.668,22.233-10.202-.144,4.591-.288,9.182-.429,13.773-.096,3.131,3.557,6.513,6.771,5.158,16.738-7.059,33.192-14.719,49.332-23.036-.03,4.772-.06,9.544-.09,14.316-.023,3.697,3.648,6.444,7.189,5.476,13.166-3.599,25.672-9.158,37.091-16.556,2.745,6.429,8.19,11.654,15.201,13.406,6.781,1.695,13.715,.069,19.158-3.826,4.617,5.035,12.007,7.293,19.511,6.65,11.302-.969,19.546-9.226,29.548-13.213,2.534,7.919,9.747,13.944,18.551,15.39,10.132,1.664,19.325-2.968,26.978-9.276,3.878,4.206,9.913,6.587,15.845,6.392,8.682-.285,15.118-5.981,20.178-12.624,1.815,3.163,3.249,6.533,4.298,10.094,1.518,5.155,7.245,5.978,11.065,2.921,5.281-4.227,10.563-8.454,15.844-12.681,.344-.275,3.83-2.779,5.903-4.457,1.429,6.647,4.426,13.593,11.223,15.841,2.332,.771,4.836-.157,6.565-1.735,4.372-3.992,8.748-7.98,13.122-11.97,3.236,4.533,8.318,7.716,14.128,8.028,6.315,.338,11.639-2.483,15.236-6.898,10.411,6.813,23.758,7.21,36.547,5.626,22.308-2.764,44.726-6.248,66.856-10.181,6.999-1.244,5.476-13.35-1.697-12.539Z"/>
</svg>