<?xml version="1.0" encoding="UTF-8"?>
<svg id="a" data-name="Layer 1" xmlns="http://www.w3.org/2000/svg" width="500" height="31.748" viewBox="0 0 500 31.748">
  <path id="b" data-name="13" d="M497.511,24.516c-14.929-.81-29.763-2.999-44.678-3.929-6.722-.419-13.449-.771-20.178-1.102-19.898-8.65-42.95-10.312-64.12-12.703-29.468-3.329-59.082-5.289-88.72-6.21-59.401-1.844-118.876,.882-178.021,6.444-11.583,1.089-23.153,2.296-34.713,3.593-6.371,.104-12.742,.22-19.113,.359-1.489,.033-2.338,1.046-2.55,2.186-14.379,1.76-28.742,3.648-43.089,5.653-3.631,.507-2.765,6.561,.865,6.39,12.01-.564,24.023-1.101,36.036-1.619-.911,2.438,.519,6.067,3.645,5.77,58.797-5.584,117.879-7.853,176.928-7.977,44.588-.094,89.166,1.022,133.718,2.761,1.254,.089,2.508,.17,3.761,.261,28.734,2.078,57.43,4.583,86.106,7.338,1.326,.127,2.204-.56,2.628-1.514,4.693,.464,9.386,.933,14.078,1.411,2.076,.211,3.228-1.074,3.477-2.632,11.316,.152,22.64,.074,33.942,.687,3.323,.18,3.313-4.988,0-5.168Zm-113.335-7.312c-29.242-2.349-58.521-4.239-87.829-5.491-39.822-1.701-79.727-2.233-119.58-1.116-13.092-.21-26.184-.345-39.275-.405,13.88-1.054,27.773-1.939,41.679-2.621,57.983-2.846,116.177-2.275,173.972,3.475,15.91,1.583,31.869,3.346,47.64,6.004,2.233,.376,4.462,.789,6.682,1.238-7.762-.375-15.525-.735-23.288-1.083Z"/>
</svg>