<?xml version="1.0" encoding="UTF-8"?>
<svg id="a" data-name="Layer 1" xmlns="http://www.w3.org/2000/svg" width="500" height="24.224" viewBox="0 0 500 24.224">
  <path id="b" data-name="24" d="M495.701,12.082c-20.358,1.328-40.687,3.052-61.051,4.306-35.867,2.207-71.835,3.486-107.763,2.156-17.786-.658-35.553-1.955-53.224-4.093-8.359-1.011-16.011-1.858-24.371-.465-4.882,.814-9.657,1.2-13.872-.841-7.409,5.578-17.381,6.813-25.912,3.159-5.386,4.677-13.584,5.217-19.407,.767-8.03,.455-16.311,1.432-24.306,.866-4.336-.307-8.626-1.379-11.858-3.998-2.287,1.761-4.852,3.086-7.689,4.041-1.957,.658-3.808-.506-4.922-2.003-.428-.575-.816-1.161-1.179-1.756-2.302,2.242-4.834,4.229-7.675,5.951-1.669,1.012-3.903,.644-5.278-.681-1.84-1.775-3.364-3.699-4.643-5.784-4.246,3.436-9.11,6.166-14.731,5.609-3.663-.363-6.81-1.883-9.043-4.278-3.733,3.589-8.287,6.582-13.381,6.834-3.317,.164-6.321-.953-8.881-3.013-2.237-1.8-3.104-3.659-5.802-1.838-4.135,2.791-7.285,7.449-12.844,7.193-3.683-.17-5.608-3.068-7.999-5.535l-6.159-6.354c-3.227,4.032-8.527,6.258-13.857,6.195-7.535-.089-13.764-4.647-19.161-9.608-1.561,2.98-3.123,5.96-4.684,8.941-1.958,3.737-7.502,.44-5.632-3.292C2.537,10.256,4.694,5.951,6.851,1.646,7.863-.375,10.682-.451,12.179,.959c4.36,4.107,9.259,8.979,15.389,10.142,4.733,.898,10.41-1.101,11.572-6.156,.644-2.799,4.348-3.59,6.288-1.66,2.73,2.716,5.46,5.432,8.19,8.148,.886,.881,3.505,4.477,4.68,4.656,.242,.037,.206,.041,.944-.114,1.713-.36,3.476-2.813,4.789-3.938,1.636-1.401,3.322-2.768,5.36-3.53,1.951-.73,4.012-.946,6.047-.374,2.834,.796,4.211,3.109,6.607,4.523,5.403,3.189,11.619-4.493,14.595-8.15,2.676-3.288,7.012-.162,7.424,3.075,.394,3.097,5.081,3.386,7.281,2.784,3.759-1.029,6.762-4.17,9.499-6.766,2.515-2.385,6.147-1.142,7.276,1.921,.712,1.931,1.667,3.622,2.86,5.174,2.601-1.939,4.897-4.211,6.838-6.882,2.017-2.776,7.112-2.974,7.964,1.041,.262,1.234,.617,2.338,1.087,3.388,1.622-.95,3.015-2.173,4.347-3.699,1.817-2.083,5.582-1.476,6.848,.882,1.93,3.594,6.388,3.844,10.063,3.874,4.959,.04,9.946-.398,14.898-.635,2.744-.131,5.888-.708,8.605-.411,2.185,.239,2.811,1.526,4.594,2.51,2.809,1.551,6.785,.604,8.524-2.053,1.277-1.952,3.885-2.837,5.978-1.567,6.854,4.157,15.578,3.151,21.253-2.538,1.721-1.726,4.456-1.605,6.185,0,2.605,2.418,6.895,1.273,10.023,.728,3.949-.689,7.814-1.227,11.836-1.078,9.613,.357,19.24,2.164,28.82,3.066,68.666,6.466,138.322,1.87,206.859-4.189,5.714-.505,5.749,8.577,0,8.952Z"/>
</svg>