<?xml version="1.0" encoding="UTF-8"?>
<svg id="a" data-name="Layer 1" xmlns="http://www.w3.org/2000/svg" width="500" height="33.127" viewBox="0 0 500 33.127">
  <path id="b" data-name="20" d="M499.591,18.969c-1.585,6.96-10.611,12.743-17.575,9.979-.925-.367-1.848-.695-2.808-.928-.168,.02-.371,.043-.628,.073-2.714,.316-5.165-.132-7.762-.852-.02-.005-.029-.01-.046-.015-.189,.045-.456,.097-.831,.156,.012-.002-1.081,.132-1.216,.142-1.615,.237-3.219,.576-4.823,.871-8.293,1.529-16.812,2.931-25.204,3.803-16.923,1.757-34.278,.582-51.244,.04-32.121-1.026-64.187-1.85-96.323-2.171-31.862-.318-63.702,.138-95.565,.301-31.759,.163-63.524,.298-95.282-.066-7.669-.088-15.324,.068-22.993,.074-3.824,.003-7.025,.848-10.732,1.653-3.719,.807-7.633,.692-11.424,.665-15.692-.11-31.344-2.467-46.483-6.53C2.209,24.435-1.098,17.77,.328,11.506,1.685,5.551,9.107,1.087,14.986,3.184c8.093,2.887,16.333,5.018,24.648,7.143,8.229,2.103,16.71,3.258,24.906,5.427,4.149,1.098,7.7,3.336,12.033,3.798,4.297,.458,8.618,.776,12.928,1.076,8.343,.581,16.778,.389,25.139,.435,63.892,.353,127.773,2.048,191.66,1.599,32.147-.226,64.198-1.796,96.323-2.841,14.469-.471,29.497-.287,43.628-3.848,6.773-1.707,12.135-6.154,17.938-9.829,.227-.142,.453-.284,.68-.426,.061-.048,.132-.104,.221-.174,.851-.75,1.674-1.451,2.58-2.15,3.053-2.359,6.02-2.767,9.683-3.201,4.097-.485,8.325-.047,12.259,1.201,7.631,2.419,11.754,9.782,9.979,17.575Z"/>
</svg>