<?xml version="1.0" encoding="UTF-8" standalone="no"?>
<!-- Created with Inkscape (http://www.inkscape.org/) -->

<svg
   width="200"
   height="200"
   version="1.1"
   viewBox="0 0 52.917 52.917"
   xml:space="preserve"
   id="svg53068"
   sodipodi:docname="index-bubble-1.svg"
   inkscape:version="1.2 (dc2aedaf03, 2022-05-15)"
   xmlns:inkscape="http://www.inkscape.org/namespaces/inkscape"
   xmlns:sodipodi="http://sodipodi.sourceforge.net/DTD/sodipodi-0.dtd"
   xmlns="http://www.w3.org/2000/svg"
   xmlns:svg="http://www.w3.org/2000/svg"><defs
     id="defs53072" /><sodipodi:namedview
     id="namedview53070"
     pagecolor="#ffffff"
     bordercolor="#000000"
     borderopacity="0.25"
     inkscape:showpageshadow="2"
     inkscape:pageopacity="0.0"
     inkscape:pagecheckerboard="0"
     inkscape:deskcolor="#d1d1d1"
     showgrid="false"
     inkscape:zoom="2.255"
     inkscape:cx="139.68958"
     inkscape:cy="94.013304"
     inkscape:window-width="1920"
     inkscape:window-height="1057"
     inkscape:window-x="1072"
     inkscape:window-y="428"
     inkscape:window-maximized="1"
     inkscape:current-layer="svg53068" /><g
     fill="#fff"
     stroke="#000"
     id="g53056"><path
       d="m6.5632 8.4263c9.0516-9.1838 28.867-9.1214 37.982 0 12.752 11.298 4.4119 29.356-1.2559 32.772-2.9261 1.7633-3.5287 2.014-7.3055 2.4188-3.1574 0.3384-20.116 0.17552-28.912-7.9426-7.5287-6.9482-7.7059-19.945-0.50853-27.248z"
       stroke-width=".87276"
       id="path53050" /><path
       d="m42.738 43.359c0.88134-0.89422 2.8108-0.88814 3.6982 0 1.2416 1.1001 0.42958 2.8584-0.12228 3.1909-0.28491 0.17169-0.34359 0.1961-0.71132 0.23552-0.30744 0.03295-1.9586 0.01709-2.8151-0.77336-0.73306-0.67654-0.75032-1.9421-0.04951-2.6531z"
       stroke-width=".81012"
       id="path53052" /><path
       d="m46.185 48.161c0.59465-0.60334 1.8965-0.59924 2.4952 0 0.83772 0.74222 0.28984 1.9286-0.0825 2.153-0.19223 0.11584-0.23182 0.13232-0.47994 0.15891-0.20743 0.02223-1.3215 0.01153-1.8994-0.5218-0.4946-0.45647-0.50625-1.3103-0.0334-1.7901z"
       stroke-width=".79375"
       id="path53054" /></g><text
     xml:space="preserve"
     style="font-weight:bold;font-size:5.64448px;font-family:'Comic Sans MS';-inkscape-font-specification:'Comic Sans MS Bold';fill:#000000;stroke:#000000;stroke-width:0.264585;stroke-dasharray:none"
     x="11.975672"
     y="13.277109"
     id="text53207"><tspan
       sodipodi:role="line"
       id="tspan53205"
       x="11.975672"
       y="13.277109"
       style="font-style:normal;font-variant:normal;font-weight:bold;font-stretch:normal;font-size:5.64448px;font-family:'Ink Free';-inkscape-font-specification:'Ink Free Bold';stroke-width:0.264585;stroke-dasharray:none">I've finally</tspan><tspan
       sodipodi:role="line"
       x="11.975672"
       y="20.478374"
       style="font-style:normal;font-variant:normal;font-weight:bold;font-stretch:normal;font-size:5.64448px;font-family:'Ink Free';-inkscape-font-specification:'Ink Free Bold';stroke-width:0.264585;stroke-dasharray:none"
       id="tspan53572">created the</tspan><tspan
       sodipodi:role="line"
       x="11.975672"
       y="27.67964"
       style="font-style:normal;font-variant:normal;font-weight:bold;font-stretch:normal;font-size:5.64448px;font-family:'Ink Free';-inkscape-font-specification:'Ink Free Bold';stroke-width:0.264585;stroke-dasharray:none"
       id="tspan53574">perfect</tspan><tspan
       sodipodi:role="line"
       x="11.975672"
       y="34.880909"
       style="font-style:normal;font-variant:normal;font-weight:bold;font-stretch:normal;font-size:5.64448px;font-family:'Ink Free';-inkscape-font-specification:'Ink Free Bold';stroke-width:0.264585;stroke-dasharray:none"
       id="tspan53576">notebook!</tspan></text></svg>
