<svg width="150" height="200" version="1.1" viewBox="0 0 39.688 52.917" xmlns="http://www.w3.org/2000/svg">
 <rect x="2.0813" y="6.0979" width="30.85" height="45.217" fill="#fff"/>
 <g transform="matrix(.62333 0 0 .57563 -.15396 4.0795)" stroke="#000">
  <path d="m3.4965 3.3796c-0.33864-0.0054537-0.30658 0.31303 0.06146 0.3155 17.369 0.11601 37.749-0.82846 49.158-0.29609 0.3818 0.017816 0.19727-0.29903 0.01905-0.30108-11.149-0.12838-36.894 0.48046-49.238 0.28168z" stroke-width=".49742" style="paint-order:normal"/>
  <path d="m4.3311 81.925c-0.33909-0.0054-0.30699 0.31292 0.061542 0.31537 17.391 0.11596 37.674-0.75379 49.098-0.22164 0.3823 0.01781 0.30511-0.52211 0.12667-0.52416-11.164-0.12833-36.926 0.62912-49.287 0.43042z" stroke-width=".49765" style="paint-order:normal"/>
  <path d="m52.952 3.6581c0.25063 35.847 0.6301 77.841 0.6301 77.841s-0.55145 0.62721-0.51372 0.03141c0.88046-13.905-0.4825-45.52-0.8523-77.897-0.0028-0.24543 0.73421-0.22064 0.73594 0.024806z" stroke-width=".84384" style="paint-order:normal"/>
  <path d="m3.8936 81.866c-0.2505-35.922-0.69747-53.502-0.81997-78.004-8.572e-4 -0.17148 0.74625-0.56912 0.70366-0.031481-1.5247 19.25 0.48226 45.616 0.85188 78.061 0.00276 0.24595-0.73385 0.2211-0.73556-0.02486z" stroke-width=".84452" style="paint-order:normal"/>
 </g>
 <g stroke="#000" stroke-width=".3764">
  <path d="m7.976 15.088c-0.27259-0.0066-0.61732 0.24425-0.63439 0.51636-0.01875 0.29856 0.32053 0.65279 0.61964 0.64914 0.29241-0.0036 0.60499-0.18006 0.59015-0.47212-0.01308-0.25738-0.31776-0.68722-0.5754-0.69343z" style="paint-order:normal"/>
  <path d="m14.326 15.088c-0.27259-0.0066-0.61732 0.24425-0.63439 0.51636-0.01875 0.29856 0.32053 0.65279 0.61964 0.64914 0.29241-0.0036 0.60499-0.18006 0.59015-0.47212-0.01308-0.25738-0.31776-0.68722-0.5754-0.69343z" style="paint-order:normal"/>
  <path d="m20.676 15.088c-0.27259-0.0066-0.61732 0.24425-0.63439 0.51636-0.01875 0.29856 0.32053 0.65279 0.61964 0.64914 0.29241-0.0036 0.60499-0.18006 0.59015-0.47211-0.01308-0.25738-0.31776-0.68722-0.5754-0.69343z" style="paint-order:normal"/>
  <path d="m27.026 15.088c-0.27259-0.0066-0.61732 0.24425-0.63439 0.51636-0.01875 0.29856 0.32053 0.65279 0.61964 0.64914 0.29241-0.0036 0.60499-0.18006 0.59015-0.47211-0.01308-0.25738-0.31776-0.68722-0.5754-0.69343z" style="paint-order:normal"/>
  <path d="m7.976 21.438c-0.27259-0.0066-0.61732 0.24425-0.63439 0.51636-0.01875 0.29856 0.32053 0.65279 0.61964 0.64914 0.29241-0.0036 0.60499-0.18006 0.59015-0.47212-0.01308-0.25738-0.31776-0.68722-0.5754-0.69343z" style="paint-order:normal"/>
  <path d="m14.326 21.438c-0.27259-0.0066-0.61732 0.24425-0.63439 0.51636-0.01875 0.29856 0.32053 0.65279 0.61964 0.64914 0.29241-0.0036 0.60499-0.18006 0.59015-0.47212-0.01308-0.25738-0.31776-0.68722-0.5754-0.69343z" style="paint-order:normal"/>
  <path d="m20.676 21.438c-0.27259-0.0066-0.61732 0.24425-0.63439 0.51636-0.01875 0.29856 0.32053 0.65279 0.61964 0.64914 0.29241-0.0036 0.60499-0.18006 0.59015-0.47211-0.01308-0.25738-0.31776-0.68722-0.5754-0.69343z" style="paint-order:normal"/>
  <path d="m27.026 21.438c-0.27259-0.0066-0.61732 0.24425-0.63439 0.51636-0.01875 0.29856 0.32053 0.65279 0.61964 0.64914 0.29241-0.0036 0.60499-0.18006 0.59015-0.47211-0.01308-0.25738-0.31776-0.68722-0.5754-0.69343z" style="paint-order:normal"/>
  <path d="m7.976 27.788c-0.27259-0.0066-0.61732 0.24425-0.63439 0.51636-0.01875 0.29856 0.32053 0.65279 0.61964 0.64914 0.29241-0.0036 0.60499-0.18006 0.59015-0.47212-0.01308-0.25738-0.31776-0.68722-0.5754-0.69343z" style="paint-order:normal"/>
  <path d="m14.326 27.788c-0.27259-0.0066-0.61732 0.24425-0.63439 0.51636-0.01875 0.29856 0.32053 0.65279 0.61964 0.64914 0.29241-0.0036 0.60499-0.18006 0.59015-0.47212-0.01308-0.25738-0.31776-0.68722-0.5754-0.69343z" style="paint-order:normal"/>
  <path d="m20.676 27.788c-0.27259-0.0066-0.61732 0.24425-0.63439 0.51636-0.01875 0.29856 0.32053 0.65279 0.61964 0.64914 0.29241-0.0036 0.60499-0.18006 0.59015-0.47211-0.01308-0.25738-0.31776-0.68722-0.5754-0.69343z" style="paint-order:normal"/>
  <path d="m27.026 27.788c-0.27259-0.0066-0.61732 0.24425-0.63439 0.51636-0.01875 0.29856 0.32053 0.65279 0.61964 0.64914 0.29241-0.0036 0.60499-0.18006 0.59015-0.47211-0.01308-0.25738-0.31776-0.68722-0.5754-0.69343z" style="paint-order:normal"/>
  <path d="m7.976 34.138c-0.27259-0.0066-0.61732 0.24425-0.63439 0.51636-0.01875 0.29856 0.32053 0.65279 0.61964 0.64914 0.29241-0.0036 0.60499-0.18006 0.59015-0.47212-0.01308-0.25738-0.31776-0.68722-0.5754-0.69343z" style="paint-order:normal"/>
  <path d="m14.326 34.138c-0.27259-0.0066-0.61732 0.24425-0.63439 0.51636-0.01875 0.29856 0.32053 0.65279 0.61964 0.64914 0.29241-0.0036 0.60499-0.18006 0.59015-0.47212-0.01308-0.25738-0.31776-0.68722-0.5754-0.69343z" style="paint-order:normal"/>
  <path d="m20.676 34.138c-0.27259-0.0066-0.61732 0.24425-0.63439 0.51636-0.01875 0.29856 0.32053 0.65279 0.61964 0.64914 0.29241-0.0036 0.60499-0.18006 0.59015-0.47211-0.01308-0.25738-0.31776-0.68722-0.5754-0.69343z" style="paint-order:normal"/>
  <path d="m27.026 34.138c-0.27259-0.0066-0.61732 0.24425-0.63439 0.51636-0.01875 0.29856 0.32053 0.65279 0.61964 0.64914 0.29241-0.0036 0.60499-0.18006 0.59015-0.47211-0.01308-0.25738-0.31776-0.68722-0.5754-0.69343z" style="paint-order:normal"/>
  <path d="m7.976 40.488c-0.27259-0.0066-0.61732 0.24425-0.63439 0.51636-0.01875 0.29856 0.32053 0.65279 0.61964 0.64914 0.29241-0.0036 0.60499-0.18006 0.59015-0.47212-0.01308-0.25738-0.31776-0.68722-0.5754-0.69343z" style="paint-order:normal"/>
  <path d="m14.326 40.488c-0.27259-0.0066-0.61732 0.24425-0.63439 0.51636-0.01875 0.29856 0.32053 0.65279 0.61964 0.64914 0.29241-0.0036 0.60499-0.18006 0.59015-0.47212-0.01308-0.25738-0.31776-0.68722-0.5754-0.69343z" style="paint-order:normal"/>
  <path d="m20.676 40.488c-0.27259-0.0066-0.61732 0.24425-0.63439 0.51636-0.01875 0.29856 0.32053 0.65279 0.61964 0.64914 0.29241-0.0036 0.60499-0.18006 0.59015-0.47211-0.01308-0.25738-0.31776-0.68722-0.5754-0.69343z" style="paint-order:normal"/>
  <path d="m27.026 40.488c-0.27259-0.0066-0.61732 0.24425-0.63439 0.51636-0.01875 0.29856 0.32053 0.65279 0.61964 0.64914 0.29241-0.0036 0.60499-0.18006 0.59015-0.47211-0.01308-0.25738-0.31776-0.68722-0.5754-0.69343z" style="paint-order:normal"/>
  <path d="m7.976 46.838c-0.27259-0.0066-0.61732 0.24425-0.63439 0.51636-0.01875 0.29856 0.32053 0.65279 0.61964 0.64914 0.29241-0.0036 0.60499-0.18006 0.59015-0.47212-0.01308-0.25738-0.31776-0.68722-0.5754-0.69343z" style="paint-order:normal"/>
  <path d="m14.326 46.838c-0.27259-0.0066-0.61732 0.24425-0.63439 0.51636-0.01875 0.29856 0.32053 0.65279 0.61964 0.64914 0.29241-0.0036 0.60499-0.18006 0.59015-0.47212-0.01308-0.25738-0.31776-0.68722-0.5754-0.69343z" style="paint-order:normal"/>
  <path d="m20.676 46.838c-0.27259-0.0066-0.61732 0.24425-0.63439 0.51636-0.01875 0.29856 0.32053 0.65279 0.61964 0.64914 0.29241-0.0036 0.60499-0.18006 0.59015-0.47211-0.01308-0.25738-0.31776-0.68722-0.5754-0.69343z" style="paint-order:normal"/>
  <path d="m27.026 46.838c-0.27259-0.0066-0.61732 0.24425-0.63439 0.51636-0.01875 0.29856 0.32053 0.65279 0.61964 0.64914 0.29241-0.0036 0.60499-0.18006 0.59015-0.47211-0.01308-0.25738-0.31776-0.68722-0.5754-0.69343z" style="paint-order:normal"/>
 </g>
 <text x="14.807578" y="3.9758487" fill="#000000" font-family="'Ink Free'" font-size="2.2801px" font-weight="bold" stroke="#000000" stroke-width=".17101" xml:space="preserve"><tspan x="14.807578" y="3.9758487" font-size="2.2801px" stroke-width=".17101">Large top margin</tspan></text>
 <text transform="rotate(90)" x="25.386307" y="-35.293827" fill="#000000" font-family="'Ink Free'" font-size="2.2801px" font-weight="bold" stroke="#000000" stroke-width=".17101" xml:space="preserve"><tspan x="25.386307" y="-35.293827" font-size="2.2801px" stroke-width=".17101">5mm spacing</tspan></text>
 <g stroke-width="0">
  <path d="m13.181 3.2951c-0.31569-0.00278-0.63404-0.00175-0.93706 0.094866-0.20175 0.05806-0.33165 0.18875-0.41096 0.37814-0.07681 0.26903-0.06799 0.55485-0.07222 0.83237-0.0022 0.31289-3.17e-4 0.62578 8.5e-5 0.93867 4.7e-5 0.2796 0.0011 0.5592 0.0012 0.8388 9e-4 0.30111 3.18e-4 0.60222-4.5e-4 0.90333-0.0098 0.19308-5e-5 0.38144 0.03645 0.57086 0.02886 0.090202 0.01318 0.046189 0.04683 0.13211l0.42378 0.19589c-0.03424-0.082869-0.0172-0.041414-0.05113-0.12437-0.03712-0.1875-0.05586-0.3722-0.04322-0.56421-7.68e-4 -0.30129-0.0013-0.60259-5.82e-4 -0.90389-1.33e-4 -0.27961 6.08e-4 -0.55923-1e-3 -0.83884-0.0014-0.31277-0.0031-0.62555-0.0011-0.93832 0.0033-0.27168-4e-3 -0.55087 0.06736-0.81501 0.07353-0.17881 0.19871-0.29181 0.38761-0.34463 0.30206-0.08939 0.61801-0.088562 0.93083-0.082313l-0.37638-0.27345z"/>
  <path d="m29.558 15.527c0.31652 0.0026 0.63306 0.0013 0.94958 0.0012 0.25505-1.32e-4 0.51011-4.23e-4 0.76516-7.41e-4 0.226 0.01542 0.27554 0.12833 0.31602 0.33101 0.02909 0.19083 0.02414 0.38137-0.0039 0.57148-0.0501 0.27302-0.09668 0.54582-0.12612 0.82202-0.01862 0.34036-0.04116 0.67979-0.07176 1.0194-0.02833 0.29753-0.03901 0.59624-0.04463 0.89493-0.0038 0.24164-3e-3 0.48331-0.0031 0.72497-1.6e-4 0.25116 3.97e-4 0.50233 6.35e-4 0.75349-0.0011 0.28245-6.61e-4 0.5649-3.17e-4 0.84736-5.82e-4 0.19927-0.05269 0.37598-0.16736 0.53763-0.23874 0.2471-0.56842 0.34382-0.89035 0.41286-0.2022 0.03893-0.40882 0.04204-0.61403 0.04529-0.21065 0.0023-0.42131 0.0017-0.63196 0.0015-0.09006 0.0033-0.1772 9.26e-4 -0.26601-0.0132l0.38071-0.26892c0.08725 0.0094 0.17387 0.01064 0.26168 0.0088 0.21017 5.29e-4 0.42037 0.0015 0.63053-0.0016 0.20389-0.0048 0.40916-0.0098 0.60927-0.05337 0.09328-0.02181 0.18559-0.0456 0.27698-0.0745 0.02766-0.0087 0.10626-0.0444 0.08251-0.02773-0.10376 0.07284-0.21655 0.13189-0.32482 0.19784 0.01899-0.01431 0.03797-0.02861 0.05696-0.04292 0.12477-0.14792 0.17744-0.31844 0.18352-0.51158 3.44e-4 -0.28231 7.41e-4 -0.56462-4.76e-4 -0.84693 5.1e-5 -0.2512 2.3e-4 -0.5024-3.97e-4 -0.75359-5.03e-4 -0.24198-7.68e-4 -0.48397 0.0028-0.72593 0.0067-0.30006 0.01695-0.60027 0.04587-0.89914 0.03078-0.33953 0.05544-0.6786 0.06972-1.0192 0.02926-0.27618 0.0725-0.54969 0.12298-0.82266 0.02801-0.18548 0.03813-0.37027 0.01028-0.55713-0.03477-0.19094-0.07092-0.26939-0.28092-0.27722-0.25438-3.17e-4 -0.50875-6.08e-4 -0.76313-7.4e-4 -0.3176-1.48e-4 -0.63521-0.0015-0.9528 0.0012l0.37689-0.27383z"/>
  <path d="m31.406 19.049c0.39548 0.0042 0.79098 3e-3 1.1865 0.0034 0.47407-6.6e-5 0.94814 4.33e-4 1.4222 6.85e-4 0.43344 5.76e-4 0.86689-5.78e-4 1.3003-0.0022 0.14926 0.03058 0.31871-0.04933 0.46521 0.01565 0.06007 0.02665 0.09524 0.08266 0.13996 0.13834 0.1481 0.24764 0.22833 0.55225 0.28892 0.85686 0.05262 0.30288 0.05631 0.61559 0.06015 0.92519 0.01652 0.2877-0.02 0.56949-0.05109 0.8524-0.0428 0.20376-0.08558 0.40492-0.10669 0.61535-0.0182 0.22941-0.01852 0.4605-0.01949 0.69096-2.12e-4 0.15933-1.7e-4 0.07961-1.26e-4 0.23916l-0.41487 0.28802c-1.15e-4 -0.15971-1.07e-4 -0.0799-2.3e-5 -0.23945 6.88e-4 -0.2326 6.88e-4 -0.46573 0.01652-0.69757 0.01847-0.21156 0.0539-0.41624 0.10692-0.61698 0.0305-0.28043 0.07338-0.55856 0.05582-0.84406-0.0032-0.3048-0.0059-0.61257-0.05494-0.91145-0.05618-0.29309-0.13154-0.58834-0.27682-0.82322-0.17027-0.19463-0.37386-0.1024-0.58262-0.11981-0.43194-0.0016-0.86389-0.0029-1.2958-0.0022-0.47452 2.37e-4 -0.94904 7.22e-4 -1.4236 6.85e-4 -0.39778 3.97e-4 -0.79556-7.93e-4 -1.1933 0.0034l0.37689-0.37303z"/>
  <path d="m29.401 47.921c0.31652-0.0026 0.63306-0.0013 0.94958-0.0012 0.25505 1.32e-4 0.51011 4.23e-4 0.76516 7.41e-4 0.226-0.01542 0.27555-0.12833 0.31602-0.33101 0.02909-0.19083 0.02414-0.38137-0.0039-0.57148-0.0501-0.27302-0.09668-0.54582-0.12612-0.82202-0.01862-0.34036-0.04116-0.67979-0.07176-1.0194-0.02833-0.29753-0.03901-0.59624-0.04463-0.89493-0.0037-0.24164-3e-3 -0.48331-0.0031-0.72497-1.6e-4 -0.25116 3.97e-4 -0.50233 6.35e-4 -0.75349-0.0011-0.28245-6.61e-4 -0.5649-3.17e-4 -0.84736-5.82e-4 -0.19927-0.05269-0.37598-0.16736-0.53763-0.23874-0.2471-0.56842-0.34382-0.89035-0.41286-0.2022-0.03893-0.40882-0.04204-0.61403-0.04529-0.21065-0.0023-0.42131-0.0017-0.63196-0.0015-0.09006-0.0033-0.1772-9.26e-4 -0.26601 0.0132l0.38071 0.26892c0.08725-0.0094 0.17387-0.01064 0.26168-0.0088 0.21017-5.29e-4 0.42037-0.0015 0.63053 0.0016 0.20389 0.0048 0.40916 0.0098 0.60927 0.05337 0.09328 0.02181 0.18559 0.0456 0.27698 0.0745 0.02766 0.0087 0.10626 0.0444 0.08251 0.02773-0.10376-0.07284-0.21655-0.13189-0.32482-0.19784 0.01899 0.01431 0.03797 0.02861 0.05696 0.04292 0.12477 0.14792 0.17744 0.31844 0.18352 0.51158 3.44e-4 0.28231 7.41e-4 0.56462-4.76e-4 0.84693 5.2e-5 0.2512 2.3e-4 0.5024-3.97e-4 0.75359-5.03e-4 0.24198-7.67e-4 0.48397 0.0028 0.72593 0.0067 0.30006 0.01695 0.60027 0.04587 0.89914 0.03077 0.33953 0.05544 0.6786 0.06972 1.0192 0.02926 0.27618 0.0725 0.54969 0.12298 0.82266 0.02801 0.18548 0.03813 0.37027 0.01028 0.55713-0.03477 0.19094-0.07092 0.26939-0.28092 0.27722-0.25438 3.17e-4 -0.50875 6.08e-4 -0.76313 7.4e-4 -0.3176 1.48e-4 -0.63521 0.0015-0.9528-0.0012l0.37689 0.27383z"/>
  <path d="m31.249 44.4c0.39548-4e-3 0.79098-0.0028 1.1865-0.0032 0.47407 6.2e-5 0.94814-4.08e-4 1.4222-6.46e-4 0.43344-5.43e-4 0.86689 5.45e-4 1.3003 0.0021 0.14926-0.02884 0.31871 0.04652 0.46521-0.01476 0.06007-0.02513 0.09524-0.07795 0.13996-0.13046 0.1481-0.23353 0.22833-0.52078 0.28892-0.80803 0.05262-0.28562 0.05631-0.58051 0.06015-0.87246 0.01652-0.2713-0.02-0.53703-0.05109-0.80382-0.0428-0.19215-0.08558-0.38185-0.10669-0.58028-0.0182-0.21634-0.01852-0.43426-0.0195-0.65159-2.12e-4 -0.15025-1.7e-4 -0.07507-1.25e-4 -0.22553l-0.41487-0.27161c-1.14e-4 0.15061-1.07e-4 0.07535-2.2e-5 0.22581 6.87e-4 0.21938 6.87e-4 0.43921 0.01652 0.65785 0.01847 0.19951 0.0539 0.39252 0.10692 0.58182 0.0305 0.26445 0.07338 0.52673 0.05582 0.79596-0.0032 0.28743-0.0059 0.57766-0.05494 0.85951-0.05618 0.27639-0.13154 0.55481-0.27682 0.77631-0.17027 0.18354-0.37385 0.09657-0.58262 0.11299-0.43194 0.0015-0.86389 0.0027-1.2958 0.0021-0.47452-2.23e-4 -0.94904-6.81e-4 -1.4236-6.46e-4 -0.39778-3.74e-4 -0.79556 7.48e-4 -1.1933-0.0032l0.37689 0.35178z"/>
  <path d="m12.399 2.324c0.0359 0.045837 0.07339 0.09049 0.11119 0.13478 0.04682 0.049844 0.09215 0.10087 0.13663 0.1528 0.04165 0.046357 0.07874 0.096539 0.11578 0.14659 0.03959 0.059052 0.08282 0.11544 0.12642 0.17155 0.02953 0.038909 0.05866 0.078078 0.08925 0.11617 0.01915 0.025151 0.03818 0.050392 0.05769 0.07528 0.0027 0.00334 0.0053 0.0068 0.0081 0.010017 0.0029 0.0033 0.0063 0.00617 0.0092 0.00951 0.01137 0.013158 0.01974 0.028447 0.03087 0.041775 0.02058 0.023508 0.04197 0.046102 0.06064 0.071267 0.01528 0.020225 0.03027 0.04071 0.04715 0.059622 0.0023 0.00342 0.0044 0.00695 0.0069 0.010253 0.0011 0.00146 0.01322 0.015735 0.01415 0.016947 0.0071 0.0092 0.01263 0.019347 0.01941 0.028748 0.01193 0.010385 0.0191 0.024294 0.02955 0.035951 0.0013 0.0023 0.0029 0.00451 0.0041 0.0069 0.0013 0.00269 2e-3 0.0057 0.0035 0.00831 0.0039 0.0068 0.01134 0.011486 0.01617 0.017674 8.21e-4 4.763e-4 0.0016 0.00153 0.0025 0.0014 0.0016-2.371e-4 0.0036-0.00455 2e-3 -0.00461-0.0026-1.019e-4 -0.0096 0.00405-0.01048 0.0045-0.02484 0.011372-0.04833 0.024649-0.07097 0.039992-0.02335 0.013753-0.04217 0.033346-0.06334 0.049939-0.0025 0.00204-0.0051 0.00391-0.0074 0.00615-0.0064 0.00625-0.0091 0.010938-0.01528 0.017272-0.0072 0.00735-0.01476 0.013446-0.02161 0.021233-0.01716 0.019844-0.03745 0.036617-0.05524 0.05586-0.02777 0.027371-0.04808 0.061146-0.07083 0.092566-0.02758 0.035928-0.0519 0.074223-0.08054 0.10933-0.02192 0.028631-0.0443 0.056751-0.06703 0.084734-0.02199 0.028878-0.04235 0.05886-0.06465 0.08755-0.0224 0.031135-0.04406 0.062792-0.0679 0.09286-0.01918 0.01842-0.03453 0.040052-0.0493 0.062002-0.01943 0.02603-0.03975 0.051248-0.05838 0.07786-0.01423 0.019013-0.0303 0.036837-0.04264 0.057171-0.0078 0.013129-0.01668 0.02462-0.0272 0.035656-0.02102 0.023405-0.04545 0.043382-0.06732 0.065897-0.01351 0.011277-0.02431 0.025469-0.03453 0.039673-0.0013 0.00193-0.0027 0.00386-4e-3 0.00579l0.40134 0.23696c0.0014-0.00193 0.0028-0.00389 0.0043-0.00583 0.0088-0.012666 0.01816-0.024908 0.02866-0.036267 0.01953-0.022519 0.03969-0.044831 0.06319-0.063307 0.01648-0.013182 0.03005-0.027153 0.03895-0.046487 0.0097-0.020122 0.02354-0.038194 0.0363-0.056428 0.01745-0.027139 0.03845-0.051091 0.05909-0.075781 0.0158-0.020741 0.03033-0.042417 0.04664-0.062777 0.02169-0.031277 0.04316-0.062749 0.0668-0.092604 0.0218-0.028724 0.04231-0.058439 0.06555-0.086036 0.02226-0.028469 0.0429-0.058038 0.06441-0.087065 0.02705-0.036715 0.05238-0.074665 0.07949-0.11134 0.02212-0.0298 0.04702-0.057647 0.07334-0.083825 0.01885-0.018555 0.03912-0.03558 0.05736-0.054744 0.01446-0.013531 0.02764-0.028291 0.04256-0.04133 0.01738-0.017315 0.03598-0.033056 0.05741-0.045262 0.02293-0.013899 0.04765-0.024263 0.07178-0.035879 0.02122-0.01243 0.03737-0.030768 0.03889-0.056449-0.0012-0.010554-2e-3 -0.024083-0.01007-0.032174-0.0016-0.00161-0.0041-0.00206-0.0057-0.00369-0.0017-0.00183-0.0027-0.00429-4e-3 -0.00644-0.0029-0.00721-0.0069-0.014986-0.0115-0.021288-0.0016-0.00217-0.0041-0.00353-0.0056-0.00575-2e-3 -0.0029-0.0031-0.00628-0.0047-0.00941-0.0021-0.00282-0.0042-0.00565-0.0063-0.00847-0.0015-0.00138-0.01423-0.012803-0.01548-0.014267-0.01-0.011729-0.01431-0.027711-0.02702-0.037266-0.0049-0.00843-0.0065-0.012102-0.01297-0.019463-0.0028-0.00314-0.0062-0.00564-9e-3 -0.00882-0.0094-0.010956-0.01744-0.023178-0.02743-0.033678-0.0081-0.010504-0.01139-0.014444-0.01905-0.025482-0.0032-0.0046-0.0058-0.0096-0.0093-0.013994-0.0032-0.00405-0.0074-0.00724-0.01068-0.011229-0.01835-0.022281 5.4e-5 -0.00478-0.01896-0.021511-0.0026-0.00318-0.0052-0.00637-0.0078-0.00955-0.0029-0.00276-0.0062-0.00525-0.0088-0.00827-0.0094-0.010642-0.01495-0.023723-0.02333-0.034949-0.0026-0.00348-6e-3 -0.0063-9e-3 -0.00945-0.02187-0.024006-0.04262-0.049191-0.06167-0.075435-0.03201-0.040683-0.06858-0.077616-0.09813-0.12028-0.0451-0.054145-0.08899-0.10949-0.12802-0.16823-0.03309-0.053686-0.07248-0.10297-0.11268-0.1515-0.0223-0.024477-0.04263-0.050421-0.06457-0.075196-0.01477-0.01669-0.03421-0.035989-0.04957-0.052093-0.0082-0.00865-0.01635-0.017418-0.02453-0.026128-0.03491-0.038915-0.06594-0.080951-0.09754-0.12245l-0.42516-0.18602z"/>
 </g>
</svg>
