<svg width="150" height="200" version="1.1" viewBox="0 0 39.687 52.916" xmlns="http://www.w3.org/2000/svg">
 <g transform="matrix(.34599 0 0 .34599 8.8013e-5 -53.416)" stroke="#000">
  <rect transform="matrix(2.8903 0 0 2.8903 -.00025438 154.39)" x="1.521" y="5.7209" width="31.958" height="45.818" fill="#fff" stroke-opacity=".99718" stroke-width=".049999"/>
  <g transform="matrix(.69784 0 0 .86667 4.4217 170.93)" fill="none">
   <g opacity=".4" stroke-width=".26458">
    <path d="m13.229 0v152.76"/>
    <path d="m26.458 0v152.76"/>
    <path d="m39.688 0v152.76"/>
    <path d="m52.917 0v152.76"/>
    <path d="m66.146 0v152.76"/>
    <path d="m79.375 0v152.76"/>
    <path d="m92.604 0v152.76"/>
    <path d="m105.83 0v152.76"/>
    <path d="m119.06 0v152.76"/>
    <path d="M 25.135,152.76 0,138.248"/>
    <path d="M 51.594,152.76 0,122.972"/>
    <path d="M 78.052,152.76 0,107.697"/>
    <path d="M 104.51,152.76 0,92.421"/>
    <path d="M 130.97,152.76 0,77.145"/>
    <path d="M 132.29,138.25 0,61.871"/>
    <path d="M 132.29,122.97 0,46.591"/>
    <path d="M 132.29,107.69 0,31.311"/>
    <path d="M 132.29,92.418 0,16.039"/>
    <path d="M 132.29,77.142 0,0.763"/>
    <path d="M 132.29,61.867 25.13,0"/>
    <path d="M 132.29,46.591 51.592,0"/>
    <path d="M 132.29,31.315 78.05,0"/>
    <path d="M 132.29,16.04 104.509,0"/>
    <path d="M 132.29,0.76379 130.9671,0"/>
    <path d="m107.16 152.76 25.135-14.512"/>
    <path d="m80.698 152.76 51.594-29.788"/>
    <path d="m54.24 152.76 78.052-45.063"/>
    <path d="m27.781 152.76 104.51-60.339"/>
    <path d="m1.3229 152.76 130.97-75.615"/>
    <path d="m0 138.25 132.29-76.379"/>
    <path d="m0 122.97 132.29-76.379"/>
    <path d="m0 107.69 132.29-76.379"/>
    <path d="m0 92.418 132.29-76.379"/>
    <path d="m0 77.142 132.29-76.379"/>
    <path d="M 0,61.867 107.16,0"/>
    <path d="M 0,46.591 80.698,0"/>
    <path d="M 0,31.315 54.24,0"/>
    <path d="M 0,16.04 27.781,0"/>
    <path d="M 0,0.76379 1.3229,0"/>
   </g>
   <g opacity=".4" stroke-width=".13229">
    <path d="m6.6146 0v152.76"/>
    <path d="m19.844 0v152.76"/>
    <path d="m33.073 0v152.76"/>
    <path d="m46.302 0v152.76"/>
    <path d="m59.531 0v152.76"/>
    <path d="m72.76 0v152.76"/>
    <path d="m85.99 0v152.76"/>
    <path d="m99.219 0v152.76"/>
    <path d="m112.45 0v152.76"/>
    <path d="m125.68 0v152.76"/>
   </g>
   <g opacity=".4" stroke-width=".026458">
    <path d="m1.3229 0v152.76"/>
    <path d="m2.6458 0v152.76"/>
    <path d="m3.9688 0v152.76"/>
    <path d="m5.2917 0v152.76"/>
    <path d="m7.9375 0v152.76"/>
    <path d="m9.2604 0v152.76"/>
    <path d="m10.583 0v152.76"/>
    <path d="m11.906 0v152.76"/>
    <path d="m14.552 0v152.76"/>
    <path d="m15.875 0v152.76"/>
    <path d="m17.198 0v152.76"/>
    <path d="m18.521 0v152.76"/>
    <path d="m21.167 0v152.76"/>
    <path d="m22.49 0v152.76"/>
    <path d="m23.812 0v152.76"/>
    <path d="m25.135 0v152.76"/>
    <path d="m27.781 0v152.76"/>
    <path d="m29.104 0v152.76"/>
    <path d="m30.427 0v152.76"/>
    <path d="m31.75 0v152.76"/>
    <path d="m34.396 0v152.76"/>
    <path d="m35.719 0v152.76"/>
    <path d="m37.042 0v152.76"/>
    <path d="m38.365 0v152.76"/>
    <path d="m41.01 0v152.76"/>
    <path d="m42.333 0v152.76"/>
    <path d="m43.656 0v152.76"/>
    <path d="m44.979 0v152.76"/>
    <path d="m47.625 0v152.76"/>
    <path d="m48.948 0v152.76"/>
    <path d="m50.271 0v152.76"/>
    <path d="m51.594 0v152.76"/>
    <path d="m54.24 0v152.76"/>
    <path d="m55.562 0v152.76"/>
    <path d="m56.885 0v152.76"/>
    <path d="m58.208 0v152.76"/>
    <path d="m60.854 0v152.76"/>
    <path d="m62.177 0v152.76"/>
    <path d="m63.5 0v152.76"/>
    <path d="m64.823 0v152.76"/>
    <path d="m67.469 0v152.76"/>
    <path d="m68.792 0v152.76"/>
    <path d="m70.115 0v152.76"/>
    <path d="m71.438 0v152.76"/>
    <path d="m74.083 0v152.76"/>
    <path d="m75.406 0v152.76"/>
    <path d="m76.729 0v152.76"/>
    <path d="m78.052 0v152.76"/>
    <path d="m80.698 0v152.76"/>
    <path d="m82.021 0v152.76"/>
    <path d="m83.344 0v152.76"/>
    <path d="m84.667 0v152.76"/>
    <path d="m87.312 0v152.76"/>
    <path d="m88.635 0v152.76"/>
    <path d="m89.958 0v152.76"/>
    <path d="m91.281 0v152.76"/>
    <path d="m93.927 0v152.76"/>
    <path d="m95.25 0v152.76"/>
    <path d="m96.573 0v152.76"/>
    <path d="m97.896 0v152.76"/>
    <path d="m100.54 0v152.76"/>
    <path d="m101.86 0v152.76"/>
    <path d="m103.19 0v152.76"/>
    <path d="m104.51 0v152.76"/>
    <path d="m107.16 0v152.76"/>
    <path d="m108.48 0v152.76"/>
    <path d="m109.8 0v152.76"/>
    <path d="m111.12 0v152.76"/>
    <path d="m113.77 0v152.76"/>
    <path d="m115.09 0v152.76"/>
    <path d="m116.42 0v152.76"/>
    <path d="m117.74 0v152.76"/>
    <path d="m120.39 0v152.76"/>
    <path d="m121.71 0v152.76"/>
    <path d="m123.03 0v152.76"/>
    <path d="m124.35 0v152.76"/>
    <path d="m127 0v152.76"/>
    <path d="m128.32 0v152.76"/>
    <path d="m129.65 0v152.76"/>
    <path d="m130.97 0v152.76"/>
   </g>
   <g opacity=".4" stroke-width=".13229">
    <path d="M 11.906,152.76 0,145.8859"/>
    <path d="M 38.365,152.76 0,130.61"/>
    <path d="M 64.823,152.76 0,115.334"/>
    <path d="M 91.281,152.76 0,100.059"/>
    <path d="M 117.74,152.76 0,84.783"/>
    <path d="M 132.29,145.88 0,69.501"/>
    <path d="M 132.29,130.61 0,54.231"/>
    <path d="M 132.29,115.33 0,38.951"/>
    <path d="M 132.29,100.06 0,23.681"/>
    <path d="M 132.29,84.78 0,8.401"/>
    <path d="M 132.29,69.505 11.9,0"/>
    <path d="M 132.29,54.229 38.363,0"/>
    <path d="M 132.29,38.953 64.821,0"/>
    <path d="M 132.29,23.677 91.28,0"/>
    <path d="M 132.29,8.4017 117.738,0"/>
   </g>
   <g opacity=".4" stroke-width=".026458">
    <path d="M 1.3229,152.76 0,151.99621"/>
    <path d="M 3.9688,152.76 0,150.4686"/>
    <path d="M 6.6146,152.76 0,148.9411"/>
    <path d="M 9.2604,152.76 0,147.4135"/>
    <path d="M 14.552,152.76 0,144.3584"/>
    <path d="M 17.198,152.76 0,142.8308"/>
    <path d="M 19.844,152.76 0,141.303"/>
    <path d="M 22.49,152.76 0,139.776"/>
    <path d="M 27.781,152.76 0,136.72"/>
    <path d="M 30.427,152.76 0,135.193"/>
    <path d="M 33.073,152.76 0,133.665"/>
    <path d="M 35.719,152.76 0,132.138"/>
    <path d="M 41.01,152.76 0,129.083"/>
    <path d="M 43.656,152.76 0,127.555"/>
    <path d="M 46.302,152.76 0,126.027"/>
    <path d="M 48.948,152.76 0,124.5"/>
    <path d="M 54.24,152.76 0,121.445"/>
    <path d="M 56.885,152.76 0,119.917"/>
    <path d="M 59.531,152.76 0,118.39"/>
    <path d="M 62.177,152.76 0,116.862"/>
    <path d="M 67.469,152.76 0,113.807"/>
    <path d="M 70.115,152.76 0,112.279"/>
    <path d="M 72.76,152.76 0,110.752"/>
    <path d="M 75.406,152.76 0,109.224"/>
    <path d="M 80.698,152.76 0,106.169"/>
    <path d="M 83.344,152.76 0,104.641"/>
    <path d="M 85.99,152.76 0,103.114"/>
    <path d="M 88.635,152.76 0,101.586"/>
    <path d="M 93.927,152.76 0,98.531"/>
    <path d="M 96.573,152.76 0,97.004"/>
    <path d="M 99.219,152.76 0,95.476"/>
    <path d="M 101.86,152.76 0,93.948"/>
    <path d="M 107.16,152.76 0,90.893"/>
    <path d="M 109.8,152.76 0,89.366"/>
    <path d="M 112.45,152.76 0,87.838"/>
    <path d="M 115.09,152.76 0,86.311"/>
    <path d="M 120.39,152.76 0,83.255"/>
    <path d="M 123.03,152.76 0,81.728"/>
    <path d="M 125.68,152.76 0,80.2"/>
    <path d="M 128.32,152.76 0,78.673"/>
    <path d="M 132.29,151.99 0,75.611"/>
    <path d="M 132.29,150.47 0,74.091"/>
    <path d="M 132.29,148.94 0,72.561"/>
    <path d="M 132.29,147.41 0,71.031"/>
    <path d="M 132.29,144.36 0,67.981"/>
    <path d="M 132.29,142.83 0,66.451"/>
    <path d="M 132.29,141.3 0,64.921"/>
    <path d="M 132.29,139.77 0,63.391"/>
    <path d="M 132.29,136.72 0,60.341"/>
    <path d="M 132.29,135.19 0,58.811"/>
    <path d="M 132.29,133.66 0,57.281"/>
    <path d="M 132.29,132.14 0,55.761"/>
    <path d="M 132.29,129.08 0,52.701"/>
    <path d="M 132.29,127.55 0,51.171"/>
    <path d="M 132.29,126.02 0,49.641"/>
    <path d="M 132.29,124.5 0,48.121"/>
    <path d="M 132.29,121.44 0,45.061"/>
    <path d="M 132.29,119.91 0,43.531"/>
    <path d="M 132.29,118.39 0,42.011"/>
    <path d="M 132.29,116.86 0,40.481"/>
    <path d="M 132.29,113.8 0,37.421"/>
    <path d="M 132.29,112.28 0,35.901"/>
    <path d="M 132.29,110.75 0,34.371"/>
    <path d="M 132.29,109.22 0,32.841"/>
    <path d="M 132.29,106.17 0,29.791"/>
    <path d="M 132.29,104.64 0,28.261"/>
    <path d="M 132.29,103.11 0,26.731"/>
    <path d="M 132.29,101.58 0,25.201"/>
    <path d="M 132.29,98.528 0,22.149"/>
    <path d="M 132.29,97.001 0,20.622"/>
    <path d="M 132.29,95.473 0,19.094"/>
    <path d="M 132.29,93.946 0,17.567"/>
    <path d="M 132.29,90.891 0,14.512"/>
    <path d="M 132.29,89.363 0,12.984"/>
    <path d="M 132.29,87.835 0,11.456"/>
    <path d="M 132.29,86.308 0,9.929"/>
    <path d="M 132.29,83.253 0,6.874"/>
    <path d="M 132.29,81.725 0,5.346"/>
    <path d="M 132.29,80.198 0,3.819"/>
    <path d="M 132.29,78.67 0,2.291"/>
    <path d="M 132.29,75.615 1.32,0"/>
    <path d="M 132.29,74.087 3.97,0"/>
    <path d="M 132.29,72.56 6.61,0"/>
    <path d="M 132.29,71.032 9.26,0"/>
    <path d="M 132.29,67.977 14.55,0"/>
    <path d="M 132.29,66.449 17.2,0"/>
    <path d="M 132.29,64.922 19.84,0"/>
    <path d="M 132.29,63.394 22.49,0"/>
    <path d="M 132.29,60.339 27.78,0"/>
    <path d="M 132.29,58.812 30.43,0"/>
    <path d="M 132.29,57.284 33.071,0"/>
    <path d="M 132.29,55.756 35.717,0"/>
    <path d="M 132.29,52.701 41.009,0"/>
    <path d="M 132.29,51.174 43.655,0"/>
    <path d="M 132.29,49.646 46.3,0"/>
    <path d="M 132.29,48.119 48.946,0"/>
    <path d="M 132.29,45.063 54.238,0"/>
    <path d="M 132.29,43.536 56.884,0"/>
    <path d="M 132.29,42.008 59.53,0"/>
    <path d="M 132.29,40.481 62.175,0"/>
    <path d="M 132.29,37.426 67.467,0"/>
    <path d="M 132.29,35.898 70.113,0"/>
    <path d="M 132.29,34.37 72.759,0"/>
    <path d="M 132.29,32.843 75.405,0"/>
    <path d="M 132.29,29.788 80.696,0"/>
    <path d="M 132.29,28.26 83.342,0"/>
    <path d="M 132.29,26.733 85.988,0"/>
    <path d="M 132.29,25.205 88.634,0"/>
    <path d="M 132.29,22.15 93.925,0"/>
    <path d="M 132.29,20.622 96.571,0"/>
    <path d="M 132.29,19.095 99.217,0"/>
    <path d="M 132.29,17.567 101.863,0"/>
    <path d="M 132.29,14.512 107.155,0"/>
    <path d="M 132.29,12.984 109.8,0"/>
    <path d="M 132.29,11.457 112.446,0"/>
    <path d="M 132.29,9.9292 115.092,0"/>
    <path d="M 132.29,6.8741 120.384,0"/>
    <path d="M 132.29,5.3465 123.0296,0"/>
    <path d="M 132.29,3.8189 125.6754,0"/>
    <path d="M 132.29,2.2914 128.3212,0"/>
   </g>
   <g opacity=".4" stroke-width=".13229">
    <path d="m120.39 152.76 11.906-6.8741"/>
    <path d="m93.927 152.76 38.365-22.15"/>
    <path d="m67.469 152.76 64.823-37.426"/>
    <path d="m41.01 152.76 91.281-52.701"/>
    <path d="m14.552 152.76 117.74-67.977"/>
    <path d="m0 145.88 132.29-76.379"/>
    <path d="m0 130.61 132.29-76.379"/>
    <path d="m0 115.33 132.29-76.379"/>
    <path d="m0 100.06 132.29-76.379"/>
    <path d="m0 84.78 132.29-76.379"/>
    <path d="M 0,69.505 120.39,0"/>
    <path d="M 0,54.229 93.927,0"/>
    <path d="M 0,38.953 67.469,0"/>
    <path d="M 0,23.677 41.01,0"/>
    <path d="M 0,8.4017 14.552,0"/>
   </g>
   <g opacity=".4" stroke-width=".026458">
    <path d="m130.97 152.76 1.3229-0.76379"/>
    <path d="m128.32 152.76 3.9688-2.2914"/>
    <path d="m125.68 152.76 6.6146-3.8189"/>
    <path d="m123.03 152.76 9.2604-5.3465"/>
    <path d="m117.74 152.76 14.552-8.4016"/>
    <path d="m115.09 152.76 17.198-9.9292"/>
    <path d="m112.45 152.76 19.844-11.457"/>
    <path d="m109.8 152.76 22.49-12.984"/>
    <path d="m104.51 152.76 27.781-16.04"/>
    <path d="m101.86 152.76 30.427-17.567"/>
    <path d="m99.219 152.76 33.073-19.095"/>
    <path d="m96.573 152.76 35.719-20.622"/>
    <path d="m91.281 152.76 41.01-23.677"/>
    <path d="m88.635 152.76 43.656-25.205"/>
    <path d="m85.99 152.76 46.302-26.733"/>
    <path d="m83.344 152.76 48.948-28.26"/>
    <path d="m78.052 152.76 54.24-31.315"/>
    <path d="m75.406 152.76 56.885-32.843"/>
    <path d="m72.76 152.76 59.531-34.37"/>
    <path d="m70.115 152.76 62.177-35.898"/>
    <path d="m64.823 152.76 67.469-38.953"/>
    <path d="m62.177 152.76 70.115-40.481"/>
    <path d="m59.531 152.76 72.76-42.008"/>
    <path d="m56.885 152.76 75.406-43.536"/>
    <path d="m51.594 152.76 80.698-46.591"/>
    <path d="m48.948 152.76 83.344-48.119"/>
    <path d="m46.302 152.76 85.99-49.646"/>
    <path d="m43.656 152.76 88.635-51.174"/>
    <path d="m38.365 152.76 93.927-54.229"/>
    <path d="m35.719 152.76 96.573-55.756"/>
    <path d="m33.073 152.76 99.219-57.284"/>
    <path d="m30.427 152.76 101.86-58.812"/>
    <path d="m25.135 152.76 107.16-61.867"/>
    <path d="m22.49 152.76 109.8-63.394"/>
    <path d="m19.844 152.76 112.45-64.922"/>
    <path d="m17.198 152.76 115.09-66.449"/>
    <path d="m11.906 152.76 120.39-69.505"/>
    <path d="m9.2604 152.76 123.03-71.032"/>
    <path d="m6.6146 152.76 125.68-72.56"/>
    <path d="m3.9688 152.76 128.32-74.087"/>
    <path d="m0 151.99 132.29-76.379"/>
    <path d="m0 150.47 132.29-76.379"/>
    <path d="m0 148.94 132.29-76.379"/>
    <path d="m0 147.41 132.29-76.379"/>
    <path d="m0 144.36 132.29-76.379"/>
    <path d="m0 142.83 132.29-76.379"/>
    <path d="m0 141.3 132.29-76.379"/>
    <path d="m0 139.77 132.29-76.379"/>
    <path d="m0 136.72 132.29-76.379"/>
    <path d="m0 135.19 132.29-76.379"/>
    <path d="m0 133.66 132.29-76.379"/>
    <path d="m0 132.14 132.29-76.379"/>
    <path d="m0 129.08 132.29-76.379"/>
    <path d="m0 127.55 132.29-76.379"/>
    <path d="m0 126.02 132.29-76.379"/>
    <path d="m0 124.5 132.29-76.379"/>
    <path d="m0 121.44 132.29-76.379"/>
    <path d="m0 119.91 132.29-76.379"/>
    <path d="m0 118.39 132.29-76.379"/>
    <path d="m0 116.86 132.29-76.379"/>
    <path d="m0 113.8 132.29-76.379"/>
    <path d="m0 112.28 132.29-76.379"/>
    <path d="m0 110.75 132.29-76.379"/>
    <path d="m0 109.22 132.29-76.379"/>
    <path d="m0 106.17 132.29-76.379"/>
    <path d="m0 104.64 132.29-76.379"/>
    <path d="m0 103.11 132.29-76.379"/>
    <path d="m0 101.58 132.29-76.379"/>
    <path d="m0 98.528 132.29-76.379"/>
    <path d="m0 97.001 132.29-76.379"/>
    <path d="m0 95.473 132.29-76.379"/>
    <path d="m0 93.946 132.29-76.379"/>
    <path d="m0 90.891 132.29-76.379"/>
    <path d="m0 89.363 132.29-76.379"/>
    <path d="m0 87.835 132.29-76.379"/>
    <path d="m0 86.308 132.29-76.379"/>
    <path d="m0 83.253 132.29-76.379"/>
    <path d="m0 81.725 132.29-76.379"/>
    <path d="m0 80.198 132.29-76.379"/>
    <path d="m0 78.67 132.29-76.379"/>
    <path d="M 0,75.615 130.97,0"/>
    <path d="M 0,74.087 128.32,0"/>
    <path d="M 0,72.56 125.68,0"/>
    <path d="M 0,71.032 123.03,0"/>
    <path d="M 0,67.977 117.74,0"/>
    <path d="M 0,66.449 115.09,0"/>
    <path d="M 0,64.922 112.45,0"/>
    <path d="M 0,63.394 109.8,0"/>
    <path d="M 0,60.339 104.51,0"/>
    <path d="M 0,58.812 101.86,0"/>
    <path d="M 0,57.284 99.219,0"/>
    <path d="M 0,55.756 96.573,0"/>
    <path d="M 0,52.701 91.281,0"/>
    <path d="M 0,51.174 88.635,0"/>
    <path d="M 0,49.646 85.99,0"/>
    <path d="M 0,48.119 83.344,0"/>
    <path d="M 0,45.063 78.052,0"/>
    <path d="M 0,43.536 75.406,0"/>
    <path d="M 0,42.008 72.76,0"/>
    <path d="M 0,40.481 70.115,0"/>
    <path d="M 0,37.426 64.823,0"/>
    <path d="M 0,35.898 62.177,0"/>
    <path d="M 0,34.37 59.531,0"/>
    <path d="M 0,32.843 56.885,0"/>
    <path d="M 0,29.788 51.594,0"/>
    <path d="M 0,28.26 48.948,0"/>
    <path d="M 0,26.733 46.302,0"/>
    <path d="M 0,25.205 43.656,0"/>
    <path d="M 0,22.15 38.365,0"/>
    <path d="M 0,20.622 35.719,0"/>
    <path d="M 0,19.095 33.073,0"/>
    <path d="M 0,17.567 30.427,0"/>
    <path d="M 0,14.512 25.135,0"/>
    <path d="M 0,12.984 22.49,0"/>
    <path d="M 0,11.4568 19.84375,0"/>
    <path d="M 0,9.9292 17.198,0"/>
    <path d="M 0,6.8741 11.906,0"/>
    <path d="M 0,5.3465 9.2604,0"/>
    <path d="M 0,3.8189 6.6146,0"/>
    <path d="M 0,2.2914 3.9688,0"/>
   </g>
   <rect width="132.29" height="152.76" opacity=".4" stroke-width=".26458"/>
  </g>
 </g>
</svg>
