<svg width="150" height="200" version="1.1" viewBox="0 0 39.687 52.917" xmlns="http://www.w3.org/2000/svg">
 <g stroke="#000">
  <rect x="1.5209" y="5.7209" width="31.958" height="45.818" fill="#fff" stroke-width=".05"/>
  <g transform="matrix(1.0204 0 0 .99999 -.13902 6.7751)" fill="none" stroke-opacity=".49718" stroke-width=".037644">
   <path d="m5 10.014h24.5"/>
   <path d="m5 11.014h24.5"/>
   <path d="m5 12.019h24.5"/>
   <path d="m5 13.019h24.5"/>
   <path d="m5 14.019h24.5"/>
  </g>
  <g transform="matrix(1.0204 0 0 .99999 -.13954 -2.5244)" fill="none" stroke-opacity=".49718" stroke-width=".037644">
   <path d="m5 10.014h24.5"/>
   <path d="m5 11.014h24.5"/>
   <path d="m5 12.019h24.5"/>
   <path d="m5 13.019h24.5"/>
   <path d="m5 14.019h24.5"/>
  </g>
  <g transform="matrix(1.0204 0 0 .99999 -.13902 15.78)" fill="none" stroke-opacity=".49718" stroke-width=".037644">
   <path d="m5 10.014h24.5"/>
   <path d="m5 11.014h24.5"/>
   <path d="m5 12.019h24.5"/>
   <path d="m5 13.019h24.5"/>
   <path d="m5 14.019h24.5"/>
  </g>
  <g transform="matrix(1.0204 0 0 .99999 -.13902 25.779)" fill="none" stroke-opacity=".49718" stroke-width=".037644">
   <path d="m5 10.014h24.5"/>
   <path d="m5 11.014h24.5"/>
   <path d="m5 12.019h24.5"/>
   <path d="m5 13.019h24.5"/>
   <path d="m5 14.019h24.5"/>
  </g>
  <g transform="matrix(1.0204 0 0 .99999 -.13902 35.779)" fill="none" stroke-opacity=".49718" stroke-width=".037644">
   <path d="m5 10.014h24.5"/>
   <path d="m5 11.014h24.5"/>
   <path d="m5 12.019h24.5"/>
   <path d="m5 13.019h24.5"/>
   <path d="m5 14.019h24.5"/>
  </g>
 </g>
</svg>
