<svg width="150" height="200" version="1.1" viewBox="0 0 39.687 52.916" xmlns="http://www.w3.org/2000/svg">
 <rect x="1.523" y="5.7089" width="31.958" height="45.818" fill="#fff" stroke="#000" stroke-width=".049999"/>
 <g fill="none" stroke="#000" stroke-opacity=".5">
  <path d="m6.52 7.618v41.999" stroke-width=".045644"/>
  <path d="m28.29 7.618v41.999" stroke-width=".045644"/>
  <g stroke-width=".0424">
   <path d="m3.5 10.021h28"/>
   <path d="m3.5 12.021h28"/>
   <path d="m3.5 14.021h28"/>
   <path d="m3.5 16.021h28"/>
   <path d="m3.5 18.021h28"/>
   <path d="m3.5 20.021h28"/>
   <path d="m3.5 22.021h28"/>
   <path d="m3.5 24.021h28"/>
   <path d="m3.5 26.021h28"/>
   <path d="m3.5 28.021h28"/>
   <path d="m3.5 30.021h28"/>
   <path d="m3.5 32.021h28"/>
   <path d="m3.5 34.021h28"/>
   <path d="m3.5 36.021h28"/>
   <path d="m3.5 38.021h28"/>
   <path d="m3.5 40.021h28"/>
   <path d="m3.5 42.021h28"/>
   <path d="m3.5 44.021h28"/>
   <path d="m3.5 46.021h28"/>
   <path d="m3.5 48.021h28"/>
  </g>
 </g>
</svg>
