<?xml version="1.0" encoding="UTF-8" standalone="no"?>
<svg
   width="150"
   height="200"
   version="1.1"
   viewBox="0 0 39.688 52.917"
   id="svg69908"
   sodipodi:docname="index-page-4.svg"
   inkscape:version="1.2 (dc2aedaf03, 2022-05-15)"
   xmlns:inkscape="http://www.inkscape.org/namespaces/inkscape"
   xmlns:sodipodi="http://sodipodi.sourceforge.net/DTD/sodipodi-0.dtd"
   xmlns="http://www.w3.org/2000/svg"
   xmlns:svg="http://www.w3.org/2000/svg">
  <defs
     id="defs69912" />
  <sodipodi:namedview
     id="namedview69910"
     pagecolor="#ffffff"
     bordercolor="#000000"
     borderopacity="0.25"
     inkscape:showpageshadow="2"
     inkscape:pageopacity="0.0"
     inkscape:pagecheckerboard="0"
     inkscape:deskcolor="#d1d1d1"
     showgrid="false"
     inkscape:zoom="3.1890516"
     inkscape:cx="52.680239"
     inkscape:cy="123.5477"
     inkscape:window-width="1920"
     inkscape:window-height="1057"
     inkscape:window-x="1072"
     inkscape:window-y="428"
     inkscape:window-maximized="1"
     inkscape:current-layer="svg69908" />
  <rect
     style="fill:#ffffff;stroke:none;stroke-width:0"
     id="rect70165"
     width="30.614897"
     height="45.217125"
     x="2.2401142"
     y="5.9734716" />
  <g
     stroke="#000"
     id="g69844">
    <path
       d="m2.4172 6.5801-0.17852 0.37271c10.607 6.3579 23.134 13.871 30.261 17.757l0.08932-0.09118s-0.37516-0.59843-1.705-1.365c-2.1095-1.2159-4.5795-2.2068-8.6477-4.517-6.7195-3.8158-19.819-12.156-19.819-12.156z"
       stroke-width=".5357"
       style="paint-order:normal"
       id="path69832" />
    <path
       d="m2.0895 12.344-0.18206 0.38011c10.818 6.4841 23.593 14.146 30.862 18.109l0.09109-0.09299s-0.3826-0.61031-1.7388-1.3921c-2.1514-1.24-4.6704-2.2506-8.8193-4.6066-6.8529-3.8915-20.212-12.397-20.212-12.397z"
       stroke-width=".54633"
       style="paint-order:normal"
       id="path69834" />
    <path
       d="m11.177 6.28-0.2701 0.041817c7.4988 4.4948 16.355 9.8063 21.393 12.553l0.06315-0.06447s-0.26522-0.42307-1.2054-0.96502c-1.4914-0.8596-3.2376-1.5601-6.1136-3.1933-4.7505-2.6976-14.081-8.4072-14.081-8.4072z"
       stroke-width=".52917"
       style="paint-order:normal"
       id="path69836" />
    <path
       d="m19.669 6.2159-0.1646 0.027473c4.5697 2.953 9.9664 6.4425 13.037 8.2473l0.03848-0.04235s-0.16162-0.27794-0.73454-0.634c-0.90882-0.56474-1.9729-1.025-3.7255-2.0979-2.8949-1.7723-8.5809-5.5234-8.5809-5.5234z"
       stroke-width=".50837"
       style="paint-order:normal"
       id="path69838" />
    <path
       d="m26.64 6.0483-0.07686 0.011901c2.1341 1.2792 4.6545 2.7908 6.0885 3.5726l0.01797-0.018347s-0.07548-0.1204-0.34304-0.27464c-0.42444-0.24464-0.9214-0.444-1.7399-0.9088-1.352-0.76773-4.0075-2.3927-4.0075-2.3927z"
       stroke-width=".51292"
       style="paint-order:normal"
       id="path69840" />
    <path
       d="m2.2215 18.582-0.18206 0.38011c10.818 6.4841 23.593 14.146 30.862 18.109l0.09109-0.09299s-0.3826-0.61031-1.7388-1.3921c-2.1514-1.24-4.6704-2.2506-8.8193-4.6066-6.8529-3.8915-20.212-12.397-20.212-12.397z"
       stroke-width=".54633"
       style="paint-order:normal"
       id="path69842" />
  </g>
  <g
     transform="matrix(.62333 0 0 .57563 -.15408 4.0796)"
     stroke="#000"
     id="g69854">
    <path
       d="m3.4965 3.3796c-0.33864-0.0054537-0.30658 0.31303 0.06146 0.3155 17.369 0.11601 37.749-0.82846 49.158-0.29609 0.3818 0.017816 0.19727-0.29903 0.01905-0.30108-11.149-0.12838-36.894 0.48046-49.238 0.28168z"
       stroke-width=".49742"
       style="paint-order:normal"
       id="path69846" />
    <path
       d="m4.3311 81.925c-0.33909-0.0054-0.30699 0.31292 0.061542 0.31537 17.391 0.11596 37.674-0.75379 49.098-0.22164 0.3823 0.01781 0.30511-0.52211 0.12667-0.52416-11.164-0.12833-36.926 0.62912-49.287 0.43042z"
       stroke-width=".49765"
       style="paint-order:normal"
       id="path69848" />
    <path
       d="m 52.799058,3.619881 c 0.25063,35.847 0.783042,77.879219 0.783042,77.879219 0,0 -0.55145,0.62721 -0.51372,0.03141 0.88046,-13.905 -0.4825,-45.52 -0.8523,-77.897 -0.0028,-0.24543 0.567198,-0.449579 0.568928,-0.204133 z"
       stroke-width="0.84384"
       style="paint-order:normal"
       id="path69850"
       sodipodi:nodetypes="cccscc" />
    <path
       d="m3.8936 81.866c-0.2505-35.922-0.69747-53.502-0.81997-78.004-8.572e-4 -0.17148 0.74625-0.56912 0.70366-0.031481-1.5247 19.25 0.48226 45.616 0.85188 78.061 0.00276 0.24595-0.73385 0.2211-0.73556-0.02486z"
       stroke-width=".84452"
       style="paint-order:normal"
       id="path69852" />
  </g>
  <text
     x="10.100242"
     y="3.9193275"
     fill="#000000"
     font-family="'Ink Free'"
     font-size="2.2801px"
     font-weight="bold"
     stroke="#000000"
     stroke-width=".17101"
     xml:space="preserve"
     id="text69858"><tspan
       x="10.100242"
       y="3.9193275"
       font-size="2.2801px"
       stroke-width=".17101"
       id="tspan69856">Isometric grid</tspan></text>
  <text
     transform="rotate(90)"
     x="17.53812"
     y="-35.326694"
     fill="#000000"
     font-family="'Ink Free'"
     font-size="2.2801px"
     font-weight="bold"
     stroke="#000000"
     stroke-width=".17101"
     xml:space="preserve"
     id="text69862"><tspan
       x="17.53812"
       y="-35.326694"
       font-size="2.2801px"
       stroke-width=".17101"
       id="tspan69860">Custom angle and spacing</tspan></text>
  <path
     d="m 2.2215,24.39 -0.18206,0.38011 c 10.818,6.4841 23.593,14.146 30.862,18.109 l 0.09109,-0.09299 c 0,0 -0.3826,-0.61031 -1.7388,-1.3921 -2.1514,-1.24 -4.6704,-2.2506 -8.8193,-4.6066 -6.8529,-3.8915 -20.212,-12.397 -20.212,-12.397 z"
     stroke-width="0.54633"
     style="stroke:#000000;paint-order:normal"
     id="path69864" />
  <path
     d="m 2.3095,30.549 -0.18206,0.38011 c 10.818,6.4841 23.593,14.146 30.862,18.109 l 0.09109,-0.09299 c 0,0 -0.3826,-0.61031 -1.7388,-1.3921 -2.1514,-1.24 -4.6704,-2.2506 -8.8193,-4.6066 -6.8529,-3.8915 -20.212,-12.397 -20.212,-12.397 z"
     stroke-width="0.54633"
     style="stroke:#000000;paint-order:normal"
     id="path69866" />
  <path
     d="m 2.3578,36.796 -0.13868,0.28954 c 8.24,4.939 17.971,10.776 23.508,13.794 l 0.06938,-0.07083 c 0,0 -0.29144,-0.46488 -1.3245,-1.0604 -1.6387,-0.94457 -3.5575,-1.7143 -6.7178,-3.5089 -5.22,-2.9642 -15.396,-9.4433 -15.396,-9.4433 z"
     stroke-width="0.54848"
     style="stroke:#000000;paint-order:normal"
     id="path69868" />
  <path
     d="m 2.6176,43.005 -0.077999,0.16724 c 4.6345,2.8529 10.108,6.2241 13.222,7.9677 l 0.03903,-0.04091 c 0,0 -0.16392,-0.26852 -0.74496,-0.6125 -0.9217,-0.5456 -2.0009,-0.99022 -3.7784,-2.0268 -2.9359,-1.7122 -8.6593,-5.4546 -8.6593,-5.4546 z"
     stroke-width="0.52271"
     style="stroke:#000000;paint-order:normal"
     id="path69870" />
  <path
     d="m 2.6699,48.06 -0.027232,0.06215 c 1.6181,1.0602 3.5291,2.3131 4.6163,2.961 l 0.013627,-0.0152 c 0,0 -0.057231,-0.09979 -0.2601,-0.22762 -0.32181,-0.20276 -0.6986,-0.368 -1.3192,-0.75323 -1.0251,-0.6363 -3.0234,-2.0271 -3.0234,-2.0271 z"
     stroke-width="0.47709"
     style="stroke:#000000;paint-order:normal"
     id="path69872" />
  <path
     d="m 32.173,6.6824 0.17852,0.37271 c -10.607,6.3579 -23.134,13.871 -30.261,17.757 L 2.0012,24.72093 c 0,0 0.37516,-0.59843 1.705,-1.365 2.1095,-1.2159 4.5795,-2.2068 8.6477,-4.517 6.7195,-3.8158 20.150869,-12.4256434 20.150869,-12.4256434 z"
     stroke-width="0.5357"
     style="stroke:#000000;paint-order:normal"
     id="path69874"
     sodipodi:nodetypes="cccccccc" />
  <path
     d="m 32.45664,12.403267 0.178444,0.377501 C 22.032463,19.220341 9.5104892,26.829858 2.3871983,30.765272 l -0.089279,-0.09235 c 0,0 0.3749967,-0.606119 1.7043296,-1.382532 2.1086785,-1.23148 4.5775372,-2.235118 8.6440171,-4.575005 6.716733,-3.86472 19.937724,-12.480871 19.937724,-12.480871 z"
     stroke-width="0.539012"
     style="stroke:#000000;paint-order:normal"
     id="path69876"
     sodipodi:nodetypes="cccccccc" />
  <path
     d="m 25.408,6.103 0.29815,0.04209 c -8.2776,4.5241 -18.053,9.8703 -23.615,12.635 L 2.021442,18.7152 c 0,0 0.29277,-0.42583 1.3306,-0.97131 1.6462,-0.8652 3.5738,-1.5703 6.7485,-3.2141 5.2438,-2.7152 15.544,-8.4621 15.544,-8.4621 z"
     stroke-width="0.55778"
     style="stroke:#000000;paint-order:normal"
     id="path69878" />
  <path
     d="m 15.207,6.1847 0.16894,0.023526 c -4.6903,2.5287 -10.229,5.5169 -13.381,7.0623 l -0.039499,-0.03626 c 0,0 0.16589,-0.23801 0.75392,-0.5429 0.9328,-0.4836 2.025,-0.8777 3.8239,-1.7965 2.9713,-1.5176 8.8074,-4.7298 8.8074,-4.7298 z"
     stroke-width="0.55041"
     style="stroke:#000000;paint-order:normal"
     id="path69880" />
  <path
     d="m 5.9786,6.3053 0.048405,0.0075 c -1.3441,0.80563 -2.9314,1.7576 -3.8345,2.25 L 2.181188,8.551245 c 0,0 0.047536,-0.075829 0.21605,-0.17297 0.26731,-0.15407 0.58029,-0.27963 1.0958,-0.57236 0.85145,-0.48351 2.5239,-1.5069 2.5239,-1.5069 z"
     stroke-width="0.4856"
     style="stroke:#000000;paint-order:normal"
     id="path69882" />
  <path
     d="m 32.471,18.791 0.177,0.36954 c -10.517,6.3038 -22.937,13.753 -30.004,17.606 L 2.555443,36.67613 c 0,0 0.37197,-0.59334 1.6905,-1.3534 2.0916,-1.2056 4.5406,-2.188 8.5741,-4.4785 6.6624,-3.7833 19.65,-12.053 19.65,-12.053 z"
     stroke-width="0.53114"
     style="stroke:#000000;paint-order:normal"
     id="path69884" />
  <path
     d="m 32.517,24.571 0.17649,0.36848 c -10.487,6.2858 -22.872,13.714 -29.918,17.555 L 2.687185,42.40433 c 0,0 0.3709,-0.59164 1.6857,-1.3495 2.0856,-1.2021 4.5276,-2.1818 8.5496,-4.4657 6.6433,-3.7725 19.594,-12.018 19.594,-12.018 z"
     stroke-width="0.52962"
     style="stroke:#000000;paint-order:normal"
     id="path69886" />
  <path
     d="m 32.602,30.627 0.17751,0.3706 c -10.547,6.3219 -23.003,13.792 -30.09,17.656 L 2.6007,48.56294 c 0,0 0.37303,-0.59504 1.6953,-1.3573 2.0976,-1.209 4.5536,-2.1943 8.5986,-4.4913 6.6814,-3.7941 19.707,-12.087 19.707,-12.087 z"
     stroke-width="0.53266"
     style="stroke:#000000;paint-order:normal"
     id="path69888" />
  <path
     d="m 32.794,36.73 0.14156,0.29556 c -8.4114,5.0418 -18.345,11 -23.997,14.081 l -0.070824,-0.0723 c 0,0 0.2975,-0.47456 1.3521,-1.0825 1.6728,-0.96422 3.6316,-1.75 6.8576,-3.582 5.3286,-3.0259 15.716,-9.6398 15.716,-9.6398 z"
     stroke-width="0.5599"
     style="stroke:#000000;paint-order:normal"
     id="path69890" />
  <path
     d="m 32.544,42.932 0.078,0.16724 c -4.6345,2.8529 -10.108,6.2241 -13.222,7.9677 l -0.03903,-0.04091 c 0,0 0.16392,-0.26852 0.74496,-0.6125 0.9217,-0.5456 2.0009,-0.99022 3.7784,-2.0268 2.9359,-1.7122 8.6593,-5.4546 8.6593,-5.4546 z"
     stroke-width="0.52271"
     style="stroke:#000000;paint-order:normal"
     id="path69892" />
  <path
     d="m 32.989,47.646 0.02978,0.06798 c -1.7697,1.1595 -3.8596,2.5297 -5.0487,3.2384 l -0.0149,-0.01663 c 0,0 0.06259,-0.10914 0.28446,-0.24894 0.35195,-0.22176 0.76403,-0.40247 1.4428,-0.82378 1.1211,-0.69589 3.3065,-2.217 3.3065,-2.217 z"
     stroke-width="0.52177"
     style="stroke:#000000;paint-order:normal"
     id="path69894" />
  <g
     stroke-width="0"
     id="g69906">
    <path
       d="m34.6 49.559c0.12666-0.0091 0.25366-0.0033 0.38041 2.65e-4 0.1687 5e-3 0.33747 0.0062 0.50623 8e-3 0.13455 0.0065 0.26912 0.01212 0.40378 0.0158 0.11731 0.0028 0.2346 0.0071 0.35184 0.01217 0.04502 5.29e-4 0.10081 0.0052 0.13812-0.02735 0.03739-0.03267 0.04695-0.0838 0.05721-0.12917 0.0182-0.12592 0.0096-0.25405 0.0085-0.38087 0.0019-0.1453-0.0035-0.29026-0.01447-0.43511-0.01005-0.13987-0.02148-0.27953-0.02721-0.41966-0.0041-0.12425-0.01053-0.24842-0.01638-0.3726-0.0019-0.12741-0.01212-0.25438-0.02151-0.38138-0.0055-0.10541-0.01117-0.21076-0.01796-0.3161-0.01262-0.11414-0.01857-0.22871-0.02207-0.34344-0.0027-0.07667-0.0093-0.15312-0.01214-0.22977 5.29e-4 -0.05453-0.0061-0.10851-0.01135-0.16266-0.0035-0.05084-0.0066-0.1018-0.0055-0.15278 0.0042-0.06749 0.0078-0.13499 0.01114-0.20252 0.0042-0.06867 0.0016-0.13738 1.67e-4 -0.20608-0.0019-0.11698-0.0029-0.23398-0.0032-0.35097 0.0026-0.13073-0.0011-0.26122-0.0088-0.39171-5e-3 -0.05939-0.0075-0.11894-0.01082-0.17843-7.94e-4 -0.01527-0.0031-0.05913-0.0069-0.0763-0.0024-0.01035-0.0066-0.02013-0.0099-0.03019-0.12505-0.1494-0.05003-0.06644-0.45817-0.25846-0.01728-0.0081-0.03819-2.22e-4 -0.05728 4.8e-5 -0.02389 2.64e-4 -0.04778 0.0011-0.07167 0.0019-0.06225 0.0019-0.12448 0.0041-0.18673 6e-3 -0.21258 0.0075-0.42531 0.01199-0.63784 0.02085-0.14064 0.0053-0.28118 0.01037-0.42163 0.01945-0.05413 4e-3 -0.10837 0.0057-0.16263 0.0065-0.04521 0.0011-0.09045 5.29e-4 -0.13567 2.64e-4l0.37299 0.27103c0.04568-2.1e-5 0.09136-2.64e-4 0.13704-5.29e-4 0.05301-0.0013 0.10569-0.0062 0.15826-0.01334 0.13463-0.01505 0.26975-0.02267 0.40505-0.02907 0.21166-0.01061 0.42354-0.01921 0.63546-0.02096 0.08914-1.27e-4 0.18014-0.0037 0.26903 0.0053 0.01916 0.0019 0.07296 0.02021 0.05703 0.0094-0.29816-0.20261-0.49275-0.24031-0.32457-0.20488 0.0062 0.0056 0.01431 0.0096 0.01844 0.01683 0.0077 0.01349 0.01466 0.06279 0.01609 0.07426 0.0075 0.05993 0.0097 0.12049 0.01558 0.18057 0.0097 0.12931 0.0096 0.25892 0.0091 0.38854-2.62e-4 0.11592-0.0011 0.23184-3e-3 0.34774-0.0016 0.06754-0.0039 0.13504-0.0037 0.2026-0.0013 0.06706-0.0044 0.13409-0.01225 0.20074-0.0046 0.05285-0.0016 0.10589 0.0026 0.15871 4e-3 0.05395 0.01243 0.10744 0.01291 0.16161 0.0049 0.07785 0.01275 0.15537 0.02003 0.23302 0.0048 0.11483 0.01222 0.22956 0.02069 0.34417 0.0068 0.10607 0.0141 0.21206 0.02064 0.31814 0.01037 0.12654 0.02402 0.25296 0.02349 0.38011 0.0024 0.12475 0.01307 0.24906 0.01749 0.37373 0.0066 0.14069 0.01757 0.28104 0.02814 0.42146 0.0096 0.14423 0.02008 0.28851 0.01722 0.43321 5.3e-5 0.12227 7.94e-4 0.24522-0.01376 0.36678-0.0065 0.02962-0.01069 0.07229-0.03919 0.09136-0.03307 0.02215-0.08112 0.01318-0.11743 0.01556-0.11767-0.0039-0.23514-0.01339-0.35295-0.01217-0.13283-0.0028-0.26555-9e-3 -0.39839-0.0109-0.16815-2.64e-4 -0.3363-0.0024-0.50436-8e-3 -0.13379-0.0046-0.2676-0.0087-0.40136-0.01381l0.376 0.27318z"
       id="path69898" />
    <path
       d="m36.404 47.346c0.2461-0.09351 0.48093-0.21379 0.71147-0.34021 0.2451-0.12284 0.43137-0.31638 0.58598-0.5383 0.19832-0.23453 0.30944-0.51156 0.408-0.79809 0.13091-0.37214 0.20683-0.75913 0.252-1.1501 0.04097-0.42236 0.04517-0.847 0.04738-1.271-7.93e-4 -0.45045-0.0987-0.89351-0.23677-1.3201-0.10509-0.35544-0.28619-0.67994-0.47055-0.99892-0.0241-0.03863-0.0482-0.07726-0.07231-0.11589l-0.41948-0.18455c0.02498 0.03831 0.04996 0.07663 0.07495 0.11495 0.18484 0.31766 0.37302 0.63768 0.47881 0.99244 0.14262 0.42098 0.24149 0.86063 0.24355 1.3071-3e-3 0.42241-0.0053 0.84558-0.04526 1.2665-0.04541 0.38742-0.11908 0.77125-0.25051 1.1397-0.09827 0.28226-0.20936 0.55411-0.40526 0.7851-0.15159 0.2164-0.33427 0.40207-0.57438 0.52067-0.2286 0.12499-0.46159 0.24736-0.71062 0.32654l0.38301 0.26418z"
       id="path69900" />
    <path
       d="m37.373 27.076c0.1-0.20501 0.17926-0.41912 0.27208-0.62729 0.11468-0.26742 0.22361-0.53704 0.32718-0.80894 0.20625-0.4896 0.36878-0.99475 0.5254-1.5018 0.18621-0.60497 0.26364-1.2307 0.30882-1.8595 0.03734-0.64964 0.0424-1.3006-0.0074-1.9495-0.05349-0.43887-0.09318-0.88004-0.17404-1.3151-0.05479-0.29478-0.07737-0.36571-0.1503-0.65648-0.10873-0.42557-0.21793-0.85128-0.37579-1.2619-0.05242-0.13635-0.16271-0.3867-0.22181-0.52284-0.20682-0.43924-0.47201-0.84788-0.76732-1.2322-0.23543-0.28798-0.47566-0.57156-0.74798-0.82533-0.16477-0.14336-0.32128-0.2953-0.49015-0.43377-0.23519-0.17283-0.49211-0.3175-0.75324-0.4475-0.13185-0.05273-0.27266-0.08244-0.41182-0.10975-0.13641-0.02497-0.26935-0.0624-0.40718-0.08081-0.1377-0.01524-0.27651-0.01475-0.41487-0.01568-0.14123-0.0022-0.27936 0.01937-0.39722 0.09899-0.16231 0.10689-0.29284 0.02744 0.35064 0.23652 0.02061 0.0067 0.01556-0.04053 0.02506-0.06002 0.0292-0.06004 0.06318-0.11763 0.09448-0.17661 0.14863-0.27388 0.29042-0.55091 0.42906-0.83021 0.08082-0.17471 0.16506-0.34741 0.2559-0.51705l-0.40216-0.23004c-0.0883 0.17155-0.17014 0.346-0.24994 0.52172-0.13768 0.27914-0.27999 0.55504-0.43225 0.82637-9e-3 0.01621-0.13246 0.23412-0.12796 0.2385 0.33315 0.32371 0.26559 0.36456 0.44813 0.24224 0.1149-0.06854 0.24976-0.07902 0.38171-0.07717 0.13737 0.0013 0.27526 0.0023 0.41159 0.02114 0.1363 0.02154 0.26891 0.059 0.40484 0.08242 0.13726 0.0295 0.27717 0.05833 0.40422 0.11991 0.14299 0.07633 0.43053 0.23981-0.20738-0.12485-0.151-0.08632 0.10354 0.06348 0.11698 0.07222 0.01738 0.0113 0.03386 0.02394 0.05079 0.0359 0.1688 0.14229 0.33507 0.28674 0.4992 0.43494 0.27593 0.25102 0.51749 0.53342 0.75554 0.82029 0.29829 0.38123 0.56546 0.78763 0.7765 1.2241 0.04299 0.09767 0.1889 0.4267 0.22633 0.52169 0.16111 0.40878 0.27141 0.83372 0.37941 1.2588 0.07295 0.28679 0.09696 0.3622 0.1517 0.65307 0.08163 0.43368 0.12109 0.87355 0.17454 1.3112 0.05225 0.64674 0.04781 1.2959 0.01037 1.9436-0.04396 0.62559-0.12082 1.248-0.30472 1.8502-0.15575 0.50568-0.32442 1.0069-0.53458 1.4931-0.10691 0.26951-0.21627 0.53795-0.33003 0.80466-0.0935 0.20682-0.17051 0.4214-0.2776 0.62195l0.40525 0.23074z"
       id="path69902" />
    <path
       d="m33.433 13.533c0.171 0.24405 0.36723 0.46716 0.5636 0.69049 0.24956 0.27951 0.60442 0.43478 0.92371 0.61666 0.20921 0.10811 0.10532 0.05358 0.31166 0.16358l-0.35444-0.28497c-0.20677-0.1096-0.10271-0.05467-0.3122-0.1648 0.59569 0.3533-0.06039-0.01725-0.14548-0.15195-0.19493-0.22192-0.39826-0.43705-0.56069-0.68535l-0.42618-0.18366z"
       id="path69904" />
  </g>
</svg>
