<svg width="150" height="200" version="1.1" viewBox="0 0 39.688 52.917" xmlns="http://www.w3.org/2000/svg">
 <rect x="2.1166" y="6.1379" width="30.732" height="45.217" fill="#fff"/>
 <g transform="matrix(.62333 0 0 .57563 -.15396 4.0795)" stroke="#000">
  <path d="m3.4965 3.3796c-0.33864-0.0054537-0.30658 0.31303 0.06146 0.3155 17.369 0.11601 37.749-0.82846 49.158-0.29609 0.3818 0.017816 0.19727-0.29903 0.01905-0.30108-11.149-0.12838-36.894 0.48046-49.238 0.28168z" stroke-width=".49742" style="paint-order:normal"/>
  <path d="m4.3311 81.925c-0.33909-0.0054-0.30699 0.31292 0.061542 0.31537 17.391 0.11596 37.674-0.75379 49.098-0.22164 0.3823 0.01781 0.30511-0.52211 0.12667-0.52416-11.164-0.12833-36.926 0.62912-49.287 0.43042z" stroke-width=".49765" style="paint-order:normal"/>
  <path d="m52.952 3.6581c0.25063 35.847 0.6301 77.841 0.6301 77.841s-0.55145 0.62721-0.51372 0.03141c0.88046-13.905-0.4825-45.52-0.8523-77.897-0.0028-0.24543 0.73421-0.22064 0.73594 0.024806z" stroke-width=".84384" style="paint-order:normal"/>
  <path d="m3.8936 81.866c-0.2505-35.922-0.69747-53.502-0.81997-78.004-8.572e-4 -0.17148 0.74625-0.56912 0.70366-0.031481-1.5247 19.25 0.48226 45.616 0.85188 78.061 0.00276 0.24595-0.73385 0.2211-0.73556-0.02486z" stroke-width=".84452" style="paint-order:normal"/>
 </g>
 <g stroke="#000" stroke-width=".51044">
  <path d="m3.9697 10.31 0.012937 0.30941c5.0383 0.15212 10.989 0.33471 14.296 0.18565l0.01294-0.09283s-0.25431-0.24831-0.87976-0.24753c-0.99212 0.0013-2.0656 0.2843-3.9718 0.30941-3.1486 0.04147-9.4703-0.46411-9.4703-0.46411z" style="paint-order:normal"/>
  <path d="m3.9695 12.956 0.012939 0.30941c5.0383 0.15212 10.989 0.33471 14.296 0.18565l0.01294-0.09284s-0.25431-0.24831-0.87976-0.24753c-0.99212 0.0013-2.0656 0.2843-3.9718 0.30941-3.1486 0.04148-9.4703-0.46411-9.4703-0.46411z" style="paint-order:normal"/>
  <path d="m3.9746 15.602 0.012939 0.30941c5.0383 0.15212 10.989 0.33471 14.296 0.18565l0.01294-0.09284s-0.25431-0.24831-0.87976-0.24753c-0.99212 0.0013-2.0656 0.2843-3.9718 0.30941-3.1486 0.04148-9.4703-0.46411-9.4703-0.46411z" style="paint-order:normal"/>
  <path d="m3.9697 18.247 0.012937 0.30941c5.0383 0.15212 10.989 0.33471 14.296 0.18565l0.01294-0.09283s-0.25431-0.24831-0.87976-0.24753c-0.99212 0.0013-2.0656 0.2843-3.9718 0.30941-3.1486 0.04147-9.4703-0.46411-9.4703-0.46411z" style="paint-order:normal"/>
  <path d="m3.9695 20.894 0.012939 0.30941c5.0383 0.15212 10.989 0.33471 14.296 0.18565l0.01294-0.09284s-0.25431-0.24831-0.87976-0.24753c-0.99212 0.0013-2.0656 0.2843-3.9718 0.30941-3.1486 0.04148-9.4703-0.46411-9.4703-0.46411z" style="paint-order:normal"/>
  <path d="m3.9695 23.539 0.012939 0.30941c5.0383 0.15212 10.989 0.33471 14.296 0.18565l0.01294-0.09284s-0.25431-0.24831-0.87976-0.24753c-0.99212 0.0013-2.0656 0.2843-3.9718 0.30941-3.1486 0.04148-9.4703-0.46411-9.4703-0.46411z" style="paint-order:normal"/>
  <path d="m3.9697 26.185 0.01294 0.30941c5.0383 0.15212 10.989 0.33471 14.296 0.18565l0.01294-0.09283s-0.25431-0.24831-0.87976-0.24753c-0.99212 0.0013-2.0656 0.2843-3.9718 0.30941-3.1486 0.04147-9.4703-0.46411-9.4703-0.46411z" style="paint-order:normal"/>
  <path d="m3.9695 28.831 0.01294 0.30941c5.0383 0.15212 10.989 0.33471 14.296 0.18565l0.01294-0.09284s-0.25431-0.24831-0.87976-0.24753c-0.99212 0.0013-2.0656 0.2843-3.9718 0.30941-3.1486 0.04148-9.4703-0.46411-9.4703-0.46411z" style="paint-order:normal"/>
  <path d="m3.9746 31.477 0.01294 0.30941c5.0383 0.15212 10.989 0.33471 14.296 0.18565l0.01294-0.09284s-0.25431-0.24831-0.87976-0.24753c-0.99212 0.0013-2.0656 0.2843-3.9718 0.30941-3.1486 0.04148-9.4703-0.46411-9.4703-0.46411z" style="paint-order:normal"/>
  <path d="m3.9697 34.123 0.01294 0.30941c5.0383 0.15212 10.989 0.33471 14.296 0.18565l0.01294-0.09283s-0.25431-0.24831-0.87976-0.24753c-0.99212 0.0013-2.0656 0.2843-3.9718 0.30941-3.1486 0.04147-9.4703-0.46411-9.4703-0.46411z" style="paint-order:normal"/>
  <path d="m3.9695 36.769 0.01294 0.30941c5.0383 0.15212 10.989 0.33471 14.296 0.18565l0.01294-0.09284s-0.25431-0.24831-0.87976-0.24753c-0.99212 0.0013-2.0656 0.2843-3.9718 0.30941-3.1486 0.04148-9.4703-0.46411-9.4703-0.46411z" style="paint-order:normal"/>
  <path d="m3.9695 39.414 0.01294 0.30941c5.0383 0.15212 10.989 0.33471 14.296 0.18565l0.01294-0.09284s-0.25431-0.24831-0.87976-0.24753c-0.99212 0.0013-2.0656 0.2843-3.9718 0.30941-3.1486 0.04148-9.4703-0.46411-9.4703-0.46411z" style="paint-order:normal"/>
  <path d="m3.9697 42.06 0.01294 0.30941c5.0383 0.15212 10.989 0.33471 14.296 0.18565l0.01294-0.09283s-0.25431-0.24831-0.87976-0.24753c-0.99212 0.0013-2.0656 0.2843-3.9718 0.30941-3.1486 0.04147-9.4703-0.46411-9.4703-0.46411z" style="paint-order:normal"/>
  <path d="m3.9695 44.706 0.01294 0.30941c5.0383 0.15212 10.989 0.33471 14.296 0.18565l0.01294-0.09284s-0.25431-0.24831-0.87976-0.24753c-0.99212 0.0013-2.0656 0.2843-3.9718 0.30941-3.1486 0.04148-9.4703-0.46411-9.4703-0.46411z" style="paint-order:normal"/>
  <path d="m3.9695 47.352 0.01294 0.30941c5.0383 0.15212 10.989 0.33471 14.296 0.18565l0.01294-0.09284s-0.25431-0.24831-0.87976-0.24753c-0.99212 0.0013-2.0656 0.2843-3.9718 0.30941-3.1486 0.04148-9.4703-0.46411-9.4703-0.46411z" style="paint-order:normal"/>
 </g>
 <text transform="rotate(90)" x="17.889252" y="-35.821636" fill="#000000" font-family="'Ink Free'" font-size="2.2801px" font-weight="bold" stroke="#000000" stroke-width=".17101" xml:space="preserve"><tspan x="17.889252" y="-35.821636" font-size="2.2801px" stroke-width=".17101">Blank half for drawings</tspan></text>
 <text x="15.309374" y="3.6623881" fill="#000000" font-family="'Ink Free'" font-size="2.2801px" font-weight="bold" stroke="#000000" stroke-width=".17101" xml:space="preserve"><tspan x="15.309374" y="3.6623881" font-size="2.2801px" stroke-width=".17101">5mm spaced lines</tspan></text>
 <g stroke-width="0">
  <path d="m34.77 19.063c-0.17366 0.3174-0.30856 0.65315-0.45196 0.98461-0.10727 0.24798-0.16984 0.50878-0.19397 0.77698-0.01736 0.30908-0.05275 0.61685-0.07589 0.92559-0.0181 0.28472-0.02106 0.57016-0.02286 0.85536-2.36e-4 0.2906-2.65e-4 0.5812-1.7e-4 0.8718-5e-5 0.25636 1.4e-5 0.51273-1.24e-4 0.76909 5.29e-4 0.26534 5.29e-4 0.53069 1.46e-4 0.79603-7.94e-4 0.27532 7.93e-4 0.55065 7.93e-4 0.82597-5.29e-4 0.25763-0.0011 0.51526-0.0011 0.77288-0.01246 0.25051 0.06333 0.49177 0.11463 0.73414 0.0395 0.23861 0.0723 0.47863 0.09994 0.71898 0.02842 0.2652 0.04078 0.53168 0.04689 0.79821 0.02193 0.21055 0.05555 0.41943 0.07383 0.63042 0.0163 0.23478 0.01659 0.47029 0.01733 0.70551 7.93e-4 0.24917 2.32e-4 0.49833-5.3e-4 0.7475 9.8e-5 0.21825-5.29e-4 0.43649-7.93e-4 0.65474 5.29e-4 0.22686 2.64e-4 0.45371 5.29e-4 0.68057 7.94e-4 0.27709 5.29e-4 0.55417 5.29e-4 0.83126-2.35e-4 0.26543-2.4e-5 0.53087-5.29e-4 0.7963-5.29e-4 0.28193 0.0011 0.56385 7.94e-4 0.84578 0.01418 0.2558-0.0232 0.50825-0.05295 0.76136-0.01064 0.20059-0.04122 0.39723-0.07349 0.59506-0.02882 0.20443-0.08414 0.40313-0.11094 0.60803-0.02606 0.23263-0.02588 0.46705-0.02795 0.70081-2.64e-4 0.26215-1.45e-4 0.5243-3.7e-5 0.78644-0.01 0.19081 7.94e-4 0.37443 0.073 0.55203 0.06378 0.1137 0.13194 0.22072 0.22429 0.31294 0.06301 0.06225 0.08834 0.14577 0.12185 0.22508l0.4246 0.19429c-0.03825-0.08066-0.05563-0.17058-0.11494-0.24026-0.0285-0.0294-0.06175-0.05398-0.0898-0.08379-0.05879-0.0625-0.08004-0.15236-0.14204-0.21324-0.07634-0.17268-0.09778-0.34716-0.08398-0.53668-5.29e-4 -0.26201-0.0016-0.52403-6.3e-5 -0.78604 0.0013-0.23193 0.0021-0.46442 0.0263-0.69536 0.02601-0.20457 0.08051-0.40282 0.11036-0.60655 0.03269-0.19866 0.06592-0.39558 0.07386-0.59736 0.02893-0.2552 0.06926-0.50944 0.05306-0.76729-1.88e-4 -0.28162 0.0013-0.56323 7.94e-4 -0.84484-5.29e-4 -0.26558-2.12e-4 -0.53117-5.29e-4 -0.79676 1.16e-4 -0.2769-2.65e-4 -0.5538 5.29e-4 -0.8307 2.64e-4 -0.22665 8e-6 -0.45331 5.29e-4 -0.67996-2.2e-4 -0.21839-5.29e-4 -0.43677-1.85e-4 -0.65516-2.01e-4 -0.24932 1.08e-4 -0.49864-5e-5 -0.74797-0.0011-0.23607-1.4e-5 -0.47236-0.01416-0.70811-0.01744-0.21043-0.04937-0.4188-0.07569-0.6282-0.0067-0.26819-0.02037-0.53623-0.04793-0.80318-0.02551-0.24139-0.05662-0.48236-0.09555-0.72188-0.05035-0.23984-0.12998-0.47768-0.11893-0.72551-1.74e-4 -0.25803-5.29e-4 -0.51606-0.0011-0.77408 6.9e-5 -0.27502 0.0016-0.55004 7.94e-4 -0.82506-5.29e-4 -0.2653-2.65e-4 -0.53061 9.5e-5 -0.79592-2.2e-4 -0.25653-2.65e-4 -0.51306-7.94e-4 -0.76959-2.59e-4 -0.29047-0.0013-0.58095 2.17e-4 -0.87142 0.0016-0.2844 0.0031-0.56898 0.02096-0.85294 0.02111-0.30857 0.05705-0.61579 0.07669-0.92431 0.02286-0.26368 0.07932-0.52118 0.18465-0.76532 0.14091-0.32983 0.27211-0.66502 0.45206-0.97642l-0.40184-0.23388z"/>
  <path d="m34.301 28.463c-0.43129 0.0026-0.86259 0.0026-1.2939 0.0032-0.57286 2.65e-4 -1.1457 5.29e-4 -1.7186-1.56e-4 -0.38049-1.19e-4 -0.76097-0.0019-1.1415-0.0021-0.16389 2.54e-4 -0.32778 5.29e-4 -0.49167 5.29e-4l0.3727 0.27078c0.16435-8e-6 0.3287 2.51e-4 0.49306 5.29e-4 0.37844-5.29e-4 0.75688-0.0021 1.1353-0.0021 0.57272-7.94e-4 1.1454-5.29e-4 1.7181-1.56e-4 0.43425 7.94e-4 0.8685 7.94e-4 1.3027 0.0032l-0.37638-0.27345z"/>
  <path d="m30.037 27.063c-0.16826 0.29442-0.34035 0.58761-0.53428 0.86596-0.15044 0.22818-0.31299 0.33946-0.32844 0.62677 0.04137 0.32409 0.26571 0.58466 0.50033 0.79564 0.27047 0.25598 0.60309 0.41152 0.92663 0.59096l-0.36118-0.28857c0.63205 0.38811-0.04307-0.0062-0.13869-0.12899-0.23336-0.19786-0.45818-0.44597-0.5138-0.75688 0.0011-0.26673 0.17734-0.39184 0.31203-0.60545 0.19395-0.2822 0.36725-0.57793 0.54378-0.8712l-0.4064-0.22825z"/>
  <path d="m19.849 10.964c0.27477-0.0033 0.54957-0.0026 0.82435-0.0018 0.19495 2.55e-4 0.38989 1e-3 0.58484 0.0014 0.02049 0.0033 0.04217 0.0023 0.06146 0.01 0.01691 0.0067 0.0605 0.04014 0.04426 0.03193-0.12121-0.06133-0.23355-0.14119-0.35972-0.19154-0.0205-0.0082 0.02142 0.03881 0.02897 0.05955 0.01819 0.04995 0.02279 0.09659 0.03093 0.14872 0.01709 0.15754 0.01365 0.31632 0.01313 0.47451 3.96e-4 0.22395-4.5e-4 0.4479-0.0016 0.67185-7.94e-4 0.19562-3.7e-4 0.39125-8.47e-4 0.58688-3.44e-4 0.15008-0.0011 0.30015-7.14e-4 0.45023-9.2e-5 0.14703 5.8e-5 0.29407 1.47e-4 0.4411 3.71e-4 0.15763-1.72e-4 0.31527 1.46e-4 0.4729-2.4e-4 0.15679 5.3e-5 0.31358-1.02e-4 0.47037 0.0053 0.1387 0.01203 0.22436-0.09318 0.32292-0.13612 0.06759-0.29654 0.06566-0.44554 0.07119-0.14182 0.0034-0.28368 0.0017-0.42552 8.47e-4 -0.15258-6.35e-4 -0.30516-4.76e-4 -0.45774-7.41e-4 -0.09486-1.88e-4 -0.18971-2.91e-4 -0.28457-3.97e-4l0.37637 0.27346c0.09457-6.6e-5 0.18915-1.5e-4 0.28372-1.76e-4 0.15287 2.8e-5 0.30573 5.03e-4 0.4586 0.0016 0.14186 6.35e-4 0.2838 0.0018 0.42559-0.0036 0.15802-0.0081 0.33014-0.0084 0.46658-0.0981 0.11507-0.11778 0.11686-0.19558 0.10939-0.35618-1.55e-4 -0.15683 1.38e-4 -0.31365-1.03e-4 -0.47048 3.18e-4 -0.15758-2.2e-4 -0.31517 1.46e-4 -0.47276 8.8e-5 -0.14699 2.37e-4 -0.29397 1.35e-4 -0.44096 4.23e-4 -0.15032-3.97e-4 -0.30065-7.41e-4 -0.45097-4.5e-4 -0.19577-2.3e-5 -0.39154-1.87e-4 -0.58731-3.17e-4 -0.22362-3e-6 -0.44724 0.0032-0.67084 0.0013-0.16012 0.0044-0.3207-0.0098-0.48038-0.0042-0.03343-0.02332-0.2107-0.048-0.22996-0.17311-0.13514-0.33327-0.29277-0.55024-0.30666-0.19363 4.23e-4 -0.38727 0.0012-0.5809 0.0014-0.27645 7.67e-4 -0.55292 0.0014-0.82936-0.0018l0.37689 0.27383z"/>
  <path d="m21.467 12.893c0.1894-0.0018 0.37882-1e-3 0.56822-6.35e-4 0.16961 6.6e-5 0.33921 8.3e-5 0.50882-7.4e-5 0.15419 4.5e-5 0.30839 3.44e-4 0.46258 5.03e-4 0.1488 0.0032 0.29492-0.02001 0.41568-0.11017 0.09737-0.12948 0.1288-0.29742 0.15476-0.45434 0.01683-0.17905 0.04399-0.35681 0.06324-0.53564 0.01856-0.18853 0.0221-0.37793 0.02452-0.5672 0.0011-0.22915-4.5e-5 -0.4583-3.97e-4 -0.68745-4e-3 -0.24903 0.0075-0.49847-0.0067-0.7472-0.01229-0.20887-0.04551-0.41498-0.07491-0.6218-0.02908-0.18115-0.02743-0.36509-0.04613-0.54708-0.0315-0.20006-0.04406-0.40202-0.05202-0.60415-0.0072-0.24493-0.0075-0.49-0.0081-0.73501-0.0014-0.2816-4.5e-4 -0.56321 0.0012-0.84481 0.0019-0.18207 0.0012-0.36414 5.29e-4 -0.54621 1.22e-4 -0.18358 5.82e-4 -0.36715 7.67e-4 -0.55073 1e-5 -0.17118-2.91e-4 -0.34236 7.1e-5 -0.51354l-0.41336-0.21062c3.7e-4 0.1712 6.2e-5 0.34241 7.4e-5 0.51361 1.93e-4 0.18383 6.35e-4 0.36766 7.41e-4 0.5515-6.88e-4 0.1822-0.0015 0.36439 2.64e-4 0.54659 0.0013 0.28191 0.0019 0.56381 4.77e-4 0.84572-2.27e-4 0.24522-0.0013 0.49051 0.0058 0.73565 0.0068 0.20267 0.01625 0.40559 0.04791 0.6062 0.0237 0.18202 0.01667 0.3673 0.04756 0.54892 0.02783 0.20621 0.06323 0.41115 0.07707 0.6191 0.01787 0.24782 0.0046 0.49671 0.0089 0.74501-2.1e-5 0.22856-9e-5 0.45713-0.0019 0.68568-0.0018 0.18795-0.0053 0.37609-0.02244 0.56338-0.01841 0.1781-0.04835 0.35456-0.06282 0.53302-0.02248 0.14417-0.0488 0.30257-0.138 0.42145-0.11795 0.07916-0.25984 0.08944-0.39904 0.0867-0.15373 1.6e-4 -0.30747 4.5e-4 -0.4612 5.03e-4 -0.16967-1.57e-4 -0.33935-1.4e-4 -0.50902-7.4e-5 -0.19 3.71e-4 -0.38 0.0011-0.57-6.35e-4l0.37689 0.27383z"/>
 </g>
</svg>
