<?xml version="1.0" encoding="UTF-8"?>
<!-- Created with Inkscape (http://www.inkscape.org/) -->
<svg width="200" height="200" version="1.1" viewBox="0 0 52.917 52.917" xml:space="preserve" xmlns="http://www.w3.org/2000/svg"><path d="m46.429 8.4263c-9.0516-9.1838-28.867-9.1214-37.982 0-12.752 11.298-6.3153 26.698 2.5003 32.274 0.98145 0.62073 1.9872 0.80218 0.43154 3.9664-2.6703 5.4317-2.2645 4.414-4.0517 6.0661-2.8535 2.6378 4.8342-3.9619 6.6038-6.0847 1.1753-1.4099 1.4352-2.4995 2.7442-2.0564 5.1563 1.7452 20.449 1.2007 29.245-6.9175 7.5287-6.9482 7.7059-19.945 0.50853-27.248z" fill="#fff" stroke="#000" stroke-width=".87276"/><text x="11.753975" y="13.99321" fill="#000000" font-family="'Comic Sans MS'" font-size="5.6444px" stroke="#000000" stroke-width=".26458" xml:space="preserve"><tspan x="11.753975" y="13.99321" style="paint-order:normal">You already </tspan><tspan x="11.753975" y="21.228735" style="paint-order:normal">have 20 </tspan><tspan x="11.753975" y="28.464258" style="paint-order:normal">notebooks </tspan><tspan x="11.753975" y="35.699783" style="paint-order:normal">at home!</tspan></text></svg>
