<svg width="150" height="200" version="1.1" viewBox="0 0 39.688 52.917" xmlns="http://www.w3.org/2000/svg">
 <rect x="2.2401" y="6.2224" width="30.645" height="45.118" fill="#fff" stroke-width="0"/>
 <g transform="matrix(.62333 0 0 .57563 -.15408 4.0796)" stroke="#000">
  <path d="m3.4965 3.3796c-0.33864-0.00545-0.30658 0.31303 0.06146 0.3155 17.369 0.11601 37.749-0.82846 49.158-0.29609 0.3818 0.017816 0.19727-0.29903 0.01905-0.30108-11.149-0.12838-36.894 0.48046-49.238 0.28168z" stroke-width=".49742" style="paint-order:normal"/>
  <path d="m4.3311 81.925c-0.33909-0.0054-0.30699 0.31292 0.061542 0.31537 17.391 0.11596 37.674-0.75379 49.098-0.22164 0.3823 0.01781 0.30511-0.52211 0.12667-0.52416-11.164-0.12833-36.926 0.62912-49.287 0.43042z" stroke-width=".49765" style="paint-order:normal"/>
  <path d="m52.952 3.6581c0.25063 35.847 0.6301 77.841 0.6301 77.841s-0.55145 0.62721-0.51372 0.03141c0.88046-13.905-0.4825-45.52-0.8523-77.897-0.0028-0.24543 0.73421-0.22064 0.73594 0.024806z" stroke-width=".84384" style="paint-order:normal"/>
  <path d="m3.8936 81.866c-0.2505-35.922-0.69747-53.502-0.81997-78.004-8.572e-4 -0.17148 0.74625-0.56912 0.70366-0.031481-1.5247 19.25 0.48226 45.616 0.85188 78.061 0.00276 0.24595-0.73385 0.2211-0.73556-0.02486z" stroke-width=".84452" style="paint-order:normal"/>
 </g>
 <text x="10.398183" y="3.8867822" fill="#000000" font-family="'Ink Free'" font-size="2.2801px" font-weight="bold" stroke="#000000" stroke-width=".17101" xml:space="preserve"><tspan x="10.398183" y="3.8867822" font-size="2.2801px" stroke-width=".17101">Music staffs</tspan></text>
 <text transform="rotate(90)" x="21.2836" y="-35.207428" fill="#000000" font-family="'Ink Free'" font-size="2.2801px" font-weight="bold" stroke="#000000" stroke-width=".17101" xml:space="preserve"><tspan x="21.2836" y="-35.207428" font-size="2.2801px" stroke-width=".17101">10mm between staffs</tspan></text>
 <g stroke="#000" stroke-width=".26459">
  <g transform="translate(.024987 3.175)">
   <path d="m4.3818 7.8383 0.013287 0.1203c9.2122 0.15092 20.093 0.33208 26.139 0.18419l0.02366-0.092101s-0.72898 0.01764-1.8726 0.01841c-1.814 0.0013-3.5128 0.01807-6.9982 0.04298-5.562-0.015795-11.298-0.0036-17.305-0.27378z" style="paint-order:normal"/>
   <path d="m4.3818 8.6321 0.013287 0.1203c9.2122 0.15092 20.093 0.33208 26.139 0.18419l0.02366-0.092101s-1.1983 0.01764-2.3419 0.01841c-1.814 0.0013-3.0435 0.01807-6.5289 0.04298-5.562-0.015795-11.298-0.0036-17.305-0.27378z" style="paint-order:normal"/>
   <path d="m4.3818 9.4259 0.013287 0.1203c9.2122 0.15092 20.093 0.33208 26.139 0.18419l0.02366-0.0921s-1.4623-0.011693-2.6059-0.010924c-1.814 0.0013-2.7795 0.047403-6.2649 0.072313-5.562-0.0158-11.298-0.0036-17.305-0.27378z" style="paint-order:normal"/>
   <path d="m4.3818 10.22 0.013287 0.1203c9.2122 0.15092 20.093 0.33208 26.139 0.18419l0.02366-0.0921s-1.433-0.04103-2.5766-0.04026c-1.814 0.0013-2.8088 0.07674-6.2942 0.10165-5.562-0.0158-11.298-0.0036-17.305-0.27378z" style="paint-order:normal"/>
   <path d="m4.3818 11.013 0.013287 0.1203c9.2122 0.15092 20.093 0.33208 26.139 0.18419l0.02366-0.0921s-1.8143-0.04103-2.9579-0.04026c-1.814 0.0013-2.4275 0.07674-5.9129 0.10165-5.562-0.0158-11.298-0.0036-17.305-0.27378z" style="paint-order:normal"/>
  </g>
  <g transform="translate(.024987 11.086)">
   <path d="m4.3818 7.8383 0.013287 0.1203c9.2122 0.15092 20.093 0.33208 26.139 0.18419l0.02366-0.092101s-0.72898 0.01764-1.8726 0.01841c-1.814 0.0013-3.5128 0.01807-6.9982 0.04298-5.562-0.015795-11.298-0.0036-17.305-0.27378z" style="paint-order:normal"/>
   <path d="m4.3818 8.6321 0.013287 0.1203c9.2122 0.15092 20.093 0.33208 26.139 0.18419l0.02366-0.092101s-1.1983 0.01764-2.3419 0.01841c-1.814 0.0013-3.0435 0.01807-6.5289 0.04298-5.562-0.015795-11.298-0.0036-17.305-0.27378z" style="paint-order:normal"/>
   <path d="m4.3818 9.4259 0.013287 0.1203c9.2122 0.15092 20.093 0.33208 26.139 0.18419l0.02366-0.0921s-1.4623-0.011693-2.6059-0.010924c-1.814 0.0013-2.7795 0.047403-6.2649 0.072313-5.562-0.0158-11.298-0.0036-17.305-0.27378z" style="paint-order:normal"/>
   <path d="m4.3818 10.22 0.013287 0.1203c9.2122 0.15092 20.093 0.33208 26.139 0.18419l0.02366-0.0921s-1.433-0.04103-2.5766-0.04026c-1.814 0.0013-2.8088 0.07674-6.2942 0.10165-5.562-0.0158-11.298-0.0036-17.305-0.27378z" style="paint-order:normal"/>
   <path d="m4.3818 11.013 0.013287 0.1203c9.2122 0.15092 20.093 0.33208 26.139 0.18419l0.02366-0.0921s-1.8143-0.04103-2.9579-0.04026c-1.814 0.0013-2.4275 0.07674-5.9129 0.10165-5.562-0.0158-11.298-0.0036-17.305-0.27378z" style="paint-order:normal"/>
  </g>
  <g transform="translate(.024987 19.024)">
   <path d="m4.3818 7.8383 0.013287 0.1203c9.2122 0.15092 20.093 0.33208 26.139 0.18419l0.02366-0.092101s-0.72898 0.01764-1.8726 0.01841c-1.814 0.0013-3.5128 0.01807-6.9982 0.04298-5.562-0.015795-11.298-0.0036-17.305-0.27378z" style="paint-order:normal"/>
   <path d="m4.3818 8.6321 0.013287 0.1203c9.2122 0.15092 20.093 0.33208 26.139 0.18419l0.02366-0.092101s-1.1983 0.01764-2.3419 0.01841c-1.814 0.0013-3.0435 0.01807-6.5289 0.04298-5.562-0.015795-11.298-0.0036-17.305-0.27378z" style="paint-order:normal"/>
   <path d="m4.3818 9.4259 0.013287 0.1203c9.2122 0.15092 20.093 0.33208 26.139 0.18419l0.02366-0.0921s-1.4623-0.011693-2.6059-0.010924c-1.814 0.0013-2.7795 0.047403-6.2649 0.072313-5.562-0.0158-11.298-0.0036-17.305-0.27378z" style="paint-order:normal"/>
   <path d="m4.3818 10.22 0.013287 0.1203c9.2122 0.15092 20.093 0.33208 26.139 0.18419l0.02366-0.0921s-1.433-0.04103-2.5766-0.04026c-1.814 0.0013-2.8088 0.07674-6.2942 0.10165-5.562-0.0158-11.298-0.0036-17.305-0.27378z" style="paint-order:normal"/>
   <path d="m4.3818 11.013 0.013287 0.1203c9.2122 0.15092 20.093 0.33208 26.139 0.18419l0.02366-0.0921s-1.8143-0.04103-2.9579-0.04026c-1.814 0.0013-2.4275 0.07674-5.9129 0.10165-5.562-0.0158-11.298-0.0036-17.305-0.27378z" style="paint-order:normal"/>
  </g>
  <g transform="translate(.024987 26.961)">
   <path d="m4.3818 7.8383 0.013287 0.1203c9.2122 0.15092 20.093 0.33208 26.139 0.18419l0.02366-0.092101s-0.72898 0.01764-1.8726 0.01841c-1.814 0.0013-3.5128 0.01807-6.9982 0.04298-5.562-0.015795-11.298-0.0036-17.305-0.27378z" style="paint-order:normal"/>
   <path d="m4.3818 8.6321 0.013287 0.1203c9.2122 0.15092 20.093 0.33208 26.139 0.18419l0.02366-0.092101s-1.1983 0.01764-2.3419 0.01841c-1.814 0.0013-3.0435 0.01807-6.5289 0.04298-5.562-0.015795-11.298-0.0036-17.305-0.27378z" style="paint-order:normal"/>
   <path d="m4.3818 9.4259 0.013287 0.1203c9.2122 0.15092 20.093 0.33208 26.139 0.18419l0.02366-0.0921s-1.4623-0.011693-2.6059-0.010924c-1.814 0.0013-2.7795 0.047403-6.2649 0.072313-5.562-0.0158-11.298-0.0036-17.305-0.27378z" style="paint-order:normal"/>
   <path d="m4.3818 10.22 0.013287 0.1203c9.2122 0.15092 20.093 0.33208 26.139 0.18419l0.02366-0.0921s-1.433-0.04103-2.5766-0.04026c-1.814 0.0013-2.8088 0.07674-6.2942 0.10165-5.562-0.0158-11.298-0.0036-17.305-0.27378z" style="paint-order:normal"/>
   <path d="m4.3818 11.013 0.013287 0.1203c9.2122 0.15092 20.093 0.33208 26.139 0.18419l0.02366-0.0921s-1.8143-0.04103-2.9579-0.04026c-1.814 0.0013-2.4275 0.07674-5.9129 0.10165-5.562-0.0158-11.298-0.0036-17.305-0.27378z" style="paint-order:normal"/>
  </g>
  <g transform="translate(.024987 34.899)">
   <path d="m4.3818 7.8383 0.013287 0.1203c9.2122 0.15092 20.093 0.33208 26.139 0.18419l0.02366-0.092101s-0.72898 0.01764-1.8726 0.01841c-1.814 0.0013-3.5128 0.01807-6.9982 0.04298-5.562-0.015795-11.298-0.0036-17.305-0.27378z" style="paint-order:normal"/>
   <path d="m4.3818 8.6321 0.013287 0.1203c9.2122 0.15092 20.093 0.33208 26.139 0.18419l0.02366-0.092101s-1.1983 0.01764-2.3419 0.01841c-1.814 0.0013-3.0435 0.01807-6.5289 0.04298-5.562-0.015795-11.298-0.0036-17.305-0.27378z" style="paint-order:normal"/>
   <path d="m4.3818 9.4259 0.013287 0.1203c9.2122 0.15092 20.093 0.33208 26.139 0.18419l0.02366-0.0921s-1.4623-0.011693-2.6059-0.010924c-1.814 0.0013-2.7795 0.047403-6.2649 0.072313-5.562-0.0158-11.298-0.0036-17.305-0.27378z" style="paint-order:normal"/>
   <path d="m4.3818 10.22 0.013287 0.1203c9.2122 0.15092 20.093 0.33208 26.139 0.18419l0.02366-0.0921s-1.433-0.04103-2.5766-0.04026c-1.814 0.0013-2.8088 0.07674-6.2942 0.10165-5.562-0.0158-11.298-0.0036-17.305-0.27378z" style="paint-order:normal"/>
   <path d="m4.3818 11.013 0.013287 0.1203c9.2122 0.15092 20.093 0.33208 26.139 0.18419l0.02366-0.0921s-1.8143-0.04103-2.9579-0.04026c-1.814 0.0013-2.4275 0.07674-5.9129 0.10165-5.562-0.0158-11.298-0.0036-17.305-0.27378z" style="paint-order:normal"/>
  </g>
 </g>
 <g stroke-width="0">
  <path d="m9.853 3.2068c-0.2822 0.032318-0.55887 0.10158-0.83277 0.17508-0.22719 0.064841-0.46146 0.12635-0.65255 0.27285-0.1142 0.087556-0.14961 0.14297-0.24237 0.25401-0.32068 0.4696-0.47099 1.0284-0.61765 1.571-0.15454 0.58034-0.21256 1.1781-0.24504 1.7758-0.022164 0.35406 0.00138 0.70846 0.022151 1.0619 0.012639 0.20366 0.015632 0.40771 0.018521 0.61168 0.00116 0.162 0.00106 0.32401 6.615e-4 0.48601l0.41149 0.20969c-2.44e-4 -0.16222-3.34e-5 -0.32445-9.523e-4 -0.48667-8.732e-4 -0.20512-0.0074746-0.41014-0.019376-0.61493-0.024506-0.35383-0.057088-0.70839-0.036408-1.0634 0.027337-0.59595 0.081056-1.1923 0.2333-1.7712 0.14583-0.53556 0.29887-1.0864 0.62175-1.5462 0.092497-0.10778 0.12392-0.15699 0.23668-0.24125 0.18902-0.14124 0.41971-0.19957 0.64258-0.26277 0.27449-0.070688 0.55325-0.14121 0.83711-0.15755l-0.37712-0.27399z"/>
  <path d="m6.2785 8.567c0.18182 0.14736 0.36123 0.29905 0.53034 0.46109 0.12197 0.10695 0.22883 0.22929 0.33258 0.35359 0.23542 0.28578 0.057992 0.14296 0.58468 0.41632 0.16276-0.12499 0.30604-0.27169 0.44419-0.42271 0.12274-0.13244 0.24695-0.26453 0.37908-0.38775 0.067153-0.083118 0.16226-0.13317 0.24234-0.20131 0.011338-0.00822 0.022675-0.016449 0.034012-0.024673l-0.39435-0.24964c-0.011753 0.00895-0.023509 0.017897-0.035261 0.026847-0.082266 0.066547-0.17384 0.12237-0.24161 0.20541-0.13042 0.12617-0.25531 0.25822-0.37698 0.39281-0.1286 0.14038-0.26203 0.29172-0.42933 0.38558 0.12369 0.075576 0.24738 0.15115 0.37106 0.22673-0.00874-7e-3 -0.018579-0.01283-0.026234-0.021011-0.046838-0.050071-0.066032-0.12243-0.12404-0.16396-0.10012-0.13013-0.21419-0.25154-0.33602-0.36137-0.1669-0.16306-0.34747-0.30969-0.52049-0.46615l-0.43396-0.1698z"/>
  <path d="m30.747 15.151c0.0562 0.08635 0.12145 0.1661 0.18378 0.24794 0.07244 0.10335 0.14855 0.20419 0.21962 0.30848 0.05104 0.08591 0.10505 0.16962 0.1607 0.25262 0.05491 0.07975 0.11105 0.15854 0.16574 0.23846 0.03622 0.05123 0.06917 0.10447 0.10303 0.1572 0.02437 0.04301 0.05465 0.08266 0.0759 0.12733 0.02947 0.08722 0.01378 0.18093-0.0024 0.26922-0.02249 0.16802-0.07723 0.32792-0.13166 0.48751-0.04333 0.12726-0.08586 0.25495-0.13924 0.37842-0.03376 0.08044-0.06732 0.16093-0.10197 0.241-0.02719 0.0685-0.05668 0.13597-0.08644 0.20338-0.02834 0.05819-0.06457 0.11191-0.10245 0.16428-0.02514 0.02771-0.01291 0.01243-0.03604 0.0463l0.40088 0.23592c0.02164-0.03055 0.0099-0.0152 0.03543-0.04588 0.03922-0.05534 0.07709-0.11198 0.10673-0.17311 0.02914-0.06785 0.05877-0.13544 0.08652-0.20388 0.03341-0.0807 0.0661-0.16162 0.09786-0.24299 0.05362-0.12508 0.09409-0.25499 0.13742-0.38389 0.05247-0.16165 0.10802-0.32299 0.13755-0.49088 0.02013-0.09493 0.03733-0.19217 0.02043-0.28899-0.01516-0.05041-0.04459-0.09102-0.07244-0.13503-0.0319-0.05598-0.0693-0.10803-0.10517-0.16156-0.05652-0.07882-0.11017-0.15968-0.16699-0.23819-0.05668-0.083-0.11282-0.16572-0.16295-0.25296-0.06771-0.10646-0.14907-0.20383-0.21723-0.31019-0.05893-0.08202-0.12828-0.15661-0.17976-0.24372l-0.42692-0.18679z"/>
  <path d="m32.017 16.886c0.30554-0.01146 0.61132-0.0024 0.91692 0.0017 0.4841 0.0097 0.9677 0.03136 1.4513 0.05486 0.33627 0.02501 0.6731 0.03905 1.0101 0.04823 0.2284 0.0042 0.45682 0.0086 0.68525 0.01027 0.02527 5.9e-5 0.05051 1.18e-4 0.07577 1.77e-4l-0.36902-0.26811c-0.02506 5.7e-5 -0.05012 1.14e-4 -0.07518 1.71e-4 -0.22428 0.0011-0.44857 3e-3 -0.67282-0.0025-0.33427-0.0077-0.66809-0.02422-1.0019-0.04316-0.482-0.01765-0.964-0.03488-1.4461-0.0499-0.31676-0.0088-0.63346-0.01949-0.95031-0.02487l0.376 0.27318z"/>
  <path d="m35.698 16.741c0.01027 0.29339 0.02286 0.58669 0.03115 0.88015 0.0043 0.33299 0.0089 0.66584 0.01842 0.99873 0.0052 0.16945 0.0095 0.33892 0.01109 0.50845 7.94e-4 0.11137-1.38e-4 0.22272-0.0013 0.33408-0.0011 0.07805-2.28e-4 0.15611-5.29e-4 0.23417 2.6e-5 0.07827 1.77e-4 0.15653-7.7e-5 0.2348-1.46e-4 0.03457-2.65e-4 0.06914-5.29e-4 0.1037l0.41384 0.21086c-1.37e-4 -0.03471-2.64e-4 -0.06943-5.29e-4 -0.10414-2.51e-4 -0.07827-1e-4 -0.15655-2.1e-5 -0.23483-2.65e-4 -0.07819 5.29e-4 -0.15637-2.17e-4 -0.23456-0.0011-0.1124-0.0019-0.22481-0.0034-0.33721-0.0026-0.17168-0.0082-0.34328-0.02016-0.51459-0.01931-0.33439-0.02762-0.66899-0.03071-1.0039-0.0048-0.28833-0.01701-0.5771-0.0042-0.86532l-0.41288-0.21037z"/>
 </g>
</svg>
