<svg width="150" height="200" version="1.1" viewBox="0 0 39.688 52.917" xmlns="http://www.w3.org/2000/svg">
 <rect x="2.0579" y="6.0793" width="30.85" height="45.217" fill="#fff"/>
 <g stroke="#000">
  <g stroke-width=".68749">
   <path d="m3.6931 8.8436 0.013287 0.1203c9.2122 0.15092 20.093 0.33208 26.139 0.18419l0.02366-0.092101s-0.46498-0.24636-1.6086-0.24559c-1.814 0.0013-3.7768 0.28207-7.2622 0.30698-5.562-0.015795-11.298-0.0036013-17.305-0.27378z" style="paint-order:normal"/>
   <path d="m3.6931 11.489 0.013287 0.1203c9.2122 0.15092 20.093 0.33208 26.139 0.18419l0.02366-0.0921s-0.46498-0.24636-1.6086-0.24559c-1.814 0.0013-3.7768 0.28207-7.2622 0.30698-5.562-0.0158-11.298-0.0036-17.305-0.27378z" style="paint-order:normal"/>
   <path d="m3.6931 14.135 0.013287 0.1203c9.2122 0.15092 20.093 0.33208 26.139 0.18419l0.02366-0.0921s-0.46498-0.24636-1.6086-0.24559c-1.814 0.0013-3.7768 0.28207-7.2622 0.30698-5.562-0.0158-11.298-0.0036-17.305-0.27378z" style="paint-order:normal"/>
   <path d="m3.6931 16.781 0.013287 0.1203c9.2122 0.15092 20.093 0.33208 26.139 0.18419l0.02366-0.0921s-0.46498-0.24636-1.6086-0.24559c-1.814 0.0013-3.7768 0.28207-7.2622 0.30698-5.562-0.01579-11.298-0.0036-17.305-0.27378z" style="paint-order:normal"/>
   <path d="m3.6931 19.427 0.013287 0.1203c9.2122 0.15092 20.093 0.33208 26.139 0.18419l0.02366-0.0921s-0.46498-0.24636-1.6086-0.24559c-1.814 0.0013-3.7768 0.28207-7.2622 0.30698-5.562-0.0158-11.298-0.0036-17.305-0.27378z" style="paint-order:normal"/>
   <path d="m3.6931 22.073 0.013287 0.1203c9.2122 0.15092 20.093 0.33208 26.139 0.18419l0.02366-0.0921s-0.46498-0.24636-1.6086-0.24559c-1.814 0.0013-3.7768 0.28207-7.2622 0.30698-5.562-0.0158-11.298-0.0036-17.305-0.27378z" style="paint-order:normal"/>
   <path d="m3.6931 24.719 0.013287 0.1203c9.2122 0.15092 20.093 0.33208 26.139 0.18419l0.02366-0.0921s-0.46498-0.24636-1.6086-0.24559c-1.814 0.0013-3.7768 0.28207-7.2622 0.30698-5.562-0.01579-11.298-0.0036-17.305-0.27378z" style="paint-order:normal"/>
   <path d="m3.6931 27.365 0.013287 0.1203c9.2122 0.15092 20.093 0.33208 26.139 0.18419l0.02366-0.0921s-0.46498-0.24636-1.6086-0.24559c-1.814 0.0013-3.7768 0.28207-7.2622 0.30698-5.562-0.0158-11.298-0.0036-17.305-0.27378z" style="paint-order:normal"/>
   <path d="m3.6931 30.01 0.013287 0.1203c9.2122 0.15092 20.093 0.33208 26.139 0.18419l0.02366-0.0921s-0.46498-0.24636-1.6086-0.24559c-1.814 0.0013-3.7768 0.28207-7.2622 0.30698-5.562-0.0158-11.298-0.0036-17.305-0.27378z" style="paint-order:normal"/>
   <path d="m3.6931 32.656 0.013287 0.1203c9.2122 0.15092 20.093 0.33208 26.139 0.18419l0.02366-0.0921s-0.46498-0.24636-1.6086-0.24559c-1.814 0.0013-3.7768 0.28207-7.2622 0.30698-5.562-0.01579-11.298-0.0036-17.305-0.27378z" style="paint-order:normal"/>
   <path d="m3.6931 35.302 0.013287 0.1203c9.2122 0.15092 20.093 0.33208 26.139 0.18419l0.02366-0.0921s-0.46498-0.24636-1.6086-0.24559c-1.814 0.0013-3.7768 0.28207-7.2622 0.30698-5.562-0.0158-11.298-0.0036-17.305-0.27378z" style="paint-order:normal"/>
   <path d="m3.6931 37.948 0.013287 0.1203c9.2122 0.15092 20.093 0.33208 26.139 0.18419l0.02366-0.0921s-0.46498-0.24636-1.6086-0.24559c-1.814 0.0013-3.7768 0.28207-7.2622 0.30698-5.562-0.0158-11.298-0.0036-17.305-0.27378z" style="paint-order:normal"/>
  </g>
  <path d="m7.1638 7.2519-0.20277 0.038989c-0.099691 15.181-0.21935 33.113-0.12166 43.077l0.060839 0.03898s0.16273-0.76627 0.16221-2.6509c-8.614e-4 -2.9895-0.18632-6.2241-0.20277-11.968-0.027182-9.4874 0.30415-28.536 0.30415-28.536z" stroke-width=".71729" style="paint-order:normal"/>
  <path d="m27.988 7.0363-0.20277 0.038989c-0.09969 15.181-0.21935 33.113-0.12166 43.077l0.06084 0.03898s0.16273-0.76627 0.16222-2.6509c-8.61e-4 -2.9895-0.18632-6.2241-0.20277-11.968-0.02718-9.4874 0.30415-28.536 0.30415-28.536z" stroke-width=".71729" style="paint-order:normal"/>
  <g transform="matrix(.62333 0 0 .57563 -.15408 4.0796)">
   <path d="m3.4965 3.3796c-0.33864-0.0054537-0.30658 0.31303 0.06146 0.3155 17.369 0.11601 37.749-0.82846 49.158-0.29609 0.3818 0.017816 0.19727-0.29903 0.01905-0.30108-11.149-0.12838-36.894 0.48046-49.238 0.28168z" stroke-width=".49742" style="paint-order:normal"/>
   <path d="m4.3311 81.925c-0.33909-0.0054-0.30699 0.31292 0.061542 0.31537 17.391 0.11596 37.674-0.75379 49.098-0.22164 0.3823 0.01781 0.30511-0.52211 0.12667-0.52416-11.164-0.12833-36.926 0.62912-49.287 0.43042z" stroke-width=".49765" style="paint-order:normal"/>
   <path d="m52.952 3.6581c0.25063 35.847 0.6301 77.841 0.6301 77.841s-0.55145 0.62721-0.51372 0.03141c0.88046-13.905-0.4825-45.52-0.8523-77.897-0.0028-0.24543 0.73421-0.22064 0.73594 0.024806z" stroke-width=".84384" style="paint-order:normal"/>
   <path d="m3.8936 81.866c-0.2505-35.922-0.69747-53.502-0.81997-78.004-8.572e-4 -0.17148 0.74625-0.56912 0.70366-0.031481-1.5247 19.25 0.48226 45.616 0.85188 78.061 0.00276 0.24595-0.73385 0.2211-0.73556-0.02486z" stroke-width=".84452" style="paint-order:normal"/>
  </g>
 </g>
 <path d="m6.5465 4.0956c0.025453 0.16423 0.058352 0.32676 0.094994 0.48882 0.023466 0.12464 0.058358 0.24667 0.097927 0.36704 0.039344 0.089403 0.080757 0.17791 0.1215 0.26673 0.10039 0.21151 0.21782 0.22115 0.49534 0.36169 0.016529 0.00837 0.14344-0.014015 0.1472-0.014579 0.25236-0.058556 0.5069-0.098185 0.7648-0.1215 0.16284-0.017558 0.32643-0.026038 0.48916-0.044304l-0.37023-0.26226c-0.15975 0.020656-0.32038 0.032811-0.48064 0.048875-0.14294 0.013743-0.28501 0.028776-0.42657 0.053474-0.00934 0.00164-0.22896 0.044218-0.24256 0.046502-0.03484 0.00585-0.069955 0.00992-0.10493 0.014886-0.027578 9.525e-4 -0.055226 0.00505-0.082733 0.00285-0.019079-0.00153-0.071651-0.024495-0.055708-0.013907 0.11702 0.077725 0.24089 0.1446 0.36134 0.21691-0.00975-0.00777-0.020812-0.014137-0.02926-0.02331-0.018089-0.019638-0.032578-0.051898-0.044424-0.07481-0.045526-0.084748-0.075718-0.17741-0.12337-0.26149-0.04533-0.11869-0.081299-0.24137-0.10743-0.36568-0.036862-0.15856-0.073234-0.31716-0.087113-0.4798l-0.4173-0.20613z" stroke-width="0"/>
 <path d="m7.4052 5.3554c0.12432-0.17588 0.30801-0.2957 0.48488-0.41271 0.19009-0.12065 0.38524-0.23547 0.59203-0.32546 0.084241-0.036657 0.24408-0.095745 0.32876-0.12771 0.40693-0.13594 0.82177-0.24607 1.238-0.34929 0.3243-0.070124 0.64913-0.1372 0.97654-0.1911l-0.36168-0.25318c-0.32375 0.06181-0.64641 0.12909-0.96819 0.2005-0.41904 0.1045-0.83714 0.21401-1.2476 0.3488-0.11174 0.041753-0.22316 0.081405-0.33228 0.12984-0.2082 0.092411-0.40476 0.20907-0.59833 0.32841-0.18459 0.11873-0.3694 0.24202-0.5113 0.41224l0.39918 0.23967z" stroke-width="0"/>
 <text x="7.4113636" y="3.1400769" fill="#000000" font-family="'Ink Free'" font-size="2.2801px" font-weight="bold" stroke="#000000" stroke-width=".17101" xml:space="preserve"><tspan x="7.4113636" y="3.1400769" font-size="2.2801px" stroke-width=".17101">Two vertical dividers</tspan></text>
 <text transform="rotate(90)" x="17.272558" y="-35.368603" fill="#000000" font-family="'Ink Free'" font-size="2.2801px" font-weight="bold" stroke="#000000" stroke-width=".17101" xml:space="preserve"><tspan x="17.272558" y="-35.368603" font-size="2.2801px" stroke-width=".17101">Evenly spaced writing lines</tspan></text>
 <g stroke-width="0">
  <path d="m28.287 3.9446c-0.02545 0.16423-0.05835 0.32676-0.09499 0.48882-0.02347 0.12464-0.05836 0.24667-0.09793 0.36704-0.03934 0.089403-0.08076 0.17791-0.1215 0.26673-0.10039 0.21151-0.21782 0.22115-0.49534 0.36169-0.01653 0.00837-0.14344-0.014015-0.1472-0.014579-0.25236-0.058556-0.5069-0.098185-0.7648-0.1215-0.16284-0.017558-0.32643-0.026038-0.48916-0.044304l0.37022-0.26226c0.15975 0.020656 0.32038 0.032811 0.48064 0.048875 0.14294 0.013743 0.28501 0.028776 0.42657 0.053474 0.0093 0.00164 0.22896 0.044218 0.24256 0.046502 0.03484 0.00585 0.06996 0.00992 0.10493 0.014886 0.02758 9.525e-4 0.05523 0.00505 0.08273 0.00285 0.01908-0.00153 0.07165-0.024495 0.05571-0.013907-0.11702 0.077725-0.24089 0.1446-0.36134 0.21691 0.0098-0.00777 0.02081-0.014137 0.02926-0.02331 0.01809-0.019638 0.03258-0.051898 0.04442-0.07481 0.04553-0.084748 0.07572-0.17741 0.12337-0.26149 0.04533-0.11869 0.0813-0.24137 0.10743-0.36568 0.03686-0.15856 0.07323-0.31716 0.08711-0.4798l0.4173-0.20613z"/>
  <path d="m27.429 5.2043c-0.12432-0.17588-0.30801-0.2957-0.48488-0.41271-0.19009-0.12065-0.38524-0.23547-0.59204-0.32546-0.08424-0.036657-0.24408-0.095745-0.32876-0.12771-0.40694-0.13594-0.82177-0.24607-1.238-0.34929-0.3243-0.070124-0.64913-0.1372-0.97654-0.1911l0.36168-0.25318c0.32375 0.06181 0.64641 0.12909 0.96819 0.2005 0.41904 0.1045 0.83714 0.21401 1.2476 0.3488 0.11174 0.041753 0.22316 0.081405 0.33228 0.12984 0.2082 0.092411 0.40476 0.20907 0.59833 0.32841 0.18458 0.11873 0.3694 0.24202 0.5113 0.41224l-0.39918 0.23967z"/>
  <path d="m35.332 11.941c-0.12468 0.0907-0.25393 0.17503-0.38164 0.26139-0.21792 0.16143-0.44395 0.31133-0.6657 0.46732-0.17494 0.12856-0.35898 0.24335-0.5499 0.34644-0.05068 0.03385-0.14146 0.06031-0.17824 0.11252-0.02117 0.03005-0.01638 0.04169-0.01812 0.07743 0.0324 0.11896 0.10903 0.22028 0.17624 0.32185 0.05902 0.09044 0.12393 0.17655 0.19594 0.25699 0.07792 0.08616 0.1547 0.17334 0.23384 0.25839 0.07669 0.07966 0.14956 0.16262 0.22148 0.24654 0.05732 0.0611 0.11115 0.1252 0.16529 0.18908 0.02297 0.02549 0.01233 0.01391 0.03185 0.03484l0.43234 0.16788c-0.0289-0.0097-0.01442-0.0022-0.04196-0.02525-0.05894-0.06161-0.10948-0.13099-0.1705-0.19082-0.03581-0.03927-0.06838-0.08108-0.10381-0.12063-0.0396-0.04422-0.08304-0.08501-0.1224-0.12947-0.07927-0.08283-0.15288-0.17079-0.22934-0.2562-0.0752-0.07747-0.14081-0.1629-0.20198-0.2518-0.06465-0.09493-0.13348-0.18861-0.17708-0.29565-0.0021-8e-3 -6e-3 -0.01577-0.0061-0.02404-1.37e-4 -0.01807 0.01315-0.02971 0.02524-0.04068 0.04066-0.03683 0.09052-0.06163 0.13618-0.09123 0.18448-0.11182 0.36445-0.23046 0.53742-0.35955 0.22018-0.159 0.44426-0.31263 0.67138-0.46154 0.13352-0.08351 0.26725-0.16786 0.40671-0.24106l-0.38716-0.25276z"/>
  <path d="m34.005 13.515c0.13421-7e-3 0.26889-9.26e-4 0.40328-4.23e-4 0.23894 7.8e-5 0.4778 0.0035 0.71665 0.0093 0.21552 2e-3 0.43047 0.01768 0.64539 0.03232 0.10919 0.0063 0.21755 0.02149 0.32647 0.0309 0.06221 0.0062 0.1251-8.47e-4 0.18704 0.0075 0.14497 0.07849 0.10121 0.05493-0.36415-0.20508-0.0046-0.0025 0.01042 0.0041 0.01312 0.0086 0.0044 0.0073 0.0057 0.0163 7e-3 0.02477 0.0043 0.02736 0.0038 0.06453 0.0043 0.0914-0.0067 0.14944-0.01069 0.29863-0.0058 0.44819 0.01082 0.18719 0.02863 0.3738 0.03858 0.56104 0.0066 0.17768 0.01871 0.35506 0.02852 0.53257 0.0083 0.1363 0.0066 0.27287 0.0094 0.40931 0.0034 0.08525 0.0081 0.17044 0.01021 0.25573 0.0019 0.07644 0.0019 0.15288 0.0013 0.22934 8.5e-5 0.05743-0.0013 0.11485-0.0024 0.17227l0.41238 0.21015c-0.0011-0.05822-0.0021-0.11643-0.0021-0.17466-5.29e-4 -0.07698-7.94e-4 -0.15397-0.0019-0.23094-0.0024-0.08649-0.0069-0.17282-0.01476-0.25901-0.0099-0.13809-0.0086-0.27682-0.01924-0.41491-0.01098-0.17786-0.02455-0.35556-0.03088-0.53367-0.01127-0.18639-0.02775-0.3724-0.03724-0.5589-3e-3 -0.14711-9.8e-5 -0.29406 0.01667-0.44041 0.0021-0.0421 0.0067-0.0849 0.0059-0.12711-2.03e-4 -0.01056 0.0068-0.02585-0.0021-0.03161-0.36626-0.23824-0.25764-0.22575-0.43766-0.24071-0.06166-8.2e-4 -0.12334-0.0013-0.18486-6e-3 -0.10348-0.0065-0.2068-0.01593-0.3105-0.01823-0.21261-0.01033-0.42519-0.0217-0.63807-0.02514-0.23992-0.0059-0.47993-4e-3 -0.71982-0.01149-0.14398-0.0056-0.28791-0.01248-0.43183-0.01916l0.37713 0.274z"/>
  <path d="m34.777 44.32c-0.04008 0.06308-0.08388 0.1234-0.13221 0.18038-0.06628 0.07244-0.14389 0.1329-0.2188 0.19592-0.08558 0.07022-0.1763 0.13366-0.26937 0.19346-0.08189 0.04987-0.16001 0.10545-0.23548 0.16452-0.05583 0.04021-0.11411 0.07705-0.17103 0.11586-0.02834 0.02545-0.07589 0.03829-0.09444 0.07433-0.0039 0.0075-0.0053 0.01609-8e-3 0.02416 5.3e-4 0.0088-7.93e-4 0.01796 0.0019 0.02635 0.01159 0.03584 0.05002 0.06606 0.07596 0.0906 0.04232 0.04004 0.04819 0.04393 0.09448 0.08334 0.12489 0.1005 0.25388 0.19594 0.38382 0.28979 0.11594 0.0866 0.24026 0.16083 0.36102 0.24026 0.09898 0.06803 0.20078 0.13185 0.29992 0.19962 0.14754 0.10336 0.3071 0.18533 0.46637 0.27155 0.01564 0.0085 0.03139-0.0072 0.04177-0.01418l-0.38551-0.26183c-5e-3 -0.0051-0.02358-0.0163-0.01736-0.0127 0.12488 0.07215 0.24981 0.14423 0.37447 0.21677 0.0084 0.0049-0.0173-0.0089-0.02566-0.01381-0.01021-0.0061-0.02003-0.01278-0.03003-0.01918-0.1014-0.07017-0.20809-0.13228-0.30886-0.20343-0.11919-0.08351-0.24834-0.15213-0.36435-0.24046-0.12967-0.09146-0.2575-0.18582-0.38136-0.28501-0.04896-0.04064-0.04528-0.03618-0.08892-0.0774-0.019-0.01794-0.03663-0.03729-0.05615-0.05465-0.01479-0.01318-0.01453-0.01222-0.02854-0.0195-0.0016-5.29e-4 -0.0053-9e-5 -0.0051-0.0019 0.0016-0.01455 0.07053-0.05491 0.08207-0.06557 0.05669-0.03984 0.1151-0.07734 0.16962-0.12011 0.07364-0.05848 0.14797-0.11582 0.22891-0.16408 0.09314-0.0627 0.18587-0.1261 0.2726-0.19759 0.07727-0.0645 0.15784-0.12563 0.22566-0.20054 0.0491-0.05707 0.09171-0.1192 0.14177-0.1753l-0.39918-0.23967z"/>
  <path d="m34.178 45.576c0.12706-0.0016 0.25438 0.0019 0.38153 0.0027 0.20833 0.0024 0.41672 2.65e-4 0.625 0.0058 0.16774 0.0058 0.33541 0.01238 0.50324 0.01453 0.11306 5.29e-4 0.22609 0.0033 0.33912 6e-3 0.07722 0.0026 0.09978-0.0057 0.12044-0.08305 0.01-0.06578 0.01558-0.13206 0.01947-0.19845 0.0035-0.08055 0.0021-0.16116 0.0016-0.24175 0.0011-0.12092 0.0024-0.2417 7.94e-4 -0.36265-2.65e-4 -0.12791-0.01016-0.25548-0.01328-0.38334-0.0046-0.08878-0.0084-0.17766-0.01738-0.26612-4e-3 -0.0404-0.0021-0.02088-0.0056-0.05859l-0.41277-0.20455c0.0051 0.03887 0.0024 0.01881 0.0081 0.06015 0.01206 0.08855 0.01902 0.17756 0.0265 0.26662 0.0065 0.12788 0.01371 0.2558 0.01685 0.38379 0.0011 0.11974-0.0021 0.23912-0.0074 0.35869-7.94e-4 0.07916-0.0019 0.15834-0.0048 0.23745-0.0029 0.06337-0.0085 0.12642-0.01799 0.18917-0.0013 0.0057-0.0028 0.02162-0.0092 0.02721-0.01336 0.0117-0.0605 0.0019-0.0759 0.0061-0.10884 0.0026-0.21771 0.0044-0.32657 0.0024-0.16532-0.0024-0.33063-0.0054-0.49592-0.0096-0.20858-0.0029-0.41724-1.49e-4 -0.62579-0.0064-0.13562-0.0044-0.27109-0.01109-0.4065-0.01982l0.37658 0.2736z"/>
 </g>
 <g stroke="#000" stroke-width=".68749">
  <path d="m3.6931 40.594 0.013287 0.1203c9.2122 0.15092 20.093 0.33208 26.139 0.18419l0.02366-0.0921s-0.46498-0.24636-1.6086-0.24559c-1.814 0.0013-3.7768 0.28207-7.2622 0.30698-5.562-0.0158-11.298-0.0036-17.305-0.27378z" style="paint-order:normal"/>
  <path d="m3.6931 43.24 0.013287 0.1203c9.2122 0.15092 20.093 0.33208 26.139 0.18419l0.02366-0.0921s-0.46498-0.24636-1.6086-0.24559c-1.814 0.0013-3.7768 0.28207-7.2622 0.30698-5.562-0.01579-11.298-0.0036-17.305-0.27378z" style="paint-order:normal"/>
  <path d="m3.6931 45.886 0.013287 0.1203c9.2122 0.15092 20.093 0.33208 26.139 0.18419l0.02366-0.0921s-0.46498-0.24636-1.6086-0.24559c-1.814 0.0013-3.7768 0.28207-7.2622 0.30698-5.562-0.0158-11.298-0.0036-17.305-0.27378z" style="paint-order:normal"/>
  <path d="m3.6931 48.532 0.013287 0.1203c9.2122 0.15092 20.093 0.33208 26.139 0.18419l0.02366-0.0921s-0.46498-0.24636-1.6086-0.24559c-1.814 0.0013-3.7768 0.28207-7.2622 0.30698-5.562-0.0158-11.298-0.0036-17.305-0.27378z" style="paint-order:normal"/>
 </g>
</svg>
