<svg width="150" height="200" version="1.1" viewBox="0 0 39.687 52.916" xmlns="http://www.w3.org/2000/svg">
 <rect x="1.523" y="5.7089" width="31.958" height="45.818" fill="#fff" stroke="#000" stroke-width=".049999"/>
 <circle cx="5.0977" cy="18.847" r=".25" opacity=".5"/>
 <circle cx="5.0977" cy="23.847" r=".25" opacity=".5"/>
 <circle cx="5.0977" cy="28.847" r=".25" opacity=".5"/>
 <circle cx="5.0977" cy="33.847" r=".25" opacity=".5"/>
 <circle cx="5.0977" cy="38.847" r=".25" opacity=".5"/>
 <circle cx="5.0977" cy="43.847" r=".25" opacity=".5"/>
 <circle cx="5.0977" cy="48.847" r=".25" opacity=".5"/>
 <circle cx="10.098" cy="18.847" r=".25" opacity=".5"/>
 <circle cx="10.098" cy="23.847" r=".25" opacity=".5"/>
 <circle cx="10.098" cy="28.847" r=".25" opacity=".5"/>
 <circle cx="10.098" cy="33.847" r=".25" opacity=".5"/>
 <circle cx="10.098" cy="38.847" r=".25" opacity=".5"/>
 <circle cx="10.098" cy="43.847" r=".25" opacity=".5"/>
 <circle cx="10.098" cy="48.847" r=".25" opacity=".5"/>
 <circle cx="15.098" cy="18.847" r=".25" opacity=".5"/>
 <circle cx="15.098" cy="23.847" r=".25" opacity=".5"/>
 <circle cx="15.098" cy="28.847" r=".25" opacity=".5"/>
 <circle cx="15.098" cy="33.847" r=".25" opacity=".5"/>
 <circle cx="15.098" cy="38.847" r=".25" opacity=".5"/>
 <circle cx="15.098" cy="43.847" r=".25" opacity=".5"/>
 <circle cx="15.098" cy="48.847" r=".25" opacity=".5"/>
 <circle cx="20.098" cy="18.847" r=".25" opacity=".5"/>
 <circle cx="20.098" cy="23.847" r=".25" opacity=".5"/>
 <circle cx="20.098" cy="28.847" r=".25" opacity=".5"/>
 <circle cx="20.098" cy="33.847" r=".25" opacity=".5"/>
 <circle cx="20.098" cy="38.847" r=".25" opacity=".5"/>
 <circle cx="20.098" cy="43.847" r=".25" opacity=".5"/>
 <circle cx="20.098" cy="48.847" r=".25" opacity=".5"/>
 <circle cx="25.098" cy="18.847" r=".25" opacity=".5"/>
 <circle cx="25.098" cy="23.847" r=".25" opacity=".5"/>
 <circle cx="25.098" cy="28.847" r=".25" opacity=".5"/>
 <circle cx="25.098" cy="33.847" r=".25" opacity=".5"/>
 <circle cx="25.098" cy="38.847" r=".25" opacity=".5"/>
 <circle cx="25.098" cy="43.847" r=".25" opacity=".5"/>
 <circle cx="25.098" cy="48.847" r=".25" opacity=".5"/>
 <circle cx="30.098" cy="18.847" r=".25" opacity=".5"/>
 <circle cx="30.098" cy="23.847" r=".25" opacity=".5"/>
 <circle cx="30.098" cy="28.847" r=".25" opacity=".5"/>
 <circle cx="30.098" cy="33.847" r=".25" opacity=".5"/>
 <circle cx="30.098" cy="38.847" r=".25" opacity=".5"/>
 <circle cx="30.098" cy="43.847" r=".25" opacity=".5"/>
 <circle cx="30.098" cy="48.847" r=".25" opacity=".5"/>
</svg>
