<svg width="928" height="619" version="1.1" viewBox="0 0 245.53 163.78" xmlns="http://www.w3.org/2000/svg">
 <g fill-opacity=".24576" stroke="#000">
  <path d="m49.889 52.273 35.582 75.259" stroke-opacity=".2" stroke-width=".27188"/>
  <path d="m51.696 51.767 35.848 75.042" stroke-opacity=".2" stroke-width=".27163"/>
  <path d="m53.649 51.116 35.958 75.042" stroke-opacity=".4" stroke-width=".2719"/>
  <g stroke-opacity=".2">
   <path d="m55.601 50.61 36.032 74.898" stroke-width=".27246"/>
   <path d="m57.481 50.032c0.14907 0.29813 36.372 74.757 36.372 74.757" stroke-width=".27222"/>
   <path d="m59.36 49.526 36.55 74.591" stroke-width=".27243"/>
  </g>
  <path d="m61.24 48.947 37.003 74.452" stroke-opacity=".4" stroke-width=".27192"/>
  <g stroke-opacity=".2">
   <path d="m63.192 48.586 37.201 74.104" stroke-width=".27283"/>
   <path d="m65.145 48.008 37.417 74.008" stroke-width=".27386"/>
   <path d="m66.952 47.574 37.649 73.799" stroke-width=".27392"/>
  </g>
  <path d="m69.049 46.924 37.504 73.807" stroke-opacity=".4" stroke-width=".27395"/>
  <g stroke-opacity=".2">
   <path d="m70.929 46.345 37.744 73.687" stroke-width=".27406"/>
   <path d="m72.736 45.767 37.909 73.64" stroke-width=".27417"/>
   <path d="m74.688 45.261 37.977 73.478" stroke-width=".27412"/>
  </g>
  <path d="m76.785 44.61 37.811 73.517" stroke-opacity=".4" stroke-width=".27455"/>
  <g stroke-opacity=".2">
   <path d="m78.737 44.104 37.919 73.36" stroke-width=".27424"/>
   <path d="m80.436 43.526 38.06 73.342" stroke-width=".27417"/>
   <path d="m82.208 43.02 38.169 73.251" stroke-width=".27496"/>
  </g>
  <path d="m84.16 42.441 38.018 73.251" stroke-opacity=".4" stroke-width=".27496"/>
  <g stroke-opacity=".2">
   <path d="m86.112 41.935 37.994 73.124" stroke-width=".27533"/>
   <path d="m88.064 41.429 38.109 72.98" stroke-width=".27507"/>
   <path d="m89.872 40.922c0.07542 0.37709 38.237 72.854 38.237 72.854" stroke-width=".27545"/>
  </g>
  <path d="m91.679 40.272c0.07538 0.52764 38.367 72.89 38.367 72.89" stroke-opacity=".4" stroke-width=".2753"/>
  <g stroke-opacity=".2">
   <path d="m93.559 39.839 38.524 72.668" stroke-width=".27589"/>
   <path d="m95.294 39.333 38.945 72.455" stroke-width=".27565"/>
   <path d="m97.101 38.899 39.01 72.274" stroke-width=".27612"/>
  </g>
  <path d="m98.981 38.321 39.401 72.148" stroke-opacity=".4" stroke-width=".27621"/>
  <g stroke-opacity=".2">
   <path d="m100.79 37.742 39.751 72.021" stroke-width=".27602"/>
   <path d="m102.45 37.236 40.169 71.865" stroke-width=".27629"/>
   <path d="m104.4 36.73 40.097 71.796" stroke-width=".27631"/>
  </g>
  <path d="m106.36 36.152 40.266 71.677" stroke-opacity=".4" stroke-width=".27644"/>
  <g stroke-opacity=".2">
   <path d="m108.31 35.646 40.205 71.551" stroke-width=".27654"/>
   <path d="m110.19 35.068 40.585 71.46" stroke-width=".27706"/>
   <path d="m115.39 33.642 41.221 70.955" stroke-width=".27723"/>
   <path d="m117.38 33.131 41.121 70.847" stroke-width=".27764"/>
   <path d="m119.12 32.517 41.257 70.856" stroke-width=".27747"/>
  </g>
  <path d="m121.01 31.853 41.093 70.96" stroke-opacity=".4" stroke-width=".27746"/>
  <g stroke-opacity=".2">
   <path d="m122.85 31.444 41.197 70.777" stroke-width=".27779"/>
   <path d="m124.64 30.881 41.002 70.813" stroke-width=".27793"/>
   <path d="m126.28 30.524 41.127 70.626" stroke-width=".27804"/>
  </g>
  <path d="m128.17 30.012 41.073 70.572" stroke-opacity=".4" stroke-width=".27804"/>
  <g stroke-opacity=".2">
   <path d="m129.96 29.45 41.283 70.494" stroke-width=".27837"/>
   <path d="m131.85 28.888 41.297 70.41" stroke-width=".27846"/>
   <path d="m133.59 28.377 41.474 70.274" stroke-width=".27857"/>
  </g>
  <path d="m135.48 27.865 41.621 70.124" stroke-opacity=".4" stroke-width=".27883"/>
  <g stroke-opacity=".2">
   <path d="m137.07 27.303 42.002 70.075" stroke-width=".27885"/>
   <path d="m138.91 26.843 42.247 69.853" stroke-width=".27904"/>
   <path d="m140.64 26.281 42.391 69.805" stroke-width=".27928"/>
  </g>
  <path d="m142.54 25.821 42.375 69.706" stroke-opacity=".4" stroke-width=".27953"/>
  <g stroke-opacity=".2">
   <path d="m144.33 25.259 42.317 69.734" stroke-width=".27986"/>
   <path d="m146.06 24.696 42.486 69.601" stroke-width=".27955"/>
   <path d="m147.95 24.236 42.647 69.471" stroke-width=".2799"/>
  </g>
  <path d="m149.85 23.776 42.72 69.284" stroke-opacity=".4" stroke-width=".28002"/>
  <g stroke-opacity=".2">
   <path d="m151.74 23.265 42.607 69.203" stroke-width=".28035"/>
   <path d="m153.27 22.805 42.958 69.047" stroke-width=".28015"/>
   <path d="m154.86 22.294 43.104 68.998" stroke-width=".2804"/>
  </g>
  <path d="m156.65 21.731 43.433 68.895" stroke-opacity=".4" stroke-width=".28042"/>
  <g stroke-opacity=".2">
   <path d="m158.38 21.322 43.494 68.743" stroke-width=".28046"/>
   <path d="m160.17 20.709 43.556 68.786" stroke-width=".28086"/>
   <path d="m161.96 20.249 43.249 68.763" stroke-width=".28099"/>
  </g>
  <path d="m163.75 19.687 43.376 68.683" stroke-opacity=".4" stroke-width=".2811"/>
  <g stroke-opacity=".2">
   <path d="m165.44 19.227 43.319 68.601" stroke-width=".28144"/>
   <path d="m167.08 18.613 43.665 68.547" stroke-width=".28122"/>
   <path d="m168.92 18.255 43.387 68.428" stroke-width=".28118"/>
  </g>
  <path d="m170.76 17.744 43.612 68.308" stroke-opacity=".4" stroke-width=".28158"/>
  <g stroke-opacity=".2">
   <path d="m172.55 17.182 43.566 68.297" stroke-width=".28199"/>
   <path d="m174.23 16.722 43.677 68.136" stroke-width=".282"/>
   <path d="m112 34.562 40.777 71.285" stroke-width=".27786"/>
  </g>
  <g stroke-opacity=".4">
   <path d="m113.66 34.056 40.874 71.207" stroke-width=".27696"/>
   <path d="m45.548 69.904 145.9-45.395" stroke-width=".26275"/>
   <path d="m193.18 27.4-146.08 45.766" stroke-width=".26282"/>
   <path d="m48.42 75.887 146.78-45.884" stroke-width=".26267"/>
   <path d="m196.94 32.606-147.14 46.359" stroke-width=".26291"/>
   <path d="m198.6 35.353-147.35 46.718" stroke-width=".26291"/>
   <path d="m200.41 38.028-147.65 47.224" stroke-width=".26292"/>
   <path d="m202.22 40.848-148.07 47.343" stroke-width=".26278"/>
   <path d="m203.95 43.45-148.32 47.905" stroke-width=".26271"/>
   <path d="m205.98 46.342-148.86 48.206" stroke-width=".26278"/>
   <path d="m207.57 49.09-148.96 48.622" stroke-width=".26269"/>
   <path d="m209.52 51.62-149.37 49.381" stroke-width=".26291"/>
   <path d="m211.33 54.367-149.69 49.778" stroke-width=".26272"/>
   <path d="m213.21 57.115-150.04 50.302" stroke-width=".26283"/>
   <path d="m215.09 59.79-150.31 50.989" stroke-width=".26266"/>
   <path d="m217.04 62.899-150.67 51.206" stroke-width=".26267"/>
   <path d="m220.08 66.728-151.59 51.228" stroke-width=".26277"/>
   <path d="m222.85 71.66-152.23 50.764" stroke-width=".26278"/>
   <path d="m225.84 77.087-153.14 49.759" stroke-width=".2627"/>
  </g>
 </g>
</svg>
