<svg width="928" height="619" version="1.1" viewBox="0 0 928 619" xmlns="http://www.w3.org/2000/svg">
 <g transform="matrix(.97801 -.15226 .15226 .97801 493.15 -122.49)" fill-opacity=".24576" stroke="#000" stroke-opacity=".39722">
  <path d="m147.24 206.47 23.718 1.4715" stroke-width="1.0167"/>
  <path d="m258.37 465.13 34.872 1.4495" stroke-width="1.008"/>
  <path d="m261.31 470.93 34.872 1.4495" stroke-width="1.008"/>
  <path d="m263.49 476.34 35.514 1.4484" stroke-width="1.0168"/>
  <path d="m265.43 481.67 16.783 1.4882" stroke-width="1.0167"/>
  <path d="m250.17 448.47 35.053 1.4487" stroke-width="1.0103"/>
  <path d="m253.08 454.27 35.053 1.4487" stroke-width="1.0103"/>
  <path d="m256.14 460.07 34.54 1.4496" stroke-width="1.0032"/>
  <g stroke-width="1.0095">
   <path d="m242.23 431.43 34.983 1.4495"/>
   <path d="m245.17 437.23 34.983 1.4495"/>
   <path d="m247.75 443.03 34.983 1.4495"/>
  </g>
  <path d="m234.54 414.39 34.429 1.4496" stroke-width="1.0016"/>
  <path d="m237.44 420.19 34.429 1.4496" stroke-width="1.0016"/>
  <path d="m239.97 425.99 35.071 1.4485" stroke-width="1.0104"/>
  <g stroke-width="1.0016">
   <path d="m226.72 397.73 34.429 1.4496"/>
   <path d="m229.62 403.53 34.429 1.4496"/>
   <path d="m232.16 409.33 34.429 1.4496"/>
  </g>
  <path d="m218.39 380.69 34.943 1.4487" stroke-width="1.0087"/>
  <path d="m221.29 386.49 34.943 1.4487" stroke-width="1.0087"/>
  <path d="m223.83 392.29 35.071 1.4485" stroke-width="1.0104"/>
  <g stroke-width="1.0016">
   <path d="m210.58 363.78 34.429 1.4496"/>
   <path d="m213.48 369.58 34.429 1.4496"/>
   <path d="m216.01 375.38 34.429 1.4496"/>
   <path d="m202.76 346.99 34.429 1.4496"/>
   <path d="m205.66 352.79 34.429 1.4496"/>
   <path d="m208.2 358.59 34.429 1.4496"/>
   <path d="m194.69 330.21 34.429 1.4496"/>
   <path d="m197.59 336.01 34.429 1.4496"/>
   <path d="m200.12 341.8 34.429 1.4496"/>
   <path d="m186.89 313.05 34.429 1.4496"/>
   <path d="m189.79 318.85 34.429 1.4496"/>
   <path d="m192.33 324.65 34.429 1.4496"/>
   <path d="m178.49 295.73 34.429 1.4496"/>
   <path d="m181.39 301.53 34.429 1.4496"/>
   <path d="m183.92 307.33 34.429 1.4496"/>
   <path d="m162.9 261.48 34.429 1.4496"/>
   <path d="m165.44 267.28 34.429 1.4496"/>
   <path d="m168.34 273.08 34.429 1.4496"/>
   <path d="m170.7 278.69 34.429 1.4496"/>
   <path d="m173.6 284.49 34.429 1.4496"/>
   <path d="m176.13 290.29 34.429 1.4496"/>
   <path d="m154.75 244.81 34.429 1.4496"/>
   <path d="m157.65 250.61 34.429 1.4496"/>
   <path d="m160.19 256.41 34.429 1.4496"/>
   <path d="m137.87 209.11 130.69 278.3"/>
   <path d="m147.86 206.29 130.69 278.3"/>
   <path d="m157.86 202.96 130.18 278.3"/>
   <path d="m167.08 199.89 131.72 278.3"/>
   <path d="m138.44 210.92 34.429 1.4496"/>
   <path d="m141.34 216.72 34.429 1.4496"/>
   <path d="m143.88 222.52 34.429 1.4496"/>
   <path d="m146.23 227.78 34.429 1.4496"/>
   <path d="m149.13 233.57 34.429 1.4496"/>
   <path d="m151.67 239.37 34.429 1.4496"/>
  </g>
 </g>
 <g transform="matrix(.98132 -.13763 .13763 .98132 449.44 -112.33)" fill-opacity=".24576" stroke="#000" stroke-opacity=".39722">
  <path d="m147.24 206.47 23.718 1.4715" stroke-width="1.0167"/>
  <path d="m258.37 465.13 34.872 1.4495" stroke-width="1.008"/>
  <path d="m261.31 470.93 34.872 1.4495" stroke-width="1.008"/>
  <path d="m263.49 476.34 35.514 1.4484" stroke-width="1.0168"/>
  <path d="m265.43 481.67 16.783 1.4882" stroke-width="1.0167"/>
  <path d="m250.17 448.47 35.053 1.4487" stroke-width="1.0103"/>
  <path d="m253.08 454.27 35.053 1.4487" stroke-width="1.0103"/>
  <path d="m256.14 460.07 34.54 1.4496" stroke-width="1.0032"/>
  <g stroke-width="1.0095">
   <path d="m242.23 431.43 34.983 1.4495"/>
   <path d="m245.17 437.23 34.983 1.4495"/>
   <path d="m247.75 443.03 34.983 1.4495"/>
  </g>
  <path d="m234.54 414.39 34.429 1.4496" stroke-width="1.0016"/>
  <path d="m237.44 420.19 34.429 1.4496" stroke-width="1.0016"/>
  <path d="m239.97 425.99 35.071 1.4485" stroke-width="1.0104"/>
  <g stroke-width="1.0016">
   <path d="m226.72 397.73 34.429 1.4496"/>
   <path d="m229.62 403.53 34.429 1.4496"/>
   <path d="m232.16 409.33 34.429 1.4496"/>
  </g>
  <path d="m218.39 380.69 34.943 1.4487" stroke-width="1.0087"/>
  <path d="m221.29 386.49 34.943 1.4487" stroke-width="1.0087"/>
  <path d="m223.83 392.29 35.071 1.4485" stroke-width="1.0104"/>
  <g stroke-width="1.0016">
   <path d="m210.58 363.78 34.429 1.4496"/>
   <path d="m213.48 369.58 34.429 1.4496"/>
   <path d="m216.01 375.38 34.429 1.4496"/>
   <path d="m202.76 346.99 34.429 1.4496"/>
   <path d="m205.66 352.79 34.429 1.4496"/>
   <path d="m208.2 358.59 34.429 1.4496"/>
   <path d="m194.69 330.21 34.429 1.4496"/>
   <path d="m197.59 336.01 34.429 1.4496"/>
   <path d="m200.12 341.8 34.429 1.4496"/>
   <path d="m186.89 313.05 34.429 1.4496"/>
   <path d="m189.79 318.85 34.429 1.4496"/>
   <path d="m192.33 324.65 34.429 1.4496"/>
   <path d="m178.49 295.73 34.429 1.4496"/>
   <path d="m181.39 301.53 34.429 1.4496"/>
   <path d="m183.92 307.33 34.429 1.4496"/>
   <path d="m162.9 261.48 34.429 1.4496"/>
   <path d="m165.44 267.28 34.429 1.4496"/>
   <path d="m168.34 273.08 34.429 1.4496"/>
   <path d="m170.7 278.69 34.429 1.4496"/>
   <path d="m173.6 284.49 34.429 1.4496"/>
   <path d="m176.13 290.29 34.429 1.4496"/>
   <path d="m154.75 244.81 34.429 1.4496"/>
   <path d="m157.65 250.61 34.429 1.4496"/>
   <path d="m160.19 256.41 34.429 1.4496"/>
   <path d="m137.87 209.11 130.69 278.3"/>
   <path d="m147.86 206.29 130.69 278.3"/>
   <path d="m157.86 202.96 130.18 278.3"/>
   <path d="m167.08 199.89 131.72 278.3"/>
   <path d="m138.44 210.92 34.429 1.4496"/>
   <path d="m141.34 216.72 34.429 1.4496"/>
   <path d="m143.88 222.52 34.429 1.4496"/>
   <path d="m146.23 227.78 34.429 1.4496"/>
   <path d="m149.13 233.57 34.429 1.4496"/>
   <path d="m151.67 239.37 34.429 1.4496"/>
  </g>
 </g>
 <g transform="matrix(.9843 -.12803 .12803 .9843 403.03 -99.934)" fill-opacity=".24576" stroke="#000" stroke-opacity=".39722" stroke-width=".99983">
  <path d="m147.24 206.47 23.718 1.4715"/>
  <path d="m258.37 465.13 34.872 1.4495"/>
  <path d="m261.31 470.93 34.872 1.4495"/>
  <path d="m263.49 476.34 35.514 1.4484"/>
  <path d="m265.43 481.67 16.783 1.4882"/>
  <path d="m250.17 448.47 35.053 1.4487"/>
  <path d="m253.08 454.27 35.053 1.4487"/>
  <path d="m256.14 460.07 34.54 1.4496"/>
  <path d="m242.23 431.43 34.983 1.4495"/>
  <path d="m245.17 437.23 34.983 1.4495"/>
  <path d="m247.75 443.03 34.983 1.4495"/>
  <path d="m234.54 414.39 34.429 1.4496"/>
  <path d="m237.44 420.19 34.429 1.4496"/>
  <path d="m239.97 425.99 35.071 1.4485"/>
  <path d="m226.72 397.73 34.429 1.4496"/>
  <path d="m229.62 403.53 34.429 1.4496"/>
  <path d="m232.16 409.33 34.429 1.4496"/>
  <path d="m218.39 380.69 34.943 1.4487"/>
  <path d="m221.29 386.49 34.943 1.4487"/>
  <path d="m223.83 392.29 35.071 1.4485"/>
  <path d="m210.58 363.78 34.429 1.4496"/>
  <path d="m213.48 369.58 34.429 1.4496"/>
  <path d="m216.01 375.38 34.429 1.4496"/>
  <path d="m202.76 346.99 34.429 1.4496"/>
  <path d="m205.66 352.79 34.429 1.4496"/>
  <path d="m208.2 358.59 34.429 1.4496"/>
  <path d="m194.69 330.21 34.429 1.4496"/>
  <path d="m197.59 336.01 34.429 1.4496"/>
  <path d="m200.12 341.8 34.429 1.4496"/>
  <path d="m186.89 313.05 34.429 1.4496"/>
  <path d="m189.79 318.85 34.429 1.4496"/>
  <path d="m192.33 324.65 34.429 1.4496"/>
  <path d="m178.49 295.73 34.429 1.4496"/>
  <path d="m181.39 301.53 34.429 1.4496"/>
  <path d="m183.92 307.33 34.429 1.4496"/>
  <path d="m162.9 261.48 34.429 1.4496"/>
  <path d="m165.44 267.28 34.429 1.4496"/>
  <path d="m168.34 273.08 34.429 1.4496"/>
  <path d="m170.7 278.69 34.429 1.4496"/>
  <path d="m173.6 284.49 34.429 1.4496"/>
  <path d="m176.13 290.29 34.429 1.4496"/>
  <path d="m154.75 244.81 34.429 1.4496"/>
  <path d="m157.65 250.61 34.429 1.4496"/>
  <path d="m160.19 256.41 34.429 1.4496"/>
  <path d="m137.87 209.11 130.69 278.3"/>
  <path d="m147.86 206.29 130.69 278.3"/>
  <path d="m157.86 202.96 130.18 278.3"/>
  <path d="m167.08 199.89 131.72 278.3"/>
  <path d="m138.44 210.92 34.429 1.4496"/>
  <path d="m141.34 216.72 34.429 1.4496"/>
  <path d="m143.88 222.52 34.429 1.4496"/>
  <path d="m146.23 227.78 34.429 1.4496"/>
  <path d="m149.13 233.57 34.429 1.4496"/>
  <path d="m151.67 239.37 34.429 1.4496"/>
 </g>
 <g transform="matrix(.99101 -.12543 .12543 .99101 352.91 -88.096)" fill-opacity=".24576" stroke="#000" stroke-opacity=".39722">
  <path d="m147.24 206.47 23.718 1.4715" stroke-width="1.0167"/>
  <path d="m258.37 465.13 34.872 1.4495" stroke-width="1.008"/>
  <path d="m261.31 470.93 34.872 1.4495" stroke-width="1.008"/>
  <path d="m263.49 476.34 35.514 1.4484" stroke-width="1.0168"/>
  <path d="m265.43 481.67 16.783 1.4882" stroke-width="1.0167"/>
  <path d="m250.17 448.47 35.053 1.4487" stroke-width="1.0103"/>
  <path d="m253.08 454.27 35.053 1.4487" stroke-width="1.0103"/>
  <path d="m256.14 460.07 34.54 1.4496" stroke-width="1.0032"/>
  <g stroke-width="1.0095">
   <path d="m242.23 431.43 34.983 1.4495"/>
   <path d="m245.17 437.23 34.983 1.4495"/>
   <path d="m247.75 443.03 34.983 1.4495"/>
  </g>
  <path d="m234.54 414.39 34.429 1.4496" stroke-width="1.0016"/>
  <path d="m237.44 420.19 34.429 1.4496" stroke-width="1.0016"/>
  <path d="m239.97 425.99 35.071 1.4485" stroke-width="1.0104"/>
  <g stroke-width="1.0016">
   <path d="m226.72 397.73 34.429 1.4496"/>
   <path d="m229.62 403.53 34.429 1.4496"/>
   <path d="m232.16 409.33 34.429 1.4496"/>
  </g>
  <path d="m218.39 380.69 34.943 1.4487" stroke-width="1.0087"/>
  <path d="m221.29 386.49 34.943 1.4487" stroke-width="1.0087"/>
  <path d="m223.83 392.29 35.071 1.4485" stroke-width="1.0104"/>
  <g stroke-width="1.0016">
   <path d="m210.58 363.78 34.429 1.4496"/>
   <path d="m213.48 369.58 34.429 1.4496"/>
   <path d="m216.01 375.38 34.429 1.4496"/>
   <path d="m202.76 346.99 34.429 1.4496"/>
   <path d="m205.66 352.79 34.429 1.4496"/>
   <path d="m208.2 358.59 34.429 1.4496"/>
   <path d="m194.69 330.21 34.429 1.4496"/>
   <path d="m197.59 336.01 34.429 1.4496"/>
   <path d="m200.12 341.8 34.429 1.4496"/>
   <path d="m186.89 313.05 34.429 1.4496"/>
   <path d="m189.79 318.85 34.429 1.4496"/>
   <path d="m192.33 324.65 34.429 1.4496"/>
   <path d="m178.49 295.73 34.429 1.4496"/>
   <path d="m181.39 301.53 34.429 1.4496"/>
   <path d="m183.92 307.33 34.429 1.4496"/>
   <path d="m162.9 261.48 34.429 1.4496"/>
   <path d="m165.44 267.28 34.429 1.4496"/>
   <path d="m168.34 273.08 34.429 1.4496"/>
   <path d="m170.7 278.69 34.429 1.4496"/>
   <path d="m173.6 284.49 34.429 1.4496"/>
   <path d="m176.13 290.29 34.429 1.4496"/>
   <path d="m154.75 244.81 34.429 1.4496"/>
   <path d="m157.65 250.61 34.429 1.4496"/>
   <path d="m160.19 256.41 34.429 1.4496"/>
   <path d="m137.87 209.11 130.69 278.3"/>
   <path d="m147.86 206.29 130.69 278.3"/>
   <path d="m157.86 202.96 130.18 278.3"/>
   <path d="m167.08 199.89 131.72 278.3"/>
   <path d="m138.44 210.92 34.429 1.4496"/>
   <path d="m141.34 216.72 34.429 1.4496"/>
   <path d="m143.88 222.52 34.429 1.4496"/>
   <path d="m146.23 227.78 34.429 1.4496"/>
   <path d="m149.13 233.57 34.429 1.4496"/>
   <path d="m151.67 239.37 34.429 1.4496"/>
  </g>
 </g>
 <g transform="matrix(.99376 -.1244 .1244 .99376 298.36 -72.705)" fill-opacity=".24576" stroke="#000" stroke-opacity=".39722">
  <path d="m147.24 206.47 23.718 1.4715" stroke-width="1.0167"/>
  <path d="m258.37 465.13 34.872 1.4495" stroke-width="1.008"/>
  <path d="m261.31 470.93 34.872 1.4495" stroke-width="1.008"/>
  <path d="m263.49 476.34 35.514 1.4484" stroke-width="1.0168"/>
  <path d="m265.43 481.67 16.783 1.4882" stroke-width="1.0167"/>
  <path d="m250.17 448.47 35.053 1.4487" stroke-width="1.0103"/>
  <path d="m253.08 454.27 35.053 1.4487" stroke-width="1.0103"/>
  <path d="m256.14 460.07 34.54 1.4496" stroke-width="1.0032"/>
  <g stroke-width="1.0095">
   <path d="m242.23 431.43 34.983 1.4495"/>
   <path d="m245.17 437.23 34.983 1.4495"/>
   <path d="m247.75 443.03 34.983 1.4495"/>
  </g>
  <path d="m234.54 414.39 34.429 1.4496" stroke-width="1.0016"/>
  <path d="m237.44 420.19 34.429 1.4496" stroke-width="1.0016"/>
  <path d="m239.97 425.99 35.071 1.4485" stroke-width="1.0104"/>
  <g stroke-width="1.0016">
   <path d="m226.72 397.73 34.429 1.4496"/>
   <path d="m229.62 403.53 34.429 1.4496"/>
   <path d="m232.16 409.33 34.429 1.4496"/>
  </g>
  <path d="m218.39 380.69 34.943 1.4487" stroke-width="1.0087"/>
  <path d="m221.29 386.49 34.943 1.4487" stroke-width="1.0087"/>
  <path d="m223.83 392.29 35.071 1.4485" stroke-width="1.0104"/>
  <g stroke-width="1.0016">
   <path d="m210.58 363.78 34.429 1.4496"/>
   <path d="m213.48 369.58 34.429 1.4496"/>
   <path d="m216.01 375.38 34.429 1.4496"/>
   <path d="m202.76 346.99 34.429 1.4496"/>
   <path d="m205.66 352.79 34.429 1.4496"/>
   <path d="m208.2 358.59 34.429 1.4496"/>
   <path d="m194.69 330.21 34.429 1.4496"/>
   <path d="m197.59 336.01 34.429 1.4496"/>
   <path d="m200.12 341.8 34.429 1.4496"/>
   <path d="m186.89 313.05 34.429 1.4496"/>
   <path d="m189.79 318.85 34.429 1.4496"/>
   <path d="m192.33 324.65 34.429 1.4496"/>
   <path d="m178.49 295.73 34.429 1.4496"/>
   <path d="m181.39 301.53 34.429 1.4496"/>
   <path d="m183.92 307.33 34.429 1.4496"/>
   <path d="m162.9 261.48 34.429 1.4496"/>
   <path d="m165.44 267.28 34.429 1.4496"/>
   <path d="m168.34 273.08 34.429 1.4496"/>
   <path d="m170.7 278.69 34.429 1.4496"/>
   <path d="m173.6 284.49 34.429 1.4496"/>
   <path d="m176.13 290.29 34.429 1.4496"/>
   <path d="m154.75 244.81 34.429 1.4496"/>
   <path d="m157.65 250.61 34.429 1.4496"/>
   <path d="m160.19 256.41 34.429 1.4496"/>
   <path d="m137.87 209.11 130.69 278.3"/>
   <path d="m147.86 206.29 130.69 278.3"/>
   <path d="m157.86 202.96 130.18 278.3"/>
   <path d="m167.08 199.89 131.72 278.3"/>
   <path d="m138.44 210.92 34.429 1.4496"/>
   <path d="m141.34 216.72 34.429 1.4496"/>
   <path d="m143.88 222.52 34.429 1.4496"/>
   <path d="m146.23 227.78 34.429 1.4496"/>
   <path d="m149.13 233.57 34.429 1.4496"/>
   <path d="m151.67 239.37 34.429 1.4496"/>
  </g>
 </g>
 <g transform="matrix(.99419 -.11797 .11797 .99419 245.7 -58.049)" fill-opacity=".24576" stroke="#000" stroke-opacity=".39722">
  <path d="m147.24 206.47 23.718 1.4715" stroke-width="1.0167"/>
  <path d="m258.37 465.13 34.872 1.4495" stroke-width="1.008"/>
  <path d="m261.31 470.93 34.872 1.4495" stroke-width="1.008"/>
  <path d="m263.49 476.34 35.514 1.4484" stroke-width="1.0168"/>
  <path d="m265.43 481.67 16.783 1.4882" stroke-width="1.0167"/>
  <path d="m250.17 448.47 35.053 1.4487" stroke-width="1.0103"/>
  <path d="m253.08 454.27 35.053 1.4487" stroke-width="1.0103"/>
  <path d="m256.14 460.07 34.54 1.4496" stroke-width="1.0032"/>
  <g stroke-width="1.0095">
   <path d="m242.23 431.43 34.983 1.4495"/>
   <path d="m245.17 437.23 34.983 1.4495"/>
   <path d="m247.75 443.03 34.983 1.4495"/>
  </g>
  <path d="m234.54 414.39 34.429 1.4496" stroke-width="1.0016"/>
  <path d="m237.44 420.19 34.429 1.4496" stroke-width="1.0016"/>
  <path d="m239.97 425.99 35.071 1.4485" stroke-width="1.0104"/>
  <g stroke-width="1.0016">
   <path d="m226.72 397.73 34.429 1.4496"/>
   <path d="m229.62 403.53 34.429 1.4496"/>
   <path d="m232.16 409.33 34.429 1.4496"/>
  </g>
  <path d="m218.39 380.69 34.943 1.4487" stroke-width="1.0087"/>
  <path d="m221.29 386.49 34.943 1.4487" stroke-width="1.0087"/>
  <path d="m223.83 392.29 35.071 1.4485" stroke-width="1.0104"/>
  <g stroke-width="1.0016">
   <path d="m210.58 363.78 34.429 1.4496"/>
   <path d="m213.48 369.58 34.429 1.4496"/>
   <path d="m216.01 375.38 34.429 1.4496"/>
   <path d="m202.76 346.99 34.429 1.4496"/>
   <path d="m205.66 352.79 34.429 1.4496"/>
   <path d="m208.2 358.59 34.429 1.4496"/>
   <path d="m194.69 330.21 34.429 1.4496"/>
   <path d="m197.59 336.01 34.429 1.4496"/>
   <path d="m200.12 341.8 34.429 1.4496"/>
   <path d="m186.89 313.05 34.429 1.4496"/>
   <path d="m189.79 318.85 34.429 1.4496"/>
   <path d="m192.33 324.65 34.429 1.4496"/>
   <path d="m178.49 295.73 34.429 1.4496"/>
   <path d="m181.39 301.53 34.429 1.4496"/>
   <path d="m183.92 307.33 34.429 1.4496"/>
   <path d="m162.9 261.48 34.429 1.4496"/>
   <path d="m165.44 267.28 34.429 1.4496"/>
   <path d="m168.34 273.08 34.429 1.4496"/>
   <path d="m170.7 278.69 34.429 1.4496"/>
   <path d="m173.6 284.49 34.429 1.4496"/>
   <path d="m176.13 290.29 34.429 1.4496"/>
   <path d="m154.75 244.81 34.429 1.4496"/>
   <path d="m157.65 250.61 34.429 1.4496"/>
   <path d="m160.19 256.41 34.429 1.4496"/>
   <path d="m137.87 209.11 130.69 278.3"/>
   <path d="m147.86 206.29 130.69 278.3"/>
   <path d="m157.86 202.96 130.18 278.3"/>
   <path d="m167.08 199.89 131.72 278.3"/>
   <path d="m138.44 210.92 34.429 1.4496"/>
   <path d="m141.34 216.72 34.429 1.4496"/>
   <path d="m143.88 222.52 34.429 1.4496"/>
   <path d="m146.23 227.78 34.429 1.4496"/>
   <path d="m149.13 233.57 34.429 1.4496"/>
   <path d="m151.67 239.37 34.429 1.4496"/>
  </g>
 </g>
 <g transform="matrix(1.0019 -.068453 .068453 1.0019 97.232 -22.927)" fill-opacity=".24576" stroke="#000" stroke-opacity=".39722">
  <path d="m147.24 206.47 23.718 1.4715" stroke-width="1.0167"/>
  <path d="m258.37 465.13 34.872 1.4495" stroke-width="1.008"/>
  <path d="m261.31 470.93 34.872 1.4495" stroke-width="1.008"/>
  <path d="m263.49 476.34 35.514 1.4484" stroke-width="1.0168"/>
  <path d="m265.43 481.67 16.783 1.4882" stroke-width="1.0167"/>
  <path d="m250.17 448.47 35.053 1.4487" stroke-width="1.0103"/>
  <path d="m253.08 454.27 35.053 1.4487" stroke-width="1.0103"/>
  <path d="m256.14 460.07 34.54 1.4496" stroke-width="1.0032"/>
  <g stroke-width="1.0095">
   <path d="m242.23 431.43 34.983 1.4495"/>
   <path d="m245.17 437.23 34.983 1.4495"/>
   <path d="m247.75 443.03 34.983 1.4495"/>
  </g>
  <path d="m234.54 414.39 34.429 1.4496" stroke-width="1.0016"/>
  <path d="m237.44 420.19 34.429 1.4496" stroke-width="1.0016"/>
  <path d="m239.97 425.99 35.071 1.4485" stroke-width="1.0104"/>
  <g stroke-width="1.0016">
   <path d="m226.72 397.73 34.429 1.4496"/>
   <path d="m229.62 403.53 34.429 1.4496"/>
   <path d="m232.16 409.33 34.429 1.4496"/>
  </g>
  <path d="m218.39 380.69 34.943 1.4487" stroke-width="1.0087"/>
  <path d="m221.29 386.49 34.943 1.4487" stroke-width="1.0087"/>
  <path d="m223.83 392.29 35.071 1.4485" stroke-width="1.0104"/>
  <g stroke-width="1.0016">
   <path d="m210.58 363.78 34.429 1.4496"/>
   <path d="m213.48 369.58 34.429 1.4496"/>
   <path d="m216.01 375.38 34.429 1.4496"/>
   <path d="m202.76 346.99 34.429 1.4496"/>
   <path d="m205.66 352.79 34.429 1.4496"/>
   <path d="m208.2 358.59 34.429 1.4496"/>
   <path d="m194.69 330.21 34.429 1.4496"/>
   <path d="m197.59 336.01 34.429 1.4496"/>
   <path d="m200.12 341.8 34.429 1.4496"/>
   <path d="m186.89 313.05 34.429 1.4496"/>
   <path d="m189.79 318.85 34.429 1.4496"/>
   <path d="m192.33 324.65 34.429 1.4496"/>
   <path d="m178.49 295.73 34.429 1.4496"/>
   <path d="m181.39 301.53 34.429 1.4496"/>
   <path d="m183.92 307.33 34.429 1.4496"/>
   <path d="m162.9 261.48 34.429 1.4496"/>
   <path d="m165.44 267.28 34.429 1.4496"/>
   <path d="m168.34 273.08 34.429 1.4496"/>
   <path d="m170.7 278.69 34.429 1.4496"/>
   <path d="m173.6 284.49 34.429 1.4496"/>
   <path d="m176.13 290.29 34.429 1.4496"/>
   <path d="m154.75 244.81 34.429 1.4496"/>
   <path d="m157.65 250.61 34.429 1.4496"/>
   <path d="m160.19 256.41 34.429 1.4496"/>
   <path d="m137.87 209.11 130.69 278.3"/>
   <path d="m147.86 206.29 130.69 278.3"/>
   <path d="m157.86 202.96 130.18 278.3"/>
   <path d="m167.08 199.89 131.72 278.3"/>
   <path d="m138.44 210.92 34.429 1.4496"/>
   <path d="m141.34 216.72 34.429 1.4496"/>
   <path d="m143.88 222.52 34.429 1.4496"/>
   <path d="m146.23 227.78 34.429 1.4496"/>
   <path d="m149.13 233.57 34.429 1.4496"/>
   <path d="m151.67 239.37 34.429 1.4496"/>
  </g>
 </g>
 <g transform="matrix(.99748 -.09361 .09361 .99748 199.14 -47.619)" fill-opacity=".24576" stroke="#000" stroke-opacity=".39722">
  <path d="m147.24 206.47 23.718 1.4715" stroke-width="1.0167"/>
  <path d="m258.37 465.13 34.872 1.4495" stroke-width="1.008"/>
  <path d="m261.31 470.93 34.872 1.4495" stroke-width="1.008"/>
  <path d="m263.49 476.34 35.514 1.4484" stroke-width="1.0168"/>
  <path d="m265.43 481.67 16.783 1.4882" stroke-width="1.0167"/>
  <path d="m250.17 448.47 35.053 1.4487" stroke-width="1.0103"/>
  <path d="m253.08 454.27 35.053 1.4487" stroke-width="1.0103"/>
  <path d="m256.14 460.07 34.54 1.4496" stroke-width="1.0032"/>
  <g stroke-width="1.0095">
   <path d="m242.23 431.43 34.983 1.4495"/>
   <path d="m245.17 437.23 34.983 1.4495"/>
   <path d="m247.75 443.03 34.983 1.4495"/>
  </g>
  <path d="m234.54 414.39 34.429 1.4496" stroke-width="1.0016"/>
  <path d="m237.44 420.19 34.429 1.4496" stroke-width="1.0016"/>
  <path d="m239.97 425.99 35.071 1.4485" stroke-width="1.0104"/>
  <g stroke-width="1.0016">
   <path d="m226.72 397.73 34.429 1.4496"/>
   <path d="m229.62 403.53 34.429 1.4496"/>
   <path d="m232.16 409.33 34.429 1.4496"/>
  </g>
  <path d="m218.39 380.69 34.943 1.4487" stroke-width="1.0087"/>
  <path d="m221.29 386.49 34.943 1.4487" stroke-width="1.0087"/>
  <path d="m223.83 392.29 35.071 1.4485" stroke-width="1.0104"/>
  <g stroke-width="1.0016">
   <path d="m210.58 363.78 34.429 1.4496"/>
   <path d="m213.48 369.58 34.429 1.4496"/>
   <path d="m216.01 375.38 34.429 1.4496"/>
   <path d="m202.76 346.99 34.429 1.4496"/>
   <path d="m205.66 352.79 34.429 1.4496"/>
   <path d="m208.2 358.59 34.429 1.4496"/>
   <path d="m194.69 330.21 34.429 1.4496"/>
   <path d="m197.59 336.01 34.429 1.4496"/>
   <path d="m200.12 341.8 34.429 1.4496"/>
   <path d="m186.89 313.05 34.429 1.4496"/>
   <path d="m189.79 318.85 34.429 1.4496"/>
   <path d="m192.33 324.65 34.429 1.4496"/>
   <path d="m178.49 295.73 34.429 1.4496"/>
   <path d="m181.39 301.53 34.429 1.4496"/>
   <path d="m183.92 307.33 34.429 1.4496"/>
   <path d="m162.9 261.48 34.429 1.4496"/>
   <path d="m165.44 267.28 34.429 1.4496"/>
   <path d="m168.34 273.08 34.429 1.4496"/>
   <path d="m170.7 278.69 34.429 1.4496"/>
   <path d="m173.6 284.49 34.429 1.4496"/>
   <path d="m176.13 290.29 34.429 1.4496"/>
   <path d="m154.75 244.81 34.429 1.4496"/>
   <path d="m157.65 250.61 34.429 1.4496"/>
   <path d="m160.19 256.41 34.429 1.4496"/>
   <path d="m137.87 209.11 130.69 278.3"/>
   <path d="m147.86 206.29 130.69 278.3"/>
   <path d="m157.86 202.96 130.18 278.3"/>
   <path d="m167.08 199.89 131.72 278.3"/>
   <path d="m138.44 210.92 34.429 1.4496"/>
   <path d="m141.34 216.72 34.429 1.4496"/>
   <path d="m143.88 222.52 34.429 1.4496"/>
   <path d="m146.23 227.78 34.429 1.4496"/>
   <path d="m149.13 233.57 34.429 1.4496"/>
   <path d="m151.67 239.37 34.429 1.4496"/>
  </g>
 </g>
 <g transform="matrix(.99987 -.080419 .080419 .99987 148.58 -35.267)" fill-opacity=".24576" stroke="#000" stroke-opacity=".39722">
  <path d="m147.24 206.47 23.718 1.4715" stroke-width="1.0167"/>
  <path d="m258.37 465.13 34.872 1.4495" stroke-width="1.008"/>
  <path d="m261.31 470.93 34.872 1.4495" stroke-width="1.008"/>
  <path d="m263.49 476.34 35.514 1.4484" stroke-width="1.0168"/>
  <path d="m265.43 481.67 16.783 1.4882" stroke-width="1.0167"/>
  <path d="m250.17 448.47 35.053 1.4487" stroke-width="1.0103"/>
  <path d="m253.08 454.27 35.053 1.4487" stroke-width="1.0103"/>
  <path d="m256.14 460.07 34.54 1.4496" stroke-width="1.0032"/>
  <g stroke-width="1.0095">
   <path d="m242.23 431.43 34.983 1.4495"/>
   <path d="m245.17 437.23 34.983 1.4495"/>
   <path d="m247.75 443.03 34.983 1.4495"/>
  </g>
  <path d="m234.54 414.39 34.429 1.4496" stroke-width="1.0016"/>
  <path d="m237.44 420.19 34.429 1.4496" stroke-width="1.0016"/>
  <path d="m239.97 425.99 35.071 1.4485" stroke-width="1.0104"/>
  <g stroke-width="1.0016">
   <path d="m226.72 397.73 34.429 1.4496"/>
   <path d="m229.62 403.53 34.429 1.4496"/>
   <path d="m232.16 409.33 34.429 1.4496"/>
  </g>
  <path d="m218.39 380.69 34.943 1.4487" stroke-width="1.0087"/>
  <path d="m221.29 386.49 34.943 1.4487" stroke-width="1.0087"/>
  <path d="m223.83 392.29 35.071 1.4485" stroke-width="1.0104"/>
  <g stroke-width="1.0016">
   <path d="m210.58 363.78 34.429 1.4496"/>
   <path d="m213.48 369.58 34.429 1.4496"/>
   <path d="m216.01 375.38 34.429 1.4496"/>
   <path d="m202.76 346.99 34.429 1.4496"/>
   <path d="m205.66 352.79 34.429 1.4496"/>
   <path d="m208.2 358.59 34.429 1.4496"/>
   <path d="m194.69 330.21 34.429 1.4496"/>
   <path d="m197.59 336.01 34.429 1.4496"/>
   <path d="m200.12 341.8 34.429 1.4496"/>
   <path d="m186.89 313.05 34.429 1.4496"/>
   <path d="m189.79 318.85 34.429 1.4496"/>
   <path d="m192.33 324.65 34.429 1.4496"/>
   <path d="m178.49 295.73 34.429 1.4496"/>
   <path d="m181.39 301.53 34.429 1.4496"/>
   <path d="m183.92 307.33 34.429 1.4496"/>
   <path d="m162.9 261.48 34.429 1.4496"/>
   <path d="m165.44 267.28 34.429 1.4496"/>
   <path d="m168.34 273.08 34.429 1.4496"/>
   <path d="m170.7 278.69 34.429 1.4496"/>
   <path d="m173.6 284.49 34.429 1.4496"/>
   <path d="m176.13 290.29 34.429 1.4496"/>
   <path d="m154.75 244.81 34.429 1.4496"/>
   <path d="m157.65 250.61 34.429 1.4496"/>
   <path d="m160.19 256.41 34.429 1.4496"/>
   <path d="m137.87 209.11 130.69 278.3"/>
   <path d="m147.86 206.29 130.69 278.3"/>
   <path d="m157.86 202.96 130.18 278.3"/>
   <path d="m167.08 199.89 131.72 278.3"/>
   <path d="m138.44 210.92 34.429 1.4496"/>
   <path d="m141.34 216.72 34.429 1.4496"/>
   <path d="m143.88 222.52 34.429 1.4496"/>
   <path d="m146.23 227.78 34.429 1.4496"/>
   <path d="m149.13 233.57 34.429 1.4496"/>
   <path d="m151.67 239.37 34.429 1.4496"/>
  </g>
 </g>
 <g transform="matrix(1.005 -.035406 .035406 1.005 1.5684 2.2046)" fill-opacity=".24576" stroke="#000" stroke-opacity=".39722">
  <path d="m147.24 206.47 23.718 1.4715" stroke-width="1.0167"/>
  <path d="m258.37 465.13 34.872 1.4495" stroke-width="1.008"/>
  <path d="m261.31 470.93 34.872 1.4495" stroke-width="1.008"/>
  <path d="m263.49 476.34 35.514 1.4484" stroke-width="1.0168"/>
  <path d="m265.43 481.67 16.783 1.4882" stroke-width="1.0167"/>
  <path d="m250.17 448.47 35.053 1.4487" stroke-width="1.0103"/>
  <path d="m253.08 454.27 35.053 1.4487" stroke-width="1.0103"/>
  <path d="m256.14 460.07 34.54 1.4496" stroke-width="1.0032"/>
  <g stroke-width="1.0095">
   <path d="m242.23 431.43 34.983 1.4495"/>
   <path d="m245.17 437.23 34.983 1.4495"/>
   <path d="m247.75 443.03 34.983 1.4495"/>
  </g>
  <path d="m234.54 414.39 34.429 1.4496" stroke-width="1.0016"/>
  <path d="m237.44 420.19 34.429 1.4496" stroke-width="1.0016"/>
  <path d="m239.97 425.99 35.071 1.4485" stroke-width="1.0104"/>
  <g stroke-width="1.0016">
   <path d="m226.72 397.73 34.429 1.4496"/>
   <path d="m229.62 403.53 34.429 1.4496"/>
   <path d="m232.16 409.33 34.429 1.4496"/>
  </g>
  <path d="m218.39 380.69 34.943 1.4487" stroke-width="1.0087"/>
  <path d="m221.29 386.49 34.943 1.4487" stroke-width="1.0087"/>
  <path d="m223.83 392.29 35.071 1.4485" stroke-width="1.0104"/>
  <g stroke-width="1.0016">
   <path d="m210.58 363.78 34.429 1.4496"/>
   <path d="m213.48 369.58 34.429 1.4496"/>
   <path d="m216.01 375.38 34.429 1.4496"/>
   <path d="m202.76 346.99 34.429 1.4496"/>
   <path d="m205.66 352.79 34.429 1.4496"/>
   <path d="m208.2 358.59 34.429 1.4496"/>
   <path d="m194.69 330.21 34.429 1.4496"/>
   <path d="m197.59 336.01 34.429 1.4496"/>
   <path d="m200.12 341.8 34.429 1.4496"/>
   <path d="m186.89 313.05 34.429 1.4496"/>
   <path d="m189.79 318.85 34.429 1.4496"/>
   <path d="m192.33 324.65 34.429 1.4496"/>
   <path d="m178.49 295.73 34.429 1.4496"/>
   <path d="m181.39 301.53 34.429 1.4496"/>
   <path d="m183.92 307.33 34.429 1.4496"/>
   <path d="m162.9 261.48 34.429 1.4496"/>
   <path d="m165.44 267.28 34.429 1.4496"/>
   <path d="m168.34 273.08 34.429 1.4496"/>
   <path d="m170.7 278.69 34.429 1.4496"/>
   <path d="m173.6 284.49 34.429 1.4496"/>
   <path d="m176.13 290.29 34.429 1.4496"/>
   <path d="m154.75 244.81 34.429 1.4496"/>
   <path d="m157.65 250.61 34.429 1.4496"/>
   <path d="m160.19 256.41 34.429 1.4496"/>
   <path d="m137.87 209.11 130.69 278.3"/>
   <path d="m147.86 206.29 130.69 278.3"/>
   <path d="m157.86 202.96 130.18 278.3"/>
   <path d="m167.08 199.89 131.72 278.3"/>
   <path d="m138.44 210.92 34.429 1.4496"/>
   <path d="m141.34 216.72 34.429 1.4496"/>
   <path d="m143.88 222.52 34.429 1.4496"/>
   <path d="m146.23 227.78 34.429 1.4496"/>
   <path d="m149.13 233.57 34.429 1.4496"/>
   <path d="m151.67 239.37 34.429 1.4496"/>
  </g>
 </g>
 <g transform="matrix(1.0039 -.050313 .050313 1.0039 48.843 -10.774)" fill-opacity=".24576" stroke="#000" stroke-opacity=".39722" stroke-width="1.0002">
  <path d="m147.24 206.47 23.718 1.4715"/>
  <path d="m258.37 465.13 34.872 1.4495"/>
  <path d="m261.31 470.93 34.872 1.4495"/>
  <path d="m263.49 476.34 35.514 1.4484"/>
  <path d="m265.43 481.67 16.783 1.4882"/>
  <path d="m250.17 448.47 35.053 1.4487"/>
  <path d="m253.08 454.27 35.053 1.4487"/>
  <path d="m256.14 460.07 34.54 1.4496"/>
  <path d="m242.23 431.43 34.983 1.4495"/>
  <path d="m245.17 437.23 34.983 1.4495"/>
  <path d="m247.75 443.03 34.983 1.4495"/>
  <path d="m234.54 414.39 34.429 1.4496"/>
  <path d="m237.44 420.19 34.429 1.4496"/>
  <path d="m239.97 425.99 35.071 1.4485"/>
  <path d="m226.72 397.73 34.429 1.4496"/>
  <path d="m229.62 403.53 34.429 1.4496"/>
  <path d="m232.16 409.33 34.429 1.4496"/>
  <path d="m218.39 380.69 34.943 1.4487"/>
  <path d="m221.29 386.49 34.943 1.4487"/>
  <path d="m223.83 392.29 35.071 1.4485"/>
  <path d="m210.58 363.78 34.429 1.4496"/>
  <path d="m213.48 369.58 34.429 1.4496"/>
  <path d="m216.01 375.38 34.429 1.4496"/>
  <path d="m202.76 346.99 34.429 1.4496"/>
  <path d="m205.66 352.79 34.429 1.4496"/>
  <path d="m208.2 358.59 34.429 1.4496"/>
  <path d="m194.69 330.21 34.429 1.4496"/>
  <path d="m197.59 336.01 34.429 1.4496"/>
  <path d="m200.12 341.8 34.429 1.4496"/>
  <path d="m186.89 313.05 34.429 1.4496"/>
  <path d="m189.79 318.85 34.429 1.4496"/>
  <path d="m192.33 324.65 34.429 1.4496"/>
  <path d="m178.49 295.73 34.429 1.4496"/>
  <path d="m181.39 301.53 34.429 1.4496"/>
  <path d="m183.92 307.33 34.429 1.4496"/>
  <path d="m162.9 261.48 34.429 1.4496"/>
  <path d="m165.44 267.28 34.429 1.4496"/>
  <path d="m168.34 273.08 34.429 1.4496"/>
  <path d="m170.7 278.69 34.429 1.4496"/>
  <path d="m173.6 284.49 34.429 1.4496"/>
  <path d="m176.13 290.29 34.429 1.4496"/>
  <path d="m154.75 244.81 34.429 1.4496"/>
  <path d="m157.65 250.61 34.429 1.4496"/>
  <path d="m160.19 256.41 34.429 1.4496"/>
  <path d="m137.87 209.11 130.69 278.3"/>
  <path d="m147.86 206.29 130.69 278.3"/>
  <path d="m157.86 202.96 130.18 278.3"/>
  <path d="m167.08 199.89 131.72 278.3"/>
  <path d="m138.44 210.92 34.429 1.4496"/>
  <path d="m141.34 216.72 34.429 1.4496"/>
  <path d="m143.88 222.52 34.429 1.4496"/>
  <path d="m146.23 227.78 34.429 1.4496"/>
  <path d="m149.13 233.57 34.429 1.4496"/>
  <path d="m151.67 239.37 34.429 1.4496"/>
 </g>
</svg>
