<svg width="928" height="619" version="1.1" viewBox="0 0 245.53 163.78" xmlns="http://www.w3.org/2000/svg">
 <g transform="translate(271.62 159.46)">
  <g transform="matrix(.5 0 0 .5 -128.56 -71.777)" fill-opacity=".5">
   <circle cx="-190.82" cy="-56.72" r=".25"/>
   <circle cx="-183.63" cy="-58.845" r=".25"/>
   <circle cx="-188.29" cy="-51.074" r=".25"/>
   <circle cx="-180.99" cy="-53.315" r=".25"/>
   <circle cx="-176.18" cy="-60.998" r=".25"/>
   <circle cx="-173.74" cy="-55.44" r=".25"/>
   <circle cx="-185.82" cy="-45.544" r=".25"/>
   <circle cx="-178.54" cy="-47.698" r=".25"/>
   <circle cx="-171.12" cy="-49.852" r=".25"/>
   <circle cx="-183.23" cy="-39.986" r=".25"/>
   <circle cx="-180.69" cy="-34.572" r=".25"/>
   <circle cx="-173.22" cy="-36.697" r=".25"/>
   <circle cx="-175.86" cy="-42.314" r=".25"/>
   <circle cx="-168.62" cy="-44.351" r=".25"/>
   <circle cx="-165.97" cy="-38.851" r=".25"/>
   <circle cx="-178.1" cy="-28.654" r=".25"/>
   <circle cx="-170.61" cy="-30.794" r=".25"/>
   <circle cx="-163.12" cy="-33.017" r=".25"/>
   <circle cx="-175.39" cy="-23.139" r=".25"/>
   <circle cx="-167.9" cy="-25.279" r=".25"/>
   <circle cx="-160.41" cy="-27.666" r=".25"/>
   <circle cx="-172.59" cy="-17.623" r=".25"/>
   <circle cx="-165.26" cy="-19.846" r=".25"/>
   <circle cx="-157.61" cy="-22.151" r=".25"/>
   <circle cx="-170.2" cy="-11.697" r=".25"/>
   <circle cx="-162.46" cy="-14.166" r=".25"/>
   <circle cx="-154.97" cy="-16.553" r=".25"/>
   <circle cx="-169.13" cy="-62.98" r=".25"/>
   <circle cx="-166.42" cy="-57.383" r=".25"/>
   <circle cx="-163.78" cy="-51.95" r=".25"/>
   <circle cx="-161.06" cy="-46.517" r=".25"/>
   <circle cx="-158.43" cy="-41.084" r=".25"/>
   <circle cx="-155.8" cy="-35.239" r=".25"/>
   <circle cx="-153.16" cy="-29.806" r=".25"/>
   <circle cx="-150.53" cy="-24.044" r=".25"/>
   <circle cx="-147.73" cy="-18.364" r=".25"/>
   <circle cx="-139.99" cy="-20.834" r=".25"/>
   <circle cx="-142.87" cy="-26.349" r=".25"/>
   <circle cx="-145.67" cy="-32.029" r=".25"/>
   <circle cx="-148.47" cy="-37.626" r=".25"/>
   <circle cx="-151.02" cy="-42.977" r=".25"/>
   <circle cx="-153.82" cy="-48.492" r=".25"/>
   <circle cx="-156.29" cy="-54.09" r=".25"/>
   <circle cx="-159.17" cy="-59.44" r=".25"/>
   <circle cx="-161.72" cy="-65.038" r=".25"/>
   <circle cx="-154.64" cy="-67.178" r=".25"/>
   <circle cx="-151.93" cy="-61.663" r=".25"/>
   <circle cx="-149.21" cy="-56.23" r=".25"/>
   <circle cx="-146.49" cy="-50.633" r=".25"/>
   <circle cx="-143.86" cy="-45.2" r=".25"/>
   <circle cx="-140.98" cy="-39.52" r=".25"/>
   <circle cx="-138.43" cy="-34.004" r=".25"/>
   <circle cx="-135.79" cy="-28.654" r=".25"/>
   <circle cx="-132.91" cy="-22.809" r=".25"/>
   <circle cx="-125.42" cy="-25.114" r=".25"/>
   <circle cx="-128.38" cy="-30.712" r=".25"/>
   <circle cx="-131.1" cy="-36.392" r=".25"/>
   <circle cx="-133.65" cy="-41.742" r=".25"/>
   <circle cx="-136.62" cy="-47.34" r=".25"/>
   <circle cx="-139.33" cy="-52.855" r=".25"/>
   <circle cx="-141.88" cy="-58.206" r=".25"/>
   <circle cx="-144.93" cy="-63.803" r=".25"/>
   <circle cx="-147.4" cy="-69.318" r=".25"/>
   <circle cx="-140.24" cy="-71.294" r=".25"/>
   <circle cx="-137.6" cy="-65.861" r=".25"/>
   <circle cx="-134.72" cy="-60.264" r=".25"/>
   <circle cx="-132.01" cy="-54.748" r=".25"/>
   <circle cx="-129.37" cy="-49.315" r=".25"/>
   <circle cx="-126.41" cy="-43.965" r=".25"/>
   <circle cx="-123.69" cy="-38.367" r=".25"/>
   <circle cx="-120.98" cy="-32.687" r=".25"/>
   <circle cx="-117.93" cy="-27.09" r=".25"/>
   <circle cx="-133.08" cy="-73.434" r=".25"/>
   <circle cx="-118.67" cy="-77.386" r=".25"/>
   <circle cx="-115.79" cy="-71.953" r=".25"/>
   <circle cx="-113.24" cy="-66.684" r=".25"/>
   <circle cx="-110.36" cy="-60.922" r=".25"/>
   <circle cx="-107.48" cy="-55.489" r=".25"/>
   <circle cx="-104.84" cy="-50.139" r=".25"/>
   <circle cx="-101.88" cy="-44.623" r=".25"/>
   <circle cx="-98.915" cy="-38.944" r=".25"/>
   <circle cx="-95.952" cy="-33.511" r=".25"/>
   <circle cx="-88.79" cy="-35.815" r=".25"/>
   <circle cx="-91.671" cy="-41.084" r=".25"/>
   <circle cx="-94.635" cy="-46.681" r=".25"/>
   <circle cx="-97.516" cy="-52.197" r=".25"/>
   <circle cx="-100.31" cy="-57.794" r=".25"/>
   <circle cx="-103.11" cy="-63.062" r=".25"/>
   <circle cx="-106.08" cy="-68.413" r=".25"/>
   <circle cx="-108.71" cy="-73.846" r=".25"/>
   <circle cx="-111.51" cy="-79.443" r=".25"/>
   <circle cx="-104.51" cy="-81.419" r=".25"/>
   <circle cx="-97.351" cy="-83.395" r=".25"/>
   <circle cx="-101.8" cy="-75.904" r=".25"/>
   <circle cx="-94.388" cy="-78.126" r=".25"/>
   <circle cx="-98.915" cy="-70.553" r=".25"/>
   <circle cx="-91.836" cy="-72.858" r=".25"/>
   <circle cx="-96.116" cy="-65.367" r=".25"/>
   <circle cx="-88.873" cy="-67.425" r=".25"/>
   <circle cx="-93.153" cy="-59.934" r=".25"/>
   <circle cx="-85.909" cy="-61.992" r=".25"/>
   <circle cx="-90.354" cy="-54.419" r=".25"/>
   <circle cx="-83.11" cy="-56.724" r=".25"/>
   <circle cx="-87.391" cy="-48.739" r=".25"/>
   <circle cx="-80.065" cy="-51.209" r=".25"/>
   <circle cx="-84.51" cy="-43.224" r=".25"/>
   <circle cx="-77.266" cy="-45.694" r=".25"/>
   <circle cx="-81.629" cy="-37.709" r=".25"/>
   <circle cx="-74.302" cy="-40.178" r=".25"/>
   <circle cx="-67.059" cy="-42.319" r=".25"/>
   <circle cx="-59.815" cy="-44.376" r=".25"/>
   <circle cx="-55.863" cy="-52.279" r=".25"/>
   <circle cx="-63.025" cy="-49.892" r=".25"/>
   <circle cx="-70.269" cy="-47.669" r=".25"/>
   <circle cx="-73.068" cy="-53.267" r=".25"/>
   <circle cx="-66.153" cy="-55.407" r=".25"/>
   <circle cx="-58.827" cy="-57.629" r=".25"/>
   <circle cx="-61.79" cy="-62.898" r=".25"/>
   <circle cx="-68.787" cy="-60.675" r=".25"/>
   <circle cx="-76.113" cy="-58.453" r=".25"/>
   <circle cx="-78.912" cy="-64.05" r=".25"/>
   <circle cx="-71.751" cy="-66.026" r=".25"/>
   <circle cx="-65.001" cy="-68.166" r=".25"/>
   <circle cx="-67.799" cy="-73.352" r=".25"/>
   <circle cx="-74.714" cy="-71.459" r=".25"/>
   <circle cx="-81.958" cy="-69.483" r=".25"/>
   <circle cx="-84.757" cy="-74.587" r=".25"/>
   <circle cx="-87.473" cy="-79.937" r=".25"/>
   <circle cx="-90.601" cy="-85.37" r=".25"/>
   <circle cx="-83.357" cy="-87.511" r=".25"/>
   <circle cx="-80.476" cy="-82.16" r=".25"/>
   <circle cx="-77.595" cy="-76.645" r=".25"/>
   <circle cx="-70.516" cy="-78.867" r=".25"/>
   <circle cx="-73.562" cy="-84.3" r=".25"/>
   <circle cx="-76.525" cy="-89.404" r=".25"/>
   <circle cx="-53.076" cy="-46.243" r=".25"/>
   <circle cx="-130.52" cy="-67.837" r=".25"/>
   <circle cx="-127.48" cy="-62.322" r=".25"/>
   <circle cx="-124.68" cy="-56.889" r=".25"/>
   <circle cx="-122.13" cy="-51.373" r=".25"/>
   <circle cx="-119.33" cy="-45.858" r=".25"/>
   <circle cx="-116.37" cy="-40.59" r=".25"/>
   <circle cx="-113.57" cy="-34.91" r=".25"/>
   <circle cx="-110.6" cy="-29.23" r=".25"/>
   <circle cx="-126.08" cy="-75.41" r=".25"/>
   <circle cx="-123.12" cy="-69.812" r=".25"/>
   <circle cx="-120.24" cy="-64.379" r=".25"/>
   <circle cx="-117.52" cy="-58.864" r=".25"/>
   <circle cx="-114.72" cy="-53.514" r=".25"/>
   <circle cx="-111.92" cy="-47.998" r=".25"/>
   <circle cx="-109.29" cy="-42.648" r=".25"/>
   <circle cx="-106.24" cy="-36.886" r=".25"/>
   <circle cx="-103.36" cy="-31.453" r=".25"/>
   <circle cx="-167.39" cy="-6.3711" r=".25"/>
   <circle cx="-159.94" cy="-8.4665" r=".25"/>
   <circle cx="-152.32" cy="-10.62" r=".25"/>
   <circle cx="-144.81" cy="-12.89" r=".25"/>
   <circle cx="-137.3" cy="-15.044" r=".25"/>
   <circle cx="-129.91" cy="-17.256" r=".25"/>
   <circle cx="-122.57" cy="-19.642" r=".25"/>
   <circle cx="-115.36" cy="-21.68" r=".25"/>
   <circle cx="-164.66" cy="-.43398" r=".25"/>
   <circle cx="-156.92" cy="-2.7041" r=".25"/>
   <circle cx="-149.64" cy="-5.0905" r=".25"/>
   <circle cx="-142.07" cy="-7.186" r=".25"/>
   <circle cx="-134.68" cy="-9.4561" r=".25"/>
   <circle cx="-127.29" cy="-11.493" r=".25"/>
   <circle cx="-119.49" cy="-13.822" r=".25"/>
   <circle cx="-162.04" cy="5.3285" r=".25"/>
   <circle cx="-154.24" cy="3.2331" r=".25"/>
   <circle cx="-146.79" cy=".96298" r=".25"/>
   <circle cx="-139.11" cy="-1.4817" r=".25"/>
   <circle cx="-131.83" cy="-3.6936" r=".25"/>
   <circle cx="-124.26" cy="-5.9636" r=".25"/>
   <circle cx="-116.75" cy="-8.0591" r=".25"/>
   <circle cx="-109.42" cy="-10.155" r=".25"/>
   <circle cx="-112.33" cy="-15.742" r=".25"/>
   <circle cx="-159.3" cy="11.266" r=".25"/>
   <circle cx="-151.56" cy="8.8209" r=".25"/>
   <circle cx="-144" cy="6.7255" r=".25"/>
   <circle cx="-136.54" cy="4.4554" r=".25"/>
   <circle cx="-128.74" cy="2.0689" r=".25"/>
   <circle cx="-121.53" cy="-.31757" r=".25"/>
   <circle cx="-114.02" cy="-2.2966" r=".25"/>
   <circle cx="-106.45" cy="-4.5085" r=".25"/>
   <circle cx="-156.39" cy="16.795" r=".25"/>
   <circle cx="-148.88" cy="14.467" r=".25"/>
   <circle cx="-141.2" cy="11.964" r=".25"/>
   <circle cx="-133.63" cy="9.8104" r=".25"/>
   <circle cx="-125.89" cy="7.5986" r=".25"/>
   <circle cx="-118.44" cy="5.5031" r=".25"/>
   <circle cx="-111.11" cy="3.3495" r=".25"/>
   <circle cx="-103.72" cy="1.1376" r=".25"/>
   <circle cx="-107.91" cy="-23.775" r=".25"/>
   <circle cx="-105" cy="-18.187" r=".25"/>
   <circle cx="-102.32" cy="-12.134" r=".25"/>
   <circle cx="-99.292" cy="-6.5457" r=".25"/>
   <circle cx="-96.265" cy="-1.0743" r=".25"/>
   <circle cx="-88.699" cy="-3.4025" r=".25"/>
   <circle cx="-91.609" cy="-9.3396" r=".25"/>
   <circle cx="-94.636" cy="-14.695" r=".25"/>
   <circle cx="-98.012" cy="-20.283" r=".25"/>
   <circle cx="-100.69" cy="-25.987" r=".25"/>
   <circle cx="-93.471" cy="-28.082" r=".25"/>
   <circle cx="-90.212" cy="-22.611" r=".25"/>
   <circle cx="-87.185" cy="-16.907" r=".25"/>
   <circle cx="-84.158" cy="-11.086" r=".25"/>
   <circle cx="-81.015" cy="-5.6144" r=".25"/>
   <circle cx="-85.788" cy="-30.178" r=".25"/>
   <circle cx="-82.878" cy="-24.823" r=".25"/>
   <circle cx="-79.851" cy="-18.653" r=".25"/>
   <circle cx="-76.824" cy="-13.298" r=".25"/>
   <circle cx="-73.681" cy="-7.5934" r=".25"/>
   <circle cx="-78.571" cy="-32.506" r=".25"/>
   <circle cx="-75.777" cy="-27.035" r=".25"/>
   <circle cx="-72.75" cy="-21.214" r=".25"/>
   <circle cx="-69.607" cy="-15.859" r=".25"/>
   <circle cx="-66.463" cy="-9.9217" r=".25"/>
   <circle cx="-71.257" cy="-34.334" r=".25"/>
   <circle cx="-68.458" cy="-28.736" r=".25"/>
   <circle cx="-65.33" cy="-23.139" r=".25"/>
   <circle cx="-62.531" cy="-17.706" r=".25"/>
   <circle cx="-59.403" cy="-12.108" r=".25"/>
   <circle cx="-64.177" cy="-36.474" r=".25"/>
   <circle cx="-61.214" cy="-30.876" r=".25"/>
   <circle cx="-58.086" cy="-25.279" r=".25"/>
   <circle cx="-55.287" cy="-19.681" r=".25"/>
   <circle cx="-52.159" cy="-14.084" r=".25"/>
   <circle cx="-56.934" cy="-38.779" r=".25"/>
   <circle cx="-53.641" cy="-33.346" r=".25"/>
   <circle cx="-50.842" cy="-27.419" r=".25"/>
   <circle cx="-47.879" cy="-21.986" r=".25"/>
   <circle cx="-44.586" cy="-16.059" r=".25"/>
   <circle cx="-37.671" cy="-18.693" r=".25"/>
   <circle cx="-40.635" cy="-24.62" r=".25"/>
   <circle cx="-43.269" cy="-29.724" r=".25"/>
   <circle cx="-46.726" cy="-35.322" r=".25"/>
   <circle cx="-49.854" cy="-41.248" r=".25"/>
   <circle cx="-30.026" cy="-20.865" r=".25"/>
   <circle cx="-33.169" cy="-26.569" r=".25"/>
   <circle cx="-36.196" cy="-32.04" r=".25"/>
   <circle cx="-39.572" cy="-37.512" r=".25"/>
   <circle cx="-32.354" cy="-39.957" r=".25"/>
   <circle cx="-29.327" cy="-34.369" r=".25"/>
   <circle cx="-26.184" cy="-28.664" r=".25"/>
   <circle cx="-22.925" cy="-23.076" r=".25"/>
   <circle cx="-15.591" cy="-25.754" r=".25"/>
   <circle cx="-18.734" cy="-30.993" r=".25"/>
   <circle cx="-21.877" cy="-36.231" r=".25"/>
   <circle cx="-25.369" cy="-41.936" r=".25"/>
   <circle cx="-17.919" cy="-44.031" r=".25"/>
   <circle cx="-15.241" cy="-38.56" r=".25"/>
   <circle cx="-11.865" cy="-32.972" r=".25"/>
   <circle cx="-8.8386" cy="-27.733" r=".25"/>
   <circle cx="-1.5045" cy="-29.828" r=".25"/>
   <circle cx="-4.6477" cy="-35.416" r=".25"/>
   <circle cx="-7.7908" cy="-40.771" r=".25"/>
   <circle cx="-11.05" cy="-45.894" r=".25"/>
   <circle cx="-3.8328" cy="-48.105" r=".25"/>
   <circle cx="-.92242" cy="-42.867" r=".25"/>
   <circle cx="2.4536" cy="-37.279" r=".25"/>
   <circle cx="5.7131" cy="-32.04" r=".25"/>
   <circle cx="12.814" cy="-34.369" r=".25"/>
   <circle cx="9.6712" cy="-39.607" r=".25"/>
   <circle cx="6.1788" cy="-45.079" r=".25"/>
   <circle cx="2.9193" cy="-50.55" r=".25"/>
   <circle cx="10.02" cy="-52.762" r=".25"/>
   <circle cx="13.396" cy="-47.291" r=".25"/>
   <circle cx="16.54" cy="-41.936" r=".25"/>
   <circle cx="19.799" cy="-36.115" r=".25"/>
   <circle cx="26.784" cy="-38.792" r=".25"/>
   <circle cx="23.641" cy="-43.915" r=".25"/>
   <circle cx="20.149" cy="-49.27" r=".25"/>
   <circle cx="17.122" cy="-54.625" r=".25"/>
   <circle cx="24.223" cy="-56.72" r=".25"/>
   <circle cx="27.25" cy="-51.365" r=".25"/>
   <circle cx="30.626" cy="-46.01" r=".25"/>
   <circle cx="33.885" cy="-40.771" r=".25"/>
   <circle cx="40.987" cy="-42.75" r=".25"/>
   <circle cx="37.611" cy="-48.105" r=".25"/>
   <circle cx="34.351" cy="-53.344" r=".25"/>
   <circle cx="30.626" cy="-58.699" r=".25"/>
   <circle cx="37.96" cy="-60.911" r=".25"/>
   <circle cx="41.219" cy="-55.44" r=".25"/>
   <circle cx="44.595" cy="-50.085" r=".25"/>
   <circle cx="47.971" cy="-44.729" r=".25"/>
   <circle cx="-42.599" cy="-43.1" r=".25"/>
   <circle cx="-35.265" cy="-45.428" r=".25"/>
   <circle cx="-28.28" cy="-47.407" r=".25"/>
   <circle cx="-21.178" cy="-49.27" r=".25"/>
   <circle cx="-14.194" cy="-51.365" r=".25"/>
   <circle cx="-7.2088" cy="-53.693" r=".25"/>
   <circle cx="-.22393" cy="-55.789" r=".25"/>
   <circle cx="6.6445" cy="-58.001" r=".25"/>
   <circle cx="13.979" cy="-60.329" r=".25"/>
   <circle cx="21.196" cy="-62.192" r=".25"/>
   <circle cx="27.715" cy="-64.287" r=".25"/>
   <circle cx="34.817" cy="-66.15" r=".25"/>
   <circle cx="31.441" cy="-71.854" r=".25"/>
   <circle cx="24.805" cy="-69.758" r=".25"/>
   <circle cx="17.238" cy="-67.43" r=".25"/>
   <circle cx="10.486" cy="-65.335" r=".25"/>
   <circle cx="3.5013" cy="-63.239" r=".25"/>
   <circle cx="-3.4835" cy="-61.26" r=".25"/>
   <circle cx="-10.468" cy="-58.932" r=".25"/>
   <circle cx="-17.337" cy="-56.837" r=".25"/>
   <circle cx="-24.089" cy="-54.974" r=".25"/>
   <circle cx="-31.306" cy="-52.878" r=".25"/>
   <circle cx="-38.524" cy="-50.667" r=".25"/>
   <circle cx="-45.742" cy="-48.688" r=".25"/>
   <circle cx="-48.885" cy="-54.275" r=".25"/>
   <circle cx="-41.784" cy="-56.371" r=".25"/>
   <circle cx="-34.45" cy="-58.583" r=".25"/>
   <circle cx="-27.814" cy="-60.445" r=".25"/>
   <circle cx="-20.48" cy="-62.424" r=".25"/>
   <circle cx="-13.495" cy="-64.403" r=".25"/>
   <circle cx="-6.5103" cy="-66.499" r=".25"/>
   <circle cx=".59095" cy="-68.711" r=".25"/>
   <circle cx="7.4594" cy="-70.69" r=".25"/>
   <circle cx="14.328" cy="-72.552" r=".25"/>
   <circle cx="21.429" cy="-74.531" r=".25"/>
   <circle cx="28.181" cy="-76.743" r=".25"/>
   <circle cx="24.921" cy="-81.982" r=".25"/>
   <circle cx="18.053" cy="-79.886" r=".25"/>
   <circle cx="11.185" cy="-77.791" r=".25"/>
   <circle cx="4.1998" cy="-75.812" r=".25"/>
   <circle cx="-2.9015" cy="-73.833" r=".25"/>
   <circle cx="-9.4207" cy="-71.854" r=".25"/>
   <circle cx="-16.755" cy="-69.642" r=".25"/>
   <circle cx="-23.507" cy="-67.547" r=".25"/>
   <circle cx="-30.608" cy="-65.335" r=".25"/>
   <circle cx="-37.709" cy="-63.589" r=".25"/>
   <circle cx="-44.927" cy="-61.493" r=".25"/>
   <circle cx="-51.795" cy="-59.398" r=".25"/>
   <circle cx="-54.938" cy="-64.753" r=".25"/>
   <circle cx="-47.604" cy="-66.965" r=".25"/>
   <circle cx="-40.387" cy="-68.944" r=".25"/>
   <circle cx="-33.751" cy="-70.806" r=".25"/>
   <circle cx="-26.534" cy="-72.785" r=".25"/>
   <circle cx="-19.898" cy="-74.997" r=".25"/>
   <circle cx="-12.797" cy="-76.976" r=".25"/>
   <circle cx="-5.9282" cy="-79.304" r=".25"/>
   <circle cx="1.2894" cy="-81.167" r=".25"/>
   <circle cx="8.0414" cy="-83.262" r=".25"/>
   <circle cx="14.677" cy="-84.892" r=".25"/>
   <circle cx="21.895" cy="-87.104" r=".25"/>
   <circle cx="-69.257" cy="-91.411" r=".25"/>
   <circle cx="-66.463" cy="-86.173" r=".25"/>
   <circle cx="-63.553" cy="-80.934" r=".25"/>
   <circle cx="-60.526" cy="-75.579" r=".25"/>
   <circle cx="-57.732" cy="-70.108" r=".25"/>
   <circle cx="-50.398" cy="-72.203" r=".25"/>
   <circle cx="-53.658" cy="-77.558" r=".25"/>
   <circle cx="-56.568" cy="-83.03" r=".25"/>
   <circle cx="-59.595" cy="-88.035" r=".25"/>
   <circle cx="-62.156" cy="-93.623" r=".25"/>
   <circle cx="-55.521" cy="-95.602" r=".25"/>
   <circle cx="-52.377" cy="-90.131" r=".25"/>
   <circle cx="-49.7" cy="-84.776" r=".25"/>
   <circle cx="-46.44" cy="-79.537" r=".25"/>
   <circle cx="-43.646" cy="-74.066" r=".25"/>
   <circle cx="-36.545" cy="-76.161" r=".25"/>
   <circle cx="-39.572" cy="-81.516" r=".25"/>
   <circle cx="-42.599" cy="-86.871" r=".25"/>
   <circle cx="-45.509" cy="-91.994" r=".25"/>
   <circle cx="-48.536" cy="-97.116" r=".25"/>
   <circle cx="-41.667" cy="-99.328" r=".25"/>
   <circle cx="-38.641" cy="-94.205" r=".25"/>
   <circle cx="-35.73" cy="-88.618" r=".25"/>
   <circle cx="-32.703" cy="-83.612" r=".25"/>
   <circle cx="-29.56" cy="-78.024" r=".25"/>
   <circle cx="-22.808" cy="-80.003" r=".25"/>
   <circle cx="-25.602" cy="-85.474" r=".25"/>
   <circle cx="-28.745" cy="-90.597" r=".25"/>
   <circle cx="-31.889" cy="-95.835" r=".25"/>
   <circle cx="-34.682" cy="-101.19" r=".25"/>
   <circle cx="-27.698" cy="-103.17" r=".25"/>
   <circle cx="-24.904" cy="-97.814" r=".25"/>
   <circle cx="-21.993" cy="-92.576" r=".25"/>
   <circle cx="-18.85" cy="-87.453" r=".25"/>
   <circle cx="-15.707" cy="-81.982" r=".25"/>
   <circle cx="-8.8386" cy="-84.077" r=".25"/>
   <circle cx="-11.865" cy="-89.432" r=".25"/>
   <circle cx="-14.892" cy="-94.671" r=".25"/>
   <circle cx="-17.919" cy="-99.793" r=".25"/>
   <circle cx="-20.829" cy="-105.03" r=".25"/>
   <circle cx="-14.194" cy="-107.13" r=".25"/>
   <circle cx="-11.167" cy="-101.66" r=".25"/>
   <circle cx="-8.0237" cy="-96.534" r=".25"/>
   <circle cx="-5.1133" cy="-91.295" r=".25"/>
   <circle cx="-1.9702" cy="-85.94" r=".25"/>
   <circle cx="4.8983" cy="-88.268" r=".25"/>
   <circle cx="1.7551" cy="-93.274" r=".25"/>
   <circle cx="-1.2717" cy="-98.629" r=".25"/>
   <circle cx="-4.4149" cy="-103.87" r=".25"/>
   <circle cx="-7.4416" cy="-108.87" r=".25"/>
   <circle cx="-.80603" cy="-110.85" r=".25"/>
   <circle cx="2.3372" cy="-105.73" r=".25"/>
   <circle cx="5.3639" cy="-100.61" r=".25"/>
   <circle cx="8.5071" cy="-95.37" r=".25"/>
   <circle cx="11.65" cy="-90.247" r=".25"/>
   <circle cx="54.84" cy="-46.941" r=".25"/>
   <circle cx="51.464" cy="-52.18" r=".25"/>
   <circle cx="48.088" cy="-57.419" r=".25"/>
   <circle cx="44.712" cy="-62.89" r=".25"/>
   <circle cx="41.685" cy="-68.012" r=".25"/>
   <circle cx="38.309" cy="-73.251" r=".25"/>
   <circle cx="34.933" cy="-78.722" r=".25"/>
   <circle cx="31.79" cy="-83.728" r=".25"/>
   <circle cx="28.53" cy="-88.967" r=".25"/>
   <circle cx="25.387" cy="-93.973" r=".25"/>
   <circle cx="22.36" cy="-99.211" r=".25"/>
   <circle cx="18.984" cy="-104.33" r=".25"/>
   <circle cx="15.841" cy="-109.57" r=".25"/>
   <circle cx="12.814" cy="-114.81" r=".25"/>
   <circle cx="18.635" cy="-92.11" r=".25"/>
   <circle cx="15.608" cy="-97.349" r=".25"/>
   <circle cx="12.349" cy="-102.47" r=".25"/>
   <circle cx="8.9728" cy="-107.71" r=".25"/>
   <circle cx="6.0624" cy="-112.98" r=".25"/>
   <circle cx="19.566" cy="-116.76" r=".25"/>
   <circle cx="22.593" cy="-111.73" r=".25"/>
   <circle cx="29.374" cy="-113.65" r=".25"/>
   <circle cx="26.086" cy="-118.62" r=".25"/>
   <circle cx="25.649" cy="-106.49" r=".25"/>
   <circle cx="28.734" cy="-101.39" r=".25"/>
   <circle cx="32.517" cy="-108.5" r=".25"/>
   <circle cx="35.719" cy="-103.2" r=".25"/>
   <circle cx="42.238" cy="-105.29" r=".25"/>
   <circle cx="39.124" cy="-110.3" r=".25"/>
   <circle cx="35.952" cy="-115.45" r=".25"/>
   <circle cx="32.75" cy="-120.57" r=".25"/>
   <circle cx="39.357" cy="-122.44" r=".25"/>
   <circle cx="42.529" cy="-117.34" r=".25"/>
   <circle cx="45.847" cy="-112.25" r=".25"/>
   <circle cx="48.961" cy="-107.16" r=".25"/>
   <circle cx="45.469" cy="-100.03" r=".25"/>
   <circle cx="45.992" cy="-124.18" r=".25"/>
   <circle cx="49.194" cy="-119.06" r=".25"/>
   <circle cx="52.366" cy="-114.05" r=".25"/>
   <circle cx="55.596" cy="-108.99" r=".25"/>
   <circle cx="62.319" cy="-110.94" r=".25"/>
   <circle cx="59.089" cy="-116.03" r=".25"/>
   <circle cx="55.829" cy="-121.07" r=".25"/>
   <circle cx="52.599" cy="-126.1" r=".25"/>
   <circle cx="68.926" cy="-112.83" r=".25"/>
   <circle cx="65.666" cy="-117.95" r=".25"/>
   <circle cx="62.407" cy="-122.99" r=".25"/>
   <circle cx="59.264" cy="-128.02" r=".25"/>
   <circle cx="65.754" cy="-129.97" r=".25"/>
   <circle cx="69.042" cy="-125" r=".25"/>
   <circle cx="72.215" cy="-119.87" r=".25"/>
   <circle cx="75.445" cy="-114.87" r=".25"/>
   <circle cx="32.092" cy="-96.236" r=".25"/>
   <circle cx="38.842" cy="-98.171" r=".25"/>
   <circle cx="52.219" cy="-101.96" r=".25"/>
   <circle cx="58.887" cy="-104.02" r=".25"/>
   <circle cx="65.595" cy="-105.83" r=".25"/>
   <circle cx="72.14" cy="-107.76" r=".25"/>
   <circle cx="78.931" cy="-109.7" r=".25"/>
   <circle cx="82.018" cy="-104.63" r=".25"/>
   <circle cx="85.475" cy="-99.57" r=".25"/>
   <circle cx="88.727" cy="-94.59" r=".25"/>
   <circle cx="92.143" cy="-89.486" r=".25"/>
   <circle cx="85.516" cy="-87.222" r=".25"/>
   <circle cx="82.182" cy="-92.532" r=".25"/>
   <circle cx="78.807" cy="-97.718" r=".25"/>
   <circle cx="75.432" cy="-102.78" r=".25"/>
   <circle cx="68.765" cy="-100.8" r=".25"/>
   <circle cx="72.222" cy="-95.742" r=".25"/>
   <circle cx="75.432" cy="-90.515" r=".25"/>
   <circle cx="78.807" cy="-85.288" r=".25"/>
   <circle cx="72.181" cy="-83.312" r=".25"/>
   <circle cx="65.39" cy="-81.296" r=".25"/>
   <circle cx="68.765" cy="-88.581" r=".25"/>
   <circle cx="65.431" cy="-93.726" r=".25"/>
   <circle cx="62.179" cy="-98.829" r=".25"/>
   <circle cx="55.512" cy="-96.854" r=".25"/>
   <circle cx="58.804" cy="-91.791" r=".25"/>
   <circle cx="62.097" cy="-86.564" r=".25"/>
   <circle cx="55.347" cy="-84.629" r=".25"/>
   <circle cx="52.054" cy="-89.774" r=".25"/>
   <circle cx="48.762" cy="-95.043" r=".25"/>
   <circle cx="58.64" cy="-79.361" r=".25"/>
   <circle cx="51.848" cy="-77.427" r=".25"/>
   <circle cx="44.975" cy="-75.369" r=".25"/>
   <circle cx="41.806" cy="-80.761" r=".25"/>
   <circle cx="48.556" cy="-82.654" r=".25"/>
   <circle cx="45.304" cy="-87.84" r=".25"/>
   <circle cx="42.012" cy="-92.985" r=".25"/>
   <circle cx="35.22" cy="-91.091" r=".25"/>
   <circle cx="38.513" cy="-85.947" r=".25"/>
   <circle cx="48.309" cy="-70.142" r=".25"/>
   <circle cx="51.643" cy="-64.873" r=".25"/>
   <circle cx="58.516" cy="-67.014" r=".25"/>
   <circle cx="55.141" cy="-72.323" r=".25"/>
   <circle cx="61.685" cy="-74.34" r=".25"/>
   <circle cx="65.39" cy="-69.113" r=".25"/>
   <circle cx="72.057" cy="-71.047" r=".25"/>
   <circle cx="68.723" cy="-76.192" r=".25"/>
   <circle cx="75.35" cy="-78.209" r=".25"/>
   <circle cx="78.766" cy="-72.899" r=".25"/>
   <circle cx="82.182" cy="-80.267" r=".25"/>
   <circle cx="85.598" cy="-74.916" r=".25"/>
   <circle cx="92.348" cy="-77.015" r=".25"/>
   <circle cx="88.809" cy="-82.119" r=".25"/>
   <circle cx="95.477" cy="-84.177" r=".25"/>
   <circle cx="98.934" cy="-79.032" r=".25"/>
   <circle cx="102.39" cy="-73.722" r=".25"/>
   <circle cx="95.682" cy="-71.788" r=".25"/>
   <circle cx="99.181" cy="-66.437" r=".25"/>
   <circle cx="105.97" cy="-68.536" r=".25"/>
   <circle cx="109.59" cy="-63.433" r=".25"/>
   <circle cx="102.51" cy="-61.293" r=".25"/>
   <circle cx="106.18" cy="-56.312" r=".25"/>
   <circle cx="112.97" cy="-58.535" r=".25"/>
   <circle cx="116.67" cy="-53.349" r=".25"/>
   <circle cx="109.84" cy="-51.209" r=".25"/>
   <circle cx="103.01" cy="-49.027" r=".25"/>
   <circle cx="99.469" cy="-54.296" r=".25"/>
   <circle cx="96.012" cy="-59.358" r=".25"/>
   <circle cx="92.472" cy="-64.791" r=".25"/>
   <circle cx="89.097" cy="-69.812" r=".25"/>
   <circle cx="82.141" cy="-67.796" r=".25"/>
   <circle cx="85.64" cy="-62.404" r=".25"/>
   <circle cx="89.097" cy="-57.3" r=".25"/>
   <circle cx="92.719" cy="-52.073" r=".25"/>
   <circle cx="85.969" cy="-49.851" r=".25"/>
   <circle cx="82.306" cy="-55.407" r=".25"/>
   <circle cx="78.931" cy="-60.469" r=".25"/>
   <circle cx="75.391" cy="-65.861" r=".25"/>
   <circle cx="68.559" cy="-63.844" r=".25"/>
   <circle cx="72.057" cy="-58.576" r=".25"/>
   <circle cx="75.432" cy="-53.061" r=".25"/>
   <circle cx="78.56" cy="-47.957" r=".25"/>
   <circle cx="61.932" cy="-61.663" r=".25"/>
   <circle cx="54.894" cy="-59.605" r=".25"/>
   <circle cx="58.393" cy="-54.419" r=".25"/>
   <circle cx="61.809" cy="-48.986" r=".25"/>
   <circle cx="65.307" cy="-56.354" r=".25"/>
   <circle cx="68.682" cy="-51.044" r=".25"/>
   <circle cx="72.222" cy="-45.735" r=".25"/>
   <circle cx="65.225" cy="-43.594" r=".25"/>
   <circle cx="58.146" cy="-41.536" r=".25"/>
   <circle cx="51.19" cy="-39.561" r=".25"/>
   <circle cx="54.606" cy="-34.21" r=".25"/>
   <circle cx="58.022" cy="-28.654" r=".25"/>
   <circle cx="64.978" cy="-30.918" r=".25"/>
   <circle cx="61.562" cy="-36.474" r=".25"/>
   <circle cx="68.518" cy="-38.655" r=".25"/>
   <circle cx="72.14" cy="-33.181" r=".25"/>
   <circle cx="79.013" cy="-35.28" r=".25"/>
   <circle cx="75.556" cy="-40.549" r=".25"/>
   <circle cx="82.265" cy="-42.648" r=".25"/>
   <circle cx="86.01" cy="-37.503" r=".25"/>
   <circle cx="92.884" cy="-39.52" r=".25"/>
   <circle cx="89.426" cy="-44.87" r=".25"/>
   <circle cx="96.176" cy="-46.969" r=".25"/>
   <circle cx="99.798" cy="-41.578" r=".25"/>
   <circle cx="106.55" cy="-43.841" r=".25"/>
   <circle cx="113.38" cy="-45.94" r=".25"/>
   <circle cx="120.09" cy="-48.163" r=".25"/>
   <circle cx="123.83" cy="-42.895" r=".25"/>
   <circle cx="117" cy="-40.631" r=".25"/>
   <circle cx="110.13" cy="-38.408" r=".25"/>
   <circle cx="103.21" cy="-36.309" r=".25"/>
   <circle cx="96.176" cy="-34.21" r=".25"/>
   <circle cx="100.05" cy="-28.654" r=".25"/>
   <circle cx="106.8" cy="-30.835" r=".25"/>
   <circle cx="113.79" cy="-33.14" r=".25"/>
   <circle cx="120.5" cy="-35.445" r=".25"/>
   <circle cx="127.58" cy="-37.668" r=".25"/>
   <circle cx="131.08" cy="-32.235" r=".25"/>
   <circle cx="124.21" cy="-29.889" r=".25"/>
   <circle cx="117.25" cy="-27.707" r=".25"/>
   <circle cx="110.29" cy="-25.485" r=".25"/>
   <circle cx="103.38" cy="-23.18" r=".25"/>
   <circle cx="134.87" cy="-26.843" r=".25"/>
   <circle cx="128.03" cy="-24.538" r=".25"/>
   <circle cx="121.04" cy="-22.151" r=".25"/>
   <circle cx="114.04" cy="-20.175" r=".25"/>
   <circle cx="106.71" cy="-17.706" r=".25"/>
   <circle cx="110.66" cy="-12.273" r=".25"/>
   <circle cx="118.15" cy="-14.578" r=".25"/>
   <circle cx="124.66" cy="-16.883" r=".25"/>
   <circle cx="131.65" cy="-19.187" r=".25"/>
   <circle cx="138.49" cy="-21.492" r=".25"/>
   <circle cx="103.75" cy="-10.215" r=".25"/>
   <circle cx="100.46" cy="-15.648" r=".25"/>
   <circle cx="96.67" cy="-21.163" r=".25"/>
   <circle cx="92.884" cy="-26.431" r=".25"/>
   <circle cx="89.673" cy="-32.193" r=".25"/>
   <circle cx="82.594" cy="-29.889" r=".25"/>
   <circle cx="86.051" cy="-24.373" r=".25"/>
   <circle cx="89.426" cy="-18.776" r=".25"/>
   <circle cx="93.237" cy="-13.421" r=".25"/>
   <circle cx="-67.191" cy="37.546" r=".25"/>
   <circle cx="-64.048" cy="43.716" r=".25"/>
   <circle cx="-74.612" cy="39.758" r=".25"/>
   <circle cx="96.752" cy="-7.91" r=".25"/>
   <circle cx="89.756" cy="-5.4405" r=".25"/>
   <circle cx="86.298" cy="-11.203" r=".25"/>
   <circle cx="82.676" cy="-16.883" r=".25"/>
   <circle cx="79.137" cy="-22.315" r=".25"/>
   <circle cx="75.597" cy="-27.995" r=".25"/>
   <circle cx="68.106" cy="-25.608" r=".25"/>
   <circle cx="71.975" cy="-20.011" r=".25"/>
   <circle cx="75.268" cy="-14.413" r=".25"/>
   <circle cx="79.219" cy="-8.8155" r=".25"/>
   <circle cx="82.676" cy="-3.0533" r=".25"/>
   <circle cx="61.438" cy="-23.221" r=".25"/>
   <circle cx="65.143" cy="-17.459" r=".25"/>
   <circle cx="68.682" cy="-11.943" r=".25"/>
   <circle cx="71.893" cy="-6.4283" r=".25"/>
   <circle cx="75.374" cy="-.60785" r=".25"/>
   <circle cx="47.527" cy="-32.029" r=".25"/>
   <circle cx="51.066" cy="-26.843" r=".25"/>
   <circle cx="54.441" cy="-20.998" r=".25"/>
   <circle cx="57.652" cy="-15.318" r=".25"/>
   <circle cx="61.603" cy="-9.227" r=".25"/>
   <circle cx="64.944" cy="-4.4626" r=".25"/>
   <circle cx="68.518" cy="1.3096" r=".25"/>
   <circle cx="61.332" cy="3.4257" r=".25"/>
   <circle cx="57.981" cy="-2.477" r=".25"/>
   <circle cx="54.359" cy="-7.8277" r=".25"/>
   <circle cx="50.902" cy="-13.261" r=".25"/>
   <circle cx="47.445" cy="-19.023" r=".25"/>
   <circle cx="44.07" cy="-24.456" r=".25"/>
   <circle cx="40.695" cy="-29.806" r=".25"/>
   <circle cx="44.234" cy="-37.462" r=".25"/>
   <circle cx="37.32" cy="-35.404" r=".25"/>
   <circle cx="30.158" cy="-33.099" r=".25"/>
   <circle cx="33.368" cy="-27.584" r=".25"/>
   <circle cx="36.99" cy="-22.233" r=".25"/>
   <circle cx="40.448" cy="-16.636" r=".25"/>
   <circle cx="43.74" cy="-11.038" r=".25"/>
   <circle cx="47.198" cy="-5.5228" r=".25"/>
   <circle cx="50.466" cy="-.075728" r=".25"/>
   <circle cx="54.126" cy="5.5701" r=".25"/>
   <circle cx="22.996" cy="-31.041" r=".25"/>
   <circle cx="15.999" cy="-28.901" r=".25"/>
   <circle cx="8.9201" cy="-26.514" r=".25"/>
   <circle cx="1.5939" cy="-24.373" r=".25"/>
   <circle cx="5.2982" cy="-18.693" r=".25"/>
   <circle cx="12.377" cy="-21.081" r=".25"/>
   <circle cx="19.292" cy="-23.386" r=".25"/>
   <circle cx="26.454" cy="-25.773" r=".25"/>
   <circle cx="29.829" cy="-20.011" r=".25"/>
   <circle cx="22.667" cy="-17.953" r=".25"/>
   <circle cx="15.505" cy="-15.483" r=".25"/>
   <circle cx="8.1793" cy="-13.261" r=".25"/>
   <circle cx="11.554" cy="-7.7453" r=".25"/>
   <circle cx="18.798" cy="-10.297" r=".25"/>
   <circle cx="26.124" cy="-12.602" r=".25"/>
   <circle cx="33.286" cy="-14.66" r=".25"/>
   <circle cx="36.743" cy="-8.8155" r=".25"/>
   <circle cx="29.335" cy="-6.6752" r=".25"/>
   <circle cx="22.009" cy="-4.4527" r=".25"/>
   <circle cx="14.929" cy="-2.0654" r=".25"/>
   <circle cx="17.81" cy="3.4498" r=".25"/>
   <circle cx="25.548" cy=".98029" r=".25"/>
   <circle cx="32.957" cy="-1.3246" r=".25"/>
   <circle cx="39.789" cy="-3.5472" r=".25"/>
   <circle cx="43.658" cy="2.1327" r=".25"/>
   <circle cx="47.222" cy="7.7003" r=".25"/>
   <circle cx="39.741" cy="10.17" r=".25"/>
   <circle cx="36.249" cy="4.3553" r=".25"/>
   <circle cx="28.923" cy="6.5778" r=".25"/>
   <circle cx="32.483" cy="12.436" r=".25"/>
   <circle cx="24.56" cy="14.645" r=".25"/>
   <circle cx="21.432" cy="8.7181" r=".25"/>
   <circle cx="-5.3462" cy="-22.029" r=".25"/>
   <circle cx="-2.0865" cy="-16.557" r=".25"/>
   <circle cx="1.4058" cy="-10.853" r=".25"/>
   <circle cx="4.6654" cy="-5.7308" r=".25"/>
   <circle cx="8.1578" cy=".32271" r=".25"/>
   <circle cx="11.185" cy="6.027" r=".25"/>
   <circle cx="13.862" cy="11.382" r=".25"/>
   <circle cx="17.355" cy="17.203" r=".25"/>
   <circle cx="-153.54" cy="22.907" r=".25"/>
   <circle cx="-145.97" cy="20.579" r=".25"/>
   <circle cx="-138.52" cy="18.25" r=".25"/>
   <circle cx="-130.61" cy="15.922" r=".25"/>
   <circle cx="-123.27" cy="13.594" r=".25"/>
   <circle cx="-115.59" cy="11.266" r=".25"/>
   <circle cx="-108.26" cy="9.0538" r=".25"/>
   <circle cx="-100.57" cy="6.7255" r=".25"/>
   <circle cx="-93.006" cy="4.5136" r=".25"/>
   <circle cx="-85.788" cy="2.3017" r=".25"/>
   <circle cx="-78.454" cy="-.14294" r=".25"/>
   <circle cx="-70.654" cy="-2.122" r=".25"/>
   <circle cx="-63.437" cy="-4.4503" r=".25"/>
   <circle cx="-55.986" cy="-7.1278" r=".25"/>
   <circle cx="-49.001" cy="-9.3397" r=".25"/>
   <circle cx="-41.551" cy="-11.319" r=".25"/>
   <circle cx="-33.751" cy="-13.647" r=".25"/>
   <circle cx="-26.766" cy="-15.626" r=".25"/>
   <circle cx="-19.549" cy="-17.954" r=".25"/>
   <circle cx="-12.331" cy="-20.166" r=".25"/>
   <circle cx="-9.0714" cy="-14.695" r=".25"/>
   <circle cx="-16.289" cy="-12.134" r=".25"/>
   <circle cx="-24.089" cy="-10.271" r=".25"/>
   <circle cx="-20.829" cy="-4.4503" r=".25"/>
   <circle cx="-13.262" cy="-6.6621" r=".25"/>
   <circle cx="-5.9282" cy="-9.1068" r=".25"/>
   <circle cx="-2.5522" cy="-3.2861" r=".25"/>
   <circle cx="-10.003" cy="-1.1907" r=".25"/>
   <circle cx="-17.57" cy=".78836" r=".25"/>
   <circle cx="-14.31" cy="6.4926" r=".25"/>
   <circle cx="-6.2775" cy="4.63" r=".25"/>
   <circle cx=".94019" cy="1.7197" r=".25"/>
   <circle cx="4.6654" cy="7.424" r=".25"/>
   <circle cx="-3.6" cy="9.9851" r=".25"/>
   <circle cx="-11.001" cy="12.258" r=".25"/>
   <circle cx="-7.5034" cy="17.731" r=".25"/>
   <circle cx="-4.086" cy="23.617" r=".25"/>
   <circle cx="3.1579" cy="21.642" r=".25"/>
   <circle cx="10.813" cy="19.255" r=".25"/>
   <circle cx="7.2738" cy="13.328" r=".25"/>
   <circle cx="-.38171" cy="15.221" r=".25"/>
   <circle cx="-11.083" cy="25.84" r=".25"/>
   <circle cx="-14.613" cy="20.194" r=".25"/>
   <circle cx="-18.162" cy="14.233" r=".25"/>
   <circle cx="-21.455" cy="8.6358" r=".25"/>
   <circle cx="-24.583" cy="2.8736" r=".25"/>
   <circle cx="-27.876" cy="-2.6417" r=".25"/>
   <circle cx="-31.086" cy="-8.2392" r=".25"/>
   <circle cx="-38.412" cy="-5.6051" r=".25"/>
   <circle cx="-35.12" cy="-.25448" r=".25"/>
   <circle cx="-31.991" cy="5.2608" r=".25"/>
   <circle cx="-28.781" cy="11.27" r=".25"/>
   <circle cx="-25.241" cy="16.703" r=".25"/>
   <circle cx="-22.031" cy="22.543" r=".25"/>
   <circle cx="-18.491" cy="28.227" r=".25"/>
   <circle cx="-45.625" cy="-3.1697" r=".25"/>
   <circle cx="-42.599" cy="2.4182" r=".25"/>
   <circle cx="-39.223" cy="7.8896" r=".25"/>
   <circle cx="-36.312" cy="13.477" r=".25"/>
   <circle cx="-33.402" cy="19.415" r=".25"/>
   <circle cx="-30.375" cy="25.41" r=".25"/>
   <circle cx="-27.581" cy="30.823" r=".25"/>
   <circle cx="-53.076" cy="-.84144" r=".25"/>
   <circle cx="-49.933" cy="4.7464" r=".25"/>
   <circle cx="-46.673" cy="10.451" r=".25"/>
   <circle cx="-43.763" cy="15.922" r=".25"/>
   <circle cx="-40.27" cy="22.558" r=".25"/>
   <circle cx="-37.36" cy="27.913" r=".25"/>
   <circle cx="-34.566" cy="33.501" r=".25"/>
   <circle cx="-50.748" cy="18.134" r=".25"/>
   <circle cx="-47.255" cy="24.304" r=".25"/>
   <circle cx="-44.054" cy="29.775" r=".25"/>
   <circle cx="-41.318" cy="35.945" r=".25"/>
   <circle cx="-53.805" cy="12.505" r=".25"/>
   <circle cx="-57.016" cy="7.0717" r=".25"/>
   <circle cx="-60.391" cy="1.2272" r=".25"/>
   <circle cx="-67.964" cy="3.5321" r=".25"/>
   <circle cx="-64.507" cy="9.2943" r=".25"/>
   <circle cx="-61.543" cy="14.892" r=".25"/>
   <circle cx="-58.251" cy="20.572" r=".25"/>
   <circle cx="-55.123" cy="26.992" r=".25"/>
   <circle cx="-51.878" cy="32.56" r=".25"/>
   <circle cx="-49.36" cy="38.521" r=".25"/>
   <circle cx="-75.126" cy="5.837" r=".25"/>
   <circle cx="-71.751" cy="11.764" r=".25"/>
   <circle cx="-69.034" cy="17.197" r=".25"/>
   <circle cx="-66.071" cy="22.959" r=".25"/>
   <circle cx="-62.87" cy="29.103" r=".25"/>
   <circle cx="-60.047" cy="35.218" r=".25"/>
   <circle cx="-56.934" cy="41.426" r=".25"/>
   <circle cx="-150.51" cy="28.844" r=".25"/>
   <circle cx="-142.95" cy="26.399" r=".25"/>
   <circle cx="-135.38" cy="24.304" r=".25"/>
   <circle cx="-127.93" cy="21.976" r=".25"/>
   <circle cx="-120.25" cy="19.647" r=".25"/>
   <circle cx="-112.68" cy="16.97" r=".25"/>
   <circle cx="-105.35" cy="14.642" r=".25"/>
   <circle cx="-97.662" cy="12.546" r=".25"/>
   <circle cx="-90.096" cy="10.218" r=".25"/>
   <circle cx="-82.994" cy="7.6568" r=".25"/>
   <circle cx="-79.502" cy="13.71" r=".25"/>
   <circle cx="-87.418" cy="16.039" r=".25"/>
   <circle cx="-94.519" cy="18.483" r=".25"/>
   <circle cx="-102.2" cy="20.928" r=".25"/>
   <circle cx="-109.77" cy="23.14" r=".25"/>
   <circle cx="-117.1" cy="25.119" r=".25"/>
   <circle cx="-125.02" cy="27.913" r=".25"/>
   <circle cx="-132.82" cy="30.008" r=".25"/>
   <circle cx="-140.15" cy="32.22" r=".25"/>
   <circle cx="-147.6" cy="34.665" r=".25"/>
   <circle cx="-144.34" cy="40.486" r=".25"/>
   <circle cx="-137.13" cy="38.39" r=".25"/>
   <circle cx="-129.68" cy="35.713" r=".25"/>
   <circle cx="-121.76" cy="33.501" r=".25"/>
   <circle cx="-114.08" cy="31.056" r=".25"/>
   <circle cx="-106.98" cy="28.961" r=".25"/>
   <circle cx="-99.059" cy="26.516" r=".25"/>
   <circle cx="-91.725" cy="24.071" r=".25"/>
   <circle cx="-84.042" cy="21.626" r=".25"/>
   <circle cx="-76.359" cy="19.531" r=".25"/>
   <circle cx="-73.448" cy="25.235" r=".25"/>
   <circle cx="-81.364" cy="27.796" r=".25"/>
   <circle cx="-88.815" cy="30.008" r=".25"/>
   <circle cx="-97.197" cy="32.337" r=".25"/>
   <circle cx="-104.65" cy="34.548" r=".25"/>
   <circle cx="-111.52" cy="36.877" r=".25"/>
   <circle cx="-119.2" cy="39.671" r=".25"/>
   <circle cx="-126.65" cy="41.999" r=".25"/>
   <circle cx="-134.91" cy="44.211" r=".25"/>
   <circle cx="-142.02" cy="46.19" r=".25"/>
   <circle cx="-139.37" cy="52.429" r=".25"/>
   <circle cx="-131.66" cy="50.148" r=".25"/>
   <circle cx="-124.01" cy="47.744" r=".25"/>
   <circle cx="-116.57" cy="45.355" r=".25"/>
   <circle cx="-108.69" cy="42.814" r=".25"/>
   <circle cx="-101.63" cy="40.664" r=".25"/>
   <circle cx="-93.951" cy="38.343" r=".25"/>
   <circle cx="-86.021" cy="35.85" r=".25"/>
   <circle cx="-78.282" cy="33.721" r=".25"/>
   <circle cx="-70.45" cy="31.426" r=".25"/>
   <circle cx="-71.236" cy="46.102" r=".25"/>
   <circle cx="-82.645" cy="41.941" r=".25"/>
   <circle cx="-79.094" cy="48.518" r=".25"/>
   <circle cx="-90.154" cy="44.153" r=".25"/>
   <circle cx="-87.185" cy="50.672" r=".25"/>
   <circle cx="-98.361" cy="46.597" r=".25"/>
   <circle cx="-95.159" cy="53.175" r=".25"/>
   <circle cx="-105.52" cy="49.158" r=".25"/>
   <circle cx="-102.67" cy="55.037" r=".25"/>
   <circle cx="-113.2" cy="51.196" r=".25"/>
   <circle cx="-110" cy="57.074" r=".25"/>
   <circle cx="-120.6" cy="53.582" r=".25"/>
   <circle cx="-117.34" cy="59.519" r=".25"/>
   <circle cx="-128.1" cy="55.91" r=".25"/>
   <circle cx="-125.14" cy="61.789" r=".25"/>
   <circle cx="-135.9" cy="58.239" r=".25"/>
   <circle cx="-132.94" cy="64.059" r=".25"/>
  </g>
 </g>
</svg>
