<svg width="928" height="619" version="1.1" viewBox="0 0 464 309.5" xmlns="http://www.w3.org/2000/svg">
 <g transform="translate(229.14 50.139)" fill="none" stroke="#000" stroke-linecap="round">
  <g stroke-width=".26458">
   <path d="m-118.18 39.752 66.841 144.55"/>
   <path d="m-107.64 36.788 66.512 144.22"/>
   <path d="m-97.763 33.825 66.841 143.56"/>
   <path d="m-87.555 30.861 67.171 143.56"/>
   <path d="m-77.348 27.898 67.5 142.9"/>
   <path d="m-67.47 25.264 67.829 141.91"/>
   <path d="m-56.934 21.971 68.817 141.91"/>
   <path d="m-46.397 19.337 69.476 140.6"/>
   <path d="m-35.202 16.044c0.32927 1.3171 70.463 140.27 70.463 140.27"/>
   <path d="m-24.665 13.081 71.122 139.28"/>
   <path d="m-14.787 10.117 71.78 138.62"/>
   <path d="m-4.2506 7.4833 72.439 137.96"/>
   <path d="m6.286 4.1907 73.427 137.63"/>
   <path d="m16.493 1.5565 74.415 136.65"/>
   <path d="m26.701-1.4069 75.073 135.66"/>
   <path d="m37.237-4.3703 76.061 135.33"/>
   <path d="m48.103-7.3337 77.378 134.34"/>
   <path d="m-126.41 124.7 284.49-92.195"/>
  </g>
  <path transform="translate(-229.14 -50.139)" d="m68.919 101.51 67.446 146.21" stroke-width=".26799"/>
  <path transform="translate(-229.14 -50.139)" d="m79.628 98.758 67.107 145.48" stroke-width=".26664"/>
  <path transform="translate(-229.14 -50.139)" d="m90.014 95.771 66.964 145.17" stroke-width=".26607"/>
  <path transform="translate(-229.14 -50.139)" d="m100.38 92.827 66.803 144.82" stroke-width=".26544"/>
 </g>
</svg>
