<svg width="463.55mm" height="309.03mm" version="1.1" viewBox="0 0 463.55 309.03" xmlns="http://www.w3.org/2000/svg">
 <g transform="translate(271.62 159.46)">
  <g fill-opacity=".24576">
   <circle cx="-189.34" cy="-50.958" r=".25"/>
   <circle cx="-182.15" cy="-53.082" r=".25"/>
   <circle cx="-186.81" cy="-45.312" r=".25"/>
   <circle cx="-179.5" cy="-47.553" r=".25"/>
   <circle cx="-174.7" cy="-55.236" r=".25"/>
   <circle cx="-172.26" cy="-49.677" r=".25"/>
   <circle cx="-184.34" cy="-39.782" r=".25"/>
   <circle cx="-177.06" cy="-41.936" r=".25"/>
   <circle cx="-169.64" cy="-44.089" r=".25"/>
   <circle cx="-181.74" cy="-34.223" r=".25"/>
   <circle cx="-179.21" cy="-28.81" r=".25"/>
   <circle cx="-171.73" cy="-30.935" r=".25"/>
   <circle cx="-174.38" cy="-36.552" r=".25"/>
   <circle cx="-167.13" cy="-38.589" r=".25"/>
   <circle cx="-164.49" cy="-33.088" r=".25"/>
   <circle cx="-176.62" cy="-22.892" r=".25"/>
   <circle cx="-169.13" cy="-25.032" r=".25"/>
   <circle cx="-161.64" cy="-27.254" r=".25"/>
   <circle cx="-173.91" cy="-17.376" r=".25"/>
   <circle cx="-166.42" cy="-19.517" r=".25"/>
   <circle cx="-158.92" cy="-21.904" r=".25"/>
   <circle cx="-171.11" cy="-11.861" r=".25"/>
   <circle cx="-163.78" cy="-14.084" r=".25"/>
   <circle cx="-156.13" cy="-16.389" r=".25"/>
   <circle cx="-168.72" cy="-5.9343" r=".25"/>
   <circle cx="-160.98" cy="-8.4039" r=".25"/>
   <circle cx="-153.49" cy="-10.791" r=".25"/>
   <circle cx="-167.65" cy="-57.218" r=".25"/>
   <circle cx="-164.93" cy="-51.62" r=".25"/>
   <circle cx="-162.3" cy="-46.187" r=".25"/>
   <circle cx="-159.58" cy="-40.754" r=".25"/>
   <circle cx="-156.95" cy="-35.322" r=".25"/>
   <circle cx="-154.31" cy="-29.477" r=".25"/>
   <circle cx="-151.68" cy="-24.044" r=".25"/>
   <circle cx="-149.05" cy="-18.282" r=".25"/>
   <circle cx="-146.25" cy="-12.602" r=".25"/>
   <circle cx="-138.51" cy="-15.072" r=".25"/>
   <circle cx="-141.39" cy="-20.587" r=".25"/>
   <circle cx="-144.19" cy="-26.267" r=".25"/>
   <circle cx="-146.99" cy="-31.864" r=".25"/>
   <circle cx="-149.54" cy="-37.215" r=".25"/>
   <circle cx="-152.34" cy="-42.73" r=".25"/>
   <circle cx="-154.81" cy="-48.328" r=".25"/>
   <circle cx="-157.69" cy="-53.678" r=".25"/>
   <circle cx="-160.24" cy="-59.276" r=".25"/>
   <circle cx="-153.16" cy="-61.416" r=".25"/>
   <circle cx="-150.45" cy="-55.901" r=".25"/>
   <circle cx="-147.73" cy="-50.468" r=".25"/>
   <circle cx="-145.01" cy="-44.87" r=".25"/>
   <circle cx="-142.38" cy="-39.437" r=".25"/>
   <circle cx="-139.5" cy="-33.758" r=".25"/>
   <circle cx="-136.95" cy="-28.242" r=".25"/>
   <circle cx="-134.31" cy="-22.892" r=".25"/>
   <circle cx="-131.43" cy="-17.047" r=".25"/>
   <circle cx="-123.94" cy="-19.352" r=".25"/>
   <circle cx="-126.9" cy="-24.95" r=".25"/>
   <circle cx="-129.62" cy="-30.629" r=".25"/>
   <circle cx="-132.17" cy="-35.98" r=".25"/>
   <circle cx="-135.13" cy="-41.578" r=".25"/>
   <circle cx="-137.85" cy="-47.093" r=".25"/>
   <circle cx="-140.4" cy="-52.443" r=".25"/>
   <circle cx="-143.45" cy="-58.041" r=".25"/>
   <circle cx="-145.92" cy="-63.556" r=".25"/>
   <circle cx="-138.76" cy="-65.532" r=".25"/>
   <circle cx="-136.12" cy="-60.099" r=".25"/>
   <circle cx="-133.24" cy="-54.501" r=".25"/>
   <circle cx="-130.52" cy="-48.986" r=".25"/>
   <circle cx="-127.89" cy="-43.553" r=".25"/>
   <circle cx="-124.93" cy="-38.203" r=".25"/>
   <circle cx="-122.21" cy="-32.605" r=".25"/>
   <circle cx="-119.49" cy="-26.925" r=".25"/>
   <circle cx="-116.45" cy="-21.328" r=".25"/>
   <circle cx="-131.6" cy="-67.672" r=".25"/>
   <circle cx="-117.19" cy="-71.623" r=".25"/>
   <circle cx="-114.31" cy="-66.19" r=".25"/>
   <circle cx="-111.76" cy="-60.922" r=".25"/>
   <circle cx="-108.88" cy="-55.16" r=".25"/>
   <circle cx="-105.99" cy="-49.727" r=".25"/>
   <circle cx="-103.36" cy="-44.376" r=".25"/>
   <circle cx="-100.4" cy="-38.861" r=".25"/>
   <circle cx="-97.434" cy="-33.181" r=".25"/>
   <circle cx="-94.47" cy="-27.748" r=".25"/>
   <circle cx="-87.309" cy="-30.053" r=".25"/>
   <circle cx="-90.19" cy="-35.322" r=".25"/>
   <circle cx="-93.153" cy="-40.919" r=".25"/>
   <circle cx="-96.034" cy="-46.434" r=".25"/>
   <circle cx="-98.833" cy="-52.032" r=".25"/>
   <circle cx="-101.63" cy="-57.3" r=".25"/>
   <circle cx="-104.6" cy="-62.651" r=".25"/>
   <circle cx="-107.23" cy="-68.084" r=".25"/>
   <circle cx="-110.03" cy="-73.681" r=".25"/>
   <circle cx="-103.03" cy="-75.657" r=".25"/>
   <circle cx="-95.87" cy="-77.633" r=".25"/>
   <circle cx="-100.31" cy="-70.142" r=".25"/>
   <circle cx="-92.906" cy="-72.364" r=".25"/>
   <circle cx="-97.434" cy="-64.791" r=".25"/>
   <circle cx="-90.354" cy="-67.096" r=".25"/>
   <circle cx="-94.635" cy="-59.605" r=".25"/>
   <circle cx="-87.391" cy="-61.663" r=".25"/>
   <circle cx="-91.671" cy="-54.172" r=".25"/>
   <circle cx="-84.427" cy="-56.23" r=".25"/>
   <circle cx="-88.873" cy="-48.657" r=".25"/>
   <circle cx="-81.629" cy="-50.962" r=".25"/>
   <circle cx="-85.909" cy="-42.977" r=".25"/>
   <circle cx="-78.583" cy="-45.447" r=".25"/>
   <circle cx="-83.028" cy="-37.462" r=".25"/>
   <circle cx="-75.784" cy="-39.931" r=".25"/>
   <circle cx="-80.147" cy="-31.947" r=".25"/>
   <circle cx="-72.821" cy="-34.416" r=".25"/>
   <circle cx="-65.577" cy="-36.556" r=".25"/>
   <circle cx="-58.333" cy="-38.614" r=".25"/>
   <circle cx="-54.382" cy="-46.517" r=".25"/>
   <circle cx="-61.543" cy="-44.129" r=".25"/>
   <circle cx="-68.787" cy="-41.907" r=".25"/>
   <circle cx="-71.586" cy="-47.504" r=".25"/>
   <circle cx="-64.671" cy="-49.645" r=".25"/>
   <circle cx="-57.345" cy="-51.867" r=".25"/>
   <circle cx="-60.309" cy="-57.136" r=".25"/>
   <circle cx="-67.305" cy="-54.913" r=".25"/>
   <circle cx="-74.632" cy="-52.69" r=".25"/>
   <circle cx="-77.43" cy="-58.288" r=".25"/>
   <circle cx="-70.269" cy="-60.264" r=".25"/>
   <circle cx="-63.519" cy="-62.404" r=".25"/>
   <circle cx="-66.318" cy="-67.59" r=".25"/>
   <circle cx="-73.232" cy="-65.697" r=".25"/>
   <circle cx="-80.476" cy="-63.721" r=".25"/>
   <circle cx="-83.275" cy="-68.825" r=".25"/>
   <circle cx="-85.991" cy="-74.175" r=".25"/>
   <circle cx="-89.12" cy="-79.608" r=".25"/>
   <circle cx="-81.876" cy="-81.748" r=".25"/>
   <circle cx="-78.995" cy="-76.398" r=".25"/>
   <circle cx="-76.113" cy="-70.883" r=".25"/>
   <circle cx="-69.034" cy="-73.105" r=".25"/>
   <circle cx="-72.08" cy="-78.538" r=".25"/>
   <circle cx="-75.043" cy="-83.642" r=".25"/>
   <circle cx="-51.594" cy="-40.481" r=".25"/>
   <circle cx="-129.04" cy="-62.075" r=".25"/>
   <circle cx="-126" cy="-56.559" r=".25"/>
   <circle cx="-123.2" cy="-51.126" r=".25"/>
   <circle cx="-120.65" cy="-45.611" r=".25"/>
   <circle cx="-117.85" cy="-40.096" r=".25"/>
   <circle cx="-114.88" cy="-34.828" r=".25"/>
   <circle cx="-112.09" cy="-29.148" r=".25"/>
   <circle cx="-109.12" cy="-23.468" r=".25"/>
   <circle cx="-124.6" cy="-69.648" r=".25"/>
   <circle cx="-121.63" cy="-64.05" r=".25"/>
   <circle cx="-118.75" cy="-58.617" r=".25"/>
   <circle cx="-116.04" cy="-53.102" r=".25"/>
   <circle cx="-113.24" cy="-47.751" r=".25"/>
   <circle cx="-110.44" cy="-42.236" r=".25"/>
   <circle cx="-107.81" cy="-36.886" r=".25"/>
   <circle cx="-104.76" cy="-31.123" r=".25"/>
   <circle cx="-101.88" cy="-25.69" r=".25"/>
   <circle cx="-165.91" cy="-.60889" r=".25"/>
   <circle cx="-158.46" cy="-2.7043" r=".25"/>
   <circle cx="-150.84" cy="-4.858" r=".25"/>
   <circle cx="-143.33" cy="-7.1281" r=".25"/>
   <circle cx="-135.82" cy="-9.2817" r=".25"/>
   <circle cx="-128.43" cy="-11.494" r=".25"/>
   <circle cx="-121.09" cy="-13.88" r=".25"/>
   <circle cx="-113.88" cy="-15.917" r=".25"/>
   <circle cx="-163.18" cy="5.3282" r=".25"/>
   <circle cx="-155.44" cy="3.0581" r=".25"/>
   <circle cx="-148.16" cy=".67166" r=".25"/>
   <circle cx="-140.59" cy="-1.4238" r=".25"/>
   <circle cx="-133.2" cy="-3.6939" r=".25"/>
   <circle cx="-125.81" cy="-5.7311" r=".25"/>
   <circle cx="-118.01" cy="-8.0594" r=".25"/>
   <circle cx="-160.56" cy="11.091" r=".25"/>
   <circle cx="-152.76" cy="8.9953" r=".25"/>
   <circle cx="-145.31" cy="6.7252" r=".25"/>
   <circle cx="-137.62" cy="4.2805" r=".25"/>
   <circle cx="-130.35" cy="2.0686" r=".25"/>
   <circle cx="-122.78" cy="-.20145" r=".25"/>
   <circle cx="-115.27" cy="-2.2969" r=".25"/>
   <circle cx="-107.94" cy="-4.3923" r=".25"/>
   <circle cx="-110.85" cy="-9.9802" r=".25"/>
   <circle cx="-157.82" cy="17.028" r=".25"/>
   <circle cx="-150.08" cy="14.583" r=".25"/>
   <circle cx="-142.51" cy="12.488" r=".25"/>
   <circle cx="-135.06" cy="10.218" r=".25"/>
   <circle cx="-127.26" cy="7.8311" r=".25"/>
   <circle cx="-120.05" cy="5.4446" r=".25"/>
   <circle cx="-112.54" cy="3.4656" r=".25"/>
   <circle cx="-104.97" cy="1.2537" r=".25"/>
   <circle cx="-154.91" cy="22.557" r=".25"/>
   <circle cx="-147.4" cy="20.229" r=".25"/>
   <circle cx="-139.72" cy="17.726" r=".25"/>
   <circle cx="-132.15" cy="15.573" r=".25"/>
   <circle cx="-124.41" cy="13.361" r=".25"/>
   <circle cx="-116.96" cy="11.265" r=".25"/>
   <circle cx="-109.63" cy="9.1117" r=".25"/>
   <circle cx="-102.23" cy="6.8998" r=".25"/>
   <circle cx="-106.43" cy="-18.013" r=".25"/>
   <circle cx="-103.51" cy="-12.425" r=".25"/>
   <circle cx="-100.84" cy="-6.3714" r=".25"/>
   <circle cx="-97.81" cy="-.78352" r=".25"/>
   <circle cx="-94.784" cy="4.6879" r=".25"/>
   <circle cx="-87.217" cy="2.3597" r=".25"/>
   <circle cx="-90.127" cy="-3.5774" r=".25"/>
   <circle cx="-93.154" cy="-8.9325" r=".25"/>
   <circle cx="-96.53" cy="-14.52" r=".25"/>
   <circle cx="-99.207" cy="-20.225" r=".25"/>
   <circle cx="-91.99" cy="-22.32" r=".25"/>
   <circle cx="-88.73" cy="-16.849" r=".25"/>
   <circle cx="-85.703" cy="-11.144" r=".25"/>
   <circle cx="-82.677" cy="-5.3237" r=".25"/>
   <circle cx="-79.533" cy=".1478" r=".25"/>
   <circle cx="-84.306" cy="-24.416" r=".25"/>
   <circle cx="-81.396" cy="-19.061" r=".25"/>
   <circle cx="-78.369" cy="-12.891" r=".25"/>
   <circle cx="-75.343" cy="-7.5355" r=".25"/>
   <circle cx="-72.199" cy="-1.8312" r=".25"/>
   <circle cx="-77.089" cy="-26.744" r=".25"/>
   <circle cx="-74.295" cy="-21.272" r=".25"/>
   <circle cx="-71.268" cy="-15.452" r=".25"/>
   <circle cx="-68.125" cy="-10.097" r=".25"/>
   <circle cx="-64.982" cy="-4.1595" r=".25"/>
   <circle cx="-69.775" cy="-28.572" r=".25"/>
   <circle cx="-66.976" cy="-22.974" r=".25"/>
   <circle cx="-63.848" cy="-17.376" r=".25"/>
   <circle cx="-61.049" cy="-11.943" r=".25"/>
   <circle cx="-57.921" cy="-6.3459" r=".25"/>
   <circle cx="-62.696" cy="-30.712" r=".25"/>
   <circle cx="-59.732" cy="-25.114" r=".25"/>
   <circle cx="-56.604" cy="-19.517" r=".25"/>
   <circle cx="-53.805" cy="-13.919" r=".25"/>
   <circle cx="-50.677" cy="-8.3215" r=".25"/>
   <circle cx="-55.452" cy="-33.017" r=".25"/>
   <circle cx="-52.159" cy="-27.584" r=".25"/>
   <circle cx="-49.36" cy="-21.657" r=".25"/>
   <circle cx="-46.397" cy="-16.224" r=".25"/>
   <circle cx="-43.104" cy="-10.297" r=".25"/>
   <circle cx="-36.19" cy="-12.931" r=".25"/>
   <circle cx="-39.153" cy="-18.858" r=".25"/>
   <circle cx="-41.787" cy="-23.962" r=".25"/>
   <circle cx="-45.245" cy="-29.559" r=".25"/>
   <circle cx="-48.373" cy="-35.486" r=".25"/>
   <circle transform="translate(-692.09 -127.19)" cx="663.55" cy="112.08" r=".25"/>
   <circle transform="translate(-692.09 -127.19)" cx="660.4" cy="106.38" r=".25"/>
   <circle transform="translate(-692.09 -127.19)" cx="657.38" cy="100.91" r=".25"/>
   <circle transform="translate(-692.09 -127.19)" cx="654" cy="95.438" r=".25"/>
   <circle transform="translate(-692.09 -127.19)" cx="661.22" cy="92.993" r=".25"/>
   <circle transform="translate(-692.09 -127.19)" cx="664.25" cy="98.581" r=".25"/>
   <circle transform="translate(-692.09 -127.19)" cx="667.39" cy="104.29" r=".25"/>
   <circle transform="translate(-692.09 -127.19)" cx="670.65" cy="109.87" r=".25"/>
   <circle transform="translate(-692.09 -127.19)" cx="677.98" cy="107.2" r=".25"/>
   <circle transform="translate(-692.09 -127.19)" cx="674.84" cy="101.96" r=".25"/>
   <circle transform="translate(-692.09 -127.19)" cx="671.7" cy="96.718" r=".25"/>
   <circle transform="translate(-692.09 -127.19)" cx="668.2" cy="91.014" r=".25"/>
   <circle transform="translate(-692.09 -127.19)" cx="675.65" cy="88.919" r=".25"/>
   <circle transform="translate(-692.09 -127.19)" cx="678.33" cy="94.39" r=".25"/>
   <circle transform="translate(-692.09 -127.19)" cx="681.71" cy="99.978" r=".25"/>
   <circle transform="translate(-692.09 -127.19)" cx="684.74" cy="105.22" r=".25"/>
   <circle transform="translate(-692.09 -127.19)" cx="692.07" cy="103.12" r=".25"/>
   <circle transform="translate(-692.09 -127.19)" cx="688.93" cy="97.533" r=".25"/>
   <circle transform="translate(-692.09 -127.19)" cx="685.78" cy="92.178" r=".25"/>
   <circle transform="translate(-692.09 -127.19)" cx="682.52" cy="87.056" r=".25"/>
   <circle transform="translate(-692.09 -127.19)" cx="689.74" cy="84.844" r=".25"/>
   <circle transform="translate(-692.09 -127.19)" cx="692.65" cy="90.083" r=".25"/>
   <circle transform="translate(-692.09 -127.19)" cx="696.03" cy="95.671" r=".25"/>
   <circle transform="translate(-692.09 -127.19)" cx="699.29" cy="100.91" r=".25"/>
   <circle transform="translate(-692.09 -127.19)" cx="706.39" cy="98.581" r=".25"/>
   <circle transform="translate(-692.09 -127.19)" cx="703.24" cy="93.342" r=".25"/>
   <circle transform="translate(-692.09 -127.19)" cx="699.75" cy="87.871" r=".25"/>
   <circle transform="translate(-692.09 -127.19)" cx="696.49" cy="82.399" r=".25"/>
   <circle transform="translate(-692.09 -127.19)" cx="703.59" cy="80.188" r=".25"/>
   <circle transform="translate(-692.09 -127.19)" cx="706.97" cy="85.659" r=".25"/>
   <circle transform="translate(-692.09 -127.19)" cx="710.11" cy="91.014" r=".25"/>
   <circle transform="translate(-692.09 -127.19)" cx="713.37" cy="96.835" r=".25"/>
   <circle transform="translate(-692.09 -127.19)" cx="720.36" cy="94.157" r=".25"/>
   <circle transform="translate(-692.09 -127.19)" cx="717.21" cy="89.035" r=".25"/>
   <circle transform="translate(-692.09 -127.19)" cx="713.72" cy="83.68" r=".25"/>
   <circle transform="translate(-692.09 -127.19)" cx="710.7" cy="78.325" r=".25"/>
   <circle transform="translate(-692.09 -127.19)" cx="717.8" cy="76.229" r=".25"/>
   <circle transform="translate(-692.09 -127.19)" cx="720.82" cy="81.585" r=".25"/>
   <circle transform="translate(-692.09 -127.19)" cx="724.2" cy="86.94" r=".25"/>
   <circle transform="translate(-692.09 -127.19)" cx="727.46" cy="92.178" r=".25"/>
   <circle transform="translate(-692.09 -127.19)" cx="734.56" cy="90.199" r=".25"/>
   <circle transform="translate(-692.09 -127.19)" cx="731.18" cy="84.844" r=".25"/>
   <circle transform="translate(-692.09 -127.19)" cx="727.92" cy="79.605" r=".25"/>
   <circle transform="translate(-692.09 -127.19)" cx="724.2" cy="74.25" r=".25"/>
   <circle transform="translate(-692.09 -127.19)" cx="731.53" cy="72.039" r=".25"/>
   <circle transform="translate(-692.09 -127.19)" cx="734.79" cy="77.51" r=".25"/>
   <circle transform="translate(-692.09 -127.19)" cx="738.17" cy="82.865" r=".25"/>
   <circle transform="translate(-692.09 -127.19)" cx="741.55" cy="88.22" r=".25"/>
   <circle transform="translate(-692.09 -127.19)" cx="650.98" cy="89.85" r=".25"/>
   <circle transform="translate(-692.09 -127.19)" cx="658.31" cy="87.522" r=".25"/>
   <circle transform="translate(-692.09 -127.19)" cx="665.29" cy="85.543" r=".25"/>
   <circle transform="translate(-692.09 -127.19)" cx="672.4" cy="83.68" r=".25"/>
   <circle transform="translate(-692.09 -127.19)" cx="679.38" cy="81.585" r=".25"/>
   <circle transform="translate(-692.09 -127.19)" cx="686.36" cy="79.256" r=".25"/>
   <circle transform="translate(-692.09 -127.19)" cx="693.35" cy="77.161" r=".25"/>
   <circle transform="translate(-692.09 -127.19)" cx="700.22" cy="74.949" r=".25"/>
   <circle transform="translate(-692.09 -127.19)" cx="707.55" cy="72.621" r=".25"/>
   <circle transform="translate(-692.09 -127.19)" cx="714.77" cy="70.758" r=".25"/>
   <circle transform="translate(-692.09 -127.19)" cx="721.29" cy="68.663" r=".25"/>
   <circle transform="translate(-692.09 -127.19)" cx="728.39" cy="66.8" r=".25"/>
   <circle transform="translate(-692.09 -127.19)" cx="725.01" cy="61.096" r=".25"/>
   <circle transform="translate(-692.09 -127.19)" cx="718.38" cy="63.191" r=".25"/>
   <circle transform="translate(-692.09 -127.19)" cx="710.81" cy="65.519" r=".25"/>
   <circle transform="translate(-692.09 -127.19)" cx="704.06" cy="67.615" r=".25"/>
   <circle transform="translate(-692.09 -127.19)" cx="697.08" cy="69.71" r=".25"/>
   <circle transform="translate(-692.09 -127.19)" cx="690.09" cy="71.689" r=".25"/>
   <circle transform="translate(-692.09 -127.19)" cx="683.11" cy="74.018" r=".25"/>
   <circle transform="translate(-692.09 -127.19)" cx="676.24" cy="76.113" r=".25"/>
   <circle transform="translate(-692.09 -127.19)" cx="669.48" cy="77.976" r=".25"/>
   <circle transform="translate(-692.09 -127.19)" cx="662.27" cy="80.071" r=".25"/>
   <circle transform="translate(-692.09 -127.19)" cx="655.05" cy="82.283" r=".25"/>
   <circle transform="translate(-692.09 -127.19)" cx="647.83" cy="84.262" r=".25"/>
   <circle transform="translate(-692.09 -127.19)" cx="644.69" cy="78.674" r=".25"/>
   <circle transform="translate(-692.09 -127.19)" cx="651.79" cy="76.579" r=".25"/>
   <circle transform="translate(-692.09 -127.19)" cx="659.12" cy="74.367" r=".25"/>
   <circle transform="translate(-692.09 -127.19)" cx="665.76" cy="72.504" r=".25"/>
   <circle transform="translate(-692.09 -127.19)" cx="673.09" cy="70.525" r=".25"/>
   <circle transform="translate(-692.09 -127.19)" cx="680.08" cy="68.546" r=".25"/>
   <circle transform="translate(-692.09 -127.19)" cx="687.06" cy="66.451" r=".25"/>
   <circle transform="translate(-692.09 -127.19)" cx="694.16" cy="64.239" r=".25"/>
   <circle transform="translate(-692.09 -127.19)" cx="701.03" cy="62.26" r=".25"/>
   <circle transform="translate(-692.09 -127.19)" cx="707.9" cy="60.397" r=".25"/>
   <circle transform="translate(-692.09 -127.19)" cx="715" cy="58.418" r=".25"/>
   <circle transform="translate(-692.09 -127.19)" cx="721.75" cy="56.206" r=".25"/>
   <circle transform="translate(-692.09 -127.19)" cx="718.5" cy="50.968" r=".25"/>
   <circle transform="translate(-692.09 -127.19)" cx="711.63" cy="53.063" r=".25"/>
   <circle transform="translate(-692.09 -127.19)" cx="704.76" cy="55.159" r=".25"/>
   <circle transform="translate(-692.09 -127.19)" cx="697.77" cy="57.138" r=".25"/>
   <circle transform="translate(-692.09 -127.19)" cx="690.67" cy="59.117" r=".25"/>
   <circle transform="translate(-692.09 -127.19)" cx="684.15" cy="61.096" r=".25"/>
   <circle transform="translate(-692.09 -127.19)" cx="676.82" cy="63.308" r=".25"/>
   <circle transform="translate(-692.09 -127.19)" cx="670.07" cy="65.403" r=".25"/>
   <circle transform="translate(-692.09 -127.19)" cx="662.97" cy="67.615" r=".25"/>
   <circle transform="translate(-692.09 -127.19)" cx="655.86" cy="69.361" r=".25"/>
   <circle transform="translate(-692.09 -127.19)" cx="648.65" cy="71.457" r=".25"/>
   <circle transform="translate(-692.09 -127.19)" cx="641.78" cy="73.552" r=".25"/>
   <circle transform="translate(-692.09 -127.19)" cx="638.64" cy="68.197" r=".25"/>
   <circle transform="translate(-692.09 -127.19)" cx="645.97" cy="65.985" r=".25"/>
   <circle transform="translate(-692.09 -127.19)" cx="653.19" cy="64.006" r=".25"/>
   <circle transform="translate(-692.09 -127.19)" cx="659.82" cy="62.143" r=".25"/>
   <circle transform="translate(-692.09 -127.19)" cx="667.04" cy="60.164" r=".25"/>
   <circle transform="translate(-692.09 -127.19)" cx="673.68" cy="57.952" r=".25"/>
   <circle transform="translate(-692.09 -127.19)" cx="680.78" cy="55.973" r=".25"/>
   <circle transform="translate(-692.09 -127.19)" cx="687.65" cy="53.645" r=".25"/>
   <circle transform="translate(-692.09 -127.19)" cx="694.86" cy="51.783" r=".25"/>
   <circle transform="translate(-692.09 -127.19)" cx="701.62" cy="49.687" r=".25"/>
   <circle transform="translate(-692.09 -127.19)" cx="708.25" cy="48.057" r=".25"/>
   <circle transform="translate(-692.09 -127.19)" cx="715.47" cy="45.845" r=".25"/>
   <circle transform="translate(-692.09 -127.19)" cx="624.32" cy="41.538" r=".25"/>
   <circle transform="translate(-692.09 -127.19)" cx="627.11" cy="46.777" r=".25"/>
   <circle transform="translate(-692.09 -127.19)" cx="630.02" cy="52.015" r=".25"/>
   <circle transform="translate(-692.09 -127.19)" cx="633.05" cy="57.37" r=".25"/>
   <circle transform="translate(-692.09 -127.19)" cx="635.84" cy="62.842" r=".25"/>
   <circle transform="translate(-692.09 -127.19)" cx="643.18" cy="60.746" r=".25"/>
   <circle transform="translate(-692.09 -127.19)" cx="639.92" cy="55.391" r=".25"/>
   <circle transform="translate(-692.09 -127.19)" cx="637.01" cy="49.92" r=".25"/>
   <circle transform="translate(-692.09 -127.19)" cx="633.98" cy="44.914" r=".25"/>
   <circle transform="translate(-692.09 -127.19)" cx="631.42" cy="39.326" r=".25"/>
   <circle transform="translate(-692.09 -127.19)" cx="638.05" cy="37.347" r=".25"/>
   <circle transform="translate(-692.09 -127.19)" cx="641.2" cy="42.819" r=".25"/>
   <circle transform="translate(-692.09 -127.19)" cx="643.87" cy="48.174" r=".25"/>
   <circle transform="translate(-692.09 -127.19)" cx="647.13" cy="53.412" r=".25"/>
   <circle transform="translate(-692.09 -127.19)" cx="649.93" cy="58.884" r=".25"/>
   <circle transform="translate(-692.09 -127.19)" cx="657.03" cy="56.788" r=".25"/>
   <circle transform="translate(-692.09 -127.19)" cx="654" cy="51.433" r=".25"/>
   <circle transform="translate(-692.09 -127.19)" cx="650.98" cy="46.078" r=".25"/>
   <circle transform="translate(-692.09 -127.19)" cx="648.06" cy="40.956" r=".25"/>
   <circle transform="translate(-692.09 -127.19)" cx="645.04" cy="35.834" r=".25"/>
   <circle transform="translate(-692.09 -127.19)" cx="651.91" cy="33.622" r=".25"/>
   <circle transform="translate(-692.09 -127.19)" cx="654.93" cy="38.744" r=".25"/>
   <circle transform="translate(-692.09 -127.19)" cx="657.84" cy="44.332" r=".25"/>
   <circle transform="translate(-692.09 -127.19)" cx="660.87" cy="49.338" r=".25"/>
   <circle transform="translate(-692.09 -127.19)" cx="664.01" cy="54.926" r=".25"/>
   <circle transform="translate(-692.09 -127.19)" cx="670.77" cy="52.947" r=".25"/>
   <circle transform="translate(-692.09 -127.19)" cx="667.97" cy="47.475" r=".25"/>
   <circle transform="translate(-692.09 -127.19)" cx="664.83" cy="42.353" r=".25"/>
   <circle transform="translate(-692.09 -127.19)" cx="661.69" cy="37.114" r=".25"/>
   <circle transform="translate(-692.09 -127.19)" cx="658.89" cy="31.759" r=".25"/>
   <circle transform="translate(-692.09 -127.19)" cx="665.88" cy="29.78" r=".25"/>
   <circle transform="translate(-692.09 -127.19)" cx="668.67" cy="35.135" r=".25"/>
   <circle transform="translate(-692.09 -127.19)" cx="671.58" cy="40.374" r=".25"/>
   <circle transform="translate(-692.09 -127.19)" cx="674.72" cy="45.496" r=".25"/>
   <circle transform="translate(-692.09 -127.19)" cx="677.87" cy="50.968" r=".25"/>
   <circle transform="translate(-692.09 -127.19)" cx="684.74" cy="48.872" r=".25"/>
   <circle transform="translate(-692.09 -127.19)" cx="681.71" cy="43.517" r=".25"/>
   <circle transform="translate(-692.09 -127.19)" cx="678.68" cy="38.279" r=".25"/>
   <circle transform="translate(-692.09 -127.19)" cx="675.65" cy="33.156" r=".25"/>
   <circle transform="translate(-692.09 -127.19)" cx="672.74" cy="27.918" r=".25"/>
   <circle transform="translate(-692.09 -127.19)" cx="679.38" cy="25.822" r=".25"/>
   <circle transform="translate(-692.09 -127.19)" cx="682.41" cy="31.294" r=".25"/>
   <circle transform="translate(-692.09 -127.19)" cx="685.55" cy="36.416" r=".25"/>
   <circle transform="translate(-692.09 -127.19)" cx="688.46" cy="41.655" r=".25"/>
   <circle transform="translate(-692.09 -127.19)" cx="691.6" cy="47.01" r=".25"/>
   <circle transform="translate(-692.09 -127.19)" cx="698.47" cy="44.681" r=".25"/>
   <circle transform="translate(-692.09 -127.19)" cx="695.33" cy="39.676" r=".25"/>
   <circle transform="translate(-692.09 -127.19)" cx="692.3" cy="34.32" r=".25"/>
   <circle transform="translate(-692.09 -127.19)" cx="689.16" cy="29.082" r=".25"/>
   <circle transform="translate(-692.09 -127.19)" cx="686.13" cy="24.076" r=".25"/>
   <circle transform="translate(-692.09 -127.19)" cx="692.77" cy="22.097" r=".25"/>
   <circle transform="translate(-692.09 -127.19)" cx="695.91" cy="27.219" r=".25"/>
   <circle transform="translate(-692.09 -127.19)" cx="698.94" cy="32.341" r=".25"/>
   <circle transform="translate(-692.09 -127.19)" cx="702.08" cy="37.58" r=".25"/>
   <circle transform="translate(-692.09 -127.19)" cx="705.22" cy="42.702" r=".25"/>
   <circle transform="translate(-692.09 -127.19)" cx="748.41" cy="86.008" r=".25"/>
   <circle transform="translate(-692.09 -127.19)" cx="745.04" cy="80.77" r=".25"/>
   <circle transform="translate(-692.09 -127.19)" cx="741.66" cy="75.531" r=".25"/>
   <circle transform="translate(-692.09 -127.19)" cx="738.29" cy="70.06" r=".25"/>
   <circle transform="translate(-692.09 -127.19)" cx="735.26" cy="64.937" r=".25"/>
   <circle transform="translate(-692.09 -127.19)" cx="731.88" cy="59.699" r=".25"/>
   <circle transform="translate(-692.09 -127.19)" cx="728.51" cy="54.227" r=".25"/>
   <circle transform="translate(-692.09 -127.19)" cx="725.36" cy="49.221" r=".25"/>
   <circle transform="translate(-692.09 -127.19)" cx="722.1" cy="43.983" r=".25"/>
   <circle transform="translate(-692.09 -127.19)" cx="718.96" cy="38.977" r=".25"/>
   <circle transform="translate(-692.09 -127.19)" cx="715.93" cy="33.738" r=".25"/>
   <circle transform="translate(-692.09 -127.19)" cx="712.56" cy="28.616" r=".25"/>
   <circle transform="translate(-692.09 -127.19)" cx="709.41" cy="23.378" r=".25"/>
   <circle transform="translate(-692.09 -127.19)" cx="706.39" cy="18.139" r=".25"/>
   <circle transform="translate(-692.09 -127.19)" cx="712.21" cy="40.84" r=".25"/>
   <circle transform="translate(-692.09 -127.19)" cx="709.18" cy="35.601" r=".25"/>
   <circle transform="translate(-692.09 -127.19)" cx="705.92" cy="30.479" r=".25"/>
   <circle transform="translate(-692.09 -127.19)" cx="702.55" cy="25.24" r=".25"/>
   <circle transform="translate(-692.09 -127.19)" cx="699.64" cy="19.972" r=".25"/>
   <circle transform="translate(-692.09 -127.19)" cx="713.14" cy="16.189" r=".25"/>
   <circle transform="translate(-692.09 -127.19)" cx="716.17" cy="21.224" r=".25"/>
   <circle transform="translate(-692.09 -127.19)" cx="722.95" cy="19.303" r=".25"/>
   <circle transform="translate(-692.09 -127.19)" cx="719.66" cy="14.326" r=".25"/>
   <circle transform="translate(-692.09 -127.19)" cx="719.22" cy="26.463" r=".25"/>
   <circle transform="translate(-692.09 -127.19)" cx="722.31" cy="31.556" r=".25"/>
   <circle transform="translate(-692.09 -127.19)" cx="726.09" cy="24.454" r=".25"/>
   <circle transform="translate(-692.09 -127.19)" cx="729.29" cy="29.751" r=".25"/>
   <circle transform="translate(-692.09 -127.19)" cx="735.81" cy="27.656" r=".25"/>
   <circle transform="translate(-692.09 -127.19)" cx="732.7" cy="22.65" r=".25"/>
   <circle transform="translate(-692.09 -127.19)" cx="729.53" cy="17.499" r=".25"/>
   <circle transform="translate(-692.09 -127.19)" cx="726.32" cy="12.376" r=".25"/>
   <circle transform="translate(-692.09 -127.19)" cx="732.93" cy="10.514" r=".25"/>
   <circle transform="translate(-692.09 -127.19)" cx="736.1" cy="15.607" r=".25"/>
   <circle transform="translate(-692.09 -127.19)" cx="739.42" cy="20.7" r=".25"/>
   <circle transform="translate(-692.09 -127.19)" cx="742.53" cy="25.793" r=".25"/>
   <circle transform="translate(-692.09 -127.19)" cx="739.04" cy="32.924" r=".25"/>
   <circle transform="translate(-692.09 -127.19)" cx="739.57" cy="8.7676" r=".25"/>
   <circle transform="translate(-692.09 -127.19)" cx="742.77" cy="13.89" r=".25"/>
   <circle transform="translate(-692.09 -127.19)" cx="745.94" cy="18.896" r=".25"/>
   <circle transform="translate(-692.09 -127.19)" cx="749.17" cy="23.96" r=".25"/>
   <circle transform="translate(-692.09 -127.19)" cx="755.89" cy="22.01" r=".25"/>
   <circle transform="translate(-692.09 -127.19)" cx="752.66" cy="16.917" r=".25"/>
   <circle transform="translate(-692.09 -127.19)" cx="749.4" cy="11.882" r=".25"/>
   <circle transform="translate(-692.09 -127.19)" cx="746.17" cy="6.8468" r=".25"/>
   <circle transform="translate(-692.09 -127.19)" cx="762.5" cy="20.118" r=".25"/>
   <circle transform="translate(-692.09 -127.19)" cx="759.24" cy="14.996" r=".25"/>
   <circle transform="translate(-692.09 -127.19)" cx="755.98" cy="9.9609" r=".25"/>
   <circle transform="translate(-692.09 -127.19)" cx="752.84" cy="4.926" r=".25"/>
   <circle transform="translate(-692.09 -127.19)" cx="759.33" cy="2.976" r=".25"/>
   <circle transform="translate(-692.09 -127.19)" cx="762.62" cy="7.9527" r=".25"/>
   <circle transform="translate(-692.09 -127.19)" cx="765.79" cy="13.075" r=".25"/>
   <circle transform="translate(-692.09 -127.19)" cx="769.02" cy="18.081" r=".25"/>
   <circle transform="translate(-692.09 -127.19)" cx="725.67" cy="36.713" r=".25"/>
   <circle transform="translate(-692.09 -127.19)" cx="732.42" cy="34.779" r=".25"/>
   <circle transform="translate(-692.09 -127.19)" cx="745.79" cy="30.992" r=".25"/>
   <circle transform="translate(-692.09 -127.19)" cx="752.46" cy="28.934" r=".25"/>
   <circle transform="translate(-692.09 -127.19)" cx="759.17" cy="27.123" r=".25"/>
   <circle transform="translate(-692.09 -127.19)" cx="765.71" cy="25.189" r=".25"/>
   <circle transform="translate(-692.09 -127.19)" cx="772.5" cy="23.255" r=".25"/>
   <circle transform="translate(-692.09 -127.19)" cx="775.59" cy="28.317" r=".25"/>
   <circle transform="translate(-692.09 -127.19)" cx="779.05" cy="33.38" r=".25"/>
   <circle transform="translate(-692.09 -127.19)" cx="782.3" cy="38.36" r=".25"/>
   <circle transform="translate(-692.09 -127.19)" cx="785.72" cy="43.463" r=".25"/>
   <circle transform="translate(-692.09 -127.19)" cx="779.09" cy="45.727" r=".25"/>
   <circle transform="translate(-692.09 -127.19)" cx="775.76" cy="40.418" r=".25"/>
   <circle transform="translate(-692.09 -127.19)" cx="772.38" cy="35.232" r=".25"/>
   <circle transform="translate(-692.09 -127.19)" cx="769.01" cy="30.169" r=".25"/>
   <circle transform="translate(-692.09 -127.19)" cx="762.34" cy="32.145" r=".25"/>
   <circle transform="translate(-692.09 -127.19)" cx="765.8" cy="37.207" r=".25"/>
   <circle transform="translate(-692.09 -127.19)" cx="769.01" cy="42.434" r=".25"/>
   <circle transform="translate(-692.09 -127.19)" cx="772.38" cy="47.662" r=".25"/>
   <circle transform="translate(-692.09 -127.19)" cx="765.75" cy="49.637" r=".25"/>
   <circle transform="translate(-692.09 -127.19)" cx="758.96" cy="51.654" r=".25"/>
   <circle transform="translate(-692.09 -127.19)" cx="762.34" cy="44.369" r=".25"/>
   <circle transform="translate(-692.09 -127.19)" cx="759" cy="39.224" r=".25"/>
   <circle transform="translate(-692.09 -127.19)" cx="755.75" cy="34.12" r=".25"/>
   <circle transform="translate(-692.09 -127.19)" cx="749.09" cy="36.096" r=".25"/>
   <circle transform="translate(-692.09 -127.19)" cx="752.38" cy="41.159" r=".25"/>
   <circle transform="translate(-692.09 -127.19)" cx="755.67" cy="46.386" r=".25"/>
   <circle transform="translate(-692.09 -127.19)" cx="748.92" cy="48.32" r=".25"/>
   <circle transform="translate(-692.09 -127.19)" cx="745.63" cy="43.175" r=".25"/>
   <circle transform="translate(-692.09 -127.19)" cx="742.34" cy="37.907" r=".25"/>
   <circle transform="translate(-692.09 -127.19)" cx="752.21" cy="53.588" r=".25"/>
   <circle transform="translate(-692.09 -127.19)" cx="745.42" cy="55.523" r=".25"/>
   <circle transform="translate(-692.09 -127.19)" cx="738.55" cy="57.581" r=".25"/>
   <circle transform="translate(-692.09 -127.19)" cx="735.38" cy="52.189" r=".25"/>
   <circle transform="translate(-692.09 -127.19)" cx="742.13" cy="50.296" r=".25"/>
   <circle transform="translate(-692.09 -127.19)" cx="738.88" cy="45.11" r=".25"/>
   <circle transform="translate(-692.09 -127.19)" cx="735.59" cy="39.965" r=".25"/>
   <circle transform="translate(-692.09 -127.19)" cx="728.79" cy="41.858" r=".25"/>
   <circle transform="translate(-692.09 -127.19)" cx="732.09" cy="47.003" r=".25"/>
   <circle transform="translate(-692.09 -127.19)" cx="741.88" cy="62.808" r=".25"/>
   <circle transform="translate(-692.09 -127.19)" cx="745.22" cy="68.076" r=".25"/>
   <circle transform="translate(-692.09 -127.19)" cx="752.09" cy="65.936" r=".25"/>
   <circle transform="translate(-692.09 -127.19)" cx="748.71" cy="60.627" r=".25"/>
   <circle transform="translate(-692.09 -127.19)" cx="755.26" cy="58.61" r=".25"/>
   <circle transform="translate(-692.09 -127.19)" cx="758.96" cy="63.837" r=".25"/>
   <circle transform="translate(-692.09 -127.19)" cx="765.63" cy="61.902" r=".25"/>
   <circle transform="translate(-692.09 -127.19)" cx="762.3" cy="56.758" r=".25"/>
   <circle transform="translate(-692.09 -127.19)" cx="768.92" cy="54.741" r=".25"/>
   <circle transform="translate(-692.09 -127.19)" cx="772.34" cy="60.05" r=".25"/>
   <circle transform="translate(-692.09 -127.19)" cx="775.76" cy="52.683" r=".25"/>
   <circle transform="translate(-692.09 -127.19)" cx="779.17" cy="58.034" r=".25"/>
   <circle transform="translate(-692.09 -127.19)" cx="785.92" cy="55.934" r=".25"/>
   <circle transform="translate(-692.09 -127.19)" cx="782.38" cy="50.831" r=".25"/>
   <circle transform="translate(-692.09 -127.19)" cx="789.05" cy="48.773" r=".25"/>
   <circle transform="translate(-692.09 -127.19)" cx="792.51" cy="53.918" r=".25"/>
   <circle transform="translate(-692.09 -127.19)" cx="795.96" cy="59.227" r=".25"/>
   <circle transform="translate(-692.09 -127.19)" cx="789.26" cy="61.162" r=".25"/>
   <circle transform="translate(-692.09 -127.19)" cx="792.75" cy="66.512" r=".25"/>
   <circle transform="translate(-692.09 -127.19)" cx="799.55" cy="64.413" r=".25"/>
   <circle transform="translate(-692.09 -127.19)" cx="803.17" cy="69.517" r=".25"/>
   <circle transform="translate(-692.09 -127.19)" cx="796.09" cy="71.657" r=".25"/>
   <circle transform="translate(-692.09 -127.19)" cx="799.75" cy="76.637" r=".25"/>
   <circle transform="translate(-692.09 -127.19)" cx="806.54" cy="74.415" r=".25"/>
   <circle transform="translate(-692.09 -127.19)" cx="810.25" cy="79.601" r=".25"/>
   <circle transform="translate(-692.09 -127.19)" cx="803.41" cy="81.741" r=".25"/>
   <circle transform="translate(-692.09 -127.19)" cx="796.58" cy="83.922" r=".25"/>
   <circle transform="translate(-692.09 -127.19)" cx="793.04" cy="78.654" r=".25"/>
   <circle transform="translate(-692.09 -127.19)" cx="789.59" cy="73.591" r=".25"/>
   <circle transform="translate(-692.09 -127.19)" cx="786.05" cy="68.159" r=".25"/>
   <circle transform="translate(-692.09 -127.19)" cx="782.67" cy="63.137" r=".25"/>
   <circle transform="translate(-692.09 -127.19)" cx="775.71" cy="65.154" r=".25"/>
   <circle transform="translate(-692.09 -127.19)" cx="779.21" cy="70.546" r=".25"/>
   <circle transform="translate(-692.09 -127.19)" cx="782.67" cy="75.649" r=".25"/>
   <circle transform="translate(-692.09 -127.19)" cx="786.29" cy="80.877" r=".25"/>
   <circle transform="translate(-692.09 -127.19)" cx="779.54" cy="83.099" r=".25"/>
   <circle transform="translate(-692.09 -127.19)" cx="775.88" cy="77.543" r=".25"/>
   <circle transform="translate(-692.09 -127.19)" cx="772.5" cy="72.48" r=".25"/>
   <circle transform="translate(-692.09 -127.19)" cx="768.96" cy="67.088" r=".25"/>
   <circle transform="translate(-692.09 -127.19)" cx="762.13" cy="69.105" r=".25"/>
   <circle transform="translate(-692.09 -127.19)" cx="765.63" cy="74.373" r=".25"/>
   <circle transform="translate(-692.09 -127.19)" cx="769.01" cy="79.889" r=".25"/>
   <circle transform="translate(-692.09 -127.19)" cx="772.13" cy="84.992" r=".25"/>
   <circle transform="translate(-692.09 -127.19)" cx="755.51" cy="71.287" r=".25"/>
   <circle transform="translate(-692.09 -127.19)" cx="748.47" cy="73.345" r=".25"/>
   <circle transform="translate(-692.09 -127.19)" cx="751.97" cy="78.53" r=".25"/>
   <circle transform="translate(-692.09 -127.19)" cx="755.38" cy="83.963" r=".25"/>
   <circle transform="translate(-692.09 -127.19)" cx="758.88" cy="76.596" r=".25"/>
   <circle transform="translate(-692.09 -127.19)" cx="762.26" cy="81.905" r=".25"/>
   <circle transform="translate(-692.09 -127.19)" cx="765.8" cy="87.215" r=".25"/>
   <circle transform="translate(-692.09 -127.19)" cx="758.8" cy="89.355" r=".25"/>
   <circle transform="translate(-692.09 -127.19)" cx="751.72" cy="91.413" r=".25"/>
   <circle transform="translate(-692.09 -127.19)" cx="744.76" cy="93.389" r=".25"/>
   <circle transform="translate(-692.09 -127.19)" cx="748.18" cy="98.739" r=".25"/>
   <circle transform="translate(-692.09 -127.19)" cx="751.6" cy="104.3" r=".25"/>
   <circle transform="translate(-692.09 -127.19)" cx="758.55" cy="102.03" r=".25"/>
   <circle transform="translate(-692.09 -127.19)" cx="755.14" cy="96.476" r=".25"/>
   <circle transform="translate(-692.09 -127.19)" cx="762.09" cy="94.294" r=".25"/>
   <circle transform="translate(-692.09 -127.19)" cx="765.71" cy="99.768" r=".25"/>
   <circle transform="translate(-692.09 -127.19)" cx="772.59" cy="97.669" r=".25"/>
   <circle transform="translate(-692.09 -127.19)" cx="769.13" cy="92.401" r=".25"/>
   <circle transform="translate(-692.09 -127.19)" cx="775.84" cy="90.302" r=".25"/>
   <circle transform="translate(-692.09 -127.19)" cx="779.58" cy="95.447" r=".25"/>
   <circle transform="translate(-692.09 -127.19)" cx="786.46" cy="93.43" r=".25"/>
   <circle transform="translate(-692.09 -127.19)" cx="783" cy="88.079" r=".25"/>
   <circle transform="translate(-692.09 -127.19)" cx="789.75" cy="85.98" r=".25"/>
   <circle transform="translate(-692.09 -127.19)" cx="793.37" cy="91.372" r=".25"/>
   <circle transform="translate(-692.09 -127.19)" cx="800.12" cy="89.108" r=".25"/>
   <circle transform="translate(-692.09 -127.19)" cx="806.95" cy="87.009" r=".25"/>
   <circle transform="translate(-692.09 -127.19)" cx="813.66" cy="84.787" r=".25"/>
   <circle transform="translate(-692.09 -127.19)" cx="817.41" cy="90.055" r=".25"/>
   <circle transform="translate(-692.09 -127.19)" cx="810.58" cy="92.319" r=".25"/>
   <circle transform="translate(-692.09 -127.19)" cx="803.7" cy="94.541" r=".25"/>
   <circle transform="translate(-692.09 -127.19)" cx="796.79" cy="96.64" r=".25"/>
   <circle transform="translate(-692.09 -127.19)" cx="789.75" cy="98.739" r=".25"/>
   <circle transform="translate(-692.09 -127.19)" cx="793.62" cy="104.3" r=".25"/>
   <circle transform="translate(-692.09 -127.19)" cx="800.37" cy="102.11" r=".25"/>
   <circle transform="translate(-692.09 -127.19)" cx="807.37" cy="99.809" r=".25"/>
   <circle transform="translate(-692.09 -127.19)" cx="814.07" cy="97.505" r=".25"/>
   <circle transform="translate(-692.09 -127.19)" cx="821.15" cy="95.282" r=".25"/>
   <circle transform="translate(-692.09 -127.19)" cx="824.65" cy="100.71" r=".25"/>
   <circle transform="translate(-692.09 -127.19)" cx="817.78" cy="103.06" r=".25"/>
   <circle transform="translate(-692.09 -127.19)" cx="810.82" cy="105.24" r=".25"/>
   <circle transform="translate(-692.09 -127.19)" cx="803.87" cy="107.46" r=".25"/>
   <circle transform="translate(-692.09 -127.19)" cx="796.95" cy="109.77" r=".25"/>
   <circle transform="translate(-692.09 -127.19)" cx="828.44" cy="106.11" r=".25"/>
   <circle transform="translate(-692.09 -127.19)" cx="821.61" cy="108.41" r=".25"/>
   <circle transform="translate(-692.09 -127.19)" cx="814.61" cy="110.8" r=".25"/>
   <circle transform="translate(-692.09 -127.19)" cx="807.61" cy="112.77" r=".25"/>
   <circle transform="translate(-692.09 -127.19)" cx="800.29" cy="115.24" r=".25"/>
   <circle transform="translate(-692.09 -127.19)" cx="804.24" cy="120.68" r=".25"/>
   <circle transform="translate(-692.09 -127.19)" cx="811.73" cy="118.37" r=".25"/>
   <circle transform="translate(-692.09 -127.19)" cx="818.23" cy="116.07" r=".25"/>
   <circle transform="translate(-692.09 -127.19)" cx="825.23" cy="113.76" r=".25"/>
   <circle transform="translate(-692.09 -127.19)" cx="832.06" cy="111.46" r=".25"/>
   <circle transform="translate(-692.09 -127.19)" cx="797.32" cy="122.73" r=".25"/>
   <circle transform="translate(-692.09 -127.19)" cx="794.03" cy="117.3" r=".25"/>
   <circle transform="translate(-692.09 -127.19)" cx="790.24" cy="111.79" r=".25"/>
   <circle transform="translate(-692.09 -127.19)" cx="786.46" cy="106.52" r=".25"/>
   <circle transform="translate(-692.09 -127.19)" cx="783.25" cy="100.76" r=".25"/>
   <circle transform="translate(-692.09 -127.19)" cx="776.17" cy="103.06" r=".25"/>
   <circle transform="translate(-692.09 -127.19)" cx="779.62" cy="108.58" r=".25"/>
   <circle transform="translate(-692.09 -127.19)" cx="783" cy="114.17" r=".25"/>
   <circle transform="translate(-692.09 -127.19)" cx="786.81" cy="119.53" r=".25"/>
   <circle transform="translate(-692.09 -127.19)" cx="626.38" cy="170.5" r=".25"/>
   <circle transform="translate(-692.09 -127.19)" cx="629.53" cy="176.67" r=".25"/>
   <circle transform="translate(-692.09 -127.19)" cx="618.96" cy="172.71" r=".25"/>
   <circle transform="translate(-692.09 -127.19)" cx="790.33" cy="125.04" r=".25"/>
   <circle transform="translate(-692.09 -127.19)" cx="783.33" cy="127.51" r=".25"/>
   <circle transform="translate(-692.09 -127.19)" cx="779.87" cy="121.75" r=".25"/>
   <circle transform="translate(-692.09 -127.19)" cx="776.25" cy="116.07" r=".25"/>
   <circle transform="translate(-692.09 -127.19)" cx="772.71" cy="110.63" r=".25"/>
   <circle transform="translate(-692.09 -127.19)" cx="769.17" cy="104.95" r=".25"/>
   <circle transform="translate(-692.09 -127.19)" cx="761.68" cy="107.34" r=".25"/>
   <circle transform="translate(-692.09 -127.19)" cx="765.55" cy="112.94" r=".25"/>
   <circle transform="translate(-692.09 -127.19)" cx="768.84" cy="118.54" r=".25"/>
   <circle transform="translate(-692.09 -127.19)" cx="772.79" cy="124.13" r=".25"/>
   <circle transform="translate(-692.09 -127.19)" cx="776.25" cy="129.9" r=".25"/>
   <circle transform="translate(-692.09 -127.19)" cx="755.01" cy="109.73" r=".25"/>
   <circle transform="translate(-692.09 -127.19)" cx="758.72" cy="115.49" r=".25"/>
   <circle transform="translate(-692.09 -127.19)" cx="762.26" cy="121.01" r=".25"/>
   <circle transform="translate(-692.09 -127.19)" cx="765.47" cy="126.52" r=".25"/>
   <circle transform="translate(-692.09 -127.19)" cx="768.95" cy="132.34" r=".25"/>
   <circle transform="translate(-692.09 -127.19)" cx="741.1" cy="100.92" r=".25"/>
   <circle transform="translate(-692.09 -127.19)" cx="744.64" cy="106.11" r=".25"/>
   <circle transform="translate(-692.09 -127.19)" cx="748.02" cy="111.95" r=".25"/>
   <circle transform="translate(-692.09 -127.19)" cx="751.23" cy="117.63" r=".25"/>
   <circle transform="translate(-692.09 -127.19)" cx="755.18" cy="123.72" r=".25"/>
   <circle transform="translate(-692.09 -127.19)" cx="758.52" cy="128.49" r=".25"/>
   <circle transform="translate(-692.09 -127.19)" cx="762.09" cy="134.26" r=".25"/>
   <circle transform="translate(-692.09 -127.19)" cx="754.91" cy="136.38" r=".25"/>
   <circle transform="translate(-692.09 -127.19)" cx="751.55" cy="130.47" r=".25"/>
   <circle transform="translate(-692.09 -127.19)" cx="747.93" cy="125.12" r=".25"/>
   <circle transform="translate(-692.09 -127.19)" cx="744.48" cy="119.69" r=".25"/>
   <circle transform="translate(-692.09 -127.19)" cx="741.02" cy="113.93" r=".25"/>
   <circle transform="translate(-692.09 -127.19)" cx="737.64" cy="108.49" r=".25"/>
   <circle transform="translate(-692.09 -127.19)" cx="734.27" cy="103.14" r=".25"/>
   <circle transform="translate(-692.09 -127.19)" cx="737.81" cy="95.488" r=".25"/>
   <circle transform="translate(-692.09 -127.19)" cx="730.89" cy="97.546" r=".25"/>
   <circle transform="translate(-692.09 -127.19)" cx="723.73" cy="99.851" r=".25"/>
   <circle transform="translate(-692.09 -127.19)" cx="726.94" cy="105.37" r=".25"/>
   <circle transform="translate(-692.09 -127.19)" cx="730.56" cy="110.72" r=".25"/>
   <circle transform="translate(-692.09 -127.19)" cx="734.02" cy="116.31" r=".25"/>
   <circle transform="translate(-692.09 -127.19)" cx="737.31" cy="121.91" r=".25"/>
   <circle transform="translate(-692.09 -127.19)" cx="740.77" cy="127.43" r=".25"/>
   <circle transform="translate(-692.09 -127.19)" cx="744.04" cy="132.87" r=".25"/>
   <circle transform="translate(-692.09 -127.19)" cx="747.7" cy="138.52" r=".25"/>
   <circle transform="translate(-692.09 -127.19)" cx="716.57" cy="101.91" r=".25"/>
   <circle transform="translate(-692.09 -127.19)" cx="709.57" cy="104.05" r=".25"/>
   <circle transform="translate(-692.09 -127.19)" cx="702.49" cy="106.44" r=".25"/>
   <circle transform="translate(-692.09 -127.19)" cx="695.17" cy="108.58" r=".25"/>
   <circle transform="translate(-692.09 -127.19)" cx="698.87" cy="114.26" r=".25"/>
   <circle transform="translate(-692.09 -127.19)" cx="705.95" cy="111.87" r=".25"/>
   <circle transform="translate(-692.09 -127.19)" cx="712.87" cy="109.56" r=".25"/>
   <circle transform="translate(-692.09 -127.19)" cx="720.03" cy="107.18" r=".25"/>
   <circle transform="translate(-692.09 -127.19)" cx="723.4" cy="112.94" r=".25"/>
   <circle transform="translate(-692.09 -127.19)" cx="716.24" cy="115" r=".25"/>
   <circle transform="translate(-692.09 -127.19)" cx="709.08" cy="117.47" r=".25"/>
   <circle transform="translate(-692.09 -127.19)" cx="701.75" cy="119.69" r=".25"/>
   <circle transform="translate(-692.09 -127.19)" cx="705.13" cy="125.2" r=".25"/>
   <circle transform="translate(-692.09 -127.19)" cx="712.37" cy="122.65" r=".25"/>
   <circle transform="translate(-692.09 -127.19)" cx="719.7" cy="120.35" r=".25"/>
   <circle transform="translate(-692.09 -127.19)" cx="726.86" cy="118.29" r=".25"/>
   <circle transform="translate(-692.09 -127.19)" cx="730.32" cy="124.13" r=".25"/>
   <circle transform="translate(-692.09 -127.19)" cx="722.91" cy="126.27" r=".25"/>
   <circle transform="translate(-692.09 -127.19)" cx="715.58" cy="128.5" r=".25"/>
   <circle transform="translate(-692.09 -127.19)" cx="708.5" cy="130.88" r=".25"/>
   <circle transform="translate(-692.09 -127.19)" cx="711.38" cy="136.4" r=".25"/>
   <circle transform="translate(-692.09 -127.19)" cx="719.12" cy="133.93" r=".25"/>
   <circle transform="translate(-692.09 -127.19)" cx="726.53" cy="131.62" r=".25"/>
   <circle transform="translate(-692.09 -127.19)" cx="733.36" cy="129.4" r=".25"/>
   <circle transform="translate(-692.09 -127.19)" cx="737.23" cy="135.08" r=".25"/>
   <circle transform="translate(-692.09 -127.19)" cx="740.8" cy="140.65" r=".25"/>
   <circle transform="translate(-692.09 -127.19)" cx="733.31" cy="143.12" r=".25"/>
   <circle transform="translate(-692.09 -127.19)" cx="729.82" cy="137.3" r=".25"/>
   <circle transform="translate(-692.09 -127.19)" cx="722.5" cy="139.53" r=".25"/>
   <circle transform="translate(-692.09 -127.19)" cx="726.06" cy="145.39" r=".25"/>
   <circle transform="translate(-692.09 -127.19)" cx="718.13" cy="147.59" r=".25"/>
   <circle transform="translate(-692.09 -127.19)" cx="715.01" cy="141.67" r=".25"/>
   <circle transform="translate(-692.09 -127.19)" cx="688.23" cy="110.92" r=".25"/>
   <circle transform="translate(-692.09 -127.19)" cx="691.49" cy="116.39" r=".25"/>
   <circle transform="translate(-692.09 -127.19)" cx="694.98" cy="122.1" r=".25"/>
   <circle transform="translate(-692.09 -127.19)" cx="698.24" cy="127.22" r=".25"/>
   <circle transform="translate(-692.09 -127.19)" cx="701.73" cy="133.27" r=".25"/>
   <circle transform="translate(-692.09 -127.19)" cx="704.76" cy="138.98" r=".25"/>
   <circle transform="translate(-692.09 -127.19)" cx="707.44" cy="144.33" r=".25"/>
   <circle transform="translate(-692.09 -127.19)" cx="710.93" cy="150.15" r=".25"/>
   <circle transform="translate(-692.09 -127.19)" cx="540.03" cy="155.86" r=".25"/>
   <circle transform="translate(-692.09 -127.19)" cx="547.6" cy="153.53" r=".25"/>
   <circle transform="translate(-692.09 -127.19)" cx="555.05" cy="151.2" r=".25"/>
   <circle transform="translate(-692.09 -127.19)" cx="562.97" cy="148.87" r=".25"/>
   <circle transform="translate(-692.09 -127.19)" cx="570.3" cy="146.54" r=".25"/>
   <circle transform="translate(-692.09 -127.19)" cx="577.98" cy="144.22" r=".25"/>
   <circle transform="translate(-692.09 -127.19)" cx="585.32" cy="142" r=".25"/>
   <circle transform="translate(-692.09 -127.19)" cx="593" cy="139.68" r=".25"/>
   <circle transform="translate(-692.09 -127.19)" cx="600.57" cy="137.46" r=".25"/>
   <circle transform="translate(-692.09 -127.19)" cx="607.79" cy="135.25" r=".25"/>
   <circle transform="translate(-692.09 -127.19)" cx="615.12" cy="132.81" r=".25"/>
   <circle transform="translate(-692.09 -127.19)" cx="622.92" cy="130.83" r=".25"/>
   <circle transform="translate(-692.09 -127.19)" cx="630.14" cy="128.5" r=".25"/>
   <circle transform="translate(-692.09 -127.19)" cx="637.59" cy="125.82" r=".25"/>
   <circle transform="translate(-692.09 -127.19)" cx="644.57" cy="123.61" r=".25"/>
   <circle transform="translate(-692.09 -127.19)" cx="652.02" cy="121.63" r=".25"/>
   <circle transform="translate(-692.09 -127.19)" cx="659.82" cy="119.3" r=".25"/>
   <circle transform="translate(-692.09 -127.19)" cx="666.81" cy="117.32" r=".25"/>
   <circle transform="translate(-692.09 -127.19)" cx="674.03" cy="115" r=".25"/>
   <circle transform="translate(-692.09 -127.19)" cx="681.24" cy="112.78" r=".25"/>
   <circle transform="translate(-692.09 -127.19)" cx="684.5" cy="118.25" r=".25"/>
   <circle transform="translate(-692.09 -127.19)" cx="677.28" cy="120.82" r=".25"/>
   <circle transform="translate(-692.09 -127.19)" cx="669.48" cy="122.68" r=".25"/>
   <circle transform="translate(-692.09 -127.19)" cx="672.74" cy="128.5" r=".25"/>
   <circle transform="translate(-692.09 -127.19)" cx="680.31" cy="126.29" r=".25"/>
   <circle transform="translate(-692.09 -127.19)" cx="687.65" cy="123.84" r=".25"/>
   <circle transform="translate(-692.09 -127.19)" cx="691.02" cy="129.66" r=".25"/>
   <circle transform="translate(-692.09 -127.19)" cx="683.57" cy="131.76" r=".25"/>
   <circle transform="translate(-692.09 -127.19)" cx="676" cy="133.74" r=".25"/>
   <circle transform="translate(-692.09 -127.19)" cx="679.26" cy="139.44" r=".25"/>
   <circle transform="translate(-692.09 -127.19)" cx="687.3" cy="137.58" r=".25"/>
   <circle transform="translate(-692.09 -127.19)" cx="694.51" cy="134.67" r=".25"/>
   <circle transform="translate(-692.09 -127.19)" cx="698.24" cy="140.37" r=".25"/>
   <circle transform="translate(-692.09 -127.19)" cx="689.97" cy="142.93" r=".25"/>
   <circle transform="translate(-692.09 -127.19)" cx="682.57" cy="145.21" r=".25"/>
   <circle transform="translate(-692.09 -127.19)" cx="686.07" cy="150.68" r=".25"/>
   <circle transform="translate(-692.09 -127.19)" cx="689.49" cy="156.57" r=".25"/>
   <circle transform="translate(-692.09 -127.19)" cx="696.73" cy="154.59" r=".25"/>
   <circle transform="translate(-692.09 -127.19)" cx="704.39" cy="152.2" r=".25"/>
   <circle transform="translate(-692.09 -127.19)" cx="700.85" cy="146.28" r=".25"/>
   <circle transform="translate(-692.09 -127.19)" cx="693.19" cy="148.17" r=".25"/>
   <circle transform="translate(-692.09 -127.19)" cx="682.49" cy="158.79" r=".25"/>
   <circle transform="translate(-692.09 -127.19)" cx="678.96" cy="153.14" r=".25"/>
   <circle transform="translate(-692.09 -127.19)" cx="675.41" cy="147.18" r=".25"/>
   <circle transform="translate(-692.09 -127.19)" cx="672.12" cy="141.59" r=".25"/>
   <circle transform="translate(-692.09 -127.19)" cx="668.99" cy="135.82" r=".25"/>
   <circle transform="translate(-692.09 -127.19)" cx="665.7" cy="130.31" r=".25"/>
   <circle transform="translate(-692.09 -127.19)" cx="662.49" cy="124.71" r=".25"/>
   <circle transform="translate(-692.09 -127.19)" cx="655.16" cy="127.34" r=".25"/>
   <circle transform="translate(-692.09 -127.19)" cx="658.45" cy="132.7" r=".25"/>
   <circle transform="translate(-692.09 -127.19)" cx="661.58" cy="138.21" r=".25"/>
   <circle transform="translate(-692.09 -127.19)" cx="664.79" cy="144.22" r=".25"/>
   <circle transform="translate(-692.09 -127.19)" cx="668.33" cy="149.65" r=".25"/>
   <circle transform="translate(-692.09 -127.19)" cx="671.54" cy="155.49" r=".25"/>
   <circle transform="translate(-692.09 -127.19)" cx="675.08" cy="161.18" r=".25"/>
   <circle transform="translate(-692.09 -127.19)" cx="647.95" cy="129.78" r=".25"/>
   <circle transform="translate(-692.09 -127.19)" cx="650.98" cy="135.37" r=".25"/>
   <circle transform="translate(-692.09 -127.19)" cx="654.35" cy="140.84" r=".25"/>
   <circle transform="translate(-692.09 -127.19)" cx="657.26" cy="146.43" r=".25"/>
   <circle transform="translate(-692.09 -127.19)" cx="660.17" cy="152.36" r=".25"/>
   <circle transform="translate(-692.09 -127.19)" cx="663.2" cy="158.36" r=".25"/>
   <circle transform="translate(-692.09 -127.19)" cx="665.99" cy="163.77" r=".25"/>
   <circle transform="translate(-692.09 -127.19)" cx="640.5" cy="132.11" r=".25"/>
   <circle transform="translate(-692.09 -127.19)" cx="643.64" cy="137.7" r=".25"/>
   <circle transform="translate(-692.09 -127.19)" cx="646.9" cy="143.4" r=".25"/>
   <circle transform="translate(-692.09 -127.19)" cx="649.81" cy="148.87" r=".25"/>
   <circle transform="translate(-692.09 -127.19)" cx="653.3" cy="155.51" r=".25"/>
   <circle transform="translate(-692.09 -127.19)" cx="656.21" cy="160.86" r=".25"/>
   <circle transform="translate(-692.09 -127.19)" cx="659.01" cy="166.45" r=".25"/>
   <circle transform="translate(-692.09 -127.19)" cx="642.83" cy="151.08" r=".25"/>
   <circle transform="translate(-692.09 -127.19)" cx="646.32" cy="157.25" r=".25"/>
   <circle transform="translate(-692.09 -127.19)" cx="649.52" cy="162.73" r=".25"/>
   <circle transform="translate(-692.09 -127.19)" cx="652.26" cy="168.89" r=".25"/>
   <circle transform="translate(-692.09 -127.19)" cx="639.77" cy="145.45" r=".25"/>
   <circle transform="translate(-692.09 -127.19)" cx="636.56" cy="140.02" r=".25"/>
   <circle transform="translate(-692.09 -127.19)" cx="633.18" cy="134.18" r=".25"/>
   <circle transform="translate(-692.09 -127.19)" cx="625.61" cy="136.48" r=".25"/>
   <circle transform="translate(-692.09 -127.19)" cx="629.07" cy="142.24" r=".25"/>
   <circle transform="translate(-692.09 -127.19)" cx="632.03" cy="147.84" r=".25"/>
   <circle transform="translate(-692.09 -127.19)" cx="635.32" cy="153.52" r=".25"/>
   <circle transform="translate(-692.09 -127.19)" cx="638.45" cy="159.94" r=".25"/>
   <circle transform="translate(-692.09 -127.19)" cx="641.7" cy="165.51" r=".25"/>
   <circle transform="translate(-692.09 -127.19)" cx="644.21" cy="171.47" r=".25"/>
   <circle transform="translate(-692.09 -127.19)" cx="618.45" cy="138.79" r=".25"/>
   <circle transform="translate(-692.09 -127.19)" cx="621.82" cy="144.71" r=".25"/>
   <circle transform="translate(-692.09 -127.19)" cx="624.54" cy="150.15" r=".25"/>
   <circle transform="translate(-692.09 -127.19)" cx="627.5" cy="155.91" r=".25"/>
   <circle transform="translate(-692.09 -127.19)" cx="630.7" cy="162.05" r=".25"/>
   <circle transform="translate(-692.09 -127.19)" cx="633.53" cy="168.17" r=".25"/>
   <circle transform="translate(-692.09 -127.19)" cx="636.64" cy="174.38" r=".25"/>
   <circle transform="translate(-692.09 -127.19)" cx="543.06" cy="161.79" r=".25"/>
   <circle transform="translate(-692.09 -127.19)" cx="550.63" cy="159.35" r=".25"/>
   <circle transform="translate(-692.09 -127.19)" cx="558.19" cy="157.25" r=".25"/>
   <circle transform="translate(-692.09 -127.19)" cx="565.64" cy="154.93" r=".25"/>
   <circle transform="translate(-692.09 -127.19)" cx="573.33" cy="152.6" r=".25"/>
   <circle transform="translate(-692.09 -127.19)" cx="580.89" cy="149.92" r=".25"/>
   <circle transform="translate(-692.09 -127.19)" cx="588.23" cy="147.59" r=".25"/>
   <circle transform="translate(-692.09 -127.19)" cx="595.91" cy="145.5" r=".25"/>
   <circle transform="translate(-692.09 -127.19)" cx="603.48" cy="143.17" r=".25"/>
   <circle transform="translate(-692.09 -127.19)" cx="610.58" cy="140.61" r=".25"/>
   <circle transform="translate(-692.09 -127.19)" cx="614.07" cy="146.66" r=".25"/>
   <circle transform="translate(-692.09 -127.19)" cx="606.16" cy="148.99" r=".25"/>
   <circle transform="translate(-692.09 -127.19)" cx="599.05" cy="151.43" r=".25"/>
   <circle transform="translate(-692.09 -127.19)" cx="591.37" cy="153.88" r=".25"/>
   <circle transform="translate(-692.09 -127.19)" cx="583.8" cy="156.09" r=".25"/>
   <circle transform="translate(-692.09 -127.19)" cx="576.47" cy="158.07" r=".25"/>
   <circle transform="translate(-692.09 -127.19)" cx="568.55" cy="160.86" r=".25"/>
   <circle transform="translate(-692.09 -127.19)" cx="560.75" cy="162.96" r=".25"/>
   <circle transform="translate(-692.09 -127.19)" cx="553.42" cy="165.17" r=".25"/>
   <circle transform="translate(-692.09 -127.19)" cx="545.97" cy="167.61" r=".25"/>
   <circle transform="translate(-692.09 -127.19)" cx="549.23" cy="173.44" r=".25"/>
   <circle transform="translate(-692.09 -127.19)" cx="556.45" cy="171.34" r=".25"/>
   <circle transform="translate(-692.09 -127.19)" cx="563.9" cy="168.66" r=".25"/>
   <circle transform="translate(-692.09 -127.19)" cx="571.81" cy="166.45" r=".25"/>
   <circle transform="translate(-692.09 -127.19)" cx="579.5" cy="164.01" r=".25"/>
   <circle transform="translate(-692.09 -127.19)" cx="586.6" cy="161.91" r=".25"/>
   <circle transform="translate(-692.09 -127.19)" cx="594.51" cy="159.47" r=".25"/>
   <circle transform="translate(-692.09 -127.19)" cx="601.85" cy="157.02" r=".25"/>
   <circle transform="translate(-692.09 -127.19)" cx="609.53" cy="154.58" r=".25"/>
   <circle transform="translate(-692.09 -127.19)" cx="617.22" cy="152.48" r=".25"/>
   <circle transform="translate(-692.09 -127.19)" cx="620.13" cy="158.18" r=".25"/>
   <circle transform="translate(-692.09 -127.19)" cx="612.21" cy="160.75" r=".25"/>
   <circle transform="translate(-692.09 -127.19)" cx="604.76" cy="162.96" r=".25"/>
   <circle transform="translate(-692.09 -127.19)" cx="596.38" cy="165.29" r=".25"/>
   <circle transform="translate(-692.09 -127.19)" cx="588.93" cy="167.5" r=".25"/>
   <circle transform="translate(-692.09 -127.19)" cx="582.06" cy="169.83" r=".25"/>
   <circle transform="translate(-692.09 -127.19)" cx="574.37" cy="172.62" r=".25"/>
   <circle transform="translate(-692.09 -127.19)" cx="566.92" cy="174.95" r=".25"/>
   <circle transform="translate(-692.09 -127.19)" cx="558.66" cy="177.16" r=".25"/>
   <circle transform="translate(-692.09 -127.19)" cx="551.56" cy="179.14" r=".25"/>
   <circle transform="translate(-692.09 -127.19)" cx="554.2" cy="185.38" r=".25"/>
   <circle transform="translate(-692.09 -127.19)" cx="561.91" cy="183.1" r=".25"/>
   <circle transform="translate(-692.09 -127.19)" cx="569.56" cy="180.69" r=".25"/>
   <circle transform="translate(-692.09 -127.19)" cx="577" cy="178.3" r=".25"/>
   <circle transform="translate(-692.09 -127.19)" cx="584.88" cy="175.76" r=".25"/>
   <circle transform="translate(-692.09 -127.19)" cx="591.94" cy="173.61" r=".25"/>
   <circle transform="translate(-692.09 -127.19)" cx="599.62" cy="171.29" r=".25"/>
   <circle transform="translate(-692.09 -127.19)" cx="607.55" cy="168.8" r=".25"/>
   <circle transform="translate(-692.09 -127.19)" cx="615.29" cy="166.67" r=".25"/>
   <circle transform="translate(-692.09 -127.19)" cx="623.12" cy="164.38" r=".25"/>
   <circle transform="translate(-692.09 -127.19)" cx="622.34" cy="179.05" r=".25"/>
   <circle transform="translate(-692.09 -127.19)" cx="610.93" cy="174.89" r=".25"/>
   <circle transform="translate(-692.09 -127.19)" cx="614.48" cy="181.47" r=".25"/>
   <circle transform="translate(-692.09 -127.19)" cx="603.42" cy="177.1" r=".25"/>
   <circle transform="translate(-692.09 -127.19)" cx="606.39" cy="183.62" r=".25"/>
   <circle transform="translate(-692.09 -127.19)" cx="595.21" cy="179.55" r=".25"/>
   <circle transform="translate(-692.09 -127.19)" cx="598.41" cy="186.12" r=".25"/>
   <circle transform="translate(-692.09 -127.19)" cx="588.05" cy="182.11" r=".25"/>
   <circle transform="translate(-692.09 -127.19)" cx="590.91" cy="187.99" r=".25"/>
   <circle transform="translate(-692.09 -127.19)" cx="580.37" cy="184.15" r=".25"/>
   <circle transform="translate(-692.09 -127.19)" cx="583.57" cy="190.02" r=".25"/>
   <circle transform="translate(-692.09 -127.19)" cx="572.98" cy="186.53" r=".25"/>
   <circle transform="translate(-692.09 -127.19)" cx="576.24" cy="192.47" r=".25"/>
   <circle transform="translate(-692.09 -127.19)" cx="565.47" cy="188.86" r=".25"/>
   <circle transform="translate(-692.09 -127.19)" cx="568.44" cy="194.74" r=".25"/>
   <circle transform="translate(-692.09 -127.19)" cx="557.67" cy="191.19" r=".25"/>
   <circle transform="translate(-692.09 -127.19)" cx="560.64" cy="197.01" r=".25"/>
  </g>
 </g>
</svg>
