<svg width="928" height="619" version="1.1" viewBox="0 0 245.53 163.78" xmlns="http://www.w3.org/2000/svg">
 <path d="m59.34 111 155.16-46.427" fill="none" stroke="#000" stroke-opacity=".4" stroke-width=".2876"/>
 <g fill="none" stroke="#000" stroke-opacity=".4">
  <path d="m37.306 62.615 147.34-42.37" stroke-width=".26773"/>
  <path d="m39.757 68.537 148.72-42.868" stroke-width=".27056"/>
  <path d="m42.607 74.585 149.49-43.564" stroke-width=".27345"/>
  <path d="m45.108 80.402 150.46-44.174" stroke-width=".27625"/>
  <path d="m47.753 86.072 151.28-44.493" stroke-width=".278"/>
  <path d="m50.254 91.967 152.68-44.748" stroke-width=".28008"/>
 </g>
 <g fill="none" stroke="#000" stroke-opacity=".4">
  <path d="m52.942 98.21 153.61-45.494" stroke-width=".28326"/>
  <path d="m55.768 104.56 154.69-46.344" stroke-width=".2869"/>
  <path d="m62.357 117.51 156.39-46.755" stroke-width=".28975"/>
  <path d="m65.065 123.79 157.39-47.501" stroke-width=".29298"/>
  <g stroke-width=".26405">
   <path d="m42.023 54.496 34.456 73.514"/>
   <path d="m49.793 52.247 34.865 73.514"/>
   <path d="m57.359 49.895 35.683 73.412"/>
   <path d="m65.13 47.953 36.092 72.798"/>
   <path d="m72.696 45.703 36.706 72.389"/>
   <path d="m80.262 43.454 36.501 72.083"/>
   <path d="m87.726 41.307 37.013 71.674"/>
   <path d="m95.292 39.364 37.319 70.958"/>
   <path d="m102.65 37.422 38.137 70.549"/>
   <path d="m110.02 35.274 39.057 69.629"/>
   <path d="m117.38 33.127 39.364 69.629"/>
   <path d="m124.53 31.082 40.08 69.22"/>
   <path d="m131.79 28.935 41.102 69.015"/>
   <path d="m138.95 26.89 41.818 68.708"/>
   <path d="m146.11 24.948 42.227 68.402"/>
   <path d="m153.26 22.698 42.329 68.606"/>
   <path d="m160.22 20.858 43.454 67.584"/>
   <path d="m167.07 18.813 43.556 67.584"/>
   <path d="m174.12 16.973 43.863 66.766"/>
  </g>
 </g>
</svg>
