<?xml version="1.0" encoding="UTF-8"?>
<!-- Created with Inkscape (http://www.inkscape.org/) -->
<svg width="500" height="500" version="1.1" viewBox="0 0 132.29 132.29" xmlns="http://www.w3.org/2000/svg">
 <g transform="translate(0 -164.71)">
  <g transform="matrix(.998 0 0 1 .13216 154.48)" fill="none" stroke="#000">
   <g opacity=".4" stroke-width=".26458">
    <path d="m13.229 0v152.76"/>
    <path d="m26.458 0v152.76"/>
    <path d="m39.688 0v152.76"/>
    <path d="m52.917 0v152.76"/>
    <path d="m66.146 0v152.76"/>
    <path d="m79.375 0v152.76"/>
    <path d="m92.604 0v152.76"/>
    <path d="m105.83 0v152.76"/>
    <path d="m119.06 0v152.76"/>
   </g>
   <g opacity=".4" stroke-width=".26458">
    <path d="m25.135 152.76-25.135-14.512"/>
    <path d="m51.594 152.76-51.594-29.788"/>
    <path d="m78.052 152.76-78.052-45.063"/>
    <path d="m104.51 152.76-104.51-60.339"/>
    <path d="m130.97 152.76-130.97-75.615"/>
    <path d="m132.29 138.25-132.29-76.379"/>
    <path d="m132.29 122.97-132.29-76.379"/>
    <path d="m132.29 107.69-132.29-76.379"/>
    <path d="m132.29 92.418-132.29-76.379"/>
    <path d="m132.29 77.142-132.29-76.379"/>
    <path d="m132.29 61.867-107.16-61.867"/>
    <path d="m132.29 46.591-80.698-46.591"/>
    <path d="m132.29 31.315-54.24-31.315"/>
    <path d="m132.29 16.04-27.781-16.04"/>
    <path d="m132.29 0.76379-1.3229-0.76379"/>
   </g>
   <g opacity=".4" stroke-width=".26458">
    <path d="m107.16 152.76 25.135-14.512"/>
    <path d="m80.698 152.76 51.594-29.788"/>
    <path d="m54.24 152.76 78.052-45.063"/>
    <path d="m27.781 152.76 104.51-60.339"/>
    <path d="m1.3229 152.76 130.97-75.615"/>
    <path d="m0 138.25 132.29-76.379"/>
    <path d="m0 122.97 132.29-76.379"/>
    <path d="m0 107.69 132.29-76.379"/>
    <path d="m0 92.418 132.29-76.379"/>
    <path d="m0 77.142 132.29-76.379"/>
    <path d="m0 61.867 107.16-61.867"/>
    <path d="m0 46.591 80.698-46.591"/>
    <path d="m0 31.315 54.24-31.315"/>
    <path d="m0 16.04 27.781-16.04"/>
    <path d="m0 0.76379 1.3229-0.76379"/>
   </g>
   <g opacity=".4" stroke-width=".13229">
    <path d="m6.6146 0v152.76"/>
    <path d="m19.844 0v152.76"/>
    <path d="m33.073 0v152.76"/>
    <path d="m46.302 0v152.76"/>
    <path d="m59.531 0v152.76"/>
    <path d="m72.76 0v152.76"/>
    <path d="m85.99 0v152.76"/>
    <path d="m99.219 0v152.76"/>
    <path d="m112.45 0v152.76"/>
    <path d="m125.68 0v152.76"/>
   </g>
   <g opacity=".4" stroke-width=".026458">
    <path d="m1.3229 0v152.76"/>
    <path d="m2.6458 0v152.76"/>
    <path d="m3.9688 0v152.76"/>
    <path d="m5.2917 0v152.76"/>
    <path d="m7.9375 0v152.76"/>
    <path d="m9.2604 0v152.76"/>
    <path d="m10.583 0v152.76"/>
    <path d="m11.906 0v152.76"/>
    <path d="m14.552 0v152.76"/>
    <path d="m15.875 0v152.76"/>
    <path d="m17.198 0v152.76"/>
    <path d="m18.521 0v152.76"/>
    <path d="m21.167 0v152.76"/>
    <path d="m22.49 0v152.76"/>
    <path d="m23.812 0v152.76"/>
    <path d="m25.135 0v152.76"/>
    <path d="m27.781 0v152.76"/>
    <path d="m29.104 0v152.76"/>
    <path d="m30.427 0v152.76"/>
    <path d="m31.75 0v152.76"/>
    <path d="m34.396 0v152.76"/>
    <path d="m35.719 0v152.76"/>
    <path d="m37.042 0v152.76"/>
    <path d="m38.365 0v152.76"/>
    <path d="m41.01 0v152.76"/>
    <path d="m42.333 0v152.76"/>
    <path d="m43.656 0v152.76"/>
    <path d="m44.979 0v152.76"/>
    <path d="m47.625 0v152.76"/>
    <path d="m48.948 0v152.76"/>
    <path d="m50.271 0v152.76"/>
    <path d="m51.594 0v152.76"/>
    <path d="m54.24 0v152.76"/>
    <path d="m55.562 0v152.76"/>
    <path d="m56.885 0v152.76"/>
    <path d="m58.208 0v152.76"/>
    <path d="m60.854 0v152.76"/>
    <path d="m62.177 0v152.76"/>
    <path d="m63.5 0v152.76"/>
    <path d="m64.823 0v152.76"/>
    <path d="m67.469 0v152.76"/>
    <path d="m68.792 0v152.76"/>
    <path d="m70.115 0v152.76"/>
    <path d="m71.438 0v152.76"/>
    <path d="m74.083 0v152.76"/>
    <path d="m75.406 0v152.76"/>
    <path d="m76.729 0v152.76"/>
    <path d="m78.052 0v152.76"/>
    <path d="m80.698 0v152.76"/>
    <path d="m82.021 0v152.76"/>
    <path d="m83.344 0v152.76"/>
    <path d="m84.667 0v152.76"/>
    <path d="m87.312 0v152.76"/>
    <path d="m88.635 0v152.76"/>
    <path d="m89.958 0v152.76"/>
    <path d="m91.281 0v152.76"/>
    <path d="m93.927 0v152.76"/>
    <path d="m95.25 0v152.76"/>
    <path d="m96.573 0v152.76"/>
    <path d="m97.896 0v152.76"/>
    <path d="m100.54 0v152.76"/>
    <path d="m101.86 0v152.76"/>
    <path d="m103.19 0v152.76"/>
    <path d="m104.51 0v152.76"/>
    <path d="m107.16 0v152.76"/>
    <path d="m108.48 0v152.76"/>
    <path d="m109.8 0v152.76"/>
    <path d="m111.12 0v152.76"/>
    <path d="m113.77 0v152.76"/>
    <path d="m115.09 0v152.76"/>
    <path d="m116.42 0v152.76"/>
    <path d="m117.74 0v152.76"/>
    <path d="m120.39 0v152.76"/>
    <path d="m121.71 0v152.76"/>
    <path d="m123.03 0v152.76"/>
    <path d="m124.35 0v152.76"/>
    <path d="m127 0v152.76"/>
    <path d="m128.32 0v152.76"/>
    <path d="m129.65 0v152.76"/>
    <path d="m130.97 0v152.76"/>
   </g>
   <g opacity=".4" stroke-width=".13229">
    <path d="m11.906 152.76-11.906-6.8741"/>
    <path d="m38.365 152.76-38.365-22.15"/>
    <path d="m64.823 152.76-64.823-37.426"/>
    <path d="m91.281 152.76-91.281-52.701"/>
    <path d="m117.74 152.76-117.74-67.977"/>
    <path d="m132.29 145.88-132.29-76.379"/>
    <path d="m132.29 130.61-132.29-76.379"/>
    <path d="m132.29 115.33-132.29-76.379"/>
    <path d="m132.29 100.06-132.29-76.379"/>
    <path d="m132.29 84.78-132.29-76.379"/>
    <path d="m132.29 69.505-120.39-69.505"/>
    <path d="m132.29 54.229-93.927-54.229"/>
    <path d="m132.29 38.953-67.469-38.953"/>
    <path d="m132.29 23.677-41.01-23.677"/>
    <path d="m132.29 8.4017-14.552-8.4017"/>
   </g>
   <g opacity=".4" stroke-width=".026458">
    <path d="m1.3229 152.76-1.3229-0.76379"/>
    <path d="m3.9688 152.76-3.9688-2.2914"/>
    <path d="m6.6146 152.76-6.6146-3.8189"/>
    <path d="m9.2604 152.76-9.2604-5.3465"/>
    <path d="m14.552 152.76-14.552-8.4016"/>
    <path d="m17.198 152.76-17.198-9.9292"/>
    <path d="m19.844 152.76-19.844-11.457"/>
    <path d="m22.49 152.76-22.49-12.984"/>
    <path d="m27.781 152.76-27.781-16.04"/>
    <path d="m30.427 152.76-30.427-17.567"/>
    <path d="m33.073 152.76-33.073-19.095"/>
    <path d="m35.719 152.76-35.719-20.622"/>
    <path d="m41.01 152.76-41.01-23.677"/>
    <path d="m43.656 152.76-43.656-25.205"/>
    <path d="m46.302 152.76-46.302-26.733"/>
    <path d="m48.948 152.76-48.948-28.26"/>
    <path d="m54.24 152.76-54.24-31.315"/>
    <path d="m56.885 152.76-56.885-32.843"/>
    <path d="m59.531 152.76-59.531-34.37"/>
    <path d="m62.177 152.76-62.177-35.898"/>
    <path d="m67.469 152.76-67.469-38.953"/>
    <path d="m70.115 152.76-70.115-40.481"/>
    <path d="m72.76 152.76-72.76-42.008"/>
    <path d="m75.406 152.76-75.406-43.536"/>
    <path d="m80.698 152.76-80.698-46.591"/>
    <path d="m83.344 152.76-83.344-48.119"/>
    <path d="m85.99 152.76-85.99-49.646"/>
    <path d="m88.635 152.76-88.635-51.174"/>
    <path d="m93.927 152.76-93.927-54.229"/>
    <path d="m96.573 152.76-96.573-55.756"/>
    <path d="m99.219 152.76-99.219-57.284"/>
    <path d="m101.86 152.76-101.86-58.812"/>
    <path d="m107.16 152.76-107.16-61.867"/>
    <path d="m109.8 152.76-109.8-63.394"/>
    <path d="m112.45 152.76-112.45-64.922"/>
    <path d="m115.09 152.76-115.09-66.449"/>
    <path d="m120.39 152.76-120.39-69.505"/>
    <path d="m123.03 152.76-123.03-71.032"/>
    <path d="m125.68 152.76-125.68-72.56"/>
    <path d="m128.32 152.76-128.32-74.087"/>
    <path d="m132.29 151.99-132.29-76.379"/>
    <path d="m132.29 150.47-132.29-76.379"/>
    <path d="m132.29 148.94-132.29-76.379"/>
    <path d="m132.29 147.41-132.29-76.379"/>
    <path d="m132.29 144.36-132.29-76.379"/>
    <path d="m132.29 142.83-132.29-76.379"/>
    <path d="m132.29 141.3-132.29-76.379"/>
    <path d="m132.29 139.77-132.29-76.379"/>
    <path d="m132.29 136.72-132.29-76.379"/>
    <path d="m132.29 135.19-132.29-76.379"/>
    <path d="m132.29 133.66-132.29-76.379"/>
    <path d="m132.29 132.14-132.29-76.379"/>
    <path d="m132.29 129.08-132.29-76.379"/>
    <path d="m132.29 127.55-132.29-76.379"/>
    <path d="m132.29 126.02-132.29-76.379"/>
    <path d="m132.29 124.5-132.29-76.379"/>
    <path d="m132.29 121.44-132.29-76.379"/>
    <path d="m132.29 119.91-132.29-76.379"/>
    <path d="m132.29 118.39-132.29-76.379"/>
    <path d="m132.29 116.86-132.29-76.379"/>
    <path d="m132.29 113.8-132.29-76.379"/>
    <path d="m132.29 112.28-132.29-76.379"/>
    <path d="m132.29 110.75-132.29-76.379"/>
    <path d="m132.29 109.22-132.29-76.379"/>
    <path d="m132.29 106.17-132.29-76.379"/>
    <path d="m132.29 104.64-132.29-76.379"/>
    <path d="m132.29 103.11-132.29-76.379"/>
    <path d="m132.29 101.58-132.29-76.379"/>
    <path d="m132.29 98.528-132.29-76.379"/>
    <path d="m132.29 97.001-132.29-76.379"/>
    <path d="m132.29 95.473-132.29-76.379"/>
    <path d="m132.29 93.946-132.29-76.379"/>
    <path d="m132.29 90.891-132.29-76.379"/>
    <path d="m132.29 89.363-132.29-76.379"/>
    <path d="m132.29 87.835-132.29-76.379"/>
    <path d="m132.29 86.308-132.29-76.379"/>
    <path d="m132.29 83.253-132.29-76.379"/>
    <path d="m132.29 81.725-132.29-76.379"/>
    <path d="m132.29 80.198-132.29-76.379"/>
    <path d="m132.29 78.67-132.29-76.379"/>
    <path d="m132.29 75.615-130.97-75.615"/>
    <path d="m132.29 74.087-128.32-74.087"/>
    <path d="m132.29 72.56-125.68-72.56"/>
    <path d="m132.29 71.032-123.03-71.032"/>
    <path d="m132.29 67.977-117.74-67.977"/>
    <path d="m132.29 66.449-115.09-66.449"/>
    <path d="m132.29 64.922-112.45-64.922"/>
    <path d="m132.29 63.394-109.8-63.394"/>
    <path d="m132.29 60.339-104.51-60.339"/>
    <path d="m132.29 58.812-101.86-58.812"/>
    <path d="m132.29 57.284-99.219-57.284"/>
    <path d="m132.29 55.756-96.573-55.756"/>
    <path d="m132.29 52.701-91.281-52.701"/>
    <path d="m132.29 51.174-88.635-51.174"/>
    <path d="m132.29 49.646-85.99-49.646"/>
    <path d="m132.29 48.119-83.344-48.119"/>
    <path d="m132.29 45.063-78.052-45.063"/>
    <path d="m132.29 43.536-75.406-43.536"/>
    <path d="m132.29 42.008-72.76-42.008"/>
    <path d="m132.29 40.481-70.115-40.481"/>
    <path d="m132.29 37.426-64.823-37.426"/>
    <path d="m132.29 35.898-62.177-35.898"/>
    <path d="m132.29 34.37-59.531-34.37"/>
    <path d="m132.29 32.843-56.885-32.843"/>
    <path d="m132.29 29.788-51.594-29.788"/>
    <path d="m132.29 28.26-48.948-28.26"/>
    <path d="m132.29 26.733-46.302-26.733"/>
    <path d="m132.29 25.205-43.656-25.205"/>
    <path d="m132.29 22.15-38.365-22.15"/>
    <path d="m132.29 20.622-35.719-20.622"/>
    <path d="m132.29 19.095-33.073-19.095"/>
    <path d="m132.29 17.567-30.427-17.567"/>
    <path d="m132.29 14.512-25.135-14.512"/>
    <path d="m132.29 12.984-22.49-12.984"/>
    <path d="m132.29 11.457-19.844-11.457"/>
    <path d="m132.29 9.9292-17.198-9.9292"/>
    <path d="m132.29 6.8741-11.906-6.8741"/>
    <path d="m132.29 5.3465-9.2604-5.3465"/>
    <path d="m132.29 3.8189-6.6146-3.8189"/>
    <path d="m132.29 2.2914-3.9688-2.2914"/>
   </g>
   <g opacity=".4" stroke-width=".13229">
    <path d="m120.39 152.76 11.906-6.8741"/>
    <path d="m93.927 152.76 38.365-22.15"/>
    <path d="m67.469 152.76 64.823-37.426"/>
    <path d="m41.01 152.76 91.281-52.701"/>
    <path d="m14.552 152.76 117.74-67.977"/>
    <path d="m0 145.88 132.29-76.379"/>
    <path d="m0 130.61 132.29-76.379"/>
    <path d="m0 115.33 132.29-76.379"/>
    <path d="m0 100.06 132.29-76.379"/>
    <path d="m0 84.78 132.29-76.379"/>
    <path d="m0 69.505 120.39-69.505"/>
    <path d="m0 54.229 93.927-54.229"/>
    <path d="m0 38.953 67.469-38.953"/>
    <path d="m0 23.677 41.01-23.677"/>
    <path d="m0 8.4017 14.552-8.4017"/>
   </g>
   <g opacity=".4" stroke-width=".026458">
    <path d="m130.97 152.76 1.3229-0.76379"/>
    <path d="m128.32 152.76 3.9688-2.2914"/>
    <path d="m125.68 152.76 6.6146-3.8189"/>
    <path d="m123.03 152.76 9.2604-5.3465"/>
    <path d="m117.74 152.76 14.552-8.4016"/>
    <path d="m115.09 152.76 17.198-9.9292"/>
    <path d="m112.45 152.76 19.844-11.457"/>
    <path d="m109.8 152.76 22.49-12.984"/>
    <path d="m104.51 152.76 27.781-16.04"/>
    <path d="m101.86 152.76 30.427-17.567"/>
    <path d="m99.219 152.76 33.073-19.095"/>
    <path d="m96.573 152.76 35.719-20.622"/>
    <path d="m91.281 152.76 41.01-23.677"/>
    <path d="m88.635 152.76 43.656-25.205"/>
    <path d="m85.99 152.76 46.302-26.733"/>
    <path d="m83.344 152.76 48.948-28.26"/>
    <path d="m78.052 152.76 54.24-31.315"/>
    <path d="m75.406 152.76 56.885-32.843"/>
    <path d="m72.76 152.76 59.531-34.37"/>
    <path d="m70.115 152.76 62.177-35.898"/>
    <path d="m64.823 152.76 67.469-38.953"/>
    <path d="m62.177 152.76 70.115-40.481"/>
    <path d="m59.531 152.76 72.76-42.008"/>
    <path d="m56.885 152.76 75.406-43.536"/>
    <path d="m51.594 152.76 80.698-46.591"/>
    <path d="m48.948 152.76 83.344-48.119"/>
    <path d="m46.302 152.76 85.99-49.646"/>
    <path d="m43.656 152.76 88.635-51.174"/>
    <path d="m38.365 152.76 93.927-54.229"/>
    <path d="m35.719 152.76 96.573-55.756"/>
    <path d="m33.073 152.76 99.219-57.284"/>
    <path d="m30.427 152.76 101.86-58.812"/>
    <path d="m25.135 152.76 107.16-61.867"/>
    <path d="m22.49 152.76 109.8-63.394"/>
    <path d="m19.844 152.76 112.45-64.922"/>
    <path d="m17.198 152.76 115.09-66.449"/>
    <path d="m11.906 152.76 120.39-69.505"/>
    <path d="m9.2604 152.76 123.03-71.032"/>
    <path d="m6.6146 152.76 125.68-72.56"/>
    <path d="m3.9688 152.76 128.32-74.087"/>
    <path d="m0 151.99 132.29-76.379"/>
    <path d="m0 150.47 132.29-76.379"/>
    <path d="m0 148.94 132.29-76.379"/>
    <path d="m0 147.41 132.29-76.379"/>
    <path d="m0 144.36 132.29-76.379"/>
    <path d="m0 142.83 132.29-76.379"/>
    <path d="m0 141.3 132.29-76.379"/>
    <path d="m0 139.77 132.29-76.379"/>
    <path d="m0 136.72 132.29-76.379"/>
    <path d="m0 135.19 132.29-76.379"/>
    <path d="m0 133.66 132.29-76.379"/>
    <path d="m0 132.14 132.29-76.379"/>
    <path d="m0 129.08 132.29-76.379"/>
    <path d="m0 127.55 132.29-76.379"/>
    <path d="m0 126.02 132.29-76.379"/>
    <path d="m0 124.5 132.29-76.379"/>
    <path d="m0 121.44 132.29-76.379"/>
    <path d="m0 119.91 132.29-76.379"/>
    <path d="m0 118.39 132.29-76.379"/>
    <path d="m0 116.86 132.29-76.379"/>
    <path d="m0 113.8 132.29-76.379"/>
    <path d="m0 112.28 132.29-76.379"/>
    <path d="m0 110.75 132.29-76.379"/>
    <path d="m0 109.22 132.29-76.379"/>
    <path d="m0 106.17 132.29-76.379"/>
    <path d="m0 104.64 132.29-76.379"/>
    <path d="m0 103.11 132.29-76.379"/>
    <path d="m0 101.58 132.29-76.379"/>
    <path d="m0 98.528 132.29-76.379"/>
    <path d="m0 97.001 132.29-76.379"/>
    <path d="m0 95.473 132.29-76.379"/>
    <path d="m0 93.946 132.29-76.379"/>
    <path d="m0 90.891 132.29-76.379"/>
    <path d="m0 89.363 132.29-76.379"/>
    <path d="m0 87.835 132.29-76.379"/>
    <path d="m0 86.308 132.29-76.379"/>
    <path d="m0 83.253 132.29-76.379"/>
    <path d="m0 81.725 132.29-76.379"/>
    <path d="m0 80.198 132.29-76.379"/>
    <path d="m0 78.67 132.29-76.379"/>
    <path d="m0 75.615 130.97-75.615"/>
    <path d="m0 74.087 128.32-74.087"/>
    <path d="m0 72.56 125.68-72.56"/>
    <path d="m0 71.032 123.03-71.032"/>
    <path d="m0 67.977 117.74-67.977"/>
    <path d="m0 66.449 115.09-66.449"/>
    <path d="m0 64.922 112.45-64.922"/>
    <path d="m0 63.394 109.8-63.394"/>
    <path d="m0 60.339 104.51-60.339"/>
    <path d="m0 58.812 101.86-58.812"/>
    <path d="m0 57.284 99.219-57.284"/>
    <path d="m0 55.756 96.573-55.756"/>
    <path d="m0 52.701 91.281-52.701"/>
    <path d="m0 51.174 88.635-51.174"/>
    <path d="m0 49.646 85.99-49.646"/>
    <path d="m0 48.119 83.344-48.119"/>
    <path d="m0 45.063 78.052-45.063"/>
    <path d="m0 43.536 75.406-43.536"/>
    <path d="m0 42.008 72.76-42.008"/>
    <path d="m0 40.481 70.115-40.481"/>
    <path d="m0 37.426 64.823-37.426"/>
    <path d="m0 35.898 62.177-35.898"/>
    <path d="m0 34.37 59.531-34.37"/>
    <path d="m0 32.843 56.885-32.843"/>
    <path d="m0 29.788 51.594-29.788"/>
    <path d="m0 28.26 48.948-28.26"/>
    <path d="m0 26.733 46.302-26.733"/>
    <path d="m0 25.205 43.656-25.205"/>
    <path d="m0 22.15 38.365-22.15"/>
    <path d="m0 20.622 35.719-20.622"/>
    <path d="m0 19.095 33.073-19.095"/>
    <path d="m0 17.567 30.427-17.567"/>
    <path d="m0 14.512 25.135-14.512"/>
    <path d="m0 12.984 22.49-12.984"/>
    <path d="M 0,11.4568 19.84375,0"/>
    <path d="m0 9.9292 17.198-9.9292"/>
    <path d="m0 6.8741 11.906-6.8741"/>
    <path d="m0 5.3465 9.2604-5.3465"/>
    <path d="m0 3.8189 6.6146-3.8189"/>
    <path d="m0 2.2914 3.9688-2.2914"/>
   </g>
   <rect width="132.29" height="152.76" opacity=".4" stroke-width=".26458"/>
  </g>
 </g>
</svg>
