<?xml version="1.0" encoding="UTF-8"?>
<!-- Created with Inkscape (http://www.inkscape.org/) -->
<svg width="500" height="500" version="1.1" viewBox="0 0 132.29 132.29" xmlns="http://www.w3.org/2000/svg">
 <g transform="translate(0 -164.71)">
  <g transform="translate(1.6948)" fill="none" stroke="#000">
   <path d="m11.065 190.45h109.9" stroke-width=".091144"/>
   <rect x="7.9901" y="187.38" width="3.0752" height="3.0752" stroke-width=".099768"/>
  </g>
  <path d="m42.855 177.88h46.582" fill="none" stroke="#000" stroke-width=".11274"/>
  <text transform="scale(1.0027 .99731)" x="60.864548" y="170.77852" fill="#000000" font-family="Constantia" font-size="10.612px" letter-spacing="0px" stroke-width=".2653" word-spacing="0px" style="line-height:1.25" xml:space="preserve"><tspan x="60.864548" y="170.77852" font-family="Constantia" font-size="3.5278px" stroke-width=".2653" style="line-height:1">Recipe</tspan></text>
  <g transform="translate(1.6948 3.0752)" fill="none" stroke="#000">
   <path d="m11.065 190.45h109.9" stroke-width=".091144"/>
   <rect x="7.9901" y="187.38" width="3.0752" height="3.0752" stroke-width=".099768"/>
  </g>
  <g transform="translate(1.6948 6.1505)" fill="none" stroke="#000">
   <path d="m11.065 190.45h109.9" stroke-width=".091144"/>
   <rect x="7.9901" y="187.38" width="3.0752" height="3.0752" stroke-width=".099768"/>
  </g>
  <g transform="translate(1.6948 9.2257)" fill="none" stroke="#000">
   <path d="m11.065 190.45h109.9" stroke-width=".091144"/>
   <rect x="7.9901" y="187.38" width="3.0752" height="3.0752" stroke-width=".099768"/>
  </g>
  <g transform="translate(1.6948 12.301)" fill="none" stroke="#000">
   <path d="m11.065 190.45h109.9" stroke-width=".091144"/>
   <rect x="7.9901" y="187.38" width="3.0752" height="3.0752" stroke-width=".099768"/>
  </g>
  <g transform="translate(1.6948 15.376)" fill="none" stroke="#000">
   <path d="m11.065 190.45h109.9" stroke-width=".091144"/>
   <rect x="7.9901" y="187.38" width="3.0752" height="3.0752" stroke-width=".099768"/>
  </g>
  <g transform="translate(1.6948 18.451)" fill="none" stroke="#000">
   <path d="m11.065 190.45h109.9" stroke-width=".091144"/>
   <rect x="7.9901" y="187.38" width="3.0752" height="3.0752" stroke-width=".099768"/>
  </g>
  <g transform="translate(1.6948 21.527)" fill="none" stroke="#000">
   <path d="m11.065 190.45h109.9" stroke-width=".091144"/>
   <rect x="7.9901" y="187.38" width="3.0752" height="3.0752" stroke-width=".099768"/>
  </g>
  <g transform="translate(1.6948 24.602)" fill="none" stroke="#000">
   <path d="m11.065 190.45h109.9" stroke-width=".091144"/>
   <rect x="7.9901" y="187.38" width="3.0752" height="3.0752" stroke-width=".099768"/>
  </g>
  <g transform="translate(1.6948 27.677)" fill="none" stroke="#000">
   <path d="m11.065 190.45h109.9" stroke-width=".091144"/>
   <rect x="7.9901" y="187.38" width="3.0752" height="3.0752" stroke-width=".099768"/>
  </g>
  <g transform="translate(1.6948 30.752)" fill="none" stroke="#000">
   <path d="m11.065 190.45h109.9" stroke-width=".091144"/>
   <rect x="7.9901" y="187.38" width="3.0752" height="3.0752" stroke-width=".099768"/>
  </g>
  <g transform="translate(1.6948 33.827)" fill="none" stroke="#000">
   <path d="m11.065 190.45h109.9" stroke-width=".091144"/>
   <rect x="7.9901" y="187.38" width="3.0752" height="3.0752" stroke-width=".099768"/>
  </g>
  <g transform="translate(1.6948 36.903)" fill="none" stroke="#000">
   <path d="m11.065 190.45h109.9" stroke-width=".091144"/>
   <rect x="7.9901" y="187.38" width="3.0752" height="3.0752" stroke-width=".099768"/>
  </g>
  <g transform="translate(1.6948 39.978)" fill="none" stroke="#000">
   <path d="m11.065 190.45h109.9" stroke-width=".091144"/>
   <rect x="7.9901" y="187.38" width="3.0752" height="3.0752" stroke-width=".099768"/>
  </g>
  <g transform="translate(1.6948 43.053)" fill="none" stroke="#000">
   <path d="m11.065 190.45h109.9" stroke-width=".091144"/>
   <rect x="7.9901" y="187.38" width="3.0752" height="3.0752" stroke-width=".099768"/>
  </g>
  <g transform="translate(1.6948 46.128)" fill="none" stroke="#000">
   <path d="m11.065 190.45h109.9" stroke-width=".091144"/>
   <rect x="7.9901" y="187.38" width="3.0752" height="3.0752" stroke-width=".099768"/>
  </g>
  <g transform="translate(1.6948 49.204)" fill="none" stroke="#000">
   <path d="m11.065 190.45h109.9" stroke-width=".091144"/>
   <rect x="7.9901" y="187.38" width="3.0752" height="3.0752" stroke-width=".099768"/>
  </g>
  <g transform="translate(1.6948 52.279)" fill="none" stroke="#000">
   <path d="m11.065 190.45h109.9" stroke-width=".091144"/>
   <rect x="7.9901" y="187.38" width="3.0752" height="3.0752" stroke-width=".099768"/>
  </g>
  <g transform="translate(1.6948 55.354)" fill="none" stroke="#000">
   <path d="m11.065 190.45h109.9" stroke-width=".091144"/>
   <rect x="7.9901" y="187.38" width="3.0752" height="3.0752" stroke-width=".099768"/>
  </g>
  <g transform="translate(1.6948 58.429)" fill="none" stroke="#000">
   <path d="m11.065 190.45h109.9" stroke-width=".091144"/>
   <rect x="7.9901" y="187.38" width="3.0752" height="3.0752" stroke-width=".099768"/>
  </g>
  <g transform="translate(1.6948 61.505)" fill="none" stroke="#000">
   <path d="m11.065 190.45h109.9" stroke-width=".091144"/>
   <rect x="7.9901" y="187.38" width="3.0752" height="3.0752" stroke-width=".099768"/>
  </g>
  <g transform="translate(1.6948 64.58)" fill="none" stroke="#000">
   <path d="m11.065 190.45h109.9" stroke-width=".091144"/>
   <rect x="7.9901" y="187.38" width="3.0752" height="3.0752" stroke-width=".099768"/>
  </g>
  <g transform="translate(1.6948 67.655)" fill="none" stroke="#000">
   <path d="m11.065 190.45h109.9" stroke-width=".091144"/>
   <rect x="7.9901" y="187.38" width="3.0752" height="3.0752" stroke-width=".099768"/>
  </g>
  <g transform="translate(1.6948 70.73)" fill="none" stroke="#000">
   <path d="m11.065 190.45h109.9" stroke-width=".091144"/>
   <rect x="7.9901" y="187.38" width="3.0752" height="3.0752" stroke-width=".099768"/>
  </g>
  <g transform="translate(1.6948 73.805)" fill="none" stroke="#000">
   <path d="m11.065 190.45h109.9" stroke-width=".091144"/>
   <rect x="7.9901" y="187.38" width="3.0752" height="3.0752" stroke-width=".099768"/>
  </g>
  <g transform="translate(1.6948 76.881)" fill="none" stroke="#000">
   <path d="m11.065 190.45h109.9" stroke-width=".091144"/>
   <rect x="7.9901" y="187.38" width="3.0752" height="3.0752" stroke-width=".099768"/>
  </g>
  <g transform="translate(1.6948 79.956)" fill="none" stroke="#000">
   <path d="m11.065 190.45h109.9" stroke-width=".091144"/>
   <rect x="7.9901" y="187.38" width="3.0752" height="3.0752" stroke-width=".099768"/>
  </g>
  <g transform="translate(1.6948 83.031)" fill="none" stroke="#000">
   <path d="m11.065 190.45h109.9" stroke-width=".091144"/>
   <rect x="7.9901" y="187.38" width="3.0752" height="3.0752" stroke-width=".099768"/>
  </g>
  <g transform="translate(1.6948 86.106)" fill="none" stroke="#000">
   <path d="m11.065 190.45h109.9" stroke-width=".091144"/>
   <rect x="7.9901" y="187.38" width="3.0752" height="3.0752" stroke-width=".099768"/>
  </g>
  <g transform="translate(1.6948 89.182)" fill="none" stroke="#000">
   <path d="m11.065 190.45h109.9" stroke-width=".091144"/>
   <rect x="7.9901" y="187.38" width="3.0752" height="3.0752" stroke-width=".099768"/>
  </g>
  <g transform="translate(1.6948 92.257)" fill="none" stroke="#000">
   <path d="m11.065 190.45h109.9" stroke-width=".091144"/>
   <rect x="7.9901" y="187.38" width="3.0752" height="3.0752" stroke-width=".099768"/>
  </g>
  <g transform="translate(1.6948 95.332)" fill="none" stroke="#000">
   <path d="m11.065 190.45h109.9" stroke-width=".091144"/>
   <rect x="7.9901" y="187.38" width="3.0752" height="3.0752" stroke-width=".099768"/>
  </g>
  <g transform="translate(1.6948 98.407)" fill="none" stroke="#000">
   <path d="m11.065 190.45h109.9" stroke-width=".091144"/>
   <rect x="7.9901" y="187.38" width="3.0752" height="3.0752" stroke-width=".099768"/>
  </g>
  <g transform="translate(1.6948 101.48)" fill="none" stroke="#000">
   <path d="m11.065 190.45h109.9" stroke-width=".091144"/>
   <rect x="7.9901" y="187.38" width="3.0752" height="3.0752" stroke-width=".099768"/>
  </g>
 </g>
</svg>
