<?xml version="1.0" encoding="UTF-8"?>
<!-- Created with Inkscape (http://www.inkscape.org/) -->
<svg width="500" height="500" version="1.1" viewBox="0 0 132.29 132.29" xmlns="http://www.w3.org/2000/svg">
 <metadata>
  <rdf:RDF>
   <cc:Work rdf:about="">
    <dc:format>image/svg+xml</dc:format>
    <dc:type rdf:resource="http://purl.org/dc/dcmitype/StillImage"/>
    <dc:title/>
   </cc:Work>
  </rdf:RDF>
 </metadata>
 <g transform="translate(0 -164.71)">
  <g fill="none" stroke="#000" stroke-width=".15098">
   <path d="m30.075 170.65v10.357"/>
   <path d="m45.075 170.65v10.357"/>
   <path d="m60.075 170.65v10.357"/>
   <path d="m92.575 170.65v10.357"/>
  </g>
  <g transform="translate(1.5396)">
   <rect x="5.075" y="170.72" width="119.06" height="10.205" fill="none" stroke="#000" stroke-width=".15"/>
   <g fill="#000000" font-family="Constantia" font-size="10.583px" letter-spacing="0px" stroke-width=".26458" word-spacing="0px">
    <text x="6.1471992" y="173.78876" style="line-height:1.25" xml:space="preserve"><tspan x="6.1471992" y="173.78876" font-family="Constantia" font-size="2.1167px" stroke-width=".26458">Title</tspan></text>
    <text x="31.270535" y="173.78876" style="line-height:1.25" xml:space="preserve"><tspan x="31.270535" y="173.78876" font-family="Constantia" font-size="2.1167px" stroke-width=".26458">Date</tspan></text>
    <text x="46.103992" y="173.78876" style="line-height:1.25" xml:space="preserve"><tspan x="46.103992" y="173.78876" font-family="Constantia" font-size="2.1167px" stroke-width=".26458">No.</tspan></text>
    <text x="61.405174" y="173.78876" style="line-height:1.25" xml:space="preserve"><tspan x="61.405174" y="173.78876" font-family="Constantia" font-size="2.1167px" stroke-width=".26458">Recorded By</tspan></text>
    <text x="94.012054" y="173.78876" style="line-height:1.25" xml:space="preserve"><tspan x="94.012054" y="173.78876" font-family="Constantia" font-size="2.1167px" stroke-width=".26458">Signature</tspan></text>
   </g>
  </g>
  <path d="m6.6112 181v110.92m2.3814-110.92v110.92m2.3814-110.92v110.92m2.3814-110.92v110.92m2.3814-110.92v110.92m2.3814-110.92v110.92m2.3814-110.92v110.92m2.3814-110.92v110.92m2.3814-110.92v110.92m2.3814-110.92v110.92m2.3814-110.92v110.92m2.3814-110.92v110.92m2.3814-110.92v110.92m2.3814-110.92v110.92m2.3814-110.92v110.92m2.3814-110.92v110.92m2.3814-110.92v110.92m2.3814-110.92v110.92m2.3814-110.92v110.92m2.3814-110.92v110.92m2.3814-110.92v110.92m2.3814-110.92v110.92m2.3814-110.92v110.92m2.3814-110.92v110.92m2.3814-110.92v110.92m2.3814-110.92v110.92m2.3814-110.92v110.92m2.3814-110.92v110.92m2.3814-110.92v110.92m2.3814-110.92v110.92m2.3814-110.92v110.92m2.3814-110.92v110.92m2.3814-110.92v110.92m2.3814-110.92v110.92m2.3814-110.92v110.92m2.3814-110.92v110.92m2.3814-110.92v110.92m2.3814-110.92v110.92m2.3814-110.92v110.92m2.3814-110.92v110.92m2.3814-110.92v110.92m2.3814-110.92v110.92m2.3814-110.92v110.92m2.3814-110.92v110.92m2.3814-110.92v110.92m2.3814-110.92v110.92m2.3814-110.92v110.92m2.3814-110.92v110.92m2.3814-110.92v110.92m2.3814-110.92v110.92m2.3814-110.92v110.92m-119.07-110.92h119.07m-119.07 2.2183h119.07m-119.07 2.2183h119.07m-119.07 2.2183h119.07m-119.07 2.2183h119.07m-119.07 2.2183h119.07m-119.07 2.2183h119.07m-119.07 2.2183h119.07m-119.07 2.2184h119.07m-119.07 2.2183h119.07m-119.07 2.2183h119.07m-119.07 2.2183h119.07m-119.07 2.2183h119.07m-119.07 2.2183h119.07m-119.07 2.2183h119.07m-119.07 2.2183h119.07m-119.07 2.2183h119.07m-119.07 2.2183h119.07m-119.07 2.2183h119.07m-119.07 2.2183h119.07m-119.07 2.2184h119.07m-119.07 2.2183h119.07m-119.07 2.2183h119.07m-119.07 2.2183h119.07m-119.07 2.2183h119.07m-119.07 2.2183h119.07m-119.07 2.2183h119.07m-119.07 2.2183h119.07m-119.07 2.2183h119.07m-119.07 2.2183h119.07m-119.07 2.2183h119.07m-119.07 2.2184h119.07m-119.07 2.2183h119.07m-119.07 2.2183h119.07m-119.07 2.2183h119.07m-119.07 2.2184h119.07m-119.07 2.2183h119.07m-119.07 2.2183h119.07m-119.07 2.2183h119.07m-119.07 2.2183h119.07m-119.07 2.2183h119.07m-119.07 2.2183h119.07m-119.07 2.2183h119.07m-119.07 2.2184h119.07m-119.07 2.2183h119.07m-119.07 2.2183h119.07m-119.07 2.2183h119.07m-119.07 2.2183h119.07m-119.07 2.2183h119.07m-119.07 2.2183h119.07m-119.07 2.2183h119.07" fill="none" stroke="#000" stroke-width=".068952px"/>
 </g>
</svg>
