<?xml version="1.0" encoding="UTF-8"?>
<svg width="50" height="50" version="1.1" viewBox="0 0 50 50" xmlns="http://www.w3.org/2000/svg">
 <g fill="#231f20" stroke-width="1.0455">
  <ellipse cx="5.9736" cy="5.2517" rx=".54831" ry=".49835" opacity=".125"/>
  <ellipse cx="11.457" cy="5.2517" rx=".54831" ry=".49835" opacity=".125"/>
  <ellipse cx="16.94" cy="5.2517" rx=".54831" ry=".49835" opacity=".125"/>
  <ellipse cx="22.357" cy="5.2517" rx=".54831" ry=".49835" opacity=".125"/>
  <ellipse cx="27.774" cy="5.2517" rx=".54831" ry=".49835" opacity=".125"/>
  <ellipse cx="33.192" cy="5.2517" rx=".54831" ry=".49835" opacity=".125"/>
  <ellipse cx="38.609" cy="5.2517" rx=".54831" ry=".49835" opacity=".125"/>
  <ellipse cx="44.026" cy="5.2517" rx=".54831" ry=".49835" opacity=".125"/>
  <ellipse cx="5.9736" cy="10.205" rx=".54831" ry=".49835" opacity=".125"/>
  <ellipse cx="11.457" cy="10.205" rx=".54831" ry=".49835" opacity=".125"/>
  <ellipse cx="16.94" cy="10.205" rx=".54831" ry=".49835" opacity=".125"/>
  <ellipse cx="22.357" cy="10.205" rx=".54831" ry=".49835" opacity=".125"/>
  <ellipse cx="27.774" cy="10.205" rx=".54831" ry=".49835" opacity=".125"/>
  <ellipse cx="33.192" cy="10.205" rx=".54831" ry=".49835" opacity=".125"/>
  <ellipse cx="38.609" cy="10.205" rx=".54831" ry=".49835" opacity=".125"/>
  <ellipse cx="44.026" cy="10.205" rx=".54831" ry=".49835" opacity=".125"/>
  <ellipse cx="5.9736" cy="15.169" rx=".54831" ry=".49835" opacity=".125"/>
  <ellipse cx="11.457" cy="15.169" rx=".54831" ry=".49835" opacity=".125"/>
  <ellipse cx="16.94" cy="15.169" rx=".54831" ry=".49835" opacity=".125"/>
  <ellipse cx="22.357" cy="15.169" rx=".54831" ry=".49835" opacity=".125"/>
  <ellipse cx="27.774" cy="15.169" rx=".54831" ry=".49835" opacity=".125"/>
  <ellipse cx="33.192" cy="15.169" rx=".54831" ry=".49835" opacity=".125"/>
  <ellipse cx="38.609" cy="15.169" rx=".54831" ry=".49835" opacity=".125"/>
  <ellipse cx="44.026" cy="15.169" rx=".54831" ry=".49835" opacity=".125"/>
  <ellipse cx="5.9736" cy="20.132" rx=".54831" ry=".49835" opacity=".125"/>
  <ellipse cx="11.457" cy="20.132" rx=".54831" ry=".49835" opacity=".125"/>
  <ellipse cx="16.94" cy="20.132" rx=".54831" ry=".49835" opacity=".125"/>
  <ellipse cx="22.357" cy="20.132" rx=".54831" ry=".49835" opacity=".125"/>
  <ellipse cx="27.774" cy="20.132" rx=".54831" ry=".49835" opacity=".125"/>
  <ellipse cx="33.192" cy="20.132" rx=".54831" ry=".49835" opacity=".125"/>
  <ellipse cx="38.609" cy="20.132" rx=".54831" ry=".49835" opacity=".125"/>
  <ellipse cx="44.026" cy="20.132" rx=".54831" ry=".49835" opacity=".125"/>
  <ellipse cx="5.9736" cy="25.096" rx=".54831" ry=".49835" opacity=".125"/>
  <ellipse cx="11.457" cy="25.096" rx=".54831" ry=".49835" opacity=".125"/>
  <ellipse cx="16.94" cy="25.096" rx=".54831" ry=".49835" opacity=".125"/>
  <ellipse cx="22.357" cy="25.096" rx=".54831" ry=".49835" opacity=".125"/>
  <ellipse cx="27.774" cy="25.096" rx=".54831" ry=".49835" opacity=".125"/>
  <ellipse cx="33.192" cy="25.096" rx=".54831" ry=".49835" opacity=".125"/>
  <ellipse cx="38.609" cy="25.096" rx=".54831" ry=".49835" opacity=".125"/>
  <ellipse cx="44.026" cy="25.096" rx=".54831" ry=".49835" opacity=".125"/>
  <ellipse cx="5.9736" cy="30.06" rx=".54831" ry=".49835" opacity=".125"/>
  <ellipse cx="11.457" cy="30.06" rx=".54831" ry=".49835" opacity=".125"/>
  <ellipse cx="16.94" cy="30.06" rx=".54831" ry=".49835" opacity=".125"/>
  <ellipse cx="22.357" cy="30.06" rx=".54831" ry=".49835" opacity=".125"/>
  <ellipse cx="27.774" cy="30.06" rx=".54831" ry=".49835" opacity=".125"/>
  <ellipse cx="33.192" cy="30.06" rx=".54831" ry=".49835" opacity=".125"/>
  <ellipse cx="38.609" cy="30.06" rx=".54831" ry=".49835" opacity=".125"/>
  <ellipse cx="44.026" cy="30.06" rx=".54831" ry=".49835" opacity=".125"/>
  <ellipse cx="5.9736" cy="35.023" rx=".54831" ry=".49835" opacity=".125"/>
  <ellipse cx="11.457" cy="35.023" rx=".54831" ry=".49835" opacity=".125"/>
  <ellipse cx="16.94" cy="35.023" rx=".54831" ry=".49835" opacity=".125"/>
  <ellipse cx="22.357" cy="35.023" rx=".54831" ry=".49835" opacity=".125"/>
  <ellipse cx="27.774" cy="35.023" rx=".54831" ry=".49835" opacity=".125"/>
  <ellipse cx="33.192" cy="35.023" rx=".54831" ry=".49835" opacity=".125"/>
  <ellipse cx="38.609" cy="35.023" rx=".54831" ry=".49835" opacity=".125"/>
  <ellipse cx="44.026" cy="35.023" rx=".54831" ry=".49835" opacity=".125"/>
  <ellipse cx="5.9736" cy="39.977" rx=".54831" ry=".49835" opacity=".125"/>
  <ellipse cx="11.457" cy="39.977" rx=".54831" ry=".49835" opacity=".125"/>
  <ellipse cx="16.94" cy="39.977" rx=".54831" ry=".49835" opacity=".125"/>
  <ellipse cx="22.357" cy="39.977" rx=".54831" ry=".49835" opacity=".125"/>
  <ellipse cx="27.774" cy="39.977" rx=".54831" ry=".49835" opacity=".125"/>
  <ellipse cx="33.192" cy="39.977" rx=".54831" ry=".49835" opacity=".125"/>
  <ellipse cx="38.609" cy="39.977" rx=".54831" ry=".49835" opacity=".125"/>
  <ellipse cx="44.026" cy="39.977" rx=".54831" ry=".49835" opacity=".125"/>
  <ellipse cx="5.9736" cy="44.94" rx=".54831" ry=".49835" opacity=".125"/>
  <ellipse cx="11.457" cy="44.94" rx=".54831" ry=".49835" opacity=".125"/>
  <ellipse cx="16.94" cy="44.94" rx=".54831" ry=".49835" opacity=".125"/>
  <ellipse cx="22.357" cy="44.94" rx=".54831" ry=".49835" opacity=".125"/>
  <ellipse cx="27.774" cy="44.94" rx=".54831" ry=".49835" opacity=".125"/>
  <ellipse cx="33.192" cy="44.94" rx=".54831" ry=".49835" opacity=".125"/>
  <ellipse cx="38.609" cy="44.94" rx=".54831" ry=".49835" opacity=".125"/>
  <ellipse cx="44.026" cy="44.94" rx=".54831" ry=".49835" opacity=".125"/>
 </g>
</svg>
