<svg width="212.22" height="79.982" version="1.1" viewBox="0 0 56.15 21.162" xmlns="http://www.w3.org/2000/svg">
 <g transform="translate(-2.5304 -2.923)" fill="none" stroke="#000">
  <path class="path-1" transform="matrix(.99969 .025014 -.02755 .99962 0 0)" d="m58.816 12.994a27.774 9.9352 0 0 1-27.774 9.9352 27.774 9.9352 0 0 1-27.774-9.9352 27.774 9.9352 0 0 1 27.774-9.9352 27.774 9.9352 0 0 1 27.774 9.9352z" stroke-width=".47805"/>
  <path class="path-2" transform="matrix(.9982 .059964 -.061307 .99812 0 0)" d="m58.577 11.665a27.538 10.224 0 0 1-27.538 10.224 27.538 10.224 0 0 1-27.538-10.224 27.538 10.224 0 0 1 27.538-10.224 27.538 10.224 0 0 1 27.538 10.224z" stroke-width=".48289"/>
 </g>
</svg>
