<svg xmlns="http://www.w3.org/2000/svg" viewBox="0 0 50 50"><circle cx="9.23" cy="9.23" r="1" style="fill:#231f20"/><circle cx="9.23" cy="15" r="1.73" style="fill:#231f20"/><circle cx="9.23" cy="20.77" r="1" style="fill:#231f20"/><circle cx="15" cy="20.77" r="1.73" style="fill:#231f20"/><circle cx="20.77" cy="20.77" r="1" style="fill:#231f20"/><circle cx="20.77" cy="15" r="1.73" style="fill:#231f20"/><circle cx="20.77" cy="9.23" r="1" style="fill:#231f20"/><circle cx="15" cy="15" r="1" style="fill:#231f20"/><circle cx="15" cy="9.23" r="1.73" style="fill:#231f20"/><path d="M27.5,7.5a15,15,0,0,0,15,15" style="fill:none;stroke:#231f20;stroke-miterlimit:10"/><path d="M32.91,7.5c0,5.86,4.29,10.61,9.59,10.61" style="fill:none;stroke:#231f20;stroke-miterlimit:10"/><path d="M37.71,7.5c0,3.19,2.14,5.77,4.79,5.77" style="fill:none;stroke:#231f20;stroke-miterlimit:10"/><path d="M7.5,31.54c.83-2,2-4.21,3.21-4,1.38.21,1.57,3.38,3.08,3.7,1.81.4,3-3.86,4.91-3.44.85.19,1.44,1.23,1.8,2.08" style="fill:none;stroke:#231f20;stroke-miterlimit:10"/><path d="M7.5,37c.83-2,2-4.21,3.21-4,1.38.21,1.57,3.38,3.08,3.7,1.81.4,3-3.86,4.91-3.44.85.19,1.44,1.23,1.8,2.08" style="fill:none;stroke:#231f20;stroke-miterlimit:10"/><path d="M7.5,42.5c.83-2,2-4.21,3.21-4,1.38.21,1.57,3.38,3.08,3.71,1.81.39,3-3.87,4.91-3.45.85.19,1.44,1.23,1.8,2.08" style="fill:none;stroke:#231f20;stroke-miterlimit:10"/><line x1="29.86" y1="27.5" x2="29.86" y2="42.5" style="fill:none;stroke:#231f20;stroke-miterlimit:10"/><line x1="34.9" y1="27.5" x2="34.9" y2="42.5" style="fill:none;stroke:#231f20;stroke-miterlimit:10"/><line x1="40" y1="27.5" x2="40" y2="42.5" style="fill:none;stroke:#231f20;stroke-miterlimit:10"/><line x1="27.4" y1="30" x2="42.4" y2="30" style="fill:none;stroke:#231f20;stroke-miterlimit:10"/><line x1="27.4" y1="35" x2="42.4" y2="35" style="fill:none;stroke:#231f20;stroke-miterlimit:10"/><line x1="27.5" y1="40" x2="42.5" y2="40" style="fill:none;stroke:#231f20;stroke-miterlimit:10"/></svg>