<svg id="Layer_1" data-name="Layer 1" xmlns="http://www.w3.org/2000/svg" viewBox="0 0 146.68 31.41"><path d="M61.37,7.42V8C40.84,8,35.46,34.4,35.46,34.4l-.25-.06h-.34c0-9,3.24-19.17,4.87-21.92-.92.48-1.91,2.06-3.59,4.72C33.55,21.26,30,27.33,25.13,32c.8.38,1.62.77,2.46,1.22l-.25.5c-.91-.46-1.79-.9-2.65-1.3-4,3.69-8.69,6.42-14.36,6.42-17,0-12.28-19.34,14.28-7.07,4.83-4.62,8.44-10.71,11.08-14.91,2.08-3.32,3.24-5.17,4.73-5.17v.55c-.7,0-4.43,10.08-4.94,19.9C37.29,25.79,44,7.42,61.37,7.42ZM24.17,32.16c-25.49-11.7-29.88,6.13-13.84,6.13C15.77,38.29,20.34,35.7,24.17,32.16Z" transform="translate(-0.33 -7.42)"/><path d="M48.38,31.48a5.61,5.61,0,0,1-3-.65l-.59.38c-1.82,1-2.85.19-1.89-1.51a4.41,4.41,0,0,1,1.16-1.37l.29.47a4.34,4.34,0,0,0-1,1.17c-.67,1.2-.14,1.51,1.18.76.15-.09.29-.17.44-.28a1.64,1.64,0,0,1-.38-1.09c0-1.24.74-2.27,1.66-2.27a1.05,1.05,0,0,1,1.07,1.12,3.88,3.88,0,0,1-1.49,2.27,5.45,5.45,0,0,0,2.52.46,15.58,15.58,0,0,0,5.69-1.58l.21.51A16,16,0,0,1,48.38,31.48Zm-3-1.36a3.45,3.45,0,0,0,1.39-1.91.5.5,0,0,0-.53-.57c-.59,0-1.11.76-1.11,1.72A1.16,1.16,0,0,0,45.42,30.12Z" transform="translate(-0.33 -7.42)"/><path d="M65,29.36l.25.51s-7.09,3.57-9.51,3.57c-3.55,0-3.08-3.26,1-7.77.55-.59,1.11-1.18,1.72-1.77H58.1c-1.3,0-2-.35-2-1.11h.55c0,.38.42.57,1.42.57.32,0,.66,0,1,0,1-.89,2-1.73,3-2.5l.34.42c-.8.61-1.6,1.28-2.35,2l.9-.13a26.44,26.44,0,0,1,2.81-.25c1.18,0,1.79.32,1.79,1H65c0-.29-.38-.44-1.24-.44a23.58,23.58,0,0,0-2.73.25c-.56.08-1.13.15-1.68.21-.77.71-1.51,1.47-2.18,2.2-3.13,3.43-4.81,6.85-1.45,6.85C58,32.89,65,29.36,65,29.36Z" transform="translate(-0.33 -7.42)"/><path d="M75.83,29.87c-2.5,1.26-6.41,2.83-8.82,2.33a2.45,2.45,0,0,1-2.16-2.54v-.05a2.43,2.43,0,0,1,2.62-2.16,1,1,0,0,1,1.11,1c0,1.53-1.93,2.46-3,2.14a2.08,2.08,0,0,0,1.53,1.07c2.25.46,6-1,8.49-2.29Zm-10.44-.21c.07,1,2.65.27,2.65-1.22,0-.25-.23-.44-.57-.44A1.92,1.92,0,0,0,65.39,29.66Z" transform="translate(-0.33 -7.42)"/><path d="M82.69,31.9a5.09,5.09,0,0,1-2.18-.54,2.61,2.61,0,0,1-1.89.71,2.72,2.72,0,0,1-2.31-2.41c-.17.06-.33.14-.5.21l-.21-.51c.21-.08.42-.19.63-.27A3.59,3.59,0,0,1,76.38,28c.23-.74.71-.46,1.46.31.8-.4,1.58-.82,2.4-1.26a1.06,1.06,0,0,1,.88-.59h0c.34,0,.46.47.17.59s-.36.19-.53.3a1,1,0,0,0,.11.56,3.24,3.24,0,0,1,0,3,4,4,0,0,0,1.82.44,17.59,17.59,0,0,0,7-2l.25.51A18.72,18.72,0,0,1,82.69,31.9Zm-5.92-3.06.57-.28c-.44-.48-.42-.46-.46-.39A2.47,2.47,0,0,0,76.77,28.84ZM80,31.06A11.24,11.24,0,0,1,77.74,29l-.92.45c.16,1.11.92,2.1,1.8,2.1A2.16,2.16,0,0,0,80,31.06Zm.19-3.4c-.67.38-1.33.74-2,1.07a10.37,10.37,0,0,0,2.15,1.91,2.68,2.68,0,0,0,0-2.52A1.85,1.85,0,0,1,80.22,27.66Z" transform="translate(-0.33 -7.42)"/><path d="M109.87,29.87a19.74,19.74,0,0,1-7.6,2.1c-1.31,0-1.41-.63-.44-2a4.22,4.22,0,0,0,.52-.86,5.65,5.65,0,0,0-1.95.94l-2.15,1.52-.14-.23-.19-.19c.73-.74,1.39-2.19,1.09-2.19s-1.36.55-4.66,2.61l-.15-.23L94,31.11l0,0a9.34,9.34,0,0,0,1.07-1.72,4.62,4.62,0,0,0,.56-1.49.52.52,0,0,0-.19,0c-1,0-3.82,1.26-5.6,2l-.21-.51c1.78-.75,4.66-2.06,5.81-2.06.45,0,.74.19.74.57a4.45,4.45,0,0,1-.61,1.74c-.13.26-.27.51-.42.76,2.5-1.55,3.32-2,3.8-2,.76,0,.74.84.27,1.76l.82-.59a5.31,5.31,0,0,1,2.42-1.05.4.4,0,0,1,.42.38,3,3,0,0,1-.67,1.37c-.74,1.05-.74,1.15,0,1.15a18.58,18.58,0,0,0,7.37-2.06Z" transform="translate(-0.33 -7.42)"/><path d="M123.54,29.87a21.68,21.68,0,0,1-8.23,2c-2.61,0-3.93-.61-3.93-1.89a2.07,2.07,0,0,1,.25-.94c-.48.23-1.07.48-1.78.8l-.21-.51a16.36,16.36,0,0,0,3.09-1.53l0,0,.35.42c-.86.73-1.17,1.22-1.17,1.78,0,.89,1.07,1.35,3.38,1.35a20.6,20.6,0,0,0,8-2Zm-8.92-2.75-.3-.47,1.09-.71.3.46Z" transform="translate(-0.33 -7.42)"/><path d="M134.23,29.36l.25.51s-7.1,3.57-9.51,3.57c-3.55,0-3.09-3.26,1-7.77.54-.59,1.11-1.18,1.72-1.77h-.38c-1.3,0-2-.35-2-1.11h.54c0,.38.42.57,1.43.57.32,0,.65,0,1,0a36.59,36.59,0,0,1,3-2.5l.34.42c-.8.61-1.6,1.28-2.36,2l.91-.13a26.22,26.22,0,0,1,2.81-.25c1.18,0,1.79.32,1.79,1h-.55c0-.29-.38-.44-1.24-.44a23.39,23.39,0,0,0-2.73.25l-1.68.21c-.77.71-1.51,1.47-2.18,2.2-3.13,3.43-4.81,6.85-1.45,6.85C127.26,32.89,134.23,29.36,134.23,29.36Z" transform="translate(-0.33 -7.42)"/><path d="M147,29.87s-6.3,2.73-8.82,2.73c-1.7,0-1.93-1-.63-2.84,1.15-1.57,1.32-1.93.9-1.93-1.34,0-3.69,1.83-5.39,4.22l-.13.19,0,0-.46-.29.12-.19L140,20.71l.46.3-5.33,8a6,6,0,0,1,3.36-1.7c1.26,0,.84,1-.44,2.82-1.07,1.51-1,1.95.17,1.95,2.39,0,8.61-2.69,8.61-2.69Z" transform="translate(-0.33 -7.42)"/></svg>