<svg id="notesmith-logo" xmlns="http://www.w3.org/2000/svg" viewBox="0 0 98.48 21.62">
  <title>Notesmith logo</title>
  <defs>
    <g id="masked-logo">
      <mask id="masked-N">
        <path class="mask" id="mask-N" d="M41.22,4.83s-1.93.14-2,.17-1.71.39-2,.46-1.86.61-2,.69-1.84,1-1.91,1.1a23.77,23.77,0,0,0-2.11,1.66c0,.12-1.78,1.79-1.68,1.81a23.09,23.09,0,0,1-1.42,2L26.79,14.9l-1.07,2.42-.91,2.4-.66,2.69h-.32l.22-2.76.37-2.57L24.89,15l.51-2.18.76-2.39.61-1.69.54-.78,0-.3L26.57,8,25.47,9.4l-4.33,6.8-2.34,3L17.06,21s-1.88,1.66-2,1.74-1.85,1.1-2.05,1.2S10.7,25,10.53,25s-1.88.39-2.1.39a11.38,11.38,0,0,1-1.59,0c-.42-.07-1.81-.2-1.81-.2l-1.84-.58a11.23,11.23,0,0,1-1.56-1.13c.05-.1-.76-1.05-.66-1.12s-.15-1.18,0-1.23.32-.93.57-1.1.58-.68.92-.8a5.2,5.2,0,0,1,1.18-.44c.66-.15,1.37-.44,1.59-.42s2-.2,2-.12.37,0,.74.12a10.65,10.65,0,0,0,1.34.24c.42.08,1.93.3,1.93.3l1.86.66,1.84.56L18.72,22" stroke-linecap="round" stroke-linejoin="round"/>
      </mask>
      <mask id="masked-o">
        <path class="mask" id="mask-o" d="M29.92,18.82l-.49.45s-.39.52-.32.75c0,0-.13.33,0,.46a1.18,1.18,0,0,0,.59.26c.16,0,.19-.07.45-.23a3.64,3.64,0,0,0,.66-.55c.19-.2-.2.52-.1.22s.39-.45.55-.65.3-.13.43-.49.16-.13.16-.49.2-.06,0-.29,0-.23-.29-.29-.07-.17-.42,0-.13.07-.4.33a.81.81,0,0,0-.29.56,1.6,1.6,0,0,0,0,.58c0,.33.1.07.13.23a2.14,2.14,0,0,0,.85.78,6,6,0,0,0,.75.1l.52,0h.81l.75-.16.69-.2.62-.2.49-.19.45-.23" stroke-linecap="round" stroke-linejoin="round"/>
      </mask>
      <mask id="masked-t1">
        <path class="mask" id="mask-t1" d="M44.08,15.78s-.17-.55-.43-.58a3.9,3.9,0,0,0-.52,0l-.72,0-1.14.13-1.56.33L41,14.41l.69-.58.42-.2-2.45,1.92-.49-.09-.68-.13a.49.49,0,0,1-.23-.13c-.06-.1-.16-.23-.16-.23l.13.23,1.3.58-.81.88-.85,1-.81,1s-.3.59-.4.82a5.64,5.64,0,0,0-.42,1.46c.1.07,0,.27,0,.27a1.43,1.43,0,0,0,1.24.62c.36,0,.46.13.62,0s.43-.07.62-.2a3.74,3.74,0,0,1,.82-.26l1.17-.49,1.08-.42.88-.46.65-.33" stroke-linecap="round" stroke-linejoin="round"/>
      </mask>
      <mask id="masked-e">
        <path class="mask" id="mask-e" d="M44.21,20.1s-.13,0,.19-.08.59,0,.92-.29.32-.13.55-.59.26-.36.13-.62-.24-.57-.42-.42-.72,0-.88.23-.27.06-.46.35-.26.19-.26.53-.16.58,0,.78.26.65.39.72a2.17,2.17,0,0,0,.72.29c.29,0,.45.16.75.1S47,20.9,47,20.9l1-.16,1.14-.46.81-.26,1-.55" stroke-linecap="round" stroke-linejoin="round"/>
      </mask>
      <mask id="masked-s">
        <path class="mask" id="mask-s" d="M54.61,17.51l-.56.33-1.17.65-.62.33-.52-.56a.65.65,0,0,0-.16.46c0,.23,0,1,0,1l.39.75s.39.39.58.42a1.5,1.5,0,0,0,.69.06,1.25,1.25,0,0,0,.62-.29c.29-.19-.29-.65-.29-.65l-1.18-1,1.79,1.47a4.2,4.2,0,0,1,.23-.75,1,1,0,0,0,.13-.75,5.2,5.2,0,0,0-.32-.78l.26,2.38,1.27.26,1.14-.13.91-.2,1-.39L60,19.66" stroke-linecap="round" stroke-linejoin="round"/>
      </mask>
      <mask id="masked-m">
        <path class="mask" id="mask-m" d="M60.25,19.5l2-.82,1.53-.58s.72-.2.72.1-.26.62-.29.78a3.84,3.84,0,0,1-.26.62c-.07.13-.68,1-.68,1l2-1.22L66,19s.49-.33.62-.1a2.06,2.06,0,0,1,.13.75s-.39.26-.36.36-.42.55-.42.55l1.56-1.11.88-.39s.46-.16.49,0-.42.78-.52.91-.36.75-.16.85a2.49,2.49,0,0,0,.75.1l.46-.07,1.17-.16,1.43-.43,1.15-.52" stroke-linecap="round" stroke-linejoin="round"/>
      </mask>
      <mask id="masked-i">
        <path class="mask" id="mask-i" d="M82.36,19.66l-.65.26-.66.26-1,.23-1.15.2-1.07.16-1,0c-.23,0-.56-.06-.69-.06s-.45-.16-.65-.2-.39-.26-.52-.49.23-.91.23-.91l.45-.68-.75.49-1.33.55m3.26-1.86.62-.46" stroke-linecap="round" stroke-linejoin="round"/>
      </mask>
      <mask id="masked-t2">
        <path class="mask" id="mask-t2" d="M90.25,15.78s-.16-.55-.42-.58a4,4,0,0,0-.53,0l-.71,0-1.14.13-1.57.33,1.3-1.18.69-.58.42-.2-2.44,1.92-.49-.09-.69-.13a.44.44,0,0,1-.22-.13L84.28,15l.13.23,1.31.58-.82.88-.85,1-.81,1s-.29.59-.39.82a5.71,5.71,0,0,0-.43,1.46c.1.07,0,.27,0,.27a1.14,1.14,0,0,0,.55.48,1.23,1.23,0,0,0,.69.14c.35,0,.45.13.62,0s.42-.07.61-.2a3.74,3.74,0,0,1,.82-.26l1.17-.49L88,20.45l.88-.46.65-.33" stroke-linecap="round" stroke-linejoin="round"/>
      </mask>
      <mask id="masked-h">
        <path class="mask" id="mask-h" d="M89,21l4.92-7.37-4.27,6.59,2.48-2.05s.59-.3.82-.17.26.17.19.39a6.6,6.6,0,0,1-.52.95l-.68.95s-.36.52-.17.68a1.05,1.05,0,0,0,.52.23,5.41,5.41,0,0,0,1,0c.2,0,.82-.23.82-.23l1.07-.26.88-.33.59-.23,1-.36.81-.32" stroke-linecap="round" stroke-linejoin="round"/>
      </mask>
    </g>
  </defs>
  <g id="logo">
    <path mask="url(#masked-N)" id="N" d="M41.43,4.65V5C27.73,5,24.15,22.65,24.15,22.65l-.17,0h-.23c0-6,2.16-12.79,3.25-14.63-.61.33-1.27,1.38-2.39,3.16-1.74,2.74-4.13,6.79-7.36,9.9.54.25,1.08.52,1.64.81l-.16.34q-.91-.47-1.77-.87c-2.63,2.47-5.8,4.29-9.58,4.29-11.38,0-8.2-12.9,9.52-4.73,3.23-3.08,5.64-7.14,7.4-9.94,1.39-2.21,2.16-3.45,3.15-3.45v.37c-.46,0-2.95,6.72-3.29,13.28C25.36,16.91,29.86,4.65,41.43,4.65ZM16.61,21.15c-17-7.8-19.93,4.09-9.23,4.09C11,25.24,14.06,23.52,16.61,21.15Z" transform="translate(-0.42 -4.35)" stroke="#231f20" stroke-linejoin="round" stroke-width="0.5"/>
    <path mask="url(#masked-o)" id="o" d="M32.75,20.7a3.72,3.72,0,0,1-2-.43l-.4.25c-1.21.7-1.9.13-1.26-1a3,3,0,0,1,.77-.91l.2.31a2.74,2.74,0,0,0-.66.79c-.45.79-.1,1,.79.5l.29-.18a1.1,1.1,0,0,1-.25-.73c0-.83.49-1.51,1.1-1.51a.7.7,0,0,1,.72.74,2.57,2.57,0,0,1-1,1.51,3.57,3.57,0,0,0,1.69.31,10.45,10.45,0,0,0,3.79-1.05l.14.33A10.57,10.57,0,0,1,32.75,20.7Zm-2-.91a2.27,2.27,0,0,0,.92-1.27c0-.24-.12-.38-.35-.38-.39,0-.74.5-.74,1.15A.8.8,0,0,0,30.77,19.79Z" transform="translate(-0.42 -4.35)" stroke="#231f20" stroke-linejoin="round" stroke-width="0.5"/>
    <path mask="url(#masked-t1)" id="t1" d="M43.82,19.29l.17.33S39.25,22,37.64,22c-2.36,0-2.06-2.18.69-5.19.36-.39.74-.78,1.15-1.17h-.25c-.87,0-1.32-.24-1.32-.75h.36c0,.26.28.38,1,.38l.67,0c.63-.58,1.3-1.14,2-1.66l.23.28c-.53.4-1.07.85-1.57,1.31l.6-.08A17.66,17.66,0,0,1,43,14.93c.78,0,1.19.21,1.19.66h-.37c0-.2-.25-.29-.82-.29a16.87,16.87,0,0,0-1.82.16c-.38.06-.76.1-1.12.14-.52.48-1,1-1.46,1.48-2.09,2.28-3.21,4.56-1,4.56C39.17,21.64,43.82,19.29,43.82,19.29Z" transform="translate(-0.42 -4.35)" stroke="#231f20" stroke-linejoin="round" stroke-width="0.5"/>
    <path mask="url(#masked-e)" id="e" d="M51,19.62c-1.66.84-4.27,1.9-5.88,1.56a1.63,1.63,0,0,1-1.44-1.7v0A1.63,1.63,0,0,1,45.47,18a.69.69,0,0,1,.74.66,1.68,1.68,0,0,1-2,1.43,1.37,1.37,0,0,0,1,.72c1.5.3,4-.69,5.66-1.53Zm-7-.14c0,.65,1.77.19,1.77-.81,0-.17-.16-.29-.38-.29A1.28,1.28,0,0,0,44.08,19.48Z" transform="translate(-0.42 -4.35)" stroke="#231f20" stroke-linejoin="round" stroke-width="0.5"/>
    <path mask="url(#masked-s)" id="s" d="M55.62,21a3.31,3.31,0,0,1-1.45-.36,1.78,1.78,0,0,1-1.27.48c-.74,0-1.37-.75-1.54-1.62l-.33.14-.14-.33.42-.18a2.22,2.22,0,0,1,.1-.73c.15-.49.47-.31,1,.21.53-.27,1-.55,1.59-.84a.68.68,0,0,1,.59-.39h0a.21.21,0,0,1,.12.39c-.13.07-.24.12-.35.19a.66.66,0,0,0,.07.38,2.18,2.18,0,0,1,0,2,2.74,2.74,0,0,0,1.22.29,11.73,11.73,0,0,0,4.65-1.33l.17.33A12.25,12.25,0,0,1,55.62,21Zm-3.95-2c.13-.06.25-.13.38-.18-.29-.33-.28-.31-.31-.27A1.63,1.63,0,0,0,51.67,18.94Zm2.17,1.48A7.16,7.16,0,0,1,52.32,19l-.62.29c.11.74.62,1.4,1.2,1.4A1.44,1.44,0,0,0,53.84,20.42ZM54,18.15c-.45.26-.88.49-1.32.72a7.15,7.15,0,0,0,1.43,1.27,1.74,1.74,0,0,0,0-1.68A1.45,1.45,0,0,1,54,18.15Z" transform="translate(-0.42 -4.35)" stroke="#231f20" stroke-linejoin="round" stroke-width="0.5"/>
    <path mask="url(#masked-m)" id="m" d="M73.74,19.62A13.17,13.17,0,0,1,68.67,21c-.87,0-.94-.42-.29-1.35a2.74,2.74,0,0,0,.35-.57,3.75,3.75,0,0,0-1.31.63l-1.42,1-.1-.16-.13-.13c.49-.49.93-1.45.73-1.45s-.91.36-3.11,1.74l-.1-.16-.11-.14h0a6.8,6.8,0,0,0,.72-1.15,3.13,3.13,0,0,0,.38-1h-.13a17.22,17.22,0,0,0-3.74,1.34l-.14-.33a16.44,16.44,0,0,1,3.88-1.37c.3,0,.49.12.49.37a3,3,0,0,1-.4,1.17L64,20c1.67-1,2.22-1.32,2.54-1.32.5,0,.49.57.18,1.18l.55-.39a3.42,3.42,0,0,1,1.61-.7.27.27,0,0,1,.28.25,1.94,1.94,0,0,1-.45.91c-.49.7-.49.77,0,.77a12.31,12.31,0,0,0,4.92-1.37Z" transform="translate(-0.42 -4.35)" stroke="#231f20" stroke-linejoin="round" stroke-width="0.5"/>
    <path mask="url(#masked-i)" id="i" d="M82.85,19.62A14.28,14.28,0,0,1,77.36,21c-1.74,0-2.62-.4-2.62-1.26a1.35,1.35,0,0,1,.17-.63c-.32.16-.71.32-1.19.53l-.14-.33a11.73,11.73,0,0,0,2.06-1v0l.24.28c-.57.49-.78.81-.78,1.19,0,.59.71.9,2.25.9a13.78,13.78,0,0,0,5.33-1.33ZM76.9,17.79l-.2-.31.73-.47.2.3Z" transform="translate(-0.42 -4.35)" stroke="#231f20" stroke-linejoin="round" stroke-width="0.5"/>
    <path mask="url(#masked-t2)" id="t2" d="M90,19.29l.17.33S85.41,22,83.8,22c-2.37,0-2.06-2.18.69-5.19.36-.39.74-.78,1.15-1.17h-.26c-.86,0-1.31-.24-1.31-.75h.36c0,.26.28.38.95.38l.68,0c.63-.58,1.3-1.14,2-1.66l.23.28a19.45,19.45,0,0,0-1.57,1.31l.6-.08a17.44,17.44,0,0,1,1.88-.17c.78,0,1.19.21,1.19.66H90c0-.2-.25-.29-.82-.29a16.87,16.87,0,0,0-1.82.16c-.38.06-.76.1-1.13.14-.51.48-1,1-1.45,1.48-2.09,2.28-3.21,4.56-1,4.56C85.33,21.64,90,19.29,90,19.29Z" transform="translate(-0.42 -4.35)" stroke="#231f20" stroke-linejoin="round" stroke-width="0.5"/>
    <path mask="url(#masked-h)" id="h" d="M98.51,19.62s-4.21,1.83-5.89,1.83c-1.13,0-1.29-.63-.42-1.9.77-1.05.88-1.28.61-1.28-.9,0-2.47,1.21-3.6,2.81l-.09.13h0L88.8,21l.08-.13,4.93-7.38.31.19L90.56,19a4,4,0,0,1,2.25-1.14c.84,0,.56.67-.3,1.88-.71,1-.67,1.3.11,1.3,1.6,0,5.75-1.79,5.75-1.79Z" transform="translate(-0.42 -4.35)" stroke="#231f20" stroke-linejoin="round" stroke-width="0.5"/>
  </g>
</svg>
