<?xml version="1.0" encoding="utf-8"?>
<!-- Generator: Adobe Illustrator 25.2.0, SVG Export Plug-In . SVG Version: 6.00 Build 0)  -->
<svg version="1.1" id="Layer_1" xmlns="http://www.w3.org/2000/svg" xmlns:xlink="http://www.w3.org/1999/xlink" x="0px" y="0px"
	 viewBox="0 0 176 76" style="enable-background:new 0 0 176 76;" xml:space="preserve">
<style type="text/css">
	.st0{fill:none;stroke:none;}
</style>
<g>
	<rect class="st0" width="176" height="76"/>
	<path id="letter-n" class="letter-logo" d="M73.89,16.64v0.63c-24,0-30.28,30.33-30.28,30.33l-0.29-0.07h-0.39c0-10.34,3.78-22,5.69-25.15
		c-1.08,0.55-2.23,2.36-4.2,5.42c-3.04,4.72-7.24,11.69-12.88,17.03c0.93,0.43,1.89,0.89,2.87,1.4l-0.29,0.58
		c-1.05-0.53-2.09-1.04-3.09-1.49c-4.61,4.24-10.16,7.37-16.78,7.37c-19.92,0-14.35-22.19,16.68-8.12
		c5.64-5.3,9.86-12.29,12.96-17.11c2.43-3.81,3.78-5.93,5.52-5.93v0.63c-0.81,0-5.18,11.56-5.77,22.84
		C45.75,37.72,53.62,16.64,73.89,16.64z M30.41,45.02C0.63,31.6-4.5,52.06,14.24,52.06C20.6,52.06,25.95,49.1,30.41,45.02z"/>
	<path id="letter-o" class="letter-logo" d="M58.7,44.25c-1.55,0-2.72-0.26-3.48-0.75c-0.22,0.14-0.44,0.29-0.69,0.43c-2.13,1.21-3.34,0.22-2.21-1.73
		c0.39-0.67,0.91-1.28,1.35-1.57l0.34,0.53c-0.34,0.24-0.81,0.77-1.15,1.35c-0.79,1.37-0.17,1.73,1.37,0.87
		c0.17-0.1,0.34-0.19,0.52-0.31c-0.29-0.34-0.44-0.77-0.44-1.25c0-1.42,0.86-2.6,1.94-2.6c0.74,0,1.25,0.53,1.25,1.28
		c0,0.7-0.74,1.74-1.74,2.6c0.61,0.34,1.59,0.53,2.94,0.53c2.33,0,4.86-1.06,6.65-1.81l0.25,0.58
		C63.81,43.14,61.18,44.25,58.7,44.25z M55.24,42.69c0.93-0.75,1.62-1.66,1.62-2.19c0-0.41-0.22-0.65-0.61-0.65
		c-0.69,0-1.3,0.87-1.3,1.98C54.95,42.16,55.05,42.45,55.24,42.69z"/>
	<path id="letter-t" class="letter-logo" d="M78.11,41.82l0.29,0.58c0,0-8.29,4.1-11.12,4.1c-4.15,0-3.61-3.74,1.2-8.92c0.64-0.67,1.3-1.35,2.01-2.02h-0.44
		c-1.52,0-2.31-0.41-2.31-1.28h0.64c0,0.43,0.49,0.65,1.67,0.65c0.37,0,0.76-0.02,1.18-0.05c1.1-1.01,2.28-1.98,3.46-2.87l0.39,0.48
		c-0.93,0.7-1.86,1.47-2.75,2.26l1.05-0.14c1.18-0.14,2.36-0.29,3.29-0.29c1.37,0,2.09,0.36,2.09,1.13h-0.64
		c0-0.34-0.44-0.51-1.45-0.51c-0.88,0-2.01,0.14-3.19,0.29c-0.66,0.1-1.33,0.17-1.96,0.24c-0.91,0.82-1.77,1.69-2.55,2.53
		c-3.66,3.93-5.62,7.85-1.69,7.85C69.97,45.87,78.11,41.82,78.11,41.82z"/>
	<path id="letter-e" class="letter-logo" d="M90.77,42.4c-2.92,1.45-7.48,3.25-10.31,2.67c-1.82-0.36-2.6-1.66-2.53-2.92v-0.05c0.12-1.28,1.18-2.48,3.07-2.48
		c0.74,0,1.3,0.48,1.3,1.13c0,1.76-2.26,2.82-3.51,2.46c0.29,0.58,0.88,1.06,1.79,1.23c2.63,0.53,6.99-1.18,9.91-2.63L90.77,42.4z
		 M78.58,42.16c0.07,1.11,3.09,0.31,3.09-1.4c0-0.29-0.27-0.51-0.66-0.51C79.51,40.25,78.68,41.17,78.58,42.16z"/>
	<path id="letter-s" class="letter-logo" d="M98.8,44.73c-0.93,0-1.79-0.26-2.55-0.63c-0.52,0.51-1.28,0.82-2.21,0.82c-1.3,0-2.4-1.28-2.7-2.77
		c-0.2,0.07-0.39,0.17-0.59,0.24l-0.25-0.58c0.25-0.1,0.49-0.22,0.74-0.31c0-0.43,0.05-0.84,0.17-1.25
		c0.27-0.84,0.83-0.53,1.72,0.36c0.93-0.46,1.84-0.94,2.8-1.45c0.22-0.63,1.03-0.68,1.03-0.68h0.02c0.39,0,0.54,0.53,0.2,0.68
		c-0.22,0.12-0.42,0.22-0.61,0.34c-0.02,0.14,0,0.36,0.12,0.65c0.59,1.3,0.54,2.53-0.02,3.45c0.64,0.31,1.35,0.51,2.13,0.51
		c2.65,0,5.67-1.13,8.15-2.29l0.29,0.58C104.71,43.55,101.54,44.73,98.8,44.73z M91.88,41.22c0.22-0.1,0.44-0.22,0.66-0.31
		c-0.52-0.55-0.49-0.53-0.54-0.46C91.93,40.69,91.88,40.95,91.88,41.22z M95.68,43.77c-1.13-0.7-2.01-1.66-2.67-2.39l-1.08,0.51
		c0.2,1.28,1.08,2.41,2.11,2.41C94.7,44.3,95.26,44.11,95.68,43.77z M95.9,39.87c-0.79,0.43-1.55,0.84-2.31,1.23
		c0.66,0.72,1.5,1.57,2.5,2.19c0.47-0.72,0.52-1.78,0-2.89C96,40.21,95.95,40.04,95.9,39.87z"/>
	<path id="letter-m" class="letter-logo" d="M130.55,42.4c-3.68,1.74-7.09,2.41-8.88,2.41c-1.52,0-1.64-0.72-0.51-2.31c0.37-0.51,0.54-0.79,0.61-0.99
		c-0.52,0.07-1.37,0.48-2.28,1.08l-2.5,1.73l-0.17-0.26l-0.22-0.22c0.86-0.84,1.62-2.51,1.28-2.51c-0.47,0-1.59,0.63-5.45,2.99
		l-0.17-0.26l-0.2-0.24l0.02-0.02c0.22-0.22,0.83-1.16,1.25-1.98c0.39-0.72,0.66-1.42,0.66-1.71c0,0-0.05-0.02-0.22-0.02
		c-1.2,0-4.47,1.45-6.55,2.31l-0.25-0.58c2.09-0.87,5.45-2.36,6.8-2.36c0.52,0,0.86,0.22,0.86,0.65c0,0.43-0.27,1.18-0.71,2
		c-0.15,0.29-0.32,0.58-0.49,0.87c2.92-1.78,3.88-2.26,4.44-2.26c0.88,0,0.86,0.96,0.32,2.02l0.96-0.67
		c1.13-0.75,2.18-1.21,2.82-1.21c0.27,0,0.49,0.19,0.49,0.43c0,0.46-0.42,1.06-0.79,1.57c-0.86,1.21-0.86,1.33,0,1.33
		c1.74,0,5.01-0.63,8.61-2.36L130.55,42.4z"/>
	<path id="letter-i" class="letter-logo" d="M146.52,42.4c-2.53,1.21-6.62,2.34-9.62,2.34c-3.04,0-4.59-0.7-4.59-2.17c0-0.36,0.1-0.72,0.29-1.08
		c-0.56,0.26-1.25,0.55-2.08,0.92l-0.25-0.58c2.09-0.87,3.19-1.42,3.61-1.76l0.02-0.02l0.42,0.48c-1.01,0.84-1.37,1.4-1.37,2.05
		c0,1.01,1.25,1.54,3.95,1.54c2.9,0,6.85-1.08,9.32-2.29L146.52,42.4z M136.09,39.24l-0.34-0.53l1.28-0.82l0.34,0.53L136.09,39.24z"
		/>
	<path id="letter-t2" class="letter-logo" d="M159.01,41.82l0.29,0.58c0,0-8.29,4.1-11.11,4.1c-4.15,0-3.61-3.74,1.2-8.92c0.64-0.67,1.3-1.35,2.01-2.02h-0.44
		c-1.52,0-2.31-0.41-2.31-1.28h0.64c0,0.43,0.49,0.65,1.67,0.65c0.37,0,0.76-0.02,1.18-0.05c1.1-1.01,2.28-1.98,3.46-2.87l0.39,0.48
		c-0.93,0.7-1.86,1.47-2.75,2.26l1.06-0.14c1.18-0.14,2.36-0.29,3.29-0.29c1.37,0,2.08,0.36,2.08,1.13h-0.64
		c0-0.34-0.44-0.51-1.45-0.51c-0.88,0-2.01,0.14-3.19,0.29c-0.66,0.1-1.33,0.17-1.96,0.24c-0.91,0.82-1.77,1.69-2.55,2.53
		c-3.66,3.93-5.62,7.85-1.69,7.85C150.86,45.87,159.01,41.82,159.01,41.82z"/>
	<path id="letter-h" class="letter-logo" d="M173.95,42.4c0,0-7.36,3.13-10.3,3.13c-1.99,0-2.26-1.08-0.74-3.25c1.35-1.81,1.55-2.22,1.05-2.22
		c-1.57,0-4.32,2.1-6.31,4.84l-0.15,0.22l-0.03,0.02l-0.54-0.34l0.15-0.22l8.64-12.7l0.54,0.34l-6.23,9.16
		c1.42-1.21,2.87-1.95,3.93-1.95c1.47,0,0.98,1.16-0.51,3.23c-1.25,1.73-1.18,2.24,0.2,2.24c2.8,0,10.06-3.08,10.06-3.08
		L173.95,42.4z"/>
</g>
</svg>
