<svg xmlns="http://www.w3.org/2000/svg" viewBox="0 0 84.32 18.44"><path id="letter-n" class="letter-logo" d="M35.31.38V.69c-11.73,0-14.8,15.1-14.8,15.1l-.15,0h-.19A31.74,31.74,0,0,1,23,3.23c-.52.28-1.09,1.18-2.05,2.7a44.41,44.41,0,0,1-6.29,8.48c.45.22.92.44,1.4.7l-.14.28c-.52-.26-1-.51-1.52-.74a12,12,0,0,1-8.2,3.67c-9.74,0-7-11,8.16-4a44,44,0,0,0,6.33-8.52c1.19-1.89,1.85-2.95,2.7-2.95v.31c-.4,0-2.53,5.76-2.82,11.37C21.55,10.87,25.4.38,35.31.38ZM14.05,14.51C-.51,7.83-3,18,6.15,18A11.61,11.61,0,0,0,14.05,14.51Z" transform="translate(-0.19 -0.13)" style="stroke-linejoin:round;stroke-width:0.5px"/><path id="letter-o" class="letter-logo" d="M27.9,14.12a3.22,3.22,0,0,1-1.71-.37l-.33.22c-1.05.6-1.63.1-1.08-.87a2.51,2.51,0,0,1,.66-.78l.17.27a2.33,2.33,0,0,0-.57.67c-.38.68-.08.86.67.43a1.83,1.83,0,0,0,.26-.16.89.89,0,0,1-.22-.62c0-.71.42-1.29.95-1.29a.59.59,0,0,1,.61.63,2.24,2.24,0,0,1-.85,1.3,3.18,3.18,0,0,0,1.44.26,9,9,0,0,0,3.25-.9l.12.29A9.23,9.23,0,0,1,27.9,14.12Zm-1.69-.78A2,2,0,0,0,27,12.25a.28.28,0,0,0-.3-.32c-.34,0-.64.43-.64,1A.64.64,0,0,0,26.21,13.34Z" transform="translate(-0.19 -0.13)" style="stroke-linejoin:round;stroke-width:0.5px"/><path id="letter-t" class="letter-logo" d="M37.39,12.91l.14.29s-4.05,2-5.43,2c-2,0-1.77-1.86.59-4.44.31-.34.63-.67,1-1h-.22c-.74,0-1.12-.2-1.12-.63h.31c0,.21.24.32.81.32l.58,0A20.62,20.62,0,0,1,35.72,8l.19.24c-.45.35-.91.73-1.34,1.13l.51-.08a14.84,14.84,0,0,1,1.61-.14c.67,0,1,.18,1,.56H37.4c0-.16-.22-.25-.71-.25a12.48,12.48,0,0,0-1.56.15l-1,.12c-.44.4-.86.84-1.24,1.26-1.79,2-2.75,3.91-.83,3.91C33.4,14.93,37.39,12.91,37.39,12.91Z" transform="translate(-0.19 -0.13)" style="stroke-linejoin:round;stroke-width:0.5px"/><path id="letter-e" class="letter-logo" d="M43.58,13.2c-1.43.72-3.66,1.62-5,1.33a1.39,1.39,0,0,1-1.23-1.45v0a1.39,1.39,0,0,1,1.5-1.23.59.59,0,0,1,.63.56,1.44,1.44,0,0,1-1.71,1.23,1.2,1.2,0,0,0,.87.61c1.28.26,3.42-.59,4.85-1.31Zm-6-.12c0,.55,1.51.15,1.51-.7,0-.14-.13-.25-.32-.25A1.09,1.09,0,0,0,37.62,13.08Z" transform="translate(-0.19 -0.13)" style="stroke-linejoin:round;stroke-width:0.5px"/><path id="letter-s" class="letter-logo" d="M47.5,14.36a2.84,2.84,0,0,1-1.24-.31,1.53,1.53,0,0,1-1.08.41,1.55,1.55,0,0,1-1.32-1.38c-.1,0-.19.08-.29.12l-.12-.29c.12-.05.24-.11.36-.15a2.22,2.22,0,0,1,.08-.63c.14-.42.41-.26.84.18.46-.23.9-.47,1.37-.72a.58.58,0,0,1,.5-.33h0a.18.18,0,0,1,.09.33l-.3.17a.62.62,0,0,0,.06.32,1.82,1.82,0,0,1,0,1.72,2.38,2.38,0,0,0,1,.25,10,10,0,0,0,4-1.14l.14.29A10.71,10.71,0,0,1,47.5,14.36Zm-3.38-1.75.33-.16c-.26-.27-.24-.26-.27-.22A1.59,1.59,0,0,0,44.12,12.61ZM46,13.88a6.72,6.72,0,0,1-1.31-1.19l-.52.26c.09.63.52,1.2,1,1.2A1.23,1.23,0,0,0,46,13.88Zm.11-1.94L45,12.55a5.94,5.94,0,0,0,1.22,1.09,1.49,1.49,0,0,0,0-1.44A1.61,1.61,0,0,1,46.09,11.94Z" transform="translate(-0.19 -0.13)" style="stroke-linejoin:round;stroke-width:0.5px"/><path id="letter-m" class="letter-logo" d="M63,13.2a11.34,11.34,0,0,1-4.34,1.2c-.75,0-.81-.36-.26-1.15a2.58,2.58,0,0,0,.3-.49,3.05,3.05,0,0,0-1.11.53l-1.22.87L56.31,14l-.11-.11c.42-.42.79-1.25.63-1.25s-.78.31-2.67,1.49L54.08,14l-.1-.12,0,0a6,6,0,0,0,.61-1,2.62,2.62,0,0,0,.32-.85h-.11a14.88,14.88,0,0,0-3.2,1.15l-.12-.29a14.35,14.35,0,0,1,3.32-1.17c.26,0,.42.1.42.32a2.61,2.61,0,0,1-.34,1l-.24.44c1.42-.89,1.89-1.13,2.17-1.13s.42.48.15,1l.47-.34a3,3,0,0,1,1.38-.6.23.23,0,0,1,.24.22,1.7,1.7,0,0,1-.38.78c-.42.6-.42.66,0,.66a10.7,10.7,0,0,0,4.21-1.18Z" transform="translate(-0.19 -0.13)" style="stroke-linejoin:round;stroke-width:0.5px"/><path id="letter-i" class="letter-logo" d="M70.84,13.2a12.37,12.37,0,0,1-4.7,1.16c-1.49,0-2.24-.35-2.24-1.08a1.09,1.09,0,0,1,.14-.54l-1,.46-.12-.29A9.49,9.49,0,0,0,64.66,12l0,0,.2.24c-.49.42-.67.7-.67,1,0,.51.61.77,1.93.77a11.8,11.8,0,0,0,4.56-1.14Zm-5.1-1.57-.16-.27.62-.4.17.26Z" transform="translate(-0.19 -0.13)" style="stroke-linejoin:round;stroke-width:0.5px"/><path id="letter-t2" class="letter-logo" d="M77,12.91l.14.29s-4,2-5.43,2c-2,0-1.76-1.86.59-4.44.31-.34.63-.67,1-1H73c-.75,0-1.13-.2-1.13-.63h.31c0,.21.24.32.82.32l.57,0c.54-.51,1.12-1,1.69-1.43l.19.24c-.45.35-.91.73-1.34,1.13l.52-.08a14.47,14.47,0,0,1,1.6-.14c.68,0,1,.18,1,.56H77c0-.16-.21-.25-.71-.25a12.17,12.17,0,0,0-1.55.15l-1,.12A16.47,16.47,0,0,0,72.49,11c-1.79,2-2.75,3.91-.83,3.91C73,14.93,77,12.91,77,12.91Z" transform="translate(-0.19 -0.13)" style="stroke-linejoin:round;stroke-width:0.5px"/><path id="letter-h" class="letter-logo" d="M84.26,13.2s-3.6,1.56-5,1.56c-1,0-1.1-.54-.36-1.62.66-.9.76-1.1.52-1.1-.77,0-2.11,1-3.09,2.41l-.07.1v0L76,14.4l.07-.11L80.24,8l.26.17-3,4.55a3.44,3.44,0,0,1,1.92-1c.72,0,.48.58-.26,1.61-.61.86-.57,1.12.1,1.12,1.37,0,4.92-1.54,4.92-1.54Z" transform="translate(-0.19 -0.13)" style="stroke-linejoin:round;stroke-width:0.5px"/></svg>
