<svg id="Layer_1" data-name="Layer 1" xmlns="http://www.w3.org/2000/svg" viewBox="0 0 200 300"><defs><style>.cls-1,.cls-2{fill:none;stroke:#231f20;stroke-miterlimit:10;stroke-width:0.25px;}.cls-1{opacity:0.5;}.cls-2{opacity:0.75;}</style></defs><line class="cls-1" y1="5" x2="200" y2="5"/><line class="cls-1" y1="10" x2="200" y2="10"/><line class="cls-1" y1="15" x2="200" y2="15"/><line class="cls-1" y1="20" x2="200" y2="20"/><line class="cls-1" y1="25" x2="200" y2="25"/><line class="cls-1" y1="30" x2="200" y2="30"/><line class="cls-1" y1="35" x2="200" y2="35"/><line class="cls-1" y1="40" x2="200" y2="40"/><line class="cls-1" y1="45" x2="200" y2="45"/><line class="cls-1" y1="50" x2="200" y2="50"/><line class="cls-1" y1="55" x2="200" y2="55"/><line class="cls-1" y1="60" x2="200" y2="60"/><line class="cls-1" y1="65" x2="200" y2="65"/><line class="cls-1" y1="70" x2="200" y2="70"/><line class="cls-1" y1="75" x2="200" y2="75"/><line class="cls-1" y1="80" x2="200" y2="80"/><line class="cls-1" y1="85" x2="200" y2="85"/><line class="cls-1" y1="90" x2="200" y2="90"/><line class="cls-1" y1="95" x2="200" y2="95"/><line class="cls-1" y1="100" x2="200" y2="100"/><line class="cls-1" y1="105" x2="200" y2="105"/><line class="cls-1" y1="110" x2="200" y2="110"/><line class="cls-1" y1="115" x2="200" y2="115"/><line class="cls-1" y1="120" x2="200" y2="120"/><line class="cls-1" y1="125" x2="200" y2="125"/><line class="cls-1" y1="130" x2="200" y2="130"/><line class="cls-1" y1="135" x2="200" y2="135"/><line class="cls-1" y1="140" x2="200" y2="140"/><line class="cls-1" y1="145" x2="200" y2="145"/><line class="cls-1" y1="150" x2="200" y2="150"/><line class="cls-1" y1="155" x2="200" y2="155"/><line class="cls-1" y1="160" x2="200" y2="160"/><line class="cls-1" y1="165" x2="200" y2="165"/><line class="cls-1" y1="170" x2="200" y2="170"/><line class="cls-1" y1="175" x2="200" y2="175"/><line class="cls-1" y1="180" x2="200" y2="180"/><line class="cls-1" y1="185" x2="200" y2="185"/><line class="cls-1" y1="190" x2="200" y2="190"/><line class="cls-1" y1="195" x2="200" y2="195"/><line class="cls-1" y1="200" x2="200" y2="200"/><line class="cls-1" y1="205" x2="200" y2="205"/><line class="cls-1" y1="210" x2="200" y2="210"/><line class="cls-1" y1="215" x2="200" y2="215"/><line class="cls-1" y1="220" x2="200" y2="220"/><line class="cls-1" y1="225" x2="200" y2="225"/><line class="cls-1" y1="230" x2="200" y2="230"/><line class="cls-1" y1="235" x2="200" y2="235"/><line class="cls-1" y1="240" x2="200" y2="240"/><line class="cls-1" y1="245" x2="200" y2="245"/><line class="cls-1" y1="250" x2="200" y2="250"/><line class="cls-1" y1="255" x2="200" y2="255"/><line class="cls-1" y1="260" x2="200" y2="260"/><line class="cls-1" y1="265" x2="200" y2="265"/><line class="cls-1" y1="269.87" x2="200" y2="269.87"/><line class="cls-1" y1="274.87" x2="200" y2="274.87"/><line class="cls-1" y1="279.87" x2="200" y2="279.87"/><line class="cls-1" y1="284.87" x2="200" y2="284.87"/><line class="cls-1" y1="289.87" x2="200" y2="289.87"/><line class="cls-1" y1="294.87" x2="200" y2="294.87"/><line class="cls-2" x1="5" x2="5" y2="300"/><line class="cls-2" x1="10" x2="10" y2="300"/><line class="cls-2" x1="15" x2="15" y2="300"/><line class="cls-2" x1="20" x2="20" y2="300"/><line class="cls-2" x1="25" x2="25" y2="300"/><line class="cls-2" x1="30" x2="30" y2="300"/><line class="cls-2" x1="35" x2="35" y2="300"/><line class="cls-2" x1="40" x2="40" y2="300"/><line class="cls-2" x1="45" x2="45" y2="300"/><line class="cls-2" x1="50" x2="50" y2="300"/><line class="cls-2" x1="55" x2="55" y2="300"/><line class="cls-2" x1="60" x2="60" y2="300"/><line class="cls-2" x1="65" x2="65" y2="300"/><line class="cls-2" x1="70" x2="70" y2="300"/><line class="cls-2" x1="75" x2="75" y2="300"/><line class="cls-2" x1="80" x2="80" y2="300"/><line class="cls-2" x1="85" x2="85" y2="300"/><line class="cls-2" x1="90" x2="90" y2="300"/><line class="cls-2" x1="95" x2="95" y2="300"/><line class="cls-2" x1="100" x2="100" y2="300"/></svg>