<svg xmlns="http://www.w3.org/2000/svg" xmlns:xlink="http://www.w3.org/1999/xlink" viewBox="0 0 200 300"><defs><clipPath id="a"><rect x="15.5" y="118" width="166" height="34" style="fill:none"/></clipPath><clipPath id="b"><rect x="15.5" y="118" width="34" height="12" style="fill:none"/></clipPath><clipPath id="c"><rect x="59.5" y="118" width="34" height="12" style="fill:none"/></clipPath><clipPath id="d"><rect x="103.5" y="118" width="34" height="12" style="fill:none"/></clipPath><clipPath id="e"><rect x="147.5" y="118" width="34" height="12" style="fill:none"/></clipPath><clipPath id="f"><rect x="15.5" y="140" width="34" height="12" style="fill:none"/></clipPath><clipPath id="g"><rect x="59.5" y="140" width="34" height="12" style="fill:none"/></clipPath><clipPath id="h"><rect x="103.5" y="140" width="34" height="12" style="fill:none"/></clipPath><clipPath id="i"><rect x="147.5" y="140" width="34" height="12" style="fill:none"/></clipPath><clipPath id="j"><rect x="15.5" y="162" width="166" height="34" style="fill:none"/></clipPath><clipPath id="k"><rect x="15.5" y="162" width="34" height="12" style="fill:none"/></clipPath><clipPath id="l"><rect x="59.5" y="162" width="34" height="12" style="fill:none"/></clipPath><clipPath id="m"><rect x="103.5" y="162" width="34" height="12" style="fill:none"/></clipPath><clipPath id="n"><rect x="147.5" y="162" width="34" height="12" style="fill:none"/></clipPath><clipPath id="o"><rect x="15.5" y="184" width="34" height="12" style="fill:none"/></clipPath><clipPath id="p"><rect x="59.5" y="184" width="34" height="12" style="fill:none"/></clipPath><clipPath id="q"><rect x="103.5" y="184" width="34" height="12" style="fill:none"/></clipPath><clipPath id="r"><rect x="147.5" y="184" width="34" height="12" style="fill:none"/></clipPath><clipPath id="s"><rect x="15.5" y="206" width="166" height="34" style="fill:none"/></clipPath><clipPath id="t"><rect x="15.5" y="206" width="34" height="12" style="fill:none"/></clipPath><clipPath id="u"><rect x="59.5" y="206" width="34" height="12" style="fill:none"/></clipPath><clipPath id="v"><rect x="103.5" y="206" width="34" height="12" style="fill:none"/></clipPath><clipPath id="w"><rect x="147.5" y="206" width="34" height="12" style="fill:none"/></clipPath><clipPath id="x"><rect x="15.5" y="228" width="34" height="12" style="fill:none"/></clipPath><clipPath id="y"><rect x="59.5" y="228" width="34" height="12" style="fill:none"/></clipPath><clipPath id="z"><rect x="103.5" y="228" width="34" height="12" style="fill:none"/></clipPath><clipPath id="aa"><rect x="147.5" y="228" width="34" height="12" style="fill:none"/></clipPath><clipPath id="ab"><rect x="15.5" y="250" width="166" height="34" style="fill:none"/></clipPath><clipPath id="ac"><rect x="15.5" y="250" width="34" height="12" style="fill:none"/></clipPath><clipPath id="ad"><rect x="59.5" y="250" width="34" height="12" style="fill:none"/></clipPath><clipPath id="ae"><rect x="103.5" y="250" width="34" height="12" style="fill:none"/></clipPath><clipPath id="af"><rect x="147.5" y="250" width="34" height="12" style="fill:none"/></clipPath><clipPath id="ag"><rect x="15.5" y="272" width="34" height="12" style="fill:none"/></clipPath><clipPath id="ah"><rect x="59.5" y="272" width="34" height="12" style="fill:none"/></clipPath><clipPath id="ai"><rect x="103.5" y="272" width="34" height="12" style="fill:none"/></clipPath><clipPath id="aj"><rect x="147.5" y="272" width="34" height="12" style="fill:none"/></clipPath></defs><g style="opacity:0.5"><g style="clip-path:url(#a)"><g style="clip-path:url(#b)"><circle cx="16" cy="118.5" r="0.5" style="fill:#231f20"/><circle cx="27" cy="118.5" r="0.5" style="fill:#231f20"/><circle cx="38" cy="118.5" r="0.5" style="fill:#231f20"/><circle cx="49" cy="118.5" r="0.5" style="fill:#231f20"/><circle cx="16" cy="129.5" r="0.5" style="fill:#231f20"/><circle cx="27" cy="129.5" r="0.5" style="fill:#231f20"/><circle cx="38" cy="129.5" r="0.5" style="fill:#231f20"/><circle cx="49" cy="129.5" r="0.5" style="fill:#231f20"/></g><g style="clip-path:url(#c)"><circle cx="60" cy="118.5" r="0.5" style="fill:#231f20"/><circle cx="71" cy="118.5" r="0.5" style="fill:#231f20"/><circle cx="82" cy="118.5" r="0.5" style="fill:#231f20"/><circle cx="93" cy="118.5" r="0.5" style="fill:#231f20"/><circle cx="60" cy="129.5" r="0.5" style="fill:#231f20"/><circle cx="71" cy="129.5" r="0.5" style="fill:#231f20"/><circle cx="82" cy="129.5" r="0.5" style="fill:#231f20"/><circle cx="93" cy="129.5" r="0.5" style="fill:#231f20"/></g><g style="clip-path:url(#d)"><circle cx="104" cy="118.5" r="0.5" style="fill:#231f20"/><circle cx="115" cy="118.5" r="0.5" style="fill:#231f20"/><circle cx="126" cy="118.5" r="0.5" style="fill:#231f20"/><circle cx="137" cy="118.5" r="0.5" style="fill:#231f20"/><circle cx="104" cy="129.5" r="0.5" style="fill:#231f20"/><circle cx="115" cy="129.5" r="0.5" style="fill:#231f20"/><circle cx="126" cy="129.5" r="0.5" style="fill:#231f20"/><circle cx="137" cy="129.5" r="0.5" style="fill:#231f20"/></g><g style="clip-path:url(#e)"><circle cx="148" cy="118.5" r="0.5" style="fill:#231f20"/><circle cx="159" cy="118.5" r="0.5" style="fill:#231f20"/><circle cx="170" cy="118.5" r="0.5" style="fill:#231f20"/><circle cx="181" cy="118.5" r="0.5" style="fill:#231f20"/><circle cx="148" cy="129.5" r="0.5" style="fill:#231f20"/><circle cx="159" cy="129.5" r="0.5" style="fill:#231f20"/><circle cx="170" cy="129.5" r="0.5" style="fill:#231f20"/><circle cx="181" cy="129.5" r="0.5" style="fill:#231f20"/></g><g style="clip-path:url(#f)"><circle cx="16" cy="140.5" r="0.5" style="fill:#231f20"/><circle cx="27" cy="140.5" r="0.5" style="fill:#231f20"/><circle cx="38" cy="140.5" r="0.5" style="fill:#231f20"/><circle cx="49" cy="140.5" r="0.5" style="fill:#231f20"/><circle cx="16" cy="151.5" r="0.5" style="fill:#231f20"/><circle cx="27" cy="151.5" r="0.5" style="fill:#231f20"/><circle cx="38" cy="151.5" r="0.5" style="fill:#231f20"/><circle cx="49" cy="151.5" r="0.5" style="fill:#231f20"/></g><g style="clip-path:url(#g)"><circle cx="60" cy="140.5" r="0.5" style="fill:#231f20"/><circle cx="71" cy="140.5" r="0.5" style="fill:#231f20"/><circle cx="82" cy="140.5" r="0.5" style="fill:#231f20"/><circle cx="93" cy="140.5" r="0.5" style="fill:#231f20"/><circle cx="60" cy="151.5" r="0.5" style="fill:#231f20"/><circle cx="71" cy="151.5" r="0.5" style="fill:#231f20"/><circle cx="82" cy="151.5" r="0.5" style="fill:#231f20"/><circle cx="93" cy="151.5" r="0.5" style="fill:#231f20"/></g><g style="clip-path:url(#h)"><circle cx="104" cy="140.5" r="0.5" style="fill:#231f20"/><circle cx="115" cy="140.5" r="0.5" style="fill:#231f20"/><circle cx="126" cy="140.5" r="0.5" style="fill:#231f20"/><circle cx="137" cy="140.5" r="0.5" style="fill:#231f20"/><circle cx="104" cy="151.5" r="0.5" style="fill:#231f20"/><circle cx="115" cy="151.5" r="0.5" style="fill:#231f20"/><circle cx="126" cy="151.5" r="0.5" style="fill:#231f20"/><circle cx="137" cy="151.5" r="0.5" style="fill:#231f20"/></g><g style="clip-path:url(#i)"><circle cx="148" cy="140.5" r="0.5" style="fill:#231f20"/><circle cx="159" cy="140.5" r="0.5" style="fill:#231f20"/><circle cx="170" cy="140.5" r="0.5" style="fill:#231f20"/><circle cx="181" cy="140.5" r="0.5" style="fill:#231f20"/><circle cx="148" cy="151.5" r="0.5" style="fill:#231f20"/><circle cx="159" cy="151.5" r="0.5" style="fill:#231f20"/><circle cx="170" cy="151.5" r="0.5" style="fill:#231f20"/><circle cx="181" cy="151.5" r="0.5" style="fill:#231f20"/></g></g></g><g style="opacity:0.5"><g style="clip-path:url(#j)"><g style="clip-path:url(#k)"><circle cx="16" cy="162.5" r="0.5" style="fill:#231f20"/><circle cx="27" cy="162.5" r="0.5" style="fill:#231f20"/><circle cx="38" cy="162.5" r="0.5" style="fill:#231f20"/><circle cx="49" cy="162.5" r="0.5" style="fill:#231f20"/><circle cx="16" cy="173.5" r="0.5" style="fill:#231f20"/><circle cx="27" cy="173.5" r="0.5" style="fill:#231f20"/><circle cx="38" cy="173.5" r="0.5" style="fill:#231f20"/><circle cx="49" cy="173.5" r="0.5" style="fill:#231f20"/></g><g style="clip-path:url(#l)"><circle cx="60" cy="162.5" r="0.5" style="fill:#231f20"/><circle cx="71" cy="162.5" r="0.5" style="fill:#231f20"/><circle cx="82" cy="162.5" r="0.5" style="fill:#231f20"/><circle cx="93" cy="162.5" r="0.5" style="fill:#231f20"/><circle cx="60" cy="173.5" r="0.5" style="fill:#231f20"/><circle cx="71" cy="173.5" r="0.5" style="fill:#231f20"/><circle cx="82" cy="173.5" r="0.5" style="fill:#231f20"/><circle cx="93" cy="173.5" r="0.5" style="fill:#231f20"/></g><g style="clip-path:url(#m)"><circle cx="104" cy="162.5" r="0.5" style="fill:#231f20"/><circle cx="115" cy="162.5" r="0.5" style="fill:#231f20"/><circle cx="126" cy="162.5" r="0.5" style="fill:#231f20"/><circle cx="137" cy="162.5" r="0.5" style="fill:#231f20"/><circle cx="104" cy="173.5" r="0.5" style="fill:#231f20"/><circle cx="115" cy="173.5" r="0.5" style="fill:#231f20"/><circle cx="126" cy="173.5" r="0.5" style="fill:#231f20"/><circle cx="137" cy="173.5" r="0.5" style="fill:#231f20"/></g><g style="clip-path:url(#n)"><circle cx="148" cy="162.5" r="0.5" style="fill:#231f20"/><circle cx="159" cy="162.5" r="0.5" style="fill:#231f20"/><circle cx="170" cy="162.5" r="0.5" style="fill:#231f20"/><circle cx="181" cy="162.5" r="0.5" style="fill:#231f20"/><circle cx="148" cy="173.5" r="0.5" style="fill:#231f20"/><circle cx="159" cy="173.5" r="0.5" style="fill:#231f20"/><circle cx="170" cy="173.5" r="0.5" style="fill:#231f20"/><circle cx="181" cy="173.5" r="0.5" style="fill:#231f20"/></g><g style="clip-path:url(#o)"><circle cx="16" cy="184.5" r="0.5" style="fill:#231f20"/><circle cx="27" cy="184.5" r="0.5" style="fill:#231f20"/><circle cx="38" cy="184.5" r="0.5" style="fill:#231f20"/><circle cx="49" cy="184.5" r="0.5" style="fill:#231f20"/><circle cx="16" cy="195.5" r="0.5" style="fill:#231f20"/><circle cx="27" cy="195.5" r="0.5" style="fill:#231f20"/><circle cx="38" cy="195.5" r="0.5" style="fill:#231f20"/><circle cx="49" cy="195.5" r="0.5" style="fill:#231f20"/></g><g style="clip-path:url(#p)"><circle cx="60" cy="184.5" r="0.5" style="fill:#231f20"/><circle cx="71" cy="184.5" r="0.5" style="fill:#231f20"/><circle cx="82" cy="184.5" r="0.5" style="fill:#231f20"/><circle cx="93" cy="184.5" r="0.5" style="fill:#231f20"/><circle cx="60" cy="195.5" r="0.5" style="fill:#231f20"/><circle cx="71" cy="195.5" r="0.5" style="fill:#231f20"/><circle cx="82" cy="195.5" r="0.5" style="fill:#231f20"/><circle cx="93" cy="195.5" r="0.5" style="fill:#231f20"/></g><g style="clip-path:url(#q)"><circle cx="104" cy="184.5" r="0.5" style="fill:#231f20"/><circle cx="115" cy="184.5" r="0.5" style="fill:#231f20"/><circle cx="126" cy="184.5" r="0.5" style="fill:#231f20"/><circle cx="137" cy="184.5" r="0.5" style="fill:#231f20"/><circle cx="104" cy="195.5" r="0.5" style="fill:#231f20"/><circle cx="115" cy="195.5" r="0.5" style="fill:#231f20"/><circle cx="126" cy="195.5" r="0.5" style="fill:#231f20"/><circle cx="137" cy="195.5" r="0.5" style="fill:#231f20"/></g><g style="clip-path:url(#r)"><circle cx="148" cy="184.5" r="0.5" style="fill:#231f20"/><circle cx="159" cy="184.5" r="0.5" style="fill:#231f20"/><circle cx="170" cy="184.5" r="0.5" style="fill:#231f20"/><circle cx="181" cy="184.5" r="0.5" style="fill:#231f20"/><circle cx="148" cy="195.5" r="0.5" style="fill:#231f20"/><circle cx="159" cy="195.5" r="0.5" style="fill:#231f20"/><circle cx="170" cy="195.5" r="0.5" style="fill:#231f20"/><circle cx="181" cy="195.5" r="0.5" style="fill:#231f20"/></g></g></g><g style="opacity:0.5"><g style="clip-path:url(#s)"><g style="clip-path:url(#t)"><circle cx="16" cy="206.5" r="0.5" style="fill:#231f20"/><circle cx="27" cy="206.5" r="0.5" style="fill:#231f20"/><circle cx="38" cy="206.5" r="0.5" style="fill:#231f20"/><circle cx="49" cy="206.5" r="0.5" style="fill:#231f20"/><circle cx="16" cy="217.5" r="0.5" style="fill:#231f20"/><circle cx="27" cy="217.5" r="0.5" style="fill:#231f20"/><circle cx="38" cy="217.5" r="0.5" style="fill:#231f20"/><circle cx="49" cy="217.5" r="0.5" style="fill:#231f20"/></g><g style="clip-path:url(#u)"><circle cx="60" cy="206.5" r="0.5" style="fill:#231f20"/><circle cx="71" cy="206.5" r="0.5" style="fill:#231f20"/><circle cx="82" cy="206.5" r="0.5" style="fill:#231f20"/><circle cx="93" cy="206.5" r="0.5" style="fill:#231f20"/><circle cx="60" cy="217.5" r="0.5" style="fill:#231f20"/><circle cx="71" cy="217.5" r="0.5" style="fill:#231f20"/><circle cx="82" cy="217.5" r="0.5" style="fill:#231f20"/><circle cx="93" cy="217.5" r="0.5" style="fill:#231f20"/></g><g style="clip-path:url(#v)"><circle cx="104" cy="206.5" r="0.5" style="fill:#231f20"/><circle cx="115" cy="206.5" r="0.5" style="fill:#231f20"/><circle cx="126" cy="206.5" r="0.5" style="fill:#231f20"/><circle cx="137" cy="206.5" r="0.5" style="fill:#231f20"/><circle cx="104" cy="217.5" r="0.5" style="fill:#231f20"/><circle cx="115" cy="217.5" r="0.5" style="fill:#231f20"/><circle cx="126" cy="217.5" r="0.5" style="fill:#231f20"/><circle cx="137" cy="217.5" r="0.5" style="fill:#231f20"/></g><g style="clip-path:url(#w)"><circle cx="148" cy="206.5" r="0.5" style="fill:#231f20"/><circle cx="159" cy="206.5" r="0.5" style="fill:#231f20"/><circle cx="170" cy="206.5" r="0.5" style="fill:#231f20"/><circle cx="181" cy="206.5" r="0.5" style="fill:#231f20"/><circle cx="148" cy="217.5" r="0.5" style="fill:#231f20"/><circle cx="159" cy="217.5" r="0.5" style="fill:#231f20"/><circle cx="170" cy="217.5" r="0.5" style="fill:#231f20"/><circle cx="181" cy="217.5" r="0.5" style="fill:#231f20"/></g><g style="clip-path:url(#x)"><circle cx="16" cy="228.5" r="0.5" style="fill:#231f20"/><circle cx="27" cy="228.5" r="0.5" style="fill:#231f20"/><circle cx="38" cy="228.5" r="0.5" style="fill:#231f20"/><circle cx="49" cy="228.5" r="0.5" style="fill:#231f20"/><circle cx="16" cy="239.5" r="0.5" style="fill:#231f20"/><circle cx="27" cy="239.5" r="0.5" style="fill:#231f20"/><circle cx="38" cy="239.5" r="0.5" style="fill:#231f20"/><circle cx="49" cy="239.5" r="0.5" style="fill:#231f20"/></g><g style="clip-path:url(#y)"><circle cx="60" cy="228.5" r="0.5" style="fill:#231f20"/><circle cx="71" cy="228.5" r="0.5" style="fill:#231f20"/><circle cx="82" cy="228.5" r="0.5" style="fill:#231f20"/><circle cx="93" cy="228.5" r="0.5" style="fill:#231f20"/><circle cx="60" cy="239.5" r="0.5" style="fill:#231f20"/><circle cx="71" cy="239.5" r="0.5" style="fill:#231f20"/><circle cx="82" cy="239.5" r="0.5" style="fill:#231f20"/><circle cx="93" cy="239.5" r="0.5" style="fill:#231f20"/></g><g style="clip-path:url(#z)"><circle cx="104" cy="228.5" r="0.5" style="fill:#231f20"/><circle cx="115" cy="228.5" r="0.5" style="fill:#231f20"/><circle cx="126" cy="228.5" r="0.5" style="fill:#231f20"/><circle cx="137" cy="228.5" r="0.5" style="fill:#231f20"/><circle cx="104" cy="239.5" r="0.5" style="fill:#231f20"/><circle cx="115" cy="239.5" r="0.5" style="fill:#231f20"/><circle cx="126" cy="239.5" r="0.5" style="fill:#231f20"/><circle cx="137" cy="239.5" r="0.5" style="fill:#231f20"/></g><g style="clip-path:url(#aa)"><circle cx="148" cy="228.5" r="0.5" style="fill:#231f20"/><circle cx="159" cy="228.5" r="0.5" style="fill:#231f20"/><circle cx="170" cy="228.5" r="0.5" style="fill:#231f20"/><circle cx="181" cy="228.5" r="0.5" style="fill:#231f20"/><circle cx="148" cy="239.5" r="0.5" style="fill:#231f20"/><circle cx="159" cy="239.5" r="0.5" style="fill:#231f20"/><circle cx="170" cy="239.5" r="0.5" style="fill:#231f20"/><circle cx="181" cy="239.5" r="0.5" style="fill:#231f20"/></g></g></g><g style="opacity:0.5"><g style="clip-path:url(#ab)"><g style="clip-path:url(#ac)"><circle cx="16" cy="250.5" r="0.5" style="fill:#231f20"/><circle cx="27" cy="250.5" r="0.5" style="fill:#231f20"/><circle cx="38" cy="250.5" r="0.5" style="fill:#231f20"/><circle cx="49" cy="250.5" r="0.5" style="fill:#231f20"/><circle cx="16" cy="261.5" r="0.5" style="fill:#231f20"/><circle cx="27" cy="261.5" r="0.5" style="fill:#231f20"/><circle cx="38" cy="261.5" r="0.5" style="fill:#231f20"/><circle cx="49" cy="261.5" r="0.5" style="fill:#231f20"/></g><g style="clip-path:url(#ad)"><circle cx="60" cy="250.5" r="0.5" style="fill:#231f20"/><circle cx="71" cy="250.5" r="0.5" style="fill:#231f20"/><circle cx="82" cy="250.5" r="0.5" style="fill:#231f20"/><circle cx="93" cy="250.5" r="0.5" style="fill:#231f20"/><circle cx="60" cy="261.5" r="0.5" style="fill:#231f20"/><circle cx="71" cy="261.5" r="0.5" style="fill:#231f20"/><circle cx="82" cy="261.5" r="0.5" style="fill:#231f20"/><circle cx="93" cy="261.5" r="0.5" style="fill:#231f20"/></g><g style="clip-path:url(#ae)"><circle cx="104" cy="250.5" r="0.5" style="fill:#231f20"/><circle cx="115" cy="250.5" r="0.5" style="fill:#231f20"/><circle cx="126" cy="250.5" r="0.5" style="fill:#231f20"/><circle cx="137" cy="250.5" r="0.5" style="fill:#231f20"/><circle cx="104" cy="261.5" r="0.5" style="fill:#231f20"/><circle cx="115" cy="261.5" r="0.5" style="fill:#231f20"/><circle cx="126" cy="261.5" r="0.5" style="fill:#231f20"/><circle cx="137" cy="261.5" r="0.5" style="fill:#231f20"/></g><g style="clip-path:url(#af)"><circle cx="148" cy="250.5" r="0.5" style="fill:#231f20"/><circle cx="159" cy="250.5" r="0.5" style="fill:#231f20"/><circle cx="170" cy="250.5" r="0.5" style="fill:#231f20"/><circle cx="181" cy="250.5" r="0.5" style="fill:#231f20"/><circle cx="148" cy="261.5" r="0.5" style="fill:#231f20"/><circle cx="159" cy="261.5" r="0.5" style="fill:#231f20"/><circle cx="170" cy="261.5" r="0.5" style="fill:#231f20"/><circle cx="181" cy="261.5" r="0.5" style="fill:#231f20"/></g><g style="clip-path:url(#ag)"><circle cx="16" cy="272.5" r="0.5" style="fill:#231f20"/><circle cx="27" cy="272.5" r="0.5" style="fill:#231f20"/><circle cx="38" cy="272.5" r="0.5" style="fill:#231f20"/><circle cx="49" cy="272.5" r="0.5" style="fill:#231f20"/><circle cx="16" cy="283.5" r="0.5" style="fill:#231f20"/><circle cx="27" cy="283.5" r="0.5" style="fill:#231f20"/><circle cx="38" cy="283.5" r="0.5" style="fill:#231f20"/><circle cx="49" cy="283.5" r="0.5" style="fill:#231f20"/></g><g style="clip-path:url(#ah)"><circle cx="60" cy="272.5" r="0.5" style="fill:#231f20"/><circle cx="71" cy="272.5" r="0.5" style="fill:#231f20"/><circle cx="82" cy="272.5" r="0.5" style="fill:#231f20"/><circle cx="93" cy="272.5" r="0.5" style="fill:#231f20"/><circle cx="60" cy="283.5" r="0.5" style="fill:#231f20"/><circle cx="71" cy="283.5" r="0.5" style="fill:#231f20"/><circle cx="82" cy="283.5" r="0.5" style="fill:#231f20"/><circle cx="93" cy="283.5" r="0.5" style="fill:#231f20"/></g><g style="clip-path:url(#ai)"><circle cx="104" cy="272.5" r="0.5" style="fill:#231f20"/><circle cx="115" cy="272.5" r="0.5" style="fill:#231f20"/><circle cx="126" cy="272.5" r="0.5" style="fill:#231f20"/><circle cx="137" cy="272.5" r="0.5" style="fill:#231f20"/><circle cx="104" cy="283.5" r="0.5" style="fill:#231f20"/><circle cx="115" cy="283.5" r="0.5" style="fill:#231f20"/><circle cx="126" cy="283.5" r="0.5" style="fill:#231f20"/><circle cx="137" cy="283.5" r="0.5" style="fill:#231f20"/></g><g style="clip-path:url(#aj)"><circle cx="148" cy="272.5" r="0.5" style="fill:#231f20"/><circle cx="159" cy="272.5" r="0.5" style="fill:#231f20"/><circle cx="170" cy="272.5" r="0.5" style="fill:#231f20"/><circle cx="181" cy="272.5" r="0.5" style="fill:#231f20"/><circle cx="148" cy="283.5" r="0.5" style="fill:#231f20"/><circle cx="159" cy="283.5" r="0.5" style="fill:#231f20"/><circle cx="170" cy="283.5" r="0.5" style="fill:#231f20"/><circle cx="181" cy="283.5" r="0.5" style="fill:#231f20"/></g></g></g><rect x="15.5" y="14.91" width="166" height="87.09" style="fill:none;stroke:#231f20;stroke-miterlimit:10;stroke-width:0.25px"/></svg>