<svg xmlns="http://www.w3.org/2000/svg" viewBox="0 0 200 300"><line y1="12" x2="200" y2="12" style="fill:none;stroke:#231f20;stroke-miterlimit:10;stroke-width:0.25px"/><line y1="24.02" x2="200" y2="24.02" style="fill:none;stroke:#231f20;stroke-miterlimit:10;stroke-width:0.25px"/><line y1="36.04" x2="200" y2="36.04" style="fill:none;stroke:#231f20;stroke-miterlimit:10;stroke-width:0.25px"/><line y1="48.07" x2="200" y2="48.07" style="fill:none;stroke:#231f20;stroke-miterlimit:10;stroke-width:0.25px"/><line y1="60.09" x2="200" y2="60.09" style="fill:none;stroke:#231f20;stroke-miterlimit:10;stroke-width:0.25px"/><line y1="72.11" x2="200" y2="72.11" style="fill:none;stroke:#231f20;stroke-miterlimit:10;stroke-width:0.25px"/><line y1="84.13" x2="200" y2="84.13" style="fill:none;stroke:#231f20;stroke-miterlimit:10;stroke-width:0.25px"/><line y1="96.15" x2="200" y2="96.15" style="fill:none;stroke:#231f20;stroke-miterlimit:10;stroke-width:0.25px"/><line y1="108.17" x2="200" y2="108.17" style="fill:none;stroke:#231f20;stroke-miterlimit:10;stroke-width:0.25px"/><line y1="120.2" x2="200" y2="120.2" style="fill:none;stroke:#231f20;stroke-miterlimit:10;stroke-width:0.25px"/><line y1="132.22" x2="200" y2="132.22" style="fill:none;stroke:#231f20;stroke-miterlimit:10;stroke-width:0.25px"/><line y1="144.24" x2="200" y2="144.24" style="fill:none;stroke:#231f20;stroke-miterlimit:10;stroke-width:0.25px"/><line y1="156.26" x2="200" y2="156.26" style="fill:none;stroke:#231f20;stroke-miterlimit:10;stroke-width:0.25px"/><line y1="168.28" x2="200" y2="168.28" style="fill:none;stroke:#231f20;stroke-miterlimit:10;stroke-width:0.25px"/><line y1="180.3" x2="200" y2="180.3" style="fill:none;stroke:#231f20;stroke-miterlimit:10;stroke-width:0.25px"/><line y1="192.33" x2="200" y2="192.33" style="fill:none;stroke:#231f20;stroke-miterlimit:10;stroke-width:0.25px"/><line y1="204.35" x2="200" y2="204.35" style="fill:none;stroke:#231f20;stroke-miterlimit:10;stroke-width:0.25px"/><line y1="216.37" x2="200" y2="216.37" style="fill:none;stroke:#231f20;stroke-miterlimit:10;stroke-width:0.25px"/><line y1="228.39" x2="200" y2="228.39" style="fill:none;stroke:#231f20;stroke-miterlimit:10;stroke-width:0.25px"/><line y1="240.41" x2="200" y2="240.41" style="fill:none;stroke:#231f20;stroke-miterlimit:10;stroke-width:0.25px"/><line y1="252.43" x2="200" y2="252.43" style="fill:none;stroke:#231f20;stroke-miterlimit:10;stroke-width:0.25px"/><line y1="264.46" x2="200" y2="264.46" style="fill:none;stroke:#231f20;stroke-miterlimit:10;stroke-width:0.25px"/><line y1="276.48" x2="200" y2="276.48" style="fill:none;stroke:#231f20;stroke-miterlimit:10;stroke-width:0.25px"/><line y1="288.5" x2="200" y2="288.5" style="fill:none;stroke:#231f20;stroke-miterlimit:10;stroke-width:0.25px"/></svg>
