<?xml version="1.0" encoding="UTF-8" standalone="no"?>

<svg
   id="svg5"
   version="1.1"
   viewBox="0 0 5.8208332 8.4666661"
   height="31.999998"
   width="22"
   xmlns="http://www.w3.org/2000/svg">
  <defs
     id="defs2" />
  <g
     id="layer1">
    <path
       style="fill:#000000;stroke:#000000;stroke-width:0.2691;stroke-opacity:1"
       d="m 1.72205,0.79374999 c 0,6.78884951 0,6.87916671 0,6.87916671"
       id="path22562" />
    <path
       style="fill:#000000;stroke:#000000;stroke-width:0.264583;stroke-dasharray:none;stroke-opacity:1"
       d="m 3.8364583,0.79375 c 0,6.7888495 0,6.8791667 0,6.8791667"
       id="path22562-2" />
    <path
       style="fill:#000000;stroke:#000000;stroke-width:0.264583;stroke-dasharray:none;stroke-opacity:1"
       d="m 4.8947915,0.79374998 c 0,6.78884952 0,6.87916672 0,6.87916672"
       id="path22562-2-6" />
    <path
       style="fill:#000000;stroke:#000000;stroke-width:0.2691;stroke-opacity:1"
       d="m 2.7803833,0.79375 c 0,6.7888495 0,6.8791667 0,6.8791667"
       id="path22562-9" />
    <path
       style="fill:#000000;stroke:#000000;stroke-width:0.264583;stroke-dasharray:none;stroke-opacity:1"
       d="m 5.55625,1.984375 c -5.22219193,0 -5.29166662,0 -5.29166662,0"
       id="path22562-3" />
    <path
       style="fill:#000000;stroke:#000000;stroke-width:0.264583;stroke-dasharray:none;stroke-opacity:1"
       d="m 5.55625,3.7041665 c -5.22219193,0 -5.29166663,0 -5.29166663,0"
       id="path22562-3-3" />
    <path
       style="fill:#000000;stroke:#000000;stroke-width:0.132292;stroke-dasharray:none;stroke-opacity:1"
       d="m 5.5562499,2.447396 c -5.22219182,0 -5.29166651,0 -5.29166651,0"
       id="path22562-3-8" />
    <path
       style="fill:#000000;stroke:#000000;stroke-width:0.132292;stroke-dasharray:none;stroke-opacity:1"
       d="m 5.5562499,2.844271 c -5.22219178,0 -5.29166648,0 -5.29166648,0"
       id="path22562-3-8-3" />
    <path
       style="fill:#000000;stroke:#000000;stroke-width:0.132292;stroke-dasharray:none;stroke-opacity:1"
       d="m 5.5562499,3.241146 c -5.22219178,0 -5.29166648,0 -5.29166648,0"
       id="path22562-3-8-3-7" />
    <path
       style="fill:#000000;stroke:#000000;stroke-width:0.132292;stroke-dasharray:none;stroke-opacity:1"
       d="m 5.5562499,4.1671877 c -5.22219178,0 -5.29166648,0 -5.29166648,0"
       id="path22562-3-8-7" />
    <path
       style="fill:#000000;stroke:#000000;stroke-width:0.132292;stroke-dasharray:none;stroke-opacity:1"
       d="m 5.5562499,4.5640627 c -5.22219178,0 -5.29166648,0 -5.29166648,0"
       id="path22562-3-8-3-6" />
    <path
       style="fill:#000000;stroke:#000000;stroke-width:0.132292;stroke-dasharray:none;stroke-opacity:1"
       d="m 5.5562499,4.9609377 c -5.22219178,0 -5.29166648,0 -5.29166648,0"
       id="path22562-3-8-3-7-7" />
    <path
       style="fill:#000000;stroke:#000000;stroke-width:0.264583;stroke-dasharray:none;stroke-opacity:1"
       d="m 5.55625,5.4239582 c -5.22219193,0 -5.29166663,0 -5.29166663,0"
       id="path22562-3-3-0" />
    <path
       style="fill:#000000;stroke:#000000;stroke-width:0.132292;stroke-dasharray:none;stroke-opacity:1"
       d="m 5.5562499,5.8869794 c -5.22219178,0 -5.29166648,0 -5.29166648,0"
       id="path22562-3-8-7-4" />
    <path
       style="fill:#000000;stroke:#000000;stroke-width:0.132292;stroke-dasharray:none;stroke-opacity:1"
       d="m 5.5562499,6.2838544 c -5.22219178,0 -5.29166648,0 -5.29166648,0"
       id="path22562-3-8-3-6-1" />
    <path
       style="fill:#000000;stroke:#000000;stroke-width:0.132292;stroke-dasharray:none;stroke-opacity:1"
       d="m 5.5562499,6.6807294 c -5.22219178,0 -5.29166648,0 -5.29166648,0"
       id="path22562-3-8-3-7-7-1" />
  </g>
</svg>
